<?xml version="1.0" encoding="utf-8"?>
<!-- Generator: Adobe Illustrator 12.0.0, SVG Export Plug-In . SVG Version: 6.00 Build 51448)  -->
<!DOCTYPE svg PUBLIC "-//W3C//DTD SVG 1.1//EN" "http://www.w3.org/Graphics/SVG/1.1/DTD/svg11.dtd" [
	<!ENTITY ns_svg "http://www.w3.org/2000/svg">
	<!ENTITY ns_xlink "http://www.w3.org/1999/xlink">
]>
<svg  version="1.1" id="Layer_1" xmlns="&ns_svg;" xmlns:xlink="&ns_xlink;" width="300.358" height="333.837"
	 viewBox="0 0 300.358 333.837" overflow="visible" enable-background="new 0 0 300.358 333.837" xml:space="preserve">
<path fill="#40C296" d="M246.409,321.825H61.625c-23.561,0-42.656-19.107-42.656-42.662V94.373
	c0-23.561,19.096-42.659,42.656-42.659h184.785c23.561,0,42.662,19.099,42.662,42.659v184.79
	C289.071,302.718,269.97,321.825,246.409,321.825L246.409,321.825z"/>
<path fill="#2F3E51" d="M164.671,55.953c5.982,0.7,11.988,0.882,17.988,0.721C176.612,56.448,170.606,56.208,164.671,55.953
	L164.671,55.953z M269.7,64.666c0.574,0.442,1.107,0.92,1.623,1.383l0.486,0.437l0.041,0.038l1.26,1.23l0.686,0.744
	c1.389,1.509,2.531,2.941,3.492,4.383l0.129,0.179l0.275,0.413l0.047,0.07c-0.234-0.571-0.475-1.166-0.727-1.787
	c-0.357-0.882-0.738-1.808-1.137-2.786c-0.979-2.303-2.326-4.471-3.996-6.448c-1.67-1.972-3.633-3.718-5.842-5.191
	c-4.342-2.909-9.703-4.714-15.088-5.083l-1.529-0.067l-0.533-0.018l-0.234-0.006l-0.129,0.003l-1.658,0.044l-1.002,0.053
	l-1.031,0.067l-2.057,0.155c-2.584,0.205-5.285,0.466-8.256,0.8c-5.508,0.615-11.145,1.392-16.594,2.142l-0.07,0.009l-0.598,0.082
	c4.406,0.117,8.842,0.229,13.277,0.334l12.633,0.27l3.188,0.062l1.389,0.064l0.252,0.012l0.469,0.023l0.029,0.003l1.359,0.135
	l0.164,0.015l0.592,0.07l1.324,0.196l0.662,0.117l1.453,0.287l0.445,0.111l0.234,0.059c1.664,0.384,3.41,0.946,5.344,1.723
	l0.645,0.267l0.188,0.076l0.504,0.22l1.201,0.571l0.504,0.255l0.158,0.082l0.609,0.325l0.223,0.12l0.398,0.211l0.029,0.018
	l1.488,0.885l0.199,0.135l1.266,0.838l0.668,0.486l0.434,0.316l0.908,0.703L269.7,64.666L269.7,64.666z M5.421,85.836
	c-0.146,0.776-0.299,1.567-0.439,2.353v0.015l-0.164,1.061l-0.17,1.277l-0.053,0.39l-0.088,0.765L4.361,93.57L4.25,95.097
	l-0.123,1.781l-0.234,3.571c-0.146,2.355-0.287,4.764-0.41,7.157c-0.252,4.711-0.469,9.545-0.639,14.379
	c-0.334,9.352-0.521,19.102-0.563,28.975c-0.07,17.314,0.299,35.227,1.125,54.639c1.184-27.973,3.146-58.875,5.871-92.203
	c0.398-4.857,0.82-9.841,1.248-14.804l0.41-4.658l0.223-2.162l0.111-0.741l0.047-0.334c0.439-2.947,1.113-5.774,2.004-8.399
	c0.902-2.681,2.039-5.297,3.381-7.772l0.539-0.97l0.51-0.873l0.299-0.475l0.791-1.26l0.018-0.032l1.172-1.685l0.867-1.137
	l0.369-0.486l0.018-0.018c1.688-2.118,3.563-4.104,5.578-5.906c2.027-1.811,4.166-3.419,6.363-4.775
	c2.191-1.365,4.518-2.558,6.896-3.542l0.018-0.006l1.301-0.516l0.498-0.185l1.775-0.601l1.225-0.357l0.568-0.161l0.475-0.135
	l0.316-0.076l1.049-0.24l0.299-0.067l0.604-0.138l0.041-0.006l0.891-0.161l0.48-0.085l1.377-0.211l0.58-0.073l1.213-0.144
	l0.029-0.003l1.799-0.132c2.338-0.117,4.74-0.05,7.154,0.193c8.877,0.964,17.76,1.969,26.42,2.982
	c3.838,0.293,7.705,0.454,11.578,0.521c-6.727-1.784-13.617-3.448-20.566-4.963c-4.465-0.973-9.047-1.907-13.617-2.774l-4.09-0.759
	l-0.141-0.023l-0.018-0.003l-2.197-0.278l-0.299-0.032l-0.504-0.038c-0.639-0.047-1.336-0.097-2.033-0.141
	c-0.68-0.015-1.371-0.023-2.051-0.032h-0.176l-0.316-0.003l-1.857,0.07l-0.715,0.035l-1.043,0.094
	c-1.4,0.111-2.813,0.334-4.137,0.554c-0.697,0.135-1.395,0.278-2.086,0.425l-0.018,0.003L43.49,46.01l-1.57,0.407
	c-2.748,0.756-5.455,1.758-8.045,2.979c-0.65,0.319-1.307,0.647-1.957,0.979c-0.557,0.299-1.119,0.621-1.67,0.932l-0.252,0.144
	l-0.158,0.094l-0.293,0.167l-1.881,1.192l-0.422,0.278l-0.932,0.656c-2.449,1.743-4.746,3.686-6.809,5.774
	c-2.121,2.153-4.072,4.515-5.801,7.011c-1.805,2.613-3.346,5.317-4.576,8.039c-1.295,2.842-2.355,5.821-3.146,8.862
	C5.808,84.21,5.609,85.019,5.421,85.836L5.421,85.836z M282.31,83.407l0.404,1.447l0.111,0.486l0.047,0.217l0.006,0.021l0.117,0.519
	l0.182,0.814l0.006,0.032l0.293,1.693l0.029,0.246l0.205,1.685l0.135,1.913l0.041,1.887l-0.029,18.448
	c0.006,8.273,0.029,16.828,0.076,25.412c0.158,30.703,0.574,63.65,1.271,100.693l0.064-0.006V94.508l-0.006-0.278l-0.047-1.846
	l-0.006-0.149l-0.059-0.727l-0.035-0.46l-0.059-0.729l-0.229-1.819l-0.059-0.322l-0.041-0.234l-0.164-0.935l-0.07-0.094
	l-0.686-0.973l-0.428-0.7l-0.135-0.211l-0.369-0.601l-0.533-0.961L282.31,83.407L282.31,83.407z M272.384,248.771
	c0.059,0.141,0.75,1.365,7.008,2.871c1.336,0.322,2.666,0.592,3.814,0.809l-0.152-7.465
	C273.304,247.03,272.454,248.589,272.384,248.771L272.384,248.771z M285.532,255.157l0.006,0.217l0.34-0.164L285.532,255.157
	L285.532,255.157z M285.925,255.216l0.662,1.354l0.334-0.193c6.902-3.926,11.074-7.746,11.168-10.219
	c0.07-1.992-2.854-3.568-8.32-4.535l0.158,0.68c-0.035,1.055-1.066,1.5-2.385,1.805v11.338l-1.295-0.182L285.925,255.216
	L285.925,255.216z M286.019,281.442l-0.07,1.43l-0.006,0.117l-0.023,0.305l-0.176,1.781l0.521-0.398l0.457-0.369l0.199-0.158
	l0.68-0.568l0.656-0.568l0.316-0.275l0.299-0.281l1.172-1.189l0.023-0.029l0.504-0.563l0.48-0.609l0.879-1.266l0.123-0.199
	l0.258-0.428l0.328-0.586c0.41-0.803,0.68-1.553,0.814-2.291c0.393-2.186,0.023-5.789-7.74-11.76l-0.012-0.006l0.041,2.104
	l0.293,13.576v1.441v0.205L286.019,281.442L286.019,281.442z M23.662,288.954l0.475,1.43l-0.152-0.732l-0.188-0.932l-0.229-1.236
	l-0.1-0.527l-0.164-1.025l-0.088-0.504l-0.094-0.633l-0.188-1.307l-0.006-0.012l-0.018-0.1l-0.035-0.281l-0.123-1.008l-0.088-0.691
	l-0.053-0.48l-0.023-0.252v-0.018l-0.123-1.148l-0.035-0.311l-0.152-1.617l-0.07-0.609l-0.006,0.527v0.064
	c-0.006,0.551-0.012,1.119-0.012,1.664l0.047,1.664c0.123,2.156,0.451,4.33,0.984,6.469L23.662,288.954L23.662,288.954z
	 M272.431,304.798l-0.428,1.336l-0.006,0.018l-0.275,0.85l-0.352,1.084c1.172-1.084,2.303-2.25,3.369-3.492l0.92-1.119l0.521-0.697
	l0.34-0.445l0.223-0.305l0.158-0.211l0.012-0.029l0.404-0.604l0.229-0.334l0.527-0.826l0.012-0.023l0.744-1.225l0.844-1.559
	l0.768-1.6l0.164-0.387l0.105-0.258l0.281-0.656l0.088-0.205l0.152-0.393l0.012-0.023l0.51-1.4l0.129-0.387l0.07-0.229l0.211-0.686
	l0.082-0.258l0.123-0.393v-0.006l-0.486,0.363l-0.018,0.012c-1.564,1.148-3.352,2.549-4.799,4.283l-0.463,0.598l-0.117,0.152
	l-0.375,0.51l-0.434,0.686l-0.023,0.041l-0.41,0.686l-0.205,0.404l-0.604,1.225l-0.223,0.527l-0.182,0.422l-0.287,0.738
	l-0.105,0.287l-0.381,1.049l-0.006,0.012l-0.076,0.217l-0.129,0.393l-0.199,0.563l-0.193,0.609l-0.053,0.176L272.431,304.798
	L272.431,304.798z M114.054,305.612c-11.033,0-19.207,3.855-25.277,11.889c6.961-0.492,14.402-1.143,22.447-1.969
	c10.887-1.113,21.686-2.42,32.309-3.773c-8.221-2.813-16.23-5.021-23.607-5.818C117.886,305.718,115.929,305.612,114.054,305.612
	L114.054,305.612z M42.71,317.917l0.234,0.041l0.463,0.059l0.885-0.006h0.018l0.803-0.17l0.814-0.346
	c-1.348-0.633-2.654-1.359-3.896-2.168c-3.516-2.326-6.686-4.893-9.445-7.676c1.178,2.174,2.449,4.072,3.779,5.666
	c0.768,0.867,1.418,1.582,2.086,2.145l0.018,0.018l0.533,0.463l0.475,0.375l0.018,0.012l1.061,0.691l0.094,0.059l0.369,0.205
	l0.516,0.234l0.984,0.346l0.029,0.012L42.71,317.917L42.71,317.917z M59.591,318.603l2.01,0.041l1.875-0.023l2.18-0.029
	c2.848-0.064,5.818-0.152,8.842-0.275c2.666-0.111,5.396-0.246,8.209-0.416c-0.885-0.375-1.752-0.744-2.602-1.113
	c-1.5-0.65-2.941-1.295-4.336-1.91c-2.525-1.125-4.904-2.18-7.096-3.053c-1.811-0.727-3.352-1.266-4.711-1.646
	c-0.738-0.211-1.453-0.381-2.109-0.498l-0.311-0.059l-0.299-0.059l-0.287-0.076l-0.586-0.1h-0.023
	c-1.635-0.229-2.918,0.135-4.43,1.266l-0.023,0.018c-0.75,0.533-1.629,1.342-2.842,2.619c-0.568,0.609-1.189,1.336-1.729,1.963
	c-0.387,0.457-0.803,0.949-1.248,1.494c2.344,0.826,4.799,1.389,7.301,1.67l0.047,0.006l0.416,0.041L59.591,318.603L59.591,318.603z
	 M113.908,323.981c9.926,1.002,20.918,0.381,33.445-2.883C137.298,321.907,126.453,322.845,113.908,323.981L113.908,323.981z
	 M87.113,319.897c-1.084,1.717-2.666,3.299-4.764,4.758l15.346-1.453c-3.58-0.996-6.938-2.145-10.084-3.34L87.113,319.897
	L87.113,319.897z M33.06,325.763l0.961,0.463l0.393,0.188c3.48,1.629,7.107,2.824,10.781,3.563c3.363,0.68,6.762,0.961,10.107,0.855
	l0.029-0.006c0.709-0.006,1.43-0.07,2.127-0.129l1.318-0.117l1.125-0.164l1.424-0.223l0.1-0.012l0.023-0.006l0.445-0.1
	c0.586-0.141,1.172-0.281,1.734-0.416c1.857-0.457,3.615-0.943,5.256-1.447l-5.941,0.568l-0.451,0.047
	c-0.457,0.047-0.932,0.088-1.506,0.117l-1.863,0.1l-2.373,0.023h-0.018c-2.883-0.064-5.783-0.363-8.602-0.896
	c-2.977-0.574-5.83-1.383-8.467-2.408c-5.596-2.133-10.764-5.221-15.352-9.152c-4.676-4.031-8.59-8.824-11.637-14.221
	c-3.07-5.432-5.162-11.432-6.217-17.824l-0.006-0.023c-0.111-0.773-0.223-1.564-0.328-2.332l-0.006-0.035
	c-0.064-0.662-0.123-1.324-0.182-1.963l-0.035-0.393l-0.311-3.814l-0.58-7.371c-0.223-2.842-0.434-5.643-0.639-8.402
	c-0.006,2.977,0.006,5.9,0.023,8.742c0.018,2.057,0.035,4.131,0.064,6.146l0.047,3.029c0.012,0.891,0.076,2.537,0.129,3.68v0.018
	l0.047,0.609l0.029,0.328l0.188,1.998l0.076,0.609l0.053,0.346c0.088,0.645,0.188,1.301,0.287,1.939l0.293,1.512l0.275,1.348
	l0.164,0.668l0.064,0.264c0.176,0.691,0.334,1.301,0.486,1.863l0.65,2.104l0.205,0.615l0.451,1.248l0.533,1.406l0.744,1.734
	l0.123,0.275l0.24,0.545l0.609,1.242l0.621,1.23l0.896,1.611l0.152,0.264l0.287,0.504l0.68,1.09l0.762,1.184l1.172,1.682
	l0.357,0.492l0.926,1.184l0.691,0.885l1.131,1.313l0.574,0.65l0.369,0.393l0.199,0.211l1.195,1.236l0.404,0.398l0.176,0.164
	l1.529,1.424l0.305,0.264l1.271,1.072l1.137,0.908l0.123,0.088l1.289,0.973l1.318,0.902l0.316,0.217l0.967,0.627l1.371,0.826
	l0.229,0.141l0.398,0.234L33.06,325.763L33.06,325.763z M153.119,312.819c4.069,1.541,8.153,3.158,12.202,4.77
	c14.918,5.912,30.346,12.035,43.617,13.588c14.789,1.729,24.955-2.291,31.998-12.662l0.012-0.023c2.73-3.826,3.533-6.75,2.379-8.689
	c-1.77-2.965-8.232-4.436-19.225-4.371c-11.666,0.064-27.422,1.828-41.303,3.545c-6.861,0.855-13.992,1.781-21.533,2.771
	C158.565,312.104,155.85,312.462,153.119,312.819L153.119,312.819z M215.231,333.837c-2.08,0-4.26-0.135-6.557-0.404
	c-13.564-1.588-29.133-7.764-44.191-13.734c-5.373-2.133-10.813-4.289-16.199-6.252c-12.07,1.553-24.387,3.07-36.832,4.348
	c-6.428,0.662-12.469,1.207-18.193,1.658c3.656,1.213,7.447,2.273,11.396,3.1c21.188-1.963,37.611-3.369,52.826-4.529l0.463,2.203
	c-12.285,4.307-23.939,6.439-35.347,6.439c-3.574,0-7.119-0.211-10.658-0.633c-2.561-0.299-5.039-0.697-7.424-1.184
	c-1.184,0.111-2.385,0.223-3.598,0.334l-23.42,2.215c-1.992,0.938-4.254,1.811-6.797,2.631c-1.998,0.645-4.195,1.26-6.527,1.84
	c-0.574,0.135-1.172,0.281-1.77,0.416l-0.434,0.1l-0.281,0.053l-0.34,0.053l-1.588,0.24l-0.75,0.111l-1.359,0.123
	c-0.738,0.059-1.5,0.129-2.285,0.135c-3.516,0.111-7.09-0.182-10.617-0.891c-3.85-0.773-7.652-2.027-11.303-3.738l-0.393-0.188
	l-1.031-0.498l-0.018-0.006l-2.074-1.107l-0.498-0.293l-0.217-0.129l-0.018-0.006l-1.359-0.826l-1.078-0.697l-0.311-0.211
	l-1.359-0.932l-0.035-0.029l-1.441-1.084l-1.23-0.984l-1.635-1.377l-1.564-1.459l-0.17-0.164l-0.492-0.486l-1.189-1.23l-0.199-0.211
	l-0.434-0.457l-0.58-0.662l-1.16-1.348l-0.029-0.035l-1.67-2.133l-0.387-0.545l-1.213-1.723l-0.791-1.236l-0.691-1.113l-0.34-0.58
	l-0.141-0.252l-0.006-0.012l-0.92-1.652l-0.656-1.301l-0.615-1.254l-0.281-0.627l-0.117-0.275l-0.773-1.799l-0.551-1.459
	l-0.475-1.301l-0.217-0.668L5,295.851l-0.592-1.916c-0.152-0.568-0.316-1.201-0.498-1.916l-0.064-0.258l-0.176-0.715l-0.006-0.035
	l-0.281-1.377l-0.305-1.564l-0.006-0.035c-0.1-0.65-0.199-1.318-0.299-1.986l-0.041-0.328l-0.094-0.727l-0.193-2.021l-0.029-0.305
	l-0.053-0.744c-0.053-1.213-0.117-2.836-0.123-3.75l-0.053-3.018c-0.029-2.027-0.047-4.102-0.064-6.17
	c-0.029-4.09-0.029-8.355-0.006-12.686c0.047-7.623,0.17-15.703,0.381-24.047c-0.463-7.781-0.855-15.293-1.189-22.629
	c-0.949-20.971-1.371-40.16-1.301-58.676c0.041-9.896,0.229-19.67,0.563-29.045c0.176-4.846,0.387-9.697,0.639-14.414
	c0.129-2.405,0.27-4.822,0.416-7.184l0.234-3.58l0.287-3.996l0.1-1.222l0.1-0.873l0.047-0.378l0.17-1.298l0.188-1.181
	c0.141-0.797,0.293-1.603,0.445-2.394l0.006-0.038c0.193-0.841,0.398-1.673,0.568-2.373l0.006-0.018
	c0.826-3.167,1.934-6.275,3.281-9.231c1.283-2.845,2.889-5.669,4.775-8.396c1.805-2.604,3.838-5.063,6.053-7.313
	c2.156-2.183,4.553-4.213,7.113-6.032l0.926-0.653l0.521-0.343l1.904-1.207l0.363-0.214l0.158-0.088l0.258-0.149
	c0.557-0.316,1.137-0.647,1.717-0.961l0.029-0.015c0.662-0.337,1.342-0.674,2.004-1.002l0.018-0.009
	c2.719-1.277,5.549-2.329,8.426-3.12l0.018-0.006l1.582-0.407l0.58-0.138c0.703-0.146,1.418-0.293,2.121-0.434l0.035-0.006
	c1.383-0.229,2.854-0.46,4.342-0.577l1.072-0.097l0.779-0.038l1.916-0.073l0.381,0.003h0.164c0.703,0.009,1.406,0.021,2.104,0.035
	l0.047,0.003c0.715,0.041,1.424,0.094,2.086,0.141l0.539,0.041l0.375,0.041l1.189,0.149l1.02,0.132l0.275,0.044l4.096,0.759
	c4.6,0.873,9.205,1.811,13.688,2.789c9.152,1.995,18.205,4.248,26.912,6.691c0.938,0.211,1.875,0.375,2.818,0.501
	c4.916-0.064,9.809-0.22,14.637-0.369l0.223-0.009c0.938-0.111,1.881-0.229,2.83-0.346c7.406-0.923,15.053-1.878,22.746,0.018
	c1.7,0.038,3.387,0.094,5.081,0.173c15.554,0.721,31.661,1.345,47.921,1.852c4.91-0.577,9.797-1.251,14.648-1.919l0.07-0.009
	c5.467-0.75,11.115-1.529,16.652-2.147c2.994-0.337,5.719-0.601,8.332-0.809l2.074-0.155l1.043-0.067l1.09-0.056l1.658-0.047
	l0.205-0.003l0.293,0.009l0.527,0.018c0.527,0.015,1.066,0.032,1.611,0.07c5.865,0.401,11.467,2.288,16.201,5.461
	c2.379,1.591,4.506,3.48,6.311,5.613c1.822,2.153,3.287,4.521,4.354,7.031l0.006,0.015c0.404,0.981,0.785,1.916,1.143,2.801
	c0.768,1.896,1.436,3.533,2.08,5.007l0.012,0.029l0.615,1.383l0.076,0.17l0.633,1.371l0.012,0.021l0.199,0.419l0.416,0.855
	l0.012,0.021l0.135,0.255l0.182,0.36l0.281,0.551l0.557,1.014l0.023,0.038l0.492,0.885l0.334,0.542l0.146,0.237l0.012,0.023
	l0.387,0.624l0.586,0.835l0.398,0.53l0.264,1.482l0.041,0.211l0.07,0.439l0.24,1.878l0.064,0.8l0.035,0.445l0.053,0.727l0.018,0.234
	v0.026l0.047,1.846l0.006,0.36v75.536v68.93c8.52,1.09,12.715,3.369,12.814,6.967c0.1,3.422-3.82,7.459-11.648,12.012
	c-1.008,0.586-2.045,1.166-3.088,1.711l0.012,0.475c0.34,0.598,0.938,1.166,1.477,1.594c6.65,5.121,9.381,9.551,8.578,13.957
	c-0.176,0.967-0.51,1.928-1.031,2.936l-0.381,0.691l-0.287,0.463l-0.123,0.205l-1.002,1.441l-0.539,0.691l-0.586,0.65l-0.029,0.029
	l-1.26,1.283l-0.352,0.334l-0.334,0.293l-0.697,0.609l-0.703,0.58l-0.193,0.164l-0.545,0.422l-1.436,1.09l-0.258,0.188l-0.498,0.369
	l-0.24,0.164l-0.094,0.451l-0.023,0.123l-0.059,0.281l-0.094,0.357l-0.369,1.436l-0.141,0.469l-0.076,0.246l-0.217,0.697
	l-0.064,0.205l-0.182,0.551l-0.492,1.336l-0.217,0.545l-0.076,0.188l-0.287,0.68l-0.1,0.24l-0.193,0.457l-0.012,0.023l-0.814,1.688
	l-0.896,1.652l-0.744,1.242l-0.615,0.955l-0.217,0.322l-0.404,0.598l-0.258,0.363l-0.211,0.287l-0.328,0.434l-0.574,0.762
	l-0.012,0.018l-0.949,1.148c-1.33,1.547-2.754,2.994-4.236,4.301c-0.738,0.633-1.5,1.248-2.273,1.834l-0.199,0.539
	c-0.592,2.133-1.98,3.668-4.02,4.447l-0.656,0.234l-0.744,0.193l-1.377,0.217l-0.146,0.018l-0.598,0.047l-0.703,0.012
	c-0.398,0.006-0.82,0.006-1.365,0h-0.047l-0.563-0.029l-0.363,0.135l-0.018,0.006l-0.229,0.088l-0.521,0.182l-1.412,0.439
	l-0.117,0.035l-0.293,0.094l-1.857,0.48l-2.068,0.422l-1.658,0.258l-0.129,0.018l-0.281,0.047h-0.023l-3.996,0.404l2.771-2.361
	l1.336-1.037l0.686-0.416l0.428-0.211l0.205-0.1l0.012-0.006c0.961-0.457,1.928-0.633,2.76-0.75l0.018-0.006l1.371-0.088
	l1.377,0.006l0.656,0.029l0.668,0.029l0.334,0.018l0.545-0.211l1.342-0.574c1.84-0.832,3.545-1.746,5.063-2.713
	c0.645-0.422,1.283-0.861,1.91-1.318c0.58-1.629,1.061-3.117,1.5-4.471l0.275-0.838l0.451-1.406l0.006-0.018l0.135-0.41l0.059-0.193
	l0.211-0.656l0.217-0.621l0.1-0.293l0.088-0.275l0.422-1.143l0.088-0.246l0.316-0.82l0.211-0.48l0.193-0.451l0.006-0.023
	l0.686-1.406l0.205-0.398l0.012-0.023l0.498-0.838l0.498-0.785l0.439-0.598l0.088-0.123l0.563-0.715
	c1.6-1.916,3.516-3.428,5.186-4.652l1.441-1.049l0.018-0.006l0.504-0.369l0.674-0.486l0.012-0.076l0.135-0.844l0.088-0.545
	l0.041-0.264l0.059-0.398l0.182-1.793l0.006-0.158l0.012-0.152l0.076-1.465l0.006-0.41v-0.229v-1.424l-0.018-0.779l-0.275-12.756
	l-0.1-4.857c-3.902,1.916-7.482,3.34-8.959,3.592c-1.295,0.217-1.67-0.504-1.775-0.826c-0.369-1.16,0.938-1.969,3.27-3.293
	c1.77-1.008,4.242-2.291,7.383-3.832l-0.035-1.693c-1.348-0.246-3.006-0.574-4.676-0.99c-5.818-1.43-8.426-2.959-8.467-4.957
	c-0.041-1.898,2.262-3.041,3.996-3.727c2.051-0.82,5.039-1.629,8.9-2.42l-0.029-1.348l-0.475-1.09l0.439-0.809
	c-0.703-37.242-1.125-70.348-1.283-101.191c-0.047-8.59-0.07-17.145-0.07-25.424l0.006-12.7l0.018-5.736l-0.012-0.495l-0.029-1.33
	l-0.129-1.796l-0.199-1.614l-0.018-0.164l-0.281-1.635l-0.164-0.744l-0.117-0.53l-0.059-0.255l-0.082-0.343l-0.445-1.608
	l-0.516-1.562l-0.264-0.697l-0.211-0.536l-0.164-0.439l-0.334-0.747l-0.164-0.372l-0.363-0.779l-0.018-0.029l-0.592-1.184
	l-0.82-1.456l-0.076-0.126l-0.076-0.12l-0.715-1.143l-0.205-0.299l-0.152-0.223c-0.908-1.354-1.975-2.695-3.275-4.113l-0.674-0.721
	l-1.172-1.151l-0.48-0.425l-1.5-1.283l-0.018-0.015l-0.229-0.182l-0.779-0.606l-0.018-0.012l-0.457-0.337l-0.621-0.448l-1.23-0.817
	l-0.141-0.094l-1.436-0.853l-0.328-0.179l-0.24-0.126l-0.598-0.319l-0.176-0.094l-0.352-0.179l-0.029-0.015l-1.26-0.595
	l-0.346-0.149l-0.211-0.088l-0.621-0.258c-1.816-0.727-3.457-1.257-5.01-1.614l-0.018-0.003l-0.258-0.067l-0.369-0.091l-1.424-0.281
	l-0.492-0.088l-0.029-0.006l-1.389-0.205l-0.416-0.047l-0.182-0.018l-1.348-0.132l-0.381-0.021l-0.27-0.012l-1.365-0.062
	l-4.207-0.085l-11.578-0.249c-8.479-0.196-16.975-0.425-25.254-0.677c-0.744-0.021-1.488-0.044-2.232-0.067
	c-17.484,2.051-35.285,2.897-52.873-1.896l-0.533-0.141c-8.408-0.185-16.869,0.076-25.107,0.334
	c-4.998,0.589-10.09,1.014-15.129,0.381c-7.096,0.094-14.238,0.003-21.316-0.539l-0.047-0.003
	c-8.66-1.017-17.549-2.019-26.414-2.985c-2.291-0.229-4.576-0.293-6.791-0.182l-1.752,0.129l-1.131,0.132L51.3,52.678l-0.023,0.003
	l-1.213,0.19l-0.492,0.085l-0.867,0.155l-0.551,0.123l-0.305,0.07l-1.043,0.243l-0.252,0.059l-0.422,0.12l-0.58,0.164l-1.154,0.334
	l-1.758,0.595l-0.357,0.138l-1.301,0.513c-2.268,0.935-4.471,2.068-6.563,3.369c-2.086,1.289-4.119,2.815-6.041,4.538
	c-1.922,1.714-3.703,3.606-5.314,5.622l-0.375,0.486l-0.814,1.075l-1.137,1.638l-0.762,1.207l-0.299,0.486l-0.012,0.012
	l-0.439,0.756l-0.533,0.961c-1.271,2.347-2.361,4.843-3.217,7.403c-0.85,2.499-1.494,5.191-1.91,8.007l-0.053,0.346l-0.1,0.674
	l-0.264,2.604l-0.357,4.137c-0.434,4.957-0.85,9.935-1.248,14.792c-3.527,43.148-5.783,82.225-6.703,116.139
	c-0.023,0.832-0.047,1.664-0.064,2.49c0.68,11.443,1.506,23.449,2.502,36.246l0.58,7.371l0.34,4.178
	c0.059,0.633,0.111,1.277,0.182,1.91c0.105,0.762,0.211,1.529,0.322,2.291c1.008,6.129,3.012,11.871,5.947,17.057
	c2.924,5.18,6.668,9.762,11.139,13.623c4.395,3.762,9.334,6.709,14.689,8.76c2.52,0.973,5.232,1.74,8.08,2.291
	c2.689,0.51,5.449,0.797,8.203,0.85l2.314-0.012l1.787-0.1l1.406-0.111l0.463-0.047l14.133-1.342
	c3.223-1.547,5.654-3.246,7.266-5.086c-3.275,0.199-6.451,0.363-9.539,0.498c-3.035,0.123-6.029,0.211-8.895,0.27l-4.113,0.059
	l-2.133-0.047l-1.787-0.146l-0.563-0.053c-2.994-0.34-5.93-1.055-8.695-2.109l-0.205,0.158l-1.178,0.768l-1.225,0.521l-1.313,0.27
	H43.22l-0.639-0.076l-0.322-0.059h-0.012l-0.305-0.076l-0.035-0.006l-1.254-0.445l-0.621-0.281l-0.545-0.305l-0.1-0.059
	l-1.201-0.785l-0.639-0.498l-0.58-0.498c-0.779-0.668-1.482-1.441-2.32-2.379l-0.018-0.029c-1.488-1.781-2.906-3.92-4.213-6.352
	c-1.143-2.145-2.209-4.535-3.164-7.119c-1.506-2.15-2.801-4.412-3.885-6.768c-0.504-1.072-0.938-2.191-1.324-3.252l-0.012-0.035
	l-0.557-1.676l-0.457-1.67c-0.568-2.279-0.92-4.611-1.049-6.926v-0.023l-0.053-1.717c0-0.568,0.006-1.154,0.012-1.717v-0.064
	c0.018-1.219,0.047-2.414,0.088-3.545c0.094-2.49,0.252-4.787,0.486-7.025l2.232-0.141c0.563,2.391,1.02,4.793,1.371,7.166
	c0.164,1.131,0.311,2.279,0.428,3.416c0.059,0.545,0.111,1.096,0.158,1.641l0.029,0.264l0.129,1.184l0.023,0.299l0.041,0.363
	l0.094,0.727l0.123,1.043l0.023,0.146l0.023,0.146l0.199,1.365v0.023l0.076,0.48l0.135,0.809l0.146,0.896l0.064,0.322l0.229,1.283
	l0.264,1.23l0.117,0.621l0.07,0.305l0.064,0.264c0.779,3.434,1.605,6.363,2.543,8.953l0.193,0.545
	c1.09,1.535,2.285,3.006,3.586,4.412c2.947,3.205,6.445,6.158,10.406,8.766c1.447,0.938,2.977,1.758,4.582,2.455
	c0.639-0.791,1.213-1.482,1.74-2.104c0.551-0.645,1.201-1.395,1.805-2.045c1.313-1.389,2.291-2.285,3.17-2.906
	c1.986-1.477,3.861-1.992,6.076-1.693l0.803,0.135l0.41,0.105h0.012l0.047,0.012l0.352,0.059c0.732,0.141,1.506,0.322,2.309,0.545
	c1.436,0.41,3.053,0.973,4.939,1.723c2.227,0.891,4.629,1.957,7.178,3.088c1.389,0.621,2.824,1.266,4.318,1.91
	c1.758,0.762,3.545,1.506,5.361,2.227c3.844-5.332,8.637-9.135,14.273-11.297c5.555-2.133,11.941-2.771,19.523-1.951
	c8.859,0.955,18.539,3.867,28.371,7.436c4.178-0.539,8.318-1.084,12.425-1.623c7.553-0.99,14.684-1.922,21.551-2.777
	c36.346-4.5,58.266-5.625,62.76,1.922c1.682,2.818,0.873,6.475-2.473,11.162c-3.943,5.801-9.012,9.844-15.059,12.023
	C223.997,333.169,219.866,333.837,215.231,333.837L215.231,333.837z"/>
<path fill="#2F3E51" d="M134.654,52.285c0,25.351-20.549,45.899-45.896,45.899S42.855,77.636,42.855,52.285
	S63.41,6.386,88.757,6.386S134.654,26.935,134.654,52.285L134.654,52.285z"/>
<path fill="#40C296" d="M88.271,1.622c0.984,0,1.969,0.032,2.953,0.094c2.953,0.193,5.906,0.68,8.766,1.45
	c1.436,0.375,2.789,0.841,3.926,1.251l1.846,0.727l0.791,0.357l1.33-0.167l1.529-0.059l0.797,0.012l0.088,0.003l0.738,0.041
	l0.064,0.009c-1.834-1.04-3.803-1.916-5.889-2.616c-2.807-0.943-5.807-1.564-8.918-1.843c-3.006-0.27-6.141-0.22-9.322,0.146
	c-2.496,0.29-5.027,0.776-7.547,1.453c0.732-0.138,1.471-0.261,2.215-0.369C83.824,1.783,86.044,1.622,88.271,1.622L88.271,1.622z
	 M106.458,6.236l-1.119,0.226l-1.102,0.331l-0.926,0.363l-0.732,0.375c-0.639,0.39-0.896,0.712-0.932,0.885l0.023,0.094l0.779,0.343
	l0.873,0.146l0.568,0.05l0.352,0.029l0.316,0.029c0.475,0.035,0.996,0.062,1.605,0.079l0.076,0.006
	c0.568,0.035,1.219,0.076,1.934,0.105l0.861,0.053l0.316,0.023l1.746,0.129l0.955,0.1l0.527,0.059l0.094,0.009l-0.926-0.604
	l-0.533-0.328l-1.635-0.955l-1.98-1.025L106.458,6.236L106.458,6.236z M120.521,15.26l0.932,0.381
	c-1.846-3.48-4.734-6.63-8.385-9.085l-0.469-0.308l-0.041-0.009l-1.594-0.199l-0.686-0.041l-0.094-0.003l-0.768-0.009l-1.465,0.053
	l-0.176,0.018l0.141,0.064l2.016,1.043l1.641,0.958l0.574,0.354l1.676,1.099l0.41,0.299l1.377,0.75l0.404,0.393l0.352,0.419
	l0.111,0.144l0.504,0.404l0.176,0.144l0.34,0.284l1.576,1.415l1.412,1.403L120.521,15.26L120.521,15.26z M122.542,16.235l0.85,0.586
	l0.07-1.084c-0.029-0.923-0.24-1.857-0.633-2.78l-0.721-1.266l-0.445-0.612l-0.451-0.519l-0.047-0.047l-1.143-1.075l-1.313-0.926
	l-0.697-0.425l-0.563-0.287l-0.17-0.082l-1.529-0.653l-1.295-0.401C118.042,9.298,120.837,12.608,122.542,16.235L122.542,16.235z
	 M121.734,16.581l0.305,0.34l0.07,0.076l-0.117-0.27L121.734,16.581L121.734,16.581z M123.082,17.478l0.117,0.302l0.047-0.173
	L123.082,17.478L123.082,17.478z M123.609,18.816c1.588,1.928,3.029,3.99,4.295,6.141l0.047,0.073l-0.393-1.084
	c-0.27-0.653-0.533-1.251-0.809-1.822c-0.316-0.592-0.65-1.163-0.99-1.696c-0.574-0.873-1.219-1.641-1.922-2.297L123.609,18.816
	L123.609,18.816z M44.197,30.494l-0.604,1.433l-0.105,0.255l-0.146,0.343l0.047-0.035l1.102-0.973l0.492-0.524l0.24-0.278
	l0.24-0.278l0.873-1.157l0.205-0.313l0.217-0.319l0.404-0.627l0.24-0.419c0.428-0.747,0.879-1.523,1.277-2.347l0.006-0.018
	l0.773-1.474l0.193-0.384l0.129-0.249l0.076-0.138l0.826-1.559l0.275-0.483l0.176-0.311l0.691-1.21l0.252-0.39l0.264-0.416
	l0.762-1.172l0.305-0.428l-0.018,0.021l-0.188,0.188l-0.346,0.357l-1.33,1.468l-0.152,0.179l-0.094,0.111l-0.996,1.213l-0.094,0.108
	l-0.152,0.188l-1.172,1.567l-0.322,0.457l-0.117,0.176l-0.879,1.301l-0.264,0.413l-0.146,0.24l-0.814,1.339l-0.486,0.891
	l-0.258,0.472l-0.369,0.68L44.197,30.494L44.197,30.494z M43.224,32.838l-0.193,0.533l-0.188,0.501l-0.199,0.557l0.041-0.029
	l0.059-0.035l0.797-0.759l-0.223-0.636L43.224,32.838L43.224,32.838z M130.242,31.273l0.117,0.601
	c0.234,1.213,0.463,2.358,0.727,3.483c0.141,0.642,0.293,1.222,0.475,1.781c0.164,0.563,0.346,1.151,0.58,1.729l0.363,0.85
	l0.387,0.82l0.047,0.091c-0.492-2.792-1.254-5.563-2.279-8.291L130.242,31.273L130.242,31.273z M129.644,49.426l-0.369,0.05
	l-0.996,0.914l-0.123,0.41l-0.088,0.504l0.088,1.204l0.041,0.188l0.129,0.551l0.264,0.797l0.387,0.894l0.48,0.981l0.609,1.075
	l0.352,0.586l0.369,0.598c0.41,0.65,0.896,1.359,1.418,2.112l0.117,0.173l0.047-0.158c0.135-0.592,0.252-1.187,0.357-1.767
	l0.064-0.422l0.035-0.267l0.012-0.129l0.064-0.788l0.035-0.75v-0.686l-0.111-1.301c-0.088-0.844-0.311-1.553-0.498-2.074
	l-0.334-0.794l-0.393-0.636l-0.832-0.858L129.644,49.426L129.644,49.426z M127.558,62.993l0.012,0.053
	c0.053,0.144,0.252,0.483,1.043,1.122c0.457,0.366,1.025,0.771,1.658,1.178l0.281-0.691l0.141-0.346l0.111-0.281l-0.275-0.686
	l0.223-0.413C127.998,62.63,127.611,62.92,127.558,62.993L127.558,62.993z M130.992,65.791c1.576,0.946,2.766,1.444,3.229,1.485
	l-0.24-0.366l-0.979-1.043c-0.393-0.363-0.879-0.773-1.453-1.222L130.992,65.791L130.992,65.791z M128.261,70.716l-0.023,0.038
	c-0.639,1.005-1.313,2.001-2.01,2.979l0.141-0.144l0.486-0.568l0.234-0.296l0.205-0.308l0.773-1.315L128.261,70.716L128.261,70.716z
	 M43.746,67.159l0.814,1.781l0.059,0.129l0.105,0.214l0.914,1.743l0.299,0.536l0.48,0.814c0.387,0.683,0.832,1.348,1.26,1.989
	l0.434,0.653l0.615,0.844l0.311,0.413l0.469,0.633l0.322,0.393l0.146,0.182c-0.574-0.891-1.125-1.816-1.652-2.774
	c-1.506-2.862-2.637-5.874-3.363-8.95c-0.363-1.491-0.574-2.912-0.715-3.984l-0.182-1.843l-0.059-1.295l-0.018-0.46l-0.006-1.4
	l0.035-1.415l0.018-0.264l0.012-0.126l0.053-0.691c0.053-0.744,0.105-1.444,0.211-2.124l0.158-1.26l0.193-1.172l0.17-1.09
	l0.006-0.018l0.193-1.011l0.152-0.94l0.064-0.393l0.094-0.507l0.105-0.812l0.041-0.381l0.035-0.41
	c0.094-0.855,0.053-1.723-0.117-2.64l-0.393-1.154l-0.041-0.094l-0.246-0.483l-0.346-0.568l-0.938-1.175l-0.598-0.615l-0.662-0.633
	l-0.012-0.012l-0.205-0.229l-0.006,0.023l-0.141,0.472l-0.193,0.756l-0.129,0.516l-0.246,0.996l-0.305,1.526l-0.053,0.27
	l-0.094,0.486l-0.34,2.309l-0.217,2.326l-0.023,0.498l-0.076,1.831v1.017l0.006,0.533l0.006,0.331l0.041,1.207l0.1,1.57l0.07,0.759
	l0.229,1.939l0.393,2.306l0.516,2.288l0.059,0.231l0.568,2.013l0.75,2.218L43.746,67.159L43.746,67.159z M62.835,89.062
	c1.682,1.049,3.434,1.963,5.244,2.736c0.744,0.346,1.523,0.627,2.273,0.908l0.686,0.252l1.014,0.322l0.486,0.152l0.756,0.229
	l0.48,0.129l0.27,0.07l0.152,0.035l-1.342-0.563l-1.225-0.545l-0.645-0.275l-0.451-0.199l-0.943-0.381l-0.809-0.311
	c-0.926-0.363-1.471-0.498-1.477-0.498l-0.041-0.012l-0.199-0.076l-2.01-0.867l-0.492-0.24l-0.234-0.117L62.835,89.062
	L62.835,89.062z M86.63,96.104l-1.184-0.006l-0.844-0.023c-0.668-0.047-1.336-0.094-1.992-0.146h-0.012l-0.287-0.035l-0.668-0.053
	L81.152,95.8l-1.066-0.094l-1.559-0.211l-0.264-0.035l-0.521-0.076l-0.779-0.146l-0.457-0.088l-1.096-0.217l-1.541-0.387
	l-0.264-0.064l-0.516-0.135l-0.762-0.234l-0.48-0.152l-1.049-0.334l-0.691-0.258c-0.762-0.281-1.553-0.568-2.314-0.92
	c-3.984-1.711-7.705-4.084-11.045-7.055l-1.225-1.146l-0.533-0.533l-0.24-0.249l-0.516-0.46L53.8,82.622l-0.393-0.375l-0.188-0.182
	l-1.131-1.113L51.72,80.56l-0.182-0.196l-1.084-1.184l-1.008-1.219l-0.17-0.205l-0.334-0.416l-0.48-0.639l-0.305-0.413l-0.633-0.87
	l-0.439-0.656c-0.434-0.653-0.885-1.327-1.283-2.03l-0.475-0.809l-0.322-0.571l-0.914-1.74l-0.117-0.249l-0.059-0.12l-0.826-1.811
	L42.21,65.22l-0.762-2.253l-0.568-2.021l-0.07-0.258l-0.521-2.329l-0.398-2.338l-0.229-1.948l-0.076-0.806l-0.1-1.559l-0.041-1.248
	l-0.006-0.334l-0.006-0.527V48.55l0.076-1.84l0.023-0.521l0.223-2.367l0.34-2.326l0.1-0.519l0.053-0.264l0.311-1.538l0.252-1.022
	l0.129-0.513l0.193-0.759l0.152-0.507l0.076-0.258l0.463-1.5l0.357-0.987l0.182-0.501l0.27-0.738l0.199-0.486l0.105-0.249
	l0.621-1.462l1.025-2.133l0.375-0.691l0.252-0.469l0.504-0.911l0.82-1.351l0.141-0.234l0.287-0.448l0.879-1.298l0.117-0.176
	l0.346-0.489l0.006-0.012l1.166-1.556l0.17-0.211l1.09-1.321l0.088-0.105L51,18.579l1.324-1.459l0.381-0.393l0.182-0.185L54,15.424
	l0.393-0.36l0.199-0.188l1.184-1.078l1.219-1.011l0.217-0.179l0.416-0.337l1.318-0.996l0.604-0.439l1.313-0.894l0.111-0.079
	l0.229-0.152l1.02-0.63c1.646-1.087,3.363-1.969,4.67-2.616l0.803-0.366l0.41-0.182l0.604-0.267l0.188-0.085l0.439-0.182
	l0.563-0.217c2.549-1.151,5.109-2.121,7.629-2.883c3.117-0.943,6.27-1.605,9.363-1.96c3.229-0.375,6.416-0.425,9.469-0.149
	c3.164,0.281,6.217,0.914,9.082,1.875c2.672,0.899,5.162,2.083,7.424,3.519l0.656,0.123l0.826,0.205
	c0.533,0.144,1.102,0.302,1.652,0.504c0.551,0.211,1.078,0.437,1.588,0.677l0.17,0.082l0.615,0.316l0.727,0.437l1.383,0.981
	l1.201,1.134l0.053,0.05l0.492,0.568l0.469,0.65l0.779,1.371c0.434,1.014,0.668,2.039,0.697,3.056
	c0.006,0.542-0.041,1.081-0.146,1.617c0.855,0.753,1.641,1.658,2.332,2.701c0.352,0.557,0.697,1.146,1.025,1.758l0.006,0.012
	c0.275,0.586,0.551,1.198,0.832,1.872c0.504,1.333,0.92,2.66,1.23,3.955l0.076,0.316l0.246,0.489l0.814,1.799l0.17,0.407
	l0.563,1.433c1.254,3.343,2.121,6.747,2.596,10.178l0.539,1.052l0.199,0.557l0.117,0.521c0.111,0.604,0.135,1.201,0.064,1.775
	l-0.34,1.166l-0.234,0.437l-0.627,0.905l-0.018-1.102c-0.029-1.69-0.158-3.378-0.387-5.063l-0.357-0.58l-0.129-0.208l-0.486-0.855
	l-0.41-0.87l-0.363-0.855c-0.252-0.609-0.439-1.222-0.604-1.793c-0.182-0.574-0.346-1.178-0.486-1.834
	c-0.27-1.128-0.492-2.282-0.732-3.501c-0.246-1.245-0.498-2.528-0.803-3.812l-0.299-0.58l-0.316-0.609l-0.076-0.155l-0.141-0.267
	l-0.732-1.274c-1.178-2.001-2.52-3.929-3.984-5.742l-0.141,0.354l-0.275-0.864l-0.094-0.108l-0.967-1.189l-0.316-0.363l-1.33-1.465
	l-0.053-0.056l-0.152-0.05l-1.201-0.545l-0.92-0.753l-0.762-0.888l-0.322-0.451l-0.322-0.451l-0.041-0.062l-0.445-0.604
	l-0.768-0.618l-1.271-0.929l-0.393-0.053h-0.029l-1.002-0.111l-0.527-0.059l-1.061-0.111l-1.611-0.114l-0.322-0.026l-0.832-0.05
	c-0.727-0.029-1.383-0.07-1.957-0.105l-0.064-0.003c-0.609-0.018-1.143-0.047-1.623-0.082l-0.334-0.029l-0.322-0.029l-0.609-0.053
	l-0.967-0.164c-0.65-0.173-0.984-0.349-1.178-0.606l-0.146-0.653c0.082-0.439,0.504-0.896,1.254-1.354l0.814-0.422l0.99-0.384
	l1.148-0.346l0.17-0.041l-1.664-0.656c-1.107-0.398-2.449-0.858-3.855-1.225c-2.818-0.759-5.725-1.239-8.631-1.43
	c-3.158-0.205-6.334-0.073-9.434,0.387c-3.451,0.513-6.727,1.298-9.738,2.332l-0.229,0.073l-0.369,0.129l-1.236,0.478L68.865,6.43
	c-2.771,1.324-5.607,2.912-8.432,4.717c-2.016,1.254-3.908,2.997-5.631,5.183c-0.346,0.466-0.715,0.967-1.119,1.529l-0.744,1.146
	l-0.264,0.416l-0.246,0.381l-0.674,1.189l-0.182,0.313l-0.264,0.463l-0.41,0.782l-0.416,0.776l-0.076,0.149l-0.123,0.22
	l-0.188,0.384c-0.275,0.545-0.527,1.034-0.785,1.494c-0.41,0.844-0.861,1.626-1.301,2.385l-0.24,0.422l-0.422,0.665l-0.422,0.627
	l-0.92,1.225l-0.252,0.287l-0.234,0.272l-0.527,0.563l-0.92,0.829l0.164,0.894c-0.111,0.568-0.621,0.899-1.107,1.219l-0.053,0.035
	l-0.727,0.724l0.316,0.565l0.68,0.65l0.615,0.639l1.002,1.254l0.387,0.627l0.258,0.519l0.047,0.1l0.439,1.313
	c0.193,0.993,0.234,1.928,0.135,2.865l-0.041,0.381l-0.035,0.407l-0.117,0.847l-0.088,0.521l-0.064,0.354l-0.158,0.97l-0.193,1.02
	l-0.17,1.09l-0.193,1.166l-0.158,1.251c-0.1,0.659-0.152,1.348-0.205,2.077l-0.053,0.691l-0.012,0.129l-0.018,0.231l-0.029,1.406
	v1.351l0.018,0.472l0.059,1.263l0.176,1.816c0.141,1.043,0.346,2.44,0.703,3.902c0.709,3.021,1.822,5.974,3.299,8.78
	c1.113,2.036,2.367,3.94,3.721,5.654l0.252,0.319l0.82,0.967l0.176,0.205l0.369,0.425l0.955,1.008l1.424,1.181l0.926,0.738
	l1.605,1.148l0.48,0.322l0.17,0.108l1.336,0.85l0.428,0.255l0.246,0.138l1.371,0.773l1.412,0.712l0.24,0.117l0.463,0.223
	l1.992,0.861l0.158,0.059c0.117,0.029,0.668,0.176,1.547,0.521l0.387,0.152l0.416,0.158l0.967,0.387l0.469,0.205l0.615,0.27
	l1.26,0.557c2.35,1.055,4.898,1.816,7.564,2.262c0.533,0.082,1.102,0.164,1.67,0.234l0.088,0.012l0.486,0.018l0.275,0.006
	l1.547,0.047l0.498-0.006l0.264-0.006l0.768-0.018c0.814-0.006,1.646-0.07,2.443-0.135l0.615-0.053l0.375-0.029l2.021-0.264
	l0.609-0.094c3.311-0.557,6.469-1.418,9.428-2.561c0.557-0.234,1.102-0.48,1.652-0.732c2.068-0.955,4.195-2.156,6.504-3.665
	c1.998-1.315,3.973-2.769,5.865-4.318c2.021-1.673,4.055-3.483,6.211-5.531c0.586-0.659,1.154-1.327,1.705-1.998
	c1.389-1.758,2.701-3.604,3.891-5.481c0.803-1.295,1.57-2.654,2.297-4.061l0.07-0.211l0.023-0.073
	c-0.709-0.451-1.348-0.899-1.857-1.31c-0.732-0.592-1.137-1.052-1.271-1.45l0.111-0.729c0.322-0.39,1.119-0.683,4.734-0.211
	l0.041-0.126l0.281-0.873l-0.018-0.018l-0.018-0.029l-0.41-0.595c-0.521-0.756-1.02-1.471-1.436-2.136l-0.375-0.612l-0.352-0.58
	l-0.627-1.113l-0.498-1.02l-0.404-0.932l-0.287-0.864l-0.141-0.586l-0.041-0.19l-0.094-1.415l0.1-0.595l0.164-0.533
	c0.287-0.68,0.809-1.151,1.465-1.327c0.674-0.179,1.418-0.012,2.086,0.469l0.996,1.02l0.451,0.738l0.369,0.867
	c0.188,0.519,0.439,1.313,0.533,2.232l0.117,1.342v0.75l-0.035,0.771l-0.07,0.814l-0.012,0.123l-0.035,0.316l-0.07,0.425
	c-0.105,0.601-0.229,1.21-0.363,1.816l-0.006,0.018l-0.193,0.665l0.164,1.198l-0.762,0.615l-0.199,0.489l-0.217,0.519
	c0.65,0.504,1.201,0.967,1.635,1.374l1.061,1.131l0.393,1.134l-0.434,0.354c-0.803,0.173-2.777-0.911-3.832-1.541l-0.082,0.161
	l-0.012,0.038l-0.152,0.454l-0.51,1.441l-0.486,1.271l-0.076,0.193l-0.311,0.724l-0.352,0.732l-0.803,1.362l-0.217,0.331
	l-0.012,0.015l-0.246,0.316l-0.527,0.612c-1.512,1.541-2.947,2.956-4.33,4.271c-0.855,0.961-1.752,1.907-2.672,2.83l-0.75,0.703
	c-0.521,0.498-1.066,1.014-1.635,1.485l-0.902,0.788l-1.541,1.236c-3.475,2.666-7.084,4.828-10.729,6.422
	c-0.738,0.334-1.488,0.65-2.256,0.943c-1.857,0.785-3.732,1.441-5.602,1.951l-0.293,0.076c-0.527,0.135-1.072,0.275-1.617,0.404
	l-0.012,0.006l-1.934,0.369l-0.844,0.129l-1.629,0.211l-0.516,0.053l-1.98,0.129l-0.521,0.012L86.63,96.104L86.63,96.104z"/>
<path fill="#40C296" d="M84.703,61.271l0.48,0.296l1.389,0.706l0.422,0.223l0.639,0.255l1.307-0.158l0.551-0.401l0.24-0.255
	l0.117-0.138l0.07-0.088l0.498-0.606l0.246-0.305l0.035-0.038l0.012-0.009l0.012-0.012l0.023-0.023l0.094-0.07v0.021l0.053,0.211
	l0.006,0.026v-0.009l0.006-0.003l0.076,0.041l0.123,0.067l0.979,0.492l0.504,0.223l0.252,0.105l0.146,0.059l0.229,0.088l0.457,0.17
	l0.457,0.158l0.902,0.299l0.814-1.351l0.193-0.27l0.111-0.149l0.234-0.311l0.51-0.688l0.492-0.82l0.369-0.99l0.117-1.04
	c-0.006-0.659-0.117-1.222-0.193-1.723c-0.164-1.014-0.293-1.995-0.287-2.944l0.117-1.392l0.158-0.668l0.229-0.662l0.047-0.419
	l-0.334,0.457l-0.51,1.477l0.322-1.424l0.662-1.418l0.451-0.396c0.627-0.92,1.283-1.884,1.869-2.868l0.445-0.738l0.416-0.753
	l0.416-0.75l0.393-0.759c0.756-1.482,1.43-3,2.004-4.547c0.563-1.55,1.02-3.126,1.359-4.714l0.188-0.935l0.076-0.475l0.07-0.48
	l0.07-0.48l0.029-0.237l0.023-0.243l0.076-0.952l0.035-0.932v-0.896l-0.064-0.847l-0.088-0.782c-0.111-0.63-0.27-1.151-0.439-1.201
	c-0.152-0.05-0.234,0.352-0.27,0.905l-0.018,0.442l-0.023,0.472l-0.029,0.938l-0.041,0.363l-0.059,0.984l-0.041,0.492l-0.053,0.489
	c-0.059,0.656-0.182,1.301-0.281,1.954l-0.205,0.976l-0.1,0.486l-0.129,0.486l-0.258,0.973l-0.305,0.973l-0.129,0.401l-0.141,0.398
	l-0.293,0.797l-0.311,0.791l-0.328,0.785l-0.352,0.776l-0.357,0.773l-0.779,1.521l0.492-1.409c0.223-0.598-0.146-0.258-0.404,0.308
	l-0.199,0.437l-0.211,0.431l-0.428,0.864l-0.445,0.855l-0.223,0.428l-0.24,0.422l-0.469,0.847l-0.498,0.835
	c-0.322,0.56-0.686,1.11-1.037,1.702c-0.357,0.592-0.703,1.216-0.99,1.898s-0.498,1.433-0.598,2.162
	c-0.211,1.471-0.088,2.892,0.047,4.248l-0.041-0.193c-0.129-0.583-0.27-0.261-0.199,0.349l0.1,1.356l-0.076,0.489l-0.193,0.478
	l-0.768,1.11l-0.24,0.316l-0.123,0.158l-0.029,0.053l-0.07,0.144l-0.018,0.006l-0.023-0.003l-0.053-0.009l-0.105-0.023l-0.023-0.006
	l-0.059-0.023l-0.123-0.047l-0.234-0.097l-0.475-0.208l-0.463-0.223l-0.234-0.117l-0.111-0.062l-0.059-0.032l-0.1-0.056
	c-0.545-0.316-1.084-0.686-1.605-1.025l-0.059,0.07l-0.059,0.076l-0.117,0.155l-0.229,0.308l0.018-0.226l-0.639,0.7l-1.049,1.33
	l-0.152,0.19l-0.041,0.035l-0.088,0.032l-0.088-0.035l-0.604-0.319l-1.277-0.659l-0.158-0.082l-0.076-0.038L85.74,59.34
	l-0.012-0.006h-0.006l-0.059-0.021l-0.117-0.053l-0.029-0.123l0.023-0.146l0.24-0.577l0.111-0.278l0.012-0.035l0.018-0.044
	l0.053-0.114l0.094-0.22c0.252-0.583,0.463-1.102,0.621-1.538c-0.633-0.267-1.172-0.469-1.605-0.601l-0.305-0.085l-0.035-0.009
	l-0.029-0.006l-0.053-0.009l-0.111-0.015l-0.398-0.026l-0.311,0.51l0.229,0.261l0.152,0.144l0.059,0.059l0.041,0.053l0.293,0.352
	l-0.299,0.352l-0.029,0.038l-0.018,0.018l-0.012,0.023l-0.023,0.029l-0.152,0.255l-0.305,0.519l-0.246,0.442l-0.211,0.478
	l-0.053,0.973l0.211,0.442l0.328,0.352L84.703,61.271L84.703,61.271z"/>
<path fill="#40C296" d="M79.423,54.896l-0.393-0.413l-1.154-1.043l-0.229-0.211l-0.059-0.062L77.56,53l0.041-0.076l0.023-0.035
	l0.012-0.015l0.047-0.067l0.457-0.639l0.229-0.319l0.381-0.545l0.826-1.181l-0.023,0.062l0.422-0.322l-0.557-0.448l-0.826-0.624
	l-0.398-0.319l-0.211-0.182l-0.691-0.624l-0.328-0.328l-0.164-0.167l-0.035-0.044L76.734,47.1l-0.006-0.003l-0.064-0.041
	l0.006-0.026l0.006-0.015l0.012-0.023l0.012-0.023l0.006-0.009v-0.006l0.012-0.021l0.111-0.182l0.211-0.349l0.387-0.63l0.369-0.507
	l0.85-0.621l1.359-0.398c1.043-0.261,2.109-0.568,3.129-1.037l1.482-0.844l0.668-0.53l0.598-0.586l0.211-0.422l-0.51,0.363
	l-1.43,1.034l1.23-1.052l1.072-1.245l0.504-0.352c0.721-0.894,1.4-1.79,2.121-2.666l0.539-0.656l0.557-0.642l0.551-0.639
	l0.568-0.621c1.113-1.207,2.268-2.364,3.48-3.454c1.213-1.084,2.479-2.101,3.797-3.041l0.779-0.542l0.398-0.267l0.41-0.261
	l0.41-0.261l0.205-0.132l0.205-0.123l0.826-0.492l0.826-0.463l0.791-0.448l0.768-0.407l0.715-0.39
	c0.58-0.305,1.061-0.627,1.072-0.809c0.012-0.164-0.422-0.108-1.008,0.044l-0.469,0.132l-0.48,0.179l-0.949,0.387l-0.369,0.152
	l-0.955,0.475l-0.469,0.252l-0.463,0.261c-0.627,0.331-1.213,0.721-1.816,1.087l-0.879,0.589l-0.439,0.293l-0.434,0.313
	l-0.855,0.627l-0.85,0.659c-1.857,1.465-3.598,3.088-5.221,4.808l0.932-1.251l-0.498,0.182L90.41,32.82l-0.34,0.384l-0.662,0.762
	l-0.645,0.782l-0.322,0.393l-0.311,0.398l-0.615,0.8l-0.604,0.814c-0.404,0.542-0.779,1.093-1.16,1.603l-1.189,1.395l-0.656,0.563
	l-0.738,0.466c-1.043,0.565-2.273,0.885-3.563,1.131l0.182-0.062c0.533-0.179,0.217-0.281-0.346-0.17
	c-0.504,0.103-1.09,0.205-1.717,0.454l-0.938,0.51l-0.762,0.7l-0.996,1.438l-0.193,0.322l-0.1,0.158l-0.182,0.272l-0.896,1.116
	l0.146,0.193l0.158,0.193l0.311,0.384l0.639,0.75l0.076,0.085l0.047,0.053l0.105,0.108l0.205,0.208l0.422,0.41l0.439,0.393
	l0.223,0.19l0.111,0.094l0.053,0.047l0.018,0.009l0.006,0.003l0.275,0.182v0.012l-0.006,0.012l-0.018,0.029l-0.029,0.056
	l-0.135-0.021l-0.141,0.067l-0.018,0.021l-0.012,0.012v0.006l-0.012,0.015l-0.199,0.29l-0.404,0.586l-0.264,0.393l-0.287,0.601
	l-0.047,1.283l0.75,1.084l0.568,0.527l1.061,0.97L78,56.56l0.475,0.428l1.031,0.439l0.551-0.07l0.486-0.243l0.422-0.369l0.375-0.419
	l0.393-0.483l0.188-0.237l0.023-0.029l0.018-0.021l0.006-0.023l0.023-0.047l0.246-0.483l0.486,0.111l0.152,0.041l0.018,0.006
	l0.029,0.012l0.053,0.021l0.1,0.041l0.387,0.12l0.416-0.425l-0.158-0.305l-0.117-0.179l-0.088-0.117l-0.117-0.135l-1.225-1.356
	l-1.266,1.166l-0.176,0.164l-0.088,0.085l-0.064,0.056l-0.217,0.199l-0.439,0.407l-0.029,0.023l-0.006,0.009l-0.018,0.012
	l-0.035,0.023l-0.059,0.044l-0.135,0.05l-0.123-0.076L79.423,54.896L79.423,54.896z"/>
<path fill="#40C296" d="M84.357,65.612l-0.041,0.404l0.094,1.096l0.117,1.025l0.064,0.943l-0.047,0.832l-0.012-0.021l-0.129-0.009
	l-0.059,0.103l-0.035,0.138L84.099,70.9l-0.545,0.645l-0.92,0.601l-1.16,0.58l-0.627,0.325l-0.311,0.176l-0.076,0.047l-0.035,0.021
	L80.419,73.3l-0.029,0.026l-0.311,0.299l-0.457,0.454l-0.287,0.299l-0.018,0.021l-0.012,0.015l0.006-0.012l0.012-0.026l0.023-0.062
	l-0.146,0.152l-0.246,0.404l-0.082,0.144l-0.047,0.076l-0.012,0.018l-0.006,0.012l0.006-0.006l0.029-0.023l0.211-0.164l-0.311,0.325
	l-0.082,0.085l-0.035,0.044l0.006-0.015l0.047-0.079l0.176-0.486l0.041-0.161l0.146-0.193l0.135-0.302l0.141-0.753l0.035-0.378
	l0.041-0.507l0.094-1.069l0.17-1.031c0.439-1.992,1.453-3.855,2.877-5.335l0.896-0.835l0.955-0.782l0.832-0.806l0.48-0.835
	l0.047-0.243l-0.012-0.214l-0.164-0.246l-0.199,0.021l-0.094,0.082l-0.105,0.108l-0.557,0.618l-0.158,0.117l-0.938,0.753
	l-0.545,0.404l-0.563,0.451c-0.732,0.633-1.383,1.345-1.963,2.127c-0.955,1.295-1.664,2.78-2.039,4.351l0.023-0.524l0.029-0.272
	l0.047-0.278l-0.322,0.246l-0.17,0.771l-0.07,0.387L77.9,70.862l-0.094,1.488L77.8,72.702v0.041l-0.006,0.059l-0.012,0.155
	l-0.018,0.311l-0.07,0.642l-0.029,0.167l-0.041,0.17l-0.07,0.337l-0.006,0.023l-0.018,0.029l-0.029,0.059l-0.059,0.114l-0.111,0.234
	l-0.117,0.229l-0.053,0.117l-0.076,0.135l-0.873,1.444l-0.598,0.964l-0.691,1.122c-0.586,0.938-1.172,1.875-1.758,2.813l1.219-1.081
	l0.65-0.568l0.311-0.264l0.076-0.059l0.914-0.844l1.031-0.938c0.691-0.624,1.377-1.239,1.986-1.755
	c0.609-0.504,1.154-0.85,1.729-1.16L80.9,75.324l-0.246,0.313l0.234-0.067l0.41-0.196l0.094-0.05l0.082-0.041l0.088-0.047
	l0.188-0.088l0.369-0.173l0.797-0.36c0.545-0.252,1.137-0.533,1.717-0.94l0.844-0.718l0.674-0.955l0.381-1.09l0.105-1.072
	l0.205-0.352c0.006-0.882-0.123-1.72-0.205-2.467l-0.082-1.058l0.006-1.008c0.047-1.318,0.27-2.452,0.082-3.243l-0.445-0.328
	l-0.773,0.756c-0.275,0.404-0.533,0.949-0.727,1.559S84.392,64.979,84.357,65.612L84.357,65.612z"/>
<path fill="#40C296" d="M74.156,56.829l-0.311,0.076l-0.85,0.27l-0.961,0.19l-1.043,0.196l-1.119,0.311l0.029-0.023l-0.053-0.12
	l-0.188,0.026l-0.246,0.103l-1.441,1.175c-0.404,0.501-0.674,1.081-0.826,1.626c-0.158,0.548-0.223,1.069-0.258,1.556l-0.053,1.377
	l-0.023,0.627l-0.018,0.305l-0.012,0.076v0.041l-0.012,0.076l-0.041,0.29c-0.117,0.776-0.299,1.506-0.645,2.385
	c-0.316,0.847-0.639,1.693-0.955,2.534l-0.381,1.025l-0.018,0.056l-0.012,0.029l-0.006,0.012l0.006-0.003l0.029-0.032l0.064-0.064
	l0.018-0.018l0.018-0.009l0.012,0.023l0.029,0.035l0.023,0.009l0.012,0.041l0.076-0.026l0.293-0.378l0.293-0.519l0.053-0.114
	l0.018-0.053l0.012-0.023v-0.012l-0.012-0.041l-0.035-0.009l-0.053,0.05l-0.041,0.041l-0.012,0.009v0.003l0.006-0.021l0.047-0.1
	l0.387-0.832l-0.105,0.407l-0.029,0.091l-0.012,0.047l0.006-0.003l0.012-0.012l0.018-0.023l0.158-0.193l0.041-0.047l0.035-0.032
	l0.076-0.059l0.135-0.091l0.117-0.029l0.018,0.021l0.012,0.035l0.035,0.062l0.293-0.346l0.281-0.308l-0.234,0.454l0.24-0.205
	l0.381-0.372l0.287-0.305l0.229-0.226l0.229-0.226l0.059-0.059l0.029-0.029l0.023-0.018l0.094-0.073l0.182-0.152l0.094-0.073
	l0.047-0.038l0.041-0.023l0.328-0.188l0.65-0.311l0.533-0.243l1.002-0.483l0.967-0.574c1.816-1.213,3.199-3,3.902-4.969l0.34-1.181
	l0.211-1.219c0.123-0.806,0.252-1.6,0.58-2.306l0.152-0.325l0.141-0.287l0.111-0.398l-0.27-0.012l-0.252,0.146l-0.275,0.24
	l-0.141,0.149l-0.129,0.164l-0.24,0.36l-0.188,0.372l-0.141,0.352l-0.111,0.27c-0.287,0.987-0.375,1.846-0.592,2.572
	c-0.217,0.75-0.539,1.482-0.973,2.174c-0.715,1.134-1.699,2.121-2.842,2.839l0.293-0.328l0.152-0.164l0.146-0.176l-0.34-0.021
	l-0.486,0.366l-0.246,0.179l-0.258,0.161l-1.143,0.636l-0.316,0.161l-0.035,0.021l-0.029,0.015l-0.012,0.012l-0.035,0.026
	l-0.111,0.1l-0.311,0.272l-0.281,0.311l-0.012,0.009l0.006-0.006v-0.012l0.012-0.026l0.018-0.059l0.041-0.135l0.176-0.677
	l0.018,0.035l0.135,0.023l0.111-0.059v-0.006l0.006-0.023l0.018-0.12l0.035-0.243l0.053-0.483l0.059-0.905
	c0.029-0.58,0.064-1.107,0.152-1.57l0.176-0.636l0.287-0.51l0.434-0.422l0.604-0.337l0.305,0.108
	c0.615-0.179,1.377-0.287,2.209-0.469l1.271-0.366l1.16-0.545c0.721-0.413,1.307-0.914,1.711-1.418l0.639-1.415l-0.346-0.431
	l-0.902,0.357l-1.277,0.665L74.156,56.829L74.156,56.829z"/>
<path fill="#40C296" d="M99.316,38.144l-0.023-0.267c-0.205-0.967-0.721-1.89-1.447-2.569l0.018,0.009l-0.146-0.243l-0.1-0.076
	l-0.111-0.067l-0.217-0.138l-0.463-0.229l-0.486-0.173l-0.246-0.064l-0.123-0.029l-0.129-0.021c-0.674-0.114-1.365-0.07-2.004,0.12
	c-0.639,0.196-1.219,0.539-1.693,0.981c-0.469,0.445-0.82,0.987-1.037,1.567l-0.006,0.205l0.146-0.22l0.182-0.343l0.205-0.293
	l-0.504,1.28l-0.146,0.226c-0.24,0.973-0.047,2.057,0.469,2.897l0.146,0.229l0.164,0.217l0.369,0.396L93,42.157
	c0.633,0.322,1.342,0.48,2.027,0.422l1.529-0.454l1.02-0.961l0.141-0.311l-0.006-0.188l-0.316,0.179l-0.246,0.231l-0.264,0.226
	l-0.111,0.07l-1.324,0.598l-1.494-0.062c-0.814-0.231-1.541-0.803-1.963-1.55l0.193,0.199l0.205,0.196l-0.012-0.196
	c-0.574-0.706-0.855-1.69-0.68-2.643l0.586-1.321l1.125-0.935l-0.059,0.044l0.152,0.05l0.938-0.308l0.99-0.041l0.961,0.243
	l0.229,0.103l0.217,0.129l0.111,0.064l0.1,0.076l0.205,0.155l0.053,0.193l0.703,1.104l0.27,1.277
	c0.047,0.841-0.182,1.556-0.182,2.036l0.199,0.196l0.229-0.164l0.264-0.325C99.169,39.969,99.433,38.99,99.316,38.144L99.316,38.144
	z"/>
</svg>
