<?xml version="1.0" encoding="utf-8"?>
<!-- Generator: Adobe Illustrator 12.0.0, SVG Export Plug-In . SVG Version: 6.00 Build 51448)  -->
<!DOCTYPE svg PUBLIC "-//W3C//DTD SVG 1.1//EN" "http://www.w3.org/Graphics/SVG/1.1/DTD/svg11.dtd" [
	<!ENTITY ns_svg "http://www.w3.org/2000/svg">
	<!ENTITY ns_xlink "http://www.w3.org/1999/xlink">
]>
<svg  version="1.1" id="Layer_1" xmlns="&ns_svg;" xmlns:xlink="&ns_xlink;" width="1073.853" height="58.872"
	 viewBox="0 0 1073.853 58.872" overflow="visible" enable-background="new 0 0 1073.853 58.872" xml:space="preserve">
<g>
	<path fill="#3F3F3F" d="M109.757,24.009c-1.014,0-1.912,0.197-2.692,0.592s-1.436,0.964-1.965,1.707s-0.931,1.641-1.205,2.693
		s-0.41,2.236-0.41,3.551c0,1.772,0.219,3.285,0.658,4.537s1.12,2.207,2.042,2.865c0.923,0.657,2.113,0.986,3.572,0.986
		c1.014,0,2.031-0.114,3.05-0.342c1.02-0.229,2.128-0.553,3.324-0.975v4.443c-1.105,0.456-2.193,0.783-3.264,0.982
		c-1.071,0.199-2.273,0.299-3.606,0.299c-2.575,0-4.691-0.533-6.349-1.602c-1.658-1.067-2.885-2.563-3.683-4.488
		c-0.798-1.925-1.196-4.172-1.196-6.742c0-1.896,0.256-3.632,0.769-5.208s1.265-2.941,2.256-4.094s2.216-2.044,3.674-2.673
		c1.458-0.628,3.133-0.942,5.024-0.942c1.242,0,2.486,0.157,3.734,0.47s2.441,0.743,3.581,1.29l-1.709,4.307
		c-0.935-0.444-1.875-0.832-2.82-1.162C111.597,24.174,110.668,24.009,109.757,24.009z"/>
	<path fill="#3F3F3F" d="M125.549,44.974h-5.212V18.381h5.212V44.974z"/>
	<path fill="#3F3F3F" d="M132.933,18.583c0.774,0,1.441,0.18,2,0.539c0.558,0.359,0.837,1.028,0.837,2.008
		c0,0.969-0.279,1.638-0.837,2.008c-0.559,0.37-1.225,0.555-2,0.555c-0.786,0-1.456-0.185-2.008-0.555s-0.829-1.04-0.829-2.008
		c0-0.979,0.276-1.649,0.829-2.008S132.146,18.583,132.933,18.583z M135.53,26.068v18.906h-5.212V26.068H135.53z"/>
	<path fill="#3F3F3F" d="M148.058,45.318c-1.892,0-3.503-0.341-4.836-1.021c-1.333-0.682-2.347-1.738-3.042-3.17
		c-0.695-1.432-1.042-3.264-1.042-5.495c0-2.311,0.396-4.195,1.188-5.655c0.792-1.459,1.891-2.533,3.298-3.22
		s3.039-1.031,4.896-1.031c1.321,0,2.463,0.128,3.426,0.385s1.803,0.561,2.521,0.914l-1.538,4.033c-0.82-0.33-1.584-0.6-2.29-0.811
		c-0.707-0.211-1.413-0.316-2.119-0.316c-0.912,0-1.669,0.209-2.273,0.629c-0.604,0.419-1.054,1.048-1.35,1.887
		c-0.296,0.838-0.444,1.889-0.444,3.152c0,1.24,0.159,2.27,0.479,3.086c0.319,0.816,0.78,1.422,1.384,1.818
		c0.604,0.397,1.338,0.596,2.205,0.596c1.082,0,2.045-0.145,2.888-0.436c0.843-0.291,1.663-0.697,2.461-1.223V43.9
		c-0.798,0.502-1.632,0.863-2.504,1.086C150.493,45.207,149.391,45.318,148.058,45.318z"/>
	<path fill="#3F3F3F" d="M162.807,18.381v11.976c0,0.723-0.029,1.445-0.085,2.168c-0.057,0.723-0.12,1.445-0.188,2.168h0.068
		c0.353-0.496,0.715-0.986,1.085-1.471c0.37-0.485,0.766-0.953,1.188-1.404l5.349-5.75h5.879l-7.588,8.202l8.049,10.704h-6.016
		l-5.503-7.66l-2.239,1.775v5.885h-5.212V18.381H162.807z"/>
	<path fill="#3F3F3F" d="M192.203,18.381v5.536c0,0.966-0.032,1.886-0.094,2.759s-0.111,1.49-0.145,1.851h0.273
		c0.41-0.661,0.897-1.196,1.461-1.606s1.188-0.712,1.872-0.906c0.684-0.193,1.418-0.291,2.205-0.291c1.378,0,2.581,0.24,3.606,0.718
		c1.025,0.479,1.823,1.229,2.393,2.248c0.569,1.02,0.854,2.341,0.854,3.963v12.32h-5.212V33.972c0-1.348-0.251-2.364-0.752-3.05
		c-0.501-0.685-1.276-1.028-2.324-1.028c-1.048,0-1.875,0.239-2.478,0.717c-0.604,0.478-1.031,1.18-1.282,2.105
		c-0.251,0.928-0.376,2.059-0.376,3.396v8.862h-5.212V18.381H192.203z"/>
	<path fill="#3F3F3F" d="M217.172,25.725c1.766,0,3.287,0.335,4.563,1.006c1.276,0.671,2.261,1.643,2.957,2.917
		c0.695,1.274,1.042,2.83,1.042,4.668v2.502h-12.322c0.057,1.44,0.498,2.57,1.324,3.391s1.974,1.23,3.444,1.23
		c1.219,0,2.335-0.125,3.35-0.376c1.014-0.251,2.056-0.626,3.127-1.128v4.033c-0.946,0.467-1.934,0.809-2.965,1.025
		s-2.281,0.324-3.751,0.324c-1.914,0-3.609-0.349-5.084-1.047c-1.476-0.699-2.632-1.764-3.469-3.195s-1.256-3.234-1.256-5.41
		c0-2.209,0.378-4.049,1.136-5.52c0.758-1.471,1.814-2.576,3.17-3.314C213.793,26.094,215.372,25.725,217.172,25.725z
		 M217.206,29.433c-1.014,0-1.854,0.315-2.521,0.945c-0.667,0.631-1.051,1.621-1.153,2.971h7.314
		c-0.012-0.752-0.151-1.422-0.419-2.008s-0.667-1.051-1.196-1.394S218.026,29.433,217.206,29.433z"/>
	<path fill="#3F3F3F" d="M239.936,25.725c0.262,0,0.566,0.015,0.914,0.043s0.629,0.065,0.846,0.111l-0.393,4.888
		c-0.171-0.057-0.413-0.1-0.727-0.128s-0.584-0.043-0.812-0.043c-0.672,0-1.325,0.084-1.957,0.253s-1.199,0.44-1.7,0.816
		c-0.501,0.376-0.897,0.87-1.188,1.481c-0.291,0.612-0.436,1.361-0.436,2.248v9.58h-5.212V26.068h3.948l0.769,3.228h0.256
		c0.376-0.649,0.846-1.245,1.41-1.786s1.208-0.974,1.931-1.299S239.093,25.725,239.936,25.725z"/>
	<path fill="#3F3F3F" d="M252.344,25.725c1.766,0,3.287,0.335,4.563,1.006c1.276,0.671,2.261,1.643,2.957,2.917
		c0.695,1.274,1.042,2.83,1.042,4.668v2.502h-12.322c0.057,1.44,0.498,2.57,1.324,3.391s1.974,1.23,3.444,1.23
		c1.219,0,2.335-0.125,3.35-0.376c1.014-0.251,2.056-0.626,3.127-1.128v4.033c-0.946,0.467-1.934,0.809-2.965,1.025
		s-2.281,0.324-3.751,0.324c-1.914,0-3.609-0.349-5.084-1.047c-1.476-0.699-2.632-1.764-3.469-3.195s-1.256-3.234-1.256-5.41
		c0-2.209,0.378-4.049,1.136-5.52c0.758-1.471,1.814-2.576,3.17-3.314C248.966,26.094,250.544,25.725,252.344,25.725z
		 M252.378,29.433c-1.014,0-1.854,0.315-2.521,0.945c-0.667,0.631-1.051,1.621-1.153,2.971h7.314
		c-0.012-0.752-0.151-1.422-0.419-2.008s-0.667-1.051-1.196-1.394S253.199,29.433,252.378,29.433z"/>
	<path fill="#3F3F3F" d="M283.397,29.982h-4.512v14.992h-5.212V29.982h-2.871V27.47l2.871-1.433v-1.433
		c0-1.665,0.276-2.961,0.829-3.887s1.333-1.578,2.341-1.957c1.008-0.378,2.202-0.568,3.581-0.568c1.014,0,1.937,0.083,2.769,0.248
		c0.832,0.165,1.509,0.35,2.034,0.555l-1.333,3.828c-0.399-0.125-0.832-0.239-1.299-0.342c-0.467-0.103-1.003-0.154-1.606-0.154
		c-0.729,0-1.262,0.232-1.598,0.696s-0.504,1.057-0.504,1.779v1.265h4.512V29.982z"/>
	<path fill="#3F3F3F" d="M303.052,35.496c0,1.578-0.214,2.977-0.641,4.193s-1.048,2.246-1.863,3.086s-1.794,1.473-2.939,1.901
		c-1.145,0.428-2.435,0.642-3.871,0.642c-1.345,0-2.578-0.214-3.7-0.642c-1.122-0.429-2.096-1.062-2.922-1.901
		s-1.464-1.869-1.914-3.086s-0.675-2.615-0.675-4.193c0-2.096,0.376-3.871,1.128-5.324c0.752-1.455,1.823-2.559,3.213-3.314
		c1.39-0.755,3.047-1.133,4.973-1.133c1.789,0,3.375,0.378,4.759,1.133s2.472,1.859,3.264,3.314
		C302.656,31.625,303.052,33.4,303.052,35.496z M289.841,35.497c0,1.229,0.137,2.265,0.41,3.103
		c0.273,0.839,0.701,1.471,1.282,1.895c0.581,0.426,1.338,0.638,2.273,0.638c0.923,0,1.672-0.212,2.247-0.638
		c0.575-0.424,0.997-1.056,1.265-1.895c0.268-0.838,0.402-1.873,0.402-3.103c0-1.241-0.134-2.272-0.402-3.095
		c-0.268-0.82-0.692-1.438-1.273-1.853c-0.581-0.413-1.339-0.62-2.273-0.62c-1.379,0-2.378,0.464-3,1.392
		S289.841,33.64,289.841,35.497z"/>
	<path fill="#3F3F3F" d="M317.322,25.725c0.262,0,0.566,0.015,0.914,0.043s0.629,0.065,0.846,0.111l-0.393,4.888
		c-0.171-0.057-0.413-0.1-0.727-0.128s-0.584-0.043-0.812-0.043c-0.672,0-1.325,0.084-1.957,0.253s-1.199,0.44-1.7,0.816
		c-0.501,0.376-0.897,0.87-1.188,1.481c-0.291,0.612-0.436,1.361-0.436,2.248v9.58h-5.212V26.068h3.948l0.769,3.228h0.256
		c0.376-0.649,0.846-1.245,1.41-1.786s1.208-0.974,1.931-1.299S316.479,25.725,317.322,25.725z"/>
	<path fill="#3F3F3F" d="M338.071,25.725c2.563,0,4.529,0.551,5.896,1.653c1.367,1.103,2.051,2.778,2.051,5.028v12.568h-3.64
		l-1.008-2.596h-0.137c-0.547,0.684-1.105,1.242-1.675,1.676c-0.57,0.433-1.225,0.752-1.965,0.957
		c-0.741,0.205-1.641,0.307-2.7,0.307c-1.128,0-2.139-0.214-3.034-0.641c-0.895-0.428-1.598-1.084-2.11-1.969
		c-0.513-0.883-0.769-2.007-0.769-3.369c0-2.004,0.712-3.482,2.136-4.434c1.424-0.951,3.56-1.479,6.409-1.58l3.315-0.102v-0.813
		c0-0.975-0.262-1.688-0.786-2.143c-0.524-0.454-1.253-0.681-2.188-0.681c-0.923,0-1.829,0.131-2.717,0.393
		s-1.777,0.593-2.666,0.991l-1.726-3.521c1.014-0.535,2.15-0.957,3.409-1.265S336.726,25.725,338.071,25.725z M340.839,36.267
		l-2.017,0.066c-1.687,0.045-2.857,0.338-3.512,0.882s-0.982,1.259-0.982,2.146c0,0.777,0.233,1.328,0.701,1.656
		c0.467,0.326,1.077,0.49,1.829,0.49c1.116,0,2.059-0.321,2.828-0.965c0.769-0.643,1.154-1.559,1.154-2.745V36.267z"/>
	<path fill="#3F3F3F" d="M367.125,41.166c0.569,0,1.125-0.057,1.666-0.171s1.08-0.257,1.615-0.427v3.879
		c-0.559,0.251-1.25,0.459-2.077,0.624s-1.729,0.247-2.708,0.247c-1.14,0-2.162-0.183-3.068-0.548s-1.618-1.001-2.136-1.906
		s-0.777-2.168-0.777-3.788v-9.094h-2.495v-2.205l2.871-1.743l1.504-4.028h3.333v4.063h5.349v3.914h-5.349v9.051
		c0,0.717,0.208,1.252,0.624,1.604C365.892,40.99,366.441,41.166,367.125,41.166z"/>
	<path fill="#3F3F3F" d="M381.447,25.725c1.766,0,3.287,0.335,4.563,1.006c1.276,0.671,2.261,1.643,2.957,2.917
		c0.695,1.274,1.042,2.83,1.042,4.668v2.502h-12.322c0.057,1.44,0.498,2.57,1.324,3.391s1.974,1.23,3.444,1.23
		c1.219,0,2.335-0.125,3.35-0.376c1.014-0.251,2.056-0.626,3.127-1.128v4.033c-0.946,0.467-1.934,0.809-2.965,1.025
		s-2.281,0.324-3.751,0.324c-1.914,0-3.609-0.349-5.084-1.047c-1.476-0.699-2.632-1.764-3.469-3.195s-1.256-3.234-1.256-5.41
		c0-2.209,0.378-4.049,1.136-5.52c0.758-1.471,1.814-2.576,3.17-3.314C378.068,26.094,379.646,25.725,381.447,25.725z
		 M381.481,29.433c-1.014,0-1.854,0.315-2.521,0.945c-0.667,0.631-1.051,1.621-1.153,2.971h7.314
		c-0.012-0.752-0.151-1.422-0.419-2.008s-0.667-1.051-1.196-1.394S382.301,29.433,381.481,29.433z"/>
	<path fill="#3F3F3F" d="M397.461,35.318l-6.152-9.25h5.913l3.708,6.02l3.743-6.02h5.913l-6.221,9.25l6.511,9.656h-5.93
		l-4.016-6.477l-4.033,6.477h-5.913L397.461,35.318z"/>
	<path fill="#3F3F3F" d="M421.131,41.166c0.569,0,1.125-0.057,1.666-0.171s1.08-0.257,1.615-0.427v3.879
		c-0.559,0.251-1.25,0.459-2.077,0.624s-1.729,0.247-2.708,0.247c-1.14,0-2.162-0.183-3.068-0.548s-1.618-1.001-2.136-1.906
		s-0.777-2.168-0.777-3.788v-9.094h-2.495v-2.205l2.871-1.743l1.504-4.028h3.333v4.063h5.349v3.914h-5.349v9.051
		c0,0.717,0.208,1.252,0.624,1.604C419.897,40.99,420.447,41.166,421.131,41.166z"/>
	<path fill="#3F3F3F" d="M440.512,44.974l-7.28-18.906h5.452l3.691,10.772c0.205,0.632,0.367,1.297,0.487,1.995
		c0.12,0.699,0.202,1.325,0.248,1.877h0.137c0.034-0.598,0.117-1.234,0.248-1.91s0.305-1.33,0.521-1.962l3.674-10.772h5.452
		l-7.28,18.906H440.512z"/>
	<path fill="#3F3F3F" d="M463.054,25.725c1.766,0,3.287,0.335,4.563,1.006c1.276,0.671,2.261,1.643,2.957,2.917
		c0.695,1.274,1.042,2.83,1.042,4.668v2.502h-12.322c0.057,1.44,0.498,2.57,1.324,3.391s1.974,1.23,3.444,1.23
		c1.219,0,2.335-0.125,3.35-0.376c1.014-0.251,2.056-0.626,3.127-1.128v4.033c-0.946,0.467-1.934,0.809-2.965,1.025
		s-2.281,0.324-3.751,0.324c-1.914,0-3.609-0.349-5.084-1.047c-1.476-0.699-2.632-1.764-3.469-3.195s-1.256-3.234-1.256-5.41
		c0-2.209,0.378-4.049,1.136-5.52c0.758-1.471,1.814-2.576,3.17-3.314C459.676,26.094,461.254,25.725,463.054,25.725z
		 M463.088,29.433c-1.014,0-1.854,0.315-2.521,0.945c-0.667,0.631-1.051,1.621-1.153,2.971h7.314
		c-0.012-0.752-0.151-1.422-0.419-2.008s-0.667-1.051-1.196-1.394S463.909,29.433,463.088,29.433z"/>
	<path fill="#3F3F3F" d="M485.819,25.725c0.262,0,0.566,0.015,0.914,0.043s0.629,0.065,0.846,0.111l-0.393,4.888
		c-0.171-0.057-0.413-0.1-0.727-0.128s-0.584-0.043-0.812-0.043c-0.672,0-1.325,0.084-1.957,0.253s-1.199,0.44-1.7,0.816
		c-0.501,0.376-0.897,0.87-1.188,1.481c-0.291,0.612-0.436,1.361-0.436,2.248v9.58h-5.212V26.068h3.948l0.769,3.228h0.256
		c0.376-0.649,0.846-1.245,1.41-1.786s1.208-0.974,1.931-1.299S484.976,25.725,485.819,25.725z"/>
	<path fill="#3F3F3F" d="M503.678,39.368c0,1.285-0.305,2.37-0.915,3.255s-1.518,1.555-2.726,2.012
		c-1.208,0.455-2.712,0.684-4.512,0.684c-1.333,0-2.476-0.085-3.427-0.256s-1.911-0.455-2.879-0.854v-4.307
		c1.037,0.468,2.15,0.853,3.341,1.153c1.19,0.303,2.236,0.453,3.136,0.453c1.014,0,1.74-0.146,2.179-0.437s0.658-0.673,0.658-1.146
		c0-0.315-0.088-0.6-0.265-0.854s-0.555-0.541-1.136-0.862s-1.493-0.741-2.734-1.259c-1.196-0.496-2.179-0.998-2.948-1.506
		c-0.769-0.506-1.339-1.106-1.709-1.8s-0.555-1.575-0.555-2.646c0-1.747,0.686-3.063,2.059-3.948s3.21-1.327,5.512-1.327
		c1.185,0,2.315,0.12,3.392,0.359s2.185,0.621,3.324,1.145l-1.572,3.759c-0.946-0.41-1.837-0.746-2.675-1.008
		s-1.689-0.393-2.555-0.393c-0.764,0-1.339,0.101-1.726,0.301c-0.388,0.201-0.581,0.508-0.581,0.92c0,0.301,0.1,0.568,0.299,0.803
		s0.587,0.494,1.162,0.778s1.421,0.649,2.538,1.095c1.082,0.439,2.022,0.899,2.82,1.379c0.797,0.479,1.413,1.07,1.846,1.774
		C503.461,37.341,503.678,38.251,503.678,39.368z"/>
	<path fill="#3F3F3F" d="M509.66,18.583c0.774,0,1.441,0.18,2,0.539c0.558,0.359,0.837,1.028,0.837,2.008
		c0,0.969-0.279,1.638-0.837,2.008c-0.559,0.37-1.225,0.555-2,0.555c-0.786,0-1.456-0.185-2.008-0.555s-0.829-1.04-0.829-2.008
		c0-0.979,0.276-1.649,0.829-2.008S508.874,18.583,509.66,18.583z M512.258,26.068v18.906h-5.212V26.068H512.258z"/>
	<path fill="#3F3F3F" d="M534.39,35.496c0,1.578-0.214,2.977-0.641,4.193s-1.048,2.246-1.863,3.086s-1.794,1.473-2.939,1.901
		c-1.145,0.428-2.435,0.642-3.871,0.642c-1.345,0-2.578-0.214-3.7-0.642c-1.122-0.429-2.096-1.062-2.922-1.901
		s-1.464-1.869-1.914-3.086s-0.675-2.615-0.675-4.193c0-2.096,0.376-3.871,1.128-5.324c0.752-1.455,1.823-2.559,3.213-3.314
		c1.39-0.755,3.047-1.133,4.973-1.133c1.789,0,3.375,0.378,4.759,1.133s2.472,1.859,3.264,3.314
		C533.994,31.625,534.39,33.4,534.39,35.496z M521.18,35.497c0,1.229,0.137,2.265,0.41,3.103c0.273,0.839,0.701,1.471,1.282,1.895
		c0.581,0.426,1.338,0.638,2.273,0.638c0.923,0,1.672-0.212,2.247-0.638c0.575-0.424,0.997-1.056,1.265-1.895
		c0.268-0.838,0.402-1.873,0.402-3.103c0-1.241-0.134-2.272-0.402-3.095c-0.268-0.82-0.692-1.438-1.273-1.853
		c-0.581-0.413-1.339-0.62-2.273-0.62c-1.379,0-2.378,0.464-3,1.392S521.18,33.64,521.18,35.497z"/>
	<path fill="#3F3F3F" d="M548.849,25.725c2.039,0,3.68,0.549,4.922,1.648c1.241,1.099,1.862,2.859,1.862,5.281v12.32h-5.212V33.972
		c0-1.348-0.248-2.364-0.743-3.05c-0.496-0.685-1.273-1.028-2.333-1.028c-1.595,0-2.683,0.534-3.265,1.602
		c-0.58,1.066-0.871,2.605-0.871,4.616v8.862h-5.212V26.068h3.982l0.701,2.459h0.29c0.41-0.661,0.92-1.196,1.529-1.606
		s1.288-0.712,2.034-0.906C547.279,25.822,548.051,25.725,548.849,25.725z"/>
	<path fill="#3F3F3F" d="M586.055,35.496c0,1.578-0.214,2.977-0.641,4.193c-0.428,1.217-1.049,2.246-1.863,3.086
		s-1.795,1.473-2.939,1.901c-1.145,0.428-2.436,0.642-3.871,0.642c-1.344,0-2.578-0.214-3.699-0.642
		c-1.123-0.429-2.097-1.062-2.923-1.901s-1.464-1.869-1.914-3.086s-0.675-2.615-0.675-4.193c0-2.096,0.376-3.871,1.128-5.324
		c0.752-1.455,1.823-2.559,3.213-3.314s3.048-1.133,4.974-1.133c1.788,0,3.375,0.378,4.759,1.133s2.472,1.859,3.265,3.314
		C585.658,31.625,586.055,33.4,586.055,35.496z M572.844,35.497c0,1.229,0.137,2.265,0.41,3.103
		c0.273,0.839,0.701,1.471,1.282,1.895c0.581,0.426,1.339,0.638,2.272,0.638c0.924,0,1.672-0.212,2.248-0.638
		c0.574-0.424,0.996-1.056,1.264-1.895c0.268-0.838,0.402-1.873,0.402-3.103c0-1.241-0.135-2.272-0.402-3.095
		c-0.268-0.82-0.691-1.438-1.272-1.853c-0.581-0.413-1.339-0.62-2.272-0.62c-1.379,0-2.379,0.464-3,1.392
		S572.844,33.64,572.844,35.497z"/>
	<path fill="#3F3F3F" d="M600.223,29.982h-4.512v14.992h-5.213V29.982h-2.871V27.47l2.871-1.433v-1.433
		c0-1.665,0.276-2.961,0.829-3.887s1.333-1.578,2.341-1.957c1.009-0.378,2.202-0.568,3.581-0.568c1.014,0,1.937,0.083,2.769,0.248
		s1.51,0.35,2.033,0.555l-1.332,3.828c-0.399-0.125-0.832-0.239-1.299-0.342c-0.468-0.103-1.004-0.154-1.607-0.154
		c-0.729,0-1.262,0.232-1.598,0.696s-0.504,1.057-0.504,1.779v1.265h4.512V29.982z"/>
	<path fill="#3F3F3F" d="M618.955,41.166c0.568,0,1.125-0.057,1.666-0.171s1.079-0.257,1.615-0.427v3.879
		c-0.559,0.251-1.251,0.459-2.077,0.624s-1.729,0.247-2.708,0.247c-1.141,0-2.162-0.183-3.068-0.548s-1.617-1.001-2.137-1.906
		c-0.518-0.905-0.777-2.168-0.777-3.788v-9.094h-2.494v-2.205l2.871-1.743l1.504-4.028h3.332v4.063h5.35v3.914h-5.35v9.051
		c0,0.717,0.207,1.252,0.623,1.604C617.721,40.99,618.271,41.166,618.955,41.166z"/>
	<path fill="#3F3F3F" d="M630.611,18.381v5.536c0,0.966-0.032,1.886-0.095,2.759s-0.11,1.49-0.146,1.851h0.273
		c0.41-0.661,0.897-1.196,1.461-1.606c0.564-0.41,1.188-0.712,1.872-0.906c0.684-0.193,1.419-0.291,2.204-0.291
		c1.379,0,2.581,0.24,3.606,0.718c1.025,0.479,1.823,1.229,2.393,2.248s0.854,2.341,0.854,3.963v12.32h-5.213V33.972
		c0-1.348-0.25-2.364-0.752-3.05c-0.501-0.685-1.275-1.028-2.324-1.028c-1.048,0-1.874,0.239-2.478,0.717
		c-0.604,0.478-1.031,1.18-1.282,2.105c-0.25,0.928-0.375,2.059-0.375,3.396v8.862h-5.213V18.381H630.611z"/>
	<path fill="#3F3F3F" d="M650.316,18.583c0.773,0,1.44,0.18,1.999,0.539c0.558,0.359,0.837,1.028,0.837,2.008
		c0,0.969-0.279,1.638-0.837,2.008c-0.559,0.37-1.226,0.555-1.999,0.555c-0.787,0-1.456-0.185-2.009-0.555s-0.829-1.04-0.829-2.008
		c0-0.979,0.276-1.649,0.829-2.008S649.529,18.583,650.316,18.583z M652.914,26.068v18.906h-5.213V26.068H652.914z"/>
	<path fill="#3F3F3F" d="M671.012,39.368c0,1.285-0.305,2.37-0.914,3.255s-1.518,1.555-2.726,2.012
		c-1.208,0.455-2.712,0.684-4.512,0.684c-1.333,0-2.476-0.085-3.427-0.256s-1.911-0.455-2.879-0.854v-4.307
		c1.036,0.468,2.15,0.853,3.34,1.153c1.191,0.303,2.236,0.453,3.137,0.453c1.014,0,1.74-0.146,2.179-0.437s0.658-0.673,0.658-1.146
		c0-0.315-0.089-0.6-0.265-0.854c-0.178-0.254-0.556-0.541-1.137-0.862s-1.492-0.741-2.734-1.259
		c-1.196-0.496-2.18-0.998-2.948-1.506c-0.769-0.506-1.339-1.106-1.709-1.8S656.52,32.07,656.52,31c0-1.747,0.687-3.063,2.06-3.948
		s3.21-1.327,5.512-1.327c1.185,0,2.315,0.12,3.392,0.359c1.077,0.239,2.186,0.621,3.324,1.145l-1.572,3.759
		c-0.945-0.41-1.837-0.746-2.674-1.008c-0.838-0.262-1.689-0.393-2.555-0.393c-0.764,0-1.34,0.101-1.727,0.301
		c-0.388,0.201-0.581,0.508-0.581,0.92c0,0.301,0.1,0.568,0.299,0.803s0.587,0.494,1.162,0.778s1.421,0.649,2.538,1.095
		c1.082,0.439,2.021,0.899,2.82,1.379c0.797,0.479,1.412,1.07,1.846,1.774C670.795,37.341,671.012,38.251,671.012,39.368z"/>
	<path fill="#3F3F3F" d="M690.65,25.725c1.766,0,3.286,0.335,4.563,1.006c1.275,0.671,2.262,1.643,2.957,2.917
		c0.694,1.274,1.042,2.83,1.042,4.668v2.502h-12.321c0.057,1.44,0.498,2.57,1.324,3.391s1.974,1.23,3.443,1.23
		c1.219,0,2.336-0.125,3.35-0.376s2.057-0.626,3.127-1.128v4.033c-0.945,0.467-1.934,0.809-2.965,1.025s-2.281,0.324-3.751,0.324
		c-1.914,0-3.608-0.349-5.085-1.047c-1.475-0.699-2.631-1.764-3.469-3.195s-1.256-3.234-1.256-5.41c0-2.209,0.379-4.049,1.137-5.52
		c0.758-1.471,1.814-2.576,3.17-3.314S688.85,25.725,690.65,25.725z M690.684,29.433c-1.014,0-1.854,0.315-2.521,0.945
		c-0.667,0.631-1.051,1.621-1.153,2.971h7.314c-0.012-0.752-0.151-1.422-0.419-2.008s-0.667-1.051-1.196-1.394
		S691.504,29.433,690.684,29.433z"/>
	<path fill="#3F3F3F" d="M706.664,35.318l-6.152-9.25h5.912l3.709,6.02l3.742-6.02h5.914l-6.221,9.25l6.511,9.656h-5.931
		l-4.016-6.477l-4.033,6.477h-5.913L706.664,35.318z"/>
	<path fill="#3F3F3F" d="M732.914,25.725c2.154,0,3.895,0.829,5.221,2.485c1.328,1.657,1.992,4.085,1.992,7.286
		c0,2.143-0.314,3.942-0.94,5.402c-0.627,1.459-1.493,2.561-2.598,3.305c-1.105,0.744-2.376,1.115-3.812,1.115
		c-0.922,0-1.715-0.117-2.375-0.35c-0.661-0.233-1.225-0.535-1.691-0.906c-0.468-0.369-0.872-0.766-1.214-1.188h-0.273
		c0.091,0.454,0.159,0.92,0.205,1.396s0.068,0.942,0.068,1.396v7.682h-5.212V26.068h4.238l0.734,2.493h0.239
		c0.342-0.513,0.757-0.985,1.247-1.418c0.49-0.433,1.08-0.777,1.77-1.034S732.003,25.725,732.914,25.725z M731.24,29.894
		c-0.912,0-1.636,0.186-2.171,0.555c-0.536,0.369-0.926,0.922-1.171,1.66c-0.245,0.737-0.379,1.671-0.401,2.8v0.554
		c0,1.207,0.116,2.23,0.351,3.068c0.232,0.84,0.626,1.477,1.179,1.912c0.553,0.437,1.313,0.654,2.282,0.654
		c0.797,0,1.452-0.218,1.965-0.654c0.513-0.436,0.896-1.076,1.153-1.92s0.385-1.875,0.385-3.094c0-1.834-0.29-3.215-0.872-4.143
		C733.359,30.359,732.459,29.894,731.24,29.894z"/>
	<path fill="#3F3F3F" d="M751.611,25.725c1.766,0,3.287,0.335,4.563,1.006c1.276,0.671,2.262,1.643,2.957,2.917
		c0.695,1.274,1.043,2.83,1.043,4.668v2.502h-12.322c0.057,1.44,0.498,2.57,1.324,3.391s1.975,1.23,3.443,1.23
		c1.219,0,2.336-0.125,3.35-0.376s2.057-0.626,3.128-1.128v4.033c-0.946,0.467-1.935,0.809-2.966,1.025s-2.281,0.324-3.75,0.324
		c-1.914,0-3.609-0.349-5.085-1.047c-1.476-0.699-2.632-1.764-3.47-3.195c-0.837-1.432-1.256-3.234-1.256-5.41
		c0-2.209,0.379-4.049,1.137-5.52c0.758-1.471,1.814-2.576,3.17-3.314S749.811,25.725,751.611,25.725z M751.646,29.433
		c-1.015,0-1.854,0.315-2.521,0.945c-0.667,0.631-1.051,1.621-1.154,2.971h7.314c-0.012-0.752-0.15-1.422-0.418-2.008
		s-0.667-1.051-1.197-1.394C753.141,29.605,752.466,29.433,751.646,29.433z"/>
	<path fill="#3F3F3F" d="M774.376,25.725c0.262,0,0.566,0.015,0.914,0.043s0.63,0.065,0.847,0.111l-0.394,4.888
		c-0.171-0.057-0.413-0.1-0.727-0.128s-0.584-0.043-0.812-0.043c-0.672,0-1.324,0.084-1.957,0.253s-1.199,0.44-1.7,0.816
		s-0.897,0.87-1.188,1.481c-0.29,0.612-0.436,1.361-0.436,2.248v9.58h-5.212V26.068h3.948l0.769,3.228h0.257
		c0.375-0.649,0.846-1.245,1.409-1.786s1.208-0.974,1.931-1.299C772.75,25.887,773.533,25.725,774.376,25.725z"/>
	<path fill="#3F3F3F" d="M781.52,18.583c0.775,0,1.441,0.18,2,0.539s0.838,1.028,0.838,2.008c0,0.969-0.279,1.638-0.838,2.008
		s-1.225,0.555-2,0.555c-0.785,0-1.455-0.185-2.008-0.555s-0.828-1.04-0.828-2.008c0-0.979,0.275-1.649,0.828-2.008
		S780.734,18.583,781.52,18.583z M784.117,26.068v18.906h-5.212V26.068H784.117z"/>
	<path fill="#3F3F3F" d="M811.326,25.725c2.164,0,3.802,0.549,4.912,1.648c1.111,1.099,1.667,2.859,1.667,5.281v12.32h-5.229V33.972
		c0-1.348-0.234-2.364-0.701-3.05c-0.467-0.685-1.19-1.028-2.17-1.028c-1.379,0-2.358,0.486-2.939,1.458s-0.871,2.362-0.871,4.17
		v9.452h-5.213V33.972c0-0.898-0.103-1.651-0.308-2.258s-0.519-1.062-0.94-1.365c-0.422-0.303-0.963-0.455-1.623-0.455
		c-0.969,0-1.729,0.239-2.281,0.717s-0.946,1.18-1.18,2.105c-0.233,0.928-0.35,2.059-0.35,3.396v8.862h-5.213V26.068h3.982
		l0.7,2.459h0.29c0.388-0.661,0.875-1.196,1.461-1.606c0.588-0.41,1.234-0.712,1.94-0.906c0.706-0.193,1.424-0.291,2.153-0.291
		c1.401,0,2.589,0.228,3.563,0.684c0.975,0.456,1.724,1.162,2.248,2.119h0.461c0.57-0.979,1.376-1.692,2.418-2.136
		C809.146,25.947,810.221,25.725,811.326,25.725z"/>
	<path fill="#3F3F3F" d="M830.434,25.725c1.766,0,3.286,0.335,4.563,1.006c1.275,0.671,2.262,1.643,2.957,2.917
		c0.694,1.274,1.042,2.83,1.042,4.668v2.502h-12.321c0.057,1.44,0.498,2.57,1.324,3.391s1.974,1.23,3.443,1.23
		c1.219,0,2.336-0.125,3.35-0.376s2.057-0.626,3.127-1.128v4.033c-0.945,0.467-1.934,0.809-2.965,1.025s-2.281,0.324-3.751,0.324
		c-1.914,0-3.608-0.349-5.085-1.047c-1.475-0.699-2.631-1.764-3.469-3.195s-1.256-3.234-1.256-5.41c0-2.209,0.379-4.049,1.137-5.52
		c0.758-1.471,1.814-2.576,3.17-3.314S828.633,25.725,830.434,25.725z M830.467,29.433c-1.014,0-1.854,0.315-2.521,0.945
		c-0.667,0.631-1.051,1.621-1.153,2.971h7.314c-0.012-0.752-0.151-1.422-0.419-2.008s-0.667-1.051-1.196-1.394
		S831.287,29.433,830.467,29.433z"/>
	<path fill="#3F3F3F" d="M853.385,25.725c2.039,0,3.68,0.549,4.922,1.648s1.863,2.859,1.863,5.281v12.32h-5.213V33.972
		c0-1.348-0.248-2.364-0.743-3.05c-0.495-0.685-1.272-1.028-2.333-1.028c-1.595,0-2.683,0.534-3.264,1.602
		c-0.581,1.066-0.871,2.605-0.871,4.616v8.862h-5.213V26.068h3.982l0.7,2.459h0.29c0.41-0.661,0.92-1.196,1.529-1.606
		s1.288-0.712,2.034-0.906C851.815,25.822,852.588,25.725,853.385,25.725z"/>
	<path fill="#3F3F3F" d="M872.885,41.166c0.57,0,1.125-0.057,1.666-0.171s1.08-0.257,1.615-0.427v3.879
		c-0.559,0.251-1.25,0.459-2.076,0.624s-1.729,0.247-2.709,0.247c-1.139,0-2.162-0.183-3.067-0.548s-1.618-1.001-2.136-1.906
		c-0.52-0.905-0.777-2.168-0.777-3.788v-9.094h-2.496v-2.205l2.871-1.743l1.504-4.028h3.333v4.063h5.349v3.914h-5.349v9.051
		c0,0.717,0.208,1.252,0.624,1.604C871.652,40.99,872.201,41.166,872.885,41.166z"/>
	<path fill="#3F3F3F" d="M887.156,25.725c2.563,0,4.529,0.551,5.896,1.653c1.367,1.103,2.051,2.778,2.051,5.028v12.568h-3.641
		l-1.008-2.596h-0.137c-0.547,0.684-1.105,1.242-1.676,1.676c-0.569,0.433-1.225,0.752-1.965,0.957s-1.641,0.307-2.7,0.307
		c-1.128,0-2.14-0.214-3.034-0.641c-0.895-0.428-1.598-1.084-2.109-1.969c-0.514-0.883-0.77-2.007-0.77-3.369
		c0-2.004,0.712-3.482,2.137-4.434c1.424-0.951,3.56-1.479,6.408-1.58l3.315-0.102v-0.813c0-0.975-0.263-1.688-0.786-2.143
		c-0.524-0.454-1.254-0.681-2.188-0.681c-0.923,0-1.828,0.131-2.717,0.393s-1.777,0.593-2.666,0.991l-1.727-3.521
		c1.014-0.535,2.15-0.957,3.409-1.265S885.812,25.725,887.156,25.725z M889.925,36.267l-2.017,0.066
		c-1.687,0.045-2.857,0.338-3.512,0.882c-0.656,0.544-0.982,1.259-0.982,2.146c0,0.777,0.232,1.328,0.7,1.656
		c0.467,0.326,1.077,0.49,1.829,0.49c1.115,0,2.059-0.321,2.828-0.965c0.769-0.643,1.153-1.559,1.153-2.745V36.267z"/>
	<path fill="#3F3F3F" d="M904.98,44.974h-5.212V18.381h5.212V44.974z"/>
	<path fill="#3F3F3F" d="M931.472,39.368c0,1.285-0.306,2.37-0.915,3.255s-1.518,1.555-2.725,2.012
		c-1.209,0.455-2.713,0.684-4.512,0.684c-1.334,0-2.477-0.085-3.428-0.256s-1.91-0.455-2.879-0.854v-4.307
		c1.037,0.468,2.15,0.853,3.341,1.153c1.19,0.303,2.235,0.453,3.136,0.453c1.014,0,1.74-0.146,2.18-0.437
		c0.438-0.291,0.658-0.673,0.658-1.146c0-0.315-0.089-0.6-0.266-0.854s-0.555-0.541-1.137-0.862
		c-0.58-0.321-1.492-0.741-2.734-1.259c-1.195-0.496-2.179-0.998-2.947-1.506c-0.77-0.506-1.34-1.106-1.709-1.8
		c-0.371-0.693-0.556-1.575-0.556-2.646c0-1.747,0.687-3.063,2.06-3.948s3.209-1.327,5.512-1.327c1.184,0,2.314,0.12,3.392,0.359
		s2.185,0.621,3.324,1.145l-1.572,3.759c-0.946-0.41-1.837-0.746-2.675-1.008s-1.689-0.393-2.555-0.393
		c-0.764,0-1.339,0.101-1.727,0.301c-0.387,0.201-0.58,0.508-0.58,0.92c0,0.301,0.1,0.568,0.299,0.803s0.586,0.494,1.162,0.778
		c0.574,0.284,1.421,0.649,2.537,1.095c1.082,0.439,2.022,0.899,2.82,1.379c0.797,0.479,1.412,1.07,1.846,1.774
		C931.255,37.341,931.472,38.251,931.472,39.368z"/>
	<path fill="#3F3F3F" d="M937.453,18.583c0.775,0,1.441,0.18,2,0.539s0.838,1.028,0.838,2.008c0,0.969-0.279,1.638-0.838,2.008
		s-1.225,0.555-2,0.555c-0.785,0-1.455-0.185-2.008-0.555s-0.828-1.04-0.828-2.008c0-0.979,0.275-1.649,0.828-2.008
		S936.668,18.583,937.453,18.583z M940.051,26.068v18.906h-5.212V26.068H940.051z"/>
	<path fill="#3F3F3F" d="M952.869,41.166c0.57,0,1.125-0.057,1.666-0.171s1.08-0.257,1.615-0.427v3.879
		c-0.559,0.251-1.25,0.459-2.076,0.624s-1.729,0.247-2.709,0.247c-1.139,0-2.162-0.183-3.067-0.548s-1.618-1.001-2.136-1.906
		c-0.52-0.905-0.777-2.168-0.777-3.788v-9.094h-2.496v-2.205l2.871-1.743l1.504-4.028h3.333v4.063h5.349v3.914h-5.349v9.051
		c0,0.717,0.208,1.252,0.624,1.604C951.637,40.99,952.186,41.166,952.869,41.166z"/>
	<path fill="#3F3F3F" d="M967.191,25.725c1.766,0,3.287,0.335,4.563,1.006s2.261,1.643,2.956,2.917
		c0.695,1.274,1.043,2.83,1.043,4.668v2.502h-12.322c0.057,1.44,0.498,2.57,1.324,3.391s1.975,1.23,3.444,1.23
		c1.219,0,2.335-0.125,3.35-0.376c1.014-0.251,2.056-0.626,3.128-1.128v4.033c-0.946,0.467-1.935,0.809-2.966,1.025
		s-2.281,0.324-3.751,0.324c-1.914,0-3.609-0.349-5.084-1.047c-1.477-0.699-2.633-1.764-3.47-3.195s-1.256-3.234-1.256-5.41
		c0-2.209,0.378-4.049,1.136-5.52c0.758-1.471,1.814-2.576,3.171-3.314C963.813,26.094,965.392,25.725,967.191,25.725z
		 M967.227,29.433c-1.015,0-1.855,0.315-2.521,0.945c-0.666,0.631-1.051,1.621-1.153,2.971h7.314
		c-0.012-0.752-0.151-1.422-0.419-2.008s-0.666-1.051-1.196-1.394S968.047,29.433,967.227,29.433z"/>
</g>
<g>
	<path fill="#FF7F00" d="M44.799,26.639c-1.414,2.125-1.843,4.657-1.197,7.143c0.749,2.883,2.857,5.024,5.613,6.055
		c2.814,1.053,6.232,0.663,8.733-0.994c2.367-1.567,3.935-4.089,4.541-6.844c1.354-6.151-2.298-12.063-7.508-15.116
		c-5.465-3.202-12.595-3.463-18.577-1.714c-2.631,0.776-5.154,1.997-7.288,3.736c-2.389,1.947-4.196,4.376-5.525,7.146
		c-1.454,3.032-2.224,6.683-1.978,10.047c0.308,4.195,1.625,8.18,4.042,11.65c2.543,3.48,5.707,6.271,9.588,8.19
		c5.66,2.799,12.366,3.32,18.487,1.969c5.824-1.287,11.207-4.263,15.635-8.229c0.533-0.478,1.046-0.974,1.557-1.474
		c-4.738,2.855-9.819,5.1-15.335,5.893c-6.177,0.887-12.939-0.084-18.178-3.646c-6.052-4.114-10.265-11.949-7.739-19.268
		c0.619-1.794,1.458-3.488,2.702-4.94c1.765-2.059,4.153-3.407,6.73-4.178c5.337-1.597,12.309-1.369,16.32,3.004
		c1.975,2.153,2.818,5.173,1.825,7.979c-0.884,2.492-3.101,4.002-5.72,4.137c-2.447,0.127-4.769-1.039-6.086-3.121
		C44.016,31.809,43.888,29.099,44.799,26.639z"/>
	<path fill-rule="evenodd" clip-rule="evenodd" fill="#FF7F00" d="M39.18,42.57c3.871,6.434,11.571,8.811,18.709,8.02
		c-4.38,1.009-9.081,1.242-13.456,0.085c-4.786-1.266-9.121-4.313-11.369-8.791c-1.305-2.598-1.651-5.735-1.023-8.564
		c0.313-1.413,0.865-2.751,1.676-3.951c0.679-1.005,1.814-2.294,3.104-2.435c1.477-0.162,0.627,2.309,0.487,3.022
		c-0.256,1.298-0.462,2.591-0.497,3.916C36.727,36.959,37.589,39.931,39.18,42.57C39.703,43.439,38.162,40.88,39.18,42.57z"/>
	<path fill-rule="evenodd" clip-rule="evenodd" fill="#FF7F00" d="M8.75,43.784c4.613-1.447,9.342,0.663,12.801,3.687
		c3.507,3.065,6.566,6.991,11.012,8.755c-0.184-0.052-0.366-0.107-0.547-0.167c-5.794-1.892-9.975-7.114-15.991-8.455
		c-2.781-0.637-6.263-0.146-7.613,2.699c-0.6,1.265-0.506,2.641,0.588,3.597c1.02,0.891,2.354,0.958,3.594,0.536
		c0.722-0.244,2.671-1.594,2.731-0.012c0.048,1.347-0.985,2.592-2.016,3.335c-2.312,1.662-5.469,1.379-7.693-0.287
		c-2.431-1.819-3.393-4.96-2.549-7.857C3.875,46.837,6.042,44.712,8.75,43.784C9.601,43.517,8.545,43.854,8.75,43.784z"/>
	<path fill-rule="evenodd" clip-rule="evenodd" fill="#FF7F00" d="M17.417,39.211c0.884,1.762,2.116,3.255,3.528,4.616
		c-1.383-0.829-2.743-1.685-4.046-2.637c-3.929-2.815-7.873-6.685-7.929-11.859c-0.013-1.147,0.152-2.983,1.295-3.616
		c1.23-0.681,2.357,1.104,2.833,1.985c1.047,1.936,1.684,3.969,2.321,6.059C15.931,35.636,16.543,37.469,17.417,39.211z"/>
	<path fill-rule="evenodd" clip-rule="evenodd" fill="#FF7F00" d="M7.266,35.539c2.486,1.615,4.533,3.795,6.713,5.784
		c-1.771-0.797-3.604-1.164-5.535-1.27C6.34,39.94,4.227,40.129,2.27,39.192c-0.893-0.429-1.9-1.109-2.2-2.109
		c-0.293-0.978,0.369-1.801,1.215-2.209C3.165,33.969,5.566,34.467,7.266,35.539C7.669,35.8,6.479,35.042,7.266,35.539z"/>
	<path fill-rule="evenodd" clip-rule="evenodd" fill="#FF7F00" d="M83.152,10.831c-0.164,2.835-1.628,5.498-3.725,7.372
		c-2.306,2.06-5.312,3.162-8.388,3.253c-3.046,0.091-5.98-0.76-8.685-2.114c-5.352-2.678-10.386-7.528-16.81-6.889
		c5.425-0.889,10.315,2.216,15.046,4.346c2.497,1.124,5.122,2.019,7.888,2.046c2.58,0.026,5.2-0.677,7.201-2.358
		c2.067-1.738,3.188-4.23,2.654-6.907c-0.344-1.14-0.791-2.106-1.691-2.93c-0.887-0.752-2.029-1.117-3.166-1.285
		c-1.418-0.209-3.064-0.236-4.387,0.399c-1.197,0.575-1.9,1.905-1.994,3.193c-0.108,1.466,0.722,2.744,1.83,3.629
		c0.564,0.451,1.202,0.772,1.85,1.084c0.266,0.128,0.771,0.305,0.826,0.647c0.131,0.837-1.799,0.99-2.285,0.985
		c-1.141-0.012-2.275-0.385-3.24-0.985c-1.986-1.235-3.197-3.4-3.291-5.728c-0.102-2.512,0.996-5,2.949-6.588
		c2.299-1.87,5.521-2.246,8.375-1.871c2.517,0.331,4.981,1.399,6.656,3.351C82.479,5.477,83.378,8.202,83.152,10.831
		C83.072,12.218,83.21,10.156,83.152,10.831z"/>
	<path fill-rule="evenodd" clip-rule="evenodd" fill="#FF7F00" d="M64.583,31.894c0.992-2.977,0.986-6.137-0.621-8.894
		c3.313,3.218,6.709,8.34,4.879,13.133c-0.43,1.124-1.138,2.214-2.144,2.9c-0.856,0.584-2.093,0.803-2.683-0.253
		c-0.572-1.024-0.411-2.429-0.25-3.54C63.931,34.096,64.241,32.997,64.583,31.894C64.856,31.073,64.552,31.994,64.583,31.894z"/>
	<path fill-rule="evenodd" clip-rule="evenodd" fill="#FF7F00" d="M72.209,26.957c-0.87-1.072-1.977-1.862-3.191-2.498
		c4.019,0.687,9.458,1.539,11.308,5.761c0.416,0.949,0.658,2.107,0.322,3.118c-0.389,1.172-1.513,1.51-2.61,1.039
		c-1.728-0.742-2.819-2.355-3.679-3.947C73.736,29.208,73.075,28.025,72.209,26.957z"/>
</g>
<g>
	<path fill="#FF7F00" d="M1029.054,26.639c1.414,2.125,1.844,4.657,1.197,7.143c-0.748,2.883-2.857,5.024-5.613,6.055
		c-2.814,1.053-6.232,0.663-8.732-0.994c-2.367-1.567-3.936-4.089-4.541-6.844c-1.354-6.151,2.297-12.063,7.508-15.116
		c5.465-3.202,12.594-3.463,18.576-1.714c2.631,0.776,5.154,1.997,7.287,3.736c2.389,1.947,4.197,4.376,5.525,7.146
		c1.454,3.032,2.225,6.683,1.978,10.047c-0.308,4.195-1.625,8.181-4.042,11.651c-2.543,3.479-5.707,6.271-9.588,8.189
		c-5.66,2.799-12.365,3.32-18.486,1.969c-5.824-1.287-11.207-4.262-15.635-8.229c-0.533-0.477-1.047-0.973-1.557-1.472
		c4.738,2.854,9.818,5.1,15.334,5.893c6.178,0.887,12.939-0.084,18.179-3.647c6.052-4.112,10.265-11.948,7.739-19.267
		c-0.619-1.794-1.457-3.488-2.702-4.94c-1.765-2.059-4.153-3.407-6.73-4.178c-5.337-1.597-12.31-1.369-16.319,3.004
		c-1.975,2.153-2.818,5.173-1.826,7.979c0.885,2.492,3.102,4.002,5.721,4.137c2.447,0.127,4.768-1.039,6.086-3.121
		C1029.837,31.809,1029.966,29.099,1029.054,26.639z"/>
	<path fill-rule="evenodd" clip-rule="evenodd" fill="#FF7F00" d="M1034.673,42.571c1.591-2.64,2.453-5.611,2.371-8.7
		c-0.035-1.325-0.241-2.618-0.498-3.916c-0.141-0.713-0.99-3.184,0.487-3.022c1.29,0.141,2.425,1.43,3.104,2.435
		c0.811,1.2,1.361,2.538,1.676,3.951c0.627,2.829,0.281,5.967-1.023,8.564c-2.248,4.479-6.584,7.524-11.369,8.79
		c-4.375,1.158-9.076,0.924-13.457-0.084C1023.103,51.38,1030.802,49.003,1034.673,42.571
		C1035.69,40.88,1034.149,43.44,1034.673,42.571z"/>
	<path fill-rule="evenodd" clip-rule="evenodd" fill="#FF7F00" d="M1065.104,43.784c2.707,0.93,4.874,3.055,5.683,5.829
		c0.844,2.898-0.118,6.04-2.549,7.858c-2.225,1.666-5.381,1.949-7.693,0.287c-1.03-0.742-2.063-1.988-2.016-3.334
		c0.061-1.583,2.01-0.232,2.73,0.012c1.24,0.422,2.574,0.354,3.594-0.537c1.095-0.955,1.188-2.333,0.589-3.597
		c-1.351-2.845-4.832-3.335-7.613-2.698c-6.017,1.339-10.196,6.563-15.991,8.455c-0.181,0.059-0.363,0.115-0.547,0.166
		c4.446-1.764,7.506-5.69,11.013-8.754C1055.761,44.448,1060.49,42.336,1065.104,43.784
		C1065.308,43.854,1064.252,43.518,1065.104,43.784z"/>
	<path fill-rule="evenodd" clip-rule="evenodd" fill="#FF7F00" d="M1058.434,33.76c0.637-2.09,1.274-4.124,2.321-6.059
		c0.477-0.881,1.603-2.666,2.833-1.985c1.144,0.633,1.308,2.469,1.296,3.616c-0.057,5.174-4.001,9.043-7.93,11.859
		c-1.303,0.952-2.662,1.808-4.046,2.638c1.411-1.361,2.644-2.855,3.528-4.617C1057.31,37.469,1057.922,35.636,1058.434,33.76z"/>
	<path fill-rule="evenodd" clip-rule="evenodd" fill="#FF7F00" d="M1066.587,35.539c1.699-1.071,4.102-1.569,5.98-0.665
		c0.846,0.408,1.508,1.231,1.215,2.209c-0.299,1-1.307,1.681-2.199,2.109c-1.957,0.938-4.07,0.748-6.174,0.861
		c-1.932,0.105-3.764,0.473-5.535,1.27C1062.054,39.333,1064.101,37.154,1066.587,35.539
		C1067.374,35.042,1066.185,35.8,1066.587,35.539z"/>
	<path fill-rule="evenodd" clip-rule="evenodd" fill="#FF7F00" d="M990.7,10.831c-0.225-2.628,0.674-5.354,2.387-7.35
		c1.674-1.952,4.139-3.02,6.656-3.351c2.854-0.375,6.076,0.001,8.375,1.871c1.953,1.588,3.051,4.077,2.949,6.588
		c-0.094,2.327-1.305,4.492-3.291,5.728c-0.965,0.6-2.1,0.973-3.24,0.985c-0.486,0.005-2.416-0.148-2.285-0.985
		c0.055-0.343,0.561-0.52,0.826-0.647c0.646-0.312,1.285-0.634,1.85-1.084c1.107-0.885,1.938-2.163,1.83-3.629
		c-0.094-1.288-0.797-2.618-1.994-3.193c-1.322-0.635-2.969-0.608-4.387-0.399c-1.137,0.167-2.279,0.532-3.166,1.285
		c-0.9,0.824-1.348,1.79-1.691,2.93c-0.533,2.677,0.586,5.169,2.654,6.907c2,1.682,4.621,2.384,7.201,2.358
		c2.766-0.027,5.391-0.922,7.887-2.046c4.73-2.129,9.621-5.234,15.047-4.346c-6.424-0.639-11.459,4.211-16.811,6.889
		c-2.703,1.354-5.639,2.205-8.684,2.114c-3.076-0.092-6.082-1.193-8.389-3.253C992.329,16.328,990.864,13.666,990.7,10.831
		C990.644,10.156,990.78,12.218,990.7,10.831z"/>
	<path fill-rule="evenodd" clip-rule="evenodd" fill="#FF7F00" d="M1009.271,31.894c0.342,1.103,0.652,2.202,0.818,3.347
		c0.16,1.111,0.322,2.516-0.25,3.54c-0.59,1.056-1.826,0.837-2.684,0.253c-1.006-0.687-1.713-1.776-2.143-2.9
		c-1.83-4.793,1.566-9.915,4.879-13.133C1008.284,25.757,1008.278,28.917,1009.271,31.894
		C1009.302,31.994,1008.997,31.073,1009.271,31.894z"/>
	<path fill-rule="evenodd" clip-rule="evenodd" fill="#FF7F00" d="M999.495,30.43c-0.859,1.592-1.951,3.205-3.68,3.947
		c-1.098,0.471-2.221,0.133-2.609-1.039c-0.336-1.011-0.094-2.169,0.322-3.118c1.85-4.222,7.289-5.075,11.307-5.761
		c-1.215,0.636-2.32,1.426-3.191,2.498C1000.778,28.025,1000.116,29.208,999.495,30.43z"/>
</g>
</svg>
