<?xml version="1.0" encoding="utf-8"?>
<!-- Generator: Adobe Illustrator 12.0.0, SVG Export Plug-In . SVG Version: 6.00 Build 51448)  -->
<!DOCTYPE svg PUBLIC "-//W3C//DTD SVG 1.1//EN" "http://www.w3.org/Graphics/SVG/1.1/DTD/svg11.dtd" [
	<!ENTITY ns_svg "http://www.w3.org/2000/svg">
	<!ENTITY ns_xlink "http://www.w3.org/1999/xlink">
]>
<svg  version="1.1" id="Layer_1" xmlns="&ns_svg;" xmlns:xlink="&ns_xlink;" width="65.156" height="63.547"
	 viewBox="0 0 65.156 63.547" overflow="visible" enable-background="new 0 0 65.156 63.547" xml:space="preserve">
<g>
	<path fill="#181616" d="M32.576,0C14.586,0,0,14.586,0,32.578c0,14.394,9.334,26.604,22.28,30.914
		c1.63,0.299,2.224-0.707,2.224-1.57c0-0.773-0.027-2.824-0.044-5.541c-9.062,1.967-10.974-4.369-10.974-4.369
		c-1.482-3.762-3.618-4.762-3.618-4.762c-2.958-2.023,0.224-1.984,0.224-1.984c3.271,0.234,4.99,3.359,4.99,3.359
		c2.906,4.979,7.626,3.539,9.482,2.707c0.296-2.105,1.136-3.541,2.066-4.355c-7.232-0.819-14.84-3.617-14.84-16.101
		c0-3.556,1.271-6.465,3.354-8.742c-0.337-0.824-1.454-4.137,0.316-8.621c0,0,2.736-0.877,8.96,3.34
		c2.6-0.723,5.387-1.086,8.156-1.098c2.766,0.012,5.554,0.375,8.156,1.098c6.221-4.217,8.949-3.34,8.949-3.34
		c1.778,4.484,0.659,7.797,0.323,8.621c2.088,2.277,3.353,5.188,3.353,8.742c0,12.515-7.619,15.269-14.877,16.076
		c1.17,1.006,2.213,2.993,2.213,6.032c0,4.355-0.041,7.869-0.041,8.938c0,0.871,0.586,1.885,2.24,1.565
		c12.936-4.315,22.262-16.52,22.262-30.909C65.157,14.586,50.569,0,32.576,0"/>
</g>
</svg>
