<?xml version="1.0" encoding="utf-8"?>
<!-- Generator: Adobe Illustrator 12.0.0, SVG Export Plug-In . SVG Version: 6.00 Build 51448)  -->
<!DOCTYPE svg PUBLIC "-//W3C//DTD SVG 1.1//EN" "http://www.w3.org/Graphics/SVG/1.1/DTD/svg11.dtd" [
	<!ENTITY ns_svg "http://www.w3.org/2000/svg">
	<!ENTITY ns_xlink "http://www.w3.org/1999/xlink">
]>
<svg  version="1.1" id="Layer_1" xmlns="&ns_svg;" xmlns:xlink="&ns_xlink;" width="303.531" height="330.891"
	 viewBox="0 0 303.531 330.891" overflow="visible" enable-background="new 0 0 303.531 330.891" xml:space="preserve">
<path fill="#3BC7D3" d="M253.317,320.209H68.524c-23.555,0-42.656-19.102-42.656-42.662V92.763
	c0-23.561,19.102-42.659,42.656-42.659h184.793c23.561,0,42.656,19.099,42.656,42.659v184.784
	C295.974,301.108,276.878,320.209,253.317,320.209L253.317,320.209z"/>
<path fill="#2F3E51" d="M257.94,55.043l0.463,0.19l0.439,0.188c-0.545-0.683-1.113-1.263-1.611-1.743
	c-1.166-1.113-2.479-2.063-3.908-2.818l-0.51-0.27l-0.498-0.24l-0.984-0.439c-0.627-0.267-1.254-0.507-1.869-0.709
	c-1.143-0.381-2.25-0.65-3.281-0.794c-2.549-0.36-4.225,0.091-4.746,0.7l-0.105,0.574c0.117,0.39,0.498,0.914,1.26,1.506
	c2.438,0.486,5.109,1.066,8.285,1.79l2.479,0.571l0.082,0.023l0.275,0.067l0.82,0.24l0.381,0.108l0.75,0.223l0.029,0.012
	l1.313,0.466L257.94,55.043L257.94,55.043z M201.86,55.348c15.117,2.212,32.15,1.315,44.596,0.255
	c-1.963-0.674-3.574-1.444-4.787-2.285l-0.75-0.144c-6.826-1.327-12.598-2.068-18.158-2.332c-9.117-0.434-18.217,0.404-28.33,2.678
	C197.021,54.036,199.493,54.645,201.86,55.348L201.86,55.348z M157.001,54.162c1.705,0.404,3.398,0.803,5.086,1.195l0.111,0.032
	c4.729,1.623,6.27,2.73,6.938,3.255l0.152-0.073c1.037-0.457,3.451-1.538,9.908-3.199c1.271-0.407,2.525-0.797,3.762-1.169
	C174.649,53.479,165.913,53.596,157.001,54.162L157.001,54.162z M282.292,64.292L282.292,64.292L282.292,64.292z M278.519,65.649
	l0.914,0.721l0.053,0.041v0.003l0.217-0.108c0.932-0.475,1.705-1.008,2.162-1.497l0.387-0.548l-0.076-0.047l-0.012-0.009
	c-0.188-0.088-0.533-0.199-1.143-0.243l-0.439-0.018l-0.498,0.023l-1.207,0.149l-0.967,0.202l0.316,0.662L278.519,65.649
	L278.519,65.649z M274.581,67.459c0.58,0.164,1.324,0.141,2.221-0.073l-0.135-0.296l-1.23-0.899l-0.258-0.179l-0.223-0.146
	l-0.967-0.656l-0.744-0.053l0.059,0.316l0.211,0.756l0.088,0.223l0.053,0.103l0.111,0.231l0.223,0.305L274.581,67.459
	L274.581,67.459z M280.839,70.632l0.451,0.888c1.025,2.027,2.092,3.938,3.111,5.777c0.996,1.796,2.115,3.826,3.123,5.924
	c0.463,0.949,0.885,1.872,1.248,2.771l-0.059-0.396l-0.064-0.369l-0.328-1.532l-0.457-1.682l-0.047-0.117l-0.035-0.105l-0.199-0.574
	c-0.41-1.26-0.99-2.587-1.822-4.178C284.39,74.538,282.731,72.387,280.839,70.632L280.839,70.632z M290.642,108.663
	c-0.053,1.611-0.088,3.217-0.1,4.822C290.653,111.915,290.677,110.309,290.642,108.663L290.642,108.663z M32.993,97.292
	c-1.881,5.719-3.082,11.657-3.762,17.786c0.662-0.855,1.424-1.629,2.303-2.309l0.018-0.012c5.631-4.213,8.432-7.424,8.314-9.542
	c-0.1-1.89-2.631-3.396-5.566-5.142L32.993,97.292L32.993,97.292z M2.999,86.136l-0.182,1.538l-0.164,1.547l-0.07,1.063
	l-0.029,0.442L2.46,92.696l-0.035,0.747c-0.193,5.317-0.205,10.45-0.023,15.243c0.387,10.143,1.652,19.342,3.762,27.346
	c2.496,9.492,6.17,17.52,11.092,24.199c-0.357-3.164-0.393-6.779-0.105-10.834c0.58-8.027,2.414-17.736,5.461-28.846
	c1.535-5.584,3.334-11.385,5.35-17.238c0.814-2.358,1.646-4.679,2.473-6.896l0.234-0.615l-0.891-0.636l-1.313-1.055l-0.621-0.56
	l-0.598-0.58l-1.113-1.315l-0.252-0.363l-0.229-0.372l-0.023-0.029l-0.416-0.794l-0.363-0.841l-0.299-0.943
	c-0.152-0.609-0.258-1.248-0.311-1.898l-0.023-0.577l0.012-0.504l0.076-1.058l0.076-0.545l0.006-0.05l0.123-0.545l0.299-1.116
	l0.188-0.563l0.018-0.038l0.234-0.574l0.545-1.137l0.709-1.198l0.797-1.146l0.029-0.035l0.961-1.125l0.521-0.56l0.486-0.46
	l0.111-0.105l1.236-1.063l0.035-0.026l1.395-0.993c2.174-1.424,4.57-2.464,7.137-3.114l0.105-0.021l1.049-0.243l0.891-0.372
	l1.342-1.005l0.557-0.65l0.041-0.047l0.563-0.756l0.281-0.428l0.006-0.015l0.182-0.267l0.135-0.202l0.609-0.955l0.012-0.023
	l0.445-0.656l0.234-0.349l0.357-0.513l0.305-0.404l0.105-0.135l0.838-1.011l0.035-0.032l0.967-0.938l0.029-0.023l0.516-0.439
	l0.023-0.021l0.568-0.393l0.592-0.372l0.1-0.059l0.604-0.311l1.359-0.492l0.064-0.015l0.34-0.091l0.018-0.003l0.381-0.064
	l0.773-0.088c5.18-0.372,9.58-0.372,13.857-0.021c0.891,0.085,2.537,0.208,4.066,0.287c1.447,0.076,2.953,0.132,4.482,0.161
	c2.895,0.056,6.006,0.026,9.246-0.085c12.27-0.425,25.617-2.027,38.525-3.574l1.002-0.123c5.725-0.686,11.789-1.412,17.959-2.039
	c-3.668-0.885-7.324-1.77-10.939-2.648c-14.566-3.527-29.625-7.172-44.291-10.453c-6.557-1.471-12.545-2.757-18.293-3.935
	l-0.563-0.114l-0.164-0.032l-0.369-0.067h-0.018l-2.684-0.328l-0.223-0.018l-1.688-0.12c-0.908-0.073-1.799-0.085-2.736-0.097
	l-1.131-0.012l-0.475,0.012l-0.27,0.009l-1.576,0.062c-4.143,0.211-8.297,0.899-12.34,2.039c-4.031,1.148-7.969,2.754-11.701,4.787
	c-3.715,2.016-7.225,4.453-10.436,7.236c-3.199,2.777-6.111,5.912-8.648,9.313c-2.525,3.39-4.699,7.061-6.451,10.913
	c-1.729,3.809-3.064,7.819-3.955,11.915l-0.1,0.451l-0.223,1.058l-0.264,1.553L2.999,86.136L2.999,86.136z M20.179,163.875
	c3.047,3.486,6.498,6.551,10.359,9.211c-1.441-9.551-2.754-18.914-3.533-28.025c-1.447-9.234-2.262-17.748-0.539-24.158
	c0.152-2.678,0.393-5.326,0.732-7.945c-0.861,2.771-1.658,5.508-2.396,8.197c-3.006,10.963-4.816,20.525-5.385,28.406
	C19.007,155.309,19.259,160.09,20.179,163.875L20.179,163.875z M22.476,169.489l0.521,0.738c1.172,1.535,2.596,2.637,4.313,3.328
	C25.622,172.284,24.011,170.93,22.476,169.489L22.476,169.489z M288.907,133.237c-3.094,18.668-1.412,38.496,0.229,57.762
	c1.242,14.625,2.525,29.754,1.611,43.898c-0.469,6.381,0.135,12.568,0.709,18.557c0.387,3.99,0.762,7.869,0.809,11.631
	c5.877-8.332,8.742-18.727,8.977-32.209c0.258-14.531-2.59-31.436-5.602-49.336C293.009,167.971,290.155,151.026,288.907,133.237
	L288.907,133.237z M285.181,296.614l0.498,0.592l0.141-0.205l0.012-0.023l0.129-0.223L285.181,296.614L285.181,296.614z
	 M68.7,299.872L68.7,299.872l0.029-0.006L68.7,299.872L68.7,299.872z M68.671,299.872L68.671,299.872l-0.006,0.006L68.671,299.872
	L68.671,299.872z M68.659,299.877h-0.006H68.659L68.659,299.877z M272.167,289.506v0.012v0.064l-0.006,0.205l0.135,0.762
	l0.006,0.029l0.328,1.078l0.234,0.645l0.275,0.715c0.164,0.439,0.375,0.949,0.615,1.494l0.721,1.641
	c0.264,0.574,0.539,1.148,0.809,1.693c0.275,0.539,0.568,1.125,0.885,1.699l0.738,1.271l1.178-0.785l0.029-0.012
	c0.439-0.211,0.932-0.422,1.529-0.574c0.598-0.158,1.271-0.246,1.846-0.316l0.07-0.006h0.082l1.424-0.135l0.879-0.316l-0.797-0.914
	c-0.902-0.949-1.441-1.693-1.33-2.473l0.686-1.002l0.029-0.018l0.65-0.193l-0.545-0.756c-1.289-0.709-2.566-1.348-3.867-1.928
	c-1.623-0.727-3.082-1.266-4.313-1.594l-1.359-0.281l-0.803-0.029L272.167,289.506L272.167,289.506z M278.806,303.428h0.387
	l1.137-0.018l1.072-0.088l1.002-0.129l0.844-0.193l0.738-0.246l0.521-0.258l0.018-0.012l0.639-0.615l0.053-0.111l0.041-0.17
	l0.006-0.428l-0.123-0.539l-1.559,0.574l-0.018,0.006c-0.586,0.129-1.195,0.193-1.84,0.193h-0.047l-1.465,0.246l-1.125,0.428
	l-0.756,0.521l-0.047,0.041l-0.088,0.07L278.806,303.428L278.806,303.428z M281.823,305.567l0.68,0.176l0.346,0.047l0.352,0.023
	c0.504,0.012,1.037-0.059,1.582-0.199l0.018-0.006l0.814-0.299l0.902-0.469l0.018-0.012l0.885-0.615l0.938-0.82
	c0.586-0.609,1.266-1.354,1.846-2.273l0.012-0.018c1.336-2.021,2.344-4.506,2.912-7.189l0.211-1.16l0.053-0.275l0.1-0.902
	l0.129-1.23l0.041-1.295l0.006-0.674l-0.006-0.398l-0.012-0.24l-0.082-1.383v-0.023l-0.047-0.451l-0.023-0.182l-0.105-0.896
	l-0.199-1.207l-0.006-0.018l-0.299-1.471l-0.334-1.178l-0.129-0.463l-0.164-0.533l-0.299-0.832l-0.545-1.447l-0.469-1.213
	l-0.252,0.832l-0.164,0.533l-0.012,0.053l-0.164,0.486l-0.229,0.85l-0.1,0.428l-0.012,0.059l-0.1,0.416l-0.141,0.82l-0.059,0.486
	l-0.047,0.404l-0.076,0.82l-0.023,0.48l-0.023,0.41l-0.018,0.826v0.023c-0.012,0.814,0.006,1.652,0.023,2.461l0.018,1.037
	l0.018,1.242v0.557v0.023v0.299l-0.006,0.627l-0.1,1.781l-0.088,0.744l-0.053,0.346l-0.293,1.553
	c-0.135,0.527-0.293,1.084-0.516,1.629l-0.006,0.018l-0.75,1.471l-0.521,0.721l-0.264,0.305c0.287,0.586,0.457,1.148,0.527,1.711
	l-0.023,1.078l-0.117,0.504l-0.006,0.012l-0.223,0.492c-0.316,0.551-0.768,1.02-1.377,1.412l-0.938,0.475l-0.984,0.328l-1.096,0.246
	L281.823,305.567L281.823,305.567z M268.306,311.245l0.246,0.047l0.486,0.041l0.457-0.029l0.346-0.076l0.035-0.006l0.803-0.416
	l0.029-0.023l0.311-0.234l0.018-0.018l0.381-0.381l0.697-0.885c0.504-0.797,0.891-1.547,1.207-2.291l0.352-0.785l0.205-0.469
	l0.006-0.018l0.088-0.223l-0.486-0.023l-0.516-0.023l-1.119-0.047l-0.545,0.006h-0.018h-0.018h-0.527l-0.979,0.059l-0.029,0.006
	l-0.932,0.117l-0.404,0.1l-0.264,0.07l-0.205,0.053l-0.012,0.006l-0.75,0.305l-0.041,0.018l-0.75,0.422l-0.381,0.287l-0.041,0.029
	l-0.363,0.299l-0.363,0.357l-0.199,0.217l-0.229,0.252l-0.773,0.984l-0.152,0.229l0.117,0.041l0.328,0.117l1.16,0.498l0.615,0.305
	l0.111,0.059l0.516,0.264l0.1,0.053l1.23,0.627L268.306,311.245L268.306,311.245z M217.382,311.086
	c-3.182,0.059-6.539,0.861-10.061,2.719C210.802,313.694,214.171,312.645,217.382,311.086L217.382,311.086z M61.183,312.487
	l0.861,0.27c2.156,0.65,4.271,1.102,6.281,1.348l0.234,0.035c0.932-0.416,1.887-0.861,2.83-1.313
	c3.34-1.705,10.986-2.215,16.916-1.535c-6.088-6.076-11.537-9.867-15.92-11.057c-0.756-0.205-1.494-0.334-2.191-0.381l-1.025-0.018
	l-0.48,0.035l-0.041,0.012l-0.059,0.018l-0.316,0.141l-0.188,0.129l-0.035,0.023l-0.211,0.152l-0.451,0.428l-0.504,0.598
	l-0.041,0.053c-0.352,0.451-0.744,1.031-1.172,1.764c-0.445,0.738-0.914,1.582-1.395,2.531c-0.24,0.469-0.498,0.996-0.773,1.57
	c-0.27,0.563-0.545,1.154-0.82,1.758C62.185,310.137,61.681,311.292,61.183,312.487L61.183,312.487z M191.062,313.811
	c2.713,0.609,5.344,1.055,7.875,0.838C196.382,313.893,193.757,313.717,191.062,313.811L191.062,313.811z M260.079,310.987
	l-0.574,0.158l-0.463,0.223l-0.053,0.035l-0.434,0.258l-0.844,0.732l-0.023,0.029c-0.521,0.516-0.984,1.16-1.348,1.852
	c-0.328,0.615-0.527,1.166-0.568,1.576l0.691-0.357l0.018-0.012l0.545-0.41l0.68-0.639l0.012-0.018
	c0.434-0.41,0.914-1.014,1.471-1.828l0.48-0.855L260.079,310.987L260.079,310.987z M72.937,314.62l5.32,0.604l5.08,0.574
	c3.439,0.393,6.844,0.779,10.23,1.137c-0.51-0.58-1.037-1.172-1.57-1.758l-1.066-1.16c-2.098-0.469-4.916-0.738-7.98-0.738
	C78.731,313.278,74.987,313.788,72.937,314.62L72.937,314.62z M58.142,316.026l0.094,1.049c0.855-0.07,1.705-0.182,2.543-0.334
	l1.324-0.252l1.318-0.346l0.656-0.188l0.428-0.141l0.117-0.041c-1.066-0.234-2.145-0.51-3.234-0.838l-1.166-0.375
	c-0.539,0.938-1.014,1.359-1.588,1.465H58.142L58.142,316.026z M49.493,316.413l0.428,0.088l0.211,0.041
	c1.963,0.404,3.914,0.615,5.824,0.621c-0.076-0.615-0.105-1.254-0.088-1.904l-0.275-0.275l-0.574-1.119l0.381-1.242l-0.193-0.088
	c-2.42-1.184-5.01-2.484-7.553-4.031c-2.725-1.688-5.004-3.398-6.973-5.232l-0.387-0.375l-0.797-0.803l-0.111-0.111l-0.316-0.334
	l-1.102-1.254l-0.984-1.271l-0.281-0.393l-0.738-1.102l-0.275-0.439l-0.826-1.465l-0.234-0.48l-0.457-0.979l-0.199-0.48
	l-0.229-0.615l-0.1-0.275l-0.275-0.797c-0.486-1.629-0.768-3.082-0.855-4.43l-0.006-0.082l0.076-0.943l0.023-0.264v-0.023
	l0.047-0.363l0.164-1.418l0.012-0.064l0.141-0.891c0.1-0.633,0.199-1.283,0.34-1.934l0.059-0.322l0.223-1.066l0.311-1.359
	l0.346-1.277l0.158-0.662l0.176-0.814c0.896-4.201,1.617-8.566,2.156-12.979c0.996-8.186,1.377-16.652,1.178-25.881
	c-0.193-8.842-0.926-17.654-1.928-26.309c-0.674,19.541-4.143,35.924-7.354,51.053c-0.416,1.969-0.85,4.008-1.26,5.982
	c-0.785,3.791-1.389,6.844-1.893,9.604c-0.58,3.223-0.715,6.51-0.404,9.762c0.316,3.34,1.107,6.598,2.35,9.68l0.012,0.035
	l0.217,0.521l0.375,0.826l0.422,0.914l0.604,1.143l0.123,0.234l0.475,0.826l0.006,0.012l0.691,1.113l0.117,0.193l0.199,0.299
	l0.387,0.557l0.762,1.043l0.592,0.744l0.838,1.008l0.111,0.123l0.082,0.094l0.896,0.955l0.129,0.135l0.305,0.311l0.475,0.451
	l0.967,0.896l0.697,0.58l0.293,0.24l0.516,0.416l0.469,0.363l0.018,0.006l1.09,0.773l0.17,0.117l0.352,0.24l0.563,0.346l1.137,0.686
	l0.879,0.463l0.979,0.498l0.164,0.082l0.305,0.135L45.075,315l0.023,0.012l0.996,0.381l0.328,0.111l1.125,0.381l1.295,0.357
	L49.493,316.413L49.493,316.413z M128.161,319.161c14.203,0.012,26.244-1.453,37.365-4.523
	C154.2,314.391,141.269,316.5,128.161,319.161L128.161,319.161z M101.003,322.413l0.1,0.129c2.865-0.574,5.783-1.184,8.783-1.828
	c-3.521-0.252-7.061-0.563-10.629-0.908C99.89,320.754,100.47,321.622,101.003,322.413L101.003,322.413z M224.267,309.715
	c0.797,0.223,1.594,0.486,2.396,0.785c6.398,2.42,11.689,6.873,15.938,10.447c1.869,1.576,3.48,2.936,4.805,3.773
	c1.5,0.961,2.033,0.867,2.197,0.785c0.498-0.252,1.582-1.887,0.908-11.584c-0.709-10.154-2.396-15.896-5.027-17.063
	c-2.83-1.26-7.529,2.432-12.961,6.709C229.968,305.584,227.208,307.752,224.267,309.715L224.267,309.715z M68.741,325.465
	l0.352,0.053c8.326,1.242,20.139-0.674,29.502-2.484h0.012c-0.879-1.125-1.852-2.332-2.895-3.586
	c-4.178-0.434-8.385-0.902-12.633-1.389l-9.053-1.031l-5.104-0.563l-0.234,0.111l-0.533,0.24l-0.264,0.117l-1.09,0.469l-0.018,0.006
	l-1.348,0.486l-0.188,0.064l-0.521,0.176l-0.029,0.006l-0.674,0.188l-1.389,0.369l-0.053,0.012l-1.395,0.27
	c-0.773,0.141-1.553,0.246-2.338,0.322c0.275,0.615,0.639,1.219,1.078,1.787c0.902,1.143,2.133,2.104,3.645,2.848l0.082,0.041
	l0.504,0.24l0.627,0.246l1.365,0.457l0.018,0.006l0.492,0.129l0.176,0.041l0.738,0.158l0.773,0.146L68.741,325.465L68.741,325.465z
	 M104.771,330.891c-0.592,0-0.896-0.41-1.559-1.301c-0.48-0.65-1.16-1.605-1.957-2.766c-0.34-0.486-0.738-1.072-1.207-1.758
	l-1.02,0.199c-10.137,1.957-21.656,3.785-30.275,2.502l-0.785-0.129l-0.838-0.158l-0.809-0.17l-0.176-0.041l-0.668-0.176
	l-1.488-0.504l-0.709-0.281l-0.639-0.299l-0.076-0.041c-1.816-0.891-3.305-2.063-4.43-3.48c-0.557-0.727-1.02-1.494-1.371-2.279
	l-0.299-0.779c-2.227,0.035-4.5-0.188-6.797-0.662l-0.193-0.041l-0.521-0.111h-0.018l-0.668-0.176l-1.354-0.369l-0.035-0.012
	l-1.201-0.404l-0.334-0.117l-1.154-0.445l-1.271-0.539l-0.328-0.146l-0.24-0.117l-1.002-0.51l-0.961-0.516l-0.018-0.012
	l-1.184-0.703l-0.604-0.375l-0.422-0.287l-0.158-0.111l-1.119-0.791l-0.592-0.451l-0.521-0.422l-0.299-0.234l-0.785-0.662
	l-1.002-0.932l-0.516-0.48l-0.352-0.369l-0.129-0.129l-0.926-0.99l-0.07-0.082l-0.182-0.199l-0.855-1.037l-0.656-0.814l-0.012-0.018
	l-0.785-1.084l-0.381-0.545l-0.281-0.422l-0.105-0.17l-0.012-0.018l-0.691-1.113l-0.557-0.973l-0.762-1.441l-0.457-0.984
	l-0.369-0.832l-0.275-0.656c-1.318-3.281-2.156-6.744-2.496-10.295c-0.328-3.457-0.188-6.949,0.428-10.383
	c0.51-2.783,1.113-5.854,1.91-9.662c0.41-1.98,0.844-4.02,1.26-5.988c4.16-19.623,8.766-41.361,7.049-69.404
	c-0.281-1.863-0.557-3.709-0.838-5.543c-0.281-1.846-0.568-3.691-0.85-5.525c-0.234-1.494-0.463-2.982-0.691-4.471
	c-4.207-0.258-7.529-1.951-9.891-5.051c-1.354-1.764-2.379-4.002-3.082-6.691c-1.447-1.688-2.807-3.469-4.066-5.338
	c-4.383-6.469-7.77-14.197-10.078-22.963c-2.15-8.162-3.439-17.531-3.832-27.838c-0.188-4.852-0.176-10.04,0.023-15.419l0.047-1.195
	l0.082-1.562l0.023-0.442l0.082-1.16l0.234-2.153l0.117-1.022c0.082-0.548,0.176-1.093,0.252-1.576l0.27-1.567l0.24-1.157l0.1-0.439
	c0.926-4.257,2.309-8.42,4.107-12.375c1.816-3.999,4.072-7.813,6.697-11.335c2.637-3.53,5.66-6.782,8.982-9.668
	c3.334-2.892,6.979-5.42,10.84-7.518c3.879-2.109,7.969-3.785,12.164-4.975c4.207-1.189,8.531-1.904,12.861-2.124l1.611-0.064
	l0.252-0.006l0.586-0.012l1.131,0.012c0.938,0.009,1.91,0.023,2.877,0.103l1.682,0.12l0.293,0.023l0.404,0.047l0.779,0.091
	l1.541,0.196l0.58,0.094l0.129,0.029l0.586,0.117c5.766,1.181,11.76,2.47,18.334,3.94c14.684,3.287,29.754,6.938,44.332,10.468
	c5.73,1.389,11.572,2.804,17.396,4.198c5.156-0.439,10.318-0.773,15.352-0.92c8.771-0.252,16.594,0.097,23.607,1.055
	c12.451-3.275,23.268-4.523,34.143-4.005c5.08,0.24,10.324,0.87,16.348,1.969l-0.07-0.208c-0.293-0.984-0.094-1.942,0.563-2.707
	c1.189-1.377,3.662-1.91,6.785-1.468c1.172,0.164,2.414,0.463,3.686,0.888c0.668,0.223,1.354,0.48,2.039,0.773l1.061,0.475
	l0.545,0.264l0.018,0.006l0.563,0.293c1.594,0.85,3.076,1.922,4.4,3.185c0.615,0.595,1.33,1.318,2.004,2.212l0.902,1.225
	l0.012,0.018c0.258,0.384,0.521,0.817,0.832,1.359l0.035,0.059l0.029,0.059l0.152,0.34c0.551,0.202,1.131,0.375,1.74,0.521
	l0.029,0.009l1.102,0.249l0.41,0.088l0.111,0.026l0.621-0.155l0.434-0.103l0.393-0.076l0.088-0.018l0.926-0.132l0.938-0.029
	l1.002,0.173l0.023,0.006c0.75,0.24,1.336,0.662,1.734,1.257l0.006,0.012l0.387,0.782l0.498,0.223l1.172,0.615l0.029,0.015
	c0.768,0.475,1.447,1.008,2.027,1.591c0.744-0.226,1.436-0.39,2.057-0.489l1.424-0.176l0.656-0.029h0.012l0.598,0.023
	c0.756,0.053,1.4,0.205,1.916,0.445l0.779,0.53l0.504,0.75c0.211,0.539,0.387,1.638-0.879,2.962
	c-0.633,0.662-1.465,1.219-2.186,1.629l0.258,0.243c2.408,2.042,4.482,4.632,6.176,7.696l0.012,0.023
	c0.896,1.708,1.523,3.146,1.975,4.532l0.193,0.565l0.029,0.085l0.076,0.24l0.492,1.79l0.34,1.57l0.094,0.545l0.182,1.172
	l0.018,0.182l0.059,0.466l0.17,1.811l0.047,1.755l-0.006,0.46v0.179l-0.035,1.506l-0.1,1.992c0.205,1.137,0.375,2.145,0.527,3.111
	c0.521,3.258,0.838,6.003,0.99,8.637c0.393,6.592-0.299,12.498-2.109,18.053c0.797,20.771,4.137,40.582,7.166,58.541
	c3.035,18,5.895,35.01,5.637,49.752c-0.264,15.375-3.879,26.912-11.338,36.041c-0.076,1.184-0.193,2.355-0.369,3.516
	c0.615,1.494,1.195,2.959,1.734,4.371l0.592,1.564l0.287,0.814l0.182,0.609l0.135,0.469l0.352,1.277l0.006,0.029l0.322,1.512
	l0.229,1.383l0.111,0.926l0.018,0.176l0.059,0.615l0.082,1.43l0.006,0.217l0.012,0.551l-0.012,0.68l-0.035,1.371v0.041l-0.135,1.318
	l-0.117,1.014l-0.059,0.305l-0.229,1.225c-0.621,2.965-1.74,5.725-3.229,7.98c-0.697,1.09-1.465,1.939-2.133,2.631l-0.029,0.029
	l-1.131,0.984L288.813,306l-1.16,0.809l-1.131,0.58l-1.172,0.422c-0.744,0.199-1.482,0.287-2.191,0.275l-0.533-0.035l-0.545-0.076
	l-1.002-0.264c-0.615-0.211-1.225-0.504-1.805-0.885l-1.43-1.137l-0.779-0.035l-0.387-0.018l-0.287-0.018l-0.404,0.932l-0.24,0.568
	l-0.328,0.75c-0.375,0.855-0.826,1.711-1.389,2.613l-0.018,0.023l-0.914,1.166l-0.51,0.516l-0.58,0.457l-0.053,0.041l-1.313,0.674
	l-0.826,0.193l-0.803,0.053l-0.832-0.07l-0.422-0.088l-0.023-0.006l-0.439-0.135c-0.563-0.199-1.125-0.48-1.676-0.838l-0.428-0.217
	l-0.135-0.07l-0.551-0.275l-0.996-0.422l-0.252-0.094l-0.252-0.088l-0.404-0.129l-0.404,0.686l-0.533,0.967l-0.521,0.932
	l-0.059,0.082c-0.656,0.949-1.236,1.67-1.77,2.191l-0.82,0.768l-0.826,0.621l-1.453,0.668c-0.592,0.152-1.09,0.129-1.535-0.07
	c-0.838-0.363-1.271-1.236-1.178-2.338c0.059-0.721,0.34-1.553,0.82-2.467c0.463-0.885,1.072-1.711,1.746-2.391l1.189-1.031
	l0.615-0.369l0.041-0.029l0.75-0.357c0.551-0.223,1.131-0.316,1.623-0.381l0.035-0.006l0.949-0.012l0.211,0.018l0.217-0.328
	l0.246-0.346l0.205-0.287l0.012-0.018l0.967-1.225l0.018-0.018l0.182-0.205l0.252-0.275l0.498-0.486l0.504-0.41l0.492-0.375
	l1.061-0.604l1.107-0.451l0.334-0.088l0.176-0.047l0.018-0.006l0.592-0.141l1.148-0.152l1.189-0.076h0.592h0.586l1.242,0.047h0.012
	l0.439,0.023l0.738,0.035l0.68,0.041l0.07-0.123l0.311-0.504c-0.463-0.709-0.861-1.395-1.195-1.998
	c-0.34-0.615-0.645-1.219-0.926-1.781c-0.281-0.568-0.568-1.166-0.838-1.77l-0.744-1.67c-0.252-0.574-0.469-1.107-0.656-1.588
	l-0.275-0.721l-0.258-0.709l-0.387-1.283l-0.199-1.201l0.012-0.557l0.1-0.592l0.809-1.102l1.195-0.439l1.389,0.029
	c0.504,0.064,1.037,0.176,1.652,0.34c1.348,0.363,2.906,0.938,4.646,1.711c1.518,0.68,3.006,1.436,4.5,2.279
	c0.41,0.07,1.061,0.258,2.15,0.721l0.82,0.363l0.047-0.475l0.094-1.699l0.006-0.492v-0.328v-0.58l-0.012-1.131l-0.006-0.041
	l-0.018-1.049c-0.018-0.826-0.035-1.682-0.023-2.531l0.018-0.938l0.029-0.457l0.018-0.428l0.094-0.984l0.059-0.469l0.053-0.445
	l0.17-1.002l0.111-0.475l0.105-0.475l0.281-1.031l0.158-0.48l0.182-0.586c0.398-1.248,0.703-2.525,0.926-3.832
	c-0.287-0.697-0.58-1.4-0.891-2.109l-0.287-0.674l0.492-0.539l1.172-1.33c0.211-4.576-0.264-9.41-0.75-14.414
	c-0.58-6.082-1.195-12.375-0.715-18.938c0.902-13.963-0.381-29.004-1.611-43.553c-1.898-22.33-3.861-45.416,1.559-66.809
	c-0.229-6.141-0.234-12.369,0.053-18.662c0.1-2.227,0.217-4.503,0.334-6.703c0.07-1.313,0.135-2.628,0.199-3.946l0.006-0.094
	l-0.158-0.858l-0.193-1.069l-0.023-0.108l-0.41-1.614l-0.076-0.296l-0.158-0.483c-0.604-2.013-1.43-4.081-2.52-6.334
	c-0.984-2.039-2.045-3.955-3.064-5.81c-1.031-1.857-2.104-3.782-3.152-5.848c-0.492-0.97-0.99-1.986-1.5-3.067l-0.428,0.111
	c-1.301,0.311-2.443,0.325-3.404,0.041l-0.018-0.006c-0.545-0.173-1.037-0.469-1.494-0.905l-0.023-0.021l-0.598-0.785l-0.229-0.454
	l-0.041-0.088l-0.141-0.36l-0.311-1.075l-0.164-1.081l-0.018-0.138l-0.023-0.17l-0.07-0.029l-0.258-0.1l-0.029-0.006l-1.324-0.58
	l-0.023-0.012l-0.223-0.105l-0.357-0.167L267.89,63.2l-0.322-0.176l-0.316-0.152l-0.732-0.381l-0.029-0.018l-0.768-0.398
	l-0.65-0.331c-1.752-0.891-4.09-2.01-6.732-2.815l-0.979-0.27l-0.299-0.079l-0.621-0.155l-0.023-0.006l-1.031-0.217l-0.205-0.041
	l-0.264-0.05l-1.852-0.255l-0.961-0.082c-0.85-0.067-1.682-0.123-2.473-0.17c-12.744,1.166-31.57,2.426-48.182-0.015l-0.082-0.012
	l-0.082-0.023c-3.967-1.192-8.109-2.063-12.381-2.672c-2.918,0.773-5.924,1.661-9.047,2.663l-0.064,0.021
	c-6.293,1.617-8.596,2.646-9.574,3.079c-1.002,0.451-1.5,0.565-2.396-0.141c-0.521-0.413-1.746-1.377-6.311-2.947
	c-3.949-0.923-7.945-1.872-11.959-2.83c-8.121,0.706-16.336,1.693-24.469,2.669l-1.002,0.12c-12.955,1.553-26.35,3.158-38.719,3.592
	c-3.281,0.114-6.434,0.141-9.369,0.085c-1.553-0.032-3.088-0.085-4.559-0.164c-1.564-0.082-3.205-0.208-4.143-0.29
	c-4.148-0.346-8.438-0.34-13.494,0.021l-0.592,0.067l-0.281,0.047l-0.188,0.047l-0.059,0.021l-1.078,0.393l-0.029,0.012l-0.34,0.179
	l-0.088,0.053l-0.486,0.305l-0.463,0.316l-0.393,0.34l-0.023,0.021l-0.814,0.788l-0.75,0.902l-0.117,0.146l-0.211,0.275
	l-0.346,0.504l-0.246,0.354l-0.398,0.595l-0.639,1.002l-0.158,0.24l-0.141,0.205l-0.322,0.492l-0.691,0.923l-0.756,0.876
	l-0.023,0.021c-0.533,0.507-1.143,1.028-1.922,1.412l-0.018,0.003l-1.166,0.483L39.714,72.1c-2.297,0.586-4.447,1.523-6.381,2.792
	l-1.271,0.899l-1.119,0.967l-0.111,0.103l-0.387,0.366l-0.469,0.504l-0.861,1.002l-0.715,1.022l-0.574,0.961l-0.012,0.023
	l-0.48,1.017l-0.193,0.466l-0.158,0.475l-0.264,0.964l-0.1,0.442l-0.053,0.431l-0.07,0.888l-0.006,0.425l0.012,0.346v0.021
	l0.258,1.562l0.006,0.018l0.205,0.65l0.293,0.677l0.334,0.63l0.018,0.029l0.146,0.246l0.205,0.287l0.914,1.081l0.498,0.486
	l0.574,0.513l1.184,0.952l0.369,0.267l0.012-0.032l0.533-1.345l0.65-1.248l0.27-0.501l0.334-0.548l0.094-0.149l0.668-1.005
	l0.012-0.021c0.322-0.437,0.99-1.339,1.922-0.809c0.434,0.243,0.762,0.817,0.48,1.512l-0.023,0.047
	c-0.094,0.196-0.369,0.771-0.979,1.854l-0.094,0.167l-0.826,1.658l-0.762,1.931c0.557,0.343,1.119,0.674,1.664,1.002
	c3.498,2.074,6.516,3.87,6.68,6.973c0.158,3.047-2.684,6.586-9.223,11.479c-2.063,1.605-3.398,3.885-4.189,6.662
	c-0.428,7.617-0.152,15.492,0.539,23.584c0.434,2.777,0.932,5.619,1.43,8.496c1.014,5.865,2.068,11.93,2.66,17.66
	c0.24,1.465,0.457,2.918,0.662,4.348l2.186,1.359h-1.998c0.721,5.309,1.219,10.4,1.518,15.299
	c2.168,14.549,4.125,29.859,4.459,45.293c0.205,9.334-0.182,17.906-1.189,26.203c-0.545,4.477-1.283,8.912-2.191,13.178l-0.27,1.248
	l-0.088,0.322l-0.346,1.295l-0.299,1.33l-0.199,0.926l-0.064,0.352l-0.006,0.023c-0.129,0.586-0.217,1.178-0.316,1.811l-0.141,0.891
	l-0.164,1.418l-0.041,0.352l-0.018,0.182l-0.012,0.146l-0.053,0.65c0.082,1.166,0.328,2.391,0.756,3.85l0.229,0.65l0.105,0.287
	l0.223,0.586l0.123,0.305l0.012,0.023l0.445,0.955l0.217,0.451l0.246,0.439l0.539,0.938l0.176,0.281l0.65,0.979l0.082,0.111
	l0.17,0.246l0.018,0.018l0.967,1.248l1.055,1.201l0.199,0.205l0.117,0.123l0.797,0.797l0.275,0.27l0.035,0.029
	c1.857,1.74,4.025,3.363,6.621,4.969c2.455,1.494,4.986,2.766,7.354,3.92l0.135,0.064l0.369-0.58
	c0.346-0.615,0.738-0.943,1.354-0.891c0.41,0.035,0.943,0.328,1.084,1.02c0.064,0.287,0.059,0.662,0.029,1.207l-0.006,0.135
	c0.48-1.16,0.967-2.273,1.453-3.328c0.281-0.627,0.563-1.23,0.838-1.805c0.287-0.592,0.551-1.125,0.803-1.617
	c0.51-1.008,0.99-1.881,1.465-2.666c0.475-0.809,0.92-1.471,1.348-2.016l0.047-0.059l0.609-0.721l0.691-0.65l0.334-0.246l0.357-0.24
	l0.814-0.363l0.217-0.059l0.17-0.035l0.123-0.018l0.633-0.047l1.295,0.018c0.838,0.059,1.723,0.211,2.625,0.457
	c5.373,1.453,11.813,6.141,19.154,13.934c0.926,0.24,1.734,0.527,2.379,0.855l0.27,0.141l0.164,0.252
	c0.967,1.5,1.869,2.871,2.695,4.137c5.297,0.533,10.535,0.99,15.715,1.307c1.641,0.1,3.252,0.188,4.84,0.258
	c18.656-4.002,37.658-7.793,53.162-6.211l0.311,0.035c4.195-1.488,8.221-1.271,12.129-0.563c5.549-0.65,11.279-1.313,16.734,0.586
	c0.908,0.316,1.816,0.551,2.713,0.721l1.125-0.615c3.855-2.391,7.822-3.744,11.789-4.025c1.629-0.117,3.275-0.053,4.934,0.188
	c3.58-2.186,6.938-4.834,10.025-7.26c6.252-4.922,11.191-8.813,15.287-7.002c3.604,1.6,5.566,7.453,6.369,18.99
	c0.615,8.807,0.006,12.668-2.139,13.764l-1.289,0.305c-2.092,0-4.658-2.156-8.209-5.15c-5.045-4.248-11.689-9.832-19.594-11.262
	c-1.23,0.727-2.484,1.395-3.768,1.992c-3.861,1.793-7.523,2.684-11.063,2.684c-1.072,0-2.133-0.082-3.182-0.246
	c-5.004,2.086-10.254,0.838-15.346-0.375c-1.477-0.352-2.971-0.709-4.477-0.99c-3.82,0.445-7.758,0.896-11.766,0.563
	c-8.936,2.994-18.375,4.881-28.852,5.777c-7.506,0.645-15.627,0.768-24.709,0.381c-1.137,0.24-2.273,0.486-3.404,0.732
	c-4.277,0.92-8.367,1.805-12.363,2.613c0.855,1.148,1.646,2.256,2.256,3.158c0.973,1.424,1.236,1.811,0.996,2.438l-0.246,0.656
	l-0.697,0.076L104.771,330.891L104.771,330.891z"/>
<path fill="#2F3E51" d="M141.856,52.288c0,25.348-20.549,45.896-45.902,45.896c-25.348,0-45.896-20.549-45.896-45.896
	c0-25.351,20.549-45.899,45.896-45.899C121.308,6.388,141.856,26.937,141.856,52.288L141.856,52.288z"/>
<path fill="#3BC7D3" d="M95.468,1.622c0.984,0,1.969,0.032,2.953,0.097c2.959,0.19,5.906,0.677,8.766,1.45
	c1.436,0.372,2.789,0.841,3.926,1.248l1.846,0.727l0.791,0.36l1.336-0.17l1.523-0.056l0.797,0.009l0.094,0.003l0.732,0.044
	l0.064,0.006c-1.828-1.04-3.803-1.913-5.889-2.616c-2.807-0.943-5.807-1.564-8.918-1.84c-3.006-0.272-6.141-0.223-9.322,0.146
	c-2.496,0.287-5.027,0.773-7.547,1.45c0.732-0.135,1.471-0.258,2.215-0.369C91.021,1.786,93.241,1.622,95.468,1.622L95.468,1.622z
	 M113.655,6.239l-1.119,0.226l-1.102,0.331l-0.926,0.36l-0.732,0.375c-0.639,0.39-0.896,0.715-0.932,0.885l0.023,0.097l0.779,0.343
	l0.873,0.144l0.568,0.053l0.352,0.029l0.316,0.026c0.475,0.038,0.996,0.064,1.605,0.082l0.076,0.003
	c0.568,0.035,1.219,0.076,1.939,0.105l0.861,0.053l0.316,0.023l1.74,0.129l0.955,0.103l0.527,0.056l0.094,0.009l-0.92-0.601
	l-0.539-0.331l-1.635-0.952l-1.98-1.025L113.655,6.239L113.655,6.239z M127.718,15.262l0.932,0.381
	c-1.846-3.483-4.734-6.633-8.379-9.088l-0.469-0.311l-0.047-0.003l-1.594-0.202l-0.686-0.041h-0.088l-0.773-0.012l-1.465,0.053
	l-0.176,0.021l0.146,0.062l2.01,1.046l1.641,0.958l0.574,0.352l1.676,1.102l0.41,0.293l1.383,0.75l0.398,0.398l0.357,0.419
	l0.111,0.141l0.498,0.404l0.176,0.146l0.34,0.281l1.576,1.418l1.418,1.4L127.718,15.262L127.718,15.262z M129.745,16.235
	l0.844,0.586l0.07-1.084c-0.023-0.92-0.24-1.857-0.633-2.777l-0.721-1.266l-0.439-0.615l-0.457-0.516l-0.047-0.05l-1.143-1.075
	l-1.307-0.926L125.21,8.09l-0.563-0.293l-0.17-0.079l-1.529-0.653l-1.289-0.401C125.245,9.297,128.034,12.611,129.745,16.235
	L129.745,16.235z M128.931,16.581l0.311,0.34l0.07,0.076l-0.123-0.267L128.931,16.581L128.931,16.581z M130.284,17.48l0.111,0.299
	l0.047-0.17L130.284,17.48L130.284,17.48z M130.812,18.819c1.582,1.925,3.029,3.99,4.295,6.138l0.041,0.076l-0.393-1.087
	c-0.27-0.65-0.533-1.251-0.809-1.822c-0.316-0.589-0.65-1.16-0.99-1.699c-0.574-0.867-1.219-1.638-1.916-2.294L130.812,18.819
	L130.812,18.819z M51.399,30.494l-0.609,1.436l-0.105,0.252l-0.146,0.343l0.047-0.035l1.102-0.973l0.492-0.524l0.24-0.278
	l0.246-0.278l0.867-1.157l0.205-0.311l0.223-0.322l0.398-0.627l0.24-0.416c0.434-0.75,0.879-1.523,1.277-2.347l0.012-0.018
	l0.773-1.474l0.188-0.384l0.135-0.249l0.076-0.141l0.82-1.559l0.275-0.486l0.176-0.305l0.691-1.213l0.252-0.39l0.264-0.419
	l0.762-1.166l0.311-0.434l-0.023,0.023l-0.188,0.188l-0.346,0.36l-1.33,1.465l-0.152,0.179l-0.088,0.111l-1.002,1.213l-0.088,0.111
	l-0.152,0.185l-1.178,1.567l-0.322,0.457l-0.117,0.179l-0.879,1.298l-0.258,0.413l-0.152,0.243l-0.809,1.336l-0.492,0.891
	l-0.252,0.472l-0.375,0.68L51.399,30.494L51.399,30.494z M50.421,32.837l-0.193,0.533l-0.182,0.501l-0.205,0.557l0.041-0.029
	l0.059-0.035l0.797-0.759l-0.223-0.636L50.421,32.837L50.421,32.837z M137.438,31.276l0.117,0.598
	c0.234,1.216,0.463,2.361,0.732,3.483c0.135,0.642,0.287,1.222,0.469,1.784c0.164,0.557,0.346,1.151,0.58,1.726l0.363,0.853
	l0.387,0.82l0.047,0.091c-0.492-2.795-1.254-5.563-2.279-8.291L137.438,31.276L137.438,31.276z M136.841,49.428l-0.369,0.047
	l-0.99,0.917l-0.129,0.407l-0.082,0.504l0.082,1.207l0.041,0.188l0.129,0.548l0.264,0.8l0.393,0.891l0.475,0.984l0.609,1.072
	l0.352,0.586l0.369,0.598c0.41,0.653,0.902,1.362,1.418,2.112l0.117,0.173l0.047-0.155c0.135-0.595,0.258-1.187,0.357-1.77
	l0.07-0.419l0.029-0.27l0.012-0.129l0.064-0.788l0.035-0.75v-0.686l-0.111-1.301c-0.088-0.847-0.311-1.55-0.492-2.074l-0.34-0.794
	l-0.393-0.636l-0.832-0.858L136.841,49.428L136.841,49.428z M134.755,62.993l0.018,0.053c0.047,0.146,0.246,0.483,1.043,1.125
	c0.451,0.366,1.02,0.768,1.658,1.175l0.275-0.691l0.141-0.346l0.111-0.278l-0.275-0.686l0.223-0.416
	C135.194,62.632,134.808,62.919,134.755,62.993L134.755,62.993z M138.188,65.793c1.576,0.943,2.766,1.441,3.229,1.485l-0.24-0.369
	l-0.979-1.04c-0.393-0.366-0.879-0.776-1.447-1.225L138.188,65.793L138.188,65.793z M135.458,70.718l-0.023,0.035
	c-0.639,1.008-1.307,2.004-2.01,2.979l0.141-0.141l0.492-0.571l0.229-0.293l0.205-0.311l0.773-1.315L135.458,70.718L135.458,70.718z
	 M50.942,67.162l0.814,1.781l0.059,0.126l0.105,0.214l0.914,1.746l0.299,0.533l0.48,0.812c0.387,0.688,0.832,1.348,1.26,1.992
	l0.434,0.653l0.621,0.844l0.305,0.416l0.469,0.633l0.322,0.393l0.146,0.179c-0.574-0.891-1.125-1.816-1.646-2.771
	c-1.512-2.865-2.643-5.874-3.369-8.95c-0.363-1.491-0.574-2.915-0.715-3.987l-0.182-1.843L51.2,58.639l-0.012-0.463l-0.006-1.4
	l0.029-1.412l0.018-0.267l0.012-0.126l0.053-0.691c0.059-0.741,0.111-1.444,0.211-2.121l0.158-1.263l0.199-1.175l0.17-1.084V48.62
	l0.193-1.014l0.152-0.94l0.07-0.396l0.088-0.501l0.111-0.812l0.035-0.381l0.041-0.41c0.094-0.858,0.053-1.726-0.123-2.643
	l-0.393-1.154l-0.041-0.094l-0.24-0.48l-0.352-0.574l-0.938-1.172l-0.598-0.615l-0.656-0.633l-0.012-0.009l-0.205-0.229
	l-0.012,0.023l-0.135,0.472l-0.193,0.756l-0.135,0.516l-0.246,0.996l-0.305,1.523l-0.053,0.27l-0.094,0.486l-0.34,2.309
	l-0.217,2.329l-0.023,0.498l-0.076,1.828l0.006,1.02v0.53l0.006,0.334l0.041,1.204l0.1,1.57l0.07,0.762l0.229,1.939l0.393,2.303
	l0.516,2.288l0.064,0.234l0.563,2.013l0.75,2.218L50.942,67.162L50.942,67.162z M70.032,89.061c1.682,1.046,3.439,1.96,5.25,2.736
	c0.744,0.343,1.518,0.627,2.268,0.902l0.691,0.258l1.008,0.322l0.486,0.152l0.756,0.231l0.486,0.126l0.264,0.067l0.158,0.038
	l-1.348-0.563l-1.225-0.545l-0.645-0.278l-0.445-0.196l-0.949-0.381l-0.809-0.313c-0.92-0.36-1.471-0.495-1.477-0.495l-0.041-0.012
	l-0.199-0.076l-2.01-0.867l-0.486-0.237l-0.24-0.12L70.032,89.061L70.032,89.061z M93.827,96.098h-1.184l-0.838-0.029
	c-0.668-0.038-1.342-0.088-1.992-0.141h-0.018l-0.281-0.035l-0.668-0.053l-0.498-0.041l-1.066-0.094l-1.559-0.211l-0.264-0.035
	l-0.521-0.076l-0.779-0.149l-0.457-0.088l-1.09-0.217l-1.547-0.384l-0.264-0.064l-0.516-0.138l-0.762-0.234l-0.48-0.149
	l-1.043-0.334l-0.697-0.255c-0.762-0.281-1.553-0.571-2.314-0.926c-3.984-1.705-7.705-4.081-11.045-7.052l-1.219-1.143l-0.539-0.536
	l-0.24-0.249l-0.516-0.46l-0.428-0.384l-0.398-0.375l-0.188-0.179l-1.131-1.116l-0.369-0.39l-0.182-0.199l-1.084-1.184l-1.008-1.219
	l-0.17-0.205l-0.334-0.413l-0.475-0.645l-0.311-0.41l-0.633-0.87l-0.434-0.656c-0.439-0.653-0.891-1.327-1.289-2.03l-0.475-0.809
	l-0.322-0.574l-0.914-1.737l-0.117-0.246l-0.053-0.123l-0.832-1.808l-0.879-2.215l-0.762-2.253l-0.568-2.021l-0.07-0.258
	l-0.521-2.326l-0.398-2.341l-0.229-1.948l-0.076-0.803l-0.1-1.559l-0.041-1.251l-0.006-0.331l-0.006-0.53v-1.049l0.076-1.837
	l0.023-0.521l0.223-2.37l0.34-2.326l0.1-0.516l0.053-0.267l0.311-1.538l0.252-1.02l0.129-0.513l0.193-0.762l0.152-0.507l0.076-0.258
	l0.463-1.497l0.357-0.99l0.182-0.501l0.27-0.735l0.199-0.489l0.105-0.249l0.621-1.459l1.025-2.136l0.375-0.688l0.258-0.472
	l0.498-0.908l0.82-1.354l0.146-0.234l0.281-0.448l0.879-1.298l0.117-0.173l0.346-0.489l0.012-0.012l1.16-1.559l0.17-0.208
	l1.096-1.324l0.088-0.105l0.176-0.208l1.324-1.459l0.375-0.393l0.182-0.182l1.119-1.125l0.387-0.357l0.205-0.185l1.184-1.081
	l1.213-1.011l0.217-0.179l0.416-0.334l1.324-1.002l0.604-0.434l1.307-0.896l0.117-0.079l0.223-0.152l1.02-0.63
	c1.646-1.084,3.363-1.969,4.67-2.616l0.803-0.366l0.41-0.182l0.604-0.27l0.193-0.082l0.434-0.182l0.563-0.217
	c2.549-1.151,5.109-2.121,7.629-2.883c3.117-0.943,6.27-1.603,9.363-1.963c3.229-0.369,6.416-0.422,9.469-0.146
	c3.164,0.284,6.223,0.914,9.082,1.875c2.672,0.896,5.168,2.083,7.424,3.521l0.662,0.123l0.82,0.202
	c0.533,0.144,1.102,0.302,1.652,0.501c0.551,0.214,1.084,0.442,1.594,0.68l0.17,0.082l0.609,0.316l0.727,0.439l1.383,0.979
	l1.207,1.131l0.047,0.053l0.498,0.568l0.469,0.65l0.773,1.374c0.439,1.014,0.668,2.036,0.697,3.056
	c0.006,0.542-0.041,1.081-0.141,1.617c0.855,0.753,1.635,1.652,2.326,2.698c0.357,0.557,0.697,1.146,1.025,1.755l0.006,0.018
	c0.281,0.583,0.551,1.195,0.832,1.872c0.504,1.333,0.92,2.66,1.23,3.955l0.076,0.313l0.246,0.489l0.814,1.802l0.17,0.404
	l0.563,1.436c1.254,3.34,2.121,6.747,2.596,10.178l0.539,1.049l0.199,0.56l0.123,0.519c0.111,0.604,0.129,1.201,0.059,1.775
	l-0.34,1.166l-0.229,0.437l-0.627,0.905l-0.023-1.102c-0.029-1.688-0.158-3.378-0.387-5.06l-0.357-0.583l-0.129-0.208l-0.48-0.853
	l-0.416-0.873l-0.357-0.855c-0.252-0.609-0.439-1.222-0.609-1.793c-0.182-0.574-0.346-1.175-0.486-1.831
	c-0.27-1.131-0.492-2.282-0.732-3.501c-0.246-1.248-0.498-2.531-0.803-3.812l-0.299-0.583l-0.311-0.609l-0.082-0.155l-0.141-0.264
	l-0.732-1.277c-1.178-2.001-2.514-3.929-3.984-5.739l-0.141,0.354l-0.275-0.867l-0.088-0.105l-0.973-1.192l-0.311-0.363l-1.33-1.462
	l-0.059-0.059l-0.152-0.047l-1.201-0.548l-0.92-0.75l-0.762-0.891l-0.322-0.451l-0.316-0.451l-0.047-0.062l-0.445-0.601
	l-0.762-0.618l-1.277-0.932l-0.393-0.05l-0.029-0.006l-0.996-0.108l-0.533-0.056l-1.055-0.114l-1.617-0.114l-0.322-0.023
	l-0.826-0.053c-0.732-0.029-1.383-0.067-1.963-0.105l-0.064-0.006c-0.604-0.015-1.143-0.041-1.623-0.079l-0.334-0.029l-0.322-0.026
	l-0.604-0.053l-0.973-0.167c-0.645-0.173-0.984-0.349-1.178-0.606l-0.146-0.65c0.082-0.439,0.51-0.896,1.254-1.359l0.82-0.419
	l0.984-0.384l1.154-0.346l0.164-0.041l-1.658-0.653c-1.113-0.398-2.449-0.858-3.861-1.228c-2.818-0.759-5.719-1.239-8.631-1.43
	c-3.158-0.202-6.328-0.076-9.434,0.39c-3.451,0.513-6.727,1.295-9.738,2.329l-0.223,0.076l-0.375,0.129l-1.236,0.475l-1.301,0.606
	c-2.771,1.327-5.613,2.915-8.432,4.717c-2.021,1.251-3.914,2.997-5.631,5.186c-0.352,0.463-0.721,0.964-1.125,1.526l-0.744,1.146
	l-0.264,0.419l-0.24,0.381l-0.68,1.187l-0.182,0.313l-0.264,0.466l-0.41,0.782l-0.41,0.773l-0.082,0.146l-0.117,0.223l-0.193,0.387
	c-0.27,0.545-0.527,1.031-0.785,1.491c-0.41,0.844-0.861,1.626-1.295,2.385l-0.246,0.422l-0.422,0.668l-0.422,0.624l-0.92,1.225
	l-0.252,0.29l-0.234,0.272l-0.527,0.56l-0.92,0.829l0.164,0.896c-0.111,0.568-0.615,0.896-1.107,1.216l-0.053,0.035l-0.727,0.727
	l0.316,0.563l0.68,0.65l0.615,0.639l1.008,1.251l0.381,0.63l0.258,0.519l0.047,0.1l0.439,1.313c0.193,0.996,0.234,1.931,0.135,2.865
	l-0.035,0.384l-0.041,0.407l-0.117,0.847l-0.088,0.519l-0.059,0.357l-0.158,0.97l-0.199,1.017l-0.17,1.093l-0.193,1.166
	l-0.158,1.248c-0.1,0.662-0.152,1.351-0.205,2.08l-0.053,0.688l-0.012,0.132l-0.018,0.229l-0.029,1.409l0.006,1.348l0.018,0.472
	l0.053,1.263l0.176,1.819c0.141,1.043,0.346,2.44,0.703,3.899c0.715,3.021,1.822,5.974,3.305,8.777
	c1.107,2.042,2.361,3.946,3.715,5.657l0.258,0.319l0.814,0.967l0.176,0.205l0.369,0.425l0.955,1.008l1.424,1.184l0.926,0.735
	l1.605,1.148l0.486,0.325l0.164,0.103l1.336,0.855l0.434,0.252l0.24,0.138l1.371,0.776l1.418,0.703l0.24,0.123l0.457,0.223
	l1.992,0.861l0.158,0.059c0.117,0.029,0.668,0.176,1.547,0.521l0.387,0.152l0.416,0.155l0.967,0.393l0.469,0.202l0.621,0.267
	l1.254,0.56c2.35,1.055,4.898,1.816,7.564,2.262c0.533,0.082,1.102,0.164,1.67,0.237l0.094,0.006l0.486,0.021l0.275,0.009
	l1.541,0.041l0.504-0.003l0.258-0.006l0.768-0.021c0.82-0.003,1.646-0.07,2.443-0.138l0.615-0.047l0.375-0.029l2.021-0.261
	l0.615-0.094c3.305-0.56,6.463-1.421,9.428-2.563c0.551-0.234,1.102-0.48,1.646-0.732c2.074-0.955,4.195-2.153,6.504-3.662
	c1.998-1.315,3.973-2.769,5.871-4.318c2.021-1.676,4.055-3.483,6.211-5.531c0.586-0.662,1.154-1.33,1.699-2.001
	c1.389-1.755,2.701-3.601,3.891-5.481c0.803-1.292,1.57-2.654,2.297-4.061l0.07-0.211l0.029-0.073
	c-0.715-0.451-1.354-0.899-1.857-1.31c-0.738-0.589-1.143-1.052-1.271-1.45l0.111-0.729c0.316-0.387,1.113-0.68,4.729-0.208
	l0.047-0.129l0.275-0.873l-0.012-0.015l-0.023-0.029l-0.41-0.595c-0.521-0.759-1.014-1.474-1.436-2.139l-0.375-0.612l-0.346-0.58
	l-0.633-1.113l-0.498-1.017l-0.404-0.935l-0.287-0.864l-0.135-0.583l-0.047-0.19l-0.094-1.415l0.1-0.598l0.164-0.53
	c0.287-0.68,0.809-1.151,1.465-1.327c0.68-0.182,1.418-0.018,2.092,0.469l0.99,1.02l0.457,0.735l0.369,0.87
	c0.182,0.516,0.434,1.31,0.533,2.232l0.111,1.339v0.753l-0.035,0.771l-0.064,0.814l-0.012,0.123l-0.041,0.313l-0.07,0.428
	c-0.1,0.598-0.223,1.207-0.363,1.813l-0.006,0.018l-0.193,0.668l0.17,1.192l-0.768,0.618l-0.199,0.492l-0.217,0.513
	c0.65,0.51,1.201,0.97,1.641,1.377l1.061,1.131l0.393,1.134l-0.439,0.357c-0.803,0.173-2.777-0.914-3.826-1.541l-0.082,0.158
	l-0.012,0.041l-0.158,0.451l-0.51,1.441l-0.48,1.271l-0.082,0.196l-0.311,0.724l-0.352,0.729l-0.797,1.362l-0.223,0.334
	l-0.012,0.009l-0.246,0.319l-0.527,0.612c-1.512,1.541-2.947,2.956-4.33,4.271c-0.855,0.961-1.746,1.907-2.672,2.83l-0.75,0.703
	c-0.521,0.498-1.066,1.014-1.635,1.488l-0.902,0.788l-1.541,1.236c-3.475,2.666-7.084,4.822-10.723,6.422
	c-0.738,0.331-1.494,0.647-2.256,0.943c-1.857,0.782-3.738,1.436-5.602,1.948l-0.293,0.076l-1.617,0.404l-0.018,0.003l-1.934,0.372
	l-0.838,0.132l-1.629,0.208l-0.521,0.053l-1.98,0.123l-0.516,0.018H93.827L93.827,96.098z"/>
<path fill="#3BC7D3" d="M104.069,53.151l-0.51,0.387l-0.311,0.249l-0.082,0.067l-0.006,0.026v0.029v0.062l0.006,0.258
	c0.006,0.633,0.012,1.266,0.023,1.904c0,0.539,0.006,1.087,0.006,1.629c0,0.545,0,1.09-0.006,1.632v0.41v0.044v0.023l-0.006,0.041
	l-0.006,0.167l-0.205-0.012l-0.023-0.003h-0.012l-0.029-0.003l-0.24-0.003l-0.48-0.012c-0.645-0.009-1.283-0.023-1.922-0.032
	l0.07-0.012c0.404-0.067-0.117-0.179-0.908-0.17c-1.957,0.023-3.92,0.047-5.883,0.073c-0.979,0.015-1.957,0.029-2.936,0.041
	l-1.465,0.023l-0.188,0.006H88.87l-0.012,0.003l-0.047,0.006L88.706,60l-0.018-0.138v-0.021l-0.006-0.009v-0.056l-0.006-0.249
	l-0.006-0.498c-0.018-0.665-0.029-1.333-0.041-1.992c-0.018-0.665-0.029-1.321-0.047-1.98l-0.006-0.249l-0.006-0.41l-0.006-0.431
	v-0.105V53.81l-0.041-0.029l-0.146-0.12l-0.586-0.478l-0.211-0.185l-0.17-0.152c-0.926-0.814-1.705-1.775-2.355-2.815
	c-0.316-0.527-0.609-1.066-0.844-1.632c-0.252-0.56-0.439-1.143-0.609-1.731l-0.258-0.63l-0.012,0.281l0.041,0.281l0.029,0.176
	l0.053,0.196c0.258,0.938,0.551,1.743,0.902,2.514c-0.779-1.406-1.324-3.062-1.471-4.828l0.088-0.126l0.035-0.823
	c0.023-1.822,0.422-3.653,1.184-5.326c0.381-0.838,0.85-1.638,1.395-2.373s1.166-1.415,1.852-2.016
	c0.498-0.442,1.025-0.853,1.594-1.21c0.557-0.357,1.143-0.686,1.752-0.952c0.609-0.27,1.242-0.495,1.881-0.677
	c0.645-0.17,1.301-0.296,1.963-0.381c0.662-0.07,1.33-0.1,1.998-0.082c0.662,0.029,1.33,0.1,1.986,0.214
	c0.656,0.126,1.301,0.296,1.928,0.513c0.633,0.217,1.242,0.486,1.834,0.794c0.914,0.48,1.799,1.078,2.607,1.784
	c0.803,0.706,1.535,1.5,2.156,2.361c0.615,0.858,1.125,1.764,1.529,2.672c0.398,0.905,0.686,1.805,0.891,2.648l0.176,0.765
	l0.141,0.65l0.229,0.697l0.152-0.413l0.023-0.551l-0.035-0.715c-0.082-1.034-0.387-2.35-0.803-3.363l-0.246-0.639
	c-0.516-1.113-1.154-2.165-1.928-3.105l-1.225-1.339l-0.68-0.606l-0.346-0.29l-0.363-0.275l-0.182-0.135l-0.188-0.129l-0.375-0.258
	l-0.387-0.237l-0.193-0.12l-0.199-0.111l-0.398-0.22l-0.404-0.202l-0.205-0.1l-0.211-0.091l-0.416-0.182l-0.428-0.164l-0.217-0.079
	l-0.217-0.073l-0.434-0.141l-0.439-0.123l-0.896-0.211l-0.457-0.079l-0.457-0.067c-2.016-0.267-4.09-0.108-6.041,0.483
	c-1.957,0.583-3.773,1.614-5.297,2.959c0.592-0.612,1.242-1.184,2.045-1.72l0.322-0.337l-0.469,0.208l-0.668,0.404
	c-0.973,0.688-1.857,1.485-2.631,2.379c-0.768,0.896-1.441,1.881-1.963,2.936c-1.066,2.106-1.588,4.474-1.529,6.814
	c0.053,2.341,0.691,4.667,1.834,6.709c0.574,1.025,1.271,1.975,2.074,2.83l0.621,0.624l0.322,0.302l0.158,0.135l0.082,0.07
	l0.041,0.035v0.032v0.129l-0.006,0.8l-0.023-0.322l-0.053-0.46l-0.07-0.003l-0.082,0.984c0,0.885,0,1.772,0,2.648
	c0.006,1.228,0.012,2.446,0.018,3.656l1.547-0.009l1.143-0.015c0.545-0.003,1.096-0.012,1.641-0.023
	c1.09-0.015,2.18-0.032,3.27-0.053c2.18-0.035,4.348-0.073,6.533-0.111c-0.469,0.059-0.076,0.173,0.785,0.182l1.271,0.006
	c0.768,0.006,1.547,0.009,2.326,0.012c0.006-1.254,0.006-2.525,0.012-3.8c-0.006-0.929-0.006-1.86-0.012-2.774l-0.006-0.618
	l-0.006-0.053v-0.015l0.012-0.012l0.047-0.044l0.1-0.088l0.047-0.044l0.117-0.105l0.516-0.498c0.668-0.677,1.236-1.409,1.717-2.156
	c0.475-0.744,0.861-1.5,1.137-2.244l0.105-0.275l0.094-0.275l0.164-0.539l0.229-1.034c0.234-1.333,0.164-2.44-0.018-3.17
	c-0.17-0.647-0.334-0.642-0.48-0.214l-0.105,0.396l-0.129,0.53l-0.07,0.313l-0.088,0.337l-0.094,0.366l-0.111,0.384
	c-0.146,0.527-0.357,1.096-0.598,1.696c-0.264,0.592-0.563,1.204-0.926,1.802c-0.369,0.595-0.785,1.181-1.242,1.729l-0.727,0.779
	l-0.375,0.366L104.069,53.151L104.069,53.151z"/>
<path fill="#3BC7D3" d="M102.522,63.129l-0.182-0.029c-0.645,0.076-1.318,0.018-1.963-0.056l0.012-0.012l-0.176-0.185
	c-1.758,0.108-3.527,0.281-5.215,0.598l0.047,0.234l0.527,0.023l-0.99,0.193l-0.182-0.158c-0.709-0.029-1.436,0.006-2.145,0.044
	c-1.037,0.053-2.068,0.138-3.088,0.272c-0.785,0.105-1.664,0.237-2.297,0.557l-0.393,0.41l0.902,0.267l0.123,0.009
	c0.861-0.108,1.705-0.211,2.584-0.252c0.727-0.035,1.459-0.05,2.191-0.053l-0.48,0.199l0.152,0.211
	c1.652-0.167,3.311-0.466,4.998-0.384l-0.064,0.021l0.1,0.223c1.184,0.029,2.326-0.152,3.486-0.246l0.146,0.193
	c1.494,0.064,3.357,0.103,3.967-0.923C105.071,63.478,103.642,63.165,102.522,63.129L102.522,63.129z"/>
<path fill="#3BC7D3" d="M102.522,68.939l-0.182-0.029c-0.645,0.073-1.318,0.015-1.963-0.062l0.012-0.006l-0.176-0.185
	c-1.758,0.108-3.527,0.281-5.215,0.601l0.047,0.231l0.527,0.021l-0.99,0.199l-0.182-0.164c-0.709-0.026-1.436,0.012-2.145,0.047
	c-1.037,0.05-2.068,0.135-3.088,0.272c-0.785,0.103-1.664,0.237-2.297,0.557l-0.393,0.41l0.902,0.267l0.123,0.009
	c0.861-0.108,1.705-0.211,2.584-0.255c0.727-0.032,1.459-0.047,2.191-0.053l-0.48,0.199l0.152,0.214
	c1.652-0.167,3.311-0.466,4.998-0.384l-0.064,0.018l0.1,0.226c1.184,0.026,2.326-0.152,3.486-0.249l0.146,0.196
	c1.494,0.067,3.357,0.103,3.967-0.923C105.071,69.285,103.642,68.971,102.522,68.939L102.522,68.939z"/>
<path fill="#3BC7D3" d="M88.642,68.221l0.176,0.032c0.65-0.073,1.318-0.018,1.969,0.059l-0.012,0.009l0.17,0.185
	c1.758-0.108,3.533-0.284,5.221-0.601l-0.053-0.234l-0.521-0.018l0.984-0.199l0.188,0.161c0.709,0.029,1.436-0.009,2.145-0.044
	c1.037-0.05,2.068-0.135,3.082-0.275c0.791-0.103,1.67-0.234,2.303-0.554l0.393-0.41l-0.908-0.267l-0.117-0.009
	c-0.861,0.108-1.711,0.211-2.59,0.252c-0.727,0.035-1.453,0.05-2.186,0.053l0.475-0.196l-0.146-0.217
	c-1.652,0.17-3.316,0.469-4.998,0.387l0.059-0.021l-0.1-0.223c-1.178-0.029-2.32,0.152-3.48,0.246l-0.152-0.193
	c-1.494-0.067-3.357-0.103-3.967,0.923C86.093,67.878,87.522,68.189,88.642,68.221L88.642,68.221z"/>
<path fill="#3BC7D3" d="M92.831,74.098l0.322,0.032c1.16-0.076,2.361-0.018,3.521,0.056l-0.023,0.012l0.311,0.185
	c0.785-0.029,1.576-0.062,2.361-0.097l1.184-0.059l0.293-0.015l0.053-0.018l0.105-0.035l0.146-0.038l0.088-0.018l0.018-0.006h0.018
	l0.006,0.023l0.012,0.258l-0.035,0.176l-0.012,0.047l-0.053,0.111l-0.047,0.117l-0.064,0.111l-0.539,0.876l0.229,0.094l0.287-0.352
	l0.076-0.082l0.064-0.082l0.129-0.164l-0.088,0.182l-0.094,0.182l-0.223,0.357l-0.264,0.34l-0.141,0.17l-0.158,0.155l-0.34,0.085
	c-0.48,0.36-1.008,0.671-1.559,0.923l-0.422,0.17l-0.428,0.149l-0.891,0.196c-0.873,0.138-1.775,0.117-2.648-0.073
	c-0.867-0.196-1.705-0.551-2.461-1.049c-0.586-0.384-1.148-0.885-1.629-1.43c-0.486-0.548-0.902-1.131-1.242-1.658l-0.164-0.237
	l-0.152-0.199l-0.293-0.185l-0.082,0.65l0.188,0.601l0.135,0.302l0.146,0.278l0.105,0.229c0.943,1.538,2.338,2.701,3.979,3.396
	c0.68,0.284,1.395,0.475,2.121,0.574l0.275,0.032l0.275,0.023l0.551,0.021l1.096-0.079l-0.229,0.082l-0.229,0.073l-0.492,0.114
	l0.311,0.199c0.873-0.085,1.723-0.313,2.514-0.671c0.785-0.354,1.506-0.832,2.139-1.403c0.633-0.568,1.178-1.228,1.617-1.951
	l0.152-0.275l0.105-0.188l0.111-0.211l0.357-0.85l0.047-0.105l0.035-0.105l0.059-0.211l0.129-0.422l0.258-0.876l-0.018,0.158
	l0.088,0.167l0.27-0.633l0.023-0.085l0.006-0.021v-0.015l-0.041-0.006l-0.164-0.015l-0.328-0.032l-0.662-0.062l-0.328-0.023h-0.369
	l-0.738,0.009l-0.715,0.012l-0.387,0.018l-0.779,0.035c-1.037,0.053-2.068,0.123-3.111,0.17l-0.264-0.193
	c-2.678-0.067-6.018-0.103-7.107,0.923C88.267,73.752,90.827,74.066,92.831,74.098L92.831,74.098z"/>
<path fill="#3BC7D3" d="M78.933,35.936l-0.047-0.076l-0.656-0.729h0.012l0.006-0.123c-0.639-0.598-1.307-1.181-2.004-1.679
	l-0.064,0.094l0.17,0.199l-0.41-0.287l-0.006-0.123l-0.75-0.759l-1.154-1.02l-0.984-0.642l-0.287,0.003l0.217,0.416l0.035,0.047
	l0.979,0.847l0.768,0.773l-0.234-0.105l-0.029,0.129c0.627,0.539,1.307,1.034,1.852,1.67l-0.029-0.015l-0.047,0.114l1.283,1.172
	l-0.023,0.12c0.492,0.56,1.113,1.248,1.693,1.116L78.933,35.936L78.933,35.936z"/>
<path fill="#3BC7D3" d="M78.933,35.936l0.053-0.032l-0.047-0.076l-0.003-0.006l-0.659-0.732l-0.047,0.041v0.059h0.012H78.3
	l0.009-0.179v-0.029l-0.021-0.018c-0.639-0.601-1.31-1.184-2.01-1.685l-0.053-0.035l-0.097,0.146l-0.026,0.038l0.202,0.231
	l0.044-0.038l0.035-0.05l-0.387-0.272l-0.003-0.091l-0.003-0.023l-0.765-0.776l-0.003-0.003l-1.154-1.02l-0.003-0.003l-0.99-0.645
	l-0.015-0.009l-0.305,0.003l-0.1,0.003l0.264,0.501l0.041,0.056l0.003,0.006l0.984,0.85l0.038-0.044l-0.041,0.041l0.768,0.773
	l0.041-0.041l0.026-0.056l-0.234-0.105l-0.067-0.029l-0.047,0.199l-0.006,0.035l0.026,0.023c0.63,0.542,1.307,1.034,1.846,1.664
	l0.044-0.038l0.026-0.056L76.34,34.5l-0.056-0.026l-0.073,0.173l-0.015,0.038l1.289,1.178l-0.018,0.088l-0.006,0.029L77.482,36
	c0.454,0.513,1.008,1.146,1.591,1.154l0.161-0.018l0.059-0.015l-0.302-1.201l-0.003-0.012l-0.003-0.006L78.933,35.936l-0.059,0.012
	l0.287,1.146l0.059-0.015l-0.012-0.059l-0.135,0.015l-1.5-1.113l-0.047,0.041l0.059,0.009l0.023-0.117l0.006-0.035l-1.277-1.166
	l0.032-0.076l-0.056-0.021l-0.026,0.053l0.029,0.015l0.27,0.135L76.39,34.53c-0.551-0.642-1.233-1.14-1.857-1.676l-0.041,0.047
	l0.059,0.012l0.012-0.059l0.17,0.076l0.299,0.138l-0.999-1.008l-0.979-0.847l-0.026-0.035l-0.17-0.325l0.17-0.003l0.967,0.63
	l1.151,1.017l0.038-0.044l-0.041,0.041l0.732,0.741l0.006,0.103v0.026l0.437,0.305l0.407,0.293l-0.469-0.542l0.038-0.059
	l-0.05-0.032l-0.035,0.047c0.694,0.498,1.362,1.078,1.998,1.676l0.041-0.044l-0.059-0.003l-0.006,0.123l0.059,0.003v-0.062h-0.012
	h-0.135l0.744,0.826l0.044,0.07L78.933,35.936l-0.059,0.012L78.933,35.936L78.933,35.936z"/>
<path fill="#3BC7D3" d="M87.464,28.764l-0.012-0.062l-0.293-0.621l0.006,0.003l0.053-0.097l-1.113-1.471l-0.094,0.07l0.076,0.167
	l-0.246-0.261l0.041-0.097l-0.369-0.65l-0.621-0.888l-0.621-0.58l-0.246-0.023l0.029,0.34l0.018,0.038l0.533,0.738l0.375,0.665
	l-0.164-0.1l-0.07,0.094l0.984,1.453l-0.023-0.015l-0.082,0.085l0.674,1.017l-0.059,0.091c0.211,0.478,0.498,1.061,1.049,1.011
	L87.464,28.764L87.464,28.764z"/>
<path fill="#3BC7D3" d="M87.464,28.764l0.059-0.012l-0.012-0.062v-0.006l-0.296-0.63l-0.056,0.026l-0.026,0.053l0.006,0.003
	l0.05,0.026l0.082-0.149l0.018-0.032l-1.134-1.503l-0.038-0.047l-0.141,0.105l-0.038,0.029l0.097,0.211l0.053-0.023l0.044-0.041
	l-0.22-0.234l0.026-0.056l0.012-0.026l-0.384-0.68l-0.003-0.006l-0.621-0.888l-0.003-0.003l-0.627-0.586l-0.015-0.015l-0.267-0.026
	l-0.073-0.006l0.038,0.41v0.012l0.023,0.047v0.006l0.539,0.747l0.047-0.038l-0.053,0.032l0.375,0.662l0.053-0.029l0.032-0.053
	l-0.164-0.1l-0.047-0.026l-0.103,0.135l-0.026,0.035l1.008,1.488l0.05-0.032l0.032-0.053l-0.023-0.015l-0.041-0.026l-0.114,0.12
	l-0.035,0.035l0.68,1.025l-0.038,0.059l-0.018,0.026l0.015,0.029c0.202,0.454,0.475,1.043,1.037,1.049l0.07-0.003l0.044-0.003
	l0.185-0.952l0.003-0.015l-0.003-0.009L87.464,28.764l-0.059-0.012l-0.176,0.908l0.059,0.012l-0.003-0.062l-0.062,0.003
	l-0.929-0.979l-0.056,0.026l0.05,0.032l0.062-0.091l0.021-0.032L85.7,27.56l0.05-0.05l-0.044-0.041l-0.029,0.05l0.023,0.015
	l0.24,0.155l-1.122-1.658l0.012-0.015l0.12,0.07l0.196,0.123l-0.489-0.867l-0.003-0.003l-0.53-0.738l-0.012-0.023l-0.021-0.258
	l0.152,0.015l0.601,0.563l0.618,0.885l0.05-0.035l-0.053,0.032l0.354,0.624l-0.026,0.064l-0.018,0.038l0.272,0.29l0.243,0.258
	l-0.202-0.448l0.009-0.006l1.055,1.392l-0.035,0.064l0.053,0.029l0.026-0.056l-0.006-0.003l-0.152-0.073l0.36,0.768l0.012,0.056
	L87.464,28.764l-0.059-0.012L87.464,28.764L87.464,28.764z"/>
<path fill="#3BC7D3" d="M96.458,27.346l0.012-0.064l0.029-0.7l0.006,0.006l0.094-0.062c-0.059-0.627-0.141-1.257-0.305-1.86
	l-0.111,0.018l-0.012,0.188l-0.1-0.352l0.082-0.064L96.13,23.69l-0.135-1.099l-0.281-0.82l-0.205-0.138l-0.129,0.322l-0.006,0.041
	l0.123,0.923l0.029,0.776l-0.1-0.167l-0.105,0.053c0.082,0.589,0.234,1.181,0.193,1.778l-0.012-0.021l-0.111,0.032l0.123,1.245
	l-0.1,0.053l0.463,1.412L96.458,27.346L96.458,27.346z"/>
<path fill="#3BC7D3" d="M96.458,27.346l0.059,0.009l0.012-0.064l0.003-0.003l0.029-0.706h-0.062l-0.041,0.041l0.006,0.006
	l0.032,0.035l0.135-0.088l0.032-0.021L96.66,26.52c-0.059-0.63-0.144-1.263-0.308-1.872l-0.015-0.05l-0.164,0.023l-0.047,0.009
	l-0.015,0.234l0.059,0.006l0.059-0.018l-0.091-0.313l0.053-0.038l0.023-0.018l-0.023-0.797v-0.006l-0.135-1.099l-0.003-0.006
	l-0.281-0.826l-0.009-0.021l-0.22-0.146l-0.064-0.041l-0.152,0.39l-0.006,0.009l-0.006,0.05L95.313,22l0.126,0.926l0.059-0.006
	h-0.059l0.029,0.779l0.059-0.003l0.053-0.029l-0.1-0.17L95.45,23.45l-0.155,0.076l-0.038,0.021l0.006,0.041l0.199,1.564
	l-0.006,0.205l0.059,0.003l0.053-0.032l-0.012-0.021l-0.026-0.041l-0.155,0.05l-0.047,0.015l0.123,1.251l-0.062,0.032l-0.047,0.026
	l0.48,1.459l0.032,0.105l0.65-0.823l0.009-0.012l0.003-0.015L96.458,27.346l-0.047-0.038l-0.51,0.647l-0.413-1.257l0.056-0.029
	l0.035-0.021l-0.123-1.233l0.064-0.021l-0.018-0.056l-0.05,0.029l0.012,0.021l0.097,0.176l0.015-0.202l0.006-0.211l-0.202-1.579
	l-0.059,0.009l0.029,0.053l0.053-0.029l0.073,0.123l0.117,0.208l-0.035-1.02l-0.003-0.009l-0.12-0.911l0.003-0.029l0.1-0.246
	l0.126,0.088l0.272,0.794l0.135,1.093l0.059-0.006h-0.059l0.021,0.735l-0.056,0.044l-0.032,0.026l0.111,0.39l0.091,0.334
	l0.032-0.486l0.064-0.009l-0.009-0.059l-0.056,0.015c0.161,0.598,0.243,1.225,0.302,1.852l0.059-0.006l-0.032-0.053l-0.094,0.062
	l0.032,0.053l0.044-0.044l-0.006-0.006l-0.097-0.094l-0.035,0.835l0.059,0.003l-0.059-0.012l-0.012,0.064L96.458,27.346
	l-0.047-0.038L96.458,27.346L96.458,27.346z"/>
<polygon fill="#3BC7D3" points="105.522,29.763 105.569,29.734 106.026,29.297 106.026,29.306 106.132,29.33 107.063,27.917 
	106.97,27.85 106.847,27.964 106.993,27.668 107.087,27.68 107.544,27.17 108.13,26.365 108.435,25.641 108.37,25.41 
	108.077,25.524 108.048,25.553 107.567,26.236 107.104,26.757 107.14,26.582 107.028,26.541 106.067,27.827 106.073,27.806 
	105.968,27.75 105.288,28.638 105.188,28.606 104.649,29.839 105.522,29.763 "/>
<polygon fill="#3BC7D3" points="105.522,29.763 105.555,29.813 105.602,29.784 105.604,29.781 106.067,29.338 106.026,29.297 
	105.968,29.297 105.968,29.306 105.968,29.353 106.12,29.388 106.158,29.397 107.113,27.95 107.146,27.903 107.005,27.8 
	106.964,27.771 106.806,27.92 106.847,27.964 106.902,27.991 107.028,27.733 107.081,27.739 107.11,27.742 107.588,27.208 
	107.594,27.206 108.18,26.397 108.18,26.397 108.49,25.662 108.499,25.644 108.429,25.392 108.408,25.328 108.057,25.471 
	108.045,25.474 108.01,25.506 108.004,25.512 107.521,26.201 107.567,26.236 107.523,26.195 107.061,26.716 107.104,26.757 
	107.163,26.769 107.198,26.593 107.21,26.541 107.052,26.482 107.008,26.467 106.021,27.789 106.067,27.827 106.126,27.841 
	106.132,27.821 106.144,27.774 105.997,27.698 105.95,27.674 105.268,28.568 105.209,28.547 105.156,28.53 104.597,29.813 
	104.556,29.907 105.528,29.822 105.543,29.819 105.555,29.813 105.522,29.763 105.517,29.702 104.746,29.769 105.221,28.679 
	105.271,28.694 105.309,28.708 105.985,27.827 106.047,27.859 106.073,27.806 106.018,27.789 106.012,27.809 105.918,28.123 
	107.052,26.611 107.072,26.62 107.046,26.746 106.999,26.962 107.614,26.274 108.095,25.591 108.109,25.577 108.332,25.489 
	108.373,25.635 108.08,26.333 107.497,27.135 107.544,27.17 107.5,27.129 107.063,27.616 107.002,27.607 106.958,27.604 
	106.794,27.938 106.647,28.228 106.976,27.926 106.981,27.932 106.105,29.262 106.041,29.248 106.026,29.306 106.088,29.306 
	106.088,29.297 106.088,29.157 105.534,29.684 105.49,29.71 105.522,29.763 105.517,29.702 105.522,29.763 "/>
<path fill="#3BC7D3" d="M113.116,37.67l0.076-0.041l0.756-0.563v0.006l0.123,0.023c0.627-0.565,1.236-1.16,1.775-1.79l-0.094-0.073
	l-0.199,0.146l0.305-0.372l0.123,0.009l0.791-0.656l1.072-1.022l0.697-0.905l0.018-0.275l-0.422,0.164l-0.047,0.032l-0.896,0.87
	l-0.803,0.671l0.111-0.22l-0.117-0.041c-0.568,0.56-1.102,1.172-1.758,1.641l0.012-0.029l-0.105-0.056l-1.23,1.134l-0.117-0.032
	c-0.58,0.419-1.295,0.958-1.207,1.541L113.116,37.67L113.116,37.67z"/>
<path fill="#3BC7D3" d="M113.116,37.67l0.029,0.053l0.076-0.041l0.003-0.003l0.759-0.565l-0.035-0.047h-0.059v0.006v0.053
	l0.173,0.029l0.026,0.003l0.023-0.018c0.627-0.568,1.239-1.163,1.781-1.796l0.041-0.047l-0.144-0.114l-0.038-0.026l-0.234,0.173
	l0.035,0.05l0.047,0.035l0.284-0.346l0.094,0.006h0.023l0.809-0.671l1.075-1.025h0.003l0.7-0.911l0.012-0.015l0.021-0.293
	l0.003-0.094l-0.507,0.199l-0.009,0.003l-0.05,0.035h-0.003l-0.902,0.876l0.041,0.044l-0.038-0.047l-0.803,0.671l0.038,0.047
	l0.053,0.026l0.111-0.22l0.032-0.062l-0.182-0.064l-0.035-0.012l-0.026,0.026c-0.571,0.563-1.102,1.172-1.752,1.635l0.035,0.05
	l0.056,0.023l0.012-0.026l0.021-0.05l-0.152-0.085l-0.038-0.021l-1.236,1.14l-0.085-0.023l-0.029-0.009l-0.023,0.018
	c-0.545,0.398-1.23,0.896-1.239,1.491l0.009,0.111l0.012,0.056l1.192-0.17l0.009-0.003l0.012-0.003L113.116,37.67l-0.009-0.062
	l-1.137,0.161l0.009,0.062l0.059-0.015l-0.006-0.085c-0.009-0.495,0.639-1.002,1.189-1.395l-0.035-0.047l-0.015,0.056l0.117,0.032
	l0.029,0.009l1.225-1.125l0.067,0.035l0.029-0.053l-0.053-0.023l-0.012,0.026l-0.091,0.199l0.179-0.126
	c0.665-0.475,1.198-1.09,1.767-1.646l-0.044-0.041l-0.021,0.056l0.056,0.018l-0.082,0.158l-0.129,0.258l1.022-0.855l0.003-0.003
	l0.894-0.867l0.038-0.023l0.328-0.129l-0.012,0.164l-0.683,0.888l-1.066,1.017l-0.773,0.642l-0.097-0.009h-0.032l-0.325,0.396
	l-0.287,0.354l0.533-0.39l0.059,0.047l0.035-0.047l-0.044-0.041c-0.536,0.627-1.146,1.222-1.77,1.784l0.038,0.047l0.012-0.062
	l-0.123-0.021l-0.012,0.059h0.062v-0.006v-0.12l-0.85,0.63l-0.07,0.041L113.116,37.67l-0.009-0.062L113.116,37.67L113.116,37.67z"/>
</svg>
