<?xml version="1.0" encoding="utf-8"?>
<!-- Generator: Adobe Illustrator 12.0.0, SVG Export Plug-In . SVG Version: 6.00 Build 51448)  -->
<!DOCTYPE svg PUBLIC "-//W3C//DTD SVG 1.1//EN" "http://www.w3.org/Graphics/SVG/1.1/DTD/svg11.dtd" [
	<!ENTITY ns_svg "http://www.w3.org/2000/svg">
	<!ENTITY ns_xlink "http://www.w3.org/1999/xlink">
]>
<svg  version="1.1" id="Layer_1" xmlns="&ns_svg;" xmlns:xlink="&ns_xlink;" width="312" height="337.756"
	 viewBox="0 0 312 337.756" overflow="visible" enable-background="new 0 0 312 337.756" xml:space="preserve">
<path fill="#98CA3E" d="M252.116,322.042H68.563c-23.403,0-42.371-18.974-42.371-42.377V96.116
	c0-23.403,18.968-42.374,42.371-42.374h183.553c23.402,0,42.37,18.971,42.37,42.374v183.55
	C294.486,303.069,275.519,322.042,252.116,322.042L252.116,322.042z"/>
<path fill="#2F3E51" d="M252.273,41.633l-0.006,0.003L252.273,41.633L252.273,41.633z M157.151,49.886
	c2.643,0.081,5.271,0.212,7.872,0.343c7.624,0.379,15.511,0.771,23.286-0.055c4.133-0.439,8.253-0.97,12.38-1.563
	C186.849,48.794,172.665,49.251,157.151,49.886L157.151,49.886z M298.066,107.98c0.029,1.996,0.052,3.969,0.063,5.91
	c2.951-2.878,5.425-6.181,7.38-9.854c1.136-2.133,2.125-4.446,2.945-6.876l0.297-0.908l0.128-0.413l0.093-0.463l0.023-0.104
	l0.233-1.275l0.116-0.692l0.081-0.55v-0.018c0.105-0.867,0.187-1.761,0.257-2.654c0.034-0.829,0.058-1.72,0.058-2.721
	c-0.046-3.763-0.64-7.572-1.758-11.323c-1.17-3.929-2.881-7.703-5.093-11.221c-2.287-3.646-5.08-7.011-8.305-9.999l-0.175-0.163
	l-0.425-0.396l-0.635-0.551l-1.298-1.091l-0.012-0.012l-0.448-0.358l-0.18-0.137l-1.496-1.132l-0.512-0.366l-0.012-0.009
	l-1.427-0.964l-0.698-0.462l-0.728-0.442l-1.483-0.879l-1.071-0.582l-0.431-0.228c-1.799-0.963-3.795-1.848-6.292-2.79l-1.548-0.524
	l-0.361-0.116l-1.367-0.422l-0.018-0.006c-0.564-0.157-1.135-0.314-1.699-0.463l-0.407-0.107l-1.281-0.285l-0.477-0.102
	l-1.223-0.248c-0.57-0.096-1.158-0.191-1.74-0.282l-0.85-0.131l-0.867-0.096l-1.752-0.178l-1.28-0.079l-0.454-0.022l-0.472-0.021
	l-1.239-0.035h-0.466c-1.048,0-2.031,0-3.026,0.073l-0.39,0.022l-1.356,0.091l-2.706,0.306l-0.041,0.009l-1.839,0.337l-5.419,1.019
	l-11.006,2.107c-2.218,0.425-4.424,0.844-6.623,1.257c2.421,0.038,4.807,0.087,7.152,0.146c3.038,0.075,6.076,0.169,9.033,0.282
	l4.517,0.184l4.586,0.227c3.475,0.192,6.914,0.774,10.221,1.731c3.306,0.955,6.501,2.285,9.486,3.958
	c5.861,3.254,10.972,7.918,14.766,13.491c2.212,3.201,4.086,6.291,5.739,9.44l0.116,0.212l0.215,0.419l0.303,0.62l0.617,1.263
	l0.826,1.874l0.187,0.46l0.082,0.207l0.506,1.28l0.244,0.669l0.478,1.374l0.216,0.681l0.384,1.318l0.069,0.23l0.135,0.491
	l0.488,2.072l0.192,1.039l0.058,0.343l0.059,0.332l0.175,1.12l0.052,0.483c0.094,0.766,0.192,1.56,0.222,2.366l0.069,1.426
	l0.023,1.31C298.625,101.345,298.456,104.802,298.066,107.98L298.066,107.98z M295.453,140.168
	c-5.989,5.854-8.66,11.745-8.375,18.362c0.238,5.587,2.572,11.431,5.389,17.554C293.847,165.631,294.9,153.729,295.453,140.168
	L295.453,140.168z M7.103,92.984l-0.169,1.205L6.596,96.75l-0.401,2.704c-5.832,39.748-8.021,79.162,13.834,100.487
	c0.437-1.909,1.356-3.597,2.991-4.964l0.314-0.263h0.407l0.757,0.128c0.949-3.666-0.442-7.123-1.804-10.493
	c-1.723-4.272-3.504-8.689,0.204-12.764c9.702-11.46,7.322-20.551,4.027-33.134c-2.339-8.952-5.255-20.098-4.307-34.881l0.262-4.842
	l0.117-2.416l0.041-0.646l0.128-1.921c0.326-3.416,1.013-6.801,2.055-10.063l0.221-0.708l0.186-0.538l0.646-1.755l0.169-0.407
	l0.082-0.192l0.617-1.446l0.105-0.218l0.873-1.816l0.925-1.723l0.122-0.215l0.157-0.268c1.682-2.888,3.673-5.605,5.919-8.082
	l0.215-0.241l0.157-0.166L37,64.483l0.891-0.838l0.262-0.25l0.681-0.614l0.914-0.786l0.157-0.137l0.349-0.291l1.432-1.123
	l0.681-0.495l0.338-0.241l0.017-0.012l0.344-0.241l0.681-0.475l1.537-0.989l0.384-0.233l0.168-0.099l1.054-0.608l0.838-0.46
	l0.279-0.143l1.106-0.576l0.728-0.34l0.384-0.178l0.646-0.297l0.512-0.224c3.038-1.29,6.216-2.256,9.452-2.873l0.687-0.137
	l0.227-0.04l0.32-0.047l1.816-0.265l0.425-0.044l0.204-0.021l1.222-0.116l0.192-0.021l0.466-0.035l2.415-0.104l1.752-0.041
	c9.935-0.241,19.87-0.585,29.724-0.978c-10.5-1.193-20.464-2.683-29.275-4.098l-2.578-0.416l-1.019-0.116l-1.432-0.154l-0.448-0.035
	l-0.198-0.012l-2.112-0.122l-1.415-0.018l-0.46-0.003l-0.948,0.003c-3.83,0.082-7.666,0.588-11.414,1.502
	c-3.806,0.929-7.543,2.281-11.093,4.027c-3.562,1.752-6.979,3.935-10.156,6.484c-3.195,2.563-6.117,5.485-8.695,8.689
	c-2.578,3.198-4.831,6.748-6.699,10.558c-1.851,3.78-3.3,7.784-4.295,11.905l-0.367,1.557l-0.221,1.138L7.103,92.984L7.103,92.984z
	 M22.037,204.731c0.134,1.583,0.442,3.295,0.815,5.099c0.792-0.966,1.542-1.944,1.443-2.729c-0.064-0.489-0.472-1.013-1.217-1.56
	l-0.017-0.012L22.037,204.731L22.037,204.731z M21.897,248.278c-0.105,0.081-0.361,0.372-0.489,1.036
	c-0.233,1.21,0.087,3.026,1.478,4.981C23.096,250.018,22.235,248.504,21.897,248.278L21.897,248.278z M24.918,249.826
	c0.291,1.56,0.337,3.551,0.134,5.913l0.78-0.396C26.396,254.581,25.698,252.235,24.918,249.826L24.918,249.826z M297.205,262.56
	L297.205,262.56c-0.245-1.862-0.751-3.766-1.275-5.715c-1.332-4.994-2.718-10.156-0.011-15.534
	c11.745-24.579,4.854-42.109-2.294-57.439c-5.558,35.416-14.864,52.701-19.847,61.956c-2.205,4.103-3.666,6.815-3.078,8.159
	c0.779,1.793,5.64,3.056,14.451,5.354C288.428,260.192,292.496,261.256,297.205,262.56L297.205,262.56z M287.869,301.934
	l-0.384,1.344l0.431-0.425l0.349-0.343l0.373-0.367l0.687-0.692l0.018-0.018l1.077-1.141l0.622-0.698l0.396-0.448l0.506-0.576
	l0.291-0.361l0.181-0.227l0.972-1.205l1.356-1.851l1.269-1.909l1.164-1.961l0.227-0.42l0.117-0.227l0.716-1.362l0.203-0.431
	l0.094-0.197l0.657-1.449l0.221-0.524l0.012-0.028c0.78-1.938,1.345-3.679,1.729-5.314l0.303-1.321l0.251-1.164
	c0.151-0.728,0.285-1.426,0.39-2.077c0.232-1.397,0.355-2.607,0.378-3.714c0.076-3.457-0.814-5.674-2.898-6.973
	c-0.14,1.811-0.628,3.62-1.658,5.419c-1.304,2.264-2.387,4.586-3.219,6.896c-0.204,0.56-0.396,1.13-0.57,1.688l-0.116,0.36
	l-0.407,1.264l-0.309,1.013l-0.192,0.6l-0.227,0.762l-0.064,0.239l-0.181,0.553l-0.396,1.361c-0.46,1.566-0.896,3.044-1.298,4.522
	l-1.514,5.698l-0.174,0.692l-0.035,0.134l-0.064,0.256l-0.104,0.355l-0.366,1.385l-0.006,0.029l-0.151,0.535l-0.239,0.873
	l-0.081,0.297l-0.122,0.442L287.869,301.934L287.869,301.934z M22.206,284.322c0.215,3.26,0.867,6.536,1.932,9.731
	c2.136,6.396,5.855,12.176,10.755,16.71c4.913,4.574,10.826,7.856,17.1,9.492c3.108,0.826,6.292,1.269,9.476,1.321l0.227,0.006
	h0.326l2.083-0.053l2.043-0.163l1.56-0.209l-0.117-0.029l-0.675-0.163l-0.763-0.191l-0.041-0.012l-1.706-0.524l-0.483-0.163
	l-1.019-0.378c-2.759-1.042-5.366-2.398-7.752-4.039c-2.252-1.554-4.324-3.376-6.164-5.425c-1.717-1.915-3.213-4.016-4.435-6.233
	c-1.158-2.089-2.078-4.289-2.729-6.542c-0.617-2.095-1.007-4.248-1.158-6.391c-0.14-1.973-0.076-3.963,0.18-5.913
	c0.227-1.746,0.623-3.509,1.176-5.244l0.157-0.518l0.186-0.902l0.378-1.897c0.25-1.269,0.489-2.52,0.71-3.713
	c0.466-2.515,0.873-4.93,1.222-7.182c1.548-10.063,2.002-18.118,1.397-24.608c-1.374-14.597-8.247-22.151-21.604-23.717
	c0.902,4.656,1.461,9.592,0.378,14.358c-1.426,6.239,0.553,12.304,1.997,16.727c1.228,3.749,2.106,6.461,0.803,8.225
	c-0.593,0.803-1.548,1.257-2.898,1.385c-1.03,5.384-1.798,11.07-2.27,16.913c-0.123,1.461-0.221,2.957-0.309,4.447l-0.012,0.268
	l-0.023,0.92l-0.023,1.269l0.012,0.553L22.206,284.322L22.206,284.322z M260.654,331.332l1.385,0.256l0.757,0.023h0.018l0.71-0.07
	l0.041-0.006c0.518-0.075,1.082-0.209,1.664-0.384c2.352-0.774,4.86-2.409,7.258-4.726c2.375-2.288,4.662-5.297,6.624-8.695
	l0.366-0.629l1.042-1.974l0.215-0.441l0.088-0.187l0.797-1.671l0.14-0.331l0.291-0.682l0.646-1.542l-1.205,0.891
	c-1.327,0.972-3.096,2.252-4.953,3.469l-0.634,0.437l-0.623,0.396l-0.745,0.501l-0.523,0.337l-1.199,0.78l-0.472,0.309l-0.191,0.116
	l-0.623,0.396l-0.646,0.425l-0.634,0.396l-0.688,0.442l-0.576,0.372l-0.017,0.012l-1.246,0.791l-0.349,0.233l-0.326,0.203
	l-0.623,0.396l-1.233,0.797l-1.38,0.896l-0.023,0.012l-0.541,0.35l-0.791,0.512l-0.699,0.466l-0.663,0.425
	c-0.547,0.396-1.071,0.733-1.56,0.995l-0.035,0.018l-1.426,0.576l-1.304,0.244h-0.023l-0.378-0.006
	c0.273,0.716,0.576,1.356,0.907,1.915c0.32,0.547,0.664,1.019,1.013,1.396l1.129,0.955L260.654,331.332L260.654,331.332z
	 M182.979,321.437c19.352,0,35.572,5.756,47.254,9.906c8.591,3.05,15.377,5.459,17.885,3.357c1.537-1.292,1.846-4.574,0.943-10.033
	l-0.099-0.495l-0.408,0.472c-1.013,1.176-2.392,2.788-4.277,2.724c-1.199-0.041-2.34-0.763-3.388-2.147
	c-11.576-11.955-27.559-18.334-48.854-19.498c-20.376-1.111-43.665,2.567-65.805,6.711c-6.588,1.229-13.421,2.578-20.033,3.876
	c-5.366,1.06-10.913,2.153-16.424,3.201c-3.475,0.664-6.664,1.264-9.673,1.811c3.73,0.687,7.322,1.298,10.843,1.851
	c29.025,4.552,52.864,4.621,72.871,0.21h0.012C170.488,322.007,176.891,321.437,182.979,321.437L182.979,321.437z M245.307,337.756
	c-3.754,0-9.004-1.862-15.831-4.289c-15.121-5.366-37.965-13.474-65.186-7.881c-11.032,2.434-22.864,3.516-36.169,3.301
	c-11.442-0.181-23.717-1.321-37.534-3.486c-5.326-0.833-10.82-1.811-16.727-2.975c-0.914,0.157-1.822,0.314-2.712,0.466
	l-2.497,0.413c-0.733,0.104-1.49,0.216-2.252,0.309h-0.041l-2.153,0.175l-0.303,0.006l-1.822,0.046l-0.459-0.006l-0.187-0.006
	c-3.37-0.052-6.734-0.518-10.011-1.385c-6.635-1.734-12.88-5.197-18.065-10.022c-5.174-4.796-9.103-10.901-11.361-17.652
	c-1.129-3.388-1.816-6.851-2.042-10.313l-0.006-0.023l-0.082-1.909l-0.012-0.698l0.046-2.24l0.018-0.279
	c0.087-1.514,0.187-3.026,0.309-4.505c0.489-6.013,1.28-11.861,2.351-17.391c-4.057-4.086-3.928-8.229-2.811-10.063
	c0.675-1.105,1.792-1.589,2.84-1.222c0.658,0.232,1.193,0.75,1.606,1.524c-1.432-4.499-2.968-10.278-1.571-16.419
	c1.105-4.842,0.326-10.057-0.687-14.911c-0.675-0.57-1.071-1.204-1.21-1.915c-0.151-0.744,0.012-1.438,0.332-2.101
	c-0.745-3.376-1.408-6.641-1.362-9.557c-10.308-9.342-16.436-22.733-18.694-40.782c-1.997-15.97-1.088-35.352,2.945-62.84
	l0.483-3.257l0.244-1.973l0.181-1.266V92.6l0.367-2.008l0.232-1.211l0.006-0.021l0.373-1.577c1.036-4.286,2.538-8.447,4.464-12.373
	c1.938-3.961,4.284-7.654,6.966-10.983c2.678-3.326,5.722-6.367,9.039-9.032c3.312-2.654,6.868-4.924,10.575-6.749
	c3.702-1.818,7.589-3.229,11.553-4.196c3.905-0.951,7.91-1.479,11.896-1.563l1.024-0.003l0.448,0.003l1.507,0.018l2.153,0.125
	l0.187,0.012l0.588,0.047l2.514,0.279l2.602,0.419c13.264,2.13,29.153,4.429,45.508,5.622c4.458-0.198,8.882-0.398,13.276-0.6
	c4.662-0.209,9.318-0.422,13.962-0.629c26.531-1.172,48.851-1.949,71.195-1.917c6.047-1.057,12.117-2.203,18.246-3.376l11.012-2.106
	l7.293-1.365l0.14-0.023l0.989-0.116l1.804-0.198l1.421-0.093l0.366-0.023c1.071-0.078,2.142-0.078,3.178-0.078h0.448l1.374,0.037
	l0.459,0.021h0.018l0.454,0.023l1.356,0.084h0.023l1.774,0.184l0.943,0.104l0.879,0.135c0.594,0.093,1.193,0.188,1.78,0.288
	l1.315,0.268l0.478,0.102l1.362,0.303l0.425,0.113c0.576,0.151,1.152,0.312,1.723,0.469l1.496,0.46l0.366,0.119l1.595,0.541
	l0.023,0.009c2.596,0.978,4.686,1.906,6.571,2.916l0.419,0.218l1.158,0.629l1.513,0.902l0.786,0.478l0.722,0.477l1.443,0.979
	l0.605,0.434l1.699,1.283l0.541,0.434l1.31,1.108l0.67,0.576l0.471,0.434l0.169,0.157c3.364,3.123,6.286,6.638,8.672,10.45
	c2.322,3.692,4.121,7.656,5.349,11.78c1.176,3.951,1.799,7.971,1.852,11.942v0.012v0.009c0,1.045-0.023,1.974-0.064,2.841v0.037
	c-0.069,0.926-0.157,1.854-0.262,2.75l-0.099,0.682l-0.117,0.71l-0.25,1.33l-0.018,0.104l-0.116,0.556l-0.023,0.093l-0.146,0.469
	l-0.314,0.952c-0.855,2.546-1.897,4.973-3.09,7.217c-2.398,4.508-5.547,8.5-9.354,11.858c0.006,3.486-0.018,6.879-0.069,10.186
	c1.507,3.393,3.125,7.217-0.279,10.866c-0.588,16.109-1.869,29.944-3.574,41.841l0.094,0.192c3.707,7.856,7.909,16.762,9.492,26.93
	c1.828,11.698-0.087,23.251-5.86,35.322l-0.006,0.023c-2.328,4.609-1.118,9.144,0.168,13.939c0.623,2.322,1.252,4.679,1.443,7.054
	c3.586,1.565,5.279,4.72,5.175,9.563c-0.029,1.217-0.163,2.532-0.407,4.033c-0.111,0.687-0.251,1.42-0.414,2.183l-0.25,1.17
	l-0.309,1.362c-0.413,1.74-1.013,3.579-1.827,5.622l-0.273,0.651l-0.67,1.473l-0.087,0.187l-0.273,0.559l-0.704,1.351l-0.116,0.227
	l-0.263,0.483l-0.012,0.018l-0.39,0.669l-0.826,1.38l-1.327,1.996l-1.426,1.938l-0.983,1.229l-0.181,0.221l-0.332,0.408
	l-0.012,0.018l-0.523,0.593l-0.379,0.437l-0.681,0.757l-1.076,1.141l-0.78,0.792l-0.355,0.349l-0.012,0.012l-0.331,0.326
	l-0.821,0.78l-1.158,1.07l-1.175,1.007l-0.233,0.198l-0.058,0.175l-0.006,0.018l-0.501,1.408l-0.221,0.594l-0.332,0.85
	c-0.273,0.745-0.582,1.461-0.885,2.159l-0.285,0.67l-0.169,0.39l-0.891,1.88l-0.273,0.547l-1.065,2.02l-0.372,0.641
	c-2.061,3.579-4.487,6.757-7.008,9.189c-2.647,2.556-5.459,4.371-8.136,5.25l-0.023,0.012c-0.693,0.21-1.368,0.361-2.02,0.46
	l-0.053,0.006l-0.989,0.093l-0.972-0.029c-0.664-0.052-1.298-0.168-1.897-0.354l-0.023-0.012c-0.605-0.204-1.199-0.489-1.764-0.855
	c-0.553-0.367-1.071-0.804-1.548-1.31c-0.46-0.501-0.902-1.101-1.304-1.787c-0.385-0.646-0.722-1.351-1.03-2.136l-0.094,0.035
	l-1.257-0.425c-0.151-0.187-0.437-0.548-0.442-2.375c-0.012-1.781,0.256-2.206,0.367-2.387l0.57-0.494l0.535-0.611l0.617-0.332
	l0.582,0.413c0.46,0.332,0.616,0.763,0.431,2.282c0.151,0.547,0.46,0.628,0.6,0.669l0.471,0.047l0.739-0.146l1.06-0.431l1.315-0.844
	l0.058-0.041l0.78-0.501l0.564-0.378l0.838-0.547l0.513-0.326l1.432-0.932l1.193-0.773l0.018-0.012l0.669-0.419l0.309-0.192
	l0.303-0.204l1.315-0.832l0.535-0.349l0.733-0.472l0.623-0.39l0.628-0.414l0.629-0.401l0.221-0.14l0.367-0.232l0.023-0.018
	l1.28-0.826l0.018-0.018l0.425-0.273l0.146-0.1l0.646-0.431l0.611-0.39l0.617-0.425c1.821-1.193,3.562-2.45,4.877-3.411
	c1.246-0.901,2.538-1.914,4.028-3.154c0.471-1.414,1.023-3.125,1.507-4.865l0.006-0.023l0.21-0.704l0.099-0.379l0.087-0.319
	l0.251-0.902l0.146-0.501l0.378-1.443l0.104-0.354l0.041-0.163l0.035-0.163l0.186-0.722l1.52-5.704
	c0.407-1.501,0.844-2.991,1.304-4.568l0.401-1.374l0.012-0.029l0.228-0.728l0.238-0.809l0.204-0.641l0.285-0.925l0.006-0.018
	l0.431-1.345l0.104-0.331c0.187-0.588,0.384-1.182,0.6-1.77c0.879-2.438,2.014-4.884,3.381-7.264
	c0.984-1.699,1.368-3.439,1.397-5.221l-0.652-0.163l-0.063-0.018c-4.709-1.304-8.777-2.363-12.054-3.219
	c-10.418-2.712-14.731-3.841-15.947-6.635c-1.03-2.352,0.46-5.116,3.16-10.133c5.069-9.423,14.679-27.268,20.103-64.557
	c-7.152-15.168-12.973-28.386,3.679-43.227c0.104-3.044,0.181-6.158,0.238-9.365c-1.56-3.509-3.184-7.455,0.07-11.588
	c-0.006-2.642-0.035-5.334-0.076-8.081l-0.006-0.078l0.012-0.079c0.385-3.099,0.554-6.48,0.501-10.339l-0.023-1.284l-0.07-1.394
	c-0.022-0.716-0.11-1.429-0.203-2.186l-0.059-0.497v-0.021l-0.151-0.958l-0.058-0.34l-0.059-0.338l-0.181-0.983l-0.471-1.999
	l-0.105-0.376l-0.075-0.25l-0.384-1.336l-0.181-0.541l-0.478-1.389l-0.192-0.535l-0.012-0.021l-0.5-1.28l-0.099-0.238l-0.134-0.341
	l-0.833-1.871l-0.891-1.827l-0.168-0.332l-0.134-0.238c-1.606-3.067-3.44-6.083-5.594-9.214c-3.608-5.284-8.451-9.708-14.003-12.793
	c-2.847-1.592-5.879-2.854-9.021-3.763c-3.143-0.91-6.42-1.464-9.726-1.644l-1.176-0.067l-3.375-0.16l-4.505-0.183
	c-2.945-0.111-5.972-0.207-9.004-0.283c-5.785-0.143-11.839-0.224-17.996-0.238l-0.955-0.003
	c-9.003,1.568-17.961,2.939-26.947,3.896c-7.956,0.847-15.93,0.448-23.641,0.064c-7.389-0.367-14.373-0.716-21.339-0.062
	l-0.082,0.003c-8.794,0.207-17.792-0.11-26.645-0.754c-15.202,0.673-30.707,1.304-46.235,1.677l-2.317,0.061l-1.81,0.085
	l-0.326,0.026l-0.227,0.022l-1.199,0.114l-0.215,0.021l-0.338,0.034l-2.072,0.303l-0.146,0.026l-0.704,0.137
	c-3.085,0.591-6.117,1.514-9.01,2.741l-0.041,0.015l-0.39,0.172l-0.64,0.297l-0.396,0.184l-0.669,0.311l-1.059,0.554l-0.291,0.151
	l-0.71,0.387l-0.023,0.012l-1.047,0.608l-0.192,0.11l-0.279,0.169l-1.537,0.986l-0.593,0.416l-0.355,0.253l-0.361,0.254
	l-0.593,0.434l-1.426,1.117l-0.256,0.215l-0.181,0.154l-0.931,0.801l-0.564,0.515l-0.285,0.265l-0.861,0.813l-1.333,1.376
	l-0.104,0.111l-0.204,0.232c-2.147,2.363-4.051,4.959-5.651,7.715l-0.168,0.276l-0.064,0.122l-0.064,0.11l-0.862,1.601l-0.838,1.752
	l-0.064,0.137l-0.605,1.42l-0.087,0.207l-0.134,0.326l-0.658,1.763l-0.134,0.399l-0.227,0.713c-0.983,3.104-1.641,6.326-1.95,9.577
	l-0.134,1.88L25.25,96.41l-0.117,2.436l-0.262,4.859c-0.925,14.435,1.816,24.922,4.237,34.171
	c1.706,6.513,3.178,12.129,2.945,17.751c-0.256,6.204-2.625,11.739-7.45,17.438l-0.023,0.029c-2.637,2.881-1.636,5.831,0.209,10.406
	c1.92,4.761,4.097,10.156-0.122,16.174l-0.14,0.198l-0.204,0.122c-0.302,0.181-1.21,0.722-1.915,0.023l-0.047-0.047
	c-0.168,0.57-0.279,1.17-0.337,1.805c0.768,0.669,1.571,1.321,2.392,1.949c1.28,0.938,1.973,1.95,2.119,3.091
	c0.227,1.815-1.024,3.341-2.13,4.686l-0.931,1.187l0.023,0.105c0.163,0.722,0.326,1.461,0.483,2.205l0.105,0.064
	c7.77,0.791,13.52,3.404,17.577,7.991c3.754,4.248,5.931,10.08,6.658,17.827c0.628,6.676,0.163,14.911-1.414,25.16
	c-0.35,2.275-0.763,4.715-1.228,7.246c-0.227,1.205-0.466,2.462-0.722,3.748l-0.6,2.963l-0.181,0.582
	c-0.512,1.624-0.879,3.253-1.094,4.871c-0.232,1.799-0.291,3.638-0.163,5.454c0.14,1.984,0.5,3.975,1.071,5.925
	c0.611,2.089,1.467,4.132,2.538,6.076c1.146,2.071,2.538,4.033,4.144,5.82c1.717,1.914,3.655,3.62,5.762,5.069
	c2.235,1.536,4.68,2.811,7.264,3.789l1.042,0.384l0.326,0.11l1.688,0.519l0.698,0.174l0.349,0.088l0.332,0.081l0.739,0.175
	l1.141,0.238l2.311,0.466l1.56,0.314c4.686-0.814,9.685-1.734,15.47-2.84c5.5-1.048,11.046-2.143,16.407-3.195
	c6.618-1.304,13.457-2.654,20.057-3.889c22.273-4.167,45.726-7.868,66.347-6.739c10.598,0.576,19.678,2.357,27.762,5.436
	c8.76,3.341,16.372,8.317,22.641,14.795l0.046,0.053l0.047,0.059c0.431,0.582,1.077,1.28,1.693,1.298
	c0.804,0.028,1.775-1.106,2.485-1.933c0.873-1.013,1.694-1.973,2.829-1.653c1.064,0.297,1.408,1.508,1.618,2.776
	c1.076,6.489,0.547,10.232-1.718,12.129C248.461,337.355,247.041,337.756,245.307,337.756L245.307,337.756z"/>
<path fill="#2F3E51" d="M141.711,51.938c0,25.178-20.411,45.592-45.589,45.592c-25.178,0-45.595-20.414-45.595-45.592
	c0-25.181,20.417-45.593,45.595-45.593C121.3,6.345,141.711,26.757,141.711,51.938L141.711,51.938z"/>
<path fill="#98CA3E" d="M95.639,1.611c0.978,0,1.956,0.032,2.934,0.096c2.933,0.189,5.867,0.675,8.707,1.44
	c1.426,0.37,2.771,0.835,3.9,1.24l1.833,0.722l0.786,0.358l1.321-0.168l1.519-0.055l0.792,0.008l0.087,0.003l0.733,0.044
	l0.064,0.006c-1.822-1.03-3.777-1.9-5.849-2.596c-2.788-0.94-5.768-1.557-8.858-1.83c-2.986-0.271-6.1-0.221-9.26,0.146
	c-2.479,0.285-4.994,0.768-7.497,1.44c0.728-0.134,1.461-0.256,2.2-0.367C91.221,1.773,93.427,1.611,95.639,1.611L95.639,1.611z
	 M113.705,6.197l-1.112,0.224l-1.094,0.329l-0.919,0.358l-0.728,0.373c-0.634,0.39-0.891,0.71-0.925,0.878l0.023,0.096l0.774,0.34
	l0.867,0.146l0.564,0.05l0.349,0.029l0.314,0.026c0.471,0.038,0.989,0.064,1.595,0.082l0.076,0.003
	c0.564,0.035,1.21,0.076,1.92,0.104l0.855,0.053l0.314,0.023l1.734,0.128l0.949,0.102l0.524,0.055l0.093,0.009l-0.92-0.596
	l-0.529-0.329l-1.624-0.946l-1.967-1.019L113.705,6.197L113.705,6.197z M127.673,15.16l0.925,0.378
	c-1.833-3.46-4.703-6.588-8.329-9.027l-0.465-0.306L119.763,6.2l-1.583-0.201l-0.681-0.038l-0.093-0.003l-0.763-0.012l-1.455,0.052
	l-0.174,0.021l0.14,0.064l2.002,1.036l1.63,0.951l0.57,0.35l1.665,1.094l0.407,0.293l1.368,0.745l0.402,0.393l0.349,0.416l0.11,0.14
	l0.501,0.402l0.174,0.146l0.337,0.279l1.566,1.408l1.403,1.391L127.673,15.16L127.673,15.16z M129.681,16.126l0.844,0.582
	l0.07-1.077c-0.029-0.914-0.239-1.845-0.629-2.759l-0.716-1.257l-0.442-0.611l-0.448-0.512l-0.047-0.049l-1.135-1.068l-1.304-0.919
	l-0.693-0.419l-0.559-0.288l-0.168-0.082l-1.52-0.649l-1.286-0.399C125.211,9.235,127.987,12.526,129.681,16.126L129.681,16.126z
	 M128.877,16.47l0.303,0.337l0.07,0.076l-0.116-0.265L128.877,16.47L128.877,16.47z M130.216,17.363l0.116,0.297l0.047-0.169
	L130.216,17.363L130.216,17.363z M130.74,18.693c1.577,1.912,3.009,3.963,4.266,6.097l0.046,0.076l-0.39-1.08
	c-0.268-0.646-0.53-1.243-0.803-1.807c-0.314-0.588-0.646-1.156-0.984-1.688c-0.57-0.864-1.21-1.63-1.909-2.282L130.74,18.693
	L130.74,18.693z M51.859,30.29l-0.599,1.426l-0.105,0.25l-0.146,0.341l0.046-0.035l1.094-0.966l0.489-0.521l0.238-0.276l0.239-0.276
	l0.867-1.149l0.204-0.308l0.215-0.317l0.402-0.625l0.238-0.413c0.425-0.745,0.873-1.514,1.269-2.331l0.006-0.018l0.768-1.464
	l0.192-0.381l0.128-0.247l0.076-0.14l0.82-1.548l0.274-0.48l0.174-0.306l0.687-1.205l0.25-0.387l0.262-0.413l0.756-1.161
	l0.303-0.428l-0.018,0.021l-0.186,0.187l-0.343,0.358l-1.321,1.455l-0.151,0.177l-0.093,0.114l-0.989,1.202l-0.093,0.11
	l-0.151,0.184l-1.164,1.56l-0.32,0.451l-0.117,0.178l-0.873,1.289l-0.262,0.41l-0.146,0.242l-0.809,1.327l-0.483,0.884l-0.256,0.469
	L52.866,28.2L51.859,30.29L51.859,30.29z M50.894,32.618l-0.192,0.529l-0.186,0.501l-0.198,0.55l0.041-0.026l0.058-0.038
	l0.792-0.753l-0.221-0.632L50.894,32.618L50.894,32.618z M137.329,31.067l0.116,0.596c0.233,1.205,0.46,2.343,0.722,3.458
	c0.14,0.637,0.291,1.213,0.472,1.771c0.163,0.557,0.343,1.144,0.576,1.715l0.361,0.847l0.384,0.814l0.046,0.09
	c-0.489-2.775-1.246-5.525-2.264-8.235L137.329,31.067L137.329,31.067z M136.735,49.097l-0.367,0.047l-0.989,0.911l-0.123,0.407
	l-0.087,0.497l0.087,1.199l0.041,0.187l0.128,0.544l0.262,0.795l0.384,0.884l0.478,0.979l0.605,1.064l0.349,0.582l0.367,0.594
	c0.408,0.649,0.891,1.354,1.409,2.099l0.116,0.172l0.047-0.154c0.134-0.591,0.25-1.179,0.355-1.758l0.064-0.416l0.035-0.269
	l0.012-0.128l0.064-0.782l0.035-0.745v-0.681l-0.111-1.293c-0.087-0.838-0.308-1.539-0.495-2.06l-0.332-0.789l-0.39-0.631
	l-0.826-0.854L136.735,49.097L136.735,49.097z M134.663,62.571l0.011,0.053c0.053,0.146,0.25,0.48,1.036,1.117
	c0.454,0.364,1.019,0.763,1.647,1.167l0.28-0.687l0.14-0.344l0.11-0.276l-0.273-0.681l0.221-0.413
	C135.1,62.213,134.715,62.499,134.663,62.571L134.663,62.571z M138.074,65.353c1.565,0.937,2.747,1.432,3.207,1.476l-0.238-0.367
	l-0.972-1.033c-0.39-0.363-0.873-0.771-1.443-1.216L138.074,65.353L138.074,65.353z M135.361,70.245l-0.023,0.035
	c-0.634,1.001-1.304,1.99-1.996,2.96l0.14-0.14l0.483-0.568l0.233-0.291l0.204-0.308l0.769-1.307L135.361,70.245L135.361,70.245z
	 M51.412,66.712l0.809,1.769l0.059,0.126l0.104,0.212l0.908,1.734l0.296,0.529l0.478,0.81c0.384,0.681,0.826,1.339,1.251,1.976
	l0.431,0.649l0.611,0.838l0.309,0.413l0.466,0.629l0.32,0.39l0.146,0.178c-0.57-0.885-1.117-1.805-1.641-2.753
	c-1.496-2.846-2.619-5.835-3.341-8.891c-0.361-1.481-0.57-2.896-0.71-3.957l-0.181-1.834l-0.058-1.283l-0.018-0.46l-0.006-1.391
	l0.035-1.403l0.018-0.265l0.011-0.125l0.053-0.687c0.052-0.736,0.104-1.435,0.209-2.107l0.157-1.254l0.192-1.164l0.169-1.079
	l0.006-0.018l0.192-1.007l0.151-0.935l0.064-0.39l0.093-0.501l0.104-0.806l0.041-0.379l0.035-0.407
	c0.093-0.853,0.052-1.714-0.116-2.622l-0.39-1.146l-0.041-0.096l-0.245-0.478l-0.343-0.567l-0.931-1.164l-0.594-0.614l-0.658-0.628
	l-0.012-0.009l-0.204-0.228l-0.006,0.023l-0.14,0.469l-0.192,0.751l-0.128,0.512l-0.244,0.989l-0.303,1.514l-0.052,0.268
	l-0.093,0.483l-0.337,2.293l-0.215,2.313l-0.023,0.495l-0.076,1.815v1.013l0.006,0.526l0.006,0.332l0.041,1.196l0.099,1.56
	l0.07,0.757l0.227,1.927l0.39,2.287l0.512,2.272l0.058,0.233l0.565,1.999l0.745,2.203L51.412,66.712L51.412,66.712z M70.374,88.465
	c1.67,1.038,3.411,1.946,5.209,2.718c0.739,0.34,1.513,0.625,2.258,0.899l0.681,0.253l1.007,0.32l0.483,0.151l0.75,0.229
	l0.478,0.125l0.268,0.067l0.151,0.04l-1.333-0.562l-1.216-0.541l-0.64-0.276l-0.448-0.195l-0.937-0.378l-0.803-0.312
	c-0.919-0.358-1.461-0.492-1.466-0.492l-0.041-0.012l-0.198-0.075l-1.997-0.861L72.09,89.33l-0.233-0.12L70.374,88.465
	L70.374,88.465z M94.009,95.458l-1.176-0.003l-0.838-0.026c-0.663-0.04-1.327-0.09-1.979-0.143h-0.012l-0.285-0.034l-0.664-0.053
	l-0.489-0.041l-1.06-0.093l-1.548-0.21l-0.262-0.034l-0.518-0.076l-0.774-0.148l-0.454-0.087l-1.088-0.216l-1.53-0.381l-0.262-0.064
	l-0.512-0.137l-0.756-0.232l-0.478-0.148l-1.042-0.332l-0.687-0.253c-0.756-0.279-1.542-0.567-2.299-0.92
	c-3.958-1.693-7.653-4.054-10.971-7.004l-1.216-1.136l-0.53-0.532l-0.238-0.247L61.83,82.45l-0.431-0.378l-0.39-0.373l-0.186-0.181
	l-1.124-1.108l-0.367-0.387l-0.18-0.198l-1.077-1.176l-1.001-1.21l-0.168-0.204l-0.332-0.41l-0.477-0.638l-0.303-0.41l-0.628-0.864
	l-0.437-0.652c-0.431-0.648-0.879-1.317-1.275-2.017l-0.471-0.8l-0.32-0.57l-0.908-1.729l-0.117-0.244l-0.058-0.123l-0.821-1.795
	l-0.873-2.2l-0.757-2.238l-0.564-2.008l-0.07-0.256l-0.518-2.311l-0.396-2.322l-0.227-1.938l-0.076-0.797l-0.099-1.549l-0.041-1.242
	l-0.005-0.329l-0.006-0.526v-1.042l0.076-1.824l0.023-0.519l0.221-2.354l0.338-2.309l0.099-0.515l0.052-0.265l0.309-1.525
	l0.25-1.016l0.128-0.509l0.192-0.757l0.151-0.503l0.076-0.257l0.46-1.486l0.355-0.984l0.18-0.497l0.268-0.73l0.198-0.486
	l0.105-0.247l0.617-1.449l1.019-2.122l0.373-0.684l0.25-0.466l0.501-0.905l0.814-1.345l0.14-0.233l0.285-0.445l0.873-1.29
	l0.117-0.171l0.343-0.486l0.006-0.012l1.158-1.548l0.169-0.207l1.083-1.315l0.087-0.105l0.175-0.207l1.315-1.449l0.378-0.39
	l0.18-0.181l1.106-1.115l0.39-0.358l0.198-0.183l1.176-1.071l1.21-1.007l0.215-0.178l0.413-0.332l1.31-0.993l0.6-0.434l1.304-0.89
	l0.11-0.079l0.227-0.151l1.013-0.626c1.636-1.077,3.341-1.956,4.639-2.599l0.797-0.361l0.408-0.183l0.599-0.265l0.187-0.084
	l0.437-0.181l0.559-0.215c2.532-1.144,5.075-2.104,7.578-2.863c3.097-0.937,6.228-1.592,9.301-1.947
	c3.207-0.37,6.373-0.422,9.405-0.148c3.143,0.283,6.175,0.908,9.021,1.866c2.654,0.89,5.127,2.066,7.374,3.495l0.652,0.122
	l0.821,0.201c0.529,0.143,1.094,0.303,1.641,0.5c0.547,0.209,1.071,0.437,1.577,0.672l0.169,0.082l0.611,0.314l0.722,0.437
	l1.374,0.972l1.193,1.126l0.052,0.05l0.489,0.564l0.465,0.649l0.774,1.362c0.431,1.007,0.663,2.022,0.692,3.035
	c0.006,0.539-0.041,1.074-0.146,1.606c0.85,0.748,1.63,1.644,2.316,2.68c0.349,0.553,0.693,1.138,1.019,1.746l0.006,0.015
	c0.273,0.579,0.547,1.187,0.827,1.859c0.5,1.324,0.914,2.643,1.222,3.929l0.076,0.312l0.244,0.486l0.809,1.79l0.169,0.401
	l0.559,1.426c1.246,3.317,2.107,6.702,2.578,10.109l0.536,1.042l0.198,0.556l0.117,0.516c0.11,0.6,0.134,1.192,0.064,1.764
	l-0.337,1.158l-0.233,0.434l-0.623,0.898l-0.017-1.094c-0.029-1.677-0.157-3.355-0.384-5.025l-0.355-0.579l-0.128-0.207
	l-0.483-0.847l-0.407-0.864l-0.361-0.853c-0.25-0.605-0.437-1.214-0.6-1.778c-0.18-0.57-0.343-1.17-0.483-1.821
	c-0.268-1.124-0.489-2.268-0.728-3.479c-0.245-1.239-0.495-2.514-0.797-3.786l-0.297-0.579l-0.314-0.605l-0.076-0.154l-0.14-0.262
	l-0.728-1.269c-1.17-1.988-2.502-3.902-3.958-5.701l-0.14,0.352l-0.274-0.861l-0.093-0.105l-0.96-1.185l-0.314-0.361l-1.321-1.452
	l-0.053-0.058l-0.151-0.046l-1.193-0.544l-0.914-0.745l-0.757-0.885l-0.32-0.448l-0.32-0.448l-0.041-0.061L123.15,12l-0.762-0.614
	l-1.263-0.925l-0.39-0.05l-0.029-0.003l-0.995-0.11l-0.524-0.056l-1.053-0.113l-1.601-0.113l-0.32-0.023l-0.826-0.052
	c-0.722-0.029-1.374-0.067-1.944-0.105l-0.064-0.003c-0.605-0.018-1.135-0.043-1.612-0.082l-0.332-0.029l-0.32-0.026l-0.605-0.052
	l-0.96-0.166c-0.646-0.172-0.978-0.346-1.17-0.603l-0.146-0.646c0.082-0.437,0.5-0.89,1.246-1.347l0.809-0.419l0.983-0.381
	l1.141-0.343l0.168-0.041l-1.653-0.649c-1.1-0.396-2.433-0.853-3.83-1.219c-2.799-0.754-5.687-1.231-8.573-1.417
	c-3.137-0.204-6.292-0.076-9.37,0.384c-3.428,0.509-6.682,1.287-9.673,2.313l-0.227,0.076l-0.367,0.128L77.66,5.784l-1.298,0.603
	c-2.753,1.318-5.57,2.896-8.375,4.685c-2.002,1.246-3.882,2.977-5.593,5.151c-0.343,0.46-0.71,0.958-1.112,1.516l-0.739,1.138
	l-0.262,0.417l-0.245,0.378l-0.669,1.179l-0.181,0.312l-0.262,0.462L58.518,22.4l-0.413,0.768l-0.076,0.148l-0.122,0.218
	l-0.187,0.384c-0.273,0.541-0.523,1.024-0.78,1.481c-0.407,0.838-0.855,1.618-1.292,2.369l-0.239,0.419l-0.419,0.664l-0.419,0.62
	l-0.914,1.216l-0.25,0.288l-0.233,0.271l-0.524,0.556l-0.914,0.827l0.163,0.888c-0.111,0.564-0.617,0.89-1.1,1.207l-0.052,0.035
	l-0.722,0.722l0.314,0.559l0.675,0.646l0.611,0.634l0.995,1.246l0.384,0.623l0.256,0.518l0.046,0.096l0.437,1.304
	c0.192,0.989,0.233,1.918,0.134,2.847l-0.041,0.381l-0.035,0.404l-0.116,0.841L53.6,46.094l-0.064,0.354l-0.157,0.964l-0.192,1.013
	l-0.169,1.082l-0.192,1.158l-0.157,1.24c-0.099,0.657-0.151,1.341-0.204,2.065l-0.052,0.685l-0.012,0.131l-0.018,0.227l-0.029,1.4
	v1.338l0.018,0.469l0.058,1.255l0.175,1.807c0.14,1.036,0.343,2.424,0.698,3.873c0.705,3.001,1.81,5.934,3.277,8.722
	c1.106,2.025,2.352,3.917,3.696,5.616l0.25,0.317l0.814,0.961l0.175,0.203l0.367,0.422l0.949,1.001l1.414,1.176l0.92,0.73
	l1.595,1.141l0.477,0.323l0.169,0.104l1.327,0.848l0.425,0.25l0.244,0.137l1.362,0.771l1.403,0.701l0.239,0.119l0.459,0.221
	l1.979,0.855L75,89.833c0.116,0.029,0.664,0.175,1.537,0.518l0.384,0.151l0.414,0.154l0.96,0.391l0.466,0.2l0.611,0.265l1.251,0.557
	c2.334,1.047,4.866,1.804,7.514,2.249c0.529,0.079,1.094,0.16,1.659,0.232l0.087,0.006l0.483,0.021l0.273,0.009l1.537,0.041
	l0.495-0.003l0.262-0.006l0.763-0.021c0.809-0.003,1.635-0.069,2.427-0.134l0.611-0.047l0.373-0.031l2.008-0.26l0.605-0.093
	c3.288-0.556,6.425-1.411,9.365-2.546c0.553-0.233,1.094-0.475,1.641-0.728c2.055-0.949,4.167-2.14,6.46-3.638
	c1.984-1.307,3.946-2.75,5.826-4.29c2.008-1.664,4.028-3.46,6.169-5.494c0.582-0.657,1.146-1.321,1.694-1.987
	c1.379-1.743,2.683-3.576,3.865-5.444c0.797-1.284,1.56-2.634,2.281-4.034l0.07-0.209l0.023-0.073
	c-0.705-0.448-1.339-0.893-1.845-1.301c-0.728-0.585-1.129-1.044-1.263-1.44l0.11-0.725c0.32-0.384,1.112-0.675,4.703-0.206
	l0.041-0.128l0.279-0.867l-0.018-0.015l-0.018-0.029l-0.407-0.591c-0.518-0.754-1.013-1.464-1.426-2.124l-0.373-0.608l-0.349-0.576
	l-0.623-1.104l-0.495-1.013l-0.401-0.925l-0.286-0.861l-0.14-0.579l-0.041-0.189l-0.093-1.405l0.099-0.591l0.163-0.53
	c0.285-0.675,0.803-1.144,1.455-1.317c0.669-0.181,1.408-0.015,2.072,0.465l0.989,1.013l0.448,0.73l0.367,0.864
	c0.187,0.516,0.437,1.301,0.53,2.218l0.116,1.33v0.748l-0.035,0.765l-0.07,0.81l-0.012,0.122l-0.035,0.312l-0.07,0.425
	c-0.104,0.594-0.227,1.199-0.361,1.801l-0.006,0.018l-0.192,0.664l0.163,1.188l-0.757,0.61l-0.198,0.489l-0.215,0.512
	c0.646,0.504,1.193,0.961,1.624,1.368l1.054,1.12l0.39,1.127l-0.431,0.354c-0.797,0.172-2.758-0.908-3.806-1.53l-0.082,0.157
	l-0.012,0.04l-0.151,0.448l-0.506,1.432l-0.483,1.264l-0.076,0.194l-0.309,0.719l-0.349,0.725l-0.797,1.354l-0.215,0.332
	l-0.012,0.012l-0.244,0.313l-0.524,0.608c-1.501,1.531-2.928,2.937-4.301,4.243c-0.85,0.954-1.74,1.895-2.654,2.812l-0.745,0.698
	c-0.518,0.494-1.059,1.007-1.624,1.478l-0.896,0.783l-1.531,1.229c-3.451,2.647-7.037,4.79-10.657,6.379
	c-0.733,0.328-1.479,0.643-2.241,0.937c-1.845,0.777-3.708,1.426-5.564,1.936l-0.291,0.075c-0.524,0.134-1.065,0.271-1.606,0.402
	l-0.012,0.002l-1.92,0.37l-0.838,0.131l-1.618,0.207l-0.512,0.052l-1.967,0.125l-0.518,0.018H94.009L94.009,95.458z"/>
<path fill="#98CA3E" d="M99.608,31.552l-0.681-0.739c-0.675-0.616-1.403-1.19-2.171-1.708c-0.769-0.512-1.583-0.969-2.427-1.359
	c-0.844-0.39-1.717-0.713-2.613-0.963c-0.896-0.247-1.81-0.419-2.724-0.518l0.076-0.006l0.006-0.145l-0.972-0.128
	c-1.263-0.02-2.526,0.102-3.76,0.367c-1.24,0.262-2.438,0.678-3.574,1.216c-2.275,1.071-4.26,2.689-5.803,4.625
	c-1.524,1.946-2.602,4.22-3.09,6.585c-0.5,2.366-0.448,4.796,0.105,7.058l0.32,0.675l0.018-0.306l-0.116-0.698
	c-0.204-1.013-0.262-1.927-0.245-2.82c0.122,1.7,0.471,3.449,1.135,5.151l-0.076,0.157l0.262,0.823
	c0.733,1.77,1.839,3.408,3.207,4.775c1.368,1.371,2.992,2.471,4.732,3.233c1.275,0.567,2.631,0.934,3.999,1.138
	c0.687,0.084,1.379,0.151,2.066,0.146l1.036-0.029l0.512-0.044l0.512-0.055c2.724-0.35,5.308-1.467,7.403-3.132
	c0.809-0.646,1.571-1.394,2.241-2.217c0.675-0.821,1.251-1.717,1.711-2.64c0.466-0.92,0.809-1.868,1.03-2.785
	s0.326-1.804,0.343-2.607l-0.023-0.725l-0.076-0.605l-0.25-0.625l-0.209,0.349l-0.082,0.463l-0.087,0.594l-0.11,0.684l-0.134,0.725
	l-0.169,0.73l-0.186,0.687l-0.198,0.539c-0.326,0.972-0.762,1.906-1.298,2.782c-0.535,0.875-1.164,1.696-1.892,2.436
	c-0.722,0.739-1.53,1.402-2.415,1.97c-0.879,0.567-1.839,1.027-2.846,1.383c-1.665,0.579-3.445,0.835-5.227,0.756
	c-1.775-0.084-3.539-0.512-5.151-1.254l0.536,0.166l0.547,0.151l0.565,0.131l0.587,0.116l0.442,0.035l-0.041-0.099l-0.157-0.079
	l-0.233-0.096l-0.611-0.204c-1.863-0.562-3.626-1.516-5.116-2.822c-1.49-1.301-2.718-2.931-3.539-4.767
	c-0.821-1.837-1.228-3.868-1.176-5.908c0.029-1.021,0.163-2.04,0.419-3.029c0.262-0.989,0.634-1.949,1.111-2.857l-0.116,0.276
	l-0.035,0.454l0.198-0.262l0.291-0.498c1.321-2.482,3.346-4.542,5.779-5.884c0.605-0.344,1.24-0.626,1.892-0.87
	c0.652-0.25,1.327-0.439,2.008-0.582c0.681-0.151,1.379-0.236,2.083-0.274c0.699-0.049,1.409-0.023,2.113,0.041l-0.116,0.125
	l0.303,0.099l0.495,0.102c1.757,0.312,3.556,1.01,5.145,2.028c1.589,1.013,2.962,2.34,4.004,3.745
	c1.054,1.409,1.787,2.887,2.311,4.19c0.523,1.31,0.838,2.448,1.169,3.222c0.25,0.617,0.454,0.641,0.611,0.187l0.11-0.425l0.07-0.585
	l0.023-0.347v-0.381l-0.012-0.41l-0.035-0.439c-0.052-0.605-0.169-1.271-0.343-1.977c-0.181-0.701-0.437-1.435-0.751-2.165
	c-0.326-0.728-0.716-1.449-1.158-2.136C100.644,32.778,100.132,32.137,99.608,31.552L99.608,31.552z"/>
<path fill="#98CA3E" d="M114.845,72.849l-0.157-0.227c-0.728-0.681-1.362-1.487-1.956-2.284l0.023,0.006l-0.018-0.341
	c-1.886-1.918-3.847-3.804-5.855-5.477l-0.151,0.241l0.518,0.614l-1.182-0.97l-0.046-0.334c-0.698-0.832-1.473-1.63-2.229-2.41
	c-1.106-1.144-2.229-2.249-3.388-3.303c-0.896-0.814-1.909-1.711-2.84-2.183l-0.757-0.122l0.692,1.24l0.111,0.143
	c0.978,0.898,1.932,1.78,2.863,2.75c0.774,0.8,1.531,1.62,2.282,2.45l-0.664-0.388l-0.035,0.338c1.833,1.752,3.794,3.408,5.441,5.39
	l-0.081-0.053l-0.093,0.288c1.176,1.368,2.502,2.529,3.771,3.777l-0.018,0.323c1.467,1.755,3.335,3.902,4.86,3.792
	C117.144,76.024,115.957,74.15,114.845,72.849L114.845,72.849z"/>
<path fill="#98CA3E" d="M101.709,56.215l0.169,0.219c0.763,0.64,1.443,1.411,2.083,2.174l-0.023-0.003l0.029,0.337
	c1.997,1.813,4.057,3.585,6.152,5.148l0.134-0.251l-0.547-0.585l1.228,0.905l0.07,0.329c0.739,0.794,1.56,1.548,2.352,2.284
	c1.169,1.083,2.357,2.128,3.567,3.114c0.937,0.762,2.002,1.604,2.951,2.025l0.768,0.078l-0.757-1.199l-0.128-0.137
	c-1.019-0.844-2.02-1.673-3.009-2.59c-0.809-0.757-1.612-1.533-2.404-2.319l0.675,0.347l0.023-0.335
	c-1.932-1.649-3.975-3.195-5.733-5.087l0.087,0.05l0.076-0.294c-1.251-1.301-2.636-2.387-3.975-3.564v-0.323
	c-1.56-1.671-3.544-3.717-5.058-3.521C99.241,53.171,100.528,54.976,101.709,56.215L101.709,56.215z"/>
<path fill="#98CA3E" d="M98.84,43.915l0.076-0.238l0.104-1.395l0.041-1.423l0.018,0.018l0.186-0.276
	c-0.239-1.283-0.722-2.512-1.426-3.565c-0.705-1.059-1.63-1.94-2.637-2.549l-0.128,0.253l0.5,0.498l-1.141-0.684l-0.082-0.294
	c-0.751-0.585-1.653-0.993-2.555-1.252c-0.664-0.189-1.344-0.291-2.02-0.314c-0.669-0.022-1.339,0.026-1.985,0.128
	c-1.001,0.154-2.083,0.451-2.823,0.935l-0.413,0.55l1.152,0.154l0.151-0.009c1.03-0.256,2.031-0.46,3.056-0.46
	c0.844,0,1.676,0.114,2.45,0.373l-0.57,0.075l0.087,0.282c0.861,0.143,1.746,0.416,2.555,0.879c0.809,0.457,1.53,1.109,2.014,1.921
	l-0.058-0.044l-0.157,0.239c0.332,0.541,0.652,1.085,0.919,1.664s0.489,1.193,0.605,1.837L96.553,41.4
	c0.023,0.81-0.099,1.717-0.157,2.567c-0.053,0.85-0.018,1.644,0.419,2.211l1.152-0.197C98.357,45.5,98.688,44.686,98.84,43.915
	L98.84,43.915z"/>
</svg>
