<?xml version="1.0" encoding="utf-8"?>
<!-- Generator: Adobe Illustrator 12.0.0, SVG Export Plug-In . SVG Version: 6.00 Build 51448)  -->
<!DOCTYPE svg PUBLIC "-//W3C//DTD SVG 1.1//EN" "http://www.w3.org/Graphics/SVG/1.1/DTD/svg11.dtd" [
	<!ENTITY ns_svg "http://www.w3.org/2000/svg">
	<!ENTITY ns_xlink "http://www.w3.org/1999/xlink">
]>
<svg  version="1.1" id="Layer_1" xmlns="&ns_svg;" xmlns:xlink="&ns_xlink;" width="289.691" height="31.797"
	 viewBox="0 0 289.691 31.797" overflow="visible" enable-background="new 0 0 170.028 31.532" xml:space="preserve">
<g>
	<path fill="#3F3F3F" d="M0,0.422h2.607c0.292,0,0.519,0.076,0.683,0.228c0.163,0.152,0.274,0.338,0.333,0.56L7.805,19.13
		c0.093,0.374,0.184,0.784,0.271,1.233s0.16,0.92,0.219,1.409c0.163-0.489,0.335-0.956,0.516-1.399s0.365-0.857,0.552-1.243
		L17.92,1.209c0.093-0.187,0.248-0.365,0.464-0.534s0.463-0.254,0.744-0.254h2.625L9.275,25.5H6.317L0,0.422z"/>
	<path fill="#3F3F3F" d="M26.022,7.813l-2.135,17.719h-3.063l2.135-17.719H26.022z M27.195,2.236c0,0.303-0.062,0.585-0.184,0.847
		c-0.123,0.262-0.286,0.495-0.49,0.699c-0.204,0.204-0.435,0.364-0.691,0.48c-0.257,0.117-0.525,0.175-0.805,0.175
		c-0.269,0-0.531-0.058-0.788-0.175c-0.257-0.116-0.481-0.276-0.674-0.48c-0.192-0.204-0.347-0.437-0.463-0.699
		c-0.117-0.262-0.175-0.544-0.175-0.847S22.983,1.648,23.1,1.38c0.116-0.268,0.274-0.503,0.472-0.708s0.426-0.367,0.683-0.489
		S24.773,0,25.042,0c0.28,0,0.548,0.059,0.805,0.175c0.257,0.117,0.487,0.277,0.691,0.48c0.204,0.204,0.365,0.443,0.481,0.716
		C27.136,1.646,27.195,1.934,27.195,2.236z"/>
	<path fill="#3F3F3F" d="M28.297,7.813h2.52c0.233,0,0.42,0.064,0.56,0.193c0.14,0.129,0.227,0.281,0.262,0.456l2.643,11.441
		c0.093,0.434,0.16,0.866,0.201,1.299s0.073,0.859,0.097,1.281c0.128-0.422,0.262-0.846,0.402-1.272
		c0.14-0.427,0.315-0.862,0.525-1.308l5.495-11.441c0.093-0.187,0.222-0.342,0.385-0.465s0.344-0.185,0.542-0.185h2.433
		l-8.89,17.719h-2.607L28.297,7.813z"/>
	<path fill="#3F3F3F" d="M56.77,25.536h-1.61c-0.408,0-0.686-0.104-0.831-0.314c-0.146-0.21-0.219-0.467-0.219-0.77l0.315-3.555
		c-0.42,0.742-0.872,1.414-1.356,2.016c-0.484,0.604-0.998,1.116-1.54,1.539s-1.111,0.75-1.706,0.982
		c-0.595,0.23-1.213,0.348-1.855,0.348c-0.7,0-1.336-0.138-1.908-0.412c-0.572-0.273-1.059-0.676-1.461-1.207
		s-0.714-1.184-0.936-1.96s-0.333-1.665-0.333-2.669c0-1.051,0.131-2.074,0.394-3.072c0.263-0.997,0.636-1.939,1.12-2.826
		s1.064-1.7,1.741-2.441c0.677-0.741,1.432-1.382,2.266-1.925s1.729-0.962,2.687-1.26c0.957-0.297,1.96-0.446,3.01-0.446
		c0.758,0,1.496,0.063,2.213,0.187s1.426,0.34,2.126,0.647L56.77,25.536z M49.14,23.188c0.571,0,1.131-0.176,1.68-0.525
		c0.548-0.351,1.067-0.836,1.558-1.455c0.49-0.621,0.948-1.358,1.374-2.214s0.802-1.794,1.129-2.815l0.752-5.994
		c-0.257-0.206-0.511-0.309-0.762-0.309s-0.499,0-0.743,0c-0.7,0-1.377,0.114-2.03,0.34c-0.653,0.227-1.266,0.544-1.837,0.951
		c-0.572,0.407-1.091,0.893-1.558,1.457c-0.467,0.564-0.866,1.184-1.199,1.858c-0.333,0.676-0.592,1.394-0.779,2.155
		s-0.28,1.544-0.28,2.347C46.445,21.786,47.343,23.188,49.14,23.188z"/>
	<path fill="#3F3F3F" d="M92.487,0.469l-0.14,1.049c-0.023,0.164-0.07,0.313-0.14,0.446c-0.07,0.134-0.158,0.271-0.262,0.411
		l-15.33,20.5h12.915l-0.35,2.656H71.854l0.14-1.031c0.023-0.164,0.067-0.309,0.131-0.438c0.064-0.128,0.148-0.262,0.254-0.402
		l15.33-20.504H75.232l0.333-2.688H92.487z"/>
	<path fill="#3F3F3F" d="M105.244,25.536h-1.61c-0.408,0-0.686-0.104-0.831-0.314c-0.146-0.21-0.219-0.467-0.219-0.77l0.315-3.555
		c-0.42,0.742-0.872,1.414-1.356,2.016c-0.484,0.604-0.998,1.116-1.54,1.539s-1.111,0.75-1.706,0.982
		c-0.595,0.23-1.213,0.348-1.855,0.348c-0.7,0-1.336-0.138-1.908-0.412c-0.572-0.273-1.059-0.676-1.461-1.207
		s-0.714-1.184-0.936-1.96s-0.333-1.665-0.333-2.669c0-1.051,0.131-2.074,0.394-3.072c0.263-0.997,0.636-1.939,1.12-2.826
		s1.064-1.7,1.741-2.441c0.677-0.741,1.432-1.382,2.266-1.925s1.729-0.962,2.687-1.26c0.957-0.297,1.96-0.446,3.01-0.446
		c0.758,0,1.496,0.063,2.213,0.187s1.426,0.34,2.126,0.647L105.244,25.536z M97.614,23.188c0.571,0,1.131-0.176,1.68-0.525
		c0.548-0.351,1.067-0.836,1.558-1.455c0.49-0.621,0.948-1.358,1.374-2.214s0.802-1.794,1.129-2.815l0.752-5.994
		c-0.257-0.206-0.511-0.309-0.762-0.309s-0.499,0-0.743,0c-0.7,0-1.377,0.114-2.03,0.34c-0.653,0.227-1.266,0.544-1.837,0.951
		c-0.572,0.407-1.091,0.893-1.558,1.457c-0.467,0.564-0.866,1.184-1.199,1.858c-0.333,0.676-0.592,1.394-0.779,2.155
		s-0.28,1.544-0.28,2.347C94.919,21.786,95.817,23.188,97.614,23.188z"/>
	<path fill="#3F3F3F" d="M108.429,31.532l2.887-23.75h1.558c0.7,0,1.05,0.354,1.05,1.062l-0.297,3.763
		c0.443-0.77,0.927-1.467,1.453-2.091c0.525-0.624,1.076-1.158,1.654-1.602c0.577-0.443,1.181-0.784,1.811-1.023
		s1.271-0.359,1.925-0.359c1.505,0,2.678,0.549,3.518,1.646s1.26,2.703,1.26,4.817c0,0.957-0.1,1.914-0.298,2.872
		s-0.481,1.871-0.849,2.741c-0.368,0.869-0.811,1.682-1.33,2.434c-0.519,0.754-1.097,1.407-1.732,1.962s-1.327,0.989-2.074,1.306
		c-0.747,0.314-1.528,0.473-2.345,0.473c-0.875,0-1.674-0.173-2.398-0.517c-0.724-0.345-1.33-0.837-1.82-1.479l-0.945,7.746H108.429
		z M119.296,10.031c-0.56,0-1.129,0.175-1.706,0.525c-0.578,0.35-1.135,0.84-1.671,1.47c-0.537,0.63-1.036,1.376-1.497,2.239
		s-0.86,1.803-1.198,2.818l-0.56,4.516c0.443,0.641,0.977,1.094,1.601,1.355c0.624,0.263,1.257,0.394,1.899,0.394
		c0.606,0,1.178-0.128,1.715-0.385c0.537-0.257,1.027-0.604,1.47-1.042s0.84-0.95,1.19-1.539c0.35-0.59,0.644-1.22,0.883-1.891
		s0.423-1.365,0.551-2.082c0.128-0.718,0.193-1.427,0.193-2.127c0-1.388-0.251-2.444-0.752-3.167
		C120.912,10.393,120.206,10.031,119.296,10.031z"/>
	<path fill="#3F3F3F" d="M139.648,25.536h-1.61c-0.408,0-0.686-0.104-0.831-0.314c-0.146-0.21-0.219-0.467-0.219-0.77l0.315-3.555
		c-0.42,0.742-0.872,1.414-1.356,2.016c-0.484,0.604-0.998,1.116-1.54,1.539s-1.111,0.75-1.706,0.982
		c-0.595,0.23-1.213,0.348-1.855,0.348c-0.7,0-1.336-0.138-1.908-0.412c-0.572-0.273-1.059-0.676-1.461-1.207
		s-0.714-1.184-0.936-1.96s-0.333-1.665-0.333-2.669c0-1.051,0.131-2.074,0.394-3.072c0.263-0.997,0.636-1.939,1.12-2.826
		s1.064-1.7,1.741-2.441c0.677-0.741,1.432-1.382,2.266-1.925s1.729-0.962,2.687-1.26c0.957-0.297,1.96-0.446,3.01-0.446
		c0.758,0,1.496,0.063,2.213,0.187s1.426,0.34,2.126,0.647L139.648,25.536z M132.018,23.188c0.571,0,1.131-0.176,1.68-0.525
		c0.548-0.351,1.067-0.836,1.558-1.455c0.49-0.621,0.948-1.358,1.374-2.214s0.802-1.794,1.129-2.815l0.752-5.994
		c-0.257-0.206-0.511-0.309-0.762-0.309s-0.499,0-0.743,0c-0.7,0-1.377,0.114-2.03,0.34c-0.653,0.227-1.266,0.544-1.837,0.951
		c-0.572,0.407-1.091,0.893-1.558,1.457c-0.467,0.564-0.866,1.184-1.199,1.858c-0.333,0.676-0.592,1.394-0.779,2.155
		s-0.28,1.544-0.28,2.347C129.323,21.786,130.221,23.188,132.018,23.188z"/>
	<path fill="#3F3F3F" d="M145.125,22.157c0-0.069,0.002-0.16,0.008-0.271s0.018-0.271,0.035-0.481s0.043-0.484,0.079-0.822
		c0.035-0.339,0.087-0.782,0.158-1.331l1.103-8.876h-1.978c-0.152,0-0.277-0.043-0.376-0.131s-0.148-0.225-0.148-0.411
		c0-0.035,0.005-0.105,0.017-0.21s0.026-0.225,0.044-0.358s0.035-0.271,0.053-0.411c0.018-0.14,0.032-0.274,0.043-0.402l2.73-0.367
		l1.313-5.474c0.047-0.175,0.134-0.317,0.263-0.428c0.128-0.111,0.286-0.167,0.473-0.167h1.645l-0.77,6.109h4.655l-0.262,2.25
		h-4.673l-1.067,8.714c-0.059,0.479-0.102,0.863-0.131,1.155c-0.029,0.291-0.052,0.525-0.07,0.699
		c-0.018,0.176-0.029,0.298-0.035,0.367c-0.006,0.07-0.009,0.123-0.009,0.158c0,0.595,0.137,1.035,0.411,1.32
		c0.274,0.287,0.65,0.43,1.129,0.43c0.303,0,0.572-0.044,0.805-0.132c0.233-0.087,0.435-0.184,0.604-0.288
		c0.169-0.105,0.312-0.201,0.429-0.289s0.222-0.131,0.315-0.131s0.166,0.023,0.219,0.07s0.108,0.123,0.167,0.229l0.647,1.493
		c-0.56,0.502-1.205,0.896-1.934,1.181c-0.729,0.286-1.461,0.43-2.196,0.43c-1.132,0-2.024-0.31-2.678-0.928
		C145.487,24.235,145.148,23.336,145.125,22.157z"/>
	<path fill="#3F3F3F" d="M167.91,25.536h-1.61c-0.408,0-0.686-0.104-0.831-0.314c-0.146-0.21-0.219-0.467-0.219-0.77l0.315-3.555
		c-0.42,0.742-0.872,1.414-1.356,2.016c-0.484,0.604-0.998,1.116-1.54,1.539s-1.111,0.75-1.706,0.982
		c-0.595,0.23-1.213,0.348-1.855,0.348c-0.7,0-1.336-0.138-1.908-0.412c-0.572-0.273-1.059-0.676-1.461-1.207
		s-0.714-1.184-0.936-1.96s-0.333-1.665-0.333-2.669c0-1.051,0.131-2.074,0.394-3.072c0.263-0.997,0.636-1.939,1.12-2.826
		s1.064-1.7,1.741-2.441c0.677-0.741,1.432-1.382,2.266-1.925s1.729-0.962,2.687-1.26c0.957-0.297,1.96-0.446,3.01-0.446
		c0.758,0,1.496,0.063,2.213,0.187s1.426,0.34,2.126,0.647L167.91,25.536z M160.28,23.188c0.571,0,1.131-0.176,1.68-0.525
		c0.548-0.351,1.067-0.836,1.558-1.455c0.49-0.621,0.948-1.358,1.374-2.214s0.802-1.794,1.129-2.815l0.752-5.994
		c-0.257-0.206-0.511-0.309-0.762-0.309s-0.499,0-0.743,0c-0.7,0-1.377,0.114-2.03,0.34c-0.653,0.227-1.266,0.544-1.837,0.951
		c-0.572,0.407-1.091,0.893-1.558,1.457c-0.467,0.564-0.866,1.184-1.199,1.858c-0.333,0.676-0.592,1.394-0.779,2.155
		s-0.28,1.544-0.28,2.347C157.585,21.786,158.483,23.188,160.28,23.188z"/>
</g>
</svg>
