<?xml version="1.0" encoding="utf-8"?>
<!-- Generator: Adobe Illustrator 12.0.0, SVG Export Plug-In . SVG Version: 6.00 Build 51448)  -->
<!DOCTYPE svg PUBLIC "-//W3C//DTD SVG 1.1//EN" "http://www.w3.org/Graphics/SVG/1.1/DTD/svg11.dtd" [
	<!ENTITY ns_svg "http://www.w3.org/2000/svg">
	<!ENTITY ns_xlink "http://www.w3.org/1999/xlink">
]>
<svg  version="1.1" id="Layer_1" xmlns="&ns_svg;" xmlns:xlink="&ns_xlink;" width="289.691" height="31.797"
	 viewBox="0 0 289.691 31.797" overflow="visible" enable-background="new 0 0 262.008 31.797" xml:space="preserve">
<g>
	<path fill="#3F3F3F" d="M21.77,11.508c0,2.133-0.33,4.079-0.989,5.833c-0.659,1.756-1.569,3.26-2.73,4.513
		s-2.543,2.224-4.147,2.912c-1.604,0.688-3.352,1.032-5.241,1.032H0L3.098,0.734h8.645c1.54,0,2.931,0.263,4.174,0.787
		c1.242,0.525,2.295,1.262,3.159,2.212s1.528,2.087,1.995,3.411S21.77,9.922,21.77,11.508z M18.41,11.57
		c0-1.258-0.161-2.395-0.481-3.408s-0.782-1.873-1.382-2.578c-0.601-0.705-1.333-1.247-2.196-1.625s-1.837-0.568-2.922-0.568H6.073
		l-2.45,19.75h5.355c1.4,0,2.677-0.266,3.833-0.795c1.155-0.531,2.147-1.294,2.975-2.29s1.473-2.208,1.934-3.636
		S18.41,13.376,18.41,11.57z"/>
	<path fill="#3F3F3F" d="M37.257,11.875c0,0.771-0.158,1.48-0.473,2.129s-0.893,1.232-1.732,1.752s-1.995,0.973-3.465,1.357
		c-1.47,0.387-3.36,0.695-5.67,0.93c-0.012,0.129-0.018,0.254-0.018,0.377c0,0.122,0,0.248,0,0.376c0,1.565,0.341,2.76,1.023,3.583
		c0.683,0.824,1.712,1.235,3.089,1.235c0.56,0,1.059-0.058,1.497-0.175s0.828-0.26,1.172-0.43c0.344-0.168,0.647-0.355,0.91-0.561
		c0.263-0.203,0.505-0.391,0.727-0.561c0.222-0.168,0.426-0.312,0.612-0.428c0.187-0.117,0.374-0.176,0.56-0.176
		c0.21,0,0.402,0.1,0.578,0.298l0.77,0.964c-0.595,0.615-1.176,1.141-1.741,1.576c-0.566,0.436-1.146,0.798-1.741,1.088
		c-0.595,0.29-1.216,0.502-1.864,0.635c-0.647,0.134-1.345,0.201-2.091,0.201c-1.015,0-1.925-0.17-2.73-0.508
		c-0.805-0.338-1.488-0.82-2.048-1.443c-0.56-0.625-0.992-1.381-1.295-2.268s-0.455-1.878-0.455-2.975
		c0-0.91,0.096-1.817,0.289-2.722s0.472-1.765,0.84-2.581c0.367-0.816,0.816-1.575,1.348-2.275c0.531-0.7,1.137-1.304,1.82-1.812
		c0.683-0.507,1.435-0.907,2.257-1.199c0.822-0.292,1.706-0.438,2.651-0.438c0.898,0,1.674,0.129,2.328,0.386s1.19,0.584,1.61,0.981
		c0.42,0.397,0.732,0.835,0.937,1.314C37.155,10.988,37.257,11.443,37.257,11.875z M31.902,10.078c-0.735,0-1.412,0.152-2.03,0.456
		s-1.167,0.722-1.645,1.253c-0.479,0.532-0.887,1.157-1.225,1.875s-0.601,1.492-0.787,2.322c1.796-0.222,3.237-0.477,4.322-0.762
		c1.085-0.287,1.919-0.597,2.503-0.93c0.583-0.333,0.968-0.691,1.155-1.078c0.187-0.386,0.28-0.789,0.28-1.209
		c0-0.21-0.047-0.43-0.14-0.658c-0.093-0.228-0.242-0.435-0.446-0.622c-0.204-0.187-0.47-0.341-0.796-0.464
		C32.766,10.14,32.369,10.078,31.902,10.078z"/>
	<path fill="#3F3F3F" d="M51.555,25.801h-1.61c-0.408,0-0.686-0.104-0.831-0.314c-0.146-0.21-0.219-0.467-0.219-0.77l0.315-3.555
		c-0.42,0.742-0.872,1.414-1.356,2.016c-0.484,0.604-0.998,1.116-1.54,1.539s-1.111,0.75-1.706,0.982
		c-0.595,0.23-1.213,0.348-1.855,0.348c-0.7,0-1.336-0.138-1.908-0.412c-0.572-0.273-1.059-0.676-1.461-1.207
		s-0.714-1.184-0.936-1.96s-0.333-1.665-0.333-2.669c0-1.051,0.131-2.074,0.394-3.072c0.263-0.997,0.636-1.939,1.12-2.826
		s1.064-1.7,1.741-2.441c0.677-0.741,1.432-1.382,2.266-1.925s1.729-0.962,2.687-1.26c0.957-0.297,1.96-0.446,3.01-0.446
		c0.758,0,1.496,0.063,2.213,0.187s1.426,0.34,2.126,0.647L51.555,25.801z M43.925,23.454c0.571,0,1.131-0.176,1.68-0.525
		c0.548-0.351,1.067-0.836,1.558-1.455c0.49-0.621,0.948-1.358,1.374-2.214s0.802-1.794,1.129-2.815l0.752-5.994
		c-0.257-0.206-0.511-0.309-0.762-0.309s-0.499,0-0.743,0c-0.7,0-1.377,0.114-2.03,0.34c-0.653,0.227-1.266,0.544-1.837,0.951
		c-0.572,0.407-1.091,0.893-1.558,1.457c-0.467,0.564-0.866,1.184-1.199,1.858c-0.333,0.676-0.592,1.394-0.779,2.155
		s-0.28,1.544-0.28,2.347C41.23,22.051,42.128,23.454,43.925,23.454z"/>
	<path fill="#3F3F3F" d="M57.032,22.422c0-0.069,0.002-0.16,0.008-0.271s0.018-0.271,0.035-0.481s0.043-0.484,0.079-0.822
		c0.035-0.339,0.087-0.782,0.158-1.331l1.103-8.876h-1.978c-0.152,0-0.277-0.043-0.376-0.131s-0.148-0.225-0.148-0.411
		c0-0.035,0.005-0.105,0.017-0.21s0.026-0.225,0.044-0.358s0.035-0.271,0.053-0.411c0.018-0.14,0.032-0.274,0.043-0.402l2.73-0.367
		l1.313-5.474c0.047-0.175,0.134-0.317,0.263-0.428c0.128-0.111,0.286-0.167,0.473-0.167h1.645l-0.77,6.109h4.655l-0.262,2.25
		h-4.673l-1.067,8.714c-0.059,0.479-0.102,0.863-0.131,1.155c-0.029,0.291-0.052,0.525-0.07,0.699
		c-0.018,0.176-0.029,0.298-0.035,0.367c-0.006,0.07-0.009,0.123-0.009,0.158c0,0.595,0.137,1.035,0.411,1.32
		c0.274,0.287,0.65,0.43,1.129,0.43c0.303,0,0.572-0.044,0.805-0.132c0.233-0.087,0.435-0.184,0.604-0.288
		c0.169-0.105,0.312-0.201,0.429-0.289s0.222-0.131,0.315-0.131s0.166,0.023,0.219,0.07s0.108,0.123,0.167,0.229l0.647,1.493
		c-0.56,0.502-1.205,0.896-1.934,1.181c-0.729,0.286-1.461,0.43-2.196,0.43c-1.132,0-2.024-0.31-2.678-0.928
		C57.394,24.5,57.055,23.602,57.032,22.422z"/>
	<path fill="#3F3F3F" d="M66.919,25.782L70.035,0h3.115l-1.452,11.977c0.921-1.375,1.945-2.416,3.071-3.122
		c1.126-0.705,2.278-1.058,3.457-1.058c1.342,0,2.374,0.443,3.098,1.33c0.723,0.887,1.085,2.175,1.085,3.866
		c0,0.233-0.006,0.476-0.018,0.727c-0.012,0.25-0.035,0.51-0.07,0.777l-1.33,11.285h-3.115l1.33-11.291
		c0.023-0.233,0.043-0.458,0.061-0.674s0.026-0.423,0.026-0.622c0-0.957-0.178-1.669-0.534-2.136c-0.356-0.467-0.919-0.7-1.688-0.7
		c-0.525,0-1.065,0.143-1.619,0.429s-1.094,0.691-1.619,1.216c-0.525,0.525-1.015,1.158-1.47,1.9
		c-0.455,0.74-0.852,1.566-1.19,2.477l-1.137,9.4H66.919z"/>
	<path fill="#3F3F3F" d="M97.667,0.688h2.607c0.292,0,0.519,0.076,0.683,0.228c0.163,0.152,0.274,0.338,0.333,0.56l4.183,17.921
		c0.093,0.374,0.184,0.784,0.271,1.233s0.16,0.92,0.219,1.409c0.163-0.489,0.335-0.956,0.516-1.399s0.365-0.857,0.552-1.243
		l8.557-17.921c0.093-0.187,0.248-0.365,0.464-0.534s0.463-0.254,0.744-0.254h2.625l-12.478,25.079h-2.958L97.667,0.688z"/>
	<path fill="#3F3F3F" d="M129.061,25.801h-1.61c-0.408,0-0.686-0.104-0.831-0.314c-0.146-0.21-0.219-0.467-0.219-0.77l0.315-3.555
		c-0.42,0.742-0.872,1.414-1.356,2.016c-0.484,0.604-0.998,1.116-1.54,1.539s-1.111,0.75-1.706,0.982
		c-0.595,0.23-1.213,0.348-1.855,0.348c-0.7,0-1.336-0.138-1.908-0.412c-0.572-0.273-1.059-0.676-1.461-1.207
		s-0.714-1.184-0.936-1.96s-0.333-1.665-0.333-2.669c0-1.051,0.131-2.074,0.394-3.072c0.263-0.997,0.636-1.939,1.12-2.826
		s1.064-1.7,1.741-2.441c0.677-0.741,1.432-1.382,2.266-1.925s1.729-0.962,2.687-1.26c0.957-0.297,1.96-0.446,3.01-0.446
		c0.758,0,1.496,0.063,2.213,0.187s1.426,0.34,2.126,0.647L129.061,25.801z M121.431,23.454c0.571,0,1.131-0.176,1.68-0.525
		c0.548-0.351,1.067-0.836,1.558-1.455c0.49-0.621,0.948-1.358,1.374-2.214s0.802-1.794,1.129-2.815l0.752-5.994
		c-0.257-0.206-0.511-0.309-0.762-0.309s-0.499,0-0.743,0c-0.7,0-1.377,0.114-2.03,0.34c-0.653,0.227-1.266,0.544-1.837,0.951
		c-0.572,0.407-1.091,0.893-1.558,1.457c-0.467,0.564-0.866,1.184-1.199,1.858c-0.333,0.676-0.592,1.394-0.779,2.155
		s-0.28,1.544-0.28,2.347C118.736,22.051,119.634,23.454,121.431,23.454z"/>
	<path fill="#3F3F3F" d="M133.296,25.766L136.428,0h3.063l-3.132,25.766H133.296z"/>
	<path fill="#3F3F3F" d="M140.908,25.766L144.041,0h3.063l-3.132,25.766H140.908z"/>
	<path fill="#3F3F3F" d="M162.397,11.875c0,0.771-0.158,1.48-0.473,2.129s-0.893,1.232-1.732,1.752s-1.995,0.973-3.465,1.357
		c-1.47,0.387-3.36,0.695-5.67,0.93c-0.012,0.129-0.018,0.254-0.018,0.377c0,0.122,0,0.248,0,0.376c0,1.565,0.341,2.76,1.023,3.583
		c0.683,0.824,1.712,1.235,3.089,1.235c0.56,0,1.059-0.058,1.497-0.175s0.828-0.26,1.172-0.43c0.344-0.168,0.647-0.355,0.91-0.561
		c0.263-0.203,0.505-0.391,0.727-0.561c0.222-0.168,0.426-0.312,0.612-0.428c0.187-0.117,0.374-0.176,0.56-0.176
		c0.21,0,0.402,0.1,0.578,0.298l0.77,0.964c-0.595,0.615-1.176,1.141-1.741,1.576c-0.566,0.436-1.146,0.798-1.741,1.088
		c-0.595,0.29-1.216,0.502-1.864,0.635c-0.647,0.134-1.345,0.201-2.091,0.201c-1.015,0-1.925-0.17-2.73-0.508
		c-0.805-0.338-1.488-0.82-2.048-1.443c-0.56-0.625-0.992-1.381-1.295-2.268s-0.455-1.878-0.455-2.975
		c0-0.91,0.096-1.817,0.289-2.722s0.472-1.765,0.84-2.581c0.367-0.816,0.816-1.575,1.348-2.275c0.531-0.7,1.137-1.304,1.82-1.812
		c0.683-0.507,1.435-0.907,2.257-1.199c0.822-0.292,1.706-0.438,2.651-0.438c0.898,0,1.674,0.129,2.328,0.386s1.19,0.584,1.61,0.981
		c0.42,0.397,0.732,0.835,0.937,1.314C162.295,10.988,162.397,11.443,162.397,11.875z M157.042,10.078
		c-0.735,0-1.412,0.152-2.03,0.456s-1.167,0.722-1.645,1.253c-0.479,0.532-0.887,1.157-1.225,1.875s-0.601,1.492-0.787,2.322
		c1.796-0.222,3.237-0.477,4.322-0.762c1.085-0.287,1.919-0.597,2.503-0.93c0.583-0.333,0.968-0.691,1.155-1.078
		c0.187-0.386,0.28-0.789,0.28-1.209c0-0.21-0.047-0.43-0.14-0.658c-0.093-0.228-0.242-0.435-0.446-0.622
		c-0.204-0.187-0.47-0.341-0.796-0.464C157.906,10.14,157.509,10.078,157.042,10.078z"/>
	<path fill="#3F3F3F" d="M167.945,31.08c-0.245,0.478-0.606,0.718-1.085,0.718h-2.275l3.833-6.941l-4.585-16.783h2.573
		c0.245,0,0.428,0.062,0.551,0.186s0.207,0.281,0.254,0.469l2.853,11.298c0.058,0.248,0.104,0.496,0.14,0.744
		s0.064,0.496,0.088,0.744c0.105-0.248,0.207-0.498,0.306-0.752s0.213-0.506,0.341-0.754l5.6-11.316
		c0.093-0.188,0.225-0.339,0.394-0.451s0.341-0.168,0.517-0.168h2.467L167.945,31.08z"/>
	<path fill="#3F3F3F" d="M197.029,15.266l-1.295,10.516h-3.255l3.063-25.079h6.597c1.33,0,2.482,0.14,3.457,0.42
		c0.974,0.28,1.779,0.68,2.414,1.2c0.637,0.52,1.109,1.15,1.418,1.892c0.31,0.741,0.465,1.567,0.465,2.478
		c0,1.016-0.152,1.961-0.455,2.837c-0.305,0.876-0.742,1.661-1.313,2.356c-0.572,0.695-1.261,1.285-2.065,1.769
		c-0.806,0.484-1.716,0.844-2.729,1.076c0.373,0.258,0.682,0.607,0.927,1.049l5.407,10.002h-2.904c-0.572,0-0.98-0.233-1.226-0.7
		l-4.725-9.028c-0.151-0.291-0.327-0.496-0.525-0.612s-0.513-0.175-0.944-0.175H197.029z M198.517,3.266l-1.19,9.625h3.203
		c0.992,0,1.867-0.14,2.625-0.42s1.396-0.675,1.916-1.184c0.52-0.508,0.91-1.11,1.173-1.806s0.394-1.458,0.394-2.288
		c0-1.274-0.4-2.247-1.199-2.919s-1.998-1.008-3.596-1.008H198.517z"/>
	<path fill="#3F3F3F" d="M217.434,8.078l-2.135,17.719h-3.063l2.135-17.719H217.434z M218.607,2.502
		c0,0.303-0.063,0.585-0.185,0.847c-0.122,0.262-0.286,0.495-0.489,0.699c-0.205,0.204-0.436,0.364-0.691,0.48
		c-0.258,0.117-0.525,0.175-0.806,0.175c-0.269,0-0.53-0.058-0.788-0.175c-0.256-0.116-0.48-0.276-0.674-0.48
		c-0.191-0.204-0.347-0.437-0.463-0.699c-0.117-0.262-0.175-0.544-0.175-0.847s0.058-0.588,0.175-0.856
		c0.116-0.268,0.273-0.503,0.473-0.708c0.197-0.204,0.426-0.367,0.682-0.489c0.258-0.122,0.52-0.184,0.788-0.184
		c0.28,0,0.548,0.059,0.805,0.175c0.257,0.117,0.487,0.277,0.691,0.48c0.204,0.204,0.364,0.443,0.481,0.716
		C218.549,1.911,218.607,2.199,218.607,2.502z"/>
	<path fill="#3F3F3F" d="M219.709,8.078h2.521c0.233,0,0.42,0.064,0.56,0.193c0.141,0.129,0.228,0.281,0.263,0.456l2.643,11.441
		c0.093,0.434,0.16,0.866,0.201,1.299s0.073,0.859,0.097,1.281c0.128-0.422,0.262-0.846,0.402-1.272
		c0.14-0.427,0.314-0.862,0.525-1.308l5.494-11.441c0.094-0.187,0.223-0.342,0.385-0.465c0.164-0.123,0.345-0.185,0.543-0.185h2.433
		l-8.89,17.719h-2.607L219.709,8.078z"/>
	<path fill="#3F3F3F" d="M249.32,11.875c0,0.771-0.158,1.48-0.473,2.129c-0.315,0.648-0.893,1.232-1.732,1.752
		s-1.996,0.973-3.465,1.357c-1.471,0.387-3.361,0.695-5.67,0.93c-0.012,0.129-0.018,0.254-0.018,0.377c0,0.122,0,0.248,0,0.376
		c0,1.565,0.34,2.76,1.023,3.583c0.682,0.824,1.711,1.235,3.088,1.235c0.561,0,1.06-0.058,1.497-0.175s0.828-0.26,1.173-0.43
		c0.344-0.168,0.646-0.355,0.909-0.561c0.263-0.203,0.505-0.391,0.727-0.561c0.222-0.168,0.426-0.312,0.612-0.428
		c0.187-0.117,0.373-0.176,0.561-0.176c0.209,0,0.402,0.1,0.577,0.298l0.771,0.964c-0.596,0.615-1.176,1.141-1.742,1.576
		c-0.565,0.436-1.146,0.798-1.74,1.088c-0.596,0.29-1.217,0.502-1.864,0.635c-0.647,0.134-1.345,0.201-2.091,0.201
		c-1.016,0-1.926-0.17-2.73-0.508s-1.488-0.82-2.048-1.443c-0.56-0.625-0.991-1.381-1.295-2.268s-0.454-1.878-0.454-2.975
		c0-0.91,0.096-1.817,0.288-2.722s0.472-1.765,0.84-2.581c0.367-0.816,0.816-1.575,1.348-2.275c0.53-0.7,1.138-1.304,1.819-1.812
		c0.684-0.507,1.436-0.907,2.258-1.199c0.822-0.292,1.706-0.438,2.651-0.438c0.898,0,1.675,0.129,2.327,0.386
		c0.654,0.257,1.19,0.584,1.61,0.981c0.42,0.397,0.732,0.835,0.937,1.314C249.218,10.988,249.32,11.443,249.32,11.875z
		 M243.965,10.078c-0.735,0-1.412,0.152-2.03,0.456s-1.167,0.722-1.646,1.253c-0.479,0.532-0.887,1.157-1.225,1.875
		s-0.601,1.492-0.787,2.322c1.797-0.222,3.237-0.477,4.322-0.762c1.085-0.287,1.92-0.597,2.503-0.93s0.968-0.691,1.155-1.078
		c0.186-0.386,0.279-0.789,0.279-1.209c0-0.21-0.047-0.43-0.141-0.658c-0.093-0.228-0.241-0.435-0.445-0.622
		c-0.204-0.187-0.47-0.341-0.797-0.464C244.828,10.14,244.432,10.078,243.965,10.078z"/>
	<path fill="#3F3F3F" d="M250.58,25.797l2.135-17.75h1.558c0.326,0,0.583,0.076,0.77,0.229s0.28,0.387,0.28,0.704
		c0,0.047-0.003,0.114-0.009,0.202s-0.012,0.179-0.018,0.272s-0.011,0.176-0.017,0.246s-0.01,0.111-0.01,0.123l-0.244,3.219
		c0.758-1.637,1.606-2.899,2.546-3.788c0.938-0.888,1.928-1.333,2.966-1.333c0.49,0,0.98,0.117,1.471,0.351l-0.561,2.967
		c-0.549-0.232-1.079-0.349-1.592-0.349c-1.133,0-2.142,0.552-3.028,1.655c-0.887,1.103-1.628,2.777-2.222,5.019l-0.98,8.232H250.58
		z"/>
</g>
</svg>
