<?xml version="1.0" encoding="utf-8"?>
<!-- Generator: Adobe Illustrator 12.0.0, SVG Export Plug-In . SVG Version: 6.00 Build 51448)  -->
<!DOCTYPE svg PUBLIC "-//W3C//DTD SVG 1.1//EN" "http://www.w3.org/Graphics/SVG/1.1/DTD/svg11.dtd" [
	<!ENTITY ns_svg "http://www.w3.org/2000/svg">
	<!ENTITY ns_xlink "http://www.w3.org/1999/xlink">
]>
<svg  version="1.1" id="Layer_1" xmlns="&ns_svg;" xmlns:xlink="&ns_xlink;" width="289.691" height="31.797"
	 viewBox="0 0 289.691 31.797" overflow="visible" enable-background="new 0 0 289.691 26.079" xml:space="preserve">
<g>
	<path fill="#3F3F3F" d="M18.445,0.734l-0.35,2.75h-7.402l-2.73,22.329H4.708l2.73-22.329H0l0.333-2.75H18.445z"/>
	<path fill="#3F3F3F" d="M17.552,25.782L20.667,0h3.115L22.33,11.977c0.921-1.375,1.945-2.416,3.071-3.122
		c1.126-0.705,2.278-1.058,3.457-1.058c1.342,0,2.374,0.443,3.098,1.33c0.723,0.887,1.085,2.175,1.085,3.866
		c0,0.233-0.006,0.476-0.018,0.727c-0.012,0.25-0.035,0.51-0.07,0.777l-1.33,11.285h-3.115l1.33-11.291
		c0.023-0.233,0.043-0.458,0.061-0.674s0.026-0.423,0.026-0.622c0-0.957-0.178-1.669-0.534-2.136c-0.356-0.467-0.919-0.7-1.688-0.7
		c-0.525,0-1.065,0.143-1.619,0.429s-1.094,0.691-1.619,1.216c-0.525,0.525-1.015,1.158-1.47,1.9
		c-0.455,0.74-0.852,1.566-1.19,2.477l-1.137,9.4H17.552z"/>
	<path fill="#3F3F3F" d="M49.437,11.875c0,0.771-0.158,1.48-0.473,2.129s-0.893,1.232-1.732,1.752s-1.995,0.973-3.465,1.357
		c-1.47,0.387-3.36,0.695-5.67,0.93c-0.012,0.129-0.018,0.254-0.018,0.377c0,0.122,0,0.248,0,0.376c0,1.565,0.341,2.76,1.023,3.583
		c0.683,0.824,1.712,1.235,3.089,1.235c0.56,0,1.059-0.058,1.497-0.175s0.828-0.26,1.172-0.43c0.344-0.168,0.647-0.355,0.91-0.561
		c0.263-0.203,0.505-0.391,0.727-0.561c0.222-0.168,0.426-0.312,0.612-0.428c0.187-0.117,0.374-0.176,0.56-0.176
		c0.21,0,0.402,0.1,0.578,0.298l0.77,0.964c-0.595,0.615-1.176,1.141-1.741,1.576c-0.566,0.436-1.146,0.798-1.741,1.088
		c-0.595,0.29-1.216,0.502-1.864,0.635c-0.647,0.134-1.345,0.201-2.091,0.201c-1.015,0-1.925-0.17-2.73-0.508
		c-0.805-0.338-1.488-0.82-2.048-1.443c-0.56-0.625-0.992-1.381-1.295-2.268s-0.455-1.878-0.455-2.975
		c0-0.91,0.096-1.817,0.289-2.722s0.472-1.765,0.84-2.581c0.367-0.816,0.816-1.575,1.348-2.275c0.531-0.7,1.137-1.304,1.82-1.812
		c0.683-0.507,1.435-0.907,2.257-1.199c0.822-0.292,1.706-0.438,2.651-0.438c0.898,0,1.674,0.129,2.328,0.386s1.19,0.584,1.61,0.981
		c0.42,0.397,0.732,0.835,0.937,1.314C49.335,10.988,49.437,11.443,49.437,11.875z M44.082,10.078c-0.735,0-1.412,0.152-2.03,0.456
		s-1.167,0.722-1.645,1.253c-0.479,0.532-0.887,1.157-1.225,1.875s-0.601,1.492-0.787,2.322c1.796-0.222,3.237-0.477,4.322-0.762
		c1.085-0.287,1.919-0.597,2.503-0.93c0.583-0.333,0.968-0.691,1.155-1.078c0.187-0.386,0.28-0.789,0.28-1.209
		c0-0.21-0.047-0.43-0.14-0.658c-0.093-0.228-0.242-0.435-0.446-0.622c-0.204-0.187-0.47-0.341-0.796-0.464
		C44.945,10.14,44.549,10.078,44.082,10.078z"/>
	<path fill="#3F3F3F" d="M73.884,23.422c0.606,0,1.172-0.032,1.698-0.096c0.525-0.064,1.018-0.16,1.479-0.289
		c0.461-0.127,0.904-0.281,1.33-0.463c0.426-0.18,0.849-0.387,1.269-0.619l0.682-5.658h-3.482c-0.198,0-0.353-0.052-0.464-0.155
		s-0.166-0.235-0.166-0.396c0.012-0.117,0.021-0.21,0.026-0.28s0.014-0.164,0.026-0.281l0.158-1.387h7.175l-1.172,9.568
		c-0.63,0.455-1.28,0.853-1.951,1.19c-0.671,0.339-1.38,0.621-2.126,0.849s-1.534,0.396-2.362,0.508
		c-0.829,0.109-1.721,0.166-2.678,0.166c-1.517,0-2.891-0.271-4.121-0.813c-1.231-0.542-2.284-1.3-3.159-2.274
		c-0.875-0.973-1.549-2.137-2.021-3.489s-0.708-2.833-0.708-4.442c0-2.158,0.335-4.131,1.006-5.921s1.598-3.329,2.782-4.618
		s2.59-2.289,4.217-3c1.627-0.711,3.404-1.067,5.329-1.067c0.968,0,1.849,0.082,2.643,0.245c0.793,0.163,1.511,0.39,2.152,0.681
		s1.222,0.634,1.741,1.03c0.519,0.396,0.995,0.826,1.426,1.292l-1.05,1.365c-0.117,0.151-0.237,0.268-0.359,0.35
		c-0.123,0.082-0.266,0.123-0.429,0.123c-0.198,0-0.391-0.058-0.578-0.175c-0.257-0.151-0.54-0.347-0.849-0.586
		c-0.31-0.239-0.683-0.466-1.12-0.682s-0.966-0.402-1.584-0.56c-0.618-0.157-1.365-0.236-2.24-0.236
		c-1.435,0-2.75,0.274-3.946,0.822s-2.223,1.329-3.08,2.343s-1.525,2.238-2.004,3.672s-0.717,3.031-0.717,4.791
		c0,1.317,0.172,2.5,0.516,3.549c0.344,1.05,0.832,1.941,1.461,2.676s1.388,1.297,2.275,1.688S72.787,23.422,73.884,23.422z"/>
	<path fill="#3F3F3F" d="M90.667,8.078l-1.33,11.264c-0.023,0.234-0.044,0.455-0.062,0.665s-0.026,0.414-0.026,0.612
		c0,0.956,0.178,1.668,0.534,2.134c0.356,0.467,0.919,0.7,1.689,0.7c0.537,0,1.088-0.146,1.654-0.438
		c0.565-0.291,1.114-0.705,1.645-1.242c0.531-0.536,1.023-1.184,1.479-1.941s0.852-1.604,1.19-2.537l1.103-9.217h3.098
		l-2.135,17.719h-1.54c-0.362,0-0.642-0.082-0.84-0.244c-0.198-0.163-0.297-0.413-0.297-0.75c0-0.012,0.006-0.116,0.018-0.314
		c0.012-0.197,0.026-0.412,0.043-0.645s0.035-0.447,0.053-0.646c0.018-0.197,0.026-0.302,0.026-0.313l0.123-1.396
		c-0.945,1.496-2.001,2.63-3.167,3.4c-1.167,0.771-2.369,1.157-3.605,1.157c-1.318,0-2.342-0.449-3.071-1.348
		c-0.729-0.898-1.094-2.188-1.094-3.867c0-0.232,0.005-0.472,0.017-0.717s0.035-0.502,0.07-0.77l1.33-11.268H90.667z"/>
	<path fill="#3F3F3F" d="M103.389,25.797l2.117-17.75h1.558c0.7,0,1.05,0.356,1.05,1.069l-0.262,3.418
		c0.945-1.567,2.009-2.749,3.193-3.544s2.412-1.193,3.684-1.193c1.318,0,2.342,0.444,3.071,1.331
		c0.729,0.887,1.094,2.183,1.094,3.887c0,0.233-0.006,0.473-0.018,0.718s-0.035,0.502-0.07,0.77l-1.33,11.295h-3.115l1.33-11.293
		c0.023-0.232,0.043-0.457,0.061-0.674c0.018-0.215,0.026-0.423,0.026-0.621c0-0.957-0.178-1.666-0.534-2.127
		c-0.356-0.461-0.913-0.692-1.671-0.692c-0.561,0-1.129,0.152-1.707,0.455c-0.578,0.304-1.135,0.732-1.671,1.287
		s-1.035,1.226-1.496,2.013c-0.461,0.788-0.855,1.666-1.181,2.635l-1.015,9.017H103.389z"/>
	<path fill="#3F3F3F" d="M121.099,25.797l2.117-17.75h1.558c0.7,0,1.05,0.356,1.05,1.069l-0.262,3.418
		c0.945-1.567,2.009-2.749,3.193-3.544s2.412-1.193,3.684-1.193c1.318,0,2.342,0.444,3.071,1.331
		c0.729,0.887,1.094,2.183,1.094,3.887c0,0.233-0.006,0.473-0.018,0.718s-0.035,0.502-0.07,0.77l-1.33,11.295h-3.115l1.33-11.293
		c0.023-0.232,0.043-0.457,0.061-0.674c0.018-0.215,0.026-0.423,0.026-0.621c0-0.957-0.178-1.666-0.534-2.127
		c-0.356-0.461-0.913-0.692-1.671-0.692c-0.561,0-1.129,0.152-1.707,0.455c-0.578,0.304-1.135,0.732-1.671,1.287
		s-1.035,1.226-1.496,2.013c-0.461,0.788-0.855,1.666-1.181,2.635l-1.015,9.017H121.099z"/>
	<path fill="#3F3F3F" d="M152.983,11.875c0,0.771-0.158,1.48-0.473,2.129s-0.893,1.232-1.732,1.752s-1.995,0.973-3.465,1.357
		c-1.47,0.387-3.36,0.695-5.67,0.93c-0.012,0.129-0.018,0.254-0.018,0.377c0,0.122,0,0.248,0,0.376c0,1.565,0.341,2.76,1.023,3.583
		c0.683,0.824,1.712,1.235,3.089,1.235c0.56,0,1.059-0.058,1.497-0.175s0.828-0.26,1.172-0.43c0.344-0.168,0.647-0.355,0.91-0.561
		c0.263-0.203,0.505-0.391,0.727-0.561c0.222-0.168,0.426-0.312,0.612-0.428c0.187-0.117,0.374-0.176,0.56-0.176
		c0.21,0,0.402,0.1,0.578,0.298l0.77,0.964c-0.595,0.615-1.176,1.141-1.741,1.576c-0.566,0.436-1.146,0.798-1.741,1.088
		c-0.595,0.29-1.216,0.502-1.864,0.635c-0.647,0.134-1.345,0.201-2.091,0.201c-1.015,0-1.925-0.17-2.73-0.508
		c-0.805-0.338-1.488-0.82-2.048-1.443c-0.56-0.625-0.992-1.381-1.295-2.268s-0.455-1.878-0.455-2.975
		c0-0.91,0.096-1.817,0.289-2.722s0.472-1.765,0.84-2.581c0.367-0.816,0.816-1.575,1.348-2.275c0.531-0.7,1.137-1.304,1.82-1.812
		c0.683-0.507,1.435-0.907,2.257-1.199c0.822-0.292,1.706-0.438,2.651-0.438c0.898,0,1.674,0.129,2.328,0.386s1.19,0.584,1.61,0.981
		c0.42,0.397,0.732,0.835,0.937,1.314C152.881,10.988,152.983,11.443,152.983,11.875z M147.628,10.078
		c-0.735,0-1.412,0.152-2.03,0.456s-1.167,0.722-1.645,1.253c-0.479,0.532-0.887,1.157-1.225,1.875s-0.601,1.492-0.787,2.322
		c1.796-0.222,3.237-0.477,4.322-0.762c1.085-0.287,1.919-0.597,2.503-0.93c0.583-0.333,0.968-0.691,1.155-1.078
		c0.187-0.386,0.28-0.789,0.28-1.209c0-0.21-0.047-0.43-0.14-0.658c-0.093-0.228-0.242-0.435-0.446-0.622
		c-0.204-0.187-0.47-0.341-0.796-0.464C148.491,10.14,148.095,10.078,147.628,10.078z"/>
	<path fill="#3F3F3F" d="M154.243,25.797l2.135-17.75h1.558c0.326,0,0.583,0.076,0.77,0.229s0.28,0.387,0.28,0.704
		c0,0.047-0.003,0.114-0.009,0.202s-0.012,0.179-0.018,0.272s-0.011,0.176-0.017,0.246s-0.009,0.111-0.009,0.123l-0.245,3.219
		c0.758-1.637,1.607-2.899,2.546-3.788c0.939-0.888,1.928-1.333,2.966-1.333c0.49,0,0.979,0.117,1.47,0.351l-0.56,2.967
		c-0.548-0.232-1.079-0.349-1.592-0.349c-1.132,0-2.141,0.552-3.028,1.655c-0.887,1.103-1.627,2.777-2.222,5.019l-0.98,8.232
		H154.243z"/>
	<path fill="#3F3F3F" d="M171.638,0.766l-0.63,5.057l-0.595,2.712c-0.082,0.362-0.213,0.642-0.394,0.84s-0.44,0.297-0.779,0.297
		c-0.303,0-0.519-0.099-0.647-0.297s-0.192-0.478-0.192-0.84V5.822l0.647-5.057H171.638z"/>
	<path fill="#3F3F3F" d="M183.993,10.905c-0.093,0.141-0.187,0.243-0.28,0.307c-0.094,0.064-0.21,0.096-0.35,0.096
		c-0.164,0-0.341-0.064-0.534-0.192s-0.426-0.271-0.7-0.429c-0.274-0.157-0.61-0.303-1.006-0.438s-0.875-0.202-1.435-0.202
		c-0.525,0-1.003,0.073-1.435,0.219c-0.432,0.146-0.805,0.347-1.12,0.604c-0.315,0.257-0.558,0.557-0.727,0.901
		s-0.253,0.709-0.253,1.094c0,0.548,0.181,0.985,0.542,1.313c0.361,0.327,0.816,0.61,1.365,0.849c0.548,0.24,1.141,0.47,1.776,0.691
		s1.228,0.502,1.776,0.84c0.548,0.339,1.003,0.771,1.365,1.295c0.361,0.525,0.542,1.208,0.542,2.048
		c0,0.817-0.161,1.599-0.481,2.345c-0.321,0.748-0.782,1.404-1.383,1.97s-1.324,1.019-2.17,1.356s-1.793,0.508-2.843,0.508
		c-1.132,0-2.132-0.199-3.001-0.595s-1.578-0.904-2.126-1.524l0.77-1.212c0.093-0.154,0.204-0.272,0.333-0.356
		c0.128-0.082,0.292-0.125,0.49-0.125c0.187,0,0.373,0.082,0.56,0.246c0.187,0.163,0.42,0.347,0.7,0.551
		c0.28,0.204,0.633,0.389,1.059,0.551c0.426,0.164,0.966,0.246,1.619,0.246c0.571,0,1.087-0.088,1.548-0.264
		c0.461-0.174,0.852-0.408,1.173-0.7c0.321-0.292,0.566-0.634,0.735-1.024s0.254-0.809,0.254-1.253c0-0.595-0.181-1.067-0.542-1.419
		c-0.362-0.35-0.817-0.643-1.365-0.875c-0.548-0.234-1.138-0.453-1.768-0.657s-1.219-0.467-1.768-0.788s-1.003-0.738-1.365-1.252
		c-0.362-0.514-0.542-1.197-0.542-2.051c0-0.747,0.148-1.468,0.446-2.163c0.297-0.695,0.726-1.311,1.286-1.848
		s1.24-0.966,2.039-1.287c0.799-0.321,1.7-0.482,2.704-0.482c1.062,0,1.998,0.179,2.809,0.537c0.811,0.358,1.508,0.842,2.091,1.451
		L183.993,10.905z"/>
	<path fill="#3F3F3F" d="M208.246,23.266c0.771,0,1.453-0.064,2.048-0.193c0.595-0.127,1.12-0.285,1.575-0.472
		s0.843-0.394,1.164-0.622c0.32-0.227,0.601-0.434,0.84-0.621c0.239-0.186,0.44-0.344,0.604-0.473
		c0.163-0.127,0.309-0.191,0.438-0.191c0.105,0,0.192,0.02,0.263,0.061c0.069,0.041,0.128,0.091,0.175,0.148l1.138,1.418
		c-1.097,1.188-2.36,2.111-3.789,2.77s-3.095,0.988-4.996,0.988c-1.493,0-2.835-0.27-4.024-0.805
		c-1.191-0.537-2.197-1.286-3.02-2.248s-1.452-2.107-1.89-3.438c-0.438-1.328-0.656-2.793-0.656-4.391
		c0-2.18,0.338-4.173,1.015-5.981s1.607-3.361,2.791-4.662c1.185-1.3,2.576-2.309,4.174-3.026c1.599-0.717,3.319-1.076,5.163-1.076
		c0.887,0,1.691,0.076,2.415,0.227c0.723,0.151,1.383,0.373,1.978,0.664s1.134,0.64,1.618,1.047s0.937,0.861,1.356,1.362
		l-1.12,1.364c-0.094,0.117-0.198,0.213-0.314,0.289c-0.117,0.076-0.263,0.114-0.438,0.114c-0.211,0-0.432-0.117-0.666-0.35
		c-0.232-0.233-0.551-0.487-0.953-0.761c-0.402-0.274-0.922-0.528-1.558-0.761s-1.462-0.35-2.476-0.35
		c-1.354,0-2.619,0.271-3.798,0.814s-2.199,1.318-3.063,2.328s-1.543,2.231-2.039,3.667s-0.743,3.045-0.743,4.83
		c0,1.296,0.168,2.456,0.507,3.483c0.339,1.026,0.808,1.898,1.409,2.615c0.601,0.719,1.315,1.27,2.144,1.654
		S207.255,23.266,208.246,23.266z"/>
	<path fill="#3F3F3F" d="M218.642,25.782L221.757,0h3.114l-1.451,11.977c0.921-1.375,1.944-2.416,3.07-3.122
		c1.126-0.705,2.277-1.058,3.457-1.058c1.342,0,2.373,0.443,3.098,1.33c0.723,0.887,1.084,2.175,1.084,3.866
		c0,0.233-0.006,0.476-0.018,0.727c-0.012,0.25-0.035,0.51-0.069,0.777l-1.33,11.285h-3.115l1.33-11.291
		c0.023-0.233,0.044-0.458,0.062-0.674s0.025-0.423,0.025-0.622c0-0.957-0.178-1.669-0.533-2.136s-0.919-0.7-1.688-0.7
		c-0.525,0-1.065,0.143-1.619,0.429s-1.094,0.691-1.618,1.216c-0.525,0.525-1.016,1.158-1.471,1.9
		c-0.455,0.74-0.852,1.566-1.189,2.477l-1.138,9.4H218.642z"/>
	<path fill="#3F3F3F" d="M242.669,26.047c-0.969,0-1.855-0.167-2.66-0.499c-0.806-0.332-1.499-0.813-2.083-1.442
		c-0.583-0.631-1.038-1.4-1.365-2.31c-0.326-0.909-0.489-1.948-0.489-3.114c0-1.492,0.233-2.897,0.7-4.215
		c0.467-1.318,1.105-2.473,1.916-3.464s1.768-1.772,2.87-2.344s2.296-0.857,3.579-0.857c0.968,0,1.854,0.167,2.66,0.499
		c0.805,0.333,1.498,0.813,2.082,1.443c0.583,0.63,1.038,1.402,1.365,2.318c0.326,0.916,0.49,1.95,0.49,3.104
		c0,1.481-0.234,2.881-0.701,4.198s-1.105,2.472-1.916,3.464c-0.811,0.99-1.77,1.775-2.879,2.353
		C245.131,25.758,243.94,26.047,242.669,26.047z M242.949,23.615c0.852,0,1.627-0.233,2.327-0.7s1.294-1.089,1.784-1.865
		s0.869-1.673,1.139-2.688c0.268-1.016,0.402-2.078,0.402-3.188c0-1.635-0.321-2.866-0.963-3.695s-1.569-1.244-2.782-1.244
		c-0.863,0-1.642,0.231-2.337,0.692c-0.693,0.461-1.285,1.08-1.775,1.856s-0.869,1.673-1.138,2.688s-0.402,2.078-0.402,3.188
		c0,1.635,0.317,2.869,0.954,3.704C240.793,23.198,241.724,23.615,242.949,23.615z"/>
	<path fill="#3F3F3F" d="M258.855,8.078l-2.135,17.719h-3.063l2.135-17.719H258.855z M260.029,2.502
		c0,0.303-0.063,0.585-0.185,0.847c-0.122,0.262-0.286,0.495-0.489,0.699c-0.205,0.204-0.436,0.364-0.691,0.48
		c-0.258,0.117-0.525,0.175-0.806,0.175c-0.269,0-0.53-0.058-0.788-0.175c-0.256-0.116-0.48-0.276-0.674-0.48
		c-0.191-0.204-0.347-0.437-0.463-0.699c-0.117-0.262-0.175-0.544-0.175-0.847s0.058-0.588,0.175-0.856
		c0.116-0.268,0.273-0.503,0.473-0.708c0.197-0.204,0.426-0.367,0.682-0.489c0.258-0.122,0.52-0.184,0.788-0.184
		c0.28,0,0.548,0.059,0.805,0.175c0.257,0.117,0.487,0.277,0.691,0.48c0.204,0.204,0.364,0.443,0.481,0.716
		C259.971,1.911,260.029,2.199,260.029,2.502z"/>
	<path fill="#3F3F3F" d="M272.427,24.285c-0.542,0.442-1.088,0.794-1.636,1.056c-0.549,0.262-1.117,0.445-1.707,0.55
		c-0.589,0.104-1.222,0.157-1.898,0.157c-1.026,0-1.934-0.176-2.721-0.525c-0.788-0.35-1.447-0.844-1.979-1.479
		c-0.53-0.637-0.933-1.4-1.207-2.293s-0.411-1.875-0.411-2.949c0-1.435,0.225-2.812,0.674-4.13s1.076-2.485,1.882-3.5
		c0.805-1.015,1.762-1.826,2.869-2.433c1.109-0.606,2.328-0.91,3.658-0.91c1.166,0,2.146,0.207,2.939,0.621s1.488,1.017,2.082,1.81
		l-0.979,1.174c-0.07,0.094-0.157,0.169-0.263,0.228s-0.222,0.087-0.35,0.087c-0.164,0-0.324-0.073-0.481-0.219
		c-0.157-0.146-0.361-0.31-0.612-0.491s-0.566-0.345-0.945-0.491c-0.379-0.146-0.866-0.219-1.461-0.219
		c-0.805,0-1.566,0.219-2.283,0.657c-0.719,0.438-1.346,1.037-1.882,1.797c-0.537,0.76-0.96,1.66-1.269,2.699
		c-0.31,1.041-0.464,2.156-0.464,3.349c0,0.725,0.081,1.382,0.245,1.972c0.162,0.59,0.408,1.093,0.734,1.508
		s0.727,0.736,1.199,0.964s1.023,0.342,1.654,0.342c0.524,0,0.991-0.056,1.399-0.167c0.408-0.11,0.77-0.248,1.085-0.411
		c0.314-0.163,0.592-0.342,0.831-0.534c0.239-0.193,0.455-0.371,0.647-0.535s0.367-0.301,0.525-0.412
		c0.157-0.111,0.318-0.166,0.48-0.166c0.234,0,0.432,0.099,0.596,0.296l0.77,0.942C273.544,23.291,272.969,23.842,272.427,24.285z"
		/>
	<path fill="#3F3F3F" d="M289.691,11.875c0,0.771-0.158,1.48-0.473,2.129c-0.315,0.648-0.893,1.232-1.732,1.752
		s-1.996,0.973-3.465,1.357c-1.471,0.387-3.361,0.695-5.67,0.93c-0.012,0.129-0.018,0.254-0.018,0.377c0,0.122,0,0.248,0,0.376
		c0,1.565,0.34,2.76,1.023,3.583c0.682,0.824,1.711,1.235,3.088,1.235c0.561,0,1.06-0.058,1.497-0.175s0.828-0.26,1.173-0.43
		c0.344-0.168,0.646-0.355,0.909-0.561c0.263-0.203,0.505-0.391,0.727-0.561c0.222-0.168,0.426-0.312,0.612-0.428
		c0.187-0.117,0.373-0.176,0.561-0.176c0.209,0,0.402,0.1,0.577,0.298l0.771,0.964c-0.596,0.615-1.176,1.141-1.742,1.576
		c-0.565,0.436-1.146,0.798-1.74,1.088c-0.596,0.29-1.217,0.502-1.864,0.635c-0.647,0.134-1.345,0.201-2.091,0.201
		c-1.016,0-1.926-0.17-2.73-0.508s-1.488-0.82-2.048-1.443c-0.56-0.625-0.991-1.381-1.295-2.268s-0.454-1.878-0.454-2.975
		c0-0.91,0.096-1.817,0.288-2.722s0.472-1.765,0.84-2.581c0.367-0.816,0.816-1.575,1.348-2.275c0.53-0.7,1.138-1.304,1.819-1.812
		c0.684-0.507,1.436-0.907,2.258-1.199c0.822-0.292,1.706-0.438,2.651-0.438c0.898,0,1.675,0.129,2.327,0.386
		c0.654,0.257,1.19,0.584,1.61,0.981c0.42,0.397,0.732,0.835,0.937,1.314C289.589,10.988,289.691,11.443,289.691,11.875z
		 M284.336,10.078c-0.735,0-1.412,0.152-2.03,0.456s-1.167,0.722-1.646,1.253c-0.479,0.532-0.887,1.157-1.225,1.875
		s-0.601,1.492-0.787,2.322c1.797-0.222,3.237-0.477,4.322-0.762c1.085-0.287,1.92-0.597,2.503-0.93s0.968-0.691,1.155-1.078
		c0.186-0.386,0.279-0.789,0.279-1.209c0-0.21-0.047-0.43-0.141-0.658c-0.093-0.228-0.241-0.435-0.445-0.622
		c-0.204-0.187-0.47-0.341-0.797-0.464C285.199,10.14,284.803,10.078,284.336,10.078z"/>
</g>
</svg>
