<?xml version="1.0" encoding="utf-8"?>
<!-- Generator: Adobe Illustrator 12.0.0, SVG Export Plug-In . SVG Version: 6.00 Build 51448)  -->
<!DOCTYPE svg PUBLIC "-//W3C//DTD SVG 1.1//EN" "http://www.w3.org/Graphics/SVG/1.1/DTD/svg11.dtd" [
	<!ENTITY ns_svg "http://www.w3.org/2000/svg">
	<!ENTITY ns_xlink "http://www.w3.org/1999/xlink">
]>
<svg  version="1.1" id="Layer_1" xmlns="&ns_svg;" xmlns:xlink="&ns_xlink;" width="1424" height="105.188" viewBox="0 -20 1424 105.188" overflow="visible" enable-background="new 0 0 1422.156 85.188" xml:space="preserve">
<g>
	<path fill="#3F3F3F" d="M22.138,26.781h-3.315L5.177,5.8H5.04c0.182,2.462,0.273,4.72,0.273,6.771v14.21H2.63v-25h3.281
		l13.612,20.896h0.137c-0.023-0.308-0.074-1.297-0.154-2.967c-0.08-1.67-0.108-2.864-0.085-3.583V1.781h2.717V26.781z"/>
	<path fill="#3F3F3F" d="M27.649,2.976c0-0.65,0.159-1.126,0.479-1.428c0.319-0.302,0.718-0.454,1.196-0.454
		c0.456,0,0.849,0.154,1.179,0.462c0.33,0.308,0.496,0.781,0.496,1.42c0,0.639-0.166,1.116-0.496,1.429
		c-0.331,0.313-0.724,0.47-1.179,0.47c-0.479,0-0.877-0.157-1.196-0.47C27.808,4.091,27.649,3.615,27.649,2.976z M30.725,26.781
		h-2.837V8.063h2.837V26.781z"/>
	<path fill="#3F3F3F" d="M38.878,26.781h-2.837V0.188h2.837V26.781z"/>
	<path fill="#3F3F3F" d="M60.35,17.405c0,3.052-0.769,5.436-2.306,7.149s-3.66,2.571-6.37,2.571c-1.674,0-3.16-0.393-4.458-1.179
		c-1.298-0.786-2.3-1.913-3.006-3.382c-0.706-1.469-1.059-3.188-1.059-5.159c0-3.052,0.763-5.429,2.288-7.132
		s3.643-2.554,6.353-2.554c2.619,0,4.699,0.872,6.242,2.614C59.578,12.075,60.35,14.433,60.35,17.405z M46.092,17.403
		c0,2.392,0.478,4.214,1.434,5.467s2.361,1.879,4.217,1.879c1.854,0,3.263-0.624,4.225-1.871s1.443-3.073,1.443-5.476
		c0-2.38-0.481-4.188-1.443-5.424s-2.381-1.854-4.259-1.854c-1.855,0-3.255,0.609-4.2,1.828
		C46.564,13.172,46.092,14.989,46.092,17.403z"/>
	<path fill="#3F3F3F" d="M89.213,20.135c0,2.199-0.798,3.914-2.394,5.145s-3.762,1.846-6.497,1.846
		c-2.964,0-5.244-0.379-6.839-1.138v-2.794c1.026,0.433,2.143,0.775,3.352,1.025c1.208,0.251,2.405,0.376,3.591,0.376
		c1.938,0,3.397-0.369,4.377-1.106c0.98-0.737,1.471-1.764,1.471-3.079c0-0.866-0.174-1.575-0.521-2.127s-0.929-1.063-1.744-1.53
		c-0.815-0.467-2.055-0.997-3.72-1.59c-2.326-0.832-3.987-1.817-4.985-2.957c-0.998-1.139-1.496-2.626-1.496-4.46
		c0-1.926,0.724-3.458,2.171-4.598c1.448-1.139,3.363-1.709,5.746-1.709c2.485,0,4.771,0.455,6.856,1.365L87.675,5.33
		c-2.063-0.866-4.07-1.299-6.02-1.299c-1.539,0-2.742,0.331-3.608,0.993c-0.867,0.662-1.3,1.58-1.3,2.754
		c0,0.866,0.159,1.575,0.479,2.128s0.858,1.06,1.616,1.521c0.758,0.461,1.918,0.971,3.48,1.53c2.622,0.935,4.426,1.937,5.412,3.008
		C88.72,17.036,89.213,18.426,89.213,20.135z"/>
	<path fill="#3F3F3F" d="M99.229,24.781c0.5,0,0.984-0.037,1.45-0.111s0.836-0.151,1.109-0.231v2.172
		c-0.308,0.148-0.76,0.271-1.357,0.368c-0.598,0.097-1.135,0.146-1.613,0.146c-3.62,0-5.429-1.905-5.429-5.717V10.281h-2.68V8.911
		l2.682-1.183l1.196-4.009h1.64v4.344h5.427v2.219h-5.427v11.003c0,1.126,0.267,1.991,0.802,2.593S98.296,24.781,99.229,24.781z"/>
	<path fill="#3F3F3F" d="M120.997,17.405c0,3.052-0.769,5.436-2.306,7.149s-3.66,2.571-6.37,2.571c-1.674,0-3.16-0.393-4.458-1.179
		c-1.298-0.786-2.3-1.913-3.006-3.382c-0.706-1.469-1.059-3.188-1.059-5.159c0-3.052,0.763-5.429,2.288-7.132
		s3.643-2.554,6.353-2.554c2.619,0,4.699,0.872,6.242,2.614C120.225,12.075,120.997,14.433,120.997,17.405z M106.739,17.403
		c0,2.392,0.478,4.214,1.434,5.467s2.361,1.879,4.217,1.879c1.854,0,3.263-0.624,4.225-1.871s1.443-3.073,1.443-5.476
		c0-2.38-0.481-4.188-1.443-5.424s-2.381-1.854-4.259-1.854c-1.855,0-3.255,0.609-4.2,1.828
		C107.211,13.172,106.739,14.989,106.739,17.403z"/>
	<path fill="#3F3F3F" d="M128.117,26.781h-2.837V0.188h2.837V26.781z"/>
	<path fill="#3F3F3F" d="M139.478,24.781c0.5,0,0.984-0.037,1.45-0.111s0.836-0.151,1.109-0.231v2.172
		c-0.308,0.148-0.76,0.271-1.357,0.368c-0.598,0.097-1.135,0.146-1.613,0.146c-3.62,0-5.429-1.905-5.429-5.717V10.281h-2.68V8.911
		l2.682-1.183l1.196-4.009h1.64v4.344h5.427v2.219h-5.427v11.003c0,1.126,0.267,1.991,0.802,2.593S138.545,24.781,139.478,24.781z"
		/>
	<path fill="#3F3F3F" d="M152.998,27.125c-2.767,0-4.951-0.843-6.55-2.528s-2.399-4.026-2.399-7.021
		c0-3.018,0.743-5.415,2.229-7.192c1.486-1.776,3.481-2.665,5.986-2.665c2.346,0,4.202,0.772,5.568,2.315
		c1.366,1.544,2.05,3.58,2.05,6.109v1.794h-12.894c0.057,2.2,0.612,3.87,1.665,5.009c1.053,1.14,2.536,1.709,4.449,1.709
		c2.015,0,4.007-0.421,5.977-1.265v2.524c-1.002,0.432-1.95,0.741-2.844,0.928C155.341,27.031,154.262,27.125,152.998,27.125z
		 M152.229,10.094c-1.503,0-2.701,0.49-3.594,1.468c-0.894,0.979-1.42,2.333-1.579,4.063h9.783c0-1.787-0.398-3.155-1.195-4.105
		S153.709,10.094,152.229,10.094z"/>
	<path fill="#3F3F3F" d="M185.591,26.781l-0.564-2.664h-0.137c-0.935,1.173-1.866,1.968-2.794,2.384
		c-0.929,0.416-2.088,0.624-3.479,0.624c-1.857,0-3.313-0.478-4.367-1.435c-1.054-0.956-1.581-2.317-1.581-4.082
		c0-3.78,3.025-5.761,9.077-5.943l3.179-0.103V14.4c0-1.47-0.316-2.555-0.949-3.255c-0.633-0.701-1.644-1.051-3.034-1.051
		c-1.562,0-3.328,0.479-5.299,1.436l-0.872-2.171c0.923-0.501,1.935-0.895,3.034-1.18s2.202-0.428,3.307-0.428
		c2.233,0,3.889,0.496,4.966,1.486c1.077,0.991,1.615,2.58,1.615,4.766v12.779H185.591z M179.181,24.781
		c1.766,0,3.153-0.482,4.162-1.448c1.009-0.965,1.513-2.316,1.513-4.054v-1.686l-2.838,0.119c-2.256,0.08-3.883,0.429-4.88,1.047
		c-0.997,0.619-1.496,1.582-1.496,2.887c0,1.022,0.311,1.8,0.932,2.333S178.064,24.781,179.181,24.781z"/>
	<path fill="#3F3F3F" d="M205.641,26.781V14.669c0-1.526-0.347-2.665-1.042-3.417c-0.694-0.751-1.782-1.127-3.261-1.127
		c-1.958,0-3.392,0.53-4.303,1.589c-0.911,1.06-1.366,2.808-1.366,5.245v9.823h-2.837V8.063h2.307l0.461,2.56h0.137
		c0.581-0.922,1.395-1.637,2.442-2.144s2.214-0.76,3.501-0.76c2.254,0,3.95,0.544,5.089,1.631c1.139,1.088,1.708,2.827,1.708,5.218
		v12.213H205.641z"/>
	<path fill="#3F3F3F" d="M226.357,24.272h-0.154c-1.31,1.902-3.268,2.853-5.875,2.853c-2.448,0-4.353-0.837-5.713-2.511
		c-1.361-1.674-2.041-4.054-2.041-7.141c0-3.086,0.683-5.483,2.049-7.192c1.366-1.708,3.268-2.563,5.705-2.563
		c2.539,0,4.486,0.923,5.841,2.768h0.222l-0.12-1.352l-0.068-1.317v-7.63h2.837v26.594h-2.307L226.357,24.272z M220.688,24.75
		c1.936,0,3.338-0.526,4.209-1.58c0.871-1.053,1.307-2.753,1.307-5.099v-0.598c0-2.653-0.441-4.546-1.324-5.68
		c-0.882-1.133-2.291-1.7-4.227-1.7c-1.662,0-2.935,0.646-3.817,1.939s-1.323,3.117-1.323,5.475c0,2.392,0.438,4.196,1.315,5.415
		C217.705,24.141,218.991,24.75,220.688,24.75z"/>
	<path fill="#3F3F3F" d="M260.547,26.781l-3.112-7.938h-10.02l-3.078,7.938h-2.939l9.881-25.094h2.445l9.83,25.094H260.547z
		 M256.529,16.219l-2.907-7.744c-0.376-0.98-0.764-2.183-1.163-3.607c-0.251,1.094-0.61,2.297-1.077,3.607l-2.941,7.744H256.529z"/>
	<path fill="#3F3F3F" d="M274.395,7.719c0.831,0,1.577,0.069,2.238,0.206l-0.393,2.644c-0.774-0.171-1.458-0.256-2.049-0.256
		c-1.515,0-2.81,0.615-3.886,1.843s-1.614,2.759-1.614,4.591v10.035h-2.837V8.063h2.341l0.325,3.465h0.137
		c0.694-1.218,1.531-2.158,2.511-2.818C272.146,8.049,273.222,7.719,274.395,7.719z"/>
	<path fill="#3F3F3F" d="M279.2,2.976c0-0.65,0.159-1.126,0.479-1.428c0.319-0.302,0.718-0.454,1.196-0.454
		c0.456,0,0.849,0.154,1.179,0.462c0.33,0.308,0.496,0.781,0.496,1.42c0,0.639-0.166,1.116-0.496,1.429
		c-0.331,0.313-0.724,0.47-1.179,0.47c-0.479,0-0.877-0.157-1.196-0.47C279.359,4.091,279.2,3.615,279.2,2.976z M282.276,26.781
		h-2.837V8.063h2.837V26.781z"/>
	<path fill="#3F3F3F" d="M295.501,27.125c-2.767,0-4.951-0.843-6.55-2.528s-2.399-4.026-2.399-7.021
		c0-3.018,0.743-5.415,2.229-7.192c1.486-1.776,3.481-2.665,5.986-2.665c2.346,0,4.202,0.772,5.568,2.315
		c1.366,1.544,2.05,3.58,2.05,6.109v1.794h-12.894c0.057,2.2,0.612,3.87,1.665,5.009c1.053,1.14,2.536,1.709,4.449,1.709
		c2.015,0,4.007-0.421,5.977-1.265v2.524c-1.002,0.432-1.95,0.741-2.844,0.928C297.844,27.031,296.765,27.125,295.501,27.125z
		 M294.732,10.094c-1.503,0-2.701,0.49-3.594,1.468c-0.894,0.979-1.42,2.333-1.579,4.063h9.783c0-1.787-0.398-3.155-1.195-4.105
		S296.212,10.094,294.732,10.094z"/>
	<path fill="#3F3F3F" d="M335.034,26.781h-3.416l-9.103-12.124l-2.611,2.326v9.798h-2.905v-25h2.905v12.397l11.322-12.397h3.433
		L324.615,12.64L335.034,26.781z"/>
	<path fill="#3F3F3F" d="M348.875,26.781l-0.564-2.664h-0.137c-0.935,1.173-1.866,1.968-2.794,2.384
		c-0.929,0.416-2.088,0.624-3.479,0.624c-1.857,0-3.313-0.478-4.367-1.435c-1.054-0.956-1.581-2.317-1.581-4.082
		c0-3.78,3.025-5.761,9.077-5.943l3.179-0.103V14.4c0-1.47-0.316-2.555-0.949-3.255c-0.633-0.701-1.644-1.051-3.034-1.051
		c-1.562,0-3.328,0.479-5.299,1.436l-0.872-2.171c0.923-0.501,1.935-0.895,3.034-1.18s2.202-0.428,3.307-0.428
		c2.233,0,3.889,0.496,4.966,1.486c1.077,0.991,1.615,2.58,1.615,4.766v12.779H348.875z M342.466,24.781
		c1.766,0,3.153-0.482,4.162-1.448c1.009-0.965,1.513-2.316,1.513-4.054v-1.686l-2.838,0.119c-2.256,0.08-3.883,0.429-4.88,1.047
		c-0.997,0.619-1.496,1.582-1.496,2.887c0,1.022,0.311,1.8,0.932,2.333S341.349,24.781,342.466,24.781z"/>
	<path fill="#3F3F3F" d="M358.784,8.063v12.144c0,1.526,0.347,2.665,1.042,3.417s1.781,1.127,3.261,1.127
		c1.958,0,3.389-0.535,4.294-1.605c0.905-1.07,1.357-2.818,1.357-5.244V8.063h2.837v18.719h-2.341l-0.41-2.509h-0.154
		c-0.581,0.923-1.386,1.629-2.417,2.118s-2.206,0.734-3.526,0.734c-2.277,0-3.982-0.541-5.115-1.623s-1.699-2.813-1.699-5.193V8.063
		H358.784z"/>
	<path fill="#3F3F3F" d="M385.349,10.25h-4.768v16.531h-2.837V10.25h-3.354V8.965l3.354-1.028V6.896
		c0-4.597,2.011-6.896,6.033-6.896c0.991,0,2.153,0.2,3.486,0.599l-0.735,2.275c-1.094-0.353-2.028-0.53-2.803-0.53
		c-1.071,0-1.863,0.355-2.375,1.066c-0.513,0.711-0.769,1.851-0.769,3.419V8.04h4.768V10.25z"/>
	<path fill="#3F3F3F" d="M411.943,26.781v-12.18c0-1.492-0.319-2.611-0.958-3.357s-1.63-1.119-2.975-1.119
		c-1.767,0-3.071,0.507-3.915,1.521c-0.844,1.014-1.265,2.574-1.265,4.681v10.455h-2.837v-12.18c0-1.492-0.319-2.611-0.958-3.357
		s-1.635-1.119-2.991-1.119c-1.778,0-3.08,0.533-3.906,1.598s-1.239,2.81-1.239,5.236v9.823h-2.837V8.063h2.307l0.461,2.563h0.137
		c0.535-0.912,1.29-1.624,2.265-2.137s2.066-0.77,3.274-0.77c2.929,0,4.843,1.06,5.743,3.18h0.137
		c0.559-0.98,1.368-1.755,2.427-2.325s2.268-0.855,3.624-0.855c2.12,0,3.707,0.544,4.761,1.631c1.054,1.088,1.581,2.827,1.581,5.218
		v12.213H411.943z"/>
	<path fill="#3F3F3F" d="M431.439,26.781l-0.564-2.664h-0.137c-0.935,1.173-1.866,1.968-2.794,2.384
		c-0.929,0.416-2.088,0.624-3.479,0.624c-1.857,0-3.313-0.478-4.367-1.435c-1.054-0.956-1.581-2.317-1.581-4.082
		c0-3.78,3.025-5.761,9.077-5.943l3.179-0.103V14.4c0-1.47-0.316-2.555-0.949-3.255c-0.633-0.701-1.644-1.051-3.034-1.051
		c-1.562,0-3.328,0.479-5.299,1.436l-0.872-2.171c0.923-0.501,1.935-0.895,3.034-1.18s2.202-0.428,3.307-0.428
		c2.233,0,3.889,0.496,4.966,1.486c1.077,0.991,1.615,2.58,1.615,4.766v12.779H431.439z M425.03,24.781
		c1.766,0,3.153-0.482,4.162-1.448c1.009-0.965,1.513-2.316,1.513-4.054v-1.686l-2.838,0.119c-2.256,0.08-3.883,0.429-4.88,1.047
		c-0.997,0.619-1.496,1.582-1.496,2.887c0,1.022,0.311,1.8,0.932,2.333S423.913,24.781,425.03,24.781z"/>
	<path fill="#3F3F3F" d="M451.49,26.781V14.669c0-1.526-0.347-2.665-1.042-3.417c-0.694-0.751-1.782-1.127-3.261-1.127
		c-1.958,0-3.392,0.53-4.303,1.589c-0.911,1.06-1.366,2.808-1.366,5.245v9.823h-2.837V8.063h2.307l0.461,2.56h0.137
		c0.581-0.922,1.395-1.637,2.442-2.144s2.214-0.76,3.501-0.76c2.254,0,3.95,0.544,5.089,1.631c1.139,1.088,1.708,2.827,1.708,5.218
		v12.213H451.49z"/>
	<path fill="#3F3F3F" d="M459.055,24.977c0-0.762,0.173-1.339,0.521-1.732s0.846-0.589,1.496-0.589c0.661,0,1.176,0.196,1.546,0.589
		s0.556,0.97,0.556,1.732c0,0.74-0.188,1.309-0.564,1.707c-0.376,0.398-0.889,0.597-1.538,0.597c-0.581,0-1.063-0.179-1.444-0.538
		S459.055,25.796,459.055,24.977z"/>
	<path fill="#3F3F3F" d="M500.424,26.781h-6.733L482.821,7.869h-0.154c0.045,0.787,0.085,1.579,0.12,2.377s0.068,1.593,0.103,2.385
		c0.034,0.792,0.068,1.588,0.103,2.386v11.765h-4.734v-25h6.682l10.852,18.724h0.12c-0.023-0.775-0.051-1.544-0.085-2.308
		s-0.066-1.528-0.094-2.292s-0.054-1.528-0.077-2.292V1.781h4.768V26.781z"/>
	<path fill="#3F3F3F" d="M522.966,17.303c0,1.578-0.214,2.976-0.641,4.193s-1.048,2.246-1.863,3.085s-1.794,1.474-2.939,1.902
		c-1.145,0.428-2.435,0.642-3.871,0.642c-1.345,0-2.578-0.214-3.7-0.642c-1.122-0.428-2.096-1.062-2.922-1.902
		s-1.464-1.868-1.914-3.085s-0.675-2.615-0.675-4.193c0-2.096,0.376-3.871,1.128-5.325s1.823-2.559,3.213-3.313
		c1.39-0.755,3.047-1.133,4.973-1.133c1.789,0,3.375,0.378,4.759,1.133s2.472,1.859,3.264,3.313S522.966,15.207,522.966,17.303z
		 M509.755,17.303c0,1.23,0.137,2.264,0.41,3.103c0.273,0.839,0.701,1.47,1.282,1.895s1.338,0.637,2.273,0.637
		c0.923,0,1.672-0.212,2.247-0.637s0.997-1.056,1.265-1.895c0.268-0.838,0.402-1.873,0.402-3.103c0-1.241-0.134-2.272-0.402-3.094
		c-0.268-0.821-0.692-1.439-1.273-1.853c-0.581-0.414-1.339-0.621-2.273-0.621c-1.379,0-2.378,0.464-3,1.392
		S509.755,15.447,509.755,17.303z"/>
	<path fill="#3F3F3F" d="M531.119,26.781l-7.28-18.906h5.452l3.691,10.772c0.205,0.632,0.367,1.297,0.487,1.996
		c0.12,0.699,0.202,1.325,0.248,1.877h0.137c0.034-0.598,0.117-1.234,0.248-1.911s0.305-1.33,0.521-1.962l3.674-10.772h5.452
		l-7.28,18.906H531.119z"/>
	<path fill="#3F3F3F" d="M553.661,7.531c1.766,0,3.287,0.335,4.563,1.006c1.276,0.671,2.261,1.643,2.957,2.917
		c0.695,1.274,1.042,2.83,1.042,4.667v2.503h-12.322c0.057,1.44,0.498,2.57,1.324,3.39s1.974,1.23,3.444,1.23
		c1.219,0,2.335-0.125,3.35-0.376c1.014-0.25,2.056-0.626,3.127-1.128v4.033c-0.946,0.467-1.934,0.809-2.965,1.025
		s-2.281,0.325-3.751,0.325c-1.914,0-3.609-0.349-5.084-1.048s-2.632-1.764-3.469-3.195c-0.837-1.431-1.256-3.234-1.256-5.41
		c0-2.209,0.378-4.049,1.136-5.52s1.814-2.575,3.17-3.313C550.282,7.9,551.86,7.531,553.661,7.531z M553.695,11.24
		c-1.014,0-1.854,0.315-2.521,0.946c-0.667,0.631-1.051,1.621-1.153,2.97h7.314c-0.012-0.752-0.151-1.421-0.419-2.008
		c-0.268-0.586-0.667-1.051-1.196-1.394S554.515,11.24,553.695,11.24z"/>
	<path fill="#3F3F3F" d="M570.974,26.781h-5.212V0.188h5.212V26.781z"/>
	<path fill="#3F3F3F" d="M595.833,26.781h-5.298V6.19h-6.785V1.781h18.867V6.19h-6.785V26.781z"/>
	<path fill="#3F3F3F" d="M613.231,7.531c1.766,0,3.287,0.335,4.563,1.006c1.276,0.671,2.261,1.643,2.957,2.917
		c0.695,1.274,1.042,2.83,1.042,4.667v2.503h-12.322c0.057,1.44,0.498,2.57,1.324,3.39s1.974,1.23,3.444,1.23
		c1.219,0,2.335-0.125,3.35-0.376c1.014-0.25,2.056-0.626,3.127-1.128v4.033c-0.946,0.467-1.934,0.809-2.965,1.025
		s-2.281,0.325-3.751,0.325c-1.914,0-3.609-0.349-5.084-1.048s-2.632-1.764-3.469-3.195c-0.837-1.431-1.256-3.234-1.256-5.41
		c0-2.209,0.378-4.049,1.136-5.52s1.814-2.575,3.17-3.313C609.853,7.9,611.431,7.531,613.231,7.531z M613.265,11.24
		c-1.014,0-1.854,0.315-2.521,0.946c-0.667,0.631-1.051,1.621-1.153,2.97h7.314c-0.012-0.752-0.151-1.421-0.419-2.008
		c-0.268-0.586-0.667-1.051-1.196-1.394S614.085,11.24,613.265,11.24z"/>
	<path fill="#3F3F3F" d="M633.09,27.125c-1.892,0-3.503-0.341-4.836-1.022c-1.333-0.682-2.347-1.738-3.042-3.17
		c-0.695-1.432-1.042-3.263-1.042-5.495c0-2.311,0.396-4.195,1.188-5.655s1.891-2.533,3.298-3.221s3.039-1.031,4.896-1.031
		c1.321,0,2.463,0.128,3.426,0.385s1.803,0.561,2.521,0.914l-1.538,4.033c-0.82-0.33-1.584-0.601-2.29-0.812
		c-0.707-0.211-1.413-0.316-2.119-0.316c-0.912,0-1.669,0.21-2.273,0.629c-0.604,0.419-1.054,1.048-1.35,1.887
		c-0.296,0.838-0.444,1.889-0.444,3.152c0,1.241,0.159,2.27,0.479,3.086c0.319,0.816,0.78,1.423,1.384,1.819
		c0.604,0.397,1.338,0.595,2.205,0.595c1.082,0,2.045-0.145,2.888-0.436c0.843-0.291,1.663-0.698,2.461-1.222v4.46
		c-0.798,0.501-1.632,0.863-2.504,1.085C635.525,27.014,634.423,27.125,633.09,27.125z"/>
	<path fill="#3F3F3F" d="M647.839,0.188v5.536c0,0.966-0.032,1.886-0.094,2.759s-0.111,1.49-0.145,1.851h0.273
		c0.41-0.661,0.897-1.196,1.461-1.606s1.188-0.712,1.872-0.906c0.684-0.193,1.418-0.291,2.205-0.291c1.378,0,2.581,0.24,3.606,0.718
		c1.025,0.479,1.823,1.229,2.393,2.248c0.569,1.02,0.854,2.341,0.854,3.963v12.321h-5.212V15.779c0-1.348-0.251-2.364-0.752-3.05
		c-0.501-0.685-1.276-1.028-2.324-1.028c-1.048,0-1.875,0.239-2.478,0.716c-0.604,0.478-1.031,1.179-1.282,2.106
		c-0.251,0.927-0.376,2.059-0.376,3.395v8.863h-5.212V0.188H647.839z"/>
	<path fill="#3F3F3F" d="M675.782,7.531c2.039,0,3.68,0.549,4.922,1.648c1.242,1.099,1.863,2.859,1.863,5.281v12.321h-5.212V15.779
		c0-1.348-0.248-2.364-0.744-3.05c-0.496-0.685-1.273-1.028-2.333-1.028c-1.595,0-2.683,0.534-3.264,1.601
		c-0.581,1.067-0.872,2.606-0.872,4.617v8.863h-5.212V7.875h3.982l0.701,2.459h0.291c0.41-0.661,0.92-1.196,1.529-1.606
		s1.288-0.712,2.034-0.906C674.212,7.628,674.984,7.531,675.782,7.531z"/>
	<path fill="#3F3F3F" d="M689.848,0.39c0.774,0,1.441,0.18,2,0.539c0.558,0.359,0.837,1.028,0.837,2.008
		c0,0.969-0.279,1.638-0.837,2.008c-0.559,0.37-1.225,0.555-2,0.555c-0.786,0-1.456-0.185-2.008-0.555s-0.829-1.04-0.829-2.008
		c0-0.979,0.276-1.649,0.829-2.008S689.062,0.39,689.848,0.39z M692.445,7.875v18.906h-5.212V7.875H692.445z"/>
	<path fill="#3F3F3F" d="M708.681,35.156v-7.989c0-0.477,0.02-0.957,0.06-1.439c0.04-0.482,0.094-0.957,0.163-1.422h-0.222
		c-0.49,0.786-1.165,1.453-2.025,2s-1.991,0.82-3.392,0.82c-2.153,0-3.894-0.825-5.221-2.477s-1.991-4.077-1.991-7.278
		c0-2.152,0.308-3.958,0.923-5.418c0.615-1.459,1.472-2.561,2.572-3.305c1.1-0.744,2.373-1.116,3.82-1.116
		c1.401,0,2.538,0.271,3.409,0.812s1.581,1.205,2.128,1.991h0.137l0.461-2.459h4.411v27.281H708.681z M705.126,23.041
		c0.957,0,1.717-0.184,2.281-0.553s0.971-0.925,1.222-1.669c0.25-0.744,0.387-1.675,0.41-2.793v-0.621
		c0-1.822-0.285-3.217-0.854-4.185c-0.57-0.967-1.618-1.451-3.145-1.451c-1.242,0-2.165,0.487-2.769,1.459
		c-0.604,0.973-0.906,2.376-0.906,4.209c0,1.868,0.308,3.268,0.923,4.202S703.85,23.041,705.126,23.041z"/>
	<path fill="#3F3F3F" d="M736.197,7.875v18.906h-4l-0.699-2.442h-0.273c-0.41,0.649-0.924,1.179-1.539,1.589
		s-1.293,0.712-2.033,0.906s-1.51,0.291-2.307,0.291c-1.367,0-2.559-0.24-3.572-0.719c-1.014-0.479-1.803-1.227-2.367-2.241
		s-0.846-2.334-0.846-3.958V7.875h5.213V18.89c0,1.35,0.244,2.367,0.734,3.053s1.27,1.029,2.342,1.029
		c1.059,0,1.891-0.239,2.494-0.717c0.604-0.478,1.027-1.181,1.273-2.108c0.244-0.928,0.367-2.061,0.367-3.399V7.875H736.197z"/>
	<path fill="#3F3F3F" d="M748.844,7.531c1.766,0,3.287,0.335,4.563,1.006c1.277,0.671,2.262,1.643,2.957,2.917
		c0.695,1.274,1.043,2.83,1.043,4.667v2.503h-12.322c0.057,1.44,0.498,2.57,1.324,3.39s1.975,1.23,3.443,1.23
		c1.219,0,2.336-0.125,3.35-0.376c1.014-0.25,2.057-0.626,3.129-1.128v4.033c-0.947,0.467-1.936,0.809-2.967,1.025
		s-2.281,0.325-3.75,0.325c-1.914,0-3.609-0.349-5.084-1.048c-1.477-0.699-2.633-1.764-3.471-3.195
		c-0.836-1.431-1.256-3.234-1.256-5.41c0-2.209,0.379-4.049,1.137-5.52s1.814-2.575,3.17-3.313S747.043,7.531,748.844,7.531z
		 M748.879,11.24c-1.016,0-1.855,0.315-2.521,0.946c-0.666,0.631-1.051,1.621-1.154,2.97h7.314c-0.012-0.752-0.15-1.421-0.418-2.008
		c-0.268-0.586-0.666-1.051-1.197-1.394C750.373,11.412,749.699,11.24,748.879,11.24z"/>
	<path fill="#3F3F3F" d="M774.275,21.174c0,1.285-0.305,2.37-0.914,3.254s-1.52,1.556-2.727,2.012s-2.711,0.685-4.512,0.685
		c-1.332,0-2.475-0.085-3.426-0.256s-1.912-0.456-2.881-0.854v-4.307c1.037,0.467,2.15,0.852,3.342,1.154
		c1.189,0.302,2.236,0.453,3.137,0.453c1.014,0,1.74-0.146,2.178-0.437c0.439-0.291,0.658-0.673,0.658-1.146
		c0-0.315-0.088-0.6-0.266-0.854c-0.176-0.253-0.555-0.541-1.135-0.862c-0.582-0.321-1.494-0.741-2.734-1.259
		c-1.197-0.496-2.18-0.998-2.949-1.505c-0.77-0.507-1.338-1.107-1.709-1.8c-0.369-0.693-0.555-1.575-0.555-2.646
		c0-1.747,0.686-3.063,2.059-3.947s3.211-1.327,5.512-1.327c1.186,0,2.316,0.12,3.393,0.359s2.184,0.621,3.324,1.145l-1.572,3.76
		c-0.945-0.41-1.838-0.746-2.676-1.008c-0.836-0.262-1.688-0.393-2.555-0.393c-0.764,0-1.338,0.101-1.725,0.301
		c-0.389,0.201-0.582,0.507-0.582,0.92c0,0.301,0.1,0.569,0.299,0.803s0.588,0.494,1.162,0.778c0.576,0.284,1.422,0.649,2.539,1.095
		c1.082,0.439,2.021,0.899,2.818,1.378c0.799,0.479,1.414,1.071,1.846,1.775C774.059,19.148,774.275,20.059,774.275,21.174z"/>
	<path fill="#3F3F3F" d="M798.246,11.789h-4.512v14.993h-5.213V11.789h-2.871V9.276l2.871-1.433V6.411
		c0-1.665,0.275-2.961,0.828-3.887s1.334-1.578,2.342-1.957C792.699,0.189,793.893,0,795.271,0c1.014,0,1.938,0.083,2.77,0.248
		s1.51,0.35,2.033,0.555l-1.332,3.828c-0.4-0.125-0.832-0.239-1.299-0.342c-0.469-0.103-1.004-0.154-1.607-0.154
		c-0.729,0-1.262,0.232-1.598,0.696s-0.504,1.057-0.504,1.779v1.265h4.512V11.789z"/>
	<path fill="#3F3F3F" d="M817.898,17.303c0,1.578-0.213,2.976-0.641,4.193s-1.049,2.246-1.863,3.085s-1.793,1.474-2.939,1.902
		c-1.145,0.428-2.434,0.642-3.869,0.642c-1.346,0-2.578-0.214-3.701-0.642c-1.121-0.428-2.096-1.062-2.922-1.902
		s-1.465-1.868-1.914-3.085c-0.451-1.217-0.676-2.615-0.676-4.193c0-2.096,0.377-3.871,1.129-5.325s1.822-2.559,3.213-3.313
		c1.389-0.755,3.047-1.133,4.973-1.133c1.789,0,3.375,0.378,4.76,1.133s2.473,1.859,3.264,3.313
		C817.504,13.432,817.898,15.207,817.898,17.303z M804.689,17.303c0,1.23,0.137,2.264,0.41,3.103
		c0.273,0.839,0.699,1.47,1.281,1.895c0.58,0.425,1.338,0.637,2.273,0.637c0.922,0,1.672-0.212,2.246-0.637
		c0.576-0.425,0.998-1.056,1.266-1.895c0.268-0.838,0.4-1.873,0.4-3.103c0-1.241-0.133-2.272-0.4-3.094
		c-0.268-0.821-0.693-1.439-1.273-1.853c-0.582-0.414-1.34-0.621-2.273-0.621c-1.379,0-2.379,0.464-3,1.392
		S804.689,15.447,804.689,17.303z"/>
	<path fill="#3F3F3F" d="M832.17,7.531c0.262,0,0.566,0.015,0.914,0.043s0.629,0.065,0.846,0.111l-0.393,4.888
		c-0.172-0.057-0.414-0.1-0.727-0.128c-0.314-0.028-0.584-0.043-0.813-0.043c-0.672,0-1.324,0.084-1.957,0.253
		c-0.631,0.168-1.199,0.44-1.699,0.816c-0.502,0.376-0.898,0.87-1.188,1.482c-0.291,0.612-0.436,1.361-0.436,2.248v9.581h-5.213
		V7.875h3.947l0.77,3.228h0.256c0.377-0.649,0.846-1.245,1.41-1.786s1.207-0.974,1.932-1.299
		C830.543,7.694,831.326,7.531,832.17,7.531z"/>
	<path fill="#3F3F3F" d="M854.432,1.781c2.268,0,4.139,0.274,5.613,0.821c1.477,0.547,2.572,1.374,3.291,2.479
		c0.717,1.106,1.076,2.502,1.076,4.189c0,1.14-0.217,2.138-0.65,2.993c-0.432,0.855-1.002,1.579-1.709,2.171
		c-0.705,0.593-1.469,1.078-2.289,1.454l7.348,10.893h-5.879l-5.963-9.594h-2.82v9.594h-5.299v-25H854.432z M854.055,6.122h-1.605
		v6.759h1.709c1.754,0,3.01-0.293,3.768-0.881s1.137-1.452,1.137-2.593c0-1.186-0.408-2.03-1.223-2.532S855.764,6.122,854.055,6.122
		z"/>
	<path fill="#3F3F3F" d="M886.51,17.303c0,1.578-0.215,2.976-0.641,4.193c-0.428,1.217-1.049,2.246-1.863,3.085
		s-1.795,1.474-2.939,1.902c-1.145,0.428-2.436,0.642-3.871,0.642c-1.344,0-2.578-0.214-3.699-0.642
		c-1.123-0.428-2.098-1.062-2.924-1.902s-1.463-1.868-1.914-3.085c-0.449-1.217-0.674-2.615-0.674-4.193
		c0-2.096,0.375-3.871,1.127-5.325s1.824-2.559,3.213-3.313c1.391-0.755,3.049-1.133,4.975-1.133c1.787,0,3.375,0.378,4.758,1.133
		c1.385,0.755,2.473,1.859,3.266,3.313C886.113,13.432,886.51,15.207,886.51,17.303z M873.299,17.303c0,1.23,0.137,2.264,0.41,3.103
		c0.273,0.839,0.701,1.47,1.281,1.895c0.582,0.425,1.34,0.637,2.273,0.637c0.924,0,1.672-0.212,2.248-0.637
		c0.574-0.425,0.996-1.056,1.264-1.895c0.268-0.838,0.402-1.873,0.402-3.103c0-1.241-0.135-2.272-0.402-3.094
		c-0.268-0.821-0.691-1.439-1.273-1.853c-0.58-0.414-1.338-0.621-2.271-0.621c-1.379,0-2.379,0.464-3,1.392
		S873.299,15.447,873.299,17.303z"/>
	<path fill="#3F3F3F" d="M895.328,0.188v6.321c0,0.733-0.02,1.461-0.061,2.183c-0.039,0.722-0.088,1.281-0.145,1.676h0.205
		c0.502-0.786,1.186-1.455,2.051-2.008s1.988-0.829,3.367-0.829c2.141,0,3.879,0.829,5.213,2.485
		c1.332,1.657,1.998,4.085,1.998,7.286c0,2.153-0.307,3.959-0.922,5.418s-1.477,2.558-2.58,3.296
		c-1.105,0.738-2.389,1.107-3.846,1.107c-1.402,0-2.508-0.251-3.316-0.752s-1.463-1.065-1.965-1.692h-0.359l-0.871,2.1h-3.982V0.188
		H895.328z M899.07,11.701c-0.91,0-1.635,0.185-2.17,0.554s-0.926,0.922-1.17,1.66c-0.246,0.738-0.379,1.671-0.402,2.8v0.554
		c0,1.822,0.273,3.217,0.82,4.184c0.547,0.967,1.543,1.451,2.99,1.451c1.072,0,1.924-0.486,2.555-1.459
		c0.633-0.973,0.949-2.375,0.949-4.209c0-1.833-0.318-3.214-0.957-4.142S900.176,11.701,899.07,11.701z"/>
	<path fill="#3F3F3F" d="M929.1,7.875v18.906h-4l-0.699-2.442h-0.273c-0.41,0.649-0.924,1.179-1.539,1.589s-1.293,0.712-2.033,0.906
		s-1.51,0.291-2.307,0.291c-1.367,0-2.559-0.24-3.572-0.719c-1.014-0.479-1.803-1.227-2.367-2.241s-0.846-2.334-0.846-3.958V7.875
		h5.213V18.89c0,1.35,0.244,2.367,0.734,3.053s1.27,1.029,2.342,1.029c1.059,0,1.891-0.239,2.494-0.717
		c0.604-0.478,1.027-1.181,1.273-2.108c0.244-0.928,0.367-2.061,0.367-3.399V7.875H929.1z"/>
	<path fill="#3F3F3F" d="M947.197,21.174c0,1.285-0.305,2.37-0.914,3.254s-1.518,1.556-2.725,2.012
		c-1.209,0.456-2.713,0.685-4.512,0.685c-1.334,0-2.477-0.085-3.428-0.256s-1.91-0.456-2.879-0.854v-4.307
		c1.037,0.467,2.15,0.852,3.34,1.154c1.191,0.302,2.236,0.453,3.137,0.453c1.014,0,1.74-0.146,2.18-0.437
		c0.438-0.291,0.658-0.673,0.658-1.146c0-0.315-0.09-0.6-0.266-0.854c-0.178-0.253-0.555-0.541-1.137-0.862
		c-0.58-0.321-1.492-0.741-2.734-1.259c-1.195-0.496-2.18-0.998-2.947-1.505c-0.77-0.507-1.34-1.107-1.709-1.8
		c-0.371-0.693-0.557-1.575-0.557-2.646c0-1.747,0.688-3.063,2.061-3.947s3.209-1.327,5.512-1.327c1.184,0,2.314,0.12,3.391,0.359
		c1.078,0.239,2.186,0.621,3.324,1.145l-1.572,3.76c-0.945-0.41-1.836-0.746-2.674-1.008c-0.838-0.262-1.689-0.393-2.555-0.393
		c-0.764,0-1.34,0.101-1.727,0.301s-0.58,0.507-0.58,0.92c0,0.301,0.1,0.569,0.299,0.803s0.586,0.494,1.162,0.778
		c0.574,0.284,1.42,0.649,2.537,1.095c1.082,0.439,2.021,0.899,2.82,1.378c0.797,0.479,1.412,1.071,1.846,1.775
		C946.98,19.148,947.197,20.059,947.197,21.174z"/>
	<path fill="#3F3F3F" d="M958.615,22.972c0.568,0,1.125-0.057,1.666-0.171c0.541-0.114,1.078-0.256,1.615-0.427v3.879
		c-0.559,0.251-1.252,0.459-2.078,0.624c-0.826,0.165-1.729,0.248-2.707,0.248c-1.141,0-2.162-0.183-3.068-0.548
		s-1.617-1.001-2.137-1.906c-0.518-0.905-0.777-2.168-0.777-3.788v-9.094h-2.494V9.584l2.871-1.743l1.504-4.028h3.332v4.063h5.35
		v3.914h-5.35v9.051c0,0.717,0.207,1.251,0.623,1.604S957.932,22.972,958.615,22.972z"/>
	<path fill="#3F3F3F" d="M995.111,1.781l-8.494,25h-5.775l-8.477-25h5.35l4.699,14.877c0.08,0.251,0.211,0.721,0.393,1.411
		s0.367,1.419,0.555,2.188c0.189,0.77,0.316,1.405,0.385,1.907c0.068-0.501,0.191-1.134,0.367-1.898
		c0.178-0.764,0.354-1.491,0.531-2.18c0.176-0.689,0.305-1.166,0.385-1.428l4.732-14.877H995.111z"/>
	<path fill="#3F3F3F" d="M1014.508,17.303c0,1.578-0.213,2.976-0.641,4.193s-1.049,2.246-1.863,3.085s-1.793,1.474-2.939,1.902
		c-1.145,0.428-2.434,0.642-3.869,0.642c-1.346,0-2.578-0.214-3.701-0.642c-1.121-0.428-2.096-1.062-2.922-1.902
		s-1.465-1.868-1.914-3.085c-0.451-1.217-0.676-2.615-0.676-4.193c0-2.096,0.377-3.871,1.129-5.325s1.822-2.559,3.213-3.313
		c1.389-0.755,3.047-1.133,4.973-1.133c1.789,0,3.375,0.378,4.76,1.133s2.473,1.859,3.264,3.313
		C1014.113,13.432,1014.508,15.207,1014.508,17.303z M1001.299,17.303c0,1.23,0.137,2.264,0.41,3.103
		c0.273,0.839,0.699,1.47,1.281,1.895c0.58,0.425,1.338,0.637,2.273,0.637c0.922,0,1.672-0.212,2.246-0.637
		c0.576-0.425,0.998-1.056,1.266-1.895c0.268-0.838,0.4-1.873,0.4-3.103c0-1.241-0.133-2.272-0.4-3.094
		c-0.268-0.821-0.693-1.439-1.273-1.853c-0.582-0.414-1.34-0.621-2.273-0.621c-1.379,0-2.379,0.464-3,1.392
		S1001.299,15.447,1001.299,17.303z"/>
	<path fill="#3F3F3F" d="M1022.029,17.125l-6.152-9.25h5.912l3.709,6.02l3.742-6.02h5.914l-6.221,9.25l6.51,9.656h-5.93
		l-4.016-6.477l-4.033,6.477h-5.914L1022.029,17.125z"/>
	<path fill="#3F3F3F" d="M1045.527,7.531c1.766,0,3.287,0.335,4.563,1.006c1.277,0.671,2.262,1.643,2.957,2.917
		c0.695,1.274,1.043,2.83,1.043,4.667v2.503h-12.322c0.057,1.44,0.498,2.57,1.324,3.39s1.975,1.23,3.443,1.23
		c1.219,0,2.336-0.125,3.35-0.376c1.014-0.25,2.057-0.626,3.129-1.128v4.033c-0.947,0.467-1.936,0.809-2.967,1.025
		s-2.281,0.325-3.75,0.325c-1.914,0-3.609-0.349-5.084-1.048c-1.477-0.699-2.633-1.764-3.471-3.195
		c-0.836-1.431-1.256-3.234-1.256-5.41c0-2.209,0.379-4.049,1.137-5.52s1.814-2.575,3.17-3.313S1043.727,7.531,1045.527,7.531z
		 M1045.563,11.24c-1.016,0-1.855,0.315-2.521,0.946c-0.666,0.631-1.051,1.621-1.154,2.97h7.314
		c-0.012-0.752-0.15-1.421-0.418-2.008c-0.268-0.586-0.666-1.051-1.197-1.394C1047.057,11.412,1046.383,11.24,1045.563,11.24z"/>
	<path fill="#3F3F3F" d="M1062.842,26.781h-5.213V0.188h5.213V26.781z"/>
	<path fill="#3F3F3F" d="M1070.225,0.39c0.773,0,1.439,0.18,1.998,0.539s0.838,1.028,0.838,2.008c0,0.969-0.279,1.638-0.838,2.008
		s-1.225,0.555-1.998,0.555c-0.787,0-1.457-0.185-2.01-0.555s-0.828-1.04-0.828-2.008c0-0.979,0.275-1.649,0.828-2.008
		S1069.438,0.39,1070.225,0.39z M1072.822,7.875v18.906h-5.213V7.875H1072.822z"/>
	<path fill="#3F3F3F" d="M1090.887,26.781h-15.09v-3.076l8.852-11.848h-8.322V7.875h14.252v3.384l-8.613,11.541h8.922V26.781z"/>
	<path fill="#3F3F3F" d="M1101.789,7.531c2.564,0,4.529,0.551,5.896,1.653c1.367,1.103,2.051,2.778,2.051,5.028v12.569h-3.641
		l-1.008-2.596h-0.137c-0.547,0.684-1.105,1.242-1.674,1.675c-0.57,0.433-1.227,0.752-1.967,0.957s-1.641,0.308-2.699,0.308
		c-1.129,0-2.139-0.214-3.033-0.642c-0.895-0.428-1.598-1.084-2.111-1.968c-0.512-0.884-0.77-2.007-0.77-3.37
		c0-2.004,0.713-3.482,2.137-4.434c1.424-0.951,3.561-1.478,6.408-1.579l3.316-0.102v-0.814c0-0.975-0.262-1.688-0.787-2.143
		c-0.523-0.454-1.252-0.681-2.188-0.681c-0.922,0-1.828,0.131-2.717,0.393c-0.889,0.262-1.777,0.593-2.666,0.991l-1.727-3.521
		c1.014-0.535,2.15-0.957,3.41-1.265C1099.143,7.685,1100.445,7.531,1101.789,7.531z M1104.559,18.073l-2.018,0.066
		c-1.686,0.045-2.855,0.339-3.512,0.882c-0.654,0.543-0.982,1.259-0.982,2.146c0,0.776,0.234,1.328,0.701,1.655
		s1.076,0.491,1.828,0.491c1.117,0,2.059-0.321,2.828-0.965c0.77-0.643,1.154-1.558,1.154-2.745V18.073z"/>
	<path fill="#3F3F3F" d="M1122.453,22.972c0.568,0,1.125-0.057,1.666-0.171c0.541-0.114,1.078-0.256,1.615-0.427v3.879
		c-0.559,0.251-1.252,0.459-2.078,0.624c-0.826,0.165-1.729,0.248-2.707,0.248c-1.141,0-2.162-0.183-3.068-0.548
		s-1.617-1.001-2.137-1.906c-0.518-0.905-0.777-2.168-0.777-3.788v-9.094h-2.494V9.584l2.871-1.743l1.504-4.028h3.332v4.063h5.35
		v3.914h-5.35v9.051c0,0.717,0.207,1.251,0.623,1.604S1121.77,22.972,1122.453,22.972z"/>
	<path fill="#3F3F3F" d="M1131.512,0.39c0.775,0,1.441,0.18,2,0.539s0.838,1.028,0.838,2.008c0,0.969-0.279,1.638-0.838,2.008
		s-1.225,0.555-2,0.555c-0.785,0-1.455-0.185-2.008-0.555s-0.828-1.04-0.828-2.008c0-0.979,0.275-1.649,0.828-2.008
		S1130.727,0.39,1131.512,0.39z M1134.109,7.875v18.906h-5.213V7.875H1134.109z"/>
	<path fill="#3F3F3F" d="M1156.242,17.303c0,1.578-0.215,2.976-0.641,4.193c-0.428,1.217-1.049,2.246-1.863,3.085
		s-1.795,1.474-2.939,1.902c-1.145,0.428-2.436,0.642-3.871,0.642c-1.344,0-2.578-0.214-3.699-0.642
		c-1.123-0.428-2.098-1.062-2.924-1.902s-1.463-1.868-1.914-3.085c-0.449-1.217-0.674-2.615-0.674-4.193
		c0-2.096,0.375-3.871,1.127-5.325s1.824-2.559,3.213-3.313c1.391-0.755,3.049-1.133,4.975-1.133c1.787,0,3.375,0.378,4.758,1.133
		c1.385,0.755,2.473,1.859,3.266,3.313C1155.846,13.432,1156.242,15.207,1156.242,17.303z M1143.031,17.303
		c0,1.23,0.137,2.264,0.41,3.103c0.273,0.839,0.701,1.47,1.281,1.895c0.582,0.425,1.34,0.637,2.273,0.637
		c0.924,0,1.672-0.212,2.248-0.637c0.574-0.425,0.996-1.056,1.264-1.895c0.268-0.838,0.402-1.873,0.402-3.103
		c0-1.241-0.135-2.272-0.402-3.094c-0.268-0.821-0.691-1.439-1.273-1.853c-0.58-0.414-1.338-0.621-2.271-0.621
		c-1.379,0-2.379,0.464-3,1.392S1143.031,15.447,1143.031,17.303z"/>
	<path fill="#3F3F3F" d="M1170.701,7.531c2.039,0,3.68,0.549,4.922,1.648c1.24,1.099,1.861,2.859,1.861,5.281v12.321h-5.211V15.779
		c0-1.348-0.248-2.364-0.744-3.05c-0.496-0.685-1.273-1.028-2.332-1.028c-1.596,0-2.684,0.534-3.266,1.601
		c-0.58,1.067-0.871,2.606-0.871,4.617v8.863h-5.213V7.875h3.982l0.701,2.459h0.291c0.41-0.661,0.92-1.196,1.529-1.606
		s1.287-0.712,2.033-0.906C1169.131,7.628,1169.902,7.531,1170.701,7.531z"/>
	<path fill="#3F3F3F" d="M1200.02,7.531c2.564,0,4.529,0.551,5.896,1.653c1.367,1.103,2.051,2.778,2.051,5.028v12.569h-3.641
		l-1.008-2.596h-0.137c-0.547,0.684-1.105,1.242-1.674,1.675c-0.57,0.433-1.227,0.752-1.967,0.957s-1.641,0.308-2.699,0.308
		c-1.129,0-2.139-0.214-3.033-0.642c-0.895-0.428-1.598-1.084-2.111-1.968c-0.512-0.884-0.77-2.007-0.77-3.37
		c0-2.004,0.713-3.482,2.137-4.434c1.424-0.951,3.561-1.478,6.408-1.579l3.316-0.102v-0.814c0-0.975-0.262-1.688-0.787-2.143
		c-0.523-0.454-1.252-0.681-2.188-0.681c-0.922,0-1.828,0.131-2.717,0.393c-0.889,0.262-1.777,0.593-2.666,0.991l-1.727-3.521
		c1.014-0.535,2.15-0.957,3.41-1.265C1197.373,7.685,1198.676,7.531,1200.02,7.531z M1202.789,18.073l-2.018,0.066
		c-1.686,0.045-2.855,0.339-3.512,0.882c-0.654,0.543-0.982,1.259-0.982,2.146c0,0.776,0.234,1.328,0.701,1.655
		s1.076,0.491,1.828,0.491c1.117,0,2.059-0.321,2.828-0.965c0.77-0.643,1.154-1.558,1.154-2.745V18.073z"/>
	<path fill="#3F3F3F" d="M1223.484,7.531c2.039,0,3.68,0.549,4.922,1.648s1.863,2.859,1.863,5.281v12.321h-5.213V15.779
		c0-1.348-0.248-2.364-0.744-3.05c-0.494-0.685-1.271-1.028-2.332-1.028c-1.596,0-2.684,0.534-3.264,1.601
		c-0.582,1.067-0.871,2.606-0.871,4.617v8.863h-5.213V7.875h3.982l0.699,2.459h0.291c0.41-0.661,0.92-1.196,1.529-1.606
		s1.287-0.712,2.033-0.906C1221.914,7.628,1222.688,7.531,1223.484,7.531z"/>
	<path fill="#3F3F3F" d="M1240.984,27.125c-2.131,0-3.865-0.825-5.203-2.477c-1.34-1.651-2.008-4.077-2.008-7.278
		c0-3.234,0.678-5.683,2.033-7.346c1.355-1.662,3.127-2.494,5.314-2.494c0.912,0,1.715,0.125,2.41,0.376
		c0.695,0.251,1.297,0.587,1.803,1.008c0.508,0.422,0.938,0.895,1.291,1.418h0.17c-0.068-0.373-0.15-0.923-0.248-1.65
		c-0.096-0.728-0.145-1.476-0.145-2.244V0.188h5.23v26.594h-4l-1.008-2.476h-0.223c-0.33,0.524-0.744,1-1.238,1.427
		c-0.496,0.427-1.086,0.766-1.77,1.017S1241.908,27.125,1240.984,27.125z M1242.814,22.972c1.424,0,2.428-0.417,3.016-1.25
		c0.586-0.833,0.896-2.088,0.932-3.765v-0.554c0-1.822-0.285-3.217-0.855-4.184c-0.568-0.967-1.629-1.451-3.178-1.451
		c-1.15,0-2.051,0.486-2.701,1.459c-0.648,0.973-0.973,2.376-0.973,4.209c0,1.834,0.326,3.215,0.982,4.143
		C1240.691,22.508,1241.617,22.972,1242.814,22.972z"/>
	<path fill="#3F3F3F" d="M1286.438,1.781l-8.494,25h-5.775l-8.477-25h5.35l4.699,14.877c0.08,0.251,0.211,0.721,0.393,1.411
		s0.367,1.419,0.555,2.188c0.189,0.77,0.316,1.405,0.385,1.907c0.068-0.501,0.191-1.134,0.367-1.898
		c0.178-0.764,0.354-1.491,0.531-2.18c0.176-0.689,0.305-1.166,0.385-1.428l4.732-14.877H1286.438z"/>
	<path fill="#3F3F3F" d="M1291.088,0.39c0.775,0,1.441,0.18,2,0.539s0.838,1.028,0.838,2.008c0,0.969-0.279,1.638-0.838,2.008
		s-1.225,0.555-2,0.555c-0.785,0-1.455-0.185-2.008-0.555s-0.828-1.04-0.828-2.008c0-0.979,0.275-1.649,0.828-2.008
		S1290.303,0.39,1291.088,0.39z M1293.686,7.875v18.906h-5.213V7.875H1293.686z"/>
	<path fill="#3F3F3F" d="M1311.785,21.174c0,1.285-0.305,2.37-0.914,3.254s-1.52,1.556-2.727,2.012s-2.711,0.685-4.512,0.685
		c-1.332,0-2.475-0.085-3.426-0.256s-1.912-0.456-2.881-0.854v-4.307c1.037,0.467,2.15,0.852,3.342,1.154
		c1.189,0.302,2.236,0.453,3.137,0.453c1.014,0,1.74-0.146,2.178-0.437c0.439-0.291,0.658-0.673,0.658-1.146
		c0-0.315-0.088-0.6-0.266-0.854c-0.176-0.253-0.555-0.541-1.135-0.862c-0.582-0.321-1.494-0.741-2.734-1.259
		c-1.197-0.496-2.18-0.998-2.949-1.505c-0.77-0.507-1.338-1.107-1.709-1.8c-0.369-0.693-0.555-1.575-0.555-2.646
		c0-1.747,0.686-3.063,2.059-3.947s3.211-1.327,5.512-1.327c1.186,0,2.316,0.12,3.393,0.359s2.184,0.621,3.324,1.145l-1.572,3.76
		c-0.945-0.41-1.838-0.746-2.676-1.008c-0.836-0.262-1.688-0.393-2.555-0.393c-0.764,0-1.338,0.101-1.725,0.301
		c-0.389,0.201-0.582,0.507-0.582,0.92c0,0.301,0.1,0.569,0.299,0.803s0.588,0.494,1.162,0.778c0.576,0.284,1.422,0.649,2.539,1.095
		c1.082,0.439,2.021,0.899,2.818,1.378c0.799,0.479,1.414,1.071,1.846,1.775C1311.568,19.148,1311.785,20.059,1311.785,21.174z"/>
	<path fill="#3F3F3F" d="M1332.686,7.875v18.906h-3.998l-0.701-2.442h-0.273c-0.41,0.649-0.922,1.179-1.537,1.589
		s-1.295,0.712-2.035,0.906s-1.51,0.291-2.307,0.291c-1.367,0-2.559-0.24-3.572-0.719c-1.014-0.479-1.803-1.227-2.367-2.241
		c-0.563-1.015-0.846-2.334-0.846-3.958V7.875h5.213V18.89c0,1.35,0.244,2.367,0.734,3.053s1.271,1.029,2.342,1.029
		c1.061,0,1.891-0.239,2.496-0.717c0.604-0.478,1.027-1.181,1.271-2.108c0.246-0.928,0.369-2.061,0.369-3.399V7.875H1332.686z"/>
	<path fill="#3F3F3F" d="M1345.281,7.531c2.564,0,4.529,0.551,5.896,1.653c1.367,1.103,2.051,2.778,2.051,5.028v12.569h-3.641
		l-1.008-2.596h-0.137c-0.547,0.684-1.105,1.242-1.674,1.675c-0.57,0.433-1.227,0.752-1.967,0.957s-1.641,0.308-2.699,0.308
		c-1.129,0-2.139-0.214-3.033-0.642c-0.895-0.428-1.598-1.084-2.111-1.968c-0.512-0.884-0.77-2.007-0.77-3.37
		c0-2.004,0.713-3.482,2.137-4.434c1.424-0.951,3.561-1.478,6.408-1.579l3.316-0.102v-0.814c0-0.975-0.262-1.688-0.787-2.143
		c-0.523-0.454-1.252-0.681-2.188-0.681c-0.922,0-1.828,0.131-2.717,0.393c-0.889,0.262-1.777,0.593-2.666,0.991l-1.727-3.521
		c1.014-0.535,2.15-0.957,3.41-1.265C1342.635,7.685,1343.938,7.531,1345.281,7.531z M1348.051,18.073l-2.018,0.066
		c-1.686,0.045-2.855,0.339-3.512,0.882c-0.654,0.543-0.982,1.259-0.982,2.146c0,0.776,0.234,1.328,0.701,1.655
		s1.076,0.491,1.828,0.491c1.117,0,2.059-0.321,2.828-0.965c0.77-0.643,1.154-1.558,1.154-2.745V18.073z"/>
	<path fill="#3F3F3F" d="M1363.107,26.781h-5.213V0.188h5.213V26.781z"/>
	<path fill="#3F3F3F" d="M1370.492,0.39c0.775,0,1.441,0.18,2,0.539s0.838,1.028,0.838,2.008c0,0.969-0.279,1.638-0.838,2.008
		s-1.225,0.555-2,0.555c-0.785,0-1.455-0.185-2.008-0.555s-0.828-1.04-0.828-2.008c0-0.979,0.275-1.649,0.828-2.008
		S1369.707,0.39,1370.492,0.39z M1373.09,7.875v18.906h-5.213V7.875H1373.09z"/>
	<path fill="#3F3F3F" d="M1391.154,26.781h-15.09v-3.076l8.854-11.848h-8.324V7.875h14.254v3.384l-8.613,11.541h8.92V26.781z"/>
	<path fill="#3F3F3F" d="M1402.059,7.531c2.563,0,4.529,0.551,5.896,1.653c1.367,1.103,2.051,2.778,2.051,5.028v12.569h-3.641
		l-1.008-2.596h-0.137c-0.547,0.684-1.105,1.242-1.676,1.675c-0.57,0.433-1.225,0.752-1.965,0.957s-1.641,0.308-2.701,0.308
		c-1.127,0-2.139-0.214-3.033-0.642c-0.895-0.428-1.598-1.084-2.109-1.968c-0.514-0.884-0.77-2.007-0.77-3.37
		c0-2.004,0.711-3.482,2.137-4.434c1.424-0.951,3.559-1.478,6.408-1.579l3.314-0.102v-0.814c0-0.975-0.262-1.688-0.785-2.143
		c-0.525-0.454-1.254-0.681-2.188-0.681c-0.924,0-1.828,0.131-2.717,0.393c-0.889,0.262-1.777,0.593-2.666,0.991l-1.727-3.521
		c1.014-0.535,2.15-0.957,3.408-1.265C1399.412,7.685,1400.713,7.531,1402.059,7.531z M1404.826,18.073l-2.016,0.066
		c-1.688,0.045-2.857,0.339-3.512,0.882c-0.656,0.543-0.982,1.259-0.982,2.146c0,0.776,0.232,1.328,0.699,1.655
		s1.078,0.491,1.83,0.491c1.115,0,2.059-0.321,2.828-0.965c0.768-0.643,1.152-1.558,1.152-2.745V18.073z"/>
	<path fill="#3F3F3F" d="M1412.98,19.531v-4.272h9.176v4.272H1412.98z"/>
	<path fill="#3F3F3F" d="M9.98,72.973c0.569,0,1.125-0.057,1.666-0.172c0.541-0.113,1.08-0.256,1.615-0.427v3.88
		c-0.559,0.25-1.25,0.459-2.077,0.623c-0.826,0.165-1.729,0.248-2.708,0.248c-1.14,0-2.162-0.184-3.068-0.549s-1.618-1-2.136-1.906
		c-0.519-0.904-0.777-2.168-0.777-3.787v-9.094H0v-2.205l2.871-1.743l1.504-4.028h3.333v4.063h5.349v3.914H7.708v9.051
		c0,0.717,0.208,1.251,0.624,1.604S9.297,72.973,9.98,72.973z"/>
	<path fill="#3F3F3F" d="M19.039,50.391c0.774,0,1.441,0.18,2,0.538c0.558,0.358,0.837,1.028,0.837,2.008
		c0,0.969-0.279,1.638-0.837,2.009c-0.559,0.369-1.225,0.555-2,0.555c-0.786,0-1.456-0.186-2.008-0.555
		c-0.553-0.371-0.829-1.04-0.829-2.009c0-0.979,0.276-1.649,0.829-2.008S18.252,50.391,19.039,50.391z M21.636,57.875v18.906h-5.212
		V57.875H21.636z"/>
	<path fill="#3F3F3F" d="M43.769,67.303c0,1.578-0.214,2.976-0.641,4.193c-0.427,1.217-1.048,2.245-1.863,3.085
		s-1.794,1.474-2.939,1.901s-2.435,0.643-3.871,0.643c-1.345,0-2.578-0.215-3.7-0.643s-2.096-1.062-2.922-1.901
		s-1.464-1.868-1.914-3.085c-0.45-1.218-0.675-2.615-0.675-4.193c0-2.096,0.376-3.871,1.128-5.325s1.823-2.559,3.213-3.313
		c1.39-0.755,3.047-1.133,4.973-1.133c1.789,0,3.375,0.378,4.759,1.133s2.472,1.859,3.264,3.313S43.769,65.207,43.769,67.303z
		 M30.558,67.303c0,1.23,0.137,2.265,0.41,3.104c0.273,0.838,0.701,1.47,1.282,1.895s1.338,0.637,2.273,0.637
		c0.923,0,1.672-0.212,2.247-0.637s0.997-1.057,1.265-1.895c0.268-0.839,0.402-1.873,0.402-3.104c0-1.24-0.134-2.271-0.402-3.094
		c-0.268-0.821-0.692-1.439-1.273-1.854c-0.581-0.413-1.339-0.62-2.273-0.62c-1.379,0-2.378,0.464-3,1.392
		S30.558,65.447,30.558,67.303z"/>
	<path fill="#3F3F3F" d="M58.227,57.531c2.039,0,3.68,0.549,4.922,1.648c1.242,1.098,1.863,2.858,1.863,5.281v12.32h-5.212V65.779
		c0-1.348-0.248-2.365-0.744-3.051c-0.496-0.685-1.273-1.027-2.333-1.027c-1.595,0-2.683,0.533-3.264,1.601
		s-0.872,2.606-0.872,4.616v8.863h-5.212V57.875h3.982l0.701,2.459h0.291c0.41-0.66,0.92-1.196,1.529-1.606s1.288-0.712,2.034-0.905
		S57.429,57.531,58.227,57.531z"/>
	<path fill="#3F3F3F" d="M95.433,67.303c0,1.578-0.214,2.976-0.641,4.193c-0.427,1.217-1.048,2.245-1.863,3.085
		s-1.794,1.474-2.939,1.901s-2.435,0.643-3.871,0.643c-1.345,0-2.578-0.215-3.7-0.643s-2.096-1.062-2.922-1.901
		s-1.464-1.868-1.914-3.085c-0.45-1.218-0.675-2.615-0.675-4.193c0-2.096,0.376-3.871,1.128-5.325s1.823-2.559,3.213-3.313
		c1.39-0.755,3.047-1.133,4.973-1.133c1.789,0,3.375,0.378,4.759,1.133s2.472,1.859,3.264,3.313S95.433,65.207,95.433,67.303z
		 M82.223,67.303c0,1.23,0.137,2.265,0.41,3.104c0.273,0.838,0.701,1.47,1.282,1.895s1.338,0.637,2.273,0.637
		c0.923,0,1.672-0.212,2.247-0.637s0.997-1.057,1.265-1.895c0.268-0.839,0.402-1.873,0.402-3.104c0-1.24-0.134-2.271-0.402-3.094
		c-0.268-0.821-0.692-1.439-1.273-1.854c-0.581-0.413-1.339-0.62-2.273-0.62c-1.379,0-2.378,0.464-3,1.392
		S82.223,65.447,82.223,67.303z"/>
	<path fill="#3F3F3F" d="M109.601,61.789h-4.512v14.992h-5.212V61.789h-2.871v-2.513l2.871-1.433v-1.433
		c0-1.665,0.276-2.961,0.829-3.887s1.333-1.577,2.341-1.956S105.249,50,106.627,50c1.014,0,1.937,0.083,2.769,0.248
		c0.832,0.165,1.509,0.35,2.034,0.555l-1.333,3.828c-0.399-0.125-0.832-0.238-1.299-0.342c-0.467-0.102-1.003-0.153-1.606-0.153
		c-0.729,0-1.262,0.231-1.598,0.696c-0.336,0.463-0.504,1.057-0.504,1.778v1.265h4.512V61.789z"/>
	<path fill="#3F3F3F" d="M120.694,76.781v-25h5.298v25H120.694z"/>
	<path fill="#3F3F3F" d="M153.61,57.531c2.165,0,3.802,0.549,4.913,1.648c1.111,1.098,1.667,2.858,1.667,5.281v12.32h-5.229V65.779
		c0-1.348-0.234-2.365-0.701-3.051c-0.467-0.685-1.191-1.027-2.17-1.027c-1.379,0-2.358,0.486-2.939,1.457
		c-0.581,0.973-0.872,2.362-0.872,4.17v9.453h-5.212V65.779c0-0.898-0.103-1.652-0.308-2.258c-0.205-0.607-0.519-1.063-0.94-1.365
		c-0.422-0.303-0.963-0.455-1.624-0.455c-0.969,0-1.729,0.238-2.282,0.717c-0.553,0.477-0.946,1.179-1.179,2.105
		s-0.35,2.059-0.35,3.395v8.863h-5.212V57.875h3.982l0.701,2.459h0.291c0.387-0.66,0.874-1.196,1.461-1.606s1.233-0.712,1.94-0.905
		c0.706-0.193,1.424-0.291,2.153-0.291c1.401,0,2.589,0.229,3.563,0.684c0.974,0.456,1.723,1.162,2.248,2.119h0.461
		c0.569-0.979,1.375-1.691,2.418-2.137C151.431,57.754,152.504,57.531,153.61,57.531z"/>
	<path fill="#3F3F3F" d="M175.468,57.531c2.153,0,3.894,0.828,5.221,2.485s1.991,4.085,1.991,7.286c0,2.142-0.313,3.941-0.94,5.401
		c-0.627,1.46-1.493,2.562-2.598,3.306c-1.105,0.744-2.375,1.115-3.811,1.115c-0.923,0-1.715-0.117-2.375-0.35
		c-0.661-0.234-1.225-0.536-1.692-0.906c-0.467-0.37-0.872-0.766-1.213-1.188h-0.273c0.091,0.453,0.159,0.92,0.205,1.396
		c0.045,0.477,0.068,0.941,0.068,1.396v7.682h-5.212V57.875h4.238l0.735,2.493h0.239c0.342-0.513,0.757-0.985,1.248-1.419
		c0.49-0.432,1.079-0.777,1.769-1.033S174.557,57.531,175.468,57.531z M173.793,61.701c-0.912,0-1.635,0.185-2.17,0.554
		c-0.536,0.369-0.926,0.923-1.171,1.66s-0.379,1.671-0.401,2.8v0.555c0,1.207,0.117,2.23,0.35,3.068
		c0.233,0.839,0.626,1.477,1.179,1.912s1.313,0.654,2.282,0.654c0.797,0,1.453-0.219,1.965-0.654s0.897-1.076,1.153-1.92
		s0.385-1.876,0.385-3.095c0-1.833-0.291-3.214-0.872-4.142S175.012,61.701,173.793,61.701z"/>
	<path fill="#3F3F3F" d="M191.499,76.781h-5.212V50.188h5.212V76.781z"/>
	<path fill="#3F3F3F" d="M198.883,50.391c0.774,0,1.441,0.18,2,0.538c0.558,0.358,0.837,1.028,0.837,2.008
		c0,0.969-0.279,1.638-0.837,2.009c-0.559,0.369-1.225,0.555-2,0.555c-0.786,0-1.456-0.186-2.008-0.555
		c-0.553-0.371-0.829-1.04-0.829-2.009c0-0.979,0.276-1.649,0.829-2.008S198.097,50.391,198.883,50.391z M201.48,57.875v18.906
		h-5.212V57.875H201.48z"/>
	<path fill="#3F3F3F" d="M214.008,77.125c-1.892,0-3.503-0.342-4.836-1.022c-1.333-0.682-2.347-1.738-3.042-3.17
		c-0.695-1.432-1.042-3.263-1.042-5.495c0-2.311,0.396-4.195,1.188-5.654s1.891-2.533,3.298-3.221s3.039-1.031,4.896-1.031
		c1.321,0,2.463,0.129,3.426,0.385s1.803,0.561,2.521,0.914l-1.538,4.033c-0.82-0.33-1.584-0.601-2.29-0.812
		c-0.707-0.211-1.413-0.316-2.119-0.316c-0.912,0-1.669,0.21-2.273,0.629c-0.604,0.419-1.054,1.048-1.35,1.887
		c-0.296,0.839-0.444,1.89-0.444,3.152c0,1.241,0.159,2.27,0.479,3.086c0.319,0.816,0.78,1.423,1.384,1.819
		c0.604,0.396,1.338,0.596,2.205,0.596c1.082,0,2.045-0.146,2.888-0.436c0.843-0.291,1.663-0.698,2.461-1.223v4.461
		c-0.798,0.501-1.632,0.863-2.504,1.085S215.341,77.125,214.008,77.125z"/>
	<path fill="#3F3F3F" d="M226.16,50.391c0.774,0,1.441,0.18,2,0.538c0.558,0.358,0.837,1.028,0.837,2.008
		c0,0.969-0.279,1.638-0.837,2.009c-0.559,0.369-1.225,0.555-2,0.555c-0.786,0-1.456-0.186-2.008-0.555
		c-0.553-0.371-0.829-1.04-0.829-2.009c0-0.979,0.276-1.649,0.829-2.008S225.374,50.391,226.16,50.391z M228.757,57.875v18.906
		h-5.212V57.875H228.757z"/>
	<path fill="#3F3F3F" d="M241.575,72.973c0.569,0,1.125-0.057,1.666-0.172c0.541-0.113,1.08-0.256,1.615-0.427v3.88
		c-0.559,0.25-1.25,0.459-2.077,0.623c-0.826,0.165-1.729,0.248-2.708,0.248c-1.14,0-2.162-0.184-3.068-0.549s-1.618-1-2.136-1.906
		c-0.519-0.904-0.777-2.168-0.777-3.787v-9.094h-2.495v-2.205l2.871-1.743l1.504-4.028h3.333v4.063h5.349v3.914h-5.349v9.051
		c0,0.717,0.208,1.251,0.624,1.604S240.892,72.973,241.575,72.973z"/>
	<path fill="#3F3F3F" d="M271.569,69.857c0,1.485-0.359,2.775-1.077,3.873c-0.718,1.096-1.763,1.941-3.136,2.535
		s-3.039,0.891-4.999,0.891c-0.866,0-1.712-0.057-2.538-0.171s-1.618-0.282-2.375-0.504s-1.478-0.499-2.162-0.829V70.73
		c1.185,0.524,2.415,0.997,3.691,1.418c1.276,0.422,2.541,0.633,3.794,0.633c0.866,0,1.563-0.114,2.093-0.344
		s0.915-0.545,1.154-0.946s0.359-0.86,0.359-1.376c0-0.629-0.211-1.166-0.632-1.611c-0.422-0.445-1-0.861-1.735-1.25
		s-1.563-0.806-2.486-1.251c-0.581-0.274-1.213-0.608-1.897-1.002s-1.333-0.876-1.948-1.448c-0.615-0.57-1.12-1.265-1.513-2.081
		s-0.589-1.796-0.589-2.938c0-1.496,0.342-2.775,1.025-3.838c0.684-1.062,1.66-1.875,2.931-2.441
		c1.271-0.564,2.771-0.848,4.503-0.848c1.299,0,2.538,0.151,3.717,0.453s2.413,0.738,3.7,1.307l-1.709,4.119
		c-1.151-0.467-2.182-0.828-3.093-1.085c-0.912-0.257-1.84-0.385-2.786-0.385c-0.661,0-1.225,0.106-1.692,0.318
		c-0.467,0.212-0.82,0.511-1.06,0.896c-0.239,0.384-0.359,0.828-0.359,1.332c0,0.595,0.173,1.095,0.521,1.5s0.872,0.797,1.572,1.174
		s1.575,0.816,2.624,1.318c1.276,0.605,2.367,1.237,3.272,1.895c0.906,0.656,1.604,1.428,2.094,2.313
		C271.324,67.445,271.569,68.545,271.569,69.857z"/>
	<path fill="#3F3F3F" d="M292.522,57.875v18.906h-3.999l-0.701-2.441h-0.273c-0.41,0.648-0.923,1.179-1.538,1.589
		s-1.293,0.712-2.034,0.905c-0.741,0.193-1.51,0.291-2.307,0.291c-1.367,0-2.558-0.24-3.572-0.719
		c-1.014-0.479-1.803-1.227-2.367-2.241s-0.846-2.335-0.846-3.958V57.875h5.212v11.016c0,1.35,0.245,2.367,0.735,3.053
		c0.49,0.686,1.27,1.029,2.341,1.029c1.06,0,1.891-0.239,2.495-0.717c0.604-0.479,1.028-1.182,1.273-2.109s0.368-2.061,0.368-3.398
		v-8.873H292.522z"/>
	<path fill="#3F3F3F" d="M307.955,57.531c0.262,0,0.566,0.015,0.914,0.043s0.629,0.065,0.846,0.111l-0.393,4.887
		c-0.171-0.057-0.413-0.1-0.727-0.127c-0.313-0.029-0.584-0.043-0.812-0.043c-0.672,0-1.325,0.084-1.957,0.252
		c-0.632,0.169-1.199,0.441-1.7,0.816c-0.501,0.377-0.897,0.871-1.188,1.482s-0.436,1.361-0.436,2.248v9.58h-5.212V57.875h3.948
		l0.769,3.229h0.256c0.376-0.65,0.846-1.245,1.41-1.786s1.208-0.974,1.931-1.299S307.112,57.531,307.955,57.531z"/>
	<path fill="#3F3F3F" d="M323.046,61.789h-4.512v14.992h-5.212V61.789h-2.871v-2.513l2.871-1.433v-1.433
		c0-1.665,0.276-2.961,0.829-3.887s1.333-1.577,2.341-1.956S318.693,50,320.072,50c1.014,0,1.937,0.083,2.769,0.248
		c0.832,0.165,1.509,0.35,2.034,0.555l-1.333,3.828c-0.399-0.125-0.832-0.238-1.299-0.342c-0.467-0.102-1.003-0.153-1.606-0.153
		c-0.729,0-1.262,0.231-1.598,0.696c-0.336,0.463-0.504,1.057-0.504,1.778v1.265h4.512V61.789z"/>
	<path fill="#3F3F3F" d="M333.164,57.531c2.563,0,4.529,0.551,5.896,1.653s2.051,2.778,2.051,5.028v12.568h-3.64l-1.008-2.596
		h-0.137c-0.547,0.684-1.105,1.242-1.675,1.675c-0.57,0.433-1.225,0.752-1.965,0.957c-0.741,0.205-1.641,0.308-2.7,0.308
		c-1.128,0-2.139-0.215-3.034-0.642c-0.895-0.428-1.598-1.084-2.11-1.968s-0.769-2.008-0.769-3.37c0-2.004,0.712-3.481,2.136-4.434
		c1.424-0.951,3.56-1.478,6.409-1.579l3.315-0.102v-0.814c0-0.975-0.262-1.688-0.786-2.143c-0.524-0.453-1.253-0.681-2.188-0.681
		c-0.923,0-1.829,0.132-2.717,0.394s-1.777,0.592-2.666,0.99l-1.726-3.52c1.014-0.535,2.15-0.957,3.409-1.266
		C330.517,57.686,331.819,57.531,333.164,57.531z M335.932,68.073l-2.017,0.066c-1.687,0.045-2.857,0.339-3.512,0.882
		c-0.655,0.544-0.982,1.26-0.982,2.146c0,0.776,0.233,1.328,0.701,1.655c0.467,0.327,1.077,0.491,1.829,0.491
		c1.116,0,2.059-0.322,2.828-0.965c0.769-0.644,1.154-1.559,1.154-2.746V68.073z"/>
	<path fill="#3F3F3F" d="M353.536,77.125c-1.892,0-3.503-0.342-4.836-1.022c-1.333-0.682-2.347-1.738-3.042-3.17
		c-0.695-1.432-1.042-3.263-1.042-5.495c0-2.311,0.396-4.195,1.188-5.654s1.891-2.533,3.298-3.221s3.039-1.031,4.896-1.031
		c1.321,0,2.463,0.129,3.426,0.385s1.803,0.561,2.521,0.914l-1.538,4.033c-0.82-0.33-1.584-0.601-2.29-0.812
		c-0.707-0.211-1.413-0.316-2.119-0.316c-0.912,0-1.669,0.21-2.273,0.629c-0.604,0.419-1.054,1.048-1.35,1.887
		c-0.296,0.839-0.444,1.89-0.444,3.152c0,1.241,0.159,2.27,0.479,3.086c0.319,0.816,0.78,1.423,1.384,1.819
		c0.604,0.396,1.338,0.596,2.205,0.596c1.082,0,2.045-0.146,2.888-0.436c0.843-0.291,1.663-0.698,2.461-1.223v4.461
		c-0.798,0.501-1.632,0.863-2.504,1.085S354.869,77.125,353.536,77.125z"/>
	<path fill="#3F3F3F" d="M370.951,57.531c1.766,0,3.287,0.336,4.563,1.006c1.276,0.672,2.261,1.644,2.957,2.918
		c0.695,1.273,1.042,2.83,1.042,4.667v2.503h-12.322c0.057,1.439,0.498,2.57,1.324,3.391s1.974,1.23,3.444,1.23
		c1.219,0,2.335-0.125,3.35-0.377c1.014-0.25,2.056-0.626,3.127-1.127v4.033c-0.946,0.467-1.934,0.809-2.965,1.025
		c-1.031,0.216-2.281,0.324-3.751,0.324c-1.914,0-3.609-0.35-5.084-1.048s-2.632-1.764-3.469-3.195
		c-0.837-1.431-1.256-3.234-1.256-5.41c0-2.209,0.378-4.049,1.136-5.52s1.814-2.575,3.17-3.313
		C367.572,57.9,369.15,57.531,370.951,57.531z M370.985,61.24c-1.014,0-1.854,0.314-2.521,0.945s-1.051,1.621-1.153,2.971h7.314
		c-0.012-0.752-0.151-1.422-0.419-2.008s-0.667-1.051-1.196-1.395C372.48,61.412,371.805,61.24,370.985,61.24z"/>
	<path fill="#3F3F3F" d="M396.381,71.174c0,1.285-0.305,2.37-0.915,3.255s-1.518,1.556-2.726,2.012
		c-1.208,0.456-2.712,0.685-4.512,0.685c-1.333,0-2.476-0.086-3.427-0.256c-0.951-0.172-1.911-0.456-2.879-0.855v-4.307
		c1.037,0.468,2.15,0.853,3.341,1.154s2.236,0.453,3.136,0.453c1.014,0,1.74-0.146,2.179-0.438s0.658-0.672,0.658-1.145
		c0-0.316-0.088-0.6-0.265-0.854s-0.555-0.541-1.136-0.863c-0.581-0.32-1.493-0.74-2.734-1.259
		c-1.196-0.496-2.179-0.997-2.948-1.505c-0.769-0.507-1.339-1.107-1.709-1.801s-0.555-1.574-0.555-2.646
		c0-1.747,0.686-3.063,2.059-3.947s3.21-1.327,5.512-1.327c1.185,0,2.315,0.119,3.392,0.359c1.077,0.238,2.185,0.621,3.324,1.145
		l-1.572,3.76c-0.946-0.41-1.837-0.746-2.675-1.008s-1.689-0.394-2.555-0.394c-0.764,0-1.339,0.101-1.726,0.302
		c-0.388,0.2-0.581,0.507-0.581,0.92c0,0.301,0.1,0.568,0.299,0.803s0.587,0.494,1.162,0.777c0.575,0.285,1.421,0.65,2.538,1.096
		c1.082,0.439,2.022,0.898,2.82,1.378c0.797,0.479,1.413,1.071,1.846,1.774C396.165,69.148,396.381,70.059,396.381,71.174z"/>
	<path fill="#3F3F3F" d="M399.611,74.977c0-0.762,0.173-1.339,0.521-1.731s0.846-0.589,1.496-0.589c0.661,0,1.176,0.196,1.546,0.589
		s0.556,0.97,0.556,1.731c0,0.74-0.188,1.309-0.564,1.707s-0.889,0.598-1.538,0.598c-0.581,0-1.063-0.18-1.444-0.537
		C399.802,76.385,399.611,75.797,399.611,74.977z"/>
	<path fill="#3F3F3F" d="M428.051,63.688h7.844l-2.632,12.155c-2.461,0.854-4.848,1.282-7.161,1.282
		c-3.008,0-5.347-0.823-7.016-2.47s-2.503-3.944-2.503-6.896c0-3.065,0.578-5.854,1.734-8.367c1.156-2.512,2.76-4.466,4.811-5.861
		s4.324-2.094,6.819-2.094c1.333,0,2.583,0.113,3.751,0.342c1.168,0.227,2.344,0.592,3.529,1.092l-1.128,2.596
		c-0.877-0.387-1.82-0.723-2.829-1.008s-2.116-0.428-3.324-0.428c-1.926,0-3.677,0.578-5.255,1.734s-2.806,2.77-3.683,4.843
		c-0.877,2.073-1.316,4.39-1.316,6.952c0,2.164,0.583,3.867,1.751,5.109c1.168,1.24,2.8,1.861,4.896,1.861
		c1.754,0,3.235-0.222,4.443-0.666l1.641-7.584h-4.939L428.051,63.688z"/>
	<path fill="#3F3F3F" d="M449.858,57.719c0.786,0,1.47,0.08,2.051,0.24l-0.615,2.576c-0.604-0.148-1.202-0.223-1.794-0.223
		c-1.037,0-2.008,0.342-2.914,1.023c-0.906,0.684-1.698,1.631-2.375,2.842c-0.678,1.213-1.176,2.558-1.495,4.036l-1.829,8.567
		h-2.871l3.999-18.719h2.375l-0.376,3.465h0.171c0.82-1.081,1.498-1.858,2.034-2.331c0.535-0.473,1.096-0.837,1.683-1.093
		S449.14,57.719,449.858,57.719z"/>
	<path fill="#3F3F3F" d="M461.087,57.719c1.048,0,1.982,0.282,2.803,0.846s1.458,1.375,1.914,2.434h0.188l1.145-2.936h2.17
		l-3.982,18.719h-2.273l0.444-3.568h-0.137c-2.04,2.608-4.187,3.912-6.443,3.912c-1.584,0-2.826-0.563-3.726-1.691
		c-0.9-1.127-1.35-2.67-1.35-4.629c0-2.369,0.404-4.566,1.213-6.594c0.809-2.027,1.925-3.616,3.35-4.767
		C457.828,58.294,459.389,57.719,461.087,57.719z M457.84,74.75c1.105,0,2.205-0.526,3.298-1.58s1.982-2.426,2.666-4.117
		s1.025-3.387,1.025-5.084c0-1.172-0.319-2.106-0.957-2.801c-0.638-0.695-1.476-1.043-2.512-1.043c-1.185,0-2.288,0.49-3.307,1.469
		c-1.02,0.98-1.82,2.307-2.401,3.981s-0.872,3.44-0.872,5.296c0,1.299,0.268,2.27,0.803,2.914
		C456.119,74.428,456.871,74.75,457.84,74.75z"/>
	<path fill="#3F3F3F" d="M478.553,77.125c-1.105,0-2.074-0.285-2.905-0.854c-0.832-0.57-1.476-1.367-1.931-2.393h-0.171
		l-0.068,0.648c-0.034,0.285-0.094,0.684-0.18,1.197c-0.085,0.512-0.738,3.666-1.957,9.463h-2.837l5.742-27.125h2.375l-0.444,3.566
		h0.137c2.039-2.586,4.158-3.879,6.357-3.879c1.561,0,2.791,0.556,3.691,1.666c0.9,1.11,1.35,2.668,1.35,4.673
		c0,2.415-0.393,4.63-1.179,6.646s-1.875,3.585-3.264,4.707C481.88,76.564,480.308,77.125,478.553,77.125z M481.732,60.125
		c-1.094,0-2.208,0.541-3.341,1.623s-2.034,2.443-2.7,4.084s-1,3.32-1,5.039c0,1.254,0.316,2.213,0.948,2.879
		c0.632,0.667,1.547,1,2.743,1c1.128,0,2.179-0.461,3.153-1.384s1.757-2.235,2.35-3.938c0.592-1.703,0.889-3.511,0.889-5.424
		C484.774,61.418,483.76,60.125,481.732,60.125z"/>
	<path fill="#3F3F3F" d="M501.198,76.781l2.529-11.822c0.205-1.07,0.308-1.839,0.308-2.306c0-1.686-0.837-2.528-2.512-2.528
		c-1.014,0-2.002,0.336-2.965,1.008s-1.812,1.648-2.546,2.93s-1.29,2.828-1.666,4.639l-1.726,8.08h-2.871l5.64-26.594h2.871
		c-0.205,0.936-0.402,1.842-0.59,2.719c-0.188,0.879-0.382,1.771-0.581,2.677s-0.416,1.855-0.649,2.847
		c-0.233,0.992-0.504,2.07-0.812,3.232h0.188c1.071-1.4,2.127-2.402,3.17-3.006s2.133-0.906,3.273-0.906
		c1.492,0,2.646,0.41,3.46,1.23s1.222,1.981,1.222,3.484c0,0.707-0.131,1.652-0.393,2.836c-0.444,2.198-1.271,6.025-2.478,11.48
		H501.198z"/>
	<path fill="#3F3F3F" d="M512.119,76.781h-2.871l3.999-18.719h2.871L512.119,76.781z M514.05,53.264
		c0-0.637,0.182-1.158,0.547-1.563c0.364-0.404,0.837-0.607,1.418-0.607c1.002,0,1.504,0.513,1.504,1.538
		c0,0.627-0.191,1.157-0.573,1.589c-0.382,0.434-0.823,0.65-1.324,0.65c-0.456,0-0.832-0.14-1.128-0.419
		C514.198,54.173,514.05,53.777,514.05,53.264z"/>
	<path fill="#3F3F3F" d="M525.074,77.125c-2.21,0-3.925-0.609-5.144-1.828c-1.219-1.219-1.829-2.938-1.829-5.158
		c0-2.277,0.421-4.379,1.265-6.305c0.843-1.924,2.008-3.425,3.495-4.501s3.159-1.614,5.016-1.614c1.561,0,3.087,0.29,4.58,0.87
		l-0.803,2.407c-1.367-0.58-2.615-0.871-3.743-0.871c-1.276,0-2.441,0.436-3.495,1.307c-1.054,0.872-1.88,2.085-2.478,3.64
		s-0.897,3.243-0.897,5.065c0,1.459,0.378,2.592,1.136,3.4s1.803,1.213,3.136,1.213c0.82,0,1.595-0.113,2.324-0.342
		c0.729-0.228,1.447-0.496,2.153-0.803v2.443C528.377,76.766,526.805,77.125,525.074,77.125z"/>
	<path fill="#3F3F3F" d="M542.404,57.719c1.048,0,1.982,0.282,2.803,0.846s1.458,1.375,1.914,2.434h0.188l1.145-2.936h2.17
		l-3.982,18.719h-2.273l0.444-3.568h-0.137c-2.04,2.608-4.187,3.912-6.443,3.912c-1.584,0-2.826-0.563-3.726-1.691
		c-0.9-1.127-1.35-2.67-1.35-4.629c0-2.369,0.404-4.566,1.213-6.594c0.809-2.027,1.925-3.616,3.35-4.767
		C539.145,58.294,540.706,57.719,542.404,57.719z M539.157,74.75c1.105,0,2.205-0.526,3.298-1.58s1.982-2.426,2.666-4.117
		s1.025-3.387,1.025-5.084c0-1.172-0.319-2.106-0.957-2.801c-0.638-0.695-1.476-1.043-2.512-1.043c-1.185,0-2.288,0.49-3.307,1.469
		c-1.02,0.98-1.82,2.307-2.401,3.981s-0.872,3.44-0.872,5.296c0,1.299,0.268,2.27,0.803,2.914
		C537.436,74.428,538.188,74.75,539.157,74.75z"/>
	<path fill="#3F3F3F" d="M554.401,76.781h-2.871l5.674-26.594h2.871L554.401,76.781z"/>
	<path fill="#3F3F3F" d="M578.688,76.781l-2.837-22.162h-0.137c-0.08,0.822-0.242,1.947-0.487,3.378s-0.458,2.567-0.641,3.411
		l-3.247,15.373h-2.769l5.281-25h4.17l2.546,20.588h0.154l11.262-20.588h4.546l-5.178,25h-2.974
		c1.436-6.726,2.535-11.887,3.298-15.484c0.763-3.596,1.299-5.834,1.606-6.711h-0.103l-12.253,22.195H578.688z"/>
	<path fill="#3F3F3F" d="M606.715,57.813c2.165,0,3.874,0.641,5.127,1.924c1.253,1.281,1.88,3.045,1.88,5.291
		c0,2.143-0.41,4.166-1.23,6.068c-0.82,1.904-1.931,3.374-3.333,4.411s-2.985,1.556-4.751,1.556c-2.188,0-3.902-0.644-5.144-1.932
		c-1.242-1.288-1.863-3.049-1.863-5.283c0-2.165,0.416-4.202,1.248-6.111c0.832-1.909,1.954-3.373,3.367-4.394
		C603.428,58.322,604.995,57.813,606.715,57.813z M610.749,64.631c0-1.311-0.356-2.373-1.068-3.189
		c-0.712-0.814-1.678-1.223-2.896-1.223c-1.242,0-2.356,0.422-3.341,1.266s-1.749,2.016-2.29,3.515s-0.812,3.167-0.812,5.003
		c0,1.493,0.361,2.647,1.085,3.463s1.763,1.223,3.119,1.223c1.185,0,2.25-0.416,3.196-1.248c0.945-0.832,1.683-2.016,2.213-3.549
		S610.749,66.604,610.749,64.631z"/>
	<path fill="#3F3F3F" d="M625.583,57.75c2.21,0,3.811,1.082,4.802,3.246h0.171c0.193-1.768,0.45-3.329,0.769-4.686l1.333-6.123
		h2.837l-5.64,26.594h-2.375l0.376-3.568h-0.137c-1.151,1.424-2.228,2.432-3.23,3.023c-1.003,0.592-2.04,0.889-3.11,0.889
		c-1.584,0-2.82-0.559-3.708-1.674c-0.889-1.117-1.333-2.666-1.333-4.648c0-2.438,0.41-4.67,1.23-6.697s1.928-3.594,3.324-4.698
		S623.852,57.75,625.583,57.75z M622.336,74.75c1.071,0,2.176-0.532,3.315-1.598c1.139-1.064,2.042-2.426,2.708-4.083
		s1-3.347,1-5.065c0-1.265-0.308-2.227-0.923-2.888s-1.51-0.991-2.683-0.991c-1.151,0-2.219,0.471-3.205,1.41
		s-1.777,2.26-2.375,3.963s-0.897,3.494-0.897,5.373C619.277,73.457,620.297,74.75,622.336,74.75z"/>
	<path fill="#3F3F3F" d="M642.571,77.125c-2.097,0-3.743-0.621-4.939-1.861c-1.196-1.242-1.794-2.961-1.794-5.16
		c0-2.141,0.424-4.193,1.273-6.158s1.974-3.493,3.375-4.586c1.401-1.094,2.945-1.641,4.631-1.641c1.743,0,3.053,0.379,3.931,1.135
		c0.877,0.758,1.316,1.813,1.316,3.168c0,2.049-0.946,3.656-2.837,4.822c-1.892,1.167-4.597,1.75-8.118,1.75h-0.564l-0.068,1.369
		c0,1.494,0.35,2.66,1.051,3.498c0.701,0.839,1.786,1.258,3.256,1.258c0.718,0,1.455-0.103,2.213-0.308s1.701-0.581,2.829-1.128
		v2.494c-1.071,0.5-2.017,0.85-2.837,1.049S643.563,77.125,642.571,77.125z M644.947,60.156c-1.174,0-2.276,0.535-3.307,1.605
		s-1.82,2.556-2.367,4.457h0.205c2.598,0,4.588-0.338,5.973-1.016s2.077-1.66,2.077-2.946c0-0.604-0.208-1.104-0.624-1.503
		S645.835,60.156,644.947,60.156z"/>
	<path fill="#3F3F3F" d="M654.569,76.781h-2.871l5.674-26.594h2.871L654.569,76.781z"/>
	<path fill="#3F3F3F" d="M671.472,71.471c0,1.777-0.63,3.164-1.889,4.16s-3.033,1.494-5.323,1.494c-1.926,0-3.663-0.393-5.212-1.18
		v-2.699c0.797,0.479,1.658,0.85,2.581,1.111s1.777,0.393,2.563,0.393c1.436,0,2.518-0.285,3.247-0.854
		c0.729-0.57,1.094-1.299,1.094-2.188c0-0.648-0.2-1.195-0.598-1.639c-0.399-0.445-1.259-1.055-2.581-1.828
		c-1.481-0.832-2.529-1.646-3.145-2.443s-0.923-1.742-0.923-2.836c0-1.57,0.575-2.838,1.726-3.801
		c1.15-0.962,2.666-1.443,4.546-1.443c1.948,0,3.828,0.42,5.64,1.262l-0.923,2.338l-0.957-0.428
		c-1.151-0.489-2.404-0.734-3.76-0.734c-1.06,0-1.892,0.248-2.495,0.744c-0.604,0.497-0.906,1.139-0.906,1.926
		c0,0.639,0.202,1.186,0.606,1.641s1.239,1.042,2.504,1.76c1.219,0.684,2.093,1.27,2.623,1.76c0.53,0.489,0.926,1.016,1.188,1.58
		C671.34,70.13,671.472,70.765,671.472,71.471z"/>
	<path fill="#3F3F3F" d="M679.19,72.719l0.256,0.394c-0.297,1.142-0.725,2.468-1.284,3.98c-0.559,1.512-1.141,2.919-1.746,4.22
		h-2.14c0.308-1.188,0.647-2.654,1.019-4.399c0.371-1.746,0.63-3.145,0.779-4.194H679.19z"/>
	<path fill="#3F3F3F" d="M691.468,66.102c0-4.91,0.954-8.582,2.861-11.016c1.907-2.432,4.728-3.648,8.463-3.648
		c1.286,0,2.3,0.108,3.04,0.325v2.446c-0.877-0.285-1.878-0.428-3.005-0.428c-2.676,0-4.719,0.835-6.131,2.504
		c-1.412,1.67-2.186,4.294-2.322,7.872h0.205c1.252-1.959,3.233-2.938,5.942-2.938c2.243,0,4.01,0.678,5.302,2.033
		s1.938,3.195,1.938,5.519c0,2.597-0.709,4.639-2.126,6.125c-1.418,1.486-3.333,2.229-5.747,2.229c-2.585,0-4.634-0.971-6.148-2.914
		C692.225,72.269,691.468,69.565,691.468,66.102z M699.854,74.719c1.616,0,2.871-0.51,3.765-1.527c0.894-1.02,1.34-2.49,1.34-4.414
		c0-1.649-0.416-2.947-1.247-3.892s-2.071-1.417-3.722-1.417c-1.024,0-1.964,0.211-2.817,0.632s-1.534,1.001-2.04,1.741
		c-0.507,0.74-0.76,1.508-0.76,2.305c0,1.172,0.228,2.266,0.683,3.277c0.455,1.014,1.101,1.815,1.938,2.407
		C697.83,74.423,698.783,74.719,699.854,74.719z"/>
	<path fill="#3F3F3F" d="M725.965,57.678c0,1.596-0.447,2.901-1.342,3.916s-2.16,1.692-3.801,2.034v0.137
		c2.004,0.251,3.49,0.889,4.459,1.913c0.967,1.025,1.451,2.369,1.451,4.032c0,2.381-0.826,4.212-2.477,5.493
		s-3.996,1.922-7.037,1.922c-1.32,0-2.531-0.1-3.629-0.299c-1.1-0.199-2.167-0.549-3.203-1.049v-2.699
		c1.082,0.535,2.234,0.943,3.459,1.223c1.223,0.279,2.383,0.418,3.475,0.418c4.314,0,6.473-1.692,6.473-5.078
		c0-3.031-2.379-4.547-7.139-4.547h-2.459v-2.438h2.494c1.945,0,3.488-0.43,4.627-1.289c1.139-0.86,1.709-2.054,1.709-3.58
		c0-1.219-0.42-2.175-1.256-2.869c-0.838-0.695-1.973-1.043-3.406-1.043c-1.094,0-2.123,0.148-3.092,0.444
		c-0.967,0.296-2.072,0.843-3.313,1.641l-1.435-1.914c1.024-0.812,2.206-1.449,3.545-1.913c1.338-0.463,2.746-0.695,4.227-0.695
		c2.426,0,4.311,0.556,5.654,1.667S725.965,55.74,725.965,57.678z"/>
	<path fill="#3F3F3F" d="M729.494,67.184c0-3.02,0.441-5.846,1.322-8.479c0.883-2.633,2.154-4.94,3.816-6.924h2.764
		c-1.637,2.199-2.869,4.615-3.693,7.248s-1.236,5.34-1.236,8.12c0,2.735,0.422,5.407,1.264,8.018
		c0.84,2.609,2.051,4.991,3.633,7.146h-2.73c-1.674-1.938-2.949-4.199-3.824-6.787C729.932,72.939,729.494,70.158,729.494,67.184z"
		/>
	<path fill="#3F3F3F" d="M739.75,66.102c0-4.91,0.953-8.582,2.859-11.016c1.908-2.432,4.729-3.648,8.463-3.648
		c1.287,0,2.301,0.108,3.041,0.325v2.446c-0.877-0.285-1.879-0.428-3.006-0.428c-2.676,0-4.719,0.835-6.131,2.504
		c-1.412,1.67-2.186,4.294-2.322,7.872h0.205c1.252-1.959,3.232-2.938,5.943-2.938c2.242,0,4.01,0.678,5.301,2.033
		c1.293,1.355,1.939,3.195,1.939,5.519c0,2.597-0.709,4.639-2.127,6.125s-3.334,2.229-5.746,2.229c-2.586,0-4.635-0.971-6.148-2.914
		C740.506,72.269,739.75,69.565,739.75,66.102z M748.135,74.719c1.617,0,2.871-0.51,3.766-1.527c0.893-1.02,1.34-2.49,1.34-4.414
		c0-1.649-0.416-2.947-1.246-3.892c-0.832-0.944-2.072-1.417-3.723-1.417c-1.023,0-1.963,0.211-2.816,0.632
		s-1.535,1.001-2.041,1.741s-0.76,1.508-0.76,2.305c0,1.172,0.229,2.266,0.684,3.277c0.455,1.014,1.1,1.815,1.938,2.407
		C746.111,74.423,747.064,74.719,748.135,74.719z"/>
	<path fill="#3F3F3F" d="M766.008,67.184c0,2.998-0.441,5.789-1.324,8.377c-0.881,2.586-2.152,4.837-3.814,6.752h-2.73
		c1.58-2.143,2.791-4.521,3.633-7.137s1.262-5.291,1.262-8.026c0-2.78-0.412-5.487-1.236-8.12s-2.055-5.049-3.693-7.248h2.766
		c1.674,1.994,2.947,4.311,3.824,6.949C765.568,61.369,766.008,64.187,766.008,67.184z"/>
	<path fill="#3F3F3F" d="M769.316,59.875c0-1.541,0.672-2.313,2.018-2.313c1.4,0,2.102,0.771,2.102,2.313
		c0,0.742-0.188,1.313-0.564,1.713c-0.375,0.4-0.889,0.6-1.537,0.6c-0.582,0-1.063-0.18-1.445-0.539
		C769.508,61.289,769.316,60.697,769.316,59.875z M769.316,74.977c0-0.762,0.174-1.339,0.521-1.731s0.846-0.589,1.496-0.589
		c0.66,0,1.176,0.196,1.545,0.589c0.371,0.393,0.557,0.97,0.557,1.731c0,0.74-0.188,1.309-0.564,1.707
		c-0.375,0.398-0.889,0.598-1.537,0.598c-0.582,0-1.063-0.18-1.445-0.537C769.508,76.385,769.316,75.797,769.316,74.977z"/>
	<path fill="#3F3F3F" d="M792.516,57.678c0,1.596-0.447,2.901-1.34,3.916c-0.895,1.015-2.162,1.692-3.801,2.034v0.137
		c2.004,0.251,3.49,0.889,4.457,1.913c0.969,1.025,1.453,2.369,1.453,4.032c0,2.381-0.826,4.212-2.477,5.493
		c-1.652,1.281-3.998,1.922-7.037,1.922c-1.322,0-2.531-0.1-3.631-0.299c-1.098-0.199-2.166-0.549-3.201-1.049v-2.699
		c1.082,0.535,2.234,0.943,3.457,1.223c1.225,0.279,2.383,0.418,3.477,0.418c4.314,0,6.473-1.692,6.473-5.078
		c0-3.031-2.381-4.547-7.139-4.547h-2.459v-2.438h2.492c1.947,0,3.49-0.43,4.629-1.289c1.139-0.86,1.707-2.054,1.707-3.58
		c0-1.219-0.418-2.175-1.256-2.869c-0.836-0.695-1.971-1.043-3.406-1.043c-1.092,0-2.123,0.148-3.09,0.444
		c-0.969,0.296-2.072,0.843-3.314,1.641l-1.434-1.914c1.023-0.812,2.205-1.449,3.543-1.913c1.338-0.463,2.748-0.695,4.229-0.695
		c2.424,0,4.309,0.556,5.652,1.667S792.516,55.74,792.516,57.678z"/>
	<path fill="#3F3F3F" d="M804.619,51.438c2.277,0,4.082,0.531,5.414,1.592s1.998,2.525,1.998,4.396c0,1.231-0.381,2.355-1.145,3.37
		c-0.762,1.015-1.98,1.938-3.654,2.771c2.027,0.968,3.467,1.983,4.32,3.048c0.855,1.064,1.281,2.297,1.281,3.697
		c0,2.072-0.723,3.725-2.168,4.96c-1.447,1.235-3.428,1.853-5.943,1.853c-2.666,0-4.715-0.583-6.148-1.75
		c-1.436-1.166-2.152-2.82-2.152-4.96c0-2.856,1.742-5.083,5.227-6.677c-1.572-0.889-2.699-1.85-3.383-2.883
		c-0.684-1.031-1.023-2.187-1.023-3.464c0-1.813,0.668-3.259,2.006-4.337S802.377,51.438,804.619,51.438z M799.225,70.482
		c0,1.363,0.475,2.426,1.426,3.188c0.949,0.762,2.285,1.143,4.004,1.143c1.695,0,3.016-0.397,3.961-1.193
		c0.943-0.796,1.416-1.887,1.416-3.273c0-1.104-0.443-2.083-1.332-2.941c-0.887-0.858-2.436-1.691-4.643-2.498
		c-1.697,0.728-2.926,1.531-3.688,2.412C799.605,68.199,799.225,69.254,799.225,70.482z M804.586,53.75
		c-1.424,0-2.539,0.342-3.348,1.025c-0.807,0.684-1.211,1.596-1.211,2.736c0,1.049,0.336,1.949,1.008,2.701
		c0.67,0.752,1.912,1.504,3.721,2.256c1.627-0.684,2.779-1.419,3.457-2.205s1.016-1.703,1.016-2.752
		c0-1.152-0.412-2.066-1.236-2.744C807.166,54.09,806.031,53.75,804.586,53.75z"/>
	<path fill="#3F3F3F" d="M818.824,76.781l10.348-22.375h-13.609v-2.625h16.617v2.274l-10.213,22.726H818.824z"/>
	<path fill="#3F3F3F" d="M834.703,68.691v-2.598h8.381v2.598H834.703z"/>
	<path fill="#3F3F3F" d="M863.129,71.063h-3.703v5.719h-2.719v-5.719h-12.143v-2.481l11.854-16.925h3.008v16.813h3.703V71.063z
		 M856.707,68.469v-8.313c0-1.63,0.057-3.471,0.172-5.523h-0.137c-0.547,1.094-1.059,2.001-1.537,2.719L847.4,68.469H856.707z"/>
	<path fill="#3F3F3F" d="M875.355,76.781h-2.768V58.963c0-1.481,0.045-2.884,0.137-4.206c-0.24,0.239-0.508,0.49-0.805,0.753
		c-0.295,0.262-1.65,1.373-4.064,3.334l-1.502-1.949l6.609-5.113h2.393V76.781z"/>
	<path fill="#3F3F3F" d="M900.574,76.781h-16.412v-2.443l6.574-6.609c2.004-2.027,3.324-3.474,3.961-4.339
		c0.639-0.865,1.117-1.708,1.436-2.528s0.479-1.702,0.479-2.647c0-1.332-0.404-2.388-1.213-3.169c-0.809-0.779-1.93-1.17-3.363-1.17
		c-1.037,0-2.02,0.171-2.947,0.513s-1.961,0.963-3.1,1.862l-1.502-1.931c2.299-1.921,4.805-2.882,7.516-2.882
		c2.346,0,4.184,0.602,5.516,1.804s1.998,2.817,1.998,4.847c0,1.584-0.443,3.15-1.332,4.701c-0.887,1.549-2.549,3.51-4.986,5.88
		l-5.463,5.351v0.137h12.84V76.781z"/>
	<path fill="#3F3F3F" d="M907.758,72.719l0.256,0.394c-0.297,1.142-0.725,2.468-1.283,3.98c-0.561,1.512-1.143,2.919-1.746,4.22
		h-2.141c0.309-1.188,0.648-2.654,1.02-4.399c0.369-1.746,0.629-3.145,0.777-4.194H907.758z"/>
	<path fill="#3F3F3F" d="M937.184,76.781l-3.111-7.938h-10.02l-3.078,7.938h-2.939l9.883-25.094h2.443l9.83,25.094H937.184z
		 M933.166,66.219l-2.906-7.744c-0.377-0.98-0.764-2.183-1.162-3.607c-0.252,1.094-0.611,2.297-1.078,3.607l-2.941,7.744H933.166z"
		/>
	<path fill="#3F3F3F" d="M949.975,77.125c-2.711,0-4.809-0.834-6.295-2.502c-1.486-1.669-2.23-4.029-2.23-7.082
		c0-3.131,0.754-5.551,2.264-7.26c1.51-1.708,3.658-2.563,6.449-2.563c0.9,0,1.799,0.097,2.699,0.289
		c0.9,0.193,1.605,0.42,2.119,0.68l-0.871,2.402c-0.627-0.25-1.311-0.458-2.051-0.623s-1.395-0.248-1.965-0.248
		c-3.803,0-5.705,2.43-5.705,7.287c0,2.304,0.465,4.072,1.393,5.303c0.928,1.232,2.303,1.848,4.125,1.848
		c1.561,0,3.16-0.336,4.801-1.008v2.506C953.453,76.801,951.875,77.125,949.975,77.125z"/>
	<path fill="#3F3F3F" d="M969.977,76.781l-0.564-2.664h-0.137c-0.934,1.174-1.865,1.969-2.793,2.385
		c-0.93,0.415-2.09,0.623-3.479,0.623c-1.857,0-3.314-0.479-4.367-1.435c-1.055-0.956-1.582-2.317-1.582-4.082
		c0-3.78,3.025-5.761,9.076-5.943l3.18-0.103V64.4c0-1.47-0.316-2.555-0.949-3.256c-0.633-0.7-1.643-1.051-3.033-1.051
		c-1.563,0-3.328,0.479-5.299,1.436l-0.873-2.172c0.924-0.501,1.936-0.895,3.035-1.18s2.201-0.428,3.307-0.428
		c2.234,0,3.889,0.496,4.967,1.486c1.076,0.991,1.615,2.58,1.615,4.766v12.779H969.977z M963.566,74.781
		c1.768,0,3.154-0.482,4.162-1.447c1.01-0.965,1.514-2.316,1.514-4.055v-1.686l-2.838,0.119c-2.256,0.08-3.883,0.429-4.881,1.047
		c-0.996,0.619-1.494,1.582-1.494,2.888c0,1.022,0.311,1.8,0.932,2.333C961.582,74.515,962.449,74.781,963.566,74.781z"/>
	<path fill="#3F3F3F" d="M989.961,74.271h-0.154c-1.309,1.902-3.268,2.854-5.875,2.854c-2.449,0-4.354-0.837-5.713-2.512
		c-1.361-1.674-2.041-4.054-2.041-7.141c0-3.086,0.682-5.482,2.049-7.191c1.365-1.708,3.268-2.563,5.705-2.563
		c2.539,0,4.486,0.923,5.842,2.768h0.221l-0.119-1.352l-0.068-1.317v-7.63h2.838v26.594h-2.309L989.961,74.271z M984.291,74.75
		c1.936,0,3.338-0.526,4.209-1.58c0.871-1.053,1.307-2.753,1.307-5.1v-0.598c0-2.652-0.441-4.546-1.324-5.68
		c-0.881-1.133-2.291-1.699-4.227-1.699c-1.662,0-2.934,0.646-3.816,1.939c-0.883,1.292-1.322,3.117-1.322,5.475
		c0,2.391,0.438,4.195,1.314,5.414S982.594,74.75,984.291,74.75z"/>
	<path fill="#3F3F3F" d="M1005.873,77.125c-2.766,0-4.949-0.843-6.549-2.528s-2.4-4.026-2.4-7.021c0-3.018,0.742-5.416,2.229-7.192
		s3.482-2.665,5.986-2.665c2.346,0,4.203,0.771,5.568,2.315c1.367,1.544,2.051,3.58,2.051,6.108v1.795h-12.895
		c0.057,2.199,0.611,3.869,1.666,5.01c1.053,1.139,2.535,1.709,4.447,1.709c2.016,0,4.008-0.422,5.979-1.265v2.524
		c-1.002,0.432-1.951,0.74-2.844,0.928C1008.217,77.031,1007.137,77.125,1005.873,77.125z M1005.105,60.094
		c-1.504,0-2.701,0.49-3.594,1.469c-0.895,0.979-1.42,2.333-1.58,4.063h9.783c0-1.787-0.398-3.155-1.195-4.105
		S1006.584,60.094,1005.105,60.094z"/>
	<path fill="#3F3F3F" d="M1040.785,76.781v-12.18c0-1.492-0.32-2.611-0.959-3.357c-0.637-0.746-1.629-1.119-2.975-1.119
		c-1.766,0-3.07,0.507-3.914,1.521s-1.266,2.574-1.266,4.681v10.455h-2.836v-12.18c0-1.492-0.32-2.611-0.957-3.357
		c-0.639-0.746-1.637-1.119-2.992-1.119c-1.777,0-3.08,0.533-3.906,1.598s-1.238,2.811-1.238,5.236v9.822h-2.838V58.063h2.307
		l0.463,2.563h0.137c0.535-0.912,1.289-1.624,2.264-2.137s2.066-0.77,3.273-0.77c2.93,0,4.844,1.061,5.744,3.18h0.137
		c0.559-0.98,1.367-1.755,2.428-2.324c1.059-0.57,2.268-0.855,3.623-0.855c2.119,0,3.707,0.544,4.762,1.631
		c1.053,1.088,1.58,2.828,1.58,5.219v12.213H1040.785z"/>
	<path fill="#3F3F3F" d="M1048.52,52.976c0-0.649,0.158-1.126,0.479-1.429c0.318-0.302,0.717-0.453,1.195-0.453
		c0.457,0,0.85,0.154,1.18,0.462s0.496,0.781,0.496,1.42c0,0.64-0.166,1.116-0.496,1.429c-0.33,0.314-0.723,0.471-1.18,0.471
		c-0.479,0-0.877-0.156-1.195-0.471C1048.678,54.092,1048.52,53.615,1048.52,52.976z M1051.596,76.781h-2.838V58.063h2.838V76.781z"
		/>
	<path fill="#3F3F3F" d="M1064.395,77.125c-2.711,0-4.809-0.834-6.295-2.502c-1.486-1.669-2.229-4.029-2.229-7.082
		c0-3.131,0.754-5.551,2.264-7.26c1.508-1.708,3.658-2.563,6.449-2.563c0.898,0,1.799,0.097,2.699,0.289
		c0.898,0.193,1.605,0.42,2.117,0.68l-0.871,2.402c-0.627-0.25-1.309-0.458-2.049-0.623s-1.396-0.248-1.965-0.248
		c-3.805,0-5.705,2.43-5.705,7.287c0,2.304,0.463,4.072,1.391,5.303c0.928,1.232,2.305,1.848,4.127,1.848
		c1.559,0,3.158-0.336,4.799-1.008v2.506C1067.875,76.801,1066.297,77.125,1064.395,77.125z"/>
	<path fill="#3F3F3F" d="M1097.529,59.061c0,2.529-0.863,4.474-2.588,5.835s-4.193,2.042-7.404,2.042h-2.938v9.844h-2.906v-25h6.475
		C1094.408,51.781,1097.529,54.208,1097.529,59.061z M1084.6,64.438h2.613c2.572,0,4.434-0.416,5.584-1.248s1.725-2.166,1.725-4.001
		c0-1.653-0.541-2.884-1.623-3.693c-1.08-0.81-2.766-1.214-5.055-1.214h-3.244V64.438z"/>
	<path fill="#3F3F3F" d="M1110.18,57.719c0.832,0,1.578,0.068,2.238,0.206l-0.393,2.644c-0.775-0.17-1.457-0.256-2.049-0.256
		c-1.516,0-2.811,0.615-3.887,1.844s-1.613,2.758-1.613,4.59v10.035h-2.838V58.063h2.342l0.324,3.465h0.137
		c0.695-1.218,1.531-2.157,2.512-2.818C1107.932,58.049,1109.008,57.719,1110.18,57.719z"/>
	<path fill="#3F3F3F" d="M1123.135,77.125c-2.768,0-4.951-0.843-6.551-2.528s-2.398-4.026-2.398-7.021
		c0-3.018,0.742-5.416,2.229-7.192s3.48-2.665,5.986-2.665c2.346,0,4.201,0.771,5.568,2.315c1.365,1.544,2.049,3.58,2.049,6.108
		v1.795h-12.893c0.057,2.199,0.611,3.869,1.664,5.01c1.053,1.139,2.535,1.709,4.449,1.709c2.014,0,4.008-0.422,5.977-1.265v2.524
		c-1.002,0.432-1.949,0.74-2.844,0.928S1124.398,77.125,1123.135,77.125z M1122.365,60.094c-1.502,0-2.699,0.49-3.594,1.469
		c-0.893,0.979-1.42,2.333-1.578,4.063h9.783c0-1.787-0.398-3.155-1.195-4.105S1123.846,60.094,1122.365,60.094z"/>
	<path fill="#3F3F3F" d="M1146.238,71.676c0,1.742-0.648,3.086-1.947,4.031c-1.297,0.945-3.119,1.418-5.465,1.418
		c-2.482,0-4.418-0.393-5.807-1.18v-2.633c0.898,0.455,1.863,0.814,2.895,1.076c1.029,0.262,2.023,0.393,2.98,0.393
		c1.479,0,2.617-0.236,3.414-0.708s1.195-1.192,1.195-2.159c0-0.729-0.314-1.352-0.947-1.87c-0.631-0.519-1.863-1.13-3.697-1.837
		c-1.742-0.648-2.98-1.215-3.715-1.699s-1.281-1.033-1.639-1.648c-0.359-0.615-0.539-1.35-0.539-2.203
		c0-1.526,0.621-2.73,1.863-3.613c1.24-0.883,2.943-1.324,5.105-1.324c2.016,0,3.986,0.41,5.91,1.23l-1.008,2.307
		c-1.879-0.774-3.58-1.162-5.105-1.162c-1.344,0-2.357,0.211-3.041,0.632c-0.682,0.421-1.023,1.002-1.023,1.742
		c0,0.501,0.127,0.929,0.385,1.281c0.256,0.354,0.668,0.689,1.236,1.009c0.57,0.318,1.662,0.779,3.279,1.383
		c2.221,0.809,3.721,1.623,4.5,2.443C1145.85,69.404,1146.238,70.434,1146.238,71.676z"/>
	<path fill="#3F3F3F" d="M1162.236,71.676c0,1.742-0.65,3.086-1.947,4.031c-1.299,0.945-3.121,1.418-5.467,1.418
		c-2.482,0-4.418-0.393-5.807-1.18v-2.633c0.9,0.455,1.865,0.814,2.895,1.076c1.031,0.262,2.023,0.393,2.98,0.393
		c1.48,0,2.619-0.236,3.416-0.708s1.195-1.192,1.195-2.159c0-0.729-0.316-1.352-0.947-1.87c-0.633-0.519-1.865-1.13-3.697-1.837
		c-1.742-0.648-2.98-1.215-3.715-1.699s-1.281-1.033-1.641-1.648c-0.357-0.615-0.537-1.35-0.537-2.203
		c0-1.526,0.621-2.73,1.861-3.613c1.242-0.883,2.943-1.324,5.107-1.324c2.016,0,3.984,0.41,5.91,1.23l-1.008,2.307
		c-1.879-0.774-3.582-1.162-5.107-1.162c-1.344,0-2.355,0.211-3.039,0.632s-1.025,1.002-1.025,1.742
		c0,0.501,0.129,0.929,0.385,1.281c0.256,0.354,0.668,0.689,1.238,1.009c0.568,0.318,1.662,0.779,3.279,1.383
		c2.219,0.809,3.719,1.623,4.5,2.443C1161.846,69.404,1162.236,70.434,1162.236,71.676z"/>
	<path fill="#3F3F3F" d="M1169.143,72.719l0.256,0.394c-0.297,1.142-0.725,2.468-1.283,3.98c-0.559,1.512-1.141,2.919-1.746,4.22
		h-2.139c0.307-1.188,0.646-2.654,1.018-4.399c0.371-1.746,0.631-3.145,0.779-4.194H1169.143z"/>
	<path fill="#3F3F3F" d="M1197.543,76.781h-16.412v-2.443l6.574-6.609c2.004-2.027,3.324-3.474,3.961-4.339
		c0.639-0.865,1.117-1.708,1.436-2.528s0.479-1.702,0.479-2.647c0-1.332-0.404-2.388-1.213-3.169c-0.809-0.779-1.93-1.17-3.363-1.17
		c-1.037,0-2.02,0.171-2.947,0.513s-1.961,0.963-3.1,1.862l-1.502-1.931c2.299-1.921,4.805-2.882,7.516-2.882
		c2.346,0,4.184,0.602,5.516,1.804s1.998,2.817,1.998,4.847c0,1.584-0.443,3.15-1.332,4.701c-0.887,1.549-2.549,3.51-4.986,5.88
		l-5.463,5.351v0.137h12.84V76.781z"/>
	<path fill="#3F3F3F" d="M1216.992,64.258c0,4.317-0.68,7.541-2.041,9.672c-1.359,2.131-3.441,3.195-6.242,3.195
		c-2.688,0-4.73-1.091-6.131-3.272s-2.102-5.38-2.102-9.595c0-4.353,0.678-7.582,2.033-9.689s3.422-3.162,6.199-3.162
		c2.711,0,4.768,1.1,6.174,3.299C1216.289,56.903,1216.992,60.088,1216.992,64.258z M1203.348,64.264
		c0,3.635,0.428,6.28,1.281,7.938c0.854,1.658,2.213,2.486,4.08,2.486c1.891,0,3.258-0.84,4.107-2.521
		c0.848-1.681,1.271-4.314,1.271-7.903c0-3.588-0.424-6.217-1.271-7.885c-0.85-1.67-2.217-2.504-4.107-2.504
		c-1.867,0-3.227,0.823-4.08,2.469C1203.775,57.99,1203.348,60.631,1203.348,64.264z"/>
	<path fill="#3F3F3F" d="M1236.305,64.258c0,4.317-0.682,7.541-2.041,9.672c-1.361,2.131-3.441,3.195-6.242,3.195
		c-2.688,0-4.732-1.091-6.133-3.272s-2.1-5.38-2.1-9.595c0-4.353,0.678-7.582,2.031-9.689c1.355-2.107,3.422-3.162,6.201-3.162
		c2.709,0,4.768,1.1,6.174,3.299C1235.602,56.903,1236.305,60.088,1236.305,64.258z M1222.66,64.264c0,3.635,0.426,6.28,1.279,7.938
		c0.854,1.658,2.215,2.486,4.082,2.486c1.889,0,3.258-0.84,4.105-2.521s1.271-4.314,1.271-7.903c0-3.588-0.424-6.217-1.271-7.885
		c-0.848-1.67-2.217-2.504-4.105-2.504c-1.867,0-3.229,0.823-4.082,2.469C1223.086,57.99,1222.66,60.631,1222.66,64.264z"/>
	<path fill="#3F3F3F" d="M1249.572,76.781h-2.77V58.963c0-1.481,0.045-2.884,0.137-4.206c-0.238,0.239-0.508,0.49-0.803,0.753
		c-0.297,0.262-1.65,1.373-4.064,3.334l-1.504-1.949l6.611-5.113h2.393V76.781z"/>
	<path fill="#3F3F3F" d="M1259.268,74.977c0-0.762,0.172-1.339,0.52-1.731s0.848-0.589,1.496-0.589c0.66,0,1.176,0.196,1.547,0.589
		c0.369,0.393,0.555,0.97,0.555,1.731c0,0.74-0.188,1.309-0.563,1.707c-0.377,0.398-0.889,0.598-1.539,0.598
		c-0.58,0-1.063-0.18-1.443-0.537C1259.457,76.385,1259.268,75.797,1259.268,74.977z"/>
</g>
</svg>
