<?xml version="1.0" encoding="utf-8"?>
<!-- Generator: Adobe Illustrator 12.0.0, SVG Export Plug-In . SVG Version: 6.00 Build 51448)  -->
<!DOCTYPE svg PUBLIC "-//W3C//DTD SVG 1.1//EN" "http://www.w3.org/Graphics/SVG/1.1/DTD/svg11.dtd" [
	<!ENTITY ns_svg "http://www.w3.org/2000/svg">
	<!ENTITY ns_xlink "http://www.w3.org/1999/xlink">
]>
<svg  version="1.1" id="Layer_1" xmlns="&ns_svg;" xmlns:xlink="&ns_xlink;" width="1424" height="105.219" viewBox="0 -20 1424 105.219" overflow="visible" enable-background="new 0 0 1422.479 85.219" xml:space="preserve">
<g>
	<path fill="#3F3F3F" d="M20.378,26.813h-3.315L3.417,5.831H3.28c0.182,2.462,0.273,4.72,0.273,6.771v14.21H0.87v-25h3.281
		l13.612,20.896H17.9c-0.023-0.308-0.074-1.297-0.154-2.967c-0.08-1.67-0.108-2.864-0.085-3.583V1.813h2.717V26.813z"/>
	<path fill="#3F3F3F" d="M25.889,3.007c0-0.65,0.159-1.126,0.479-1.428c0.319-0.302,0.718-0.454,1.196-0.454
		c0.456,0,0.849,0.154,1.179,0.462c0.33,0.308,0.496,0.781,0.496,1.42c0,0.639-0.166,1.116-0.496,1.429
		c-0.331,0.313-0.724,0.47-1.179,0.47c-0.479,0-0.877-0.157-1.196-0.47C26.048,4.123,25.889,3.646,25.889,3.007z M28.965,26.813
		h-2.837V8.094h2.837V26.813z"/>
	<path fill="#3F3F3F" d="M37.118,26.813h-2.837V0.219h2.837V26.813z"/>
	<path fill="#3F3F3F" d="M58.589,17.436c0,3.052-0.769,5.436-2.306,7.149s-3.66,2.571-6.37,2.571c-1.674,0-3.16-0.393-4.458-1.179
		c-1.298-0.786-2.3-1.913-3.006-3.382c-0.706-1.469-1.059-3.188-1.059-5.159c0-3.052,0.763-5.429,2.288-7.132
		s3.643-2.554,6.353-2.554c2.619,0,4.699,0.872,6.242,2.614C57.818,12.106,58.589,14.464,58.589,17.436z M44.332,17.435
		c0,2.392,0.478,4.214,1.434,5.467s2.361,1.879,4.217,1.879c1.854,0,3.263-0.624,4.225-1.871s1.443-3.073,1.443-5.476
		c0-2.38-0.481-4.188-1.443-5.424s-2.381-1.854-4.259-1.854c-1.855,0-3.255,0.609-4.2,1.828
		C44.804,13.203,44.332,15.02,44.332,17.435z"/>
	<path fill="#3F3F3F" d="M93.233,20.166c0,2.199-0.798,3.914-2.394,5.145s-3.762,1.846-6.497,1.846
		c-2.964,0-5.244-0.379-6.839-1.138v-2.794c1.026,0.433,2.143,0.775,3.352,1.025c1.208,0.251,2.405,0.376,3.591,0.376
		c1.938,0,3.397-0.369,4.377-1.106c0.98-0.737,1.471-1.764,1.471-3.079c0-0.866-0.174-1.575-0.521-2.127s-0.929-1.063-1.744-1.53
		c-0.815-0.467-2.055-0.997-3.72-1.59c-2.326-0.832-3.987-1.817-4.985-2.957c-0.998-1.139-1.496-2.626-1.496-4.46
		c0-1.926,0.724-3.458,2.171-4.598c1.448-1.139,3.363-1.709,5.746-1.709c2.485,0,4.771,0.455,6.856,1.365l-0.906,2.527
		c-2.063-0.866-4.07-1.299-6.02-1.299c-1.539,0-2.742,0.331-3.608,0.993c-0.867,0.662-1.3,1.58-1.3,2.754
		c0,0.866,0.159,1.575,0.479,2.128s0.858,1.06,1.616,1.521c0.758,0.461,1.918,0.971,3.48,1.53c2.622,0.935,4.426,1.937,5.412,3.008
		C92.74,17.067,93.233,18.457,93.233,20.166z"/>
	<path fill="#3F3F3F" d="M103.249,24.813c0.5,0,0.984-0.037,1.45-0.111s0.836-0.151,1.109-0.231v2.172
		c-0.308,0.148-0.76,0.271-1.357,0.368c-0.598,0.097-1.135,0.146-1.613,0.146c-3.62,0-5.429-1.905-5.429-5.717V10.313h-2.68V8.942
		l2.682-1.183l1.196-4.009h1.64v4.344h5.427v2.219h-5.427v11.003c0,1.126,0.267,1.991,0.802,2.593S102.315,24.813,103.249,24.813z"
		/>
	<path fill="#3F3F3F" d="M125.016,17.436c0,3.052-0.769,5.436-2.306,7.149s-3.66,2.571-6.37,2.571c-1.674,0-3.16-0.393-4.458-1.179
		c-1.298-0.786-2.3-1.913-3.006-3.382c-0.706-1.469-1.059-3.188-1.059-5.159c0-3.052,0.763-5.429,2.288-7.132
		s3.643-2.554,6.353-2.554c2.619,0,4.699,0.872,6.242,2.614C124.245,12.106,125.016,14.464,125.016,17.436z M110.758,17.435
		c0,2.392,0.478,4.214,1.434,5.467s2.361,1.879,4.217,1.879c1.854,0,3.263-0.624,4.225-1.871s1.443-3.073,1.443-5.476
		c0-2.38-0.481-4.188-1.443-5.424s-2.381-1.854-4.259-1.854c-1.855,0-3.255,0.609-4.2,1.828
		C111.23,13.203,110.758,15.02,110.758,17.435z"/>
	<path fill="#3F3F3F" d="M132.137,26.813H129.3V0.219h2.837V26.813z"/>
	<path fill="#3F3F3F" d="M143.498,24.813c0.5,0,0.984-0.037,1.45-0.111s0.836-0.151,1.109-0.231v2.172
		c-0.308,0.148-0.76,0.271-1.357,0.368c-0.598,0.097-1.135,0.146-1.613,0.146c-3.62,0-5.429-1.905-5.429-5.717V10.313h-2.68V8.942
		l2.682-1.183l1.196-4.009h1.64v4.344h5.427v2.219h-5.427v11.003c0,1.126,0.267,1.991,0.802,2.593S142.564,24.813,143.498,24.813z"
		/>
	<path fill="#3F3F3F" d="M157.018,27.156c-2.767,0-4.951-0.843-6.55-2.528s-2.399-4.026-2.399-7.021
		c0-3.018,0.743-5.415,2.229-7.192c1.486-1.776,3.481-2.665,5.986-2.665c2.346,0,4.202,0.772,5.568,2.315
		c1.366,1.544,2.05,3.58,2.05,6.109v1.794h-12.894c0.057,2.2,0.612,3.87,1.665,5.009c1.053,1.14,2.536,1.709,4.449,1.709
		c2.015,0,4.007-0.421,5.977-1.265v2.524c-1.002,0.432-1.95,0.741-2.844,0.928C159.36,27.063,158.281,27.156,157.018,27.156z
		 M156.249,10.125c-1.503,0-2.701,0.49-3.594,1.468c-0.894,0.979-1.42,2.333-1.579,4.063h9.783c0-1.787-0.398-3.155-1.195-4.105
		S157.729,10.125,156.249,10.125z"/>
	<path fill="#3F3F3F" d="M195.39,26.813l-0.564-2.664h-0.137c-0.935,1.173-1.866,1.968-2.794,2.384
		c-0.929,0.416-2.088,0.624-3.479,0.624c-1.857,0-3.313-0.478-4.367-1.435c-1.054-0.956-1.581-2.317-1.581-4.082
		c0-3.78,3.025-5.761,9.077-5.943l3.179-0.103v-1.162c0-1.47-0.316-2.555-0.949-3.255c-0.633-0.701-1.644-1.051-3.034-1.051
		c-1.562,0-3.328,0.479-5.299,1.436l-0.872-2.171c0.923-0.501,1.935-0.895,3.034-1.18s2.202-0.428,3.307-0.428
		c2.233,0,3.889,0.496,4.966,1.486c1.077,0.991,1.615,2.58,1.615,4.766v12.779H195.39z M188.98,24.813
		c1.766,0,3.153-0.482,4.162-1.448c1.009-0.965,1.513-2.316,1.513-4.054v-1.686l-2.838,0.119c-2.256,0.08-3.883,0.429-4.88,1.047
		c-0.997,0.619-1.496,1.582-1.496,2.887c0,1.022,0.311,1.8,0.932,2.333S187.863,24.813,188.98,24.813z"/>
	<path fill="#3F3F3F" d="M215.44,26.813V14.7c0-1.526-0.347-2.665-1.042-3.417c-0.694-0.751-1.782-1.127-3.261-1.127
		c-1.958,0-3.392,0.53-4.303,1.589c-0.911,1.06-1.366,2.808-1.366,5.245v9.823h-2.837V8.094h2.307l0.461,2.56h0.137
		c0.581-0.922,1.395-1.637,2.442-2.144s2.214-0.76,3.501-0.76c2.254,0,3.95,0.544,5.089,1.631c1.139,1.088,1.708,2.827,1.708,5.218
		v12.213H215.44z"/>
	<path fill="#3F3F3F" d="M236.157,24.303h-0.154c-1.31,1.902-3.268,2.853-5.875,2.853c-2.448,0-4.353-0.837-5.713-2.511
		c-1.361-1.674-2.041-4.054-2.041-7.141c0-3.086,0.683-5.483,2.049-7.192c1.366-1.708,3.268-2.563,5.705-2.563
		c2.539,0,4.486,0.923,5.841,2.768h0.222l-0.12-1.352l-0.068-1.317v-7.63h2.837v26.594h-2.307L236.157,24.303z M230.487,24.781
		c1.936,0,3.338-0.526,4.209-1.58c0.871-1.053,1.307-2.753,1.307-5.099v-0.598c0-2.653-0.441-4.546-1.324-5.68
		c-0.882-1.133-2.291-1.7-4.227-1.7c-1.662,0-2.935,0.646-3.817,1.939s-1.323,3.117-1.323,5.475c0,2.392,0.438,4.196,1.315,5.415
		C227.504,24.172,228.791,24.781,230.487,24.781z"/>
	<path fill="#3F3F3F" d="M263.317,16.406v10.406h-2.905v-25h6.85c3.063,0,5.326,0.587,6.79,1.76
		c1.463,1.173,2.195,2.939,2.195,5.296c0,3.304-1.674,5.537-5.021,6.698l6.781,11.245h-3.435l-6.046-10.406H263.317z
		 M263.317,13.906h3.979c2.049,0,3.552-0.408,4.508-1.223s1.435-2.039,1.435-3.669c0-1.653-0.487-2.845-1.46-3.575
		c-0.974-0.729-2.536-1.095-4.687-1.095h-3.774V13.906z"/>
	<path fill="#3F3F3F" d="M288.828,27.156c-2.767,0-4.951-0.843-6.55-2.528s-2.399-4.026-2.399-7.021
		c0-3.018,0.743-5.415,2.229-7.192c1.486-1.776,3.481-2.665,5.986-2.665c2.346,0,4.202,0.772,5.568,2.315
		c1.366,1.544,2.05,3.58,2.05,6.109v1.794h-12.894c0.057,2.2,0.612,3.87,1.665,5.009c1.053,1.14,2.536,1.709,4.449,1.709
		c2.015,0,4.007-0.421,5.977-1.265v2.524c-1.002,0.432-1.95,0.741-2.844,0.928C291.17,27.063,290.091,27.156,288.828,27.156z
		 M288.059,10.125c-1.503,0-2.701,0.49-3.594,1.468c-0.894,0.979-1.42,2.333-1.579,4.063h9.783c0-1.787-0.398-3.155-1.195-4.105
		S289.539,10.125,288.059,10.125z"/>
	<path fill="#3F3F3F" d="M312.664,26.813V14.7c0-1.526-0.347-2.665-1.042-3.417c-0.694-0.751-1.782-1.127-3.261-1.127
		c-1.958,0-3.392,0.53-4.303,1.589c-0.911,1.06-1.366,2.808-1.366,5.245v9.823h-2.837V8.094h2.307l0.461,2.56h0.137
		c0.581-0.922,1.395-1.637,2.442-2.144s2.214-0.76,3.501-0.76c2.254,0,3.95,0.544,5.089,1.631c1.139,1.088,1.708,2.827,1.708,5.218
		v12.213H312.664z"/>
	<path fill="#3F3F3F" d="M328.546,27.156c-2.767,0-4.951-0.843-6.55-2.528s-2.399-4.026-2.399-7.021
		c0-3.018,0.743-5.415,2.229-7.192c1.486-1.776,3.481-2.665,5.986-2.665c2.346,0,4.202,0.772,5.568,2.315
		c1.366,1.544,2.05,3.58,2.05,6.109v1.794h-12.894c0.057,2.2,0.612,3.87,1.665,5.009c1.053,1.14,2.536,1.709,4.449,1.709
		c2.015,0,4.007-0.421,5.977-1.265v2.524c-1.002,0.432-1.95,0.741-2.844,0.928C330.889,27.063,329.81,27.156,328.546,27.156z
		 M327.777,10.125c-1.503,0-2.701,0.49-3.594,1.468c-0.894,0.979-1.42,2.333-1.579,4.063h9.783c0-1.787-0.398-3.155-1.195-4.105
		S329.257,10.125,327.777,10.125z M325.688,5.167c0.546-0.705,1.136-1.558,1.768-2.558s1.13-1.87,1.495-2.609h3.45v0.358
		c-0.501,0.739-1.247,1.649-2.238,2.729s-1.85,1.916-2.579,2.507h-1.896V5.167z"/>
	<path fill="#3F3F3F" d="M366.531,4.063c-2.748,0-4.917,0.914-6.508,2.742c-1.591,1.828-2.386,4.331-2.386,7.508
		c0,3.269,0.767,5.794,2.3,7.577c1.533,1.782,3.72,2.673,6.559,2.673c1.744,0,3.734-0.313,5.969-0.94v2.555
		c-1.733,0.652-3.871,0.979-6.413,0.979c-3.683,0-6.524-1.116-8.524-3.35c-2.001-2.233-3.001-5.407-3.001-9.52
		c0-2.575,0.481-4.831,1.445-6.768s2.354-3.43,4.173-4.478c1.818-1.048,3.958-1.572,6.421-1.572c2.622,0,4.914,0.478,6.875,1.434
		l-1.231,2.493C370.316,4.507,368.424,4.063,366.531,4.063z"/>
	<path fill="#3F3F3F" d="M388.298,26.813l-0.564-2.664h-0.137c-0.935,1.173-1.866,1.968-2.794,2.384
		c-0.929,0.416-2.088,0.624-3.479,0.624c-1.857,0-3.313-0.478-4.367-1.435c-1.054-0.956-1.581-2.317-1.581-4.082
		c0-3.78,3.025-5.761,9.077-5.943l3.179-0.103v-1.162c0-1.47-0.316-2.555-0.949-3.255c-0.633-0.701-1.644-1.051-3.034-1.051
		c-1.562,0-3.328,0.479-5.299,1.436l-0.872-2.171c0.923-0.501,1.935-0.895,3.034-1.18s2.202-0.428,3.307-0.428
		c2.233,0,3.889,0.496,4.966,1.486c1.077,0.991,1.615,2.58,1.615,4.766v12.779H388.298z M381.889,24.813
		c1.766,0,3.153-0.482,4.162-1.448c1.009-0.965,1.513-2.316,1.513-4.054v-1.686l-2.838,0.119c-2.256,0.08-3.883,0.429-4.88,1.047
		c-0.997,0.619-1.496,1.582-1.496,2.887c0,1.022,0.311,1.8,0.932,2.333S380.771,24.813,381.889,24.813z"/>
	<path fill="#3F3F3F" d="M398.207,8.094v12.144c0,1.526,0.347,2.665,1.042,3.417s1.781,1.127,3.261,1.127
		c1.958,0,3.389-0.535,4.294-1.605c0.905-1.07,1.357-2.818,1.357-5.244V8.094h2.837v18.719h-2.341l-0.41-2.509h-0.154
		c-0.581,0.923-1.386,1.629-2.417,2.118s-2.206,0.734-3.526,0.734c-2.277,0-3.982-0.541-5.115-1.623s-1.699-2.813-1.699-5.193V8.094
		H398.207z"/>
	<path fill="#3F3F3F" d="M425.036,7.781c2.459,0,4.37,0.84,5.73,2.52c1.36,1.68,2.041,4.058,2.041,7.133
		c0,3.076-0.686,5.465-2.058,7.167c-1.372,1.703-3.277,2.554-5.713,2.554c-1.219,0-2.332-0.225-3.339-0.675
		c-1.008-0.45-1.853-1.142-2.536-2.076h-0.205l-0.598,2.407h-2.034V0.219h2.837v6.465c0,1.448-0.046,2.748-0.137,3.899h0.137
		C420.481,8.715,422.439,7.781,425.036,7.781z M424.625,10.156c-1.936,0-3.331,0.556-4.184,1.666
		c-0.854,1.11-1.281,2.981-1.281,5.612c0,2.631,0.438,4.514,1.315,5.647c0.876,1.133,2.283,1.7,4.218,1.7
		c1.742,0,3.04-0.635,3.894-1.905c0.854-1.27,1.281-3.095,1.281-5.476c0-2.438-0.427-4.254-1.281-5.45
		C427.733,10.754,426.412,10.156,424.625,10.156z"/>
	<path fill="#3F3F3F" d="M444.979,27.156c-2.767,0-4.951-0.843-6.55-2.528s-2.399-4.026-2.399-7.021
		c0-3.018,0.743-5.415,2.229-7.192c1.486-1.776,3.481-2.665,5.986-2.665c2.346,0,4.202,0.772,5.568,2.315
		c1.366,1.544,2.05,3.58,2.05,6.109v1.794h-12.894c0.057,2.2,0.612,3.87,1.665,5.009c1.053,1.14,2.536,1.709,4.449,1.709
		c2.015,0,4.007-0.421,5.977-1.265v2.524c-1.002,0.432-1.95,0.741-2.844,0.928C447.321,27.063,446.242,27.156,444.979,27.156z
		 M444.21,10.125c-1.503,0-2.701,0.49-3.594,1.468c-0.894,0.979-1.42,2.333-1.579,4.063h9.783c0-1.787-0.398-3.155-1.195-4.105
		S445.689,10.125,444.21,10.125z"/>
	<path fill="#3F3F3F" d="M462.051,24.813c0.5,0,0.984-0.037,1.45-0.111s0.836-0.151,1.109-0.231v2.172
		c-0.308,0.148-0.76,0.271-1.357,0.368c-0.598,0.097-1.135,0.146-1.613,0.146c-3.62,0-5.429-1.905-5.429-5.717V10.313h-2.68V8.942
		l2.682-1.183l1.196-4.009h1.64v4.344h5.427v2.219h-5.427v11.003c0,1.126,0.267,1.991,0.802,2.593S461.118,24.813,462.051,24.813z"
		/>
	<path fill="#3F3F3F" d="M467.254,25.008c0-0.762,0.173-1.339,0.521-1.732s0.846-0.589,1.496-0.589c0.661,0,1.176,0.196,1.546,0.589
		s0.556,0.97,0.556,1.732c0,0.74-0.188,1.309-0.564,1.707c-0.376,0.398-0.889,0.597-1.538,0.597c-0.581,0-1.063-0.179-1.444-0.538
		S467.254,25.828,467.254,25.008z"/>
	<path fill="#3F3F3F" d="M512.967,14.073c0,2.816-0.539,5.167-1.615,7.054s-2.635,3.306-4.674,4.258
		c-2.04,0.952-4.495,1.428-7.366,1.428h-7.075v-25h7.844c2.62,0,4.893,0.465,6.819,1.394c1.925,0.929,3.418,2.303,4.478,4.121
		S512.967,11.395,512.967,14.073z M507.464,14.21c0-1.847-0.271-3.367-0.812-4.559c-0.541-1.191-1.339-2.072-2.393-2.643
		s-2.355-0.855-3.905-0.855h-2.82v16.284h2.273c2.586,0,4.509-0.69,5.768-2.07S507.464,16.936,507.464,14.21z"/>
	<path fill="#3F3F3F" d="M519.649,0.421c0.774,0,1.441,0.18,2,0.539c0.558,0.359,0.837,1.028,0.837,2.008
		c0,0.969-0.279,1.638-0.837,2.008c-0.559,0.37-1.225,0.555-2,0.555c-0.786,0-1.456-0.185-2.008-0.555s-0.829-1.04-0.829-2.008
		c0-0.979,0.276-1.649,0.829-2.008S518.863,0.421,519.649,0.421z M522.247,7.906v18.906h-5.212V7.906H522.247z"/>
	<path fill="#3F3F3F" d="M540.346,21.206c0,1.285-0.305,2.37-0.915,3.254s-1.518,1.556-2.726,2.012
		c-1.208,0.456-2.712,0.685-4.512,0.685c-1.333,0-2.476-0.085-3.427-0.256s-1.911-0.456-2.879-0.854v-4.307
		c1.037,0.467,2.15,0.852,3.341,1.154s2.236,0.453,3.136,0.453c1.014,0,1.74-0.146,2.179-0.437s0.658-0.673,0.658-1.146
		c0-0.315-0.088-0.6-0.265-0.854c-0.177-0.253-0.555-0.541-1.136-0.862s-1.493-0.741-2.734-1.259
		c-1.196-0.496-2.179-0.998-2.948-1.505c-0.769-0.507-1.339-1.107-1.709-1.8s-0.555-1.575-0.555-2.646
		c0-1.747,0.686-3.063,2.059-3.947s3.21-1.327,5.512-1.327c1.185,0,2.315,0.12,3.392,0.359s2.185,0.621,3.324,1.145l-1.572,3.76
		c-0.946-0.41-1.837-0.746-2.675-1.008c-0.837-0.262-1.689-0.393-2.555-0.393c-0.764,0-1.339,0.101-1.726,0.301
		c-0.388,0.201-0.581,0.507-0.581,0.92c0,0.301,0.1,0.569,0.299,0.803s0.587,0.494,1.162,0.778s1.421,0.649,2.538,1.095
		c1.082,0.439,2.022,0.899,2.82,1.378c0.797,0.479,1.413,1.071,1.846,1.775C540.129,19.18,540.346,20.09,540.346,21.206z"/>
	<path fill="#3F3F3F" d="M551.472,27.156c-1.892,0-3.503-0.341-4.836-1.022c-1.333-0.682-2.347-1.738-3.042-3.17
		c-0.695-1.432-1.042-3.263-1.042-5.495c0-2.311,0.396-4.195,1.188-5.655s1.891-2.533,3.298-3.221s3.039-1.031,4.896-1.031
		c1.321,0,2.463,0.128,3.426,0.385s1.803,0.561,2.521,0.914l-1.538,4.033c-0.82-0.33-1.584-0.601-2.29-0.812
		c-0.707-0.211-1.413-0.316-2.119-0.316c-0.912,0-1.669,0.21-2.273,0.629c-0.604,0.419-1.054,1.048-1.35,1.887
		c-0.296,0.838-0.444,1.889-0.444,3.152c0,1.241,0.159,2.27,0.479,3.086c0.319,0.816,0.78,1.423,1.384,1.819
		c0.604,0.397,1.338,0.595,2.205,0.595c1.082,0,2.045-0.145,2.888-0.436c0.843-0.291,1.663-0.698,2.461-1.222v4.46
		c-0.798,0.501-1.632,0.863-2.504,1.085C553.907,27.045,552.805,27.156,551.472,27.156z"/>
	<path fill="#3F3F3F" d="M571.673,7.563c0.262,0,0.566,0.015,0.914,0.043s0.629,0.065,0.846,0.111l-0.393,4.888
		c-0.171-0.057-0.413-0.1-0.727-0.128s-0.584-0.043-0.812-0.043c-0.672,0-1.325,0.084-1.957,0.253s-1.199,0.44-1.7,0.816
		c-0.501,0.376-0.897,0.87-1.188,1.482s-0.436,1.361-0.436,2.248v9.581h-5.212V7.906h3.948l0.769,3.228h0.256
		c0.376-0.649,0.846-1.245,1.41-1.786s1.208-0.974,1.931-1.299S570.83,7.563,571.673,7.563z"/>
	<path fill="#3F3F3F" d="M584.081,7.563c1.766,0,3.287,0.335,4.563,1.006c1.276,0.671,2.261,1.643,2.957,2.917
		c0.695,1.274,1.042,2.83,1.042,4.667v2.503h-12.322c0.057,1.44,0.498,2.57,1.324,3.39s1.974,1.23,3.444,1.23
		c1.219,0,2.335-0.125,3.35-0.376c1.014-0.25,2.056-0.626,3.127-1.128v4.033c-0.946,0.467-1.934,0.809-2.965,1.025
		s-2.281,0.325-3.751,0.325c-1.914,0-3.609-0.349-5.084-1.048s-2.632-1.764-3.469-3.195c-0.837-1.431-1.256-3.234-1.256-5.41
		c0-2.209,0.378-4.049,1.136-5.52s1.814-2.575,3.17-3.313C580.703,7.932,582.281,7.563,584.081,7.563z M584.115,11.271
		c-1.014,0-1.854,0.315-2.521,0.946c-0.667,0.631-1.051,1.621-1.153,2.97h7.314c-0.012-0.752-0.151-1.421-0.419-2.008
		c-0.268-0.586-0.667-1.051-1.196-1.394S584.936,11.271,584.115,11.271z"/>
	<path fill="#3F3F3F" d="M604.23,23.003c0.569,0,1.125-0.057,1.666-0.171c0.541-0.114,1.08-0.256,1.615-0.427v3.879
		c-0.559,0.251-1.25,0.459-2.077,0.624c-0.826,0.165-1.729,0.248-2.708,0.248c-1.14,0-2.162-0.183-3.068-0.548
		s-1.618-1.001-2.136-1.906s-0.777-2.168-0.777-3.788V11.82h-2.495V9.615l2.871-1.743l1.504-4.028h3.333v4.063h5.349v3.914h-5.349
		v9.051c0,0.717,0.208,1.251,0.624,1.604S603.547,23.003,604.23,23.003z"/>
	<path fill="#3F3F3F" d="M618.553,7.563c1.766,0,3.287,0.335,4.563,1.006c1.276,0.671,2.261,1.643,2.957,2.917
		c0.695,1.274,1.042,2.83,1.042,4.667v2.503h-12.322c0.057,1.44,0.498,2.57,1.324,3.39s1.974,1.23,3.444,1.23
		c1.219,0,2.335-0.125,3.35-0.376c1.014-0.25,2.056-0.626,3.127-1.128v4.033c-0.946,0.467-1.934,0.809-2.965,1.025
		s-2.281,0.325-3.751,0.325c-1.914,0-3.609-0.349-5.084-1.048s-2.632-1.764-3.469-3.195c-0.837-1.431-1.256-3.234-1.256-5.41
		c0-2.209,0.378-4.049,1.136-5.52s1.814-2.575,3.17-3.313C615.174,7.932,616.752,7.563,618.553,7.563z M618.587,11.271
		c-1.014,0-1.854,0.315-2.521,0.946c-0.667,0.631-1.051,1.621-1.153,2.97h7.314c-0.012-0.752-0.151-1.421-0.419-2.008
		c-0.268-0.586-0.667-1.051-1.196-1.394S619.407,11.271,618.587,11.271z"/>
	<path fill="#3F3F3F" d="M654.165,1.813c2.267,0,4.138,0.274,5.614,0.821c1.476,0.547,2.572,1.374,3.29,2.479
		c0.718,1.106,1.077,2.502,1.077,4.189c0,1.14-0.217,2.138-0.649,2.993c-0.433,0.855-1.003,1.579-1.709,2.171
		c-0.707,0.593-1.47,1.078-2.29,1.454l7.349,10.893h-5.879l-5.964-9.594h-2.82v9.594h-5.298v-25H654.165z M653.789,6.153h-1.606
		v6.759h1.709c1.754,0,3.01-0.293,3.768-0.881s1.137-1.452,1.137-2.593c0-1.186-0.408-2.03-1.222-2.532S655.498,6.153,653.789,6.153
		z"/>
	<path fill="#3F3F3F" d="M676.707,7.563c2.563,0,4.529,0.551,5.896,1.653c1.367,1.103,2.051,2.778,2.051,5.028v12.569h-3.64
		l-1.008-2.596h-0.137c-0.547,0.684-1.105,1.242-1.675,1.675c-0.57,0.433-1.225,0.752-1.965,0.957
		c-0.741,0.205-1.641,0.308-2.7,0.308c-1.128,0-2.139-0.214-3.034-0.642c-0.895-0.428-1.598-1.084-2.11-1.968
		s-0.769-2.007-0.769-3.37c0-2.004,0.712-3.482,2.136-4.434c1.424-0.951,3.56-1.478,6.409-1.579l3.315-0.102v-0.814
		c0-0.975-0.262-1.688-0.786-2.143c-0.524-0.454-1.253-0.681-2.188-0.681c-0.923,0-1.829,0.131-2.717,0.393
		c-0.889,0.262-1.777,0.593-2.666,0.991l-1.726-3.521c1.014-0.535,2.15-0.957,3.409-1.265S675.362,7.563,676.707,7.563z
		 M679.476,18.104l-2.017,0.066c-1.687,0.045-2.857,0.339-3.512,0.882s-0.982,1.259-0.982,2.146c0,0.776,0.233,1.328,0.701,1.655
		c0.467,0.327,1.077,0.491,1.829,0.491c1.116,0,2.059-0.321,2.828-0.965c0.769-0.643,1.154-1.558,1.154-2.745V18.104z"/>
	<path fill="#3F3F3F" d="M686.585,7.906h5.708l3.606,10.67c0.114,0.339,0.21,0.684,0.291,1.035c0.08,0.351,0.148,0.713,0.205,1.086
		c0.057,0.373,0.103,0.763,0.137,1.17h0.103c0.068-0.61,0.162-1.182,0.282-1.713c0.12-0.531,0.271-1.057,0.453-1.578l3.538-10.67
		h5.588l-8.083,21.392c-0.49,1.312-1.128,2.406-1.914,3.283c-0.786,0.876-1.689,1.535-2.709,1.976
		c-1.02,0.441-2.139,0.662-3.358,0.662c-0.593,0-1.105-0.032-1.538-0.094c-0.433-0.063-0.803-0.128-1.111-0.197v-4.136
		c0.239,0.057,0.541,0.108,0.906,0.154c0.364,0.045,0.746,0.068,1.145,0.068c0.729,0,1.355-0.151,1.88-0.454
		c0.524-0.303,0.962-0.709,1.316-1.219c0.353-0.51,0.632-1.068,0.837-1.673l0.308-0.933L686.585,7.906z"/>
	<path fill="#3F3F3F" d="M706.838,19.563V15.29h9.177v4.272H706.838z"/>
	<path fill="#3F3F3F" d="M729.142,26.813h-5.299V6.222h-6.783V1.813h18.867v4.409h-6.785V26.813z"/>
	<path fill="#3F3F3F" d="M749.325,7.563c0.262,0,0.566,0.015,0.914,0.043s0.629,0.065,0.846,0.111l-0.393,4.888
		c-0.172-0.057-0.414-0.1-0.727-0.128c-0.314-0.028-0.584-0.043-0.813-0.043c-0.672,0-1.324,0.084-1.957,0.253
		c-0.631,0.168-1.199,0.44-1.699,0.816c-0.502,0.376-0.898,0.87-1.188,1.482c-0.291,0.612-0.436,1.361-0.436,2.248v9.581h-5.213
		V7.906h3.947l0.77,3.228h0.256c0.377-0.649,0.846-1.245,1.41-1.786s1.207-0.974,1.932-1.299
		C747.698,7.725,748.481,7.563,749.325,7.563z"/>
	<path fill="#3F3F3F" d="M761.681,7.563c2.564,0,4.529,0.551,5.896,1.653c1.367,1.103,2.051,2.778,2.051,5.028v12.569h-3.641
		l-1.008-2.596h-0.137c-0.547,0.684-1.105,1.242-1.674,1.675c-0.57,0.433-1.227,0.752-1.967,0.957s-1.641,0.308-2.699,0.308
		c-1.129,0-2.139-0.214-3.033-0.642c-0.895-0.428-1.598-1.084-2.111-1.968c-0.512-0.884-0.77-2.007-0.77-3.37
		c0-2.004,0.713-3.482,2.137-4.434c1.424-0.951,3.561-1.478,6.408-1.579l3.316-0.102v-0.814c0-0.975-0.262-1.688-0.787-2.143
		c-0.523-0.454-1.252-0.681-2.188-0.681c-0.922,0-1.828,0.131-2.717,0.393c-0.889,0.262-1.777,0.593-2.666,0.991l-1.727-3.521
		c1.014-0.535,2.15-0.957,3.41-1.265C759.034,7.716,760.337,7.563,761.681,7.563z M764.45,18.104l-2.018,0.066
		c-1.686,0.045-2.855,0.339-3.512,0.882c-0.654,0.543-0.982,1.259-0.982,2.146c0,0.776,0.234,1.328,0.701,1.655
		s1.076,0.491,1.828,0.491c1.117,0,2.059-0.321,2.828-0.965c0.77-0.643,1.154-1.558,1.154-2.745V18.104z"/>
	<path fill="#3F3F3F" d="M782.054,27.156c-1.893,0-3.504-0.341-4.836-1.022c-1.334-0.682-2.348-1.738-3.043-3.17
		s-1.043-3.263-1.043-5.495c0-2.311,0.396-4.195,1.188-5.655c0.793-1.459,1.893-2.533,3.299-3.221
		c1.408-0.688,3.039-1.031,4.896-1.031c1.322,0,2.463,0.128,3.426,0.385s1.805,0.561,2.521,0.914l-1.537,4.033
		c-0.82-0.33-1.584-0.601-2.291-0.812s-1.412-0.316-2.119-0.316c-0.912,0-1.67,0.21-2.273,0.629
		c-0.604,0.419-1.053,1.048-1.35,1.887s-0.443,1.889-0.443,3.152c0,1.241,0.158,2.27,0.479,3.086
		c0.318,0.816,0.779,1.423,1.383,1.819c0.604,0.397,1.34,0.595,2.205,0.595c1.082,0,2.045-0.145,2.889-0.436
		c0.842-0.291,1.662-0.698,2.461-1.222v4.46c-0.799,0.501-1.633,0.863-2.504,1.085C784.489,27.045,783.386,27.156,782.054,27.156z"
		/>
	<path fill="#3F3F3F" d="M794.206,0.421c0.773,0,1.439,0.18,1.998,0.539s0.838,1.028,0.838,2.008c0,0.969-0.279,1.638-0.838,2.008
		s-1.225,0.555-1.998,0.555c-0.787,0-1.457-0.185-2.01-0.555s-0.828-1.04-0.828-2.008c0-0.979,0.275-1.649,0.828-2.008
		S793.419,0.421,794.206,0.421z M796.804,7.906v18.906h-5.213V7.906H796.804z"/>
	<path fill="#3F3F3F" d="M812.425,7.563c2.039,0,3.68,0.549,4.922,1.648s1.863,2.859,1.863,5.281v12.321h-5.213V15.81
		c0-1.348-0.248-2.364-0.744-3.05c-0.494-0.685-1.271-1.028-2.332-1.028c-1.596,0-2.684,0.534-3.264,1.601
		c-0.582,1.067-0.871,2.606-0.871,4.617v8.863h-5.213V7.906h3.982l0.699,2.459h0.291c0.41-0.661,0.92-1.196,1.529-1.606
		s1.287-0.712,2.033-0.906C810.854,7.66,811.628,7.563,812.425,7.563z"/>
	<path fill="#3F3F3F" d="M829.464,35.219c-2.666,0-4.703-0.459-6.109-1.378c-1.408-0.919-2.111-2.207-2.111-3.863
		c0-1.139,0.359-2.091,1.078-2.857c0.717-0.767,1.771-1.313,3.16-1.64c-0.535-0.227-1.002-0.599-1.4-1.117
		c-0.398-0.517-0.598-1.065-0.598-1.645c0-0.728,0.209-1.333,0.631-1.815s1.031-0.958,1.83-1.424
		c-1.004-0.429-1.799-1.119-2.385-2.068c-0.588-0.949-0.881-2.068-0.881-3.357c0-1.379,0.305-2.551,0.914-3.518
		c0.609-0.966,1.498-1.703,2.666-2.212s2.59-0.763,4.266-0.763c0.352,0,0.762,0.023,1.23,0.068c0.467,0.046,0.896,0.097,1.289,0.154
		c0.393,0.057,0.658,0.103,0.795,0.137h6.666v2.649l-2.992,0.769c0.273,0.417,0.479,0.863,0.615,1.336s0.205,0.975,0.205,1.505
		c0,2.03-0.715,3.611-2.145,4.745s-3.414,1.7-5.955,1.7c-0.604-0.034-1.174-0.08-1.709-0.137c-0.262,0.204-0.461,0.419-0.598,0.646
		s-0.205,0.465-0.205,0.714s0.104,0.456,0.314,0.62s0.531,0.289,0.957,0.374c0.428,0.085,0.961,0.127,1.6,0.127h3.246
		c2.096,0,3.693,0.446,4.793,1.339s1.65,2.203,1.65,3.931c0,2.214-0.932,3.931-2.795,5.151
		C835.624,34.608,832.95,35.219,829.464,35.219z M829.687,31.818c1.242,0,2.309-0.114,3.203-0.342
		c0.895-0.229,1.582-0.552,2.061-0.969c0.479-0.418,0.717-0.917,0.717-1.496c0-0.468-0.139-0.839-0.418-1.111
		c-0.279-0.273-0.701-0.465-1.266-0.577c-0.563-0.111-1.283-0.167-2.16-0.167h-2.701c-0.639,0-1.211,0.1-1.717,0.301
		c-0.508,0.2-0.91,0.481-1.205,0.844c-0.297,0.362-0.445,0.782-0.445,1.262c0,0.702,0.346,1.253,1.035,1.654
		C827.479,31.617,828.444,31.818,829.687,31.818z M830.524,17.446c0.979,0,1.697-0.297,2.152-0.893s0.684-1.404,0.684-2.426
		c0-1.134-0.236-1.985-0.709-2.552s-1.182-0.851-2.127-0.851c-0.957,0-1.676,0.284-2.154,0.851s-0.717,1.418-0.717,2.552
		c0,1.022,0.236,1.831,0.709,2.426S829.556,17.446,830.524,17.446z"/>
	<path fill="#3F3F3F" d="M876.132,17.334c0,1.578-0.213,2.976-0.641,4.193s-1.049,2.246-1.863,3.085s-1.793,1.474-2.939,1.902
		c-1.145,0.428-2.434,0.642-3.869,0.642c-1.346,0-2.578-0.214-3.701-0.642c-1.121-0.428-2.096-1.062-2.922-1.902
		s-1.465-1.868-1.914-3.085c-0.451-1.217-0.676-2.615-0.676-4.193c0-2.096,0.377-3.871,1.129-5.325s1.822-2.559,3.213-3.313
		c1.389-0.755,3.047-1.133,4.973-1.133c1.789,0,3.375,0.378,4.76,1.133s2.473,1.859,3.264,3.313
		C875.737,13.463,876.132,15.238,876.132,17.334z M862.923,17.334c0,1.23,0.137,2.264,0.41,3.103
		c0.273,0.839,0.699,1.47,1.281,1.895c0.58,0.425,1.338,0.637,2.273,0.637c0.922,0,1.672-0.212,2.246-0.637
		c0.576-0.425,0.998-1.056,1.266-1.895c0.268-0.838,0.4-1.873,0.4-3.103c0-1.241-0.133-2.272-0.4-3.094
		c-0.268-0.821-0.693-1.439-1.273-1.853c-0.582-0.414-1.34-0.621-2.273-0.621c-1.379,0-2.379,0.464-3,1.392
		S862.923,15.479,862.923,17.334z"/>
	<path fill="#3F3F3F" d="M890.3,11.82h-4.512v14.993h-5.211V11.82h-2.871V9.308l2.871-1.433V6.442c0-1.665,0.275-2.961,0.828-3.887
		s1.332-1.578,2.342-1.957c1.008-0.378,2.201-0.568,3.58-0.568c1.014,0,1.936,0.083,2.768,0.248s1.51,0.35,2.035,0.555l-1.334,3.828
		c-0.398-0.125-0.832-0.239-1.299-0.342s-1.002-0.154-1.605-0.154c-0.73,0-1.264,0.232-1.6,0.696s-0.504,1.057-0.504,1.779v1.265
		h4.512V11.82z"/>
	<path fill="#3F3F3F" d="M929.298,26.813h-5.281V16.031h-9.895v10.781h-5.299v-25h5.299v9.81h9.895v-9.81h5.281V26.813z"/>
	<path fill="#3F3F3F" d="M952.026,7.906v18.906h-3.998l-0.701-2.442h-0.273c-0.41,0.649-0.922,1.179-1.537,1.589
		s-1.295,0.712-2.035,0.906s-1.51,0.291-2.307,0.291c-1.367,0-2.559-0.24-3.572-0.719c-1.014-0.479-1.803-1.227-2.367-2.241
		c-0.563-1.015-0.846-2.334-0.846-3.958V7.906h5.213v11.015c0,1.35,0.244,2.367,0.734,3.053s1.271,1.029,2.342,1.029
		c1.061,0,1.891-0.239,2.496-0.717c0.604-0.478,1.027-1.181,1.271-2.108c0.246-0.928,0.369-2.061,0.369-3.399V7.906H952.026z"/>
	<path fill="#3F3F3F" d="M962.384,35.219c-2.666,0-4.703-0.459-6.109-1.378c-1.408-0.919-2.111-2.207-2.111-3.863
		c0-1.139,0.359-2.091,1.078-2.857c0.717-0.767,1.771-1.313,3.16-1.64c-0.535-0.227-1.002-0.599-1.4-1.117
		c-0.398-0.517-0.598-1.065-0.598-1.645c0-0.728,0.209-1.333,0.631-1.815s1.031-0.958,1.83-1.424
		c-1.004-0.429-1.799-1.119-2.385-2.068c-0.588-0.949-0.881-2.068-0.881-3.357c0-1.379,0.305-2.551,0.914-3.518
		c0.609-0.966,1.498-1.703,2.666-2.212s2.59-0.763,4.266-0.763c0.352,0,0.762,0.023,1.23,0.068c0.467,0.046,0.896,0.097,1.289,0.154
		c0.393,0.057,0.658,0.103,0.795,0.137h6.666v2.649l-2.992,0.769c0.273,0.417,0.479,0.863,0.615,1.336s0.205,0.975,0.205,1.505
		c0,2.03-0.715,3.611-2.145,4.745s-3.414,1.7-5.955,1.7c-0.604-0.034-1.174-0.08-1.709-0.137c-0.262,0.204-0.461,0.419-0.598,0.646
		s-0.205,0.465-0.205,0.714s0.104,0.456,0.314,0.62s0.531,0.289,0.957,0.374c0.428,0.085,0.961,0.127,1.6,0.127h3.246
		c2.096,0,3.693,0.446,4.793,1.339s1.65,2.203,1.65,3.931c0,2.214-0.932,3.931-2.795,5.151
		C968.544,34.608,965.87,35.219,962.384,35.219z M962.606,31.818c1.242,0,2.309-0.114,3.203-0.342
		c0.895-0.229,1.582-0.552,2.061-0.969c0.479-0.418,0.717-0.917,0.717-1.496c0-0.468-0.139-0.839-0.418-1.111
		c-0.279-0.273-0.701-0.465-1.266-0.577c-0.563-0.111-1.283-0.167-2.16-0.167h-2.701c-0.639,0-1.211,0.1-1.717,0.301
		c-0.508,0.2-0.91,0.481-1.205,0.844c-0.297,0.362-0.445,0.782-0.445,1.262c0,0.702,0.346,1.253,1.035,1.654
		C960.399,31.617,961.364,31.818,962.606,31.818z M963.444,17.446c0.979,0,1.697-0.297,2.152-0.893s0.684-1.404,0.684-2.426
		c0-1.134-0.236-1.985-0.709-2.552s-1.182-0.851-2.127-0.851c-0.957,0-1.676,0.284-2.154,0.851s-0.717,1.418-0.717,2.552
		c0,1.022,0.236,1.831,0.709,2.426S962.476,17.446,963.444,17.446z"/>
	<path fill="#3F3F3F" d="M983.747,7.563c1.766,0,3.285,0.335,4.563,1.006c1.275,0.671,2.262,1.643,2.957,2.917
		c0.693,1.274,1.041,2.83,1.041,4.667v2.503h-12.32c0.057,1.44,0.498,2.57,1.324,3.39s1.973,1.23,3.443,1.23
		c1.219,0,2.336-0.125,3.35-0.376c1.014-0.25,2.057-0.626,3.127-1.128v4.033c-0.945,0.467-1.934,0.809-2.965,1.025
		s-2.281,0.325-3.752,0.325c-1.914,0-3.607-0.349-5.084-1.048c-1.475-0.699-2.631-1.764-3.469-3.195
		c-0.838-1.431-1.256-3.234-1.256-5.41c0-2.209,0.379-4.049,1.137-5.52s1.814-2.575,3.17-3.313S981.946,7.563,983.747,7.563z
		 M983.78,11.271c-1.014,0-1.854,0.315-2.521,0.946c-0.666,0.631-1.051,1.621-1.152,2.97h7.314c-0.012-0.752-0.152-1.421-0.42-2.008
		c-0.268-0.586-0.666-1.051-1.195-1.394S984.601,11.271,983.78,11.271z"/>
	<path fill="#3F3F3F" d="M1031.681,1.813l-8.494,25h-5.775l-8.477-25h5.35l4.699,14.877c0.08,0.251,0.211,0.721,0.393,1.411
		s0.367,1.419,0.555,2.188c0.189,0.77,0.316,1.405,0.385,1.907c0.068-0.501,0.191-1.134,0.367-1.898
		c0.178-0.764,0.354-1.491,0.531-2.18c0.176-0.689,0.305-1.166,0.385-1.428l4.732-14.877H1031.681z"/>
	<path fill="#3F3F3F" d="M1051.079,17.334c0,1.578-0.215,2.976-0.641,4.193c-0.428,1.217-1.049,2.246-1.863,3.085
		s-1.795,1.474-2.939,1.902c-1.145,0.428-2.436,0.642-3.871,0.642c-1.344,0-2.578-0.214-3.699-0.642
		c-1.123-0.428-2.098-1.062-2.924-1.902s-1.463-1.868-1.914-3.085c-0.449-1.217-0.674-2.615-0.674-4.193
		c0-2.096,0.375-3.871,1.127-5.325s1.824-2.559,3.213-3.313c1.391-0.755,3.049-1.133,4.975-1.133c1.787,0,3.375,0.378,4.758,1.133
		c1.385,0.755,2.473,1.859,3.266,3.313C1050.683,13.463,1051.079,15.238,1051.079,17.334z M1037.868,17.334
		c0,1.23,0.137,2.264,0.41,3.103c0.273,0.839,0.701,1.47,1.281,1.895c0.582,0.425,1.34,0.637,2.273,0.637
		c0.924,0,1.672-0.212,2.248-0.637c0.574-0.425,0.996-1.056,1.264-1.895c0.268-0.838,0.402-1.873,0.402-3.103
		c0-1.241-0.135-2.272-0.402-3.094c-0.268-0.821-0.691-1.439-1.273-1.853c-0.58-0.414-1.338-0.621-2.271-0.621
		c-1.379,0-2.379,0.464-3,1.392S1037.868,15.479,1037.868,17.334z"/>
	<path fill="#3F3F3F" d="M1058.599,17.156l-6.152-9.25h5.914l3.707,6.02l3.744-6.02h5.912l-6.221,9.25l6.512,9.656h-5.93
		l-4.018-6.477l-4.033,6.477h-5.912L1058.599,17.156z"/>
	<path fill="#3F3F3F" d="M1082.099,7.563c1.766,0,3.285,0.335,4.563,1.006c1.275,0.671,2.262,1.643,2.957,2.917
		c0.693,1.274,1.041,2.83,1.041,4.667v2.503h-12.32c0.057,1.44,0.498,2.57,1.324,3.39s1.973,1.23,3.443,1.23
		c1.219,0,2.336-0.125,3.35-0.376c1.014-0.25,2.057-0.626,3.127-1.128v4.033c-0.945,0.467-1.934,0.809-2.965,1.025
		s-2.281,0.325-3.752,0.325c-1.914,0-3.607-0.349-5.084-1.048c-1.475-0.699-2.631-1.764-3.469-3.195
		c-0.838-1.431-1.256-3.234-1.256-5.41c0-2.209,0.379-4.049,1.137-5.52s1.814-2.575,3.17-3.313S1080.298,7.563,1082.099,7.563z
		 M1082.132,11.271c-1.014,0-1.854,0.315-2.521,0.946c-0.666,0.631-1.051,1.621-1.152,2.97h7.314
		c-0.012-0.752-0.152-1.421-0.42-2.008c-0.268-0.586-0.666-1.051-1.195-1.394S1082.952,11.271,1082.132,11.271z"/>
	<path fill="#3F3F3F" d="M1099.411,26.813h-5.213V0.219h5.213V26.813z"/>
	<path fill="#3F3F3F" d="M1117.509,21.206c0,1.285-0.305,2.37-0.914,3.254s-1.518,1.556-2.725,2.012
		c-1.209,0.456-2.713,0.685-4.512,0.685c-1.334,0-2.477-0.085-3.428-0.256s-1.91-0.456-2.879-0.854v-4.307
		c1.037,0.467,2.15,0.852,3.34,1.154c1.191,0.302,2.236,0.453,3.137,0.453c1.014,0,1.74-0.146,2.18-0.437
		c0.438-0.291,0.658-0.673,0.658-1.146c0-0.315-0.09-0.6-0.266-0.854c-0.178-0.253-0.555-0.541-1.137-0.862
		c-0.58-0.321-1.492-0.741-2.734-1.259c-1.195-0.496-2.18-0.998-2.947-1.505c-0.77-0.507-1.34-1.107-1.709-1.8
		c-0.371-0.693-0.557-1.575-0.557-2.646c0-1.747,0.688-3.063,2.061-3.947s3.209-1.327,5.512-1.327c1.184,0,2.314,0.12,3.391,0.359
		c1.078,0.239,2.186,0.621,3.324,1.145l-1.572,3.76c-0.945-0.41-1.836-0.746-2.674-1.008c-0.838-0.262-1.689-0.393-2.555-0.393
		c-0.764,0-1.34,0.101-1.727,0.301s-0.58,0.507-0.58,0.92c0,0.301,0.1,0.569,0.299,0.803s0.586,0.494,1.162,0.778
		c0.574,0.284,1.42,0.649,2.537,1.095c1.082,0.439,2.021,0.899,2.82,1.378c0.797,0.479,1.412,1.071,1.846,1.775
		C1117.292,19.18,1117.509,20.09,1117.509,21.206z"/>
	<path fill="#3F3F3F" d="M1151.856,19.889c0,1.485-0.359,2.775-1.076,3.872c-0.719,1.097-1.764,1.942-3.137,2.536
		c-1.373,0.593-3.039,0.891-4.998,0.891c-0.867,0-1.713-0.057-2.539-0.171c-0.826-0.114-1.617-0.282-2.375-0.504
		s-1.479-0.499-2.162-0.829v-4.922c1.186,0.524,2.416,0.997,3.691,1.418c1.277,0.422,2.541,0.632,3.795,0.632
		c0.865,0,1.563-0.114,2.094-0.344c0.529-0.229,0.914-0.545,1.152-0.946c0.24-0.401,0.359-0.86,0.359-1.376
		c0-0.628-0.211-1.165-0.633-1.61s-1-0.862-1.734-1.251c-0.734-0.388-1.563-0.805-2.486-1.25c-0.58-0.274-1.213-0.608-1.896-1.002
		s-1.334-0.876-1.949-1.448s-1.119-1.265-1.512-2.082s-0.59-1.796-0.59-2.938c0-1.496,0.342-2.775,1.025-3.837
		c0.684-1.062,1.66-1.876,2.932-2.441c1.27-0.565,2.771-0.848,4.502-0.848c1.299,0,2.539,0.151,3.717,0.453
		c1.18,0.302,2.414,0.738,3.701,1.307l-1.709,4.119c-1.15-0.467-2.182-0.829-3.094-1.085s-1.84-0.385-2.785-0.385
		c-0.662,0-1.225,0.106-1.691,0.318c-0.469,0.212-0.82,0.511-1.061,0.895c-0.238,0.384-0.359,0.829-0.359,1.333
		c0,0.594,0.174,1.094,0.521,1.5s0.871,0.796,1.572,1.173s1.576,0.817,2.623,1.319c1.277,0.605,2.367,1.237,3.273,1.894
		s1.604,1.428,2.094,2.313C1151.612,17.477,1151.856,18.576,1151.856,19.889z"/>
	<path fill="#3F3F3F" d="M1165.905,7.563c2.152,0,3.893,0.829,5.221,2.485c1.326,1.657,1.99,4.085,1.99,7.286
		c0,2.142-0.313,3.942-0.939,5.401c-0.627,1.46-1.492,2.562-2.598,3.305c-1.105,0.744-2.375,1.116-3.811,1.116
		c-0.924,0-1.715-0.117-2.375-0.35c-0.662-0.233-1.227-0.536-1.693-0.906s-0.871-0.766-1.213-1.188h-0.273
		c0.092,0.454,0.16,0.92,0.205,1.396c0.045,0.477,0.068,0.942,0.068,1.397v7.682h-5.213V7.906h4.238l0.736,2.493h0.238
		c0.342-0.513,0.758-0.985,1.248-1.418c0.49-0.433,1.078-0.777,1.768-1.034S1164.993,7.563,1165.905,7.563z M1164.229,11.732
		c-0.91,0-1.635,0.185-2.17,0.554s-0.926,0.922-1.17,1.66c-0.246,0.738-0.379,1.671-0.402,2.8V17.3c0,1.208,0.117,2.23,0.35,3.069
		c0.234,0.839,0.627,1.476,1.18,1.912s1.313,0.654,2.281,0.654c0.799,0,1.453-0.218,1.967-0.654c0.512-0.436,0.896-1.076,1.152-1.92
		c0.256-0.844,0.385-1.875,0.385-3.094c0-1.833-0.291-3.214-0.871-4.142C1166.349,12.197,1165.448,11.732,1164.229,11.732z"/>
	<path fill="#3F3F3F" d="M1184.552,7.563c2.563,0,4.529,0.551,5.896,1.653c1.367,1.103,2.051,2.778,2.051,5.028v12.569h-3.641
		l-1.008-2.596h-0.137c-0.547,0.684-1.105,1.242-1.676,1.675c-0.57,0.433-1.225,0.752-1.965,0.957s-1.641,0.308-2.701,0.308
		c-1.127,0-2.139-0.214-3.033-0.642c-0.895-0.428-1.598-1.084-2.109-1.968c-0.514-0.884-0.77-2.007-0.77-3.37
		c0-2.004,0.711-3.482,2.137-4.434c1.424-0.951,3.559-1.478,6.408-1.579l3.314-0.102v-0.814c0-0.975-0.262-1.688-0.785-2.143
		c-0.525-0.454-1.254-0.681-2.188-0.681c-0.924,0-1.828,0.131-2.717,0.393c-0.889,0.262-1.777,0.593-2.666,0.991l-1.727-3.521
		c1.014-0.535,2.15-0.957,3.408-1.265C1181.905,7.716,1183.206,7.563,1184.552,7.563z M1187.319,18.104l-2.016,0.066
		c-1.688,0.045-2.857,0.339-3.512,0.882c-0.656,0.543-0.982,1.259-0.982,2.146c0,0.776,0.232,1.328,0.699,1.655
		s1.078,0.491,1.83,0.491c1.115,0,2.059-0.321,2.828-0.965c0.768-0.643,1.152-1.558,1.152-2.745V18.104z"/>
	<path fill="#3F3F3F" d="M1204.923,27.156c-1.893,0-3.504-0.341-4.836-1.022c-1.334-0.682-2.348-1.738-3.043-3.17
		s-1.043-3.263-1.043-5.495c0-2.311,0.396-4.195,1.188-5.655c0.793-1.459,1.893-2.533,3.299-3.221
		c1.408-0.688,3.039-1.031,4.896-1.031c1.322,0,2.463,0.128,3.426,0.385s1.805,0.561,2.521,0.914l-1.537,4.033
		c-0.82-0.33-1.584-0.601-2.291-0.812s-1.412-0.316-2.119-0.316c-0.912,0-1.67,0.21-2.273,0.629
		c-0.604,0.419-1.053,1.048-1.35,1.887s-0.443,1.889-0.443,3.152c0,1.241,0.158,2.27,0.479,3.086
		c0.318,0.816,0.779,1.423,1.383,1.819c0.604,0.397,1.34,0.595,2.205,0.595c1.082,0,2.045-0.145,2.889-0.436
		c0.842-0.291,1.662-0.698,2.461-1.222v4.46c-0.799,0.501-1.633,0.863-2.504,1.085C1207.358,27.045,1206.255,27.156,1204.923,27.156
		z"/>
	<path fill="#3F3F3F" d="M1222.339,7.563c1.766,0,3.285,0.335,4.563,1.006c1.275,0.671,2.262,1.643,2.957,2.917
		c0.693,1.274,1.041,2.83,1.041,4.667v2.503h-12.32c0.057,1.44,0.498,2.57,1.324,3.39s1.973,1.23,3.443,1.23
		c1.219,0,2.336-0.125,3.35-0.376c1.014-0.25,2.057-0.626,3.127-1.128v4.033c-0.945,0.467-1.934,0.809-2.965,1.025
		s-2.281,0.325-3.752,0.325c-1.914,0-3.607-0.349-5.084-1.048c-1.475-0.699-2.631-1.764-3.469-3.195
		c-0.838-1.431-1.256-3.234-1.256-5.41c0-2.209,0.379-4.049,1.137-5.52s1.814-2.575,3.17-3.313S1220.538,7.563,1222.339,7.563z
		 M1222.372,11.271c-1.014,0-1.854,0.315-2.521,0.946c-0.666,0.631-1.051,1.621-1.152,2.97h7.314
		c-0.012-0.752-0.152-1.421-0.42-2.008c-0.268-0.586-0.666-1.051-1.195-1.394S1223.192,11.271,1222.372,11.271z"/>
	<path fill="#3F3F3F" d="M1247.769,21.206c0,1.285-0.305,2.37-0.914,3.254s-1.52,1.556-2.727,2.012s-2.711,0.685-4.512,0.685
		c-1.332,0-2.475-0.085-3.426-0.256s-1.912-0.456-2.881-0.854v-4.307c1.037,0.467,2.15,0.852,3.342,1.154
		c1.189,0.302,2.236,0.453,3.137,0.453c1.014,0,1.74-0.146,2.178-0.437c0.439-0.291,0.658-0.673,0.658-1.146
		c0-0.315-0.088-0.6-0.266-0.854c-0.176-0.253-0.555-0.541-1.135-0.862c-0.582-0.321-1.494-0.741-2.734-1.259
		c-1.197-0.496-2.18-0.998-2.949-1.505c-0.77-0.507-1.338-1.107-1.709-1.8c-0.369-0.693-0.555-1.575-0.555-2.646
		c0-1.747,0.686-3.063,2.059-3.947s3.211-1.327,5.512-1.327c1.186,0,2.316,0.12,3.393,0.359s2.184,0.621,3.324,1.145l-1.572,3.76
		c-0.945-0.41-1.838-0.746-2.676-1.008c-0.836-0.262-1.688-0.393-2.555-0.393c-0.764,0-1.338,0.101-1.725,0.301
		c-0.389,0.201-0.582,0.507-0.582,0.92c0,0.301,0.1,0.569,0.299,0.803s0.588,0.494,1.162,0.778c0.576,0.284,1.422,0.649,2.539,1.095
		c1.082,0.439,2.021,0.899,2.818,1.378c0.799,0.479,1.414,1.071,1.846,1.775C1247.552,19.18,1247.769,20.09,1247.769,21.206z"/>
	<path fill="#3F3F3F" d="M1250.999,25.008c0-0.762,0.172-1.339,0.52-1.732s0.848-0.589,1.496-0.589c0.66,0,1.176,0.196,1.547,0.589
		c0.369,0.393,0.555,0.97,0.555,1.732c0,0.74-0.188,1.309-0.563,1.707c-0.377,0.398-0.889,0.597-1.539,0.597
		c-0.58,0-1.063-0.179-1.443-0.538C1251.188,26.417,1250.999,25.828,1250.999,25.008z"/>
	<path fill="#3F3F3F" d="M1288.935,4.063c-1.982,0-3.756,0.553-5.322,1.657s-2.809,2.725-3.727,4.86
		c-0.916,2.136-1.375,4.462-1.375,6.979c0,2.13,0.555,3.83,1.666,5.1c1.111,1.27,2.641,1.905,4.588,1.905
		c1.584,0,3.418-0.325,5.504-0.974v2.554c-0.98,0.355-1.914,0.613-2.803,0.773c-0.889,0.16-1.961,0.24-3.213,0.24
		c-2.758,0-4.922-0.852-6.494-2.555c-1.572-1.703-2.359-4.025-2.359-6.964c0-2.974,0.602-5.74,1.803-8.298
		c1.203-2.558,2.818-4.509,4.846-5.854c2.027-1.344,4.324-2.017,6.887-2.017c2.244,0,4.227,0.455,5.947,1.365l-1.178,2.408
		C1292.132,4.456,1290.542,4.063,1288.935,4.063z"/>
	<path fill="#3F3F3F" d="M1303.599,7.844c2.164,0,3.873,0.641,5.127,1.923s1.881,3.046,1.881,5.291c0,2.143-0.41,4.166-1.23,6.069
		s-1.932,3.374-3.334,4.411c-1.4,1.037-2.984,1.556-4.75,1.556c-2.188,0-3.902-0.644-5.145-1.932s-1.863-3.049-1.863-5.283
		c0-2.166,0.416-4.203,1.248-6.112s1.953-3.374,3.367-4.394C1300.312,8.354,1301.878,7.844,1303.599,7.844z M1307.632,14.663
		c0-1.311-0.355-2.374-1.068-3.189c-0.711-0.815-1.678-1.223-2.896-1.223c-1.242,0-2.355,0.422-3.342,1.266
		c-0.984,0.844-1.748,2.016-2.289,3.515c-0.541,1.5-0.813,3.167-0.813,5.002c0,1.494,0.361,2.648,1.086,3.463
		c0.723,0.815,1.764,1.223,3.119,1.223c1.184,0,2.25-0.416,3.195-1.249c0.945-0.832,1.684-2.015,2.213-3.549
		C1307.366,18.388,1307.632,16.635,1307.632,14.663z"/>
	<path fill="#3F3F3F" d="M1323.44,26.813l2.529-11.822c0.205-1.07,0.307-1.839,0.307-2.306c0-0.797-0.176-1.417-0.529-1.862
		s-0.957-0.667-1.811-0.667c-0.957,0-1.889,0.342-2.795,1.025c-0.906,0.684-1.703,1.66-2.393,2.93
		c-0.689,1.27-1.223,2.799-1.598,4.587l-1.727,8.115h-2.871l4-18.719h2.375l-0.377,3.465h0.172c0.99-1.355,1.979-2.329,2.965-2.921
		c0.984-0.592,2.002-0.888,3.051-0.888c1.287,0,2.277,0.37,2.973,1.11s1.105,1.771,1.23,3.092h0.137
		c0.98-1.423,2.023-2.479,3.129-3.168c1.104-0.689,2.221-1.034,3.35-1.034c1.445,0,2.564,0.387,3.357,1.162
		c0.791,0.774,1.188,1.902,1.188,3.382c0,0.774-0.125,1.788-0.375,3.041l-2.461,11.479h-2.906l2.529-11.822
		c0.229-1.184,0.342-2.016,0.342-2.494c0-0.706-0.197-1.272-0.59-1.7c-0.393-0.427-1.012-0.641-1.854-0.641
		c-0.924,0-1.834,0.331-2.734,0.991c-0.9,0.661-1.689,1.598-2.367,2.811s-1.193,2.651-1.547,4.313l-1.828,8.542H1323.44z"/>
	<path fill="#3F3F3F" d="M1350.683,27.156c-1.105,0-2.074-0.285-2.904-0.854c-0.832-0.569-1.477-1.367-1.932-2.392h-0.172
		l-0.068,0.649c-0.033,0.285-0.094,0.684-0.18,1.196c-0.084,0.513-0.736,3.667-1.955,9.463h-2.838l5.742-27.125h2.375l-0.443,3.566
		h0.137c2.039-2.585,4.158-3.878,6.357-3.878c1.561,0,2.791,0.556,3.691,1.666s1.35,2.668,1.35,4.673c0,2.415-0.393,4.63-1.18,6.646
		c-0.785,2.016-1.873,3.585-3.264,4.707S1352.437,27.156,1350.683,27.156z M1353.862,10.156c-1.094,0-2.209,0.541-3.342,1.623
		c-1.135,1.082-2.033,2.443-2.701,4.083c-0.666,1.641-0.998,3.32-0.998,5.04c0,1.253,0.314,2.213,0.947,2.879
		c0.633,0.667,1.547,1,2.744,1c1.127,0,2.178-0.461,3.152-1.384c0.975-0.922,1.758-2.235,2.35-3.938s0.889-3.511,0.889-5.425
		C1356.903,11.449,1355.89,10.156,1353.862,10.156z"/>
	<path fill="#3F3F3F" d="M1368.577,8.094l-2.564,11.871c-0.205,1.014-0.307,1.805-0.307,2.375c0,1.628,0.836,2.442,2.512,2.442
		c1.002,0,1.988-0.341,2.957-1.025c0.967-0.683,1.822-1.662,2.563-2.938s1.305-2.813,1.691-4.612l1.709-8.113h2.838l-3.947,18.719
		h-2.377l0.377-3.465h-0.205c-1.117,1.424-2.182,2.415-3.195,2.972c-1.016,0.558-2.063,0.837-3.145,0.837
		c-1.459,0-2.604-0.396-3.436-1.187s-1.248-1.922-1.248-3.391c0-0.706,0.125-1.685,0.377-2.938l2.494-11.547H1368.577z"/>
	<path fill="#3F3F3F" d="M1387.12,24.813c0.625,0,1.445-0.148,2.461-0.444v2.207c-0.389,0.16-0.867,0.296-1.436,0.411
		c-0.57,0.114-1.025,0.171-1.367,0.171c-1.426,0-2.516-0.339-3.273-1.017s-1.137-1.689-1.137-3.034c0-0.752,0.104-1.607,0.309-2.564
		l2.17-10.291h-2.939l0.238-1.241l3.162-1.326l2.137-3.902h1.674l-0.939,4.313h4.684l-0.445,2.156h-4.666l-2.203,10.324
		c-0.205,0.991-0.309,1.743-0.309,2.256c0,0.639,0.166,1.128,0.496,1.47S1386.526,24.813,1387.12,24.813z"/>
	<path fill="#3F3F3F" d="M1399.425,27.156c-2.098,0-3.742-0.621-4.939-1.862c-1.195-1.241-1.795-2.961-1.795-5.159
		c0-2.141,0.426-4.194,1.273-6.159c0.85-1.964,1.975-3.493,3.375-4.586c1.402-1.093,2.945-1.64,4.633-1.64
		c1.742,0,3.053,0.378,3.93,1.135s1.316,1.813,1.316,3.167c0,2.049-0.945,3.656-2.838,4.823c-1.891,1.167-4.596,1.75-8.117,1.75
		h-0.564l-0.068,1.369c0,1.494,0.352,2.661,1.051,3.499c0.701,0.838,1.787,1.257,3.256,1.257c0.719,0,1.455-0.103,2.213-0.308
		s1.701-0.581,2.83-1.128v2.494c-1.072,0.501-2.018,0.851-2.838,1.05C1401.321,27.057,1400.415,27.156,1399.425,27.156z
		 M1401.8,10.188c-1.174,0-2.275,0.535-3.307,1.605s-1.82,2.556-2.367,4.457h0.205c2.598,0,4.588-0.338,5.973-1.016
		c1.385-0.677,2.076-1.659,2.076-2.946c0-0.604-0.207-1.104-0.623-1.503S1402.688,10.188,1401.8,10.188z"/>
	<path fill="#3F3F3F" d="M1420.429,7.75c0.785,0,1.469,0.081,2.051,0.241l-0.615,2.575c-0.604-0.148-1.203-0.222-1.795-0.222
		c-1.037,0-2.008,0.341-2.914,1.024s-1.697,1.63-2.375,2.842s-1.176,2.557-1.496,4.036l-1.828,8.567h-2.871l4-18.719h2.375
		l-0.377,3.465h0.172c0.82-1.082,1.498-1.859,2.033-2.332s1.096-0.837,1.684-1.093C1419.058,7.878,1419.71,7.75,1420.429,7.75z"/>
	<path fill="#3F3F3F" d="M11.467,63.719h7.844L16.68,75.874c-2.461,0.854-4.848,1.282-7.161,1.282c-3.008,0-5.347-0.823-7.016-2.47
		S0,70.742,0,67.791c0-3.065,0.578-5.854,1.734-8.367c1.156-2.512,2.76-4.466,4.811-5.861s4.324-2.094,6.819-2.094
		c1.333,0,2.583,0.113,3.751,0.342c1.168,0.227,2.344,0.592,3.529,1.092l-1.128,2.596c-0.877-0.387-1.82-0.723-2.829-1.008
		s-2.116-0.428-3.324-0.428c-1.926,0-3.677,0.578-5.255,1.734s-2.806,2.77-3.683,4.843c-0.877,2.073-1.316,4.39-1.316,6.952
		c0,2.164,0.583,3.867,1.751,5.109c1.168,1.24,2.8,1.861,4.896,1.861c1.754,0,3.235-0.222,4.443-0.666l1.641-7.584h-4.939
		L11.467,63.719z"/>
	<path fill="#3F3F3F" d="M33.274,57.75c0.786,0,1.47,0.08,2.051,0.24l-0.615,2.576c-0.604-0.148-1.202-0.223-1.794-0.223
		c-1.037,0-2.008,0.342-2.914,1.023c-0.906,0.684-1.698,1.631-2.375,2.842c-0.678,1.213-1.176,2.558-1.495,4.036l-1.829,8.567
		h-2.871l3.999-18.719h2.375l-0.376,3.465h0.171c0.82-1.081,1.498-1.858,2.034-2.331c0.535-0.473,1.096-0.837,1.683-1.093
		S32.557,57.75,33.274,57.75z"/>
	<path fill="#3F3F3F" d="M44.503,57.75c1.048,0,1.982,0.282,2.803,0.846s1.458,1.375,1.914,2.434h0.188l1.145-2.936h2.17
		l-3.982,18.719h-2.273l0.444-3.568h-0.137c-2.04,2.608-4.187,3.912-6.443,3.912c-1.584,0-2.826-0.563-3.726-1.691
		c-0.9-1.127-1.35-2.67-1.35-4.629c0-2.369,0.404-4.566,1.213-6.594c0.809-2.027,1.925-3.616,3.35-4.767
		C41.245,58.325,42.806,57.75,44.503,57.75z M41.256,74.781c1.105,0,2.205-0.526,3.298-1.58s1.982-2.426,2.666-4.117
		s1.025-3.387,1.025-5.084c0-1.172-0.319-2.106-0.957-2.801c-0.638-0.695-1.476-1.043-2.512-1.043c-1.185,0-2.288,0.49-3.307,1.469
		c-1.02,0.98-1.82,2.307-2.401,3.981s-0.872,3.44-0.872,5.296c0,1.299,0.268,2.27,0.803,2.914
		C39.536,74.459,40.288,74.781,41.256,74.781z"/>
	<path fill="#3F3F3F" d="M61.97,77.156c-1.105,0-2.074-0.285-2.905-0.854c-0.832-0.57-1.476-1.367-1.931-2.393h-0.171l-0.068,0.648
		c-0.034,0.285-0.094,0.684-0.18,1.197c-0.085,0.512-0.738,3.666-1.957,9.463h-2.837l5.742-27.125h2.375l-0.444,3.566h0.137
		c2.039-2.586,4.158-3.879,6.357-3.879c1.561,0,2.791,0.556,3.691,1.666c0.9,1.11,1.35,2.668,1.35,4.673
		c0,2.415-0.393,4.63-1.179,6.646s-1.875,3.585-3.264,4.707C65.296,76.596,63.724,77.156,61.97,77.156z M65.148,60.156
		c-1.094,0-2.208,0.541-3.341,1.623s-2.034,2.443-2.7,4.084s-1,3.32-1,5.039c0,1.254,0.316,2.213,0.948,2.879
		c0.632,0.667,1.547,1,2.743,1c1.128,0,2.179-0.461,3.153-1.384s1.757-2.235,2.35-3.938c0.592-1.703,0.889-3.511,0.889-5.424
		C68.19,61.449,67.176,60.156,65.148,60.156z"/>
	<path fill="#3F3F3F" d="M84.615,76.813l2.529-11.822c0.205-1.07,0.308-1.839,0.308-2.306c0-1.686-0.837-2.528-2.512-2.528
		c-1.014,0-2.002,0.336-2.965,1.008s-1.812,1.648-2.546,2.93s-1.29,2.828-1.666,4.639l-1.726,8.08h-2.871l5.64-26.594h2.871
		c-0.205,0.936-0.402,1.842-0.59,2.719c-0.188,0.879-0.382,1.771-0.581,2.677s-0.416,1.855-0.649,2.847
		c-0.233,0.992-0.504,2.07-0.812,3.232h0.188c1.071-1.4,2.127-2.402,3.17-3.006s2.133-0.906,3.273-0.906
		c1.492,0,2.646,0.41,3.46,1.23s1.222,1.981,1.222,3.484c0,0.707-0.131,1.652-0.393,2.836c-0.444,2.198-1.271,6.025-2.478,11.48
		H84.615z"/>
	<path fill="#3F3F3F" d="M95.536,76.813h-2.871l3.999-18.719h2.871L95.536,76.813z M97.467,53.295c0-0.637,0.182-1.158,0.547-1.563
		c0.364-0.404,0.837-0.607,1.418-0.607c1.002,0,1.504,0.513,1.504,1.538c0,0.627-0.191,1.157-0.573,1.589
		c-0.382,0.434-0.823,0.65-1.324,0.65c-0.456,0-0.832-0.14-1.128-0.419C97.615,54.204,97.467,53.809,97.467,53.295z"/>
	<path fill="#3F3F3F" d="M108.49,77.156c-2.21,0-3.925-0.609-5.144-1.828c-1.219-1.219-1.829-2.938-1.829-5.158
		c0-2.277,0.421-4.379,1.265-6.305c0.843-1.924,2.008-3.425,3.495-4.501s3.159-1.614,5.016-1.614c1.561,0,3.087,0.29,4.58,0.87
		l-0.803,2.407c-1.367-0.58-2.615-0.871-3.743-0.871c-1.276,0-2.441,0.436-3.495,1.307c-1.054,0.872-1.88,2.085-2.478,3.64
		s-0.897,3.243-0.897,5.065c0,1.459,0.378,2.592,1.136,3.4s1.803,1.213,3.136,1.213c0.82,0,1.595-0.113,2.324-0.342
		c0.729-0.228,1.447-0.496,2.153-0.803v2.443C111.794,76.797,110.222,77.156,108.49,77.156z"/>
	<path fill="#3F3F3F" d="M127.461,71.502c0,1.777-0.63,3.164-1.889,4.16s-3.033,1.494-5.323,1.494c-1.926,0-3.663-0.393-5.212-1.18
		v-2.699c0.797,0.479,1.658,0.85,2.581,1.111s1.777,0.393,2.563,0.393c1.436,0,2.518-0.285,3.247-0.854
		c0.729-0.57,1.094-1.299,1.094-2.188c0-0.648-0.2-1.195-0.598-1.639c-0.399-0.445-1.259-1.055-2.581-1.828
		c-1.481-0.832-2.529-1.646-3.145-2.443s-0.923-1.742-0.923-2.836c0-1.57,0.575-2.838,1.726-3.801
		c1.15-0.962,2.666-1.443,4.546-1.443c1.948,0,3.828,0.42,5.64,1.262l-0.923,2.338l-0.957-0.428
		c-1.151-0.489-2.404-0.734-3.76-0.734c-1.06,0-1.892,0.248-2.495,0.744c-0.604,0.497-0.906,1.139-0.906,1.926
		c0,0.639,0.202,1.186,0.606,1.641s1.239,1.042,2.504,1.76c1.219,0.684,2.093,1.27,2.623,1.76c0.53,0.489,0.926,1.016,1.188,1.58
		C127.33,70.161,127.461,70.796,127.461,71.502z"/>
	<path fill="#3F3F3F" d="M141.989,76.813h-2.939l5.281-25h12.561l-0.513,2.625h-9.707l-1.88,9.094h9.023l-0.547,2.625h-9.041
		L141.989,76.813z"/>
	<path fill="#3F3F3F" d="M164.394,57.844c2.165,0,3.874,0.641,5.127,1.924c1.253,1.281,1.88,3.045,1.88,5.291
		c0,2.143-0.41,4.166-1.23,6.068c-0.82,1.904-1.931,3.374-3.333,4.411s-2.985,1.556-4.751,1.556c-2.188,0-3.902-0.644-5.144-1.932
		c-1.242-1.288-1.863-3.049-1.863-5.283c0-2.165,0.416-4.202,1.248-6.111c0.832-1.909,1.954-3.373,3.367-4.394
		C161.107,58.354,162.673,57.844,164.394,57.844z M168.427,64.662c0-1.311-0.356-2.373-1.068-3.189
		c-0.712-0.814-1.678-1.223-2.896-1.223c-1.242,0-2.356,0.422-3.341,1.266s-1.749,2.016-2.29,3.515s-0.812,3.167-0.812,5.003
		c0,1.493,0.361,2.647,1.085,3.463s1.763,1.223,3.119,1.223c1.185,0,2.25-0.416,3.196-1.248c0.945-0.832,1.683-2.016,2.213-3.549
		S168.427,66.635,168.427,64.662z"/>
	<path fill="#3F3F3F" d="M185.193,57.75c0.786,0,1.47,0.08,2.051,0.24l-0.615,2.576c-0.604-0.148-1.202-0.223-1.794-0.223
		c-1.037,0-2.008,0.342-2.914,1.023c-0.906,0.684-1.698,1.631-2.375,2.842c-0.678,1.213-1.176,2.558-1.495,4.036l-1.829,8.567
		h-2.871l3.999-18.719h2.375l-0.376,3.465h0.171c0.82-1.081,1.498-1.858,2.034-2.331c0.535-0.473,1.096-0.837,1.683-1.093
		S184.475,57.75,185.193,57.75z"/>
	<path fill="#3F3F3F" d="M193.209,58.094l-2.563,11.871c-0.205,1.014-0.308,1.805-0.308,2.374c0,1.628,0.837,2.442,2.512,2.442
		c1.002,0,1.988-0.342,2.957-1.025c0.968-0.683,1.823-1.662,2.563-2.938c0.74-1.275,1.304-2.813,1.692-4.611l1.709-8.113h2.837
		l-3.948,18.719h-2.375l0.376-3.465h-0.205c-1.117,1.424-2.182,2.414-3.196,2.972c-1.014,0.558-2.063,0.837-3.145,0.837
		c-1.458,0-2.604-0.396-3.435-1.188c-0.832-0.791-1.248-1.922-1.248-3.391c0-0.705,0.125-1.685,0.376-2.938l2.495-11.547H193.209z"
		/>
	<path fill="#3F3F3F" d="M216.896,76.813l2.529-11.822c0.205-1.07,0.308-1.839,0.308-2.306c0-0.797-0.177-1.417-0.53-1.862
		c-0.354-0.443-0.957-0.666-1.812-0.666c-0.957,0-1.889,0.342-2.794,1.025s-1.703,1.66-2.393,2.93s-1.222,2.799-1.598,4.586
		l-1.726,8.115h-2.871l3.999-18.719h2.375l-0.376,3.465h0.171c0.991-1.354,1.979-2.328,2.965-2.92s2.002-0.889,3.051-0.889
		c1.287,0,2.278,0.37,2.974,1.11c0.695,0.74,1.105,1.771,1.23,3.092h0.137c0.979-1.423,2.022-2.479,3.127-3.169
		c1.105-0.688,2.222-1.033,3.35-1.033c1.447,0,2.566,0.387,3.358,1.162c0.792,0.773,1.188,1.901,1.188,3.381
		c0,0.775-0.125,1.789-0.376,3.041l-2.461,11.479h-2.905l2.529-11.822c0.228-1.184,0.342-2.016,0.342-2.494
		c0-0.705-0.197-1.271-0.59-1.699c-0.393-0.427-1.011-0.641-1.854-0.641c-0.923,0-1.834,0.33-2.734,0.99
		c-0.9,0.661-1.689,1.598-2.367,2.811s-1.193,2.651-1.546,4.314l-1.829,8.541H216.896z"/>
	<path fill="#3F3F3F" d="M240.816,72.75l0.256,0.394c-0.297,1.142-0.725,2.468-1.284,3.98c-0.559,1.512-1.141,2.919-1.746,4.22
		h-2.14c0.308-1.188,0.647-2.654,1.019-4.399c0.371-1.746,0.63-3.145,0.779-4.194H240.816z"/>
	<path fill="#3F3F3F" d="M263.309,76.813h-2.769V58.994c0-1.481,0.045-2.884,0.137-4.206c-0.239,0.239-0.507,0.49-0.803,0.753
		c-0.296,0.262-1.651,1.373-4.064,3.334l-1.503-1.949l6.61-5.113h2.393V76.813z"/>
	<path fill="#3F3F3F" d="M289.707,71.094h-3.705v5.719h-2.717v-5.719h-12.144v-2.481l11.853-16.925h3.008V68.5h3.705V71.094z
		 M283.285,68.5v-8.313c0-1.63,0.057-3.471,0.171-5.523h-0.137c-0.547,1.094-1.059,2.001-1.537,2.719L273.979,68.5H283.285z"/>
	<path fill="#3F3F3F" d="M291.119,67.215c0-3.02,0.441-5.846,1.323-8.479s2.154-4.94,3.815-6.924h2.765
		c-1.638,2.199-2.869,4.615-3.693,7.248s-1.236,5.34-1.236,8.12c0,2.735,0.42,5.407,1.262,8.018
		c0.841,2.609,2.052,4.991,3.633,7.146h-2.731c-1.673-1.938-2.948-4.199-3.824-6.787C291.557,72.971,291.119,70.189,291.119,67.215z
		"/>
	<path fill="#3F3F3F" d="M316.558,57.709c0,1.596-0.447,2.901-1.341,3.916c-0.894,1.015-2.161,1.692-3.8,2.034v0.137
		c2.004,0.251,3.49,0.889,4.458,1.913c0.968,1.025,1.452,2.369,1.452,4.032c0,2.381-0.826,4.212-2.477,5.493
		c-1.651,1.281-3.997,1.922-7.037,1.922c-1.321,0-2.531-0.1-3.63-0.299s-2.166-0.549-3.202-1.049v-2.699
		c1.082,0.535,2.234,0.943,3.458,1.223s2.382,0.418,3.476,0.418c4.314,0,6.472-1.692,6.472-5.078c0-3.031-2.379-4.547-7.138-4.547
		h-2.459v-2.438h2.493c1.946,0,3.489-0.43,4.627-1.289c1.139-0.86,1.708-2.054,1.708-3.58c0-1.219-0.418-2.175-1.255-2.869
		c-0.837-0.695-1.972-1.043-3.407-1.043c-1.093,0-2.123,0.148-3.091,0.444s-2.072,0.843-3.313,1.641l-1.435-1.914
		c1.024-0.812,2.206-1.449,3.544-1.913c1.338-0.463,2.747-0.695,4.227-0.695c2.425,0,4.31,0.556,5.653,1.667
		S316.558,55.771,316.558,57.709z"/>
	<path fill="#3F3F3F" d="M327.632,67.215c0,2.998-0.441,5.789-1.323,8.377c-0.882,2.586-2.154,4.837-3.815,6.752h-2.731
		c1.581-2.143,2.792-4.521,3.633-7.137c0.841-2.615,1.262-5.291,1.262-8.026c0-2.78-0.413-5.487-1.237-8.12
		s-2.055-5.049-3.693-7.248h2.765c1.673,1.994,2.947,4.311,3.824,6.949C327.194,61.4,327.632,64.218,327.632,67.215z"/>
	<path fill="#3F3F3F" d="M330.942,59.906c0-1.541,0.672-2.313,2.017-2.313c1.401,0,2.102,0.771,2.102,2.313
		c0,0.742-0.188,1.313-0.564,1.713c-0.376,0.4-0.889,0.6-1.538,0.6c-0.581,0-1.063-0.18-1.444-0.539S330.942,60.729,330.942,59.906z
		 M330.942,75.008c0-0.762,0.173-1.339,0.521-1.731s0.846-0.589,1.496-0.589c0.661,0,1.176,0.196,1.546,0.589
		s0.556,0.97,0.556,1.731c0,0.74-0.188,1.309-0.564,1.707s-0.889,0.598-1.538,0.598c-0.581,0-1.063-0.18-1.444-0.537
		C331.132,76.416,330.942,75.828,330.942,75.008z"/>
	<path fill="#3F3F3F" d="M354.141,57.709c0,1.596-0.447,2.901-1.341,3.916c-0.894,1.015-2.161,1.692-3.8,2.034v0.137
		c2.004,0.251,3.49,0.889,4.458,1.913c0.968,1.025,1.452,2.369,1.452,4.032c0,2.381-0.826,4.212-2.477,5.493
		c-1.651,1.281-3.997,1.922-7.037,1.922c-1.321,0-2.531-0.1-3.63-0.299s-2.166-0.549-3.202-1.049v-2.699
		c1.082,0.535,2.234,0.943,3.458,1.223s2.382,0.418,3.476,0.418c4.314,0,6.472-1.692,6.472-5.078c0-3.031-2.379-4.547-7.138-4.547
		h-2.459v-2.438h2.493c1.946,0,3.489-0.43,4.627-1.289c1.139-0.86,1.708-2.054,1.708-3.58c0-1.219-0.418-2.175-1.255-2.869
		c-0.837-0.695-1.972-1.043-3.407-1.043c-1.093,0-2.123,0.148-3.091,0.444s-2.072,0.843-3.313,1.641l-1.435-1.914
		c1.024-0.812,2.206-1.449,3.544-1.913c1.338-0.463,2.747-0.695,4.227-0.695c2.425,0,4.31,0.556,5.653,1.667
		S354.141,55.771,354.141,57.709z"/>
	<path fill="#3F3F3F" d="M366.246,51.469c2.277,0,4.082,0.531,5.414,1.592s1.999,2.525,1.999,4.396c0,1.231-0.382,2.355-1.145,3.37
		s-1.981,1.938-3.655,2.771c2.026,0.968,3.467,1.983,4.321,3.048s1.281,2.297,1.281,3.697c0,2.072-0.723,3.725-2.169,4.96
		c-1.446,1.235-3.427,1.853-5.944,1.853c-2.665,0-4.714-0.583-6.148-1.75c-1.435-1.166-2.152-2.82-2.152-4.96
		c0-2.856,1.742-5.083,5.226-6.677c-1.571-0.889-2.699-1.85-3.382-2.883c-0.683-1.031-1.024-2.187-1.024-3.464
		c0-1.813,0.669-3.259,2.007-4.337S364.002,51.469,366.246,51.469z M360.85,70.514c0,1.363,0.475,2.426,1.425,3.188
		s2.285,1.143,4.004,1.143c1.696,0,3.017-0.397,3.961-1.193c0.944-0.796,1.417-1.887,1.417-3.273c0-1.104-0.444-2.083-1.332-2.941
		s-2.436-1.691-4.644-2.498c-1.696,0.728-2.925,1.531-3.688,2.412S360.85,69.285,360.85,70.514z M366.211,53.781
		c-1.423,0-2.539,0.342-3.347,1.025s-1.212,1.596-1.212,2.736c0,1.049,0.335,1.949,1.007,2.701c0.671,0.752,1.912,1.504,3.722,2.256
		c1.627-0.684,2.78-1.419,3.457-2.205s1.016-1.703,1.016-2.752c0-1.152-0.413-2.066-1.238-2.744S367.657,53.781,366.211,53.781z"/>
	<path fill="#3F3F3F" d="M392.765,57.709c0,1.596-0.447,2.901-1.341,3.916c-0.894,1.015-2.161,1.692-3.8,2.034v0.137
		c2.004,0.251,3.49,0.889,4.458,1.913c0.968,1.025,1.452,2.369,1.452,4.032c0,2.381-0.826,4.212-2.477,5.493
		c-1.651,1.281-3.997,1.922-7.037,1.922c-1.321,0-2.531-0.1-3.63-0.299s-2.166-0.549-3.202-1.049v-2.699
		c1.082,0.535,2.234,0.943,3.458,1.223s2.382,0.418,3.476,0.418c4.314,0,6.472-1.692,6.472-5.078c0-3.031-2.379-4.547-7.138-4.547
		h-2.459v-2.438h2.493c1.946,0,3.489-0.43,4.627-1.289c1.139-0.86,1.708-2.054,1.708-3.58c0-1.219-0.418-2.175-1.255-2.869
		c-0.837-0.695-1.972-1.043-3.407-1.043c-1.093,0-2.123,0.148-3.091,0.444s-2.072,0.843-3.313,1.641l-1.435-1.914
		c1.024-0.812,2.206-1.449,3.544-1.913c1.338-0.463,2.747-0.695,4.227-0.695c2.425,0,4.31,0.556,5.653,1.667
		S392.765,55.771,392.765,57.709z"/>
	<path fill="#3F3F3F" d="M396.329,68.723v-2.598h8.382v2.598H396.329z"/>
	<path fill="#3F3F3F" d="M422.64,57.709c0,1.596-0.447,2.901-1.341,3.916c-0.894,1.015-2.161,1.692-3.8,2.034v0.137
		c2.004,0.251,3.49,0.889,4.458,1.913c0.968,1.025,1.452,2.369,1.452,4.032c0,2.381-0.826,4.212-2.477,5.493
		c-1.651,1.281-3.997,1.922-7.037,1.922c-1.321,0-2.531-0.1-3.63-0.299s-2.166-0.549-3.202-1.049v-2.699
		c1.082,0.535,2.234,0.943,3.458,1.223s2.382,0.418,3.476,0.418c4.314,0,6.472-1.692,6.472-5.078c0-3.031-2.379-4.547-7.138-4.547
		h-2.459v-2.438h2.493c1.946,0,3.489-0.43,4.627-1.289c1.139-0.86,1.708-2.054,1.708-3.58c0-1.219-0.418-2.175-1.255-2.869
		c-0.837-0.695-1.972-1.043-3.407-1.043c-1.093,0-2.123,0.148-3.091,0.444s-2.072,0.843-3.313,1.641l-1.435-1.914
		c1.024-0.812,2.206-1.449,3.544-1.913c1.338-0.463,2.747-0.695,4.227-0.695c2.425,0,4.31,0.556,5.653,1.667
		S422.64,55.771,422.64,57.709z"/>
	<path fill="#3F3F3F" d="M442.891,62.492c0,9.776-3.78,14.664-11.341,14.664c-1.321,0-2.368-0.114-3.143-0.342v-2.446
		c0.911,0.296,1.947,0.444,3.108,0.444c2.732,0,4.796-0.846,6.19-2.535c1.395-1.691,2.154-4.283,2.28-7.778h-0.205
		c-0.626,0.946-1.457,1.667-2.493,2.163s-2.203,0.744-3.5,0.744c-2.209,0-3.962-0.661-5.26-1.983s-1.947-3.169-1.947-5.54
		c0-2.6,0.726-4.652,2.177-6.156c1.452-1.506,3.362-2.258,5.73-2.258c1.696,0,3.18,0.436,4.449,1.308s2.246,2.142,2.929,3.812
		C442.549,58.257,442.891,60.225,442.891,62.492z M434.488,53.906c-1.628,0-2.886,0.523-3.773,1.571s-1.332,2.505-1.332,4.371
		c0,1.64,0.41,2.929,1.229,3.868s2.066,1.408,3.739,1.408c1.036,0,1.989-0.211,2.86-0.632c0.871-0.421,1.556-0.996,2.057-1.725
		s0.751-1.491,0.751-2.288c0-1.195-0.233-2.299-0.7-3.313s-1.118-1.811-1.955-2.391C436.528,54.197,435.569,53.906,434.488,53.906z"
		/>
	<path fill="#3F3F3F" d="M463.382,71.094h-3.705v5.719h-2.717v-5.719h-12.144v-2.481l11.853-16.925h3.008V68.5h3.705V71.094z
		 M456.96,68.5v-8.313c0-1.63,0.057-3.471,0.171-5.523h-0.137c-0.547,1.094-1.059,2.001-1.537,2.719L447.653,68.5H456.96z"/>
	<path fill="#3F3F3F" d="M469.386,72.75l0.256,0.394c-0.297,1.142-0.725,2.468-1.284,3.98c-0.559,1.512-1.141,2.919-1.746,4.22
		h-2.14c0.308-1.188,0.647-2.654,1.019-4.399c0.371-1.746,0.63-3.145,0.779-4.194H469.386z"/>
	<path fill="#3F3F3F" d="M483.102,51.813h7.061c3.316,0,5.716,0.496,7.198,1.49c1.481,0.992,2.223,2.563,2.223,4.709
		c0,1.484-0.414,2.709-1.24,3.674s-2.032,1.59-3.616,1.875v0.171c3.795,0.649,5.693,2.642,5.693,5.978
		c0,2.23-0.755,3.973-2.266,5.225c-1.51,1.253-3.622,1.879-6.334,1.879h-8.719V51.813z M486.007,62.531h4.788
		c2.052,0,3.528-0.322,4.429-0.969c0.9-0.646,1.351-1.736,1.351-3.27c0-1.406-0.502-2.422-1.505-3.045
		c-1.003-0.623-2.6-0.936-4.788-0.936h-4.275V62.531z M486.007,65v9.344h5.215c2.018,0,3.537-0.39,4.557-1.17
		s1.531-2.002,1.531-3.664c0-1.549-0.522-2.688-1.565-3.416S493.115,65,490.983,65H486.007z"/>
	<path fill="#3F3F3F" d="M507.485,76.813h-2.837V50.219h2.837V76.813z"/>
	<path fill="#3F3F3F" d="M524.325,76.813l-0.564-2.664h-0.137c-0.935,1.174-1.866,1.969-2.794,2.385
		c-0.929,0.415-2.088,0.623-3.479,0.623c-1.857,0-3.313-0.479-4.367-1.435c-1.054-0.956-1.581-2.317-1.581-4.082
		c0-3.78,3.025-5.761,9.077-5.943l3.179-0.103v-1.162c0-1.47-0.316-2.555-0.949-3.256c-0.633-0.7-1.644-1.051-3.034-1.051
		c-1.562,0-3.328,0.479-5.299,1.436l-0.872-2.172c0.923-0.501,1.935-0.895,3.034-1.18s2.202-0.428,3.307-0.428
		c2.233,0,3.889,0.496,4.966,1.486c1.077,0.991,1.615,2.58,1.615,4.766v12.779H524.325z M517.915,74.813
		c1.766,0,3.153-0.482,4.162-1.447s1.513-2.316,1.513-4.055v-1.686l-2.838,0.119c-2.256,0.08-3.883,0.429-4.88,1.047
		c-0.997,0.619-1.496,1.582-1.496,2.888c0,1.022,0.311,1.8,0.932,2.333C515.929,74.546,516.798,74.813,517.915,74.813z"/>
	<path fill="#3F3F3F" d="M539.05,77.156c-2.711,0-4.809-0.834-6.295-2.502c-1.486-1.669-2.229-4.029-2.229-7.082
		c0-3.131,0.754-5.551,2.264-7.26c1.509-1.708,3.659-2.563,6.449-2.563c0.899,0,1.799,0.097,2.699,0.289
		c0.899,0.193,1.605,0.42,2.118,0.68l-0.871,2.402c-0.626-0.25-1.31-0.458-2.05-0.623s-1.395-0.248-1.964-0.248
		c-3.804,0-5.706,2.43-5.706,7.287c0,2.304,0.464,4.072,1.392,5.303c0.928,1.232,2.303,1.848,4.125,1.848
		c1.56,0,3.16-0.336,4.8-1.008v2.506C542.529,76.832,540.952,77.156,539.05,77.156z"/>
	<path fill="#3F3F3F" d="M550.334,67.234c0.49-0.695,1.236-1.605,2.239-2.734l6.051-6.406h3.368l-7.589,7.977l8.119,10.742h-3.436
		l-6.615-8.844l-2.137,1.844v7h-2.803V50.219h2.803v14.107c0,0.627-0.046,1.597-0.137,2.908H550.334z"/>
	<path fill="#3F3F3F" d="M580.495,76.813l-3.435-10.982c-0.217-0.672-0.621-2.197-1.213-4.576h-0.136
		c-0.456,1.992-0.854,3.529-1.196,4.611l-3.537,10.947h-3.281l-5.109-18.719h2.973c1.207,4.703,2.127,8.283,2.759,10.743
		c0.632,2.46,0.994,4.116,1.085,4.97h0.137c0.125-0.648,0.327-1.488,0.606-2.52c0.279-1.029,0.521-1.848,0.727-2.451l3.434-10.742
		h3.076l3.349,10.742c0.638,1.959,1.071,3.604,1.299,4.937h0.137c0.045-0.409,0.168-1.042,0.367-1.896s1.387-5.448,3.563-13.783
		h2.939l-5.177,18.719H580.495z"/>
	<path fill="#3F3F3F" d="M599.633,77.156c-2.767,0-4.951-0.843-6.55-2.528s-2.399-4.026-2.399-7.021
		c0-3.018,0.743-5.416,2.229-7.192c1.486-1.776,3.481-2.665,5.986-2.665c2.346,0,4.202,0.771,5.568,2.315s2.05,3.58,2.05,6.108
		v1.795h-12.894c0.057,2.199,0.612,3.869,1.665,5.01c1.053,1.139,2.536,1.709,4.449,1.709c2.015,0,4.007-0.422,5.977-1.265v2.524
		c-1.002,0.432-1.95,0.74-2.844,0.928C601.976,77.063,600.897,77.156,599.633,77.156z M598.865,60.125
		c-1.503,0-2.701,0.49-3.594,1.469s-1.42,2.333-1.579,4.063h9.783c0-1.787-0.398-3.155-1.195-4.105S600.344,60.125,598.865,60.125z"
		/>
	<path fill="#3F3F3F" d="M613.498,76.813h-2.837V50.219h2.837V76.813z"/>
	<path fill="#3F3F3F" d="M621.65,76.813h-2.837V50.219h2.837V76.813z"/>
	<path fill="#3F3F3F" d="M629.952,72.75l0.256,0.394c-0.297,1.142-0.725,2.468-1.284,3.98c-0.559,1.512-1.141,2.919-1.746,4.22
		h-2.14c0.308-1.188,0.647-2.654,1.019-4.399c0.371-1.746,0.63-3.145,0.779-4.194H629.952z"/>
	<path fill="#3F3F3F" d="M659.38,76.813l-3.112-7.938h-10.02l-3.078,7.938h-2.939l9.881-25.094h2.445l9.83,25.094H659.38z
		 M655.362,66.25l-2.907-7.744c-0.376-0.98-0.764-2.183-1.163-3.607c-0.251,1.094-0.61,2.297-1.077,3.607l-2.941,7.744H655.362z"/>
	<path fill="#3F3F3F" d="M667.352,58.094v12.145c0,1.525,0.347,2.664,1.042,3.416s1.781,1.127,3.261,1.127
		c1.958,0,3.389-0.535,4.294-1.605c0.905-1.07,1.357-2.818,1.357-5.244v-9.838h2.837v18.719h-2.341l-0.41-2.509h-0.154
		c-0.581,0.923-1.386,1.629-2.417,2.118s-2.206,0.734-3.526,0.734c-2.277,0-3.982-0.541-5.115-1.623s-1.699-2.813-1.699-5.192
		V58.094H667.352z"/>
	<path fill="#3F3F3F" d="M700.812,58.094V59.9l-3.472,0.412c0.319,0.398,0.604,0.918,0.855,1.561
		c0.251,0.642,0.376,1.365,0.376,2.172c0,1.83-0.627,3.291-1.881,4.381c-1.254,1.092-2.976,1.637-5.166,1.637
		c-0.559,0-1.083-0.045-1.574-0.137c-1.209,0.639-1.813,1.443-1.813,2.412c0,0.514,0.211,0.893,0.633,1.139
		c0.422,0.244,1.146,0.367,2.172,0.367h3.318c2.029,0,3.589,0.428,4.678,1.281s1.634,2.095,1.634,3.723
		c0,2.072-0.833,3.652-2.497,4.74c-1.665,1.087-4.093,1.631-7.285,1.631c-2.452,0-4.341-0.456-5.669-1.367
		c-1.328-0.912-1.992-2.199-1.992-3.863c0-1.14,0.365-2.125,1.094-2.957s1.756-1.396,3.079-1.692
		c-0.479-0.216-0.881-0.552-1.206-1.007s-0.487-0.985-0.487-1.589c0-0.683,0.182-1.28,0.547-1.792
		c0.365-0.513,0.94-1.008,1.728-1.486c-0.969-0.398-1.759-1.076-2.369-2.032s-0.915-2.05-0.915-3.278
		c0-2.049,0.615-3.629,1.847-4.739s2.976-1.665,5.233-1.665c0.98,0,1.864,0.115,2.651,0.344H700.812z M685.863,79.959
		c0,1.018,0.427,1.789,1.283,2.314s2.082,0.789,3.678,0.789c2.383,0,4.148-0.357,5.294-1.072c1.146-0.715,1.719-1.684,1.719-2.906
		c0-1.018-0.314-1.723-0.941-2.117c-0.627-0.395-1.808-0.592-3.541-0.592h-3.404c-1.289,0-2.292,0.309-3.011,0.926
		C686.222,77.918,685.863,78.805,685.863,79.959z M687.402,64.082c0,1.311,0.371,2.301,1.112,2.973s1.774,1.008,3.097,1.008
		c2.771,0,4.157-1.344,4.157-4.031c0-2.813-1.403-4.219-4.209-4.219c-1.334,0-2.361,0.359-3.08,1.076
		C687.761,61.606,687.402,62.671,687.402,64.082z"/>
	<path fill="#3F3F3F" d="M706.609,58.094v12.145c0,1.525,0.347,2.664,1.042,3.416s1.781,1.127,3.261,1.127
		c1.958,0,3.388-0.535,4.294-1.605c0.904-1.07,1.357-2.818,1.357-5.244v-9.838h2.836v18.719h-2.34l-0.41-2.509h-0.154
		c-0.58,0.923-1.387,1.629-2.416,2.118c-1.031,0.489-2.207,0.734-3.528,0.734c-2.277,0-3.981-0.541-5.114-1.623
		s-1.699-2.813-1.699-5.192V58.094H706.609z"/>
	<path fill="#3F3F3F" d="M736.802,71.707c0,1.742-0.65,3.086-1.947,4.031c-1.299,0.945-3.121,1.418-5.467,1.418
		c-2.482,0-4.418-0.393-5.807-1.18v-2.633c0.9,0.455,1.865,0.814,2.895,1.076c1.031,0.262,2.023,0.393,2.98,0.393
		c1.48,0,2.619-0.236,3.416-0.708s1.195-1.192,1.195-2.159c0-0.729-0.316-1.352-0.947-1.87c-0.633-0.519-1.865-1.13-3.697-1.837
		c-1.742-0.648-2.98-1.215-3.715-1.699s-1.281-1.033-1.641-1.648c-0.357-0.615-0.537-1.35-0.537-2.203
		c0-1.526,0.621-2.73,1.861-3.613c1.242-0.883,2.943-1.324,5.107-1.324c2.016,0,3.984,0.41,5.91,1.23l-1.008,2.307
		c-1.879-0.774-3.582-1.162-5.107-1.162c-1.344,0-2.355,0.211-3.039,0.632s-1.025,1.002-1.025,1.742
		c0,0.501,0.129,0.929,0.385,1.281c0.256,0.354,0.668,0.689,1.238,1.009c0.568,0.318,1.662,0.779,3.279,1.383
		c2.219,0.809,3.719,1.623,4.5,2.443C736.411,69.436,736.802,70.465,736.802,71.707z"/>
	<path fill="#3F3F3F" d="M746.767,74.813c0.502,0,0.984-0.037,1.451-0.111s0.836-0.15,1.109-0.23v2.172
		c-0.309,0.148-0.76,0.271-1.357,0.368s-1.135,0.146-1.613,0.146c-3.619,0-5.43-1.905-5.43-5.717V60.313h-2.68v-1.371l2.682-1.182
		l1.195-4.01h1.641v4.344h5.426v2.219h-5.426v11.003c0,1.126,0.266,1.991,0.801,2.593C745.101,74.512,745.835,74.813,746.767,74.813
		z"/>
	<path fill="#3F3F3F" d="M769.978,76.813h-2.768V58.994c0-1.481,0.045-2.884,0.137-4.206c-0.24,0.239-0.508,0.49-0.805,0.753
		c-0.295,0.262-1.65,1.373-4.064,3.334l-1.502-1.949l6.609-5.113h2.393V76.813z"/>
	<path fill="#3F3F3F" d="M795.196,62.492c0,9.776-3.779,14.664-11.34,14.664c-1.32,0-2.369-0.114-3.143-0.342v-2.446
		c0.91,0.296,1.947,0.444,3.107,0.444c2.732,0,4.797-0.846,6.191-2.535c1.395-1.691,2.154-4.283,2.279-7.778h-0.205
		c-0.627,0.946-1.457,1.667-2.494,2.163c-1.035,0.496-2.201,0.744-3.5,0.744c-2.209,0-3.961-0.661-5.26-1.983
		c-1.297-1.322-1.947-3.169-1.947-5.54c0-2.6,0.727-4.652,2.178-6.156c1.451-1.506,3.361-2.258,5.73-2.258
		c1.697,0,3.18,0.436,4.449,1.308s2.246,2.142,2.93,3.812C794.854,58.257,795.196,60.225,795.196,62.492z M786.794,53.906
		c-1.627,0-2.885,0.523-3.773,1.571c-0.887,1.048-1.332,2.505-1.332,4.371c0,1.64,0.41,2.929,1.23,3.868
		c0.818,0.939,2.064,1.408,3.738,1.408c1.035,0,1.988-0.211,2.859-0.632s1.557-0.996,2.059-1.725c0.5-0.729,0.75-1.491,0.75-2.288
		c0-1.195-0.232-2.299-0.699-3.313s-1.119-1.811-1.955-2.391S787.876,53.906,786.794,53.906z"/>
	<path fill="#3F3F3F" d="M814.509,62.492c0,9.776-3.781,14.664-11.342,14.664c-1.32,0-2.367-0.114-3.143-0.342v-2.446
		c0.912,0.296,1.947,0.444,3.109,0.444c2.732,0,4.795-0.846,6.189-2.535c1.395-1.691,2.154-4.283,2.279-7.778h-0.205
		c-0.625,0.946-1.457,1.667-2.492,2.163c-1.037,0.496-2.203,0.744-3.5,0.744c-2.209,0-3.963-0.661-5.26-1.983
		c-1.299-1.322-1.947-3.169-1.947-5.54c0-2.6,0.725-4.652,2.178-6.156c1.451-1.506,3.361-2.258,5.73-2.258
		c1.695,0,3.18,0.436,4.449,1.308s2.244,2.142,2.928,3.812C814.167,58.257,814.509,60.225,814.509,62.492z M806.106,53.906
		c-1.629,0-2.887,0.523-3.773,1.571c-0.889,1.048-1.332,2.505-1.332,4.371c0,1.64,0.41,2.929,1.229,3.868
		c0.82,0.939,2.066,1.408,3.74,1.408c1.035,0,1.988-0.211,2.859-0.632s1.557-0.996,2.057-1.725c0.502-0.729,0.752-1.491,0.752-2.288
		c0-1.195-0.234-2.299-0.701-3.313s-1.117-1.811-1.953-2.391C808.146,54.197,807.187,53.906,806.106,53.906z"/>
	<path fill="#3F3F3F" d="M825.214,61.531c2.631,0,4.699,0.653,6.209,1.959c1.508,1.307,2.262,3.096,2.262,5.365
		c0,2.59-0.822,4.621-2.469,6.094c-1.645,1.471-3.914,2.207-6.805,2.207c-2.813,0-4.959-0.449-6.439-1.347v-2.731
		c0.797,0.513,1.787,0.914,2.971,1.205s2.352,0.436,3.502,0.436c2.004,0,3.561-0.475,4.67-1.422c1.109-0.949,1.666-2.32,1.666-4.114
		c0-3.497-2.135-5.245-6.404-5.245c-1.082,0-2.527,0.166-4.338,0.496l-1.469-0.939l0.939-11.682h12.416v2.625h-9.99l-0.631,7.486
		C822.612,61.662,823.917,61.531,825.214,61.531z"/>
	<path fill="#3F3F3F" d="M837.608,75.008c0-0.762,0.174-1.339,0.521-1.731s0.846-0.589,1.496-0.589c0.66,0,1.176,0.196,1.545,0.589
		c0.371,0.393,0.557,0.97,0.557,1.731c0,0.74-0.188,1.309-0.564,1.707c-0.375,0.398-0.889,0.598-1.537,0.598
		c-0.582,0-1.063-0.18-1.445-0.537C837.8,76.416,837.608,75.828,837.608,75.008z"/>
</g>
</svg>
