<?xml version="1.0" encoding="utf-8"?>
<!-- Generator: Adobe Illustrator 12.0.0, SVG Export Plug-In . SVG Version: 6.00 Build 51448)  -->
<!DOCTYPE svg PUBLIC "-//W3C//DTD SVG 1.1//EN" "http://www.w3.org/Graphics/SVG/1.1/DTD/svg11.dtd" [
	<!ENTITY ns_svg "http://www.w3.org/2000/svg">
	<!ENTITY ns_xlink "http://www.w3.org/1999/xlink">
]>
<svg  version="1.1" id="Layer_1" xmlns="&ns_svg;" xmlns:xlink="&ns_xlink;" width="1424" height="60.188" viewBox="0 -25 1424 60.188" overflow="visible" enable-background="new 0 0 1022.129 35.188" xml:space="preserve">
<path fill="#3F3F3F" d="M15.73,20.135c0,2.199-0.798,3.914-2.394,5.145s-3.762,1.846-6.497,1.846c-2.964,0-5.244-0.38-6.839-1.138
	v-2.795c1.026,0.434,2.143,0.775,3.352,1.025c1.208,0.251,2.405,0.376,3.591,0.376c1.938,0,3.397-0.368,4.377-1.106
	c0.98-0.737,1.471-1.764,1.471-3.079c0-0.866-0.174-1.575-0.521-2.128c-0.348-0.552-0.929-1.062-1.744-1.529
	c-0.815-0.467-2.055-0.997-3.72-1.59c-2.326-0.832-3.987-1.817-4.985-2.957c-0.998-1.139-1.496-2.626-1.496-4.46
	c0-1.926,0.724-3.458,2.171-4.598c1.448-1.139,3.363-1.709,5.746-1.709c2.485,0,4.771,0.455,6.856,1.365L14.192,5.33
	c-2.063-0.866-4.07-1.299-6.02-1.299c-1.539,0-2.742,0.331-3.608,0.993c-0.867,0.662-1.3,1.58-1.3,2.754
	c0,0.866,0.159,1.575,0.479,2.128s0.858,1.06,1.616,1.521c0.758,0.461,1.918,0.971,3.48,1.53c2.622,0.935,4.426,1.937,5.412,3.008
	C15.237,17.036,15.73,18.426,15.73,20.135z"/>
<path fill="#3F3F3F" d="M27.61,27.125c-2.767,0-4.951-0.843-6.55-2.528s-2.399-4.025-2.399-7.021c0-3.018,0.743-5.415,2.229-7.192
	c1.486-1.776,3.481-2.665,5.986-2.665c2.346,0,4.202,0.772,5.568,2.315c1.366,1.544,2.05,3.58,2.05,6.109v1.794H21.6
	c0.057,2.2,0.612,3.87,1.665,5.009c1.053,1.141,2.536,1.71,4.449,1.71c2.015,0,4.007-0.421,5.977-1.265v2.524
	c-1.002,0.432-1.95,0.741-2.844,0.929C29.953,27.031,28.874,27.125,27.61,27.125z M26.842,10.094c-1.503,0-2.701,0.49-3.594,1.468
	c-0.894,0.979-1.42,2.333-1.579,4.063h9.783c0-1.787-0.398-3.155-1.195-4.105S28.321,10.094,26.842,10.094z"/>
<path fill="#3F3F3F" d="M41.475,26.781h-2.837V0.188h2.837V26.781z"/>
<path fill="#3F3F3F" d="M54.699,27.125c-2.767,0-4.951-0.843-6.55-2.528s-2.399-4.025-2.399-7.021c0-3.018,0.743-5.415,2.229-7.192
	c1.486-1.776,3.481-2.665,5.986-2.665c2.346,0,4.202,0.772,5.568,2.315c1.366,1.544,2.05,3.58,2.05,6.109v1.794H48.689
	c0.057,2.2,0.612,3.87,1.665,5.009c1.053,1.141,2.536,1.71,4.449,1.71c2.015,0,4.007-0.421,5.977-1.265v2.524
	c-1.002,0.432-1.95,0.741-2.844,0.929C57.042,27.031,55.963,27.125,54.699,27.125z M53.931,10.094c-1.503,0-2.701,0.49-3.594,1.468
	c-0.894,0.979-1.42,2.333-1.579,4.063h9.783c0-1.787-0.398-3.155-1.195-4.105S55.41,10.094,53.931,10.094z"/>
<path fill="#3F3F3F" d="M73.211,27.125c-2.711,0-4.809-0.834-6.295-2.503c-1.486-1.668-2.229-4.028-2.229-7.081
	c0-3.132,0.754-5.552,2.264-7.26c1.509-1.708,3.659-2.563,6.449-2.563c0.899,0,1.799,0.097,2.699,0.289
	c0.899,0.193,1.605,0.419,2.118,0.68l-0.871,2.402c-0.626-0.25-1.31-0.458-2.05-0.624s-1.395-0.248-1.964-0.248
	c-3.804,0-5.706,2.429-5.706,7.287c0,2.304,0.464,4.071,1.392,5.304c0.928,1.23,2.303,1.847,4.125,1.847
	c1.56,0,3.16-0.336,4.8-1.009v2.507C76.69,26.802,75.112,27.125,73.211,27.125z"/>
<path fill="#3F3F3F" d="M87.734,24.781c0.5,0,0.984-0.036,1.45-0.11s0.836-0.151,1.109-0.231v2.173
	c-0.308,0.148-0.76,0.27-1.357,0.367c-0.598,0.097-1.135,0.146-1.613,0.146c-3.62,0-5.429-1.905-5.429-5.717V10.281h-2.68V8.911
	l2.682-1.183l1.196-4.009h1.64v4.344h5.427v2.219H84.73v11.003c0,1.126,0.267,1.99,0.802,2.594
	C86.067,24.479,86.801,24.781,87.734,24.781z"/>
<path fill="#3F3F3F" d="M101.254,27.125c-2.767,0-4.951-0.843-6.55-2.528s-2.399-4.025-2.399-7.021c0-3.018,0.743-5.415,2.229-7.192
	c1.486-1.776,3.481-2.665,5.986-2.665c2.346,0,4.202,0.772,5.568,2.315c1.366,1.544,2.05,3.58,2.05,6.109v1.794H95.244
	c0.057,2.2,0.612,3.87,1.665,5.009c1.053,1.141,2.536,1.71,4.449,1.71c2.015,0,4.007-0.421,5.977-1.265v2.524
	c-1.002,0.432-1.95,0.741-2.844,0.929C103.597,27.031,102.518,27.125,101.254,27.125z M100.485,10.094
	c-1.503,0-2.701,0.49-3.594,1.468c-0.894,0.979-1.42,2.333-1.579,4.063h9.783c0-1.787-0.398-3.155-1.195-4.105
	S101.965,10.094,100.485,10.094z"/>
<path fill="#3F3F3F" d="M125.024,24.272h-0.154c-1.31,1.902-3.268,2.853-5.875,2.853c-2.448,0-4.353-0.837-5.713-2.511
	c-1.361-1.674-2.041-4.055-2.041-7.141c0-3.086,0.683-5.483,2.049-7.192c1.366-1.708,3.268-2.563,5.705-2.563
	c2.539,0,4.486,0.923,5.841,2.768h0.222l-0.12-1.352l-0.068-1.317v-7.63h2.837v26.594H125.4L125.024,24.272z M119.354,24.75
	c1.936,0,3.338-0.526,4.209-1.58s1.307-2.753,1.307-5.099v-0.598c0-2.653-0.441-4.546-1.324-5.68c-0.882-1.133-2.291-1.7-4.227-1.7
	c-1.662,0-2.935,0.646-3.817,1.939s-1.323,3.117-1.323,5.475c0,2.392,0.438,4.197,1.315,5.416
	C116.372,24.142,117.658,24.75,119.354,24.75z"/>
<path fill="#3F3F3F" d="M154.311,21.675c0,1.743-0.649,3.087-1.947,4.032c-1.298,0.945-3.12,1.418-5.466,1.418
	c-2.482,0-4.418-0.394-5.807-1.18v-2.633c0.899,0.456,1.864,0.814,2.895,1.076s2.024,0.393,2.98,0.393
	c1.479,0,2.618-0.235,3.415-0.708s1.196-1.191,1.196-2.158c0-0.729-0.316-1.353-0.948-1.871c-0.632-0.518-1.864-1.131-3.697-1.836
	c-1.742-0.649-2.98-1.216-3.715-1.7c-0.734-0.484-1.281-1.033-1.64-1.648c-0.358-0.615-0.538-1.349-0.538-2.204
	c0-1.526,0.621-2.73,1.862-3.613s2.943-1.324,5.107-1.324c2.015,0,3.985,0.41,5.91,1.23l-1.008,2.307
	c-1.878-0.774-3.581-1.162-5.106-1.162c-1.344,0-2.357,0.211-3.04,0.632c-0.683,0.421-1.024,1.002-1.024,1.742
	c0,0.501,0.128,0.928,0.384,1.281c0.256,0.354,0.668,0.689,1.238,1.008s1.662,0.78,3.279,1.383c2.22,0.809,3.72,1.623,4.5,2.442
	C153.92,19.403,154.311,20.435,154.311,21.675z"/>
<path fill="#3F3F3F" d="M165.714,27.125c-2.711,0-4.809-0.834-6.295-2.503c-1.486-1.668-2.229-4.028-2.229-7.081
	c0-3.132,0.754-5.552,2.264-7.26c1.509-1.708,3.659-2.563,6.449-2.563c0.899,0,1.799,0.097,2.699,0.289
	c0.899,0.193,1.605,0.419,2.118,0.68l-0.871,2.402c-0.626-0.25-1.31-0.458-2.05-0.624s-1.395-0.248-1.964-0.248
	c-3.804,0-5.706,2.429-5.706,7.287c0,2.304,0.464,4.071,1.392,5.304c0.928,1.23,2.303,1.847,4.125,1.847
	c1.56,0,3.16-0.336,4.8-1.009v2.507C169.193,26.802,167.616,27.125,165.714,27.125z"/>
<path fill="#3F3F3F" d="M173.953,2.976c0-0.65,0.159-1.126,0.479-1.428c0.319-0.302,0.718-0.454,1.196-0.454
	c0.456,0,0.849,0.154,1.179,0.462c0.33,0.308,0.496,0.781,0.496,1.42c0,0.639-0.166,1.116-0.496,1.429
	c-0.331,0.313-0.724,0.47-1.179,0.47c-0.479,0-0.877-0.157-1.196-0.47C174.112,4.091,173.953,3.615,173.953,2.976z M177.029,26.781
	h-2.837V8.063h2.837V26.781z"/>
<path fill="#3F3F3F" d="M190.254,27.125c-2.767,0-4.951-0.843-6.55-2.528s-2.399-4.025-2.399-7.021c0-3.018,0.743-5.415,2.229-7.192
	c1.486-1.776,3.481-2.665,5.986-2.665c2.346,0,4.202,0.772,5.568,2.315c1.366,1.544,2.05,3.58,2.05,6.109v1.794h-12.894
	c0.057,2.2,0.612,3.87,1.665,5.009c1.053,1.141,2.536,1.71,4.449,1.71c2.015,0,4.007-0.421,5.977-1.265v2.524
	c-1.002,0.432-1.95,0.741-2.844,0.929C192.597,27.031,191.518,27.125,190.254,27.125z M189.486,10.094
	c-1.503,0-2.701,0.49-3.594,1.468c-0.894,0.979-1.42,2.333-1.579,4.063h9.783c0-1.787-0.398-3.155-1.195-4.105
	S190.965,10.094,189.486,10.094z"/>
<path fill="#3F3F3F" d="M214.09,26.781V14.669c0-1.526-0.347-2.665-1.042-3.417c-0.694-0.751-1.782-1.127-3.261-1.127
	c-1.958,0-3.392,0.53-4.303,1.589c-0.911,1.06-1.366,2.808-1.366,5.245v9.823h-2.837V8.063h2.307l0.461,2.56h0.137
	c0.581-0.922,1.395-1.637,2.442-2.144s2.214-0.76,3.501-0.76c2.254,0,3.95,0.544,5.089,1.631c1.139,1.088,1.708,2.827,1.708,5.218
	v12.213H214.09z"/>
<path fill="#3F3F3F" d="M228.108,24.781c0.5,0,0.984-0.036,1.45-0.11s0.836-0.151,1.109-0.231v2.173
	c-0.308,0.148-0.76,0.27-1.357,0.367c-0.598,0.097-1.135,0.146-1.613,0.146c-3.62,0-5.429-1.905-5.429-5.717V10.281h-2.68V8.911
	l2.682-1.183l1.196-4.009h1.64v4.344h5.427v2.219h-5.427v11.003c0,1.126,0.267,1.99,0.802,2.594
	C226.441,24.479,227.175,24.781,228.108,24.781z"/>
<path fill="#3F3F3F" d="M233.48,2.976c0-0.65,0.159-1.126,0.479-1.428c0.319-0.302,0.718-0.454,1.196-0.454
	c0.456,0,0.849,0.154,1.179,0.462c0.33,0.308,0.496,0.781,0.496,1.42c0,0.639-0.166,1.116-0.496,1.429
	c-0.331,0.313-0.724,0.47-1.179,0.47c-0.479,0-0.877-0.157-1.196-0.47C233.639,4.091,233.48,3.615,233.48,2.976z M236.556,26.781
	h-2.837V8.063h2.837V26.781z"/>
<path fill="#3F3F3F" d="M250.322,10.25h-4.768v16.531h-2.837V10.25h-3.354V8.965l3.354-1.028V6.896c0-4.597,2.011-6.896,6.033-6.896
	c0.991,0,2.153,0.2,3.486,0.599l-0.735,2.275c-1.094-0.353-2.028-0.53-2.803-0.53c-1.071,0-1.863,0.355-2.375,1.066
	c-0.513,0.711-0.769,1.851-0.769,3.419V8.04h4.768V10.25z M253.507,2.976c0-0.65,0.159-1.126,0.479-1.428
	c0.319-0.302,0.718-0.454,1.196-0.454c0.456,0,0.849,0.154,1.179,0.462c0.33,0.308,0.496,0.781,0.496,1.42
	c0,0.639-0.166,1.116-0.496,1.429c-0.331,0.313-0.724,0.47-1.179,0.47c-0.479,0-0.877-0.157-1.196-0.47
	C253.667,4.091,253.507,3.615,253.507,2.976z M256.583,26.781h-2.837V8.063h2.837V26.781z"/>
<path fill="#3F3F3F" d="M269.369,27.125c-2.711,0-4.809-0.834-6.295-2.503c-1.486-1.668-2.229-4.028-2.229-7.081
	c0-3.132,0.754-5.552,2.264-7.26c1.509-1.708,3.659-2.563,6.449-2.563c0.899,0,1.799,0.097,2.699,0.289
	c0.899,0.193,1.605,0.419,2.118,0.68l-0.871,2.402c-0.626-0.25-1.31-0.458-2.05-0.624s-1.395-0.248-1.964-0.248
	c-3.804,0-5.706,2.429-5.706,7.287c0,2.304,0.464,4.071,1.392,5.304c0.928,1.23,2.303,1.847,4.125,1.847
	c1.56,0,3.16-0.336,4.8-1.009v2.507C272.848,26.802,271.271,27.125,269.369,27.125z"/>
<path fill="#3F3F3F" d="M298.763,26.781l-0.564-2.663h-0.137c-0.935,1.173-1.866,1.967-2.794,2.383s-2.088,0.624-3.479,0.624
	c-1.857,0-3.313-0.478-4.367-1.435c-1.054-0.956-1.581-2.316-1.581-4.082c0-3.779,3.025-5.761,9.077-5.943l3.179-0.103V14.4
	c0-1.47-0.316-2.555-0.949-3.255c-0.633-0.701-1.644-1.051-3.034-1.051c-1.562,0-3.328,0.479-5.299,1.436l-0.872-2.171
	c0.923-0.501,1.935-0.895,3.034-1.18s2.202-0.428,3.307-0.428c2.233,0,3.889,0.496,4.966,1.486c1.077,0.991,1.615,2.58,1.615,4.766
	v12.779H298.763z M292.354,24.781c1.766,0,3.153-0.482,4.162-1.448c1.009-0.965,1.513-2.316,1.513-4.053v-1.687l-2.838,0.119
	c-2.256,0.079-3.883,0.429-4.88,1.048s-1.496,1.581-1.496,2.887c0,1.021,0.311,1.8,0.932,2.334
	C290.368,24.515,291.236,24.781,292.354,24.781z"/>
<path fill="#3F3F3F" d="M314.547,7.719c0.831,0,1.577,0.069,2.238,0.206l-0.393,2.644c-0.774-0.171-1.458-0.256-2.049-0.256
	c-1.515,0-2.81,0.615-3.886,1.843s-1.614,2.759-1.614,4.591v10.035h-2.837V8.063h2.341l0.325,3.465h0.137
	c0.694-1.218,1.531-2.158,2.511-2.818C312.298,8.049,313.375,7.719,314.547,7.719z"/>
<path fill="#3F3F3F" d="M325.636,24.781c0.5,0,0.984-0.036,1.45-0.11s0.836-0.151,1.109-0.231v2.173
	c-0.308,0.148-0.76,0.27-1.357,0.367c-0.598,0.097-1.135,0.146-1.613,0.146c-3.62,0-5.429-1.905-5.429-5.717V10.281h-2.68V8.911
	l2.682-1.183l1.196-4.009h1.64v4.344h5.427v2.219h-5.427v11.003c0,1.126,0.267,1.99,0.802,2.594
	C323.969,24.479,324.703,24.781,325.636,24.781z"/>
<path fill="#3F3F3F" d="M331.008,2.976c0-0.65,0.159-1.126,0.479-1.428c0.319-0.302,0.718-0.454,1.196-0.454
	c0.456,0,0.849,0.154,1.179,0.462c0.33,0.308,0.496,0.781,0.496,1.42c0,0.639-0.166,1.116-0.496,1.429
	c-0.331,0.313-0.724,0.47-1.179,0.47c-0.479,0-0.877-0.157-1.196-0.47C331.167,4.091,331.008,3.615,331.008,2.976z M334.084,26.781
	h-2.837V8.063h2.837V26.781z"/>
<path fill="#3F3F3F" d="M346.884,27.125c-2.711,0-4.809-0.834-6.295-2.503c-1.486-1.668-2.229-4.028-2.229-7.081
	c0-3.132,0.754-5.552,2.264-7.26c1.509-1.708,3.659-2.563,6.449-2.563c0.899,0,1.799,0.097,2.699,0.289
	c0.899,0.193,1.605,0.419,2.118,0.68l-0.871,2.402c-0.626-0.25-1.31-0.458-2.05-0.624s-1.395-0.248-1.964-0.248
	c-3.804,0-5.706,2.429-5.706,7.287c0,2.304,0.464,4.071,1.392,5.304c0.928,1.23,2.303,1.847,4.125,1.847
	c1.56,0,3.16-0.336,4.8-1.009v2.507C350.363,26.802,348.786,27.125,346.884,27.125z"/>
<path fill="#3F3F3F" d="M358.2,26.781h-2.837V0.188h2.837V26.781z"/>
<path fill="#3F3F3F" d="M371.424,27.125c-2.767,0-4.951-0.843-6.55-2.528s-2.399-4.025-2.399-7.021c0-3.018,0.743-5.415,2.229-7.192
	c1.486-1.776,3.481-2.665,5.986-2.665c2.346,0,4.202,0.772,5.568,2.315c1.366,1.544,2.05,3.58,2.05,6.109v1.794h-12.894
	c0.057,2.2,0.612,3.87,1.665,5.009c1.053,1.141,2.536,1.71,4.449,1.71c2.015,0,4.007-0.421,5.977-1.265v2.524
	c-1.002,0.432-1.95,0.741-2.844,0.929C373.767,27.031,372.688,27.125,371.424,27.125z M370.656,10.094
	c-1.503,0-2.701,0.49-3.594,1.468c-0.894,0.979-1.42,2.333-1.579,4.063h9.783c0-1.787-0.398-3.155-1.195-4.105
	S372.135,10.094,370.656,10.094z"/>
<path fill="#3F3F3F" d="M394.528,21.675c0,1.743-0.649,3.087-1.947,4.032c-1.298,0.945-3.12,1.418-5.466,1.418
	c-2.482,0-4.418-0.394-5.807-1.18v-2.633c0.899,0.456,1.864,0.814,2.895,1.076s2.024,0.393,2.98,0.393
	c1.479,0,2.618-0.235,3.415-0.708s1.196-1.191,1.196-2.158c0-0.729-0.316-1.353-0.948-1.871c-0.632-0.518-1.864-1.131-3.697-1.836
	c-1.742-0.649-2.98-1.216-3.715-1.7c-0.734-0.484-1.281-1.033-1.64-1.648c-0.358-0.615-0.538-1.349-0.538-2.204
	c0-1.526,0.621-2.73,1.862-3.613s2.943-1.324,5.107-1.324c2.015,0,3.985,0.41,5.91,1.23l-1.008,2.307
	c-1.878-0.774-3.581-1.162-5.106-1.162c-1.344,0-2.357,0.211-3.04,0.632c-0.683,0.421-1.024,1.002-1.024,1.742
	c0,0.501,0.128,0.928,0.384,1.281c0.256,0.354,0.668,0.689,1.238,1.008s1.662,0.78,3.279,1.383c2.22,0.809,3.72,1.623,4.5,2.442
	C394.138,19.403,394.528,20.435,394.528,21.675z"/>
<path fill="#3F3F3F" d="M415.554,27.125c-1.219,0-2.332-0.226-3.339-0.675s-1.853-1.142-2.536-2.076h-0.205
	c0.137,1.094,0.205,2.13,0.205,3.109v7.704h-2.837V8.063h2.307l0.393,2.561h0.137c0.729-1.025,1.577-1.765,2.545-2.221
	s2.078-0.684,3.331-0.684c2.482,0,4.398,0.849,5.748,2.545c1.349,1.697,2.024,4.077,2.024,7.141c0,3.075-0.686,5.463-2.058,7.167
	S417.99,27.125,415.554,27.125z M415.143,10.125c-1.913,0-3.296,0.53-4.15,1.589c-0.854,1.06-1.292,2.745-1.315,5.057v0.632
	c0,2.631,0.438,4.514,1.315,5.646c0.876,1.134,2.283,1.7,4.218,1.7c1.616,0,2.883-0.655,3.799-1.965s1.375-3.115,1.375-5.416
	c0-2.335-0.458-4.126-1.375-5.373S416.805,10.125,415.143,10.125z"/>
<path fill="#3F3F3F" d="M430.255,8.063v12.144c0,1.527,0.347,2.666,1.042,3.417s1.781,1.127,3.261,1.127
	c1.958,0,3.389-0.535,4.294-1.605c0.905-1.07,1.357-2.817,1.357-5.243V8.063h2.837v18.719h-2.341l-0.41-2.509h-0.154
	c-0.581,0.923-1.386,1.629-2.417,2.118s-2.206,0.734-3.526,0.734c-2.277,0-3.982-0.54-5.115-1.622s-1.699-2.813-1.699-5.193V8.063
	H430.255z"/>
<path fill="#3F3F3F" d="M457.083,7.75c2.459,0,4.37,0.84,5.73,2.52c1.36,1.68,2.041,4.058,2.041,7.133
	c0,3.076-0.686,5.465-2.058,7.168s-3.277,2.554-5.713,2.554c-1.219,0-2.332-0.226-3.339-0.675c-1.008-0.45-1.853-1.143-2.536-2.076
	h-0.205l-0.598,2.407h-2.034V0.188h2.837v6.465c0,1.448-0.046,2.748-0.137,3.899h0.137C452.529,8.684,454.487,7.75,457.083,7.75z
	 M456.673,10.125c-1.936,0-3.331,0.556-4.184,1.666c-0.854,1.11-1.281,2.981-1.281,5.612s0.438,4.514,1.315,5.646
	c0.876,1.134,2.283,1.7,4.218,1.7c1.742,0,3.04-0.635,3.894-1.905c0.854-1.27,1.281-3.095,1.281-5.476
	c0-2.438-0.427-4.254-1.281-5.45C459.781,10.723,458.46,10.125,456.673,10.125z"/>
<path fill="#3F3F3F" d="M471.954,26.781h-2.837V0.188h2.837V26.781z"/>
<path fill="#3F3F3F" d="M477.031,2.976c0-0.65,0.159-1.126,0.479-1.428c0.319-0.302,0.718-0.454,1.196-0.454
	c0.456,0,0.849,0.154,1.179,0.462c0.33,0.308,0.496,0.781,0.496,1.42c0,0.639-0.166,1.116-0.496,1.429
	c-0.331,0.313-0.724,0.47-1.179,0.47c-0.479,0-0.877-0.157-1.196-0.47C477.19,4.091,477.031,3.615,477.031,2.976z M480.107,26.781
	h-2.837V8.063h2.837V26.781z"/>
<path fill="#3F3F3F" d="M497.5,21.675c0,1.743-0.649,3.087-1.947,4.032c-1.298,0.945-3.12,1.418-5.466,1.418
	c-2.482,0-4.418-0.394-5.807-1.18v-2.633c0.899,0.456,1.864,0.814,2.895,1.076s2.024,0.393,2.98,0.393
	c1.479,0,2.618-0.235,3.415-0.708s1.196-1.191,1.196-2.158c0-0.729-0.316-1.353-0.948-1.871c-0.632-0.518-1.864-1.131-3.697-1.836
	c-1.742-0.649-2.98-1.216-3.715-1.7c-0.734-0.484-1.281-1.033-1.64-1.648c-0.358-0.615-0.538-1.349-0.538-2.204
	c0-1.526,0.621-2.73,1.862-3.613s2.943-1.324,5.107-1.324c2.015,0,3.985,0.41,5.91,1.23l-1.008,2.307
	c-1.878-0.774-3.581-1.162-5.106-1.162c-1.344,0-2.357,0.211-3.04,0.632c-0.683,0.421-1.024,1.002-1.024,1.742
	c0,0.501,0.128,0.928,0.384,1.281c0.256,0.354,0.668,0.689,1.238,1.008s1.662,0.78,3.279,1.383c2.22,0.809,3.72,1.623,4.5,2.442
	C497.109,19.403,497.5,20.435,497.5,21.675z"/>
<path fill="#3F3F3F" d="M514.229,26.781V14.669c0-1.526-0.347-2.665-1.042-3.417c-0.694-0.751-1.782-1.127-3.261-1.127
	c-1.969,0-3.406,0.536-4.311,1.606c-0.905,1.07-1.357,2.824-1.357,5.262v9.789h-2.837V0.188h2.837v8.055
	c0,0.97-0.046,1.773-0.137,2.412h0.171c0.558-0.899,1.352-1.608,2.382-2.127c1.03-0.518,2.206-0.777,3.526-0.777
	c2.288,0,4.004,0.544,5.149,1.632c1.144,1.088,1.716,2.816,1.716,5.185v12.215H514.229z"/>
<path fill="#3F3F3F" d="M530.11,27.125c-2.767,0-4.951-0.843-6.55-2.528s-2.399-4.025-2.399-7.021c0-3.018,0.743-5.415,2.229-7.192
	c1.486-1.776,3.481-2.665,5.986-2.665c2.346,0,4.202,0.772,5.568,2.315c1.366,1.544,2.05,3.58,2.05,6.109v1.794H524.1
	c0.057,2.2,0.612,3.87,1.665,5.009c1.053,1.141,2.536,1.71,4.449,1.71c2.015,0,4.007-0.421,5.977-1.265v2.524
	c-1.002,0.432-1.95,0.741-2.844,0.929C532.453,27.031,531.374,27.125,530.11,27.125z M529.342,10.094
	c-1.503,0-2.701,0.49-3.594,1.468c-0.894,0.979-1.42,2.333-1.579,4.063h9.783c0-1.787-0.398-3.155-1.195-4.105
	S530.821,10.094,529.342,10.094z"/>
<path fill="#3F3F3F" d="M553.88,24.272h-0.154c-1.31,1.902-3.268,2.853-5.875,2.853c-2.448,0-4.353-0.837-5.713-2.511
	c-1.361-1.674-2.041-4.055-2.041-7.141c0-3.086,0.683-5.483,2.049-7.192c1.366-1.708,3.268-2.563,5.705-2.563
	c2.539,0,4.486,0.923,5.841,2.768h0.222l-0.12-1.352l-0.068-1.317v-7.63h2.837v26.594h-2.307L553.88,24.272z M548.21,24.75
	c1.936,0,3.338-0.526,4.209-1.58s1.307-2.753,1.307-5.099v-0.598c0-2.653-0.441-4.546-1.324-5.68c-0.882-1.133-2.291-1.7-4.227-1.7
	c-1.662,0-2.935,0.646-3.817,1.939s-1.323,3.117-1.323,5.475c0,2.392,0.438,4.197,1.315,5.416
	C545.228,24.142,546.514,24.75,548.21,24.75z"/>
<path fill="#3F3F3F" d="M570.038,2.976c0-0.65,0.159-1.126,0.479-1.428c0.319-0.302,0.718-0.454,1.196-0.454
	c0.456,0,0.849,0.154,1.179,0.462c0.33,0.308,0.496,0.781,0.496,1.42c0,0.639-0.166,1.116-0.496,1.429
	c-0.331,0.313-0.724,0.47-1.179,0.47c-0.479,0-0.877-0.157-1.196-0.47C570.197,4.091,570.038,3.615,570.038,2.976z M573.114,26.781
	h-2.837V8.063h2.837V26.781z"/>
<path fill="#3F3F3F" d="M591.239,26.781V14.669c0-1.526-0.347-2.665-1.042-3.417c-0.694-0.751-1.782-1.127-3.261-1.127
	c-1.958,0-3.392,0.53-4.303,1.589c-0.911,1.06-1.366,2.808-1.366,5.245v9.823h-2.837V8.063h2.307l0.461,2.56h0.137
	c0.581-0.922,1.395-1.637,2.442-2.144s2.214-0.76,3.501-0.76c2.254,0,3.95,0.544,5.089,1.631c1.139,1.088,1.708,2.827,1.708,5.218
	v12.213H591.239z"/>
<path fill="#3F3F3F" d="M605.33,35.188c-1.082,0-1.959-0.144-2.632-0.43v-2.318c0.786,0.228,1.561,0.342,2.324,0.342
	c0.889,0,1.541-0.242,1.957-0.726c0.416-0.484,0.624-1.221,0.624-2.211V8.063h2.837v21.591
	C610.44,33.343,608.736,35.188,605.33,35.188z M607.364,2.976c0-0.65,0.159-1.126,0.479-1.428c0.319-0.302,0.718-0.454,1.196-0.454
	c0.456,0,0.849,0.154,1.179,0.462c0.33,0.308,0.496,0.781,0.496,1.42c0,0.639-0.166,1.116-0.496,1.429
	c-0.331,0.313-0.724,0.47-1.179,0.47c-0.479,0-0.877-0.157-1.196-0.47C607.523,4.091,607.364,3.615,607.364,2.976z"/>
<path fill="#3F3F3F" d="M631.912,17.405c0,3.052-0.769,5.436-2.306,7.149c-1.537,1.715-3.66,2.571-6.37,2.571
	c-1.674,0-3.16-0.393-4.458-1.179c-1.298-0.785-2.3-1.913-3.006-3.383c-0.706-1.469-1.059-3.188-1.059-5.159
	c0-3.052,0.763-5.429,2.288-7.132s3.643-2.554,6.353-2.554c2.619,0,4.699,0.872,6.242,2.614
	C631.141,12.075,631.912,14.433,631.912,17.405z M617.654,17.403c0,2.393,0.478,4.215,1.434,5.467
	c0.956,1.254,2.361,1.88,4.217,1.88c1.854,0,3.263-0.624,4.225-1.87c0.962-1.248,1.443-3.073,1.443-5.477
	c0-2.38-0.481-4.188-1.443-5.424s-2.381-1.854-4.259-1.854c-1.855,0-3.255,0.609-4.2,1.828
	C618.126,13.172,617.654,14.989,617.654,17.403z"/>
<path fill="#3F3F3F" d="M638.863,8.063v12.144c0,1.527,0.347,2.666,1.042,3.417s1.781,1.127,3.261,1.127
	c1.958,0,3.389-0.535,4.294-1.605c0.905-1.07,1.357-2.817,1.357-5.243V8.063h2.837v18.719h-2.341l-0.41-2.509h-0.154
	c-0.581,0.923-1.386,1.629-2.417,2.118s-2.206,0.734-3.526,0.734c-2.277,0-3.982-0.54-5.115-1.622s-1.699-2.813-1.699-5.193V8.063
	H638.863z"/>
<path fill="#3F3F3F" d="M665.521,7.719c0.831,0,1.577,0.069,2.238,0.206l-0.393,2.644c-0.774-0.171-1.458-0.256-2.049-0.256
	c-1.515,0-2.81,0.615-3.886,1.843s-1.614,2.759-1.614,4.591v10.035h-2.837V8.063h2.341l0.325,3.465h0.137
	c0.694-1.218,1.531-2.158,2.511-2.818C663.271,8.049,664.348,7.719,665.521,7.719z"/>
<path fill="#3F3F3F" d="M683.374,26.781V14.669c0-1.526-0.347-2.665-1.042-3.417c-0.694-0.751-1.782-1.127-3.261-1.127
	c-1.958,0-3.392,0.53-4.303,1.589c-0.911,1.06-1.366,2.808-1.366,5.245v9.823h-2.837V8.063h2.307l0.461,2.56h0.137
	c0.581-0.922,1.395-1.637,2.442-2.144s2.214-0.76,3.501-0.76c2.254,0,3.95,0.544,5.089,1.631c1.139,1.088,1.708,2.827,1.708,5.218
	v12.213H683.374z"/>
<path fill="#3F3F3F" d="M702.871,26.781l-0.564-2.663h-0.137c-0.935,1.173-1.866,1.967-2.794,2.383s-2.088,0.624-3.479,0.624
	c-1.857,0-3.313-0.478-4.367-1.435c-1.054-0.956-1.581-2.316-1.581-4.082c0-3.779,3.025-5.761,9.077-5.943l3.179-0.103V14.4
	c0-1.47-0.316-2.555-0.949-3.255c-0.633-0.701-1.644-1.051-3.034-1.051c-1.562,0-3.328,0.479-5.299,1.436l-0.872-2.171
	c0.923-0.501,1.935-0.895,3.034-1.18s2.202-0.428,3.307-0.428c2.233,0,3.889,0.496,4.966,1.486c1.076,0.991,1.615,2.58,1.615,4.766
	v12.779H702.871z M696.461,24.781c1.766,0,3.153-0.482,4.162-1.448c1.009-0.965,1.513-2.316,1.513-4.053v-1.687l-2.838,0.119
	c-2.256,0.079-3.883,0.429-4.88,1.048s-1.496,1.581-1.496,2.887c0,1.021,0.311,1.8,0.932,2.334
	C694.475,24.515,695.344,24.781,696.461,24.781z"/>
<path fill="#3F3F3F" d="M712.949,26.781h-2.837V0.188h2.837V26.781z"/>
<path fill="#3F3F3F" d="M730.342,21.675c0,1.743-0.649,3.087-1.947,4.032s-3.12,1.418-5.466,1.418c-2.482,0-4.418-0.394-5.807-1.18
	v-2.633c0.898,0.456,1.863,0.814,2.895,1.076c1.029,0.262,2.023,0.393,2.98,0.393c1.479,0,2.617-0.235,3.414-0.708
	s1.196-1.191,1.196-2.158c0-0.729-0.315-1.353-0.948-1.871c-0.631-0.518-1.863-1.131-3.697-1.836c-1.742-0.649-2.98-1.216-3.715-1.7
	c-0.734-0.484-1.281-1.033-1.639-1.648c-0.359-0.615-0.538-1.349-0.538-2.204c0-1.526,0.62-2.73,1.862-3.613
	c1.24-0.883,2.943-1.324,5.106-1.324c2.015,0,3.985,0.41,5.909,1.23l-1.008,2.307c-1.878-0.774-3.58-1.162-5.105-1.162
	c-1.344,0-2.357,0.211-3.04,0.632c-0.683,0.421-1.024,1.002-1.024,1.742c0,0.501,0.128,0.928,0.385,1.281
	c0.256,0.354,0.668,0.689,1.237,1.008s1.662,0.78,3.279,1.383c2.22,0.809,3.72,1.623,4.5,2.442
	C729.952,19.403,730.342,20.435,730.342,21.675z"/>
<path fill="#3F3F3F" d="M737.249,22.719l0.256,0.394c-0.297,1.142-0.725,2.469-1.283,3.98c-0.56,1.512-1.142,2.918-1.746,4.22
	h-2.141c0.309-1.187,0.648-2.653,1.02-4.399c0.37-1.746,0.63-3.145,0.778-4.194H737.249z"/>
<path fill="#3F3F3F" d="M759.246,7.75c2.46,0,4.37,0.84,5.73,2.52c1.36,1.68,2.041,4.058,2.041,7.133
	c0,3.076-0.687,5.465-2.058,7.168c-1.373,1.703-3.277,2.554-5.714,2.554c-1.219,0-2.331-0.226-3.339-0.675
	c-1.008-0.45-1.854-1.143-2.537-2.076h-0.205l-0.598,2.407h-2.033V0.188h2.836v6.465c0,1.448-0.045,2.748-0.137,3.899h0.137
	C754.691,8.684,756.649,7.75,759.246,7.75z M758.835,10.125c-1.936,0-3.33,0.556-4.184,1.666s-1.281,2.981-1.281,5.612
	s0.438,4.514,1.315,5.646c0.876,1.134,2.282,1.7,4.218,1.7c1.742,0,3.04-0.635,3.895-1.905c0.854-1.27,1.28-3.095,1.28-5.476
	c0-2.438-0.427-4.254-1.28-5.45C761.943,10.723,760.622,10.125,758.835,10.125z"/>
<path fill="#3F3F3F" d="M787.437,17.405c0,3.052-0.769,5.436-2.306,7.149c-1.537,1.715-3.66,2.571-6.37,2.571
	c-1.674,0-3.159-0.393-4.457-1.179c-1.298-0.785-2.3-1.913-3.006-3.383c-0.706-1.469-1.059-3.188-1.059-5.159
	c0-3.052,0.763-5.429,2.288-7.132s3.644-2.554,6.353-2.554c2.619,0,4.699,0.872,6.242,2.614
	C786.665,12.075,787.437,14.433,787.437,17.405z M773.179,17.403c0,2.393,0.479,4.215,1.434,5.467
	c0.957,1.254,2.361,1.88,4.217,1.88s3.264-0.624,4.225-1.87c0.963-1.248,1.443-3.073,1.443-5.477c0-2.38-0.48-4.188-1.443-5.424
	c-0.961-1.236-2.381-1.854-4.258-1.854c-1.855,0-3.256,0.609-4.2,1.828S773.179,14.989,773.179,17.403z"/>
<path fill="#3F3F3F" d="M807.877,17.405c0,3.052-0.769,5.436-2.306,7.149c-1.537,1.715-3.66,2.571-6.369,2.571
	c-1.674,0-3.16-0.393-4.458-1.179c-1.298-0.785-2.3-1.913-3.006-3.383c-0.706-1.469-1.059-3.188-1.059-5.159
	c0-3.052,0.763-5.429,2.288-7.132s3.643-2.554,6.354-2.554c2.618,0,4.699,0.872,6.242,2.614
	C807.105,12.075,807.877,14.433,807.877,17.405z M793.619,17.403c0,2.393,0.478,4.215,1.435,5.467
	c0.955,1.254,2.361,1.88,4.217,1.88c1.854,0,3.262-0.624,4.225-1.87c0.961-1.248,1.442-3.073,1.442-5.477
	c0-2.38-0.481-4.188-1.442-5.424c-0.963-1.236-2.382-1.854-4.26-1.854c-1.855,0-3.255,0.609-4.199,1.828
	C794.091,13.172,793.619,14.989,793.619,17.403z"/>
<path fill="#3F3F3F" d="M814.966,17.203c0.49-0.694,1.236-1.605,2.24-2.733l6.051-6.407h3.367l-7.589,7.976l8.119,10.743h-3.436
	l-6.615-8.844l-2.138,1.844v7h-2.803V0.188h2.803v14.108c0,0.627-0.045,1.596-0.137,2.907H814.966z"/>
<path fill="#3F3F3F" d="M841.909,21.675c0,1.743-0.649,3.087-1.947,4.032c-1.299,0.945-3.12,1.418-5.466,1.418
	c-2.482,0-4.418-0.394-5.808-1.18v-2.633c0.9,0.456,1.865,0.814,2.895,1.076c1.031,0.262,2.024,0.393,2.98,0.393
	c1.48,0,2.619-0.235,3.416-0.708s1.195-1.191,1.195-2.158c0-0.729-0.316-1.353-0.947-1.871c-0.633-0.518-1.865-1.131-3.697-1.836
	c-1.742-0.649-2.98-1.216-3.715-1.7c-0.734-0.484-1.281-1.033-1.641-1.648c-0.357-0.615-0.537-1.349-0.537-2.204
	c0-1.526,0.621-2.73,1.861-3.613c1.242-0.883,2.943-1.324,5.107-1.324c2.016,0,3.984,0.41,5.91,1.23l-1.008,2.307
	c-1.879-0.774-3.581-1.162-5.106-1.162c-1.344,0-2.356,0.211-3.04,0.632c-0.684,0.421-1.024,1.002-1.024,1.742
	c0,0.501,0.128,0.928,0.384,1.281c0.256,0.354,0.669,0.689,1.238,1.008s1.662,0.78,3.279,1.383c2.22,0.809,3.72,1.623,4.5,2.442
	C841.519,19.403,841.909,20.435,841.909,21.675z"/>
<path fill="#3F3F3F" d="M865.745,26.781l-0.564-2.663h-0.137c-0.935,1.173-1.865,1.967-2.795,2.383
	c-0.928,0.416-2.088,0.624-3.479,0.624c-1.857,0-3.313-0.478-4.367-1.435c-1.054-0.956-1.58-2.316-1.58-4.082
	c0-3.779,3.025-5.761,9.076-5.943l3.18-0.103V14.4c0-1.47-0.316-2.555-0.949-3.255s-1.645-1.051-3.034-1.051
	c-1.562,0-3.327,0.479-5.3,1.436l-0.871-2.171c0.923-0.501,1.935-0.895,3.034-1.18s2.202-0.428,3.308-0.428
	c2.232,0,3.889,0.496,4.965,1.486c1.077,0.991,1.615,2.58,1.615,4.766v12.779H865.745z M859.335,24.781
	c1.766,0,3.153-0.482,4.162-1.448c1.009-0.965,1.514-2.316,1.514-4.053v-1.687l-2.838,0.119c-2.257,0.079-3.884,0.429-4.881,1.048
	s-1.496,1.581-1.496,2.887c0,1.021,0.311,1.8,0.932,2.334C857.349,24.515,858.218,24.781,859.335,24.781z"/>
<path fill="#3F3F3F" d="M885.796,26.781V14.669c0-1.526-0.348-2.665-1.042-3.417c-0.694-0.751-1.782-1.127-3.261-1.127
	c-1.959,0-3.393,0.53-4.303,1.589c-0.911,1.06-1.366,2.808-1.366,5.245v9.823h-2.837V8.063h2.307l0.462,2.56h0.137
	c0.581-0.922,1.395-1.637,2.442-2.144c1.047-0.507,2.214-0.76,3.5-0.76c2.254,0,3.951,0.544,5.09,1.631
	c1.139,1.088,1.707,2.827,1.707,5.218v12.213H885.796z"/>
<path fill="#3F3F3F" d="M906.511,24.272h-0.154c-1.309,1.902-3.268,2.853-5.875,2.853c-2.448,0-4.354-0.837-5.713-2.511
	c-1.361-1.674-2.041-4.055-2.041-7.141c0-3.086,0.683-5.483,2.049-7.192c1.366-1.708,3.268-2.563,5.705-2.563
	c2.539,0,4.486,0.923,5.842,2.768h0.222l-0.12-1.352l-0.068-1.317v-7.63h2.838v26.594h-2.308L906.511,24.272z M900.841,24.75
	c1.936,0,3.338-0.526,4.209-1.58s1.307-2.753,1.307-5.099v-0.598c0-2.653-0.441-4.546-1.323-5.68c-0.882-1.133-2.291-1.7-4.227-1.7
	c-1.662,0-2.935,0.646-3.817,1.939c-0.882,1.292-1.322,3.117-1.322,5.475c0,2.392,0.438,4.197,1.314,5.416
	S899.145,24.75,900.841,24.75z"/>
<path fill="#3F3F3F" d="M930.816,27.125c-2.767,0-4.95-0.843-6.55-2.528s-2.4-4.025-2.4-7.021c0-3.018,0.743-5.415,2.229-7.192
	c1.485-1.776,3.481-2.665,5.986-2.665c2.346,0,4.202,0.772,5.567,2.315c1.367,1.544,2.051,3.58,2.051,6.109v1.794h-12.895
	c0.057,2.2,0.612,3.87,1.666,5.009c1.053,1.141,2.535,1.71,4.448,1.71c2.015,0,4.007-0.421,5.978-1.265v2.524
	c-1.002,0.432-1.951,0.741-2.844,0.929C933.159,27.031,932.08,27.125,930.816,27.125z M930.048,10.094
	c-1.503,0-2.701,0.49-3.594,1.468c-0.895,0.979-1.42,2.333-1.58,4.063h9.783c0-1.787-0.398-3.155-1.195-4.105
	S931.527,10.094,930.048,10.094z"/>
<path fill="#3F3F3F" d="M945.947,26.781l-7.108-18.719h3.041l4.033,11.102c0.911,2.597,1.446,4.281,1.605,5.056h0.137
	c0.125-0.604,0.521-1.854,1.188-3.749s2.162-6.032,4.486-12.408h3.041l-7.108,18.719H945.947z"/>
<path fill="#3F3F3F" d="M966.587,27.125c-2.768,0-4.951-0.843-6.551-2.528s-2.398-4.025-2.398-7.021
	c0-3.018,0.742-5.415,2.229-7.192c1.486-1.776,3.481-2.665,5.986-2.665c2.346,0,4.201,0.772,5.568,2.315
	c1.365,1.544,2.049,3.58,2.049,6.109v1.794h-12.893c0.057,2.2,0.611,3.87,1.664,5.009c1.053,1.141,2.536,1.71,4.449,1.71
	c2.015,0,4.008-0.421,5.977-1.265v2.524c-1.002,0.432-1.949,0.741-2.844,0.929C968.93,27.031,967.851,27.125,966.587,27.125z
	 M965.818,10.094c-1.503,0-2.7,0.49-3.595,1.468c-0.893,0.979-1.42,2.333-1.578,4.063h9.783c0-1.787-0.398-3.155-1.195-4.105
	S967.298,10.094,965.818,10.094z"/>
<path fill="#3F3F3F" d="M990.423,26.781V14.669c0-1.526-0.347-2.665-1.041-3.417c-0.694-0.751-1.781-1.127-3.262-1.127
	c-1.957,0-3.392,0.53-4.303,1.589c-0.91,1.06-1.365,2.808-1.365,5.245v9.823h-2.837V8.063h2.308l0.461,2.56h0.137
	c0.58-0.922,1.395-1.637,2.441-2.144c1.048-0.507,2.215-0.76,3.502-0.76c2.254,0,3.949,0.544,5.088,1.631
	c1.139,1.088,1.709,2.827,1.709,5.218v12.213H990.423z"/>
<path fill="#3F3F3F" d="M1004.44,24.781c0.5,0,0.984-0.036,1.45-0.11s0.836-0.151,1.109-0.231v2.173
	c-0.308,0.148-0.76,0.27-1.357,0.367c-0.598,0.097-1.136,0.146-1.613,0.146c-3.62,0-5.429-1.905-5.429-5.717V10.281h-2.681V8.911
	l2.682-1.183l1.196-4.009h1.639v4.344h5.428v2.219h-5.428v11.003c0,1.126,0.268,1.99,0.803,2.594
	C1002.773,24.479,1003.507,24.781,1004.44,24.781z"/>
<path fill="#3F3F3F" d="M1022.129,21.675c0,1.743-0.649,3.087-1.947,4.032s-3.12,1.418-5.466,1.418c-2.482,0-4.418-0.394-5.807-1.18
	v-2.633c0.898,0.456,1.863,0.814,2.895,1.076c1.029,0.262,2.023,0.393,2.98,0.393c1.479,0,2.617-0.235,3.414-0.708
	s1.196-1.191,1.196-2.158c0-0.729-0.315-1.353-0.948-1.871c-0.631-0.518-1.863-1.131-3.697-1.836c-1.742-0.649-2.98-1.216-3.715-1.7
	c-0.734-0.484-1.281-1.033-1.639-1.648c-0.359-0.615-0.538-1.349-0.538-2.204c0-1.526,0.62-2.73,1.862-3.613
	c1.24-0.883,2.943-1.324,5.106-1.324c2.015,0,3.985,0.41,5.909,1.23l-1.008,2.307c-1.878-0.774-3.58-1.162-5.105-1.162
	c-1.344,0-2.357,0.211-3.04,0.632c-0.683,0.421-1.024,1.002-1.024,1.742c0,0.501,0.128,0.928,0.385,1.281
	c0.256,0.354,0.668,0.689,1.237,1.008s1.662,0.78,3.279,1.383c2.22,0.809,3.72,1.623,4.5,2.442
	C1021.739,19.403,1022.129,20.435,1022.129,21.675z"/>
</svg>
