<?xml version="1.0" encoding="utf-8"?>
<!-- Generator: Adobe Illustrator 12.0.0, SVG Export Plug-In . SVG Version: 6.00 Build 51448)  -->
<!DOCTYPE svg PUBLIC "-//W3C//DTD SVG 1.1//EN" "http://www.w3.org/Graphics/SVG/1.1/DTD/svg11.dtd" [
	<!ENTITY ns_svg "http://www.w3.org/2000/svg">
	<!ENTITY ns_xlink "http://www.w3.org/1999/xlink">
]>
<svg  version="1.1" id="Layer_1" xmlns="&ns_svg;" xmlns:xlink="&ns_xlink;" width="289.691" height="31.797"
	 viewBox="0 0 289.691 31.797" overflow="visible" enable-background="new 0 0 117.668 25.532" xml:space="preserve">
<g>
	<path fill="#3F3F3F" d="M4.97,11.5h1.155c0.408,0,0.743-0.055,1.006-0.166s0.517-0.3,0.762-0.569l8.68-9.519
		c0.269-0.303,0.531-0.51,0.788-0.621s0.56-0.167,0.91-0.167h2.782l-10.01,10.859c-0.245,0.269-0.476,0.494-0.691,0.674
		c-0.216,0.181-0.44,0.324-0.674,0.429c0.28,0.117,0.522,0.277,0.726,0.481s0.406,0.458,0.604,0.76l7.56,11.869H15.75
		c-0.21,0-0.388-0.018-0.534-0.053c-0.146-0.035-0.269-0.082-0.368-0.141c-0.1-0.058-0.184-0.131-0.254-0.218
		c-0.07-0.087-0.14-0.184-0.21-0.288l-6.58-9.998c-0.187-0.279-0.394-0.482-0.621-0.611c-0.228-0.127-0.592-0.191-1.094-0.191H4.672
		l-1.417,11.5H0L3.063,0.459h3.272L4.97,11.5z"/>
	<path fill="#3F3F3F" d="M26.162,7.813l-2.135,17.719h-3.063L23.1,7.813H26.162z M27.335,2.236c0,0.303-0.062,0.585-0.184,0.847
		c-0.123,0.262-0.286,0.495-0.49,0.699c-0.204,0.204-0.435,0.364-0.691,0.48c-0.257,0.117-0.525,0.175-0.805,0.175
		c-0.269,0-0.531-0.058-0.788-0.175c-0.257-0.116-0.481-0.276-0.674-0.48c-0.192-0.204-0.347-0.437-0.463-0.699
		c-0.117-0.262-0.175-0.544-0.175-0.847s0.058-0.588,0.175-0.856c0.116-0.268,0.274-0.503,0.472-0.708s0.426-0.367,0.683-0.489
		S24.914,0,25.182,0c0.28,0,0.548,0.059,0.805,0.175c0.257,0.117,0.487,0.277,0.691,0.48c0.204,0.204,0.365,0.443,0.481,0.716
		C27.276,1.646,27.335,1.934,27.335,2.236z"/>
	<path fill="#3F3F3F" d="M28.542,7.781h2.328c0.233,0,0.423,0.059,0.569,0.176c0.146,0.117,0.23,0.275,0.253,0.474l1.627,11.445
		c0.059,0.41,0.09,0.805,0.096,1.186s0.015,0.758,0.026,1.132c0.14-0.374,0.283-0.752,0.429-1.133
		c0.146-0.381,0.3-0.776,0.464-1.187l4.848-11.524c0.07-0.175,0.184-0.322,0.341-0.439s0.335-0.176,0.534-0.176h1.295
		c0.233,0,0.414,0.059,0.542,0.176c0.128,0.117,0.204,0.264,0.228,0.439L44.1,19.874c0.07,0.41,0.125,0.808,0.166,1.194
		s0.079,0.772,0.114,1.159c0.117-0.374,0.23-0.758,0.341-1.149s0.248-0.793,0.411-1.202l4.48-11.445
		c0.07-0.187,0.187-0.342,0.35-0.465c0.163-0.123,0.35-0.185,0.56-0.185h2.24L45.325,25.5h-2.363c-0.269,0-0.438-0.195-0.507-0.586
		l-2.152-11.832c-0.035-0.184-0.064-0.371-0.088-0.56s-0.046-0.376-0.07-0.56c-0.059,0.195-0.117,0.385-0.175,0.568
		s-0.128,0.373-0.21,0.568l-5.127,11.815c-0.163,0.391-0.396,0.586-0.7,0.586h-2.275L28.542,7.781z"/>
	<path fill="#3F3F3F" d="M58.117,7.813l-2.135,17.719h-3.063l2.135-17.719H58.117z M59.29,2.236c0,0.303-0.062,0.585-0.184,0.847
		c-0.123,0.262-0.286,0.495-0.49,0.699c-0.204,0.204-0.435,0.364-0.691,0.48c-0.257,0.117-0.525,0.175-0.805,0.175
		c-0.269,0-0.531-0.058-0.788-0.175c-0.257-0.116-0.481-0.276-0.674-0.48c-0.192-0.204-0.347-0.437-0.463-0.699
		c-0.117-0.262-0.175-0.544-0.175-0.847s0.058-0.588,0.175-0.856c0.116-0.268,0.274-0.503,0.472-0.708s0.426-0.367,0.683-0.489
		S56.868,0,57.137,0c0.28,0,0.548,0.059,0.805,0.175c0.257,0.117,0.487,0.277,0.691,0.48c0.204,0.204,0.365,0.443,0.481,0.716
		C59.231,1.646,59.29,1.934,59.29,2.236z"/>
	<path fill="#3F3F3F" d="M76.736,25.532h-3.29l3.063-25.063h3.29L76.736,25.532z"/>
	<path fill="#3F3F3F" d="M86.798,16.125l-1.155,9.406h-3.255l3.063-25.063h6.913c1.33,0,2.484,0.158,3.464,0.473
		s1.788,0.764,2.424,1.347s1.111,1.283,1.426,2.099s0.473,1.726,0.473,2.729c0,1.318-0.216,2.528-0.647,3.63
		s-1.059,2.049-1.881,2.842s-1.837,1.414-3.045,1.863s-2.587,0.674-4.139,0.674H86.798z M88.409,3.031l-1.295,10.5h3.64
		c0.992,0,1.867-0.152,2.625-0.456s1.394-0.726,1.908-1.269c0.513-0.542,0.904-1.19,1.172-1.942
		c0.268-0.752,0.402-1.572,0.402-2.459c0-0.677-0.099-1.283-0.297-1.82s-0.496-0.995-0.893-1.374
		c-0.396-0.379-0.898-0.671-1.505-0.875c-0.607-0.204-1.313-0.306-2.118-0.306H88.409z"/>
	<path fill="#3F3F3F" d="M117.668,25.532h-2.52c-0.292,0-0.52-0.073-0.683-0.219s-0.274-0.335-0.332-0.568l-1.365-6.119h-10.22
		l-2.87,6.119c-0.105,0.21-0.266,0.394-0.481,0.551s-0.458,0.236-0.726,0.236h-2.555l12.303-25.063h3.307L117.668,25.532z
		 M103.651,16.25h8.593l-2.31-10.214c-0.07-0.298-0.146-0.637-0.228-1.016c-0.082-0.379-0.152-0.786-0.21-1.223
		c-0.164,0.437-0.33,0.847-0.499,1.231s-0.33,0.727-0.481,1.025L103.651,16.25z"/>
</g>
</svg>
