<?xml version="1.0" encoding="utf-8"?>
<!-- Generator: Adobe Illustrator 12.0.0, SVG Export Plug-In . SVG Version: 6.00 Build 51448)  -->
<!DOCTYPE svg PUBLIC "-//W3C//DTD SVG 1.1//EN" "http://www.w3.org/Graphics/SVG/1.1/DTD/svg11.dtd" [
	<!ENTITY ns_svg "http://www.w3.org/2000/svg">
	<!ENTITY ns_xlink "http://www.w3.org/1999/xlink">
]>
<svg  version="1.1" id="Layer_1" xmlns="&ns_svg;" xmlns:xlink="&ns_xlink;" width="1422.403" height="147.499"
	 viewBox="0 -40 1422.403 147.499" overflow="visible" enable-background="new 0 0 1422.403 107.499" xml:space="preserve">
<g>
	<path fill="#3F3F3F" d="M4.437,74.093h7.061c3.316,0,5.716,0.497,7.198,1.489c1.481,0.994,2.223,2.563,2.223,4.71
		c0,1.484-0.414,2.708-1.24,3.673s-2.032,1.59-3.616,1.875v0.172c3.795,0.649,5.693,2.642,5.693,5.977
		c0,2.232-0.755,3.975-2.266,5.226c-1.51,1.253-3.622,1.879-6.334,1.879H4.437V74.093z M7.342,84.812h4.788
		c2.052,0,3.528-0.323,4.429-0.97c0.9-0.646,1.351-1.735,1.351-3.269c0-1.407-0.502-2.422-1.505-3.046
		c-1.003-0.623-2.6-0.935-4.788-0.935H7.342V84.812z M7.342,87.28v9.344h5.215c2.018,0,3.537-0.39,4.557-1.17
		s1.531-2.001,1.531-3.664c0-1.549-0.522-2.688-1.565-3.417c-1.043-0.729-2.63-1.093-4.762-1.093H7.342z"/>
	<path fill="#3F3F3F" d="M33.893,99.437c-2.767,0-4.951-0.843-6.55-2.528s-2.399-4.025-2.399-7.021c0-3.018,0.743-5.414,2.229-7.191
		c1.486-1.776,3.481-2.665,5.986-2.665c2.346,0,4.202,0.772,5.568,2.315c1.366,1.544,2.05,3.58,2.05,6.109v1.794H27.882
		c0.057,2.2,0.612,3.87,1.665,5.009c1.053,1.141,2.536,1.71,4.449,1.71c2.015,0,4.007-0.421,5.977-1.265v2.524
		c-1.002,0.432-1.95,0.74-2.844,0.928C36.235,99.343,35.156,99.437,33.893,99.437z M33.124,82.405c-1.503,0-2.701,0.489-3.594,1.468
		c-0.894,0.979-1.42,2.334-1.579,4.063h9.783c0-1.786-0.398-3.155-1.195-4.105S34.604,82.405,33.124,82.405z"/>
	<path fill="#3F3F3F" d="M47.757,99.093H44.92V72.499h2.837V99.093z"/>
	<path fill="#3F3F3F" d="M69.229,89.717c0,3.052-0.769,5.436-2.306,7.148c-1.537,1.714-3.66,2.571-6.37,2.571
		c-1.674,0-3.16-0.393-4.458-1.179s-2.3-1.913-3.006-3.383c-0.706-1.469-1.059-3.188-1.059-5.158c0-3.053,0.763-5.43,2.288-7.133
		c1.525-1.702,3.643-2.554,6.353-2.554c2.619,0,4.699,0.872,6.242,2.614C68.457,84.387,69.229,86.744,69.229,89.717z M54.971,89.715
		c0,2.393,0.478,4.215,1.434,5.467c0.956,1.254,2.361,1.88,4.217,1.88c1.854,0,3.263-0.624,4.225-1.87
		c0.962-1.248,1.443-3.073,1.443-5.477c0-2.381-0.481-4.188-1.443-5.424c-0.962-1.236-2.381-1.854-4.259-1.854
		c-1.855,0-3.255,0.609-4.2,1.828C55.443,85.483,54.971,87.301,54.971,89.715z"/>
	<path fill="#3F3F3F" d="M88.808,99.093l-3.435-10.981c-0.217-0.672-0.621-2.197-1.213-4.578h-0.136
		c-0.456,1.993-0.854,3.53-1.196,4.611l-3.537,10.948H76.01l-5.109-18.719h2.973c1.207,4.702,2.127,8.284,2.759,10.743
		c0.632,2.459,0.994,4.116,1.085,4.97h0.137c0.125-0.649,0.327-1.489,0.606-2.519c0.279-1.031,0.521-1.848,0.727-2.451l3.434-10.743
		h3.076l3.349,10.743c0.638,1.959,1.071,3.604,1.299,4.936h0.137c0.045-0.41,0.168-1.041,0.367-1.896s1.387-5.448,3.563-13.783
		h2.939l-5.177,18.719H88.808z"/>
	<path fill="#3F3F3F" d="M117.673,99.437c-2.767,0-4.951-0.843-6.55-2.528s-2.399-4.025-2.399-7.021
		c0-3.018,0.743-5.414,2.229-7.191c1.486-1.776,3.481-2.665,5.986-2.665c2.346,0,4.202,0.772,5.568,2.315
		c1.366,1.544,2.05,3.58,2.05,6.109v1.794h-12.894c0.057,2.2,0.612,3.87,1.665,5.009c1.053,1.141,2.536,1.71,4.449,1.71
		c2.015,0,4.007-0.421,5.977-1.265v2.524c-1.002,0.432-1.95,0.74-2.844,0.928C120.016,99.343,118.937,99.437,117.673,99.437z
		 M116.905,82.405c-1.503,0-2.701,0.489-3.594,1.468c-0.894,0.979-1.42,2.334-1.579,4.063h9.783c0-1.786-0.398-3.155-1.195-4.105
		S118.384,82.405,116.905,82.405z"/>
	<path fill="#3F3F3F" d="M133.217,89.512l-6.513-9.138h3.231l4.941,7.173l4.923-7.173h3.197l-6.513,9.138l6.855,9.581h-3.214
		l-5.249-7.583l-5.298,7.583h-3.213L133.217,89.512z"/>
	<path fill="#3F3F3F" d="M157.862,99.093l-0.564-2.663h-0.137c-0.935,1.173-1.866,1.968-2.794,2.384
		c-0.929,0.415-2.088,0.623-3.479,0.623c-1.857,0-3.313-0.479-4.367-1.435c-1.054-0.956-1.581-2.316-1.581-4.082
		c0-3.779,3.025-5.761,9.077-5.943l3.179-0.103v-1.162c0-1.47-0.316-2.555-0.949-3.255c-0.633-0.701-1.644-1.052-3.034-1.052
		c-1.562,0-3.328,0.479-5.299,1.436l-0.872-2.171c0.923-0.502,1.935-0.896,3.034-1.181s2.202-0.428,3.307-0.428
		c2.233,0,3.889,0.495,4.966,1.486c1.077,0.991,1.615,2.579,1.615,4.767v12.778H157.862z M151.452,97.093
		c1.766,0,3.153-0.482,4.162-1.448c1.009-0.965,1.513-2.316,1.513-4.053v-1.687l-2.838,0.119c-2.256,0.079-3.883,0.429-4.88,1.048
		s-1.496,1.581-1.496,2.887c0,1.021,0.311,1.8,0.932,2.334C149.466,96.826,150.335,97.093,151.452,97.093z"/>
	<path fill="#3F3F3F" d="M188.986,99.093V86.912c0-1.492-0.319-2.61-0.958-3.356s-1.63-1.119-2.975-1.119
		c-1.767,0-3.071,0.507-3.915,1.521c-0.844,1.014-1.265,2.574-1.265,4.681v10.455h-2.837V86.912c0-1.492-0.319-2.61-0.958-3.356
		s-1.635-1.119-2.991-1.119c-1.778,0-3.08,0.532-3.906,1.598s-1.239,2.81-1.239,5.235v9.823h-2.837V80.374h2.307l0.461,2.563h0.137
		c0.535-0.911,1.29-1.624,2.265-2.137s2.066-0.77,3.274-0.77c2.929,0,4.843,1.06,5.743,3.18h0.137
		c0.559-0.979,1.368-1.755,2.427-2.325c1.06-0.569,2.268-0.854,3.624-0.854c2.12,0,3.707,0.544,4.761,1.632
		c1.054,1.088,1.581,2.826,1.581,5.218v12.213H188.986z"/>
	<path fill="#3F3F3F" d="M205.673,99.437c-1.219,0-2.332-0.225-3.339-0.675s-1.853-1.142-2.536-2.076h-0.205
		c0.137,1.094,0.205,2.13,0.205,3.109v7.704h-2.837V80.374h2.307l0.393,2.561h0.137c0.729-1.024,1.577-1.765,2.545-2.221
		s2.078-0.684,3.331-0.684c2.482,0,4.398,0.849,5.748,2.546c1.349,1.697,2.024,4.076,2.024,7.141c0,3.074-0.686,5.463-2.058,7.166
		C210.015,98.585,208.11,99.437,205.673,99.437z M205.263,82.437c-1.913,0-3.296,0.53-4.15,1.589
		c-0.854,1.06-1.292,2.745-1.315,5.057v0.633c0,2.631,0.438,4.514,1.315,5.646c0.876,1.134,2.283,1.7,4.218,1.7
		c1.616,0,2.883-0.655,3.799-1.965s1.375-3.115,1.375-5.416c0-2.335-0.458-4.126-1.375-5.373S206.925,82.437,205.263,82.437z"/>
	<path fill="#3F3F3F" d="M220.544,99.093h-2.837V72.499h2.837V99.093z"/>
	<path fill="#3F3F3F" d="M233.769,99.437c-2.767,0-4.951-0.843-6.55-2.528s-2.399-4.025-2.399-7.021
		c0-3.018,0.743-5.414,2.229-7.191c1.486-1.776,3.481-2.665,5.986-2.665c2.346,0,4.202,0.772,5.568,2.315
		c1.366,1.544,2.05,3.58,2.05,6.109v1.794h-12.894c0.057,2.2,0.612,3.87,1.665,5.009c1.053,1.141,2.536,1.71,4.449,1.71
		c2.015,0,4.007-0.421,5.977-1.265v2.524c-1.002,0.432-1.95,0.74-2.844,0.928C236.111,99.343,235.032,99.437,233.769,99.437z
		 M233,82.405c-1.503,0-2.701,0.489-3.594,1.468c-0.894,0.979-1.42,2.334-1.579,4.063h9.783c0-1.786-0.398-3.155-1.195-4.105
		S234.479,82.405,233,82.405z"/>
	<path fill="#3F3F3F" d="M256.873,93.986c0,1.743-0.649,3.087-1.947,4.032c-1.298,0.945-3.12,1.418-5.466,1.418
		c-2.482,0-4.418-0.393-5.807-1.18v-2.633c0.899,0.456,1.864,0.814,2.895,1.076s2.024,0.393,2.98,0.393
		c1.479,0,2.618-0.235,3.415-0.708s1.196-1.191,1.196-2.158c0-0.729-0.316-1.353-0.948-1.871c-0.632-0.518-1.864-1.131-3.697-1.836
		c-1.742-0.649-2.98-1.216-3.715-1.7c-0.734-0.483-1.281-1.033-1.64-1.648c-0.358-0.614-0.538-1.349-0.538-2.204
		c0-1.525,0.621-2.729,1.862-3.612s2.943-1.324,5.107-1.324c2.015,0,3.985,0.41,5.91,1.229l-1.008,2.308
		c-1.878-0.774-3.581-1.162-5.106-1.162c-1.344,0-2.357,0.211-3.04,0.632c-0.683,0.422-1.024,1.002-1.024,1.742
		c0,0.501,0.128,0.928,0.384,1.281c0.256,0.354,0.668,0.689,1.238,1.008c0.569,0.319,1.662,0.78,3.279,1.384
		c2.22,0.809,3.72,1.623,4.5,2.442C256.483,91.715,256.873,92.746,256.873,93.986z"/>
	<path fill="#3F3F3F" d="M270.281,75.287c0-0.65,0.159-1.126,0.479-1.428c0.319-0.303,0.718-0.454,1.196-0.454
		c0.456,0,0.849,0.154,1.179,0.462c0.33,0.309,0.496,0.781,0.496,1.42s-0.166,1.115-0.496,1.43c-0.331,0.313-0.724,0.47-1.179,0.47
		c-0.479,0-0.877-0.157-1.196-0.47C270.44,76.402,270.281,75.926,270.281,75.287z M273.357,99.093h-2.837V80.374h2.837V99.093z"/>
	<path fill="#3F3F3F" d="M281.51,99.093h-2.837V72.499h2.837V99.093z"/>
	<path fill="#3F3F3F" d="M289.662,99.093h-2.837V72.499h2.837V99.093z"/>
	<path fill="#3F3F3F" d="M297.645,80.374v12.144c0,1.527,0.347,2.666,1.042,3.417s1.781,1.127,3.261,1.127
		c1.958,0,3.389-0.535,4.294-1.605c0.905-1.07,1.357-2.817,1.357-5.243v-9.839h2.837v18.719h-2.341l-0.41-2.509h-0.154
		c-0.581,0.923-1.386,1.629-2.417,2.118s-2.206,0.734-3.526,0.734c-2.277,0-3.982-0.541-5.115-1.623
		c-1.133-1.081-1.699-2.813-1.699-5.192V80.374H297.645z"/>
	<path fill="#3F3F3F" d="M327.837,93.986c0,1.743-0.649,3.087-1.947,4.032c-1.298,0.945-3.12,1.418-5.466,1.418
		c-2.482,0-4.418-0.393-5.807-1.18v-2.633c0.899,0.456,1.864,0.814,2.895,1.076s2.024,0.393,2.98,0.393
		c1.479,0,2.618-0.235,3.415-0.708s1.196-1.191,1.196-2.158c0-0.729-0.316-1.353-0.948-1.871c-0.632-0.518-1.864-1.131-3.697-1.836
		c-1.742-0.649-2.98-1.216-3.715-1.7c-0.734-0.483-1.281-1.033-1.64-1.648c-0.358-0.614-0.538-1.349-0.538-2.204
		c0-1.525,0.621-2.729,1.862-3.612s2.943-1.324,5.107-1.324c2.015,0,3.985,0.41,5.91,1.229l-1.008,2.308
		c-1.878-0.774-3.581-1.162-5.106-1.162c-1.344,0-2.357,0.211-3.04,0.632c-0.683,0.422-1.024,1.002-1.024,1.742
		c0,0.501,0.128,0.928,0.384,1.281c0.256,0.354,0.668,0.689,1.238,1.008c0.569,0.319,1.662,0.78,3.279,1.384
		c2.22,0.809,3.72,1.623,4.5,2.442C327.447,91.715,327.837,92.746,327.837,93.986z"/>
	<path fill="#3F3F3F" d="M337.801,97.093c0.5,0,0.984-0.036,1.45-0.11s0.836-0.151,1.109-0.231v2.172
		c-0.308,0.148-0.76,0.271-1.357,0.368s-1.135,0.146-1.613,0.146c-3.62,0-5.429-1.905-5.429-5.717V82.593h-2.68v-1.37l2.682-1.184
		l1.196-4.009h1.64v4.344h5.427v2.219h-5.427v11.003c0,1.126,0.267,1.99,0.802,2.594C336.134,96.791,336.868,97.093,337.801,97.093z
		"/>
	<path fill="#3F3F3F" d="M351.956,80.03c0.831,0,1.577,0.069,2.238,0.206l-0.393,2.645c-0.774-0.172-1.458-0.257-2.049-0.257
		c-1.515,0-2.81,0.614-3.886,1.843s-1.614,2.76-1.614,4.592v10.034h-2.837V80.374h2.341l0.325,3.466h0.137
		c0.694-1.219,1.531-2.158,2.511-2.818C349.707,80.361,350.783,80.03,351.956,80.03z"/>
	<path fill="#3F3F3F" d="M368.523,99.093l-0.564-2.663h-0.137c-0.935,1.173-1.866,1.968-2.794,2.384
		c-0.929,0.415-2.088,0.623-3.479,0.623c-1.857,0-3.313-0.479-4.367-1.435c-1.054-0.956-1.581-2.316-1.581-4.082
		c0-3.779,3.025-5.761,9.077-5.943l3.179-0.103v-1.162c0-1.47-0.316-2.555-0.949-3.255c-0.633-0.701-1.644-1.052-3.034-1.052
		c-1.562,0-3.328,0.479-5.299,1.436l-0.872-2.171c0.923-0.502,1.935-0.896,3.034-1.181s2.202-0.428,3.307-0.428
		c2.233,0,3.889,0.495,4.966,1.486c1.077,0.991,1.615,2.579,1.615,4.767v12.778H368.523z M362.114,97.093
		c1.766,0,3.153-0.482,4.162-1.448c1.009-0.965,1.513-2.316,1.513-4.053v-1.687l-2.838,0.119c-2.256,0.079-3.883,0.429-4.88,1.048
		s-1.496,1.581-1.496,2.887c0,1.021,0.311,1.8,0.932,2.334C360.128,96.826,360.997,97.093,362.114,97.093z"/>
	<path fill="#3F3F3F" d="M381.81,97.093c0.5,0,0.984-0.036,1.45-0.11s0.836-0.151,1.109-0.231v2.172
		c-0.308,0.148-0.76,0.271-1.357,0.368s-1.135,0.146-1.613,0.146c-3.62,0-5.429-1.905-5.429-5.717V82.593h-2.68v-1.37l2.682-1.184
		l1.196-4.009h1.64v4.344h5.427v2.219h-5.427v11.003c0,1.126,0.267,1.99,0.802,2.594C380.143,96.791,380.876,97.093,381.81,97.093z"
		/>
	<path fill="#3F3F3F" d="M395.33,99.437c-2.767,0-4.951-0.843-6.55-2.528s-2.399-4.025-2.399-7.021c0-3.018,0.743-5.414,2.229-7.191
		c1.486-1.776,3.481-2.665,5.986-2.665c2.346,0,4.202,0.772,5.568,2.315c1.366,1.544,2.05,3.58,2.05,6.109v1.794H389.32
		c0.057,2.2,0.612,3.87,1.665,5.009c1.053,1.141,2.536,1.71,4.449,1.71c2.015,0,4.007-0.421,5.977-1.265v2.524
		c-1.002,0.432-1.95,0.74-2.844,0.928C397.673,99.343,396.594,99.437,395.33,99.437z M394.562,82.405
		c-1.503,0-2.701,0.489-3.594,1.468c-0.894,0.979-1.42,2.334-1.579,4.063h9.783c0-1.786-0.398-3.155-1.195-4.105
		S396.041,82.405,394.562,82.405z"/>
	<path fill="#3F3F3F" d="M428.894,99.093V86.98c0-1.525-0.347-2.664-1.042-3.416s-1.782-1.128-3.261-1.128
		c-1.969,0-3.406,0.536-4.311,1.606c-0.905,1.07-1.357,2.824-1.357,5.262v9.788h-2.837V72.499h2.837v8.056
		c0,0.969-0.046,1.773-0.137,2.411h0.171c0.558-0.899,1.352-1.608,2.382-2.127s2.206-0.777,3.526-0.777
		c2.288,0,4.004,0.544,5.149,1.632c1.144,1.088,1.716,2.816,1.716,5.185v12.215H428.894z"/>
	<path fill="#3F3F3F" d="M453.023,89.717c0,3.052-0.769,5.436-2.306,7.148c-1.537,1.714-3.66,2.571-6.37,2.571
		c-1.674,0-3.16-0.393-4.458-1.179s-2.3-1.913-3.006-3.383c-0.706-1.469-1.059-3.188-1.059-5.158c0-3.053,0.763-5.43,2.288-7.133
		c1.525-1.702,3.643-2.554,6.353-2.554c2.619,0,4.699,0.872,6.242,2.614C452.251,84.387,453.023,86.744,453.023,89.717z
		 M438.765,89.715c0,2.393,0.478,4.215,1.434,5.467c0.956,1.254,2.361,1.88,4.217,1.88c1.854,0,3.263-0.624,4.225-1.87
		c0.962-1.248,1.443-3.073,1.443-5.477c0-2.381-0.481-4.188-1.443-5.424c-0.962-1.236-2.381-1.854-4.259-1.854
		c-1.855,0-3.255,0.609-4.2,1.828C439.237,85.483,438.765,87.301,438.765,89.715z"/>
	<path fill="#3F3F3F" d="M472.602,99.093l-3.435-10.981c-0.217-0.672-0.621-2.197-1.213-4.578h-0.136
		c-0.456,1.993-0.854,3.53-1.196,4.611l-3.537,10.948h-3.281l-5.109-18.719h2.973c1.207,4.702,2.127,8.284,2.759,10.743
		c0.632,2.459,0.994,4.116,1.085,4.97h0.137c0.125-0.649,0.327-1.489,0.606-2.519c0.279-1.031,0.521-1.848,0.727-2.451l3.434-10.743
		h3.076l3.349,10.743c0.638,1.959,1.071,3.604,1.299,4.936h0.137c0.045-0.41,0.168-1.041,0.367-1.896s1.387-5.448,3.563-13.783
		h2.939l-5.177,18.719H472.602z"/>
	<path fill="#3F3F3F" d="M505.636,93.986c0,1.743-0.649,3.087-1.947,4.032c-1.298,0.945-3.12,1.418-5.466,1.418
		c-2.482,0-4.418-0.393-5.807-1.18v-2.633c0.899,0.456,1.864,0.814,2.895,1.076s2.024,0.393,2.98,0.393
		c1.479,0,2.618-0.235,3.415-0.708s1.196-1.191,1.196-2.158c0-0.729-0.316-1.353-0.948-1.871c-0.632-0.518-1.864-1.131-3.697-1.836
		c-1.742-0.649-2.98-1.216-3.715-1.7c-0.734-0.483-1.281-1.033-1.64-1.648c-0.358-0.614-0.538-1.349-0.538-2.204
		c0-1.525,0.621-2.729,1.862-3.612s2.943-1.324,5.107-1.324c2.015,0,3.985,0.41,5.91,1.229l-1.008,2.308
		c-1.878-0.774-3.581-1.162-5.106-1.162c-1.344,0-2.357,0.211-3.04,0.632c-0.683,0.422-1.024,1.002-1.024,1.742
		c0,0.501,0.128,0.928,0.384,1.281c0.256,0.354,0.668,0.689,1.238,1.008c0.569,0.319,1.662,0.78,3.279,1.384
		c2.22,0.809,3.72,1.623,4.5,2.442C505.246,91.715,505.636,92.746,505.636,93.986z"/>
	<path fill="#3F3F3F" d="M509.316,75.287c0-0.65,0.159-1.126,0.479-1.428c0.319-0.303,0.718-0.454,1.196-0.454
		c0.456,0,0.849,0.154,1.179,0.462c0.33,0.309,0.496,0.781,0.496,1.42s-0.166,1.115-0.496,1.43c-0.331,0.313-0.724,0.47-1.179,0.47
		c-0.479,0-0.877-0.157-1.196-0.47C509.475,76.402,509.316,75.926,509.316,75.287z M512.392,99.093h-2.837V80.374h2.837V99.093z"/>
	<path fill="#3F3F3F" d="M541.591,99.093V86.912c0-1.492-0.319-2.61-0.958-3.356s-1.63-1.119-2.975-1.119
		c-1.767,0-3.071,0.507-3.915,1.521c-0.844,1.014-1.265,2.574-1.265,4.681v10.455h-2.837V86.912c0-1.492-0.319-2.61-0.958-3.356
		s-1.635-1.119-2.991-1.119c-1.778,0-3.08,0.532-3.906,1.598s-1.239,2.81-1.239,5.235v9.823h-2.837V80.374h2.307l0.461,2.563h0.137
		c0.535-0.911,1.29-1.624,2.265-2.137s2.066-0.77,3.274-0.77c2.929,0,4.843,1.06,5.743,3.18h0.137
		c0.559-0.979,1.368-1.755,2.427-2.325c1.06-0.569,2.268-0.854,3.624-0.854c2.12,0,3.707,0.544,4.761,1.632
		c1.054,1.088,1.581,2.826,1.581,5.218v12.213H541.591z"/>
	<path fill="#3F3F3F" d="M549.325,75.287c0-0.65,0.159-1.126,0.479-1.428c0.319-0.303,0.718-0.454,1.196-0.454
		c0.456,0,0.849,0.154,1.179,0.462c0.33,0.309,0.496,0.781,0.496,1.42s-0.166,1.115-0.496,1.43c-0.331,0.313-0.724,0.47-1.179,0.47
		c-0.479,0-0.877-0.157-1.196-0.47C549.484,76.402,549.325,75.926,549.325,75.287z M552.401,99.093h-2.837V80.374h2.837V99.093z"/>
	<path fill="#3F3F3F" d="M560.553,99.093h-2.837V72.499h2.837V99.093z"/>
	<path fill="#3F3F3F" d="M577.393,99.093l-0.564-2.663h-0.137c-0.935,1.173-1.866,1.968-2.794,2.384
		c-0.929,0.415-2.088,0.623-3.479,0.623c-1.857,0-3.313-0.479-4.367-1.435c-1.054-0.956-1.581-2.316-1.581-4.082
		c0-3.779,3.025-5.761,9.077-5.943l3.179-0.103v-1.162c0-1.47-0.316-2.555-0.949-3.255c-0.633-0.701-1.644-1.052-3.034-1.052
		c-1.562,0-3.328,0.479-5.299,1.436l-0.872-2.171c0.923-0.502,1.935-0.896,3.034-1.181s2.202-0.428,3.307-0.428
		c2.233,0,3.889,0.495,4.966,1.486c1.077,0.991,1.615,2.579,1.615,4.767v12.778H577.393z M570.983,97.093
		c1.766,0,3.153-0.482,4.162-1.448c1.009-0.965,1.513-2.316,1.513-4.053v-1.687l-2.838,0.119c-2.256,0.079-3.883,0.429-4.88,1.048
		s-1.496,1.581-1.496,2.887c0,1.021,0.311,1.8,0.932,2.334C568.998,96.826,569.866,97.093,570.983,97.093z"/>
	<path fill="#3F3F3F" d="M593.177,80.03c0.831,0,1.577,0.069,2.238,0.206l-0.393,2.645c-0.774-0.172-1.458-0.257-2.049-0.257
		c-1.515,0-2.81,0.614-3.886,1.843s-1.614,2.76-1.614,4.592v10.034h-2.837V80.374h2.341l0.325,3.466h0.137
		c0.694-1.219,1.531-2.158,2.511-2.818C590.928,80.361,592.004,80.03,593.177,80.03z"/>
	<path fill="#3F3F3F" d="M612.052,99.093l-7.108-18.719h3.042l4.033,11.102c0.911,2.597,1.446,4.281,1.606,5.056h0.137
		c0.125-0.604,0.521-1.854,1.188-3.749c0.666-1.896,2.161-6.032,4.485-12.408h3.042l-7.108,18.719H612.052z"/>
	<path fill="#3F3F3F" d="M632.692,99.437c-2.767,0-4.951-0.843-6.55-2.528s-2.399-4.025-2.399-7.021
		c0-3.018,0.743-5.414,2.229-7.191c1.486-1.776,3.481-2.665,5.986-2.665c2.346,0,4.202,0.772,5.568,2.315
		c1.366,1.544,2.05,3.58,2.05,6.109v1.794h-12.894c0.057,2.2,0.612,3.87,1.665,5.009c1.053,1.141,2.536,1.71,4.449,1.71
		c2.015,0,4.007-0.421,5.977-1.265v2.524c-1.002,0.432-1.95,0.74-2.844,0.928C635.035,99.343,633.956,99.437,632.692,99.437z
		 M631.924,82.405c-1.503,0-2.701,0.489-3.594,1.468c-0.894,0.979-1.42,2.334-1.579,4.063h9.783c0-1.786-0.398-3.155-1.195-4.105
		S633.403,82.405,631.924,82.405z"/>
	<path fill="#3F3F3F" d="M651.204,99.437c-2.711,0-4.809-0.834-6.295-2.503c-1.486-1.668-2.229-4.028-2.229-7.08
		c0-3.133,0.754-5.553,2.264-7.261c1.509-1.708,3.659-2.563,6.449-2.563c0.899,0,1.799,0.097,2.699,0.289
		c0.899,0.192,1.605,0.419,2.118,0.681l-0.871,2.402c-0.626-0.251-1.31-0.459-2.05-0.624s-1.395-0.248-1.964-0.248
		c-3.804,0-5.706,2.429-5.706,7.287c0,2.304,0.464,4.071,1.392,5.304c0.928,1.23,2.303,1.847,4.125,1.847
		c1.56,0,3.16-0.336,4.8-1.009v2.507C654.683,99.112,653.105,99.437,651.204,99.437z"/>
	<path fill="#3F3F3F" d="M665.727,97.093c0.5,0,0.984-0.036,1.45-0.11s0.836-0.151,1.109-0.231v2.172
		c-0.308,0.148-0.76,0.271-1.357,0.368s-1.135,0.146-1.613,0.146c-3.62,0-5.429-1.905-5.429-5.717V82.593h-2.68v-1.37l2.682-1.184
		l1.196-4.009h1.64v4.344h5.427v2.219h-5.427v11.003c0,1.126,0.267,1.99,0.802,2.594C664.06,96.791,664.794,97.093,665.727,97.093z"
		/>
	<path fill="#3F3F3F" d="M687.494,89.717c0,3.052-0.769,5.436-2.306,7.148c-1.537,1.714-3.66,2.571-6.37,2.571
		c-1.674,0-3.16-0.393-4.458-1.179s-2.3-1.913-3.006-3.383c-0.706-1.469-1.059-3.188-1.059-5.158c0-3.053,0.763-5.43,2.288-7.133
		c1.525-1.702,3.643-2.554,6.353-2.554c2.619,0,4.699,0.872,6.242,2.614C686.723,84.387,687.494,86.744,687.494,89.717z
		 M673.236,89.715c0,2.393,0.478,4.215,1.434,5.467c0.956,1.254,2.361,1.88,4.217,1.88c1.854,0,3.263-0.624,4.225-1.87
		c0.962-1.248,1.443-3.073,1.443-5.477c0-2.381-0.481-4.188-1.443-5.424c-0.962-1.236-2.381-1.854-4.259-1.854
		c-1.855,0-3.255,0.609-4.2,1.828C673.708,85.483,673.236,87.301,673.236,89.715z"/>
	<path fill="#3F3F3F" d="M700.321,80.03c0.831,0,1.577,0.069,2.238,0.206l-0.393,2.645c-0.774-0.172-1.458-0.257-2.049-0.257
		c-1.515,0-2.81,0.614-3.886,1.843s-1.614,2.76-1.614,4.592v10.034h-2.837V80.374h2.341l0.325,3.466h0.137
		c0.694-1.219,1.531-2.158,2.511-2.818C698.072,80.361,699.148,80.03,700.321,80.03z"/>
	<path fill="#3F3F3F" d="M730.438,80.374v1.806l-3.472,0.413c0.319,0.397,0.604,0.918,0.854,1.56
		c0.252,0.643,0.377,1.367,0.377,2.174c0,1.829-0.627,3.289-1.881,4.381c-1.255,1.09-2.977,1.636-5.166,1.636
		c-0.559,0-1.084-0.046-1.574-0.137c-1.209,0.639-1.813,1.442-1.813,2.413c0,0.513,0.211,0.893,0.633,1.137
		c0.422,0.246,1.146,0.368,2.172,0.368h3.318c2.029,0,3.589,0.427,4.678,1.281c1.089,0.854,1.634,2.095,1.634,3.723
		c0,2.072-0.833,3.652-2.497,4.74c-1.664,1.087-4.093,1.631-7.285,1.631c-2.451,0-4.341-0.456-5.669-1.367
		c-1.328-0.912-1.992-2.199-1.992-3.863c0-1.14,0.365-2.125,1.095-2.957c0.729-0.832,1.756-1.396,3.078-1.692
		c-0.479-0.216-0.881-0.552-1.206-1.008c-0.325-0.455-0.487-0.984-0.487-1.588c0-0.683,0.182-1.28,0.547-1.793
		c0.365-0.512,0.94-1.007,1.728-1.485c-0.97-0.398-1.759-1.075-2.368-2.032c-0.61-0.956-0.915-2.049-0.915-3.279
		c0-2.049,0.615-3.628,1.847-4.738c1.231-1.109,2.976-1.665,5.232-1.665c0.98,0,1.864,0.114,2.651,0.344H730.438z M715.489,102.239
		c0,1.018,0.427,1.789,1.282,2.314s2.082,0.789,3.679,0.789c2.384,0,4.147-0.357,5.294-1.072s1.72-1.684,1.72-2.906
		c0-1.018-0.313-1.723-0.94-2.117c-0.628-0.395-1.809-0.592-3.541-0.592h-3.404c-1.289,0-2.293,0.309-3.012,0.926
		S715.489,101.085,715.489,102.239z M717.028,86.363c0,1.309,0.37,2.3,1.112,2.972c0.74,0.672,1.773,1.008,3.097,1.008
		c2.771,0,4.157-1.344,4.157-4.031c0-2.813-1.403-4.219-4.209-4.219c-1.334,0-2.361,0.358-3.08,1.076S717.028,84.951,717.028,86.363
		z"/>
	<path fill="#3F3F3F" d="M742.11,80.03c0.831,0,1.577,0.069,2.237,0.206l-0.393,2.645c-0.774-0.172-1.457-0.257-2.049-0.257
		c-1.516,0-2.811,0.614-3.887,1.843s-1.613,2.76-1.613,4.592v10.034h-2.838V80.374h2.342l0.324,3.466h0.137
		c0.695-1.219,1.531-2.158,2.512-2.818C739.861,80.361,740.938,80.03,742.11,80.03z"/>
	<path fill="#3F3F3F" d="M758.678,99.093l-0.563-2.663h-0.137c-0.935,1.173-1.866,1.968-2.794,2.384
		c-0.93,0.415-2.089,0.623-3.479,0.623c-1.857,0-3.314-0.479-4.367-1.435c-1.055-0.956-1.582-2.316-1.582-4.082
		c0-3.779,3.025-5.761,9.077-5.943l3.179-0.103v-1.162c0-1.47-0.316-2.555-0.948-3.255c-0.633-0.701-1.644-1.052-3.034-1.052
		c-1.562,0-3.328,0.479-5.299,1.436l-0.872-2.171c0.923-0.502,1.935-0.896,3.034-1.181s2.201-0.428,3.307-0.428
		c2.234,0,3.889,0.495,4.967,1.486c1.076,0.991,1.615,2.579,1.615,4.767v12.778H758.678z M752.269,97.093
		c1.767,0,3.153-0.482,4.162-1.448c1.009-0.965,1.513-2.316,1.513-4.053v-1.687l-2.838,0.119c-2.256,0.079-3.883,0.429-4.88,1.048
		s-1.495,1.581-1.495,2.887c0,1.021,0.311,1.8,0.932,2.334C750.283,96.826,751.151,97.093,752.269,97.093z"/>
	<path fill="#3F3F3F" d="M774.634,99.437c-1.219,0-2.331-0.225-3.339-0.675s-1.854-1.142-2.537-2.076h-0.205
		c0.137,1.094,0.205,2.13,0.205,3.109v7.704h-2.836V80.374h2.307l0.393,2.561h0.137c0.729-1.024,1.578-1.765,2.545-2.221
		c0.969-0.456,2.078-0.684,3.331-0.684c2.482,0,4.397,0.849,5.747,2.546s2.024,4.076,2.024,7.141c0,3.074-0.687,5.463-2.058,7.166
		C778.975,98.585,777.07,99.437,774.634,99.437z M774.223,82.437c-1.912,0-3.296,0.53-4.149,1.589
		c-0.854,1.06-1.292,2.745-1.315,5.057v0.633c0,2.631,0.438,4.514,1.315,5.646c0.876,1.134,2.282,1.7,4.218,1.7
		c1.617,0,2.883-0.655,3.8-1.965s1.375-3.115,1.375-5.416c0-2.335-0.458-4.126-1.375-5.373S775.885,82.437,774.223,82.437z"/>
	<path fill="#3F3F3F" d="M799.477,99.093V86.98c0-1.525-0.348-2.664-1.042-3.416s-1.782-1.128-3.261-1.128
		c-1.97,0-3.406,0.536-4.312,1.606s-1.357,2.824-1.357,5.262v9.788h-2.837V72.499h2.837v8.056c0,0.969-0.046,1.773-0.137,2.411
		h0.171c0.558-0.899,1.352-1.608,2.383-2.127c1.029-0.519,2.205-0.777,3.525-0.777c2.289,0,4.005,0.544,5.149,1.632
		c1.144,1.088,1.716,2.816,1.716,5.185v12.215H799.477z"/>
	<path fill="#3F3F3F" d="M807.21,75.287c0-0.65,0.159-1.126,0.479-1.428c0.319-0.303,0.718-0.454,1.196-0.454
		c0.455,0,0.849,0.154,1.18,0.462c0.33,0.309,0.495,0.781,0.495,1.42s-0.165,1.115-0.495,1.43c-0.331,0.313-0.725,0.47-1.18,0.47
		c-0.479,0-0.877-0.157-1.196-0.47C807.369,76.402,807.21,75.926,807.21,75.287z M810.286,99.093h-2.837V80.374h2.837V99.093z"/>
	<path fill="#3F3F3F" d="M823.086,99.437c-2.711,0-4.809-0.834-6.295-2.503c-1.486-1.668-2.23-4.028-2.23-7.08
		c0-3.133,0.755-5.553,2.264-7.261c1.51-1.708,3.659-2.563,6.449-2.563c0.9,0,1.8,0.097,2.699,0.289
		c0.9,0.192,1.605,0.419,2.119,0.681l-0.871,2.402c-0.627-0.251-1.311-0.459-2.051-0.624s-1.395-0.248-1.964-0.248
		c-3.804,0-5.706,2.429-5.706,7.287c0,2.304,0.465,4.071,1.393,5.304c0.928,1.23,2.303,1.847,4.125,1.847
		c1.561,0,3.16-0.336,4.801-1.009v2.507C826.564,99.112,824.987,99.437,823.086,99.437z"/>
	<path fill="#3F3F3F" d="M843.642,93.986c0,1.743-0.649,3.087-1.947,4.032s-3.12,1.418-5.466,1.418c-2.482,0-4.418-0.393-5.807-1.18
		v-2.633c0.898,0.456,1.863,0.814,2.895,1.076c1.029,0.262,2.023,0.393,2.98,0.393c1.479,0,2.617-0.235,3.414-0.708
		s1.196-1.191,1.196-2.158c0-0.729-0.315-1.353-0.948-1.871c-0.631-0.518-1.863-1.131-3.697-1.836
		c-1.742-0.649-2.98-1.216-3.715-1.7c-0.734-0.483-1.281-1.033-1.639-1.648c-0.359-0.614-0.538-1.349-0.538-2.204
		c0-1.525,0.62-2.729,1.862-3.612c1.24-0.883,2.943-1.324,5.106-1.324c2.015,0,3.985,0.41,5.909,1.229l-1.008,2.308
		c-1.878-0.774-3.58-1.162-5.105-1.162c-1.344,0-2.357,0.211-3.04,0.632c-0.683,0.422-1.024,1.002-1.024,1.742
		c0,0.501,0.128,0.928,0.385,1.281c0.256,0.354,0.668,0.689,1.237,1.008c0.569,0.319,1.662,0.78,3.279,1.384
		c2.22,0.809,3.72,1.623,4.5,2.442C843.252,91.715,843.642,92.746,843.642,93.986z"/>
	<path fill="#3F3F3F" d="M866.004,99.437c-1.219,0-2.332-0.225-3.34-0.675s-1.853-1.142-2.535-2.076h-0.205
		c0.137,1.094,0.205,2.13,0.205,3.109v7.704h-2.838V80.374h2.308l0.394,2.561h0.137c0.729-1.024,1.576-1.765,2.545-2.221
		c0.967-0.456,2.077-0.684,3.33-0.684c2.482,0,4.398,0.849,5.748,2.546c1.349,1.697,2.023,4.076,2.023,7.141
		c0,3.074-0.686,5.463-2.059,7.166C870.346,98.585,868.44,99.437,866.004,99.437z M865.594,82.437c-1.914,0-3.297,0.53-4.15,1.589
		c-0.854,1.06-1.293,2.745-1.314,5.057v0.633c0,2.631,0.438,4.514,1.314,5.646c0.877,1.134,2.283,1.7,4.219,1.7
		c1.615,0,2.883-0.655,3.799-1.965s1.375-3.115,1.375-5.416c0-2.335-0.459-4.126-1.375-5.373S867.256,82.437,865.594,82.437z"/>
	<path fill="#3F3F3F" d="M886.58,80.03c0.831,0,1.577,0.069,2.238,0.206l-0.394,2.645c-0.774-0.172-1.458-0.257-2.05-0.257
		c-1.514,0-2.81,0.614-3.886,1.843s-1.614,2.76-1.614,4.592v10.034h-2.836V80.374h2.341l0.325,3.466h0.137
		c0.693-1.219,1.531-2.158,2.51-2.818C884.331,80.361,885.407,80.03,886.58,80.03z"/>
	<path fill="#3F3F3F" d="M891.385,75.287c0-0.65,0.159-1.126,0.479-1.428c0.318-0.303,0.718-0.454,1.196-0.454
		c0.456,0,0.849,0.154,1.179,0.462c0.33,0.309,0.496,0.781,0.496,1.42s-0.166,1.115-0.496,1.43c-0.33,0.313-0.723,0.47-1.179,0.47
		c-0.479,0-0.878-0.157-1.196-0.47C891.544,76.402,891.385,75.926,891.385,75.287z M894.461,99.093h-2.837V80.374h2.837V99.093z"/>
	<path fill="#3F3F3F" d="M923.66,99.093V86.912c0-1.492-0.32-2.61-0.958-3.356s-1.63-1.119-2.975-1.119
		c-1.767,0-3.071,0.507-3.915,1.521s-1.265,2.574-1.265,4.681v10.455h-2.837V86.912c0-1.492-0.319-2.61-0.957-3.356
		c-0.639-0.746-1.636-1.119-2.992-1.119c-1.777,0-3.08,0.532-3.906,1.598s-1.238,2.81-1.238,5.235v9.823h-2.838V80.374h2.308
		l0.462,2.563h0.137c0.535-0.911,1.289-1.624,2.264-2.137s2.066-0.77,3.274-0.77c2.929,0,4.843,1.06,5.743,3.18h0.137
		c0.559-0.979,1.367-1.755,2.428-2.325c1.059-0.569,2.268-0.854,3.623-0.854c2.12,0,3.707,0.544,4.762,1.632
		c1.053,1.088,1.58,2.826,1.58,5.218v12.213H923.66z"/>
	<path fill="#3F3F3F" d="M931.393,75.287c0-0.65,0.159-1.126,0.479-1.428c0.318-0.303,0.718-0.454,1.196-0.454
		c0.456,0,0.849,0.154,1.179,0.462c0.33,0.309,0.496,0.781,0.496,1.42s-0.166,1.115-0.496,1.43c-0.33,0.313-0.723,0.47-1.179,0.47
		c-0.479,0-0.878-0.157-1.196-0.47C931.552,76.402,931.393,75.926,931.393,75.287z M934.469,99.093h-2.837V80.374h2.837V99.093z"/>
	<path fill="#3F3F3F" d="M945.83,97.093c0.5,0,0.984-0.036,1.45-0.11s0.836-0.151,1.109-0.231v2.172
		c-0.308,0.148-0.76,0.271-1.357,0.368s-1.136,0.146-1.613,0.146c-3.62,0-5.429-1.905-5.429-5.717V82.593h-2.681v-1.37l2.682-1.184
		l1.196-4.009h1.639v4.344h5.428v2.219h-5.428v11.003c0,1.126,0.268,1.99,0.803,2.594C944.163,96.791,944.896,97.093,945.83,97.093z
		"/>
	<path fill="#3F3F3F" d="M951.202,75.287c0-0.65,0.159-1.126,0.479-1.428c0.319-0.303,0.718-0.454,1.196-0.454
		c0.455,0,0.849,0.154,1.18,0.462c0.33,0.309,0.495,0.781,0.495,1.42s-0.165,1.115-0.495,1.43c-0.331,0.313-0.725,0.47-1.18,0.47
		c-0.479,0-0.877-0.157-1.196-0.47C951.361,76.402,951.202,75.926,951.202,75.287z M954.278,99.093h-2.837V80.374h2.837V99.093z"/>
	<path fill="#3F3F3F" d="M963.697,99.093l-7.108-18.719h3.042l4.032,11.102c0.911,2.597,1.446,4.281,1.606,5.056h0.137
		c0.125-0.604,0.521-1.854,1.188-3.749c0.666-1.896,2.16-6.032,4.484-12.408h3.042l-7.108,18.719H963.697z"/>
	<path fill="#3F3F3F" d="M984.337,99.437c-2.767,0-4.95-0.843-6.55-2.528s-2.4-4.025-2.4-7.021c0-3.018,0.743-5.414,2.229-7.191
		c1.485-1.776,3.481-2.665,5.986-2.665c2.346,0,4.202,0.772,5.567,2.315c1.367,1.544,2.051,3.58,2.051,6.109v1.794h-12.895
		c0.057,2.2,0.612,3.87,1.666,5.009c1.053,1.141,2.535,1.71,4.448,1.71c2.015,0,4.007-0.421,5.978-1.265v2.524
		c-1.002,0.432-1.951,0.74-2.844,0.928C986.68,99.343,985.601,99.437,984.337,99.437z M983.568,82.405
		c-1.503,0-2.701,0.489-3.594,1.468c-0.895,0.979-1.42,2.334-1.58,4.063h9.783c0-1.786-0.398-3.155-1.195-4.105
		S985.048,82.405,983.568,82.405z"/>
	<path fill="#3F3F3F" d="M1007.441,93.986c0,1.743-0.649,3.087-1.947,4.032c-1.299,0.945-3.12,1.418-5.466,1.418
		c-2.482,0-4.418-0.393-5.808-1.18v-2.633c0.9,0.456,1.865,0.814,2.895,1.076c1.031,0.262,2.024,0.393,2.98,0.393
		c1.48,0,2.619-0.235,3.416-0.708s1.195-1.191,1.195-2.158c0-0.729-0.316-1.353-0.947-1.871c-0.633-0.518-1.865-1.131-3.697-1.836
		c-1.742-0.649-2.98-1.216-3.715-1.7c-0.734-0.483-1.281-1.033-1.641-1.648c-0.357-0.614-0.537-1.349-0.537-2.204
		c0-1.525,0.621-2.729,1.861-3.612c1.242-0.883,2.943-1.324,5.107-1.324c2.016,0,3.984,0.41,5.91,1.229l-1.008,2.308
		c-1.879-0.774-3.581-1.162-5.106-1.162c-1.344,0-2.356,0.211-3.04,0.632c-0.684,0.422-1.024,1.002-1.024,1.742
		c0,0.501,0.128,0.928,0.384,1.281s0.669,0.689,1.238,1.008c0.569,0.319,1.662,0.78,3.279,1.384c2.22,0.809,3.72,1.623,4.5,2.442
		C1007.051,91.715,1007.441,92.746,1007.441,93.986z"/>
	<path fill="#3F3F3F" d="M1032.613,99.093l-0.563-2.663h-0.137c-0.935,1.173-1.866,1.968-2.794,2.384
		c-0.93,0.415-2.089,0.623-3.479,0.623c-1.857,0-3.314-0.479-4.367-1.435c-1.055-0.956-1.582-2.316-1.582-4.082
		c0-3.779,3.025-5.761,9.077-5.943l3.179-0.103v-1.162c0-1.47-0.316-2.555-0.948-3.255c-0.633-0.701-1.644-1.052-3.034-1.052
		c-1.562,0-3.328,0.479-5.299,1.436l-0.872-2.171c0.923-0.502,1.935-0.896,3.034-1.181s2.201-0.428,3.307-0.428
		c2.234,0,3.889,0.495,4.967,1.486c1.076,0.991,1.615,2.579,1.615,4.767v12.778H1032.613z M1026.204,97.093
		c1.767,0,3.153-0.482,4.162-1.448c1.009-0.965,1.513-2.316,1.513-4.053v-1.687l-2.838,0.119c-2.256,0.079-3.883,0.429-4.88,1.048
		s-1.495,1.581-1.495,2.887c0,1.021,0.311,1.8,0.932,2.334C1024.219,96.826,1025.087,97.093,1026.204,97.093z"/>
	<path fill="#3F3F3F" d="M1048.397,80.03c0.831,0,1.577,0.069,2.237,0.206l-0.393,2.645c-0.774-0.172-1.457-0.257-2.049-0.257
		c-1.516,0-2.811,0.614-3.887,1.843s-1.613,2.76-1.613,4.592v10.034h-2.838V80.374h2.342l0.324,3.466h0.137
		c0.695-1.219,1.531-2.158,2.512-2.818C1046.148,80.361,1047.225,80.03,1048.397,80.03z"/>
	<path fill="#3F3F3F" d="M1061.351,99.437c-2.767,0-4.95-0.843-6.55-2.528s-2.4-4.025-2.4-7.021c0-3.018,0.743-5.414,2.229-7.191
		c1.485-1.776,3.481-2.665,5.986-2.665c2.346,0,4.202,0.772,5.567,2.315c1.367,1.544,2.051,3.58,2.051,6.109v1.794h-12.895
		c0.057,2.2,0.612,3.87,1.666,5.009c1.053,1.141,2.535,1.71,4.448,1.71c2.015,0,4.007-0.421,5.978-1.265v2.524
		c-1.002,0.432-1.951,0.74-2.844,0.928C1063.693,99.343,1062.614,99.437,1061.351,99.437z M1060.582,82.405
		c-1.503,0-2.701,0.489-3.594,1.468c-0.895,0.979-1.42,2.334-1.58,4.063h9.783c0-1.786-0.398-3.155-1.195-4.105
		S1062.062,82.405,1060.582,82.405z"/>
	<path fill="#3F3F3F" d="M1081.866,75.287c0-0.65,0.159-1.126,0.479-1.428c0.319-0.303,0.718-0.454,1.196-0.454
		c0.455,0,0.849,0.154,1.18,0.462c0.33,0.309,0.495,0.781,0.495,1.42s-0.165,1.115-0.495,1.43c-0.331,0.313-0.725,0.47-1.18,0.47
		c-0.479,0-0.877-0.157-1.196-0.47C1082.025,76.402,1081.866,75.926,1081.866,75.287z M1084.942,99.093h-2.837V80.374h2.837V99.093z
		"/>
	<path fill="#3F3F3F" d="M1103.066,99.093V86.98c0-1.525-0.347-2.664-1.041-3.416s-1.781-1.128-3.262-1.128
		c-1.957,0-3.392,0.53-4.303,1.589c-0.91,1.06-1.365,2.808-1.365,5.244v9.823h-2.837V80.374h2.308l0.461,2.56h0.137
		c0.58-0.922,1.395-1.637,2.441-2.143c1.048-0.508,2.215-0.761,3.502-0.761c2.254,0,3.949,0.544,5.088,1.632
		s1.709,2.826,1.709,5.218v12.213H1103.066z"/>
	<path fill="#3F3F3F" d="M1133.511,96.584h-0.153c-1.311,1.901-3.269,2.853-5.876,2.853c-2.448,0-4.353-0.837-5.714-2.511
		c-1.36-1.674-2.041-4.055-2.041-7.141s0.684-5.484,2.05-7.192s3.269-2.563,5.705-2.563c2.539,0,4.485,0.923,5.841,2.768h0.223
		l-0.119-1.352l-0.068-1.317v-7.63h2.836v26.594h-2.307L1133.511,96.584z M1127.841,97.062c1.936,0,3.339-0.526,4.21-1.58
		s1.307-2.753,1.307-5.099v-0.598c0-2.654-0.441-4.547-1.324-5.68s-2.291-1.7-4.227-1.7c-1.662,0-2.935,0.646-3.816,1.938
		c-0.883,1.293-1.324,3.117-1.324,5.475c0,2.393,0.438,4.197,1.315,5.416C1124.857,96.453,1126.145,97.062,1127.841,97.062z"/>
	<path fill="#3F3F3F" d="M1141.275,75.287c0-0.65,0.159-1.126,0.479-1.428c0.318-0.303,0.718-0.454,1.196-0.454
		c0.456,0,0.849,0.154,1.179,0.462c0.33,0.309,0.496,0.781,0.496,1.42s-0.166,1.115-0.496,1.43c-0.33,0.313-0.723,0.47-1.179,0.47
		c-0.479,0-0.878-0.157-1.196-0.47C1141.435,76.402,1141.275,75.926,1141.275,75.287z M1144.352,99.093h-2.837V80.374h2.837V99.093z
		"/>
	<path fill="#3F3F3F" d="M1158.117,82.562h-4.768v16.531h-2.838V82.562h-3.354v-1.284l3.354-1.028v-1.042
		c0-4.597,2.012-6.896,6.033-6.896c0.991,0,2.153,0.2,3.486,0.599l-0.734,2.275c-1.094-0.354-2.029-0.53-2.803-0.53
		c-1.072,0-1.863,0.355-2.376,1.065c-0.513,0.711-0.769,1.852-0.769,3.42v1.211h4.768V82.562z M1169.992,82.562h-4.768v16.531
		h-2.838V82.562h-3.354v-1.284l3.354-1.028v-1.042c0-4.597,2.012-6.896,6.033-6.896c0.991,0,2.153,0.2,3.486,0.599l-0.734,2.275
		c-1.094-0.354-2.029-0.53-2.803-0.53c-1.072,0-1.863,0.355-2.376,1.065c-0.513,0.711-0.769,1.852-0.769,3.42v1.211h4.768V82.562z"
		/>
	<path fill="#3F3F3F" d="M1180.613,99.437c-2.768,0-4.951-0.843-6.551-2.528s-2.398-4.025-2.398-7.021
		c0-3.018,0.742-5.414,2.229-7.191c1.486-1.776,3.481-2.665,5.986-2.665c2.346,0,4.201,0.772,5.568,2.315
		c1.365,1.544,2.049,3.58,2.049,6.109v1.794h-12.893c0.057,2.2,0.611,3.87,1.664,5.009c1.053,1.141,2.536,1.71,4.449,1.71
		c2.015,0,4.008-0.421,5.977-1.265v2.524c-1.002,0.432-1.949,0.74-2.844,0.928C1182.956,99.343,1181.877,99.437,1180.613,99.437z
		 M1179.845,82.405c-1.503,0-2.7,0.489-3.595,1.468c-0.893,0.979-1.42,2.334-1.578,4.063h9.783c0-1.786-0.398-3.155-1.195-4.105
		S1181.324,82.405,1179.845,82.405z"/>
	<path fill="#3F3F3F" d="M1200.184,80.03c0.831,0,1.577,0.069,2.238,0.206l-0.394,2.645c-0.774-0.172-1.458-0.257-2.05-0.257
		c-1.514,0-2.81,0.614-3.886,1.843s-1.614,2.76-1.614,4.592v10.034h-2.836V80.374h2.341l0.325,3.466h0.137
		c0.693-1.219,1.531-2.158,2.51-2.818C1197.935,80.361,1199.011,80.03,1200.184,80.03z"/>
	<path fill="#3F3F3F" d="M1213.138,99.437c-2.767,0-4.95-0.843-6.55-2.528s-2.4-4.025-2.4-7.021c0-3.018,0.743-5.414,2.229-7.191
		c1.485-1.776,3.481-2.665,5.986-2.665c2.346,0,4.202,0.772,5.567,2.315c1.367,1.544,2.051,3.58,2.051,6.109v1.794h-12.895
		c0.057,2.2,0.612,3.87,1.666,5.009c1.053,1.141,2.535,1.71,4.448,1.71c2.015,0,4.007-0.421,5.978-1.265v2.524
		c-1.002,0.432-1.951,0.74-2.844,0.928C1215.48,99.343,1214.401,99.437,1213.138,99.437z M1212.369,82.405
		c-1.503,0-2.701,0.489-3.594,1.468c-0.895,0.979-1.42,2.334-1.58,4.063h9.783c0-1.786-0.398-3.155-1.195-4.105
		S1213.849,82.405,1212.369,82.405z"/>
	<path fill="#3F3F3F" d="M1236.975,99.093V86.98c0-1.525-0.348-2.664-1.042-3.416s-1.782-1.128-3.261-1.128
		c-1.959,0-3.393,0.53-4.303,1.589c-0.911,1.06-1.366,2.808-1.366,5.244v9.823h-2.837V80.374h2.307l0.462,2.56h0.137
		c0.581-0.922,1.395-1.637,2.442-2.143c1.047-0.508,2.214-0.761,3.5-0.761c2.254,0,3.951,0.544,5.09,1.632s1.707,2.826,1.707,5.218
		v12.213H1236.975z"/>
	<path fill="#3F3F3F" d="M1250.992,97.093c0.5,0,0.984-0.036,1.45-0.11s0.836-0.151,1.109-0.231v2.172
		c-0.308,0.148-0.76,0.271-1.357,0.368s-1.136,0.146-1.613,0.146c-3.62,0-5.429-1.905-5.429-5.717V82.593h-2.681v-1.37l2.682-1.184
		l1.196-4.009h1.639v4.344h5.428v2.219h-5.428v11.003c0,1.126,0.268,1.99,0.803,2.594
		C1249.325,96.791,1250.059,97.093,1250.992,97.093z"/>
	<path fill="#3F3F3F" d="M1275.044,99.437c-1.219,0-2.331-0.225-3.339-0.675s-1.854-1.142-2.537-2.076h-0.205
		c0.137,1.094,0.205,2.13,0.205,3.109v7.704h-2.836V80.374h2.307l0.393,2.561h0.137c0.729-1.024,1.578-1.765,2.545-2.221
		c0.969-0.456,2.078-0.684,3.331-0.684c2.482,0,4.397,0.849,5.747,2.546s2.024,4.076,2.024,7.141c0,3.074-0.687,5.463-2.058,7.166
		C1279.385,98.585,1277.48,99.437,1275.044,99.437z M1274.633,82.437c-1.912,0-3.296,0.53-4.149,1.589
		c-0.854,1.06-1.292,2.745-1.315,5.057v0.633c0,2.631,0.438,4.514,1.315,5.646c0.876,1.134,2.282,1.7,4.218,1.7
		c1.617,0,2.883-0.655,3.8-1.965s1.375-3.115,1.375-5.416c0-2.335-0.458-4.126-1.375-5.373S1276.295,82.437,1274.633,82.437z"/>
	<path fill="#3F3F3F" d="M1289.914,99.093h-2.837V72.499h2.837V99.093z"/>
	<path fill="#3F3F3F" d="M1306.754,99.093l-0.563-2.663h-0.137c-0.935,1.173-1.866,1.968-2.794,2.384
		c-0.93,0.415-2.089,0.623-3.479,0.623c-1.857,0-3.314-0.479-4.367-1.435c-1.055-0.956-1.582-2.316-1.582-4.082
		c0-3.779,3.025-5.761,9.077-5.943l3.179-0.103v-1.162c0-1.47-0.316-2.555-0.948-3.255c-0.633-0.701-1.644-1.052-3.034-1.052
		c-1.562,0-3.328,0.479-5.299,1.436l-0.872-2.171c0.923-0.502,1.935-0.896,3.034-1.181s2.201-0.428,3.307-0.428
		c2.234,0,3.889,0.495,4.967,1.486c1.076,0.991,1.615,2.579,1.615,4.767v12.778H1306.754z M1300.345,97.093
		c1.767,0,3.153-0.482,4.162-1.448c1.009-0.965,1.513-2.316,1.513-4.053v-1.687l-2.838,0.119c-2.256,0.079-3.883,0.429-4.88,1.048
		s-1.495,1.581-1.495,2.887c0,1.021,0.311,1.8,0.932,2.334C1298.359,96.826,1299.228,97.093,1300.345,97.093z"/>
	<path fill="#3F3F3F" d="M1320.041,97.093c0.5,0,0.984-0.036,1.45-0.11s0.836-0.151,1.109-0.231v2.172
		c-0.308,0.148-0.76,0.271-1.357,0.368s-1.136,0.146-1.613,0.146c-3.62,0-5.429-1.905-5.429-5.717V82.593h-2.681v-1.37l2.682-1.184
		l1.196-4.009h1.639v4.344h5.428v2.219h-5.428v11.003c0,1.126,0.268,1.99,0.803,2.594
		C1318.374,96.791,1319.107,97.093,1320.041,97.093z"/>
	<path fill="#3F3F3F" d="M1334.102,82.562h-4.768v16.531h-2.838V82.562h-3.354v-1.284l3.354-1.028v-1.042
		c0-4.597,2.012-6.896,6.033-6.896c0.991,0,2.153,0.2,3.486,0.599l-0.734,2.275c-1.094-0.354-2.029-0.53-2.803-0.53
		c-1.072,0-1.863,0.355-2.376,1.065c-0.513,0.711-0.769,1.852-0.769,3.42v1.211h4.768V82.562z"/>
	<path fill="#3F3F3F" d="M1352.968,89.717c0,3.052-0.769,5.436-2.306,7.148c-1.537,1.714-3.66,2.571-6.369,2.571
		c-1.674,0-3.16-0.393-4.458-1.179s-2.3-1.913-3.006-3.383c-0.706-1.469-1.059-3.188-1.059-5.158c0-3.053,0.763-5.43,2.288-7.133
		c1.525-1.702,3.643-2.554,6.354-2.554c2.618,0,4.699,0.872,6.242,2.614C1352.196,84.387,1352.968,86.744,1352.968,89.717z
		 M1338.71,89.715c0,2.393,0.478,4.215,1.435,5.467c0.955,1.254,2.361,1.88,4.217,1.88c1.854,0,3.262-0.624,4.225-1.87
		c0.961-1.248,1.442-3.073,1.442-5.477c0-2.381-0.481-4.188-1.442-5.424c-0.963-1.236-2.382-1.854-4.26-1.854
		c-1.855,0-3.255,0.609-4.199,1.828C1339.182,85.483,1338.71,87.301,1338.71,89.715z"/>
	<path fill="#3F3F3F" d="M1365.794,80.03c0.831,0,1.577,0.069,2.237,0.206l-0.393,2.645c-0.774-0.172-1.457-0.257-2.049-0.257
		c-1.516,0-2.811,0.614-3.887,1.843s-1.613,2.76-1.613,4.592v10.034h-2.838V80.374h2.342l0.324,3.466h0.137
		c0.695-1.219,1.531-2.158,2.512-2.818C1363.545,80.361,1364.621,80.03,1365.794,80.03z"/>
	<path fill="#3F3F3F" d="M1394.723,99.093V86.912c0-1.492-0.32-2.61-0.958-3.356s-1.63-1.119-2.975-1.119
		c-1.767,0-3.071,0.507-3.915,1.521s-1.265,2.574-1.265,4.681v10.455h-2.837V86.912c0-1.492-0.319-2.61-0.957-3.356
		c-0.639-0.746-1.636-1.119-2.992-1.119c-1.777,0-3.08,0.532-3.906,1.598s-1.238,2.81-1.238,5.235v9.823h-2.838V80.374h2.308
		l0.462,2.563h0.137c0.535-0.911,1.289-1.624,2.264-2.137s2.066-0.77,3.274-0.77c2.929,0,4.843,1.06,5.743,3.18h0.137
		c0.559-0.979,1.367-1.755,2.428-2.325c1.059-0.569,2.268-0.854,3.623-0.854c2.12,0,3.707,0.544,4.762,1.632
		c1.053,1.088,1.58,2.826,1.58,5.218v12.213H1394.723z"/>
	<path fill="#3F3F3F" d="M1414.772,93.986c0,1.743-0.649,3.087-1.947,4.032s-3.12,1.418-5.466,1.418
		c-2.482,0-4.418-0.393-5.807-1.18v-2.633c0.898,0.456,1.863,0.814,2.895,1.076c1.029,0.262,2.023,0.393,2.98,0.393
		c1.479,0,2.617-0.235,3.414-0.708s1.196-1.191,1.196-2.158c0-0.729-0.315-1.353-0.948-1.871c-0.631-0.518-1.863-1.131-3.697-1.836
		c-1.742-0.649-2.98-1.216-3.715-1.7c-0.734-0.483-1.281-1.033-1.639-1.648c-0.359-0.614-0.538-1.349-0.538-2.204
		c0-1.525,0.62-2.729,1.862-3.612c1.24-0.883,2.943-1.324,5.106-1.324c2.015,0,3.985,0.41,5.909,1.229l-1.008,2.308
		c-1.878-0.774-3.58-1.162-5.105-1.162c-1.344,0-2.357,0.211-3.04,0.632c-0.683,0.422-1.024,1.002-1.024,1.742
		c0,0.501,0.128,0.928,0.385,1.281c0.256,0.354,0.668,0.689,1.237,1.008c0.569,0.319,1.662,0.78,3.279,1.384
		c2.22,0.809,3.72,1.623,4.5,2.442C1414.383,91.715,1414.772,92.746,1414.772,93.986z"/>
	<path fill="#3F3F3F" d="M1418.285,97.288c0-0.761,0.173-1.339,0.521-1.731s0.847-0.589,1.495-0.589
		c0.661,0,1.177,0.196,1.547,0.589s0.556,0.971,0.556,1.731c0,0.74-0.188,1.309-0.563,1.707c-0.377,0.398-0.889,0.598-1.539,0.598
		c-0.58,0-1.063-0.18-1.443-0.537C1418.475,98.696,1418.285,98.108,1418.285,97.288z"/>
</g>
<g>
	<path fill="#3F3F3F" d="M116.534,37.974h-14.39v-25h14.39v4.341h-9.092v5.506h8.459v4.341h-8.459v6.438h9.092V37.974z"/>
	<path fill="#3F3F3F" d="M124.55,28.318l-6.152-9.25h5.913l3.708,6.02l3.743-6.02h5.913l-6.221,9.25l6.511,9.656h-5.93l-4.016-6.477
		l-4.033,6.477h-5.913L124.55,28.318z"/>
	<path fill="#3F3F3F" d="M147.998,18.724c2.563,0,4.529,0.551,5.896,1.653c1.367,1.103,2.051,2.778,2.051,5.028v12.569h-3.64
		l-1.008-2.596h-0.137c-0.547,0.684-1.105,1.242-1.675,1.675c-0.57,0.433-1.225,0.752-1.965,0.957
		c-0.741,0.205-1.641,0.308-2.7,0.308c-1.128,0-2.139-0.214-3.034-0.642c-0.895-0.428-1.598-1.084-2.11-1.968
		s-0.769-2.007-0.769-3.37c0-2.004,0.712-3.482,2.136-4.434c1.424-0.951,3.56-1.478,6.409-1.579l3.315-0.102V25.41
		c0-0.975-0.262-1.688-0.786-2.143c-0.524-0.454-1.253-0.681-2.188-0.681c-0.923,0-1.829,0.131-2.717,0.393
		c-0.889,0.262-1.777,0.593-2.666,0.991l-1.726-3.521c1.014-0.535,2.15-0.957,3.409-1.265S146.653,18.724,147.998,18.724z
		 M150.767,29.266l-2.017,0.066c-1.687,0.045-2.857,0.339-3.512,0.882s-0.982,1.259-0.982,2.146c0,0.776,0.233,1.328,0.701,1.655
		c0.467,0.327,1.077,0.491,1.829,0.491c1.116,0,2.059-0.321,2.828-0.965c0.769-0.643,1.154-1.558,1.154-2.745V29.266z"/>
	<path fill="#3F3F3F" d="M183.05,18.724c2.165,0,3.802,0.549,4.913,1.648s1.667,2.859,1.667,5.281v12.321H184.4V26.972
		c0-1.348-0.234-2.364-0.701-3.05c-0.467-0.685-1.191-1.028-2.17-1.028c-1.379,0-2.358,0.486-2.939,1.458s-0.872,2.362-0.872,4.17
		v9.453h-5.212V26.972c0-0.898-0.103-1.651-0.308-2.258s-0.519-1.062-0.94-1.365c-0.422-0.303-0.963-0.455-1.624-0.455
		c-0.969,0-1.729,0.239-2.282,0.716s-0.946,1.179-1.179,2.106s-0.35,2.059-0.35,3.395v8.863h-5.212V19.068h3.982l0.701,2.459h0.291
		c0.387-0.661,0.874-1.196,1.461-1.606s1.233-0.712,1.94-0.906c0.706-0.193,1.424-0.291,2.153-0.291
		c1.401,0,2.589,0.228,3.563,0.684c0.974,0.456,1.723,1.162,2.248,2.119h0.461c0.569-0.979,1.375-1.692,2.418-2.136
		S181.944,18.724,183.05,18.724z"/>
	<path fill="#3F3F3F" d="M204.909,18.724c2.153,0,3.894,0.829,5.221,2.485s1.991,4.085,1.991,7.286c0,2.142-0.313,3.942-0.94,5.401
		c-0.627,1.46-1.493,2.562-2.598,3.305c-1.105,0.744-2.375,1.116-3.811,1.116c-0.923,0-1.715-0.117-2.375-0.35
		c-0.661-0.233-1.225-0.536-1.692-0.906c-0.467-0.37-0.872-0.766-1.213-1.188h-0.273c0.091,0.454,0.159,0.92,0.205,1.396
		c0.045,0.477,0.068,0.942,0.068,1.397v7.682h-5.212V19.068h4.238l0.735,2.493h0.239c0.342-0.513,0.757-0.985,1.248-1.418
		c0.49-0.433,1.079-0.777,1.769-1.034S203.997,18.724,204.909,18.724z M203.234,22.894c-0.912,0-1.635,0.185-2.17,0.554
		c-0.536,0.369-0.926,0.922-1.171,1.66s-0.379,1.671-0.401,2.8v0.554c0,1.208,0.117,2.23,0.35,3.069
		c0.233,0.839,0.626,1.476,1.179,1.912s1.313,0.654,2.282,0.654c0.797,0,1.453-0.218,1.965-0.654s0.897-1.076,1.153-1.92
		c0.256-0.844,0.385-1.875,0.385-3.094c0-1.833-0.291-3.214-0.872-4.142S204.453,22.894,203.234,22.894z"/>
	<path fill="#3F3F3F" d="M220.939,37.974h-5.212V11.38h5.212V37.974z"/>
	<path fill="#3F3F3F" d="M233.586,18.724c1.766,0,3.287,0.335,4.563,1.006c1.276,0.671,2.261,1.643,2.957,2.917
		c0.695,1.274,1.042,2.83,1.042,4.667v2.503h-12.322c0.057,1.44,0.498,2.57,1.324,3.39s1.974,1.23,3.444,1.23
		c1.219,0,2.335-0.125,3.35-0.376c1.014-0.25,2.056-0.626,3.127-1.128v4.033c-0.946,0.467-1.934,0.809-2.965,1.025
		s-2.281,0.325-3.751,0.325c-1.914,0-3.609-0.349-5.084-1.048s-2.632-1.764-3.469-3.195c-0.837-1.431-1.256-3.234-1.256-5.41
		c0-2.209,0.378-4.049,1.136-5.52s1.814-2.575,3.17-3.313C230.208,19.093,231.786,18.724,233.586,18.724z M233.621,22.433
		c-1.014,0-1.854,0.315-2.521,0.946c-0.667,0.631-1.051,1.621-1.153,2.97h7.314c-0.012-0.752-0.151-1.421-0.419-2.008
		c-0.268-0.586-0.667-1.051-1.196-1.394S234.441,22.433,233.621,22.433z"/>
	<path fill="#3F3F3F" d="M259.017,32.367c0,1.285-0.305,2.37-0.915,3.254s-1.518,1.556-2.726,2.012
		c-1.208,0.456-2.712,0.685-4.512,0.685c-1.333,0-2.476-0.085-3.427-0.256s-1.911-0.456-2.879-0.854V32.9
		c1.037,0.467,2.15,0.852,3.341,1.154s2.236,0.453,3.136,0.453c1.014,0,1.74-0.146,2.179-0.437s0.658-0.673,0.658-1.146
		c0-0.315-0.088-0.6-0.265-0.854c-0.177-0.253-0.555-0.541-1.136-0.862s-1.493-0.741-2.734-1.259
		c-1.196-0.496-2.179-0.998-2.948-1.505c-0.769-0.507-1.339-1.107-1.709-1.8s-0.555-1.575-0.555-2.646
		c0-1.747,0.686-3.063,2.059-3.947s3.21-1.327,5.512-1.327c1.185,0,2.315,0.12,3.392,0.359s2.185,0.621,3.324,1.145l-1.572,3.76
		c-0.946-0.41-1.837-0.746-2.675-1.008c-0.837-0.262-1.689-0.393-2.555-0.393c-0.764,0-1.339,0.101-1.726,0.301
		c-0.388,0.201-0.581,0.507-0.581,0.92c0,0.301,0.1,0.569,0.299,0.803s0.587,0.494,1.162,0.778s1.421,0.649,2.538,1.095
		c1.082,0.439,2.022,0.899,2.82,1.378c0.797,0.479,1.413,1.071,1.846,1.775C258.8,30.341,259.017,31.251,259.017,32.367z"/>
</g>
<g>
	<path fill-rule="evenodd" clip-rule="evenodd" fill="#FF7F00" d="M41.897,27.741c-5.439,0.833-11.21-0.199-15.51-3.806
		c-4.351-3.65-6.703-10.28-4.398-15.708c1.143-2.692,3.067-4.854,5.703-6.166c2.7-1.339,5.942-1.653,8.771-0.525
		c2.314,0.961,4.12,2.742,5.077,5.072c1.159,2.818,1.017,6.268-0.851,8.754c-1.736,2.312-4.9,3.33-7.582,2.049
		c-1.129-0.539-2.321-1.681-2.124-3.051c0.037-0.257,0.144-0.579,0.396-0.701c0.255-0.123,0.546,0.109,0.752,0.231
		c0.653,0.389,1.346,0.555,2.105,0.44c1.295-0.196,2.178-0.982,2.322-2.309c0.145-1.318-0.452-2.932-1.608-3.657
		c-2.142-1.343-5.08,0.658-5.728,2.769c-0.799,2.968,0.805,5.948,3.234,7.616c2.351,1.613,5.232,2.115,8.031,2.073
		c6.145-0.091,11.835-3.26,17.353-5.596c2.876-1.217,5.805-2.282,8.867-2.918c3.017-0.626,6.188-0.656,9.222-0.142
		c5.924,1.003,11.731,4.337,14.313,9.962c2.494,5.434,1.953,12.795-2.871,16.801c4.328-4.021,4.612-10.924,1.948-15.941
		c-2.891-5.443-9.145-8.02-15.089-7.958C68.136,15.094,62.879,17.999,57.755,21C52.771,23.917,47.675,26.796,41.897,27.741z"/>
	<path fill-rule="evenodd" clip-rule="evenodd" fill="#FF7F00" d="M42.304,36.278c-10.285,5.641-24.369,9.296-34.822,2.003
		c-3.084-2.152-5.515-5.354-6.709-8.924c-0.595-1.776-0.889-3.671-0.729-5.543c0.069-0.819,0.222-1.638,0.497-2.414
		c0.133-0.375,0.654-1.835,1.209-1.669c0.413,0.124,0.373,1.211,0.401,1.533c0.06,0.66,0.13,1.319,0.24,1.972
		c0.242,1.423,0.671,2.804,1.29,4.108c1.267,2.671,3.272,4.997,5.732,6.636c4.731,3.152,10.851,3.523,16.325,2.725
		c6.353-0.927,12.448-3.432,18.113-6.377c5.525-2.873,10.683-6.396,16.321-9.057c5.654-2.669,12.324-4.231,18.471-2.425
		c5.849,1.718,10.778,6.571,10.595,12.981c-0.067,2.375-0.873,4.703-2.469,6.484c2.024-2.451,2.573-5.799,1.865-8.854
		c-0.663-2.864-2.423-5.274-4.819-6.95c-5.298-3.719-12.185-3.195-17.921-0.873c-4.237,1.715-8.025,4.328-11.738,6.954
		C50.306,31.314,46.444,34.007,42.304,36.278C39.299,37.926,45.4,34.58,42.304,36.278z"/>
	<path fill-rule="evenodd" clip-rule="evenodd" fill="#FF7F00" d="M2.776,19.381C1.396,15.001,1.151,9.874,3.29,5.67
		c2.148-4.223,7.037-6.882,11.659-5.116c2.636,1.007,4.86,3.317,5.311,6.164c0.466,2.943-1.211,5.819-3.74,7.263
		c-1.272,0.727-2.762,1.105-4.228,0.958c-1.035-0.104-2.886-0.558-3.208-1.747c-0.159-0.586,0.787-0.458,1.106-0.471
		c0.691-0.025,1.361-0.08,2.033-0.264c1.403-0.386,2.693-1.344,3.368-2.647c0.688-1.33,0.399-2.719-0.739-3.682
		c-0.957-0.81-2.208-1.178-3.44-0.936C9.431,5.579,8.104,7.413,7.496,9.218C5.969,13.75,6.862,19.183,9.245,23.24
		c3.138,5.341,9.075,7.814,15.05,8.269c6.139,0.466,12.247-0.719,18.043-2.688c2.255-0.767,4.467-1.654,6.652-2.6
		c-5.624,2.785-11.471,5.241-17.65,6.473c-6.029,1.202-12.662,1.369-18.341-1.299C7.997,29.043,4.469,24.589,2.776,19.381
		C2.561,18.697,3.69,22.192,2.776,19.381z"/>
	<path fill-rule="evenodd" clip-rule="evenodd" fill="#FF7F00" d="M70.293,26.002c-2.858,0.959-5.622,2.493-7.32,5.069
		c-0.975,1.479-1.438,3.203-1.293,4.972c0.071,0.86,0.28,1.698,0.544,2.518c0.149,0.462,0.607,1.322,0.281,1.797
		c-0.298,0.426-1.032,0.185-1.409,0.033c-0.623-0.252-1.172-0.688-1.635-1.17c-0.934-0.973-1.565-2.217-1.899-3.517
		c-0.754-2.938,0.038-6.033,1.771-8.475c3.317-4.673,9.046-6.175,14.521-6.059c4.449,0.094,9.353,1.399,11.892,5.375
		c2.263,3.543,1.377,7.876,0.515,11.711c0.504-3.916,0.925-8.734-2.521-11.508C80.056,23.782,74.448,24.604,70.293,26.002
		C69.083,26.408,71.538,25.583,70.293,26.002z"/>
	<path fill-rule="evenodd" clip-rule="evenodd" fill="#FF7F00" d="M74.978,29.417c-1.947,0.651-3.84,1.78-4.963,3.543
		c-0.562,0.882-0.834,1.957-0.846,2.996c-0.006,0.512,0.055,1.026,0.161,1.527c0.053,0.249,0.304,0.88,0.067,1.1
		c-0.372,0.343-1.162-0.568-1.335-0.801c-0.425-0.57-0.698-1.244-0.838-1.939c-0.272-1.357-0.061-2.813,0.555-4.05
		c1.3-2.662,4.167-4.27,7.013-4.7c2.793-0.422,5.818,0.112,8.053,1.918c2.229,1.802,3.509,4.979,2.619,7.784
		c-0.06,0.186-0.127,0.369-0.205,0.548c0.888-2.589-0.282-5.572-2.48-7.122C80.525,28.633,77.522,28.579,74.978,29.417
		C73.497,29.912,76.507,28.913,74.978,29.417z"/>
</g>
<g>
	<path fill-rule="evenodd" clip-rule="evenodd" fill="#FF7F00" d="M299.469,23c-5.124-3.001-10.381-5.906-16.478-5.969
		c-5.944-0.062-12.198,2.515-15.089,7.958c-2.664,5.017-2.38,11.92,1.948,15.941c-4.824-4.006-5.365-11.367-2.871-16.801
		c2.581-5.625,8.389-8.958,14.313-9.962c3.034-0.514,6.205-0.484,9.222,0.142c3.063,0.636,5.991,1.701,8.867,2.918
		c5.518,2.336,11.208,5.504,17.353,5.596c2.799,0.042,5.681-0.459,8.031-2.073c2.43-1.668,4.033-4.648,3.234-7.616
		c-0.647-2.111-3.586-4.112-5.728-2.769c-1.156,0.726-1.753,2.339-1.608,3.657c0.145,1.326,1.027,2.113,2.322,2.309
		c0.76,0.115,1.452-0.051,2.105-0.44c0.206-0.123,0.497-0.354,0.752-0.231c0.253,0.122,0.359,0.444,0.396,0.701
		c0.197,1.371-0.995,2.513-2.124,3.051c-2.682,1.281-5.846,0.263-7.582-2.049c-1.867-2.487-2.01-5.937-0.851-8.754
		c0.957-2.33,2.763-4.11,5.077-5.072c2.829-1.128,6.071-0.814,8.771,0.525c2.636,1.312,4.561,3.474,5.703,6.166
		c2.305,5.428-0.048,12.058-4.398,15.708c-4.3,3.607-10.07,4.64-15.51,3.806C309.549,28.796,304.453,25.917,299.469,23z"/>
	<path fill-rule="evenodd" clip-rule="evenodd" fill="#FF7F00" d="M314.92,38.278c-4.141-2.271-8.002-4.964-11.853-7.687
		c-3.713-2.626-7.501-5.239-11.738-6.954c-5.736-2.322-12.623-2.847-17.921,0.873c-2.396,1.675-4.156,4.085-4.819,6.95
		c-0.708,3.055-0.159,6.403,1.865,8.854c-1.596-1.782-2.401-4.11-2.469-6.484c-0.184-6.411,4.746-11.263,10.595-12.981
		c6.146-1.806,12.816-0.245,18.471,2.425c5.639,2.661,10.796,6.184,16.321,9.057c5.665,2.945,11.761,5.451,18.113,6.377
		c5.475,0.798,11.594,0.427,16.325-2.725c2.46-1.639,4.466-3.965,5.732-6.636c0.619-1.304,1.048-2.686,1.29-4.108
		c0.11-0.653,0.181-1.312,0.24-1.972c0.028-0.322-0.012-1.409,0.401-1.533c0.555-0.167,1.076,1.294,1.209,1.669
		c0.275,0.776,0.428,1.595,0.497,2.414c0.159,1.873-0.135,3.767-0.729,5.543c-1.194,3.569-3.625,6.772-6.709,8.924
		C339.29,47.574,325.206,43.92,314.92,38.278C311.824,36.58,317.925,39.926,314.92,38.278z"/>
	<path fill-rule="evenodd" clip-rule="evenodd" fill="#FF7F00" d="M354.448,21.381c-1.692,5.208-5.221,9.663-10.223,12.013
		c-5.679,2.668-12.312,2.501-18.341,1.299c-6.18-1.232-12.026-3.688-17.65-6.473c2.186,0.946,4.397,1.833,6.652,2.6
		c5.796,1.97,11.904,3.154,18.043,2.688c5.975-0.454,11.912-2.927,15.05-8.269c2.383-4.057,3.276-9.49,1.749-14.021
		c-0.608-1.805-1.935-3.639-3.916-4.027c-1.232-0.242-2.483,0.126-3.44,0.936c-1.139,0.963-1.428,2.352-0.739,3.682
		c0.675,1.304,1.965,2.261,3.368,2.647c0.672,0.185,1.342,0.239,2.033,0.264c0.319,0.013,1.266-0.115,1.106,0.471
		c-0.322,1.189-2.173,1.643-3.208,1.747c-1.466,0.147-2.955-0.232-4.228-0.958c-2.529-1.444-4.206-4.32-3.74-7.263
		c0.45-2.847,2.675-5.157,5.311-6.164c4.622-1.766,9.511,0.893,11.659,5.116C356.073,11.874,355.828,17.001,354.448,21.381
		C353.534,24.192,354.664,20.697,354.448,21.381z"/>
	<path fill-rule="evenodd" clip-rule="evenodd" fill="#FF7F00" d="M286.931,28.002c-4.155-1.398-9.763-2.221-13.447,0.746
		c-3.445,2.774-3.024,7.593-2.521,11.508c-0.862-3.835-1.748-8.168,0.515-11.711c2.539-3.975,7.442-5.28,11.892-5.375
		c5.476-0.116,11.204,1.386,14.521,6.059c1.733,2.442,2.525,5.537,1.771,8.475c-0.334,1.3-0.966,2.544-1.899,3.518
		c-0.463,0.48-1.012,0.918-1.635,1.17c-0.377,0.15-1.111,0.393-1.409-0.033c-0.326-0.475,0.132-1.335,0.281-1.797
		c0.264-0.82,0.473-1.658,0.544-2.518c0.146-1.769-0.318-3.494-1.293-4.972C292.553,30.495,289.79,28.961,286.931,28.002
		C285.686,27.583,288.141,28.408,286.931,28.002z"/>
	<path fill-rule="evenodd" clip-rule="evenodd" fill="#FF7F00" d="M282.247,31.417c-2.545-0.838-5.548-0.784-7.801,0.804
		c-2.198,1.549-3.368,4.533-2.48,7.122c-0.078-0.179-0.146-0.362-0.205-0.548c-0.89-2.806,0.39-5.982,2.619-7.784
		c2.234-1.806,5.26-2.34,8.053-1.918c2.846,0.431,5.713,2.039,7.013,4.7c0.615,1.237,0.827,2.693,0.555,4.05
		c-0.14,0.695-0.413,1.369-0.838,1.939c-0.173,0.232-0.963,1.144-1.335,0.801c-0.236-0.219,0.015-0.851,0.067-1.1
		c0.106-0.501,0.167-1.015,0.161-1.527c-0.012-1.04-0.284-2.114-0.846-2.996C286.086,33.197,284.194,32.068,282.247,31.417
		C280.717,30.913,283.727,31.912,282.247,31.417z"/>
</g>
</svg>
