<?xml version="1.0" encoding="utf-8"?>
<!-- Generator: Adobe Illustrator 12.0.0, SVG Export Plug-In . SVG Version: 6.00 Build 51448)  -->
<!DOCTYPE svg PUBLIC "-//W3C//DTD SVG 1.1//EN" "http://www.w3.org/Graphics/SVG/1.1/DTD/svg11.dtd" [
	<!ENTITY ns_svg "http://www.w3.org/2000/svg">
	<!ENTITY ns_xlink "http://www.w3.org/1999/xlink">
]>
<svg  version="1.1" id="Layer_1" xmlns="&ns_svg;" xmlns:xlink="&ns_xlink;" width="251.547" height="29.241"
	 viewBox="0 0 251.547 29.241" overflow="visible" enable-background="new 0 0 251.547 29.241" xml:space="preserve">
<g>
	<g>
		<path fill="#2F3E51" d="M12.387,0.127V14.95h-1.291L1.566,2.922V14.95H0V0.127h1.292l9.55,12.027V0.127H12.387z"/>
		<path fill="#2F3E51" d="M17.215,0.127h1.566V14.95h-1.566V0.127z"/>
		<path fill="#2F3E51" d="M23.609,0.127h1.566v13.468h8.301v1.355h-9.867V0.127z"/>
		<path fill="#2F3E51" d="M33.663,7.538C33.663,3.219,36.966,0,41.455,0c4.446,0,7.771,3.197,7.771,7.538s-3.325,7.537-7.771,7.537
			C36.966,15.075,33.663,11.857,33.663,7.538z M47.659,7.538c0-3.536-2.646-6.141-6.204-6.141c-3.579,0-6.247,2.604-6.247,6.141
			s2.668,6.141,6.247,6.141C45.013,13.679,47.659,11.074,47.659,7.538z"/>
		<path fill="#2F3E51" d="M56.87,13.149l0.614-1.207c1.059,1.037,2.943,1.801,4.892,1.801c2.773,0,3.98-1.166,3.98-2.627
			c0-4.065-9.126-1.566-9.126-7.051C57.23,1.884,58.924,0,62.693,0c1.673,0,3.409,0.486,4.595,1.313l-0.529,1.249
			c-1.271-0.825-2.753-1.228-4.065-1.228c-2.71,0-3.917,1.207-3.917,2.688c0,4.066,9.126,1.609,9.126,7.01
			c0,2.18-1.736,4.043-5.526,4.043C60.152,15.075,57.972,14.294,56.87,13.149z"/>
		<path fill="#2F3E51" d="M74.191,1.482h-5.209V0.127h11.985v1.355h-5.21V14.95h-1.566V1.482z"/>
		<path fill="#2F3E51" d="M81.586,7.538C81.586,3.219,84.891,0,89.379,0c4.447,0,7.771,3.197,7.771,7.538s-3.324,7.537-7.771,7.537
			C84.891,15.075,81.586,11.857,81.586,7.538z M95.584,7.538c0-3.536-2.648-6.141-6.205-6.141c-3.578,0-6.246,2.604-6.246,6.141
			s2.668,6.141,6.246,6.141C92.936,13.679,95.584,11.074,95.584,7.538z"/>
		<path fill="#2F3E51" d="M100.333,0.127h1.566v13.468h8.301v1.355h-9.867V0.127z"/>
		<path fill="#2F3E51" d="M114.534,1.482h-5.209V0.127h11.986v1.355h-5.209V14.95h-1.568V1.482z"/>
		<path fill="#2F3E51" d="M134.293,13.595v1.355H123.81V0.127h10.165v1.355h-8.599v5.272h7.667v1.334h-7.667v5.506H134.293z"/>
		<path fill="#3BC7D3" d="M153.473,7.538h1.504v5.654c-1.398,1.25-3.387,1.883-5.441,1.883c-4.512,0-7.813-3.196-7.813-7.537
			S145.023,0,149.555,0c2.246,0,4.195,0.72,5.508,2.139l-0.977,0.995c-1.246-1.229-2.73-1.736-4.465-1.736
			c-3.664,0-6.355,2.604-6.355,6.141c0,3.515,2.691,6.141,6.332,6.141c1.418,0,2.73-0.318,3.875-1.144V7.538z"/>
		<path fill="#3BC7D3" d="M168.523,14.95l-3.387-4.766c-0.383,0.043-0.762,0.063-1.188,0.063h-3.98v4.702h-1.566V0.127h5.547
			c3.77,0,6.059,1.905,6.059,5.082c0,2.329-1.23,3.96-3.391,4.658l3.621,5.083H168.523z M168.441,5.209
			c0-2.372-1.566-3.727-4.531-3.727h-3.941v7.432h3.941C166.875,8.914,168.441,7.538,168.441,5.209z"/>
		<path fill="#3BC7D3" d="M183.008,10.989h-8.258l-1.781,3.961h-1.629l6.777-14.823h1.543l6.777,14.823h-1.652L183.008,10.989z
			 M182.438,9.719l-3.559-7.962l-3.559,7.962H182.438z"/>
		<path fill="#3BC7D3" d="M200.496,5.209c0,3.155-2.285,5.061-6.055,5.061h-3.98v4.681h-1.566V0.127h5.547
			C198.211,0.127,200.496,2.032,200.496,5.209z M198.93,5.209c0-2.372-1.566-3.727-4.531-3.727h-3.938v7.411h3.938
			C197.363,8.894,198.93,7.538,198.93,5.209z"/>
		<path fill="#3BC7D3" d="M215.484,0.127V14.95h-1.543V8.109h-9.277v6.841h-1.566V0.127h1.566v6.606h9.277V0.127H215.484z"/>
		<path fill="#3BC7D3" d="M220.313,0.127h1.566V14.95h-1.566V0.127z"/>
		<path fill="#3BC7D3" d="M225.395,7.538c0-4.341,3.305-7.538,7.773-7.538c2.156,0,4.105,0.72,5.418,2.159l-0.996,0.996
			c-1.203-1.229-2.688-1.758-4.383-1.758c-3.578,0-6.266,2.625-6.266,6.141c0,3.515,2.688,6.141,6.266,6.141
			c1.695,0,3.18-0.529,4.383-1.778l0.996,0.995c-1.313,1.439-3.262,2.18-5.441,2.18C228.699,15.075,225.395,11.879,225.395,7.538z"
			/>
		<path fill="#3BC7D3" d="M240.516,13.149l0.613-1.207c1.059,1.037,2.941,1.801,4.891,1.801c2.773,0,3.98-1.166,3.98-2.627
			c0-4.065-9.125-1.566-9.125-7.051c0-2.182,1.691-4.065,5.461-4.065c1.672,0,3.41,0.486,4.598,1.313l-0.531,1.249
			c-1.27-0.825-2.754-1.228-4.066-1.228c-2.711,0-3.918,1.207-3.918,2.688c0,4.066,9.129,1.609,9.129,7.01
			c0,2.18-1.738,4.043-5.527,4.043C243.797,15.075,241.613,14.294,240.516,13.149z"/>
	</g>
	<g>
		<path fill="#98CA3E" d="M101.746,25.95c0,1.793-1.459,3.248-3.252,3.248s-3.252-1.455-3.252-3.248
			c0-1.797,1.459-3.254,3.252-3.254S101.746,24.153,101.746,25.95L101.746,25.95z"/>
		<polygon fill="#2F3E51" points="90.595,25.95 89.623,26.915 88.656,25.95 89.623,24.979 90.595,25.95 		"/>
		<path fill="#3BC7D3" d="M119.868,25.95c0,1.793-1.452,3.248-3.251,3.248c-1.793,0-3.246-1.455-3.246-3.248
			c0-1.797,1.453-3.254,3.246-3.254C118.416,22.696,119.868,24.153,119.868,25.95L119.868,25.95z"/>
		<path fill="#3BC7D3" d="M119.868,25.95h-0.043c0,1.77-1.433,3.203-3.208,3.205c-1.77-0.002-3.201-1.436-3.203-3.205
			c0.002-1.773,1.434-3.207,3.203-3.211c1.775,0.004,3.208,1.438,3.208,3.211H119.868h0.043c-0.004-1.82-1.473-3.297-3.294-3.297
			c-1.816,0-3.289,1.477-3.289,3.297c0,1.816,1.473,3.291,3.289,3.291c1.821,0,3.294-1.475,3.294-3.291H119.868L119.868,25.95z"/>
		<polygon fill="#2F3E51" points="108.718,25.95 107.751,26.915 106.779,25.95 107.751,24.979 108.718,25.95 		"/>
		<path fill="#40C296" d="M137.992,25.95c0,1.793-1.453,3.248-3.246,3.248c-1.801,0-3.254-1.455-3.254-3.248
			c0-1.797,1.453-3.254,3.254-3.254C136.539,22.696,137.992,24.153,137.992,25.95L137.992,25.95z"/>
		<polygon fill="#2F3E51" points="126.84,25.95 125.875,26.915 124.907,25.95 125.875,24.979 126.84,25.95 		"/>
		<path fill="#3B97C8" d="M156.113,25.95c0,1.793-1.453,3.248-3.246,3.248s-3.25-1.455-3.25-3.248c0-1.797,1.457-3.254,3.25-3.254
			S156.113,24.153,156.113,25.95L156.113,25.95z"/>
		<polygon fill="#2F3E51" points="144.969,25.95 143.996,26.915 143.031,25.95 143.996,24.979 144.969,25.95 		"/>
		<polygon fill="#2F3E51" points="162.203,25.95 161.234,26.915 160.262,25.95 161.234,24.979 162.203,25.95 		"/>
	</g>
</g>
</svg>
