<?xml version="1.0" encoding="utf-8"?>
<!-- Generator: Adobe Illustrator 12.0.0, SVG Export Plug-In . SVG Version: 6.00 Build 51448)  -->
<!DOCTYPE svg PUBLIC "-//W3C//DTD SVG 1.1//EN" "http://www.w3.org/Graphics/SVG/1.1/DTD/svg11.dtd" [
	<!ENTITY ns_svg "http://www.w3.org/2000/svg">
	<!ENTITY ns_xlink "http://www.w3.org/1999/xlink">
]>
<svg  version="1.1" id="Layer_1" xmlns="&ns_svg;" xmlns:xlink="&ns_xlink;" width="66.499" height="54.034"
	 viewBox="0 0 66.499 54.034" overflow="visible" enable-background="new 0 0 66.499 54.034" xml:space="preserve">
<g id="Logo_1_">
	<path id="white_background" fill="#1D9BF0" d="M59.692,13.452c0.041,0.586,0.041,1.174,0.041,1.764
		c0,18.027-13.725,38.818-38.82,38.818v-0.01C13.5,54.034,6.241,51.911,0,47.907c1.078,0.131,2.161,0.194,3.247,0.197
		c6.145,0.006,12.111-2.058,16.945-5.853c-5.838-0.111-10.958-3.918-12.747-9.475c2.045,0.395,4.153,0.313,6.16-0.234
		C7.24,31.256,2.661,25.665,2.661,19.17c0-0.059,0-0.115,0-0.172c1.896,1.057,4.021,1.643,6.192,1.707
		C2.858,16.7,1.01,8.722,4.63,2.489c6.928,8.522,17.147,13.705,28.118,14.254c-1.099-4.738,0.403-9.703,3.947-13.035
		c5.495-5.166,14.138-4.9,19.303,0.592c3.057-0.604,5.984-1.725,8.665-3.313c-1.02,3.158-3.15,5.842-5.998,7.545
		c2.704-0.318,5.347-1.043,7.834-2.146C64.668,9.129,62.361,11.52,59.692,13.452z"/>
</g>
</svg>
