<?xml version="1.0" encoding="utf-8"?>
<!DOCTYPE svg PUBLIC "-//W3C//DTD SVG 1.1//EN" "http://www.w3.org/Graphics/SVG/1.1/DTD/svg11.dtd">
<svg xmlns="http://www.w3.org/2000/svg" viewBox="0 0 1110 1110" overflow="visible">
<g>
<path fill="#f9c393" d="M699.1 337.6l-27.6-14.7-26.6-15.2-23-12.4-4.2-6.4-3.2-27.6-9.6-29.5 6.4-64.3 7.4-12.4 6.9-9.2 153.5 51.9.4 17.1v18.3l-1.8 15.2-2.3 28.5 11.1 3.7 8.2 5.1 2.3 6.4-3.7 7.3-5.5 3.7-12.9.4-10.5-2.2-36.8 21.6-11.9 7.8-16.6 6.9z"/><path fill="#318871" d="M761.5 201.2l-20.6-9.1-14.3-2.8-18.9-7.4-21.1-11-21.2-10.1-15.6-4.6-18.4-6.9-10.1-5-14.7-9.7-6-13.3 1.9-6.5 7.3 3.3 9.7 6.8 14.7 6.5 6.9-6 11.5-16.6 17-16.5 18.4-6.4 15.6-1.4 31.7 7.3 20.2 9.7 14.8 12.4 13.3 19.3 1.3 22.1-9.1 24.3-2.3 8.3 7.3 2.8 9.2 2.7 12.9.5 18.4 6-3.7 7.8-8.8 3.6-17.8-.4-17.5-4.2-12-5.5z"/><path fill="#fff" d="M765.3 281.6l-2.8-10.6 3.7-11 4.6-8.7 7.3-2.8 3.3 6.9-2.8 9.2-3.2 6.4-3.7 6.9-6.4 3.7zm-177.7 30.8l10.6-19.8 4.6-6.8 7.8 1.8 23.4 14.2 79.1 45.1-8.8 22-12.4 22.6-11.5.9-17-7.4-28-14.7-47.8-57.9z"/><path fill="#fff" d="M689.6 400l1.9 12.9.4 17 12.9 13.3-7.3 12.4-16.6 14.3-3.7-6.5-7.3-37.2-12-27.6-9.2-14.7 13.8 3.2 12.9 5.1 14.7.9-.5 6.9z"/><path fill="#f9c393" d="M782.9 436.4l9.2-3.7 11.5-11 10.2-7.4 12.8-3.6 21.2-10.2 17-8.7 16-6.4 7.4 6 13.8 14.2 13.3 10.1 5.1 11.5-.5 34-3.6 4.6-5.6-1.8-5-12.9-1-16.1-5 1-8.7 8.7v5l7.8 4.6 6.9 3.3.9 9.1-5.1 4.6-6.4-1.4-5.5-4.5-4.6-4.2-6.5-3.2h-7.3l-10.6 1.9-5.5 1.3-8.3-4.1-.4-12.4-9.7 4.6-7.8 4.6-9.6 1.8-12.9 6-4.2-5.1-5.5-7.8-13.8-12.4zm-94.8-168.5a34.7 34.7 0 1 1 34.8 34.8 34.7 34.7 0 0 1-34.7-34.7"/><path fill="#f9c292" d="M722.8 301.9a34 34 0 1 1 34-34 34 34 0 0 1-34 34"/><path fill="#f9c192" d="M722.8 301.1a33.2 33.2 0 1 1 33.2-33.2 33.2 33.2 0 0 1-33.2 33.2"/><path fill="#f8c091" d="M722.8 300.3a32.4 32.4 0 1 1 32.4-32.4 32.4 32.4 0 0 1-32.4 32.4"/><path fill="#f8bf91" d="M722.8 299.5a31.6 31.6 0 1 1 31.6-31.6 31.6 31.6 0 0 1-31.6 31.6"/><path fill="#f8be91" d="M722.8 298.7a30.8 30.8 0 1 1 30.8-30.8 30.8 30.8 0 0 1-30.8 30.8"/><path fill="#f8bd90" d="M722.8 297.9a30 30 0 1 1 30-30 30 30 0 0 1-30 30"/><path fill="#f8bc90" d="M722.8 297.1a29.3 29.3 0 1 1 29.3-29.3 29.3 29.3 0 0 1-29.3 29.3"/><path fill="#f8bb90" d="M722.8 296.4a28.5 28.5 0 1 1 28.5-28.5 28.5 28.5 0 0 1-28.5 28.5"/><path fill="#f8ba8f" d="M722.8 295.6a27.7 27.7 0 1 1 27.7-27.7 27.7 27.7 0 0 1-27.7 27.7"/><path fill="#f7b98f" d="M722.8 294.8a26.9 26.9 0 1 1 26.9-26.9 26.9 26.9 0 0 1-26.9 26.9"/><path fill="#f7b98e" d="M722.8 294a26.1 26.1 0 1 1 26.1-26.1 26.1 26.1 0 0 1-26.1 26.1"/><path fill="#f7b88e" d="M722.8 293.2a25.3 25.3 0 1 1 25.3-25.3 25.3 25.3 0 0 1-25.3 25.3"/><path fill="#f7b78e" d="M722.8 292.4a24.5 24.5 0 1 1 24.5-24.5 24.5 24.5 0 0 1-24.5 24.5"/><path fill="#f7b68d" d="M722.8 291.7a23.8 23.8 0 1 1 23.8-23.8 23.8 23.8 0 0 1-23.8 23.8"/><path fill="#f6b58d" d="M722.8 290.9a23 23 0 1 1 23-23 23 23 0 0 1-23 23"/><path fill="#f6b48c" d="M722.8 290.1a22.2 22.2 0 1 1 22.2-22.2 22.2 22.2 0 0 1-22.2 22.2"/><path fill="#f6b38c" d="M722.8 289.3a21.4 21.4 0 1 1 21.4-21.4 21.4 21.4 0 0 1-21.4 21.4"/><path fill="#f6b28b" d="M722.8 288.5a20.6 20.6 0 1 1 20.6-20.6 20.6 20.6 0 0 1-20.6 20.6"/><path fill="#f6b18b" d="M722.8 287.7a19.8 19.8 0 1 1 19.8-19.8 19.8 19.8 0 0 1-19.8 19.8"/><path fill="#f6b08b" d="M722.8 286.9a19.1 19.1 0 1 1 19.1-19.1 19.1 19.1 0 0 1-19.1 19.1"/><path fill="#f5af8a" d="M722.8 286.2a18.3 18.3 0 1 1 18.3-18.3 18.3 18.3 0 0 1-18.3 18.3"/><path fill="#f5ae8a" d="M722.8 285.4a17.5 17.5 0 1 1 17.5-17.5 17.5 17.5 0 0 1-17.5 17.5"/><path fill="#f5ad89" d="M722.8 284.6a16.7 16.7 0 1 1 16.7-16.7 16.7 16.7 0 0 1-16.7 16.7"/><path fill="#f5ac89" d="M722.8 283.8a15.9 15.9 0 1 1 15.9-15.9 15.9 15.9 0 0 1-15.9 15.9"/><path fill="#f5ab89" d="M722.8 283a15.1 15.1 0 1 1 15.1-15.1 15.1 15.1 0 0 1-15.1 15.1"/><path fill="#f4aa88" d="M722.8 282.2a14.3 14.3 0 1 1 14.3-14.3 14.3 14.3 0 0 1-14.3 14.3"/><path fill="#f4a988" d="M722.8 281.4a13.6 13.6 0 1 1 13.6-13.6 13.6 13.6 0 0 1-13.6 13.6"/><path fill="#f4a887" d="M722.8 280.7a12.8 12.8 0 1 1 12.8-12.8 12.8 12.8 0 0 1-12.8 12.8"/><path fill="#f4a787" d="M722.8 279.9a12 12 0 1 1 12-12 12 12 0 0 1-12 12"/><path fill="#f4a687" d="M722.8 279.1a11.2 11.2 0 1 1 11.2-11.2 11.2 11.2 0 0 1-11.2 11.2"/><path fill="#f4a586" d="M712.4 267.9a10.4 10.4 0 1 1 10.4 10.4 10.4 10.4 0 0 1-10.4-10.4"/><path fill="#318871" d="M415.7 569l-7.8-16.1-4.7-26.2 4.7-23.9 13.7-14.7 33.2-22.6 29.4-21.1 1.8-10.1 6-3.2 8.3.9 1.8-13.3 2.8-8.8 8.7-5 8.7-4.2 10.6-16 21.1-33.6.5-5.1-2.3-8.2 11.5-23.9 6.4.9 29 16 53.8 57.1 15.6 34.9 6.4 26.6 6 51.1 7.3 5.1 5.6-3.7 11-3.3 5-2.3-.9-8.7 6.9-11.9 12.4-8.8 12.9-4.1 16.1-13.8 10.1-9.2 10.1-4.6 12.9 3.2 15.6 23.5 14.3 27.6 8.7 34-5.5 11-12.9 7.3-14.7 13.4-12.4 11.9-11.5 7-12.9-1.9-13.3 10.1-19.3 18.9-16.6 11.9-14.6 4.1-17.5-1.3-17-5.1-15.6 65.7-19.4 58.9 2.8 11.9 8.3 13.8 3.2 15.6-6.9 15.2 6.4 8.3 7.9 11.5 4.1 22 25.3 44.6 14.7 16.1 20.6 25.8-11 12.4-17.5 9.6-16.9 7.8h-35.9l-11 6-28.1 16.1-17 5-21.1 1-32.2-1.4-25.8-3.2-34-7.8-24.3-7.8-18.9-6.5-42.3-22.5-25.3-11.5-61.5-28-27.6-9.7-3.3-11 23-37.7 51.1-91.9 42.2-97.5 6.5-18.8 34.5-53.8z"/><path fill="#fcc643" d="M930.6 655.8l-6-6.7-1.3-9.3 3.4-7.9 11-5.4 9.5 3.7 5.6 10 .8 8.1-8.9 6.2-9.1 3.8-5-2.5z"/><path fill="#d4cbc5" d="M237.2 765.5l-8.6 2.1-7.6-5.6 6.2-7.8 8.4-2.1 1.6 13.4zM751 1040.9l2.3-8.1 5.9-9.5 7.2-7 9.3-6.3 2.2 9.6-26.9 21.3z"/><path d="M314.5 1102l-1.9-2.1a2.3 2.3 0 0 0-.4-.6c-2-.9-2.9-2.9-4.3-4.2a6.4 6.4 0 0 1-1.8-3 12.8 12.8 0 0 0-2.1-4.5c-1.8-2.2-2.4-5.2-4.6-7.1a2.9 2.9 0 0 1-.5-1.3 10.4 10.4 0 0 0-2.3-4.5 18 18 0 0 1-2.6-4.5c-.6-1.2-1-2.5-2.4-3.1a6.1 6.1 0 0 1-1.4-1.8l-.6 2.1a19.8 19.8 0 0 1-1.3 4c-1.5 2.6-5.9 4-8.9 2.3s-3.9-2.3-5.2-4.4a5.3 5.3 0 0 0-2.2-2c-1.7-.9-1.9-2.9-2-4.6a13.2 13.2 0 0 1 2.2-8.3 31.8 31.8 0 0 0 4.9-10 25 25 0 0 1 2.9-6.2 7.1 7.1 0 0 1 4.7-3.7 6.3 6.3 0 0 0 2.5-1.7 4.1 4.1 0 0 1 3.3-1.1 4.6 4.6 0 0 0 4.1-1.3l2.8 1.4 2-2.3a3.8 3.8 0 0 0 .7-3.7 26.7 26.7 0 0 0-1.8-5.3 2.7 2.7 0 0 1 .3-2.9 18.3 18.3 0 0 0 1.4-2.5 18.2 18.2 0 0 1 3.4-4.5c2.9-2.8 5.5-5.9 8.2-8.9a3.2 3.2 0 0 0 .8-1.2c.8-3.1 4.1-4.3 5.4-7.1 3.9-2.7 6.7-6.6 10.4-9.5s5.1-4.8 7.7-7.1c.9-.8 2.1-1.4 3.1-2.2l4.9-4.4 7.5-6.3c.4-.3.9-.4 1.3-.7l4.7-3.2 6-4.2a21.3 21.3 0 0 0 3.4-2.6c1.8-1.9 3.4-4 5-6a4.2 4.2 0 0 0 .7-3.6c-.1-.5-.3-.9-.3-1.4-.2-2.6-.1-5.2 2.8-6.6a4.7 4.7 0 0 0-.9-1l-6.8-3.9-2.4-1.5c-2.1-1.1-4.2-2.3-6.3-3.3l-9.3-4.2a2.3 2.3 0 0 0-.6-.4c-3.5 0-6-2.4-8.9-3.7s-4.2-2.2-6.3-3.3-1.8-.5-2.7-.9l-7.9-3.8a5.6 5.6 0 0 0-1.3-.6c-2.7-.5-4.7-2.3-6.9-3.6a23.5 23.5 0 0 0-6.1-2.6l-2.5-.8-9.5-4.3c-4.9-2.3-9.6-4.7-14.6-6.8s-7.5-2.9-11.3-4.2a24.1 24.1 0 0 0-3.3-.4l-5.3-1.2a8.9 8.9 0 0 1-5.4-4.4 4.2 4.2 0 0 1-.3-2.5 6.5 6.5 0 0 0-.4-4.1c-.4-.8 0-2.2.2-3.2s1.2-3.4 1.8-5.1a12.6 12.6 0 0 1 .8-1.7 13.8 13.8 0 0 0 1.4-2.5c.8-2.6 2.4-4.6 3.9-6.8s2.7-4.8 4-7.2a17 17 0 0 1 2.1-3.1 31.7 31.7 0 0 0 3.7-5.7c.5-.9.3-2.1.8-3.3s3.5-4.2 4.9-6.6l6.5-10.8c.5-.9 1.2-1.7 1.8-2.5s2.2-3.1 2.3-5.2a1.2 1.2 0 0 1 .2-.7c2.4-3 3-6.9 5.4-10 1-1.3 1.2-3.1 1.9-4.6s.8-2.1 1.5-2.5 3.1-3.4 4.3-5.3c2.9-4.5 5.2-9.4 8.6-13.6.9-1.1 1.2-2.8 1.8-4.3a1.4 1.4 0 0 1 0-.2c2.2-3.1 3.3-6.8 5.4-10l.4-.6c1.2-2.7 2.8-5.3 3.6-8.2s3.4-6.1 4-9.8c-1.4-1.2-3.2-.8-4.8-.4a59 59 0 0 0-7.8 2.8c-2.1.9-4.1 2.2-6.2 3.3a3.9 3.9 0 0 1-1.3.6 23.7 23.7 0 0 0-7.7 2.2 3.9 3.9 0 0 0-1.3.5c-2.4 3-6.1 3.4-9.4 4.7s-4.4 1.4-6.6 2.1c-5.3 1.7-10.6 3.2-15.6 5.7a35.7 35.7 0 0 1-5.4 1.7c-2.8.9-5.6 1.9-8.4 2.6s-4.7.9-7 1.2l-5.8.9-.9.4c-1.7 1.5-4 1.3-5.9 2l-3 .9c-1.6-.5-3.4-1.1-5.2-1.5a4.2 4.2 0 0 0-2 .4c-2.7.9-5.3 2-8 2.8s-3.4.6-4.8 1.8-4.4 1.7-6.7 2.2-2.5 1.2-3.9.6a.9.9 0 0 0-.7.2c-3.1 2.3-6.7 3-10.3 4.1a62.8 62.8 0 0 0-8.2 2.8c-3.2 1.5-6.2 3.4-9.4 5.1-1.4.8-3 1.4-4.5 2.1l-2.5 1.3-2.8 1.2c-1.9.9-3.7 1.9-5.6 2.6a65.5 65.5 0 0 1-7.5 2.3 6.6 6.6 0 0 1-3.3-.3 3.4 3.4 0 0 1 .4-6.6c3.3-1.2 6.7-2.3 9.6-4.4l.8-.5c4.7-1.5 8.9-3.8 13.4-5.8 2.5-1.1 4.8-2.7 7.2-4.1l3.2-1.6 6.4-2.5 3.7-1c2.4-.8 4.8-1.5 7.1-2.5s6.9-3.1 10.3-4.8c1.5-.8 2.8-2.1 4.6-2.4a12.5 12.5 0 0 0 4.7-2.1 4.2 4.2 0 0 0 2.3-2.8c.4-2 2-3.4 3.4-4.8s2.6-1.6 3.9-.3a5.4 5.4 0 0 0 3.8-3.4c.8-2 3-2.6 4.4-3.9a17.8 17.8 0 0 1 2.6-1.7 9.3 9.3 0 0 1 3.5-1.8 5.2 5.2 0 0 0 2-1.2 21.7 21.7 0 0 1 6.9-3.6 10.6 10.6 0 0 0 4.1-2.3 22.8 22.8 0 0 1 3-2c3.3-2 6.5-4.1 9.9-6 1.8-1 3.7-1.8 5.6-2.6l9.8-4.7c4.1-1.9 8.2-3.8 12.4-5.4s9.5-4.3 14.3-6.2c2.8-1.1 5.7-1.7 8.5-2.6a9 9 0 0 0 2-1.2c.7-.4 1.2-1.2 1.9-1.3 2.8-.4 4.7-2.7 7.4-3.5a40.2 40.2 0 0 0 4.6-1.9 10.2 10.2 0 0 0 3-1.8c1-.9 2.5-1.2 3.8-1.8l7.3-2.9a10.1 10.1 0 0 1 2.1-.3l3.3-6.6c.8-1.5 1.7-2.8 1.6-4.6a2.8 2.8 0 0 1 .7-1.4 16.4 16.4 0 0 0 2.7-6 58.4 58.4 0 0 1 2.3-6.4c.8-2.2 1.5-4.3 2.2-6.5a10.7 10.7 0 0 1 .5-1.3c.4-.8.9-1.5 1.2-2.3 1.4-3.2 2.7-6.5 4.3-9.7a48.8 48.8 0 0 0 3.6-8.8 46 46 0 0 1 2.8-6.8 23.9 23.9 0 0 0 1.8-3.3c1.2-4 3.3-7.5 5.6-10.9 1.2-1.9 2.4-3.7 3.5-5.7s1.3-2.7 2.1-4a32.1 32.1 0 0 0 2.3-3.7c1.7-4.2 4.8-7.4 7.1-11.1l6.5-10.2a16.9 16.9 0 0 1 1.5-2.1 47.1 47.1 0 0 0 5.8-7.4 3.5 3.5 0 0 1 .8-.9c1.8-1.5 1.5-3.5-.1-5.2l-3.7-3.7c-1-.9-2-1.9-1.7-3.4a.6.6 0 0 0-.1-.5c-1.9-2.5-1.6-5.9-3.5-8.4a34.5 34.5 0 0 1-2.2-3.9 3.8 3.8 0 0 1-.4-.9l-2.4-9.6a8.8 8.8 0 0 1 .1-2.4 4.2 4.2 0 0 0 .2-.9c-.5-2.7.3-5.2.6-7.8a15.3 15.3 0 0 1 2.5-6.6 3.4 3.4 0 0 0 .7-2.7 8 8 0 0 1 .8-4.8c1.6-3.4 3.2-6.9 5.1-10.2a27.1 27.1 0 0 1 4.1-5.1c1.8-1.9 4.1-3.3 5.7-5.3s6.3-5.5 9.2-8.7c1.4-1.5 3.5-2.3 5.3-3.4a67.6 67.6 0 0 0 6.3-4.3 21.3 21.3 0 0 1 8.4-4.3c2.4-.6 4.2-2.2 6-3.7a14.5 14.5 0 0 1 5-3 12.3 12.3 0 0 0 4.1-2.2c3.1-2.4 6.2-4.6 9.2-7.1s6.1-5.3 9.1-8a3.1 3.1 0 0 0 .6-1.9 23.9 23.9 0 0 1 2.8-10.2c.9-1.7 2.2-3.3 4.5-3.3a2 2 0 0 0 .9-.2c1.9-1.1 4-.9 6-.5s1.5.2 2-1.2 1.5-4.7 2.3-7a13.5 13.5 0 0 0 .4-1.6c.4-2 .7-4 1.1-6s2.4-3.3 4.1-4.5a37.4 37.4 0 0 1 7.3-4.7c3.4-1.5 5.8-4.2 9-6a8.5 8.5 0 0 0 3.6-4.3 3.5 3.5 0 0 1 1-1.6c1.4-1 2-2.6 2.9-4a44.6 44.6 0 0 1 3.1-4.2 9.3 9.3 0 0 0 2.2-4.9 10.8 10.8 0 0 1 2.1-5c.5-.7.8-1.6 1.3-2.3s1.3-1.7 2-2.6 1.6-1.5 1.9-2.4c1-2.9 3.1-4.9 4.8-7.2a40.4 40.4 0 0 0 3-5.3c1-1.9 1.9-3.8 2.9-5.8-.8-1.7-1.6-3.6-2.5-5.4s-.6-5.3.6-7.7 2.4-3.5 3.4-5.3 2.3-4.5 3.7-6.6 1.8-5.9 3.3-8.5a31.3 31.3 0 0 1 3-4.5c1.2-1.5 3.3-1.1 5.2-.1s3.1 2.4 4.8 3.3a5.3 5.3 0 0 0 3.8-4.1c.5-2.1 1.8-3 4.1-3.2a8.4 8.4 0 0 1 4.5.6 1.9 1.9 0 0 0 2.5-.7l3.7-5.8c1.8-2.9 3-6.1 5.1-8.8a6.1 6.1 0 0 0 .8-1.9c.8-2.2 1.7-4.4 3.9-5.4s5.8-2.2 8.7 0l3.8 2.4c1.8-2 1.4-4.3.9-6.5s-1-5.8-1.7-8.7c-.3-1.3-.6-2.6-1-3.9-1-4-1.9-8-3.9-11.6-.8-1.5-1-3.3-1.7-4.9a8.5 8.5 0 0 0-1.9-2.9 5.1 5.1 0 0 1-1.5-5.2 1.9 1.9 0 0 0 0-1.2 1.5 1.5 0 0 0-1-.8l-5.3 1.1c-3 .6-5.6.8-7.4-2s-2.3-3.2-6.2-1.9c-1.2.4-2.3 1-3.6.5s-4.3-1.9-5.3-3.7-.2-1.9-.3-3-1.6.4-2.3 1-4.2 1-6.1.3a4.3 4.3 0 0 1-2.8-4.6 4.9 4.9 0 0 1 .7-1.9c.8-1.4.3-2.6-1.3-2.7a12.8 12.8 0 0 0-3.5.3 10 10 0 0 1-7-1.3c-1.8-1-2-2.5-1.6-4.3l.3-1.2-5.6-1.1c-2.1-.4-4-1.2-5.2-3s-.8-2-.5-2.1.3-3.5 2-5l-1.9-.4H531a6 6 0 0 1-4.6-2.5c-1.7-1.9-1.3-3.1.9-4.3a5.7 5.7 0 0 0 2.6-2.3 3.2 3.2 0 0 1 .8-.8l5.4-4.6c-1-2.4-3.1-2.8-5-3.6s-3.8-3.7-3.8-5.1a2.2 2.2 0 0 1 .5-1.5c1.6-1.4 3.2-2.6 5.5-2.6s6.2-.3 9.2-.7c1.4-.2 3-.5 3.5-2a3.7 3.7 0 0 0-.6-3.8 10.5 10.5 0 0 1-2.2-4.2c-1.2-3.3.7-6.2 4.2-6.2a6.7 6.7 0 0 1 4.2 1.2c1.6 1.1 3.4 2 5.3 3.1a2.3 2.3 0 0 0 .7-.8c.4-1.4.6-2.9 1-4.4a3.3 3.3 0 0 1 1.1-1.8c1.7-1.1 3.6-2.1 5.6-1.4s4.3.3 6.4.4a20.6 20.6 0 0 1 3.7.7 2.7 2.7 0 0 1 1.9 2.7c.3 2.7 1.6 3.3 4 2.5s7.1-2.8 11-2.6h.7c2.4-1.1 3.8 0 5.2 1.9s1.9 3 .7 5.4c1.3 2.2 2 2.6 4.4 2.2a30 30 0 0 0 4-.8 3.3 3.3 0 0 0 1.6-1.5c1.2-2.2 2.2-4.6 3.5-6.8a25.2 25.2 0 0 1 3.5-4.5 22.2 22.2 0 0 0 4.4-6.5c.9-2.1.7-2.8-1.2-3.9-3.6-2-7.2-3.9-10.7-6.1a22.5 22.5 0 0 1-4.6-4.4 45.3 45.3 0 0 1-4.2-5.7 14.1 14.1 0 0 1-2.5-7 14.6 14.6 0 0 0-.5-2.6c-.5-2.4-.8-4.8.3-7.3s1.7-2.7 4.2-2.4a21.5 21.5 0 0 1 10.2 4.6c1.2.9 2.1 2.2 3.5 3.1a49.1 49.1 0 0 0 5.8 3.7c2.4 1.2 4.5 2.9 6.8 4.3a47.1 47.1 0 0 0 6 3c1.9.8 3.3-.2 3-2.3a3.4 3.4 0 0 1 1.9-3.7 7.9 7.9 0 0 0 2.1-2.6l5.4-8.7a58 58 0 0 1 3.1-5.1c1.4-1.9 3.3-3.4 4.7-5.3a60.4 60.4 0 0 1 6.5-6.9 3 3 0 0 1 .5-.5c3.1-1.8 5.8-4.1 9-5.6.9-.4 1.8-1 2.8-1.3l6.8-2.1a5.9 5.9 0 0 0 1.2-.2c3.2-1.8 6.8-1.6 10.2-1.9 2-.2 3.9-.7 5.8-1a19.6 19.6 0 0 1 4.5-.4c3.2.3 6.3.1 9.5.2a19.5 19.5 0 0 1 3.2.7c.9.2 1.9.7 2.7.5s3.8.2 5.7.9a33.4 33.4 0 0 0 5.7 1.6 38 38 0 0 1 6.9 2.3c1.8.7 3.7 1 5.5 1.7s3.6 1.5 5.4 2.3c3.4 1.6 6.8 3 10.1 4.8s6.4 3.8 9.5 5.9a22.5 22.5 0 0 1 5.3 4.7c.9 1.1 2.2 1.8 3.1 2.9s3.4 3.9 5 6 3.2 4.7 5 6.9 2.2 3.9 3.1 6a6.8 6.8 0 0 0 .5 1.8c2.3 2.8 2.2 6.5 3.5 9.7s.2 5.3-.3 8a21.5 21.5 0 0 0-.4 2.6c-.1 1.3.1 2.7-.7 4a1.6 1.6 0 0 0-.1.9 19.5 19.5 0 0 1-2 9.5 20.2 20.2 0 0 0-1.5 6.5 7.7 7.7 0 0 1-.5 1.6c-.6 1.9-1.3 3.8-1.8 5.7s-.6 3.4-1.7 4.8-.7 2.1-1.1 3.4a9.5 9.5 0 0 0 1.8 1.2 32.5 32.5 0 0 0 6.7 2.3 36.8 36.8 0 0 0 7.9 0c2.4-.2 4.9-.7 7.3.1h.5c3.7-.1 7.1 1.4 10.6 2.2a29 29 0 0 1 6.3 2.1 9.1 9.1 0 0 1 4.2 4c1 1.9.4 4.8-1.6 5.7a5.9 5.9 0 0 0-2.3 2.3 11.2 11.2 0 0 1-1.8 1.7 3.7 3.7 0 0 0-.8.6c-1.2 2-3.1 2.7-5.3 3.1a26.8 26.8 0 0 0-3.8 1.3 7.1 7.1 0 0 1-4.9.3c-.9-.3-2 .4-3 .3l-8.5-.6-6.6-.8-1.2.2c-.5 2.2-1.6 4.4-1.3 6.5s-1 5.2-.8 7.9c.1 1 .2 2 .3 3.1a1.9 1.9 0 0 1 0 1.1c-1 1.3-.6 2.9-.8 4.4s-1 4.1-1.5 6.2a18.2 18.2 0 0 1-.9 2.1c2.2.3 2.8 2 3.1 3.6a17.7 17.7 0 0 1 .2 5.4c-.4 3.3-1.7 6.4-2.8 9.5s-1.9 6.8-2.9 10.3c2 1.2 3.5 2.8 6 2.8a2.5 2.5 0 0 1 1.8.5c1.3 1.6 3.2 2.2 4.9 2.9 3.3 1.4 6 3.6 8.7 5.8a4 4 0 0 1 1.8 4.2 5.9 5.9 0 0 0-.1 1.7c.3 4.2-2 7-4.9 9.6a12.2 12.2 0 0 0-2.4 2.5c-1.6 2.7-4.3 3.4-7 3.9s-5 .4-7.5.7a8.6 8.6 0 0 1-4.8-1.1 8 8 0 0 0-4.5-1.3c-.3 1.9-.6 3.7-1.1 5.5a13.6 13.6 0 0 1-1.3 3.3c-.7 1.3-1.7 2.5-2.5 3.8a2.2 2.2 0 0 1-1.7 1.4 2.7 2.7 0 0 0-1.3 1.3 18.4 18.4 0 0 0-2.3 3.5 24.2 24.2 0 0 0-.9 4.4 6.1 6.1 0 0 0-.1.8c-1.6 2-3.7 2.2-5.9 1.7s-2.5 0-3.1 1.6a4.3 4.3 0 0 0-.4 1.6c0 3.8-2.2 6.8-3.4 10.2a1.4 1.4 0 0 1-.4.6c-1.9 1.6-2.2 3.8-2.2 6a10.1 10.1 0 0 1-2.1 6.9.9.9 0 0 0-.3.4c-.2 3.6-3.7 5.3-4.7 8.5a7.7 7.7 0 0 0-.6 1.5 22.1 22.1 0 0 1-3.1 9.1c-.9 1.6-1.1 3.6-1.7 5.3a14.8 14.8 0 0 1-1.8 4.1c-1.2 1.6-3.2 1.4-5 1.7a1.4 1.4 0 0 1-.9-.7c-1.2-1.9-1.9-3.8-1.1-6s2.3-5.6 3.2-8.4a26.8 26.8 0 0 0 .8-5.4c.3-2.7.4-5.5.6-8.3l.5-.3-1.7-1.3a4.4 4.4 0 0 1-1.2-4.6c1-4.5 2.1-8.9 3.2-13.3a48.6 48.6 0 0 1 4-11.1c.8-1.5 1.5-3.1 2.2-4.7a7.2 7.2 0 0 0 .2-1.8c-1.9.9-3.5 1.5-5 2.4a60.2 60.2 0 0 0-6.8 4.3c-2.3 1.8-5.3 2.2-7.8 3.6l-3.1 1.7-4.7 3.2a17.7 17.7 0 0 0 2.4 2.3c2 1.3 4.1 2.4 6.2 3.5a4.4 4.4 0 0 1 2.2 4 10.3 10.3 0 0 1-.8 4.6c-.6 1.5-1.9 2.7-2.8 4a10.3 10.3 0 0 0-1.5 2.9 16.8 16.8 0 0 1-4.2 7 3.4 3.4 0 0 0-1.1 2.2 7.3 7.3 0 0 1-1 2.9 22.8 22.8 0 0 0-2.4 7.1 9.2 9.2 0 0 1-1 2.6l-4.4 7.9v-.5c-2 1.8-1.5 4.1-1.7 6.4s-.8 6.3-1.2 9.4a5.1 5.1 0 0 0-.1.9 10.8 10.8 0 0 1 .2 2.5 8.1 8.1 0 0 1-1.1 2.1c1.1 1.4 1.9 2.8 1 4.6s.2 1.4.4 2a77.5 77.5 0 0 0 2.7 9.7c.9 2.5 2.8 4.1 4.7 5.8s4.2 3.6 5.5 6.1a7.8 7.8 0 0 0 1.8 2.1 4.6 4.6 0 0 1 1.7 5.2c-.7 3-1.6 5.8-3.7 8.1a2.6 2.6 0 0 0-.5 1.1 20.5 20.5 0 0 1-.5 2.1 3.4 3.4 0 0 1-1.1 1.8c-2.1 1-2.5 4.3-5.6 3.9a5.3 5.3 0 0 0-2.3.5l-5.7 2.1a2.6 2.6 0 0 0-.9.2c-1.6 1.9-3.6 3.7-4 6.3a4.5 4.5 0 0 0 1.4 3.2 7.9 7.9 0 0 1 2.3 4.9c.5 4.4.3 8.8-2.9 12.4a4.6 4.6 0 0 0-1 4.9 18 18 0 0 1 .2 1.9c.2.8.5 1.6.7 2.3h.7c3.4-1.9 7.2-2.4 10.7-3.6a22.9 22.9 0 0 0 3.2-.9 51.3 51.3 0 0 0 4.4-2.8 5.3 5.3 0 0 1-1.7-6.2 57.9 57.9 0 0 1 3.8-8.1 34.9 34.9 0 0 1 2.9-4.1 26.4 26.4 0 0 1 10.9-8.5c2.2-1 4.3-2.3 6.5-3.3s2.7-.9 4-1.5l4.9-2.3 1.4-.8a38.2 38.2 0 0 0 8.9-5.5c1.3-1.1 2.2-2.7 3.4-4 3.4-3.6 6.7-7.1 10.9-9.8 1.2-.8 2.1-1.8 3.2-2.7s5.3-2.3 8.1-3.1 5.5-.5 8.3-.6a5.4 5.4 0 0 0 2.1-.1 37 37 0 0 0 6.7-3.9c2.8-2.3 5.2-5.1 7.9-7.6s3.3-2.9 5-4.3a23.2 23.2 0 0 1 10.3-5.1h.5c2.8-2.2 6.5-1.9 9.5-3.6.8-.5 1.8-.7 2.5-1.3 2.5-1.8 5.6-2.1 8.3-3.5s8.5-3.5 12.4-5.9 5.7-2.6 8.5-4 4-2.3 6-3.3l6.9-3.1 6.3-3.1a14.2 14.2 0 0 1 8.6-1.3 4 4 0 0 1 2.2 1.2c1.4 1.5 2.5 3.3 4 4.7a44.4 44.4 0 0 1 3.8 4.6c1.7 2 4.1 3 6.3 4.1a10.4 10.4 0 0 1 4.2 3.7 46.1 46.1 0 0 0 3.5 4.8 23.1 23.1 0 0 0 3.8 2.8l8.7 6.2a1.1 1.1 0 0 1 .5.5c.4 2.4 1.9 4.4 2.3 7s-.1 5.3 1.5 7.6a1.5 1.5 0 0 1 .2 1.1c-.5 1.8.2 3.6-.5 5.5s-.1 3.1-.1 4.7a14.4 14.4 0 0 1 0 1.9c-.4 2.9-.9 5.8-1.2 8.7a6.7 6.7 0 0 0 .5 2.8 9.9 9.9 0 0 1-1.9 10.3 14.9 14.9 0 0 1-6.2 4.3c-2 .7-2 .9-1.7 3s.5 5.6 1.1 8.4a35.6 35.6 0 0 1 1.2 8.4 8.9 8.9 0 0 0 .8 2.5c.6 2.1 1.8 4.1 1.7 6.2 0 3.6 1.9 6.9 1.2 10.5a3.3 3.3 0 0 0 0 1.9c1.1 2.3 1.1 4.9 1.8 7.3s.7 3.9 1 5.8.8 5.6 2.1 8.2a6.4 6.4 0 0 1 .5 3.1 18.5 18.5 0 0 0 1 6.1c1.1 3.4 1.2 7 1.7 10.5s1.3 6.6 2 10a11.4 11.4 0 0 1 .3 1.4c.2 3.1.3 6.2.7 9.3a65.1 65.1 0 0 0 1.4 6.5c.1.2.2.4.2.7.6 3.2 1 6.4 1.7 9.5s1.6 6.2 2.4 9.4a6.7 6.7 0 0 1 .2 1.4 87.6 87.6 0 0 0 1.5 10.8c.5 3.1.8 6.2 1.1 9.4a3.1 3.1 0 0 0 3.3 3 9.9 9.9 0 0 1 5.9 1.6 29.1 29.1 0 0 1 3.8 2.8 18 18 0 0 1 6.4 13.5 13.2 13.2 0 0 1-2.7 9 23.2 23.2 0 0 1-5.7 4.8 4.2 4.2 0 0 0-1.7 1.2 5.8 5.8 0 0 1-3.3 2.9 2.4 2.4 0 0 0-.8.4c-.8.9-1.3 1.8-2.7 2.1-3 .5-5.8 1.7-8.9.8l-.9-.2c-4.2-2.7-8.7-5.2-10.7-10.1-1-2.4-1.9-5.1-1-7.9a12.5 12.5 0 0 0 .5-3.5 9.2 9.2 0 0 1 1.7-5.8 13 13 0 0 1 2.4-2.8c1.7-1.2 3.1-2.6 5-3.5s2.6-2.5 2.4-4.9 0-2.8 0-4.2a2.8 2.8 0 0 0-.1-1.4c-1-1.4-.7-3.1-.8-4.6-.4-4.2-.5-8.5-1.6-12.4a93.8 93.8 0 0 1-2.8-13.9c-.6-4.7-1.5-9.3-1.8-14s-1.3-6.5-2.1-9.7-2.6-8.9-2.4-13.7c.1-2-.9-4-1.3-6s-.9-5.6-1.3-8.4l-.7-4.2c-.3-1.6-.5-3.3-.8-4.9a11.3 11.3 0 0 0-.9-3.2c-1.6-3-2-6.3-2.1-9.7a51.9 51.9 0 0 0-.2-6.7c-.5-3.2-.9-6.4-2.4-9.4-.5-1-.1-2.3-.3-3.5s-.9-3.8-1.3-5.8a23.8 23.8 0 0 1-.5-4 17.2 17.2 0 0 0-1.1-8.1 8 8 0 0 1-.5-2.3c-.3-1.7-1-2.2-2.6-1.6a44.2 44.2 0 0 1-7.1 1.7c-3.4.6-7.1 1-9.5 4.2-1.1 1.5-1.7 3-1.2 4.9 1 3.6 2.2 7.1 3.2 10.6a4.9 4.9 0 0 1-.9 5.1c-1.6 1.6-3.3 3.1-5.7 3.6s-5.1 1.2-7.6 1.8a2.8 2.8 0 0 1-1.5 0 1.1 1.1 0 0 1-.2-2.1 4.1 4.1 0 0 1 2.2-.5 1.9 1.9 0 0 0 2-.9 4.3 4.3 0 0 1 2.8-2l1.7-.8c2.2-1.1 2.4-1.7 1.7-4.2-1.2-4-2.3-8.1-2.2-12.3s1.9-6.4 4.5-8.8a6 6 0 0 1 2-.7l1.6-.7a21.5 21.5 0 0 0-6.5-6.6 26.9 26.9 0 0 0-6.6-3.2 8.4 8.4 0 0 0-3-.5 33.2 33.2 0 0 0-8.5 1.8 39.9 39.9 0 0 1-8.1 1.6 15.6 15.6 0 0 1-3.8 0 10.9 10.9 0 0 1-3-.7c-1.5-.6-2.8-1.6-4.5-.9a1.2 1.2 0 0 1-.9-.2c-1.9-1.3-3.8-.8-5.7-.3a11 11 0 0 1-8.5-.8 27.2 27.2 0 0 1-4.1-3.4c-2.5.9-5.2 1.7-7.7 2.8s-5.4-.2-8.1 1.3l.9 2.1c.7 1.6 1.4 3.3 2.2 4.9 1.7 3.3 2.9 6.9 5.8 9.4a11.8 11.8 0 0 1 3.5 5.6c1 3.2 2.1 6.3 3 9.5.5 1.7.6 3.4 1.1 5.1 1.2 4.3 2.6 8.6 3.9 13 .8 2.6 1.6 5.1 2.2 7.8s.7 5.2-.9 7.5-1.7 3-2.6 4.5c-2 3.6-5 6.1-8.5 8.1s-4.8 3.1-7.1 4.7l-1.5.7-3.9 2.6-3.2 2a4.7 4.7 0 0 0-1.1.8 52.7 52.7 0 0 1-10.7 9.3 35.9 35.9 0 0 0-3.6 3.4c-2.3 2.1-4.1 4.7-7 6.1a4.6 4.6 0 0 0-.9 1 26.4 26.4 0 0 1-9.6 6 20.9 20.9 0 0 1-3.5.8h-.7c-2.4-1-4.9-.2-7.3-.7s-4.3.4-6.2 1.5a14.4 14.4 0 0 1-1.7 1.2c-3.5 1.2-5.3 4.3-7.8 6.7s-2.9 3.4-4.8 4.8-4.8 4.6-7.2 6.9a14.6 14.6 0 0 1-2.3 2c-2 1.3-3 3.5-4.8 4.9s-4 3.1-6 4.6a9.9 9.9 0 0 0-1.3.9 11 11 0 0 1-4.3 3.1c-3 1.1-5.6 3.4-9 3.2l-.7.2c-2.3 1.6-5 1.3-7.5 1.9l-8.3 1.7h-1.4l-6.5-1.3H682c-3.1 1-5.9-.1-8.7-1.2l-6.4-2.5c-1.5-.5-2.1 0-2.4 1.6s-.9 3.3-1.3 5-1.2 3.4-1.1 5.1a35.8 35.8 0 0 1-1.4 9.1c-.8 3-1.5 6-2.3 9a86.4 86.4 0 0 1-2.6 9.1c-1.9 5-2.4 10.3-4.2 15.3a102.9 102.9 0 0 0-4.1 14.8c-.9 4.5-3.1 8.4-5 12.5a52.7 52.7 0 0 0-3.9 12.2 36.1 36.1 0 0 1-2.8 9.8 18.5 18.5 0 0 0-1 3.6 7.7 7.7 0 0 1-.3 1.4 23.5 23.5 0 0 0-2.1 10.4c0 1.5 0 3-.1 4.6a1.7 1.7 0 0 0-.1.7c1.5 2.4 1.5 5.5 3.4 7.8a29.8 29.8 0 0 1 2.8 4.9c1.4 2.7 2.9 5.4 4.1 8.2a10.4 10.4 0 0 1 .9 3.9 21.4 21.4 0 0 0 1.1 6.1 7.3 7.3 0 0 1 .1 2.8c-.1 1.2-.5 2.3-.5 3.5a12.4 12.4 0 0 1-2.7 8.2 20.5 20.5 0 0 0-2.2 4.2c-1.2 2.6-.7 4.1 1.4 6.1 4.3 4.1 8.3 8.3 10.7 13.9a7.4 7.4 0 0 1 .4 1.3c1.3 6.4 2.6 12.9 4.1 19.3a29.3 29.3 0 0 0 2.2 5.9c1 2.1 2.3 4.2 3.2 6.3a18.7 18.7 0 0 1 .7 3.5c.2.8.2 1.9.7 2.4 2.4 2.3 3.7 5.3 5.6 7.8s4.4 7.6 6.4 11.6a40 40 0 0 0 3.6 5.3l2.9 3.7 5.7 7.6c.5.7.9 1.4 1.5 2.1a12.1 12.1 0 0 0 2.1 2.2 17.4 17.4 0 0 1 4.4 4.3 9.7 9.7 0 0 0 3 3 13.8 13.8 0 0 1 5.1 5.5 47.9 47.9 0 0 0 9.8 11.8c2 1.8 3.4 4.3 5 6.6a2.2 2.2 0 0 1 .2 1.8c-.8 1.5-1 3.4-2.4 4.6a2.2 2.2 0 0 0-.7.9c-.6 2.5-2.7 3.8-4.4 5.4a3.4 3.4 0 0 1-2.1.9c-3.1.1-5.3 1.9-7.5 3.6a6 6 0 0 1-.7.7c-2.9 1.6-5.9 3-8.7 4.7s-4.5 2.3-5.6 4.8a3.1 3.1 0 0 0-.2 2c1 3.2.6 6.3.4 9.5s-.8 7.7-1 11.6a10.4 10.4 0 0 0 .3 3.1 43.1 43.1 0 0 1 1.5 13.7 12.5 12.5 0 0 0 .6 4.6c1 3 .6 6 .8 9.2l7.5-2.6c1.4 1.8 2.6 3.5 3.8 5.1a5.9 5.9 0 0 1 .6 1.8 7.3 7.3 0 0 0 .3 1.4 14.7 14.7 0 0 1 1.3 8.9 2.9 2.9 0 0 0 0 1c.4 1.9.8 3.8 1.2 5.8a5.3 5.3 0 0 1 .1 1.9 6.6 6.6 0 0 0 .9 4.6 3.5 3.5 0 0 1-.5 4.4l-5.1 5.8a14.9 14.9 0 0 0 5.9 2.4c2.9.5 5.7 1.2 8.5 1.9a11.8 11.8 0 0 0 5.6.1 15.4 15.4 0 0 1 8.2.3 58 58 0 0 0 7.9 1.5 3 3 0 0 0 3-1.1c1.7-2 3.6-3.8 4.7-6.3a7.9 7.9 0 0 1 4.2-4.3 1.3 1.3 0 0 0 .6-.4c1.7-2.8 5-3.4 7.5-5.2a5.2 5.2 0 0 0 1.2-1.1c2.1-3 5.1-5.1 7.4-7.9a14.1 14.1 0 0 1 1.7-1.3l3.2-3.1a20.5 20.5 0 0 1 2.9-2.4 60.9 60.9 0 0 1 6.4-3.6c3.3-1.5 5.3-.6 6.8 2.8a27.1 27.1 0 0 1 1.7 12.1 5.9 5.9 0 0 1-2 3.7c-2.2 1.9-3.8 4.5-6.5 5.8a7.9 7.9 0 0 0-1.5 1.8c-2.3 2.4-4.5 5.1-7.4 6.9a6.9 6.9 0 0 0-1.7 2 47.5 47.5 0 0 1-9.2 9.5c-2.2 1.8-4.1 3.8-6.2 5.6l-4.8 4.1a3.9 3.9 0 0 0-1.3 1.3c-1.4 4.1-4.7 4.7-8.3 4.9a25.1 25.1 0 0 1-5.2-.5 57.4 57.4 0 0 1-7.8-1.5c-1.3-.4-2.3.1-3.4.1h-11a9.6 9.6 0 0 0-2.9.8l-3.7 1.7c-.5 2.3.8 4.4 2.6 6.4-1.2 2.4-2.7 4.3-5.2 5.4a5.2 5.2 0 0 0-2 1.3c-2 2.3-4.6 3.2-7.4 4.1l-3.6 1.3c-2.9 1.3-5.7 1.5-8.5-.1a4.9 4.9 0 0 1-1.6-1.6c-2.4-3.4-2.7-7.4-3.6-11.2a36.2 36.2 0 0 1-.5-11.1 12.2 12.2 0 0 1 1.8-4.8c1.3-2.3.6-4.5-.3-6.6a2.1 2.1 0 0 0-1.5-.9 6.5 6.5 0 0 0-2.6.2 3.4 3.4 0 0 1-2.8 0 2 2 0 0 0-1.2-.1c-4.8.9-6.8-2.6-9.1-5.7s-1.6-4.7-2.4-7.1c-.1-.3.1-.7-.1-.9-1.7-3.7-1.5-7.9-3.1-11.7s-2.1-4.9-3-7.4a34.5 34.5 0 0 1-1.1-3.9c-.3-1.2-.6-2.5-.8-3.7a5.4 5.4 0 0 1-.1-2.6c.9-2.3.3-4.5-.1-6.7s-.4-2.8-.6-4.2-.4-2.8-.8-4.2-1.1-3.1-1.4-4.8-1.5-3.1-2.5-4.6-4-5.2-5.5-8a56.9 56.9 0 0 1-3.7-9.2c-1.2-3.5-2.1-7.1-.9-11a1.5 1.5 0 0 0-2.4-1.7c-2.1 1.2-4 2.6-6 3.8l-8.4 4.8c-2.3 1.3-4.6 2.5-6.8 3.9a98 98 0 0 1-14.4 8.1l-1.2.8a9.6 9.6 0 0 1-1.9 1.3l-10.1 3.6c-1 .3-2.1.8-3.1 1l-4.4.8-10.1 1.3a45 45 0 0 1-4.8.2h-8.4a4.4 4.4 0 0 1-1.6-.2c-3.3-1.4-6.6-1.2-10-.8a77.7 77.7 0 0 1-8.3.3c-4.5.1-8.7-1.6-13.2-1.5a68.8 68.8 0 0 1-10.1-1 65.9 65.9 0 0 1-6.4-1.5l-1.6-.4c-4.2-.6-8.4-1-12.5-1.7a25.8 25.8 0 0 1-4.5-1.5c-1.8-.7-3.7-1.4-5.5-2s-2.8-.4-4.2-.8l-8-2.5-.9-.2a26.4 26.4 0 0 1-8.4-1.4 21.3 21.3 0 0 1-5-2.1 27 27 0 0 0-9.5-3.4 17.8 17.8 0 0 1-5.5-1.8c-2.4-1.3-4.4-.8-6.2.9s-2.9 2.9-4.5 4.2l-8.7 7.3a1.4 1.4 0 0 1-.6.4 3.9 3.9 0 0 0-3.6 3 .9.9 0 0 1-.4.6c-1.6.6-2.3 2.1-3.6 3l-6.4 4.8c-3.7 2.7-7.2 5.6-11.3 7.8-1.5.8-2.6 2.3-4.1 3.1-3.5 1.9-7.2 3.7-10.8 5.5a5.8 5.8 0 0 0-1.3.9 24.4 24.4 0 0 1-5 3.9 9.1 9.1 0 0 0-2 2c-1.2 1.3-2.3 2.6-3.5 3.8s-2.1 1.4-2.3 2.7c1.4 1.1 2.7 2 4 3.1s1.8 3.4.6 5.5c-2.4 4-5.6 7.4-8.5 11.1-1.4 1.7-2.9 3.4-4.1 5.2a5.1 5.1 0 0 1-3.1 2.1 7.8 7.8 0 0 0-4.6 3.8 11 11 0 0 0-1.8 3.8c-.4 1.9-2.8 3.3-4.8 3.1s-3.2-.7-4.9-.9a12.4 12.4 0 0 1-4.8-2l-8.6-4.8-1.6-.9-1.8-.6a4.2 4.2 0 0 0-.5 5.5l2.3 3.6a21 21 0 0 1 1.9 2.7c1.6 3.5 4 6.5 5.3 10.2s2.2 4.4 3.1 6.7 1.5 4.7 2.3 7a2 2 0 0 0 1.3 1.2c1.9.1 3.8.6 5.6-.5a2.3 2.3 0 0 1 1.1-.5c4 .1 7.4-2.1 11.2-2.8a126.5 126.5 0 0 1 27.5-2.1c1.7.1 3.6-.2 4.5 1.4s2.8 2 2.7 4a.6.6 0 0 0 .2.4c1.9 1.8 1.5 4.2 1.6 6.5s-1.3 4.8-3 6.7a3.2 3.2 0 0 1-2.3 1c-3.6.3-7.3.6-10.9 1.1s-4.8 1.1-7.2 1.6l-2.4.3a14 14 0 0 0-3.3.6c-2.4 1-4.9.6-7.3.9l-9.4 1.3-8.7 1-3.2.5h-13.6zm332.4-651.9a9.6 9.6 0 0 0-.7-6.1 30.5 30.5 0 0 1-2.3-5.8c-.9-3.6-3.1-6.6-4.8-9.8s-4.4-6.4-6.2-9.8-3.9-5.8-5.7-8.7a6 6 0 0 0-1.1-1.2 34.9 34.9 0 0 1-6.7-7.9c-.5-.8-1.2-1.5-1.7-2.3s-3.2-3.5-4.9-5.1-4.8-4.8-7.3-7.1a18.5 18.5 0 0 0-2.4-1.8c-1.5-1-3-1.9-4.5-3l-8.8-7.1a43.9 43.9 0 0 1-3.4-3.3 6.3 6.3 0 0 0-1.9-1.6 21.3 21.3 0 0 1-4.2-2.7c-1.8-1.4-3.6-3-5.3-4.6l-.6-.4-12.2-6.4a8.7 8.7 0 0 0-1.7-.8c-1-.3-2.2-.8-3.1.2-2.7 2.8-5.9 5.3-7.4 9.2a15.3 15.3 0 0 1-2.2 3.7 37.1 37.1 0 0 0-4.4 7.5c-1.3 3-2 6.2-3.8 8.9-.4.5-.2 1.4-.4 2.1a6.5 6.5 0 0 1-1.2 2.8c-1.8 1.6-2.6 3.7-3.8 5.7a26 26 0 0 1-1.8 2.8 50.5 50.5 0 0 0-4.9 6.6c-2.1 3.7-3.6 7.7-6.4 11a5 5 0 0 0-.5 1.1l-1.4 2.7a9.9 9.9 0 0 0-1.2 2.1 12.5 12.5 0 0 1-2.6 5c-.5.7-.8 1.5-1.3 2.3-2.3 3.4-3.7 7.2-5.9 10.7a36.2 36.2 0 0 0-4.1 7.7 30.6 30.6 0 0 1-2.5 4.9l-2.8 4.7c-1.4 2.3-2.9 4.6-4.2 6.9-.5.8-.5 1.8-1.1 2.6a39.8 39.8 0 0 0-4 6.7 81.4 81.4 0 0 1-7.2 12.5c-1.7 2.4-2.8 5.1-4.3 7.6a68.6 68.6 0 0 1-4.4 7 21.5 21.5 0 0 0-1.8 3.3 5.4 5.4 0 0 1-.8 1.4c-1.6 1.5-2.4 3.5-3.4 5.3a33.7 33.7 0 0 1-3.8 6 43.8 43.8 0 0 0-5.2 6.7 2.2 2.2 0 0 1-.7.9c-2.2 1-3.1 2.8-3.9 4.9a7.6 7.6 0 0 1-1.1 1.8c-2.5 3.5-4.9 7.1-7.6 10.4s-3.8 6.3-7 8.2a3.4 3.4 0 0 0-.6 1.2c-1.4 2.5-2.5 5-4.9 6.8a10.6 10.6 0 0 0-3.4 4.2c-1.4 3.4-3.8 5.9-6.1 8.7l-2.4 2.6c-1.7 1.7-3.5 3.2-4.7 5.3-2.1 3.8-5.6 6.4-8 9.9s-2.8 4.5-4.2 6.8a1.3 1.3 0 0 0-.2.7c.2 2.5-1.5 4.3-2.9 5.8-3.3 3.5-5.1 8-8.1 11.6l-.2.4c-.7 2.3-2.3 3.9-3.6 5.8a21.4 21.4 0 0 0-1.7 3.3c-.2.3-.1.8-.3 1.1l-3.6 6.9a20.1 20.1 0 0 0-1.4 2.5c-.8 2.1-1.3 4.3-2.1 6.5a10.3 10.3 0 0 1-1.2 2.8c-1.6 2.3-2.2 4.9-2.9 7.5s-2.9 6.1-3.9 9.3c-.5 1.6-1.7 3.1-1.9 4.8a17.4 17.4 0 0 1-2.5 6.4 56.6 56.6 0 0 0-4.2 8.9 18 18 0 0 1-1.8 4.6 40.4 40.4 0 0 0-3.8 7.9c-1.5 3.7-2.9 7.4-4.3 11.1-.8 1.9-2.4 3.6-2 5.9a.3.3 0 0 1-.1.2c-1.8 2-2.3 4.6-3.4 7s-2.5 4.6-2.7 7.3a4.1 4.1 0 0 1-.6 1.3c-.7 1.5-1.6 2.9-2.2 4.5s-1.1 3.6-1.7 5.4a3.3 3.3 0 0 1-.5.8c-2.3 3.2-4.8 6.3-6.4 10s-2.4 5.2-3.6 7.7-1.8 3.4-2.5 5.1-2.1 3.1-2.3 5.1a7.5 7.5 0 0 1-2 3.9 28.6 28.6 0 0 0-4.9 8.1c-1.9 4.1-4.9 7.5-7.1 11.3-1.1 1.9-2.7 3.6-3.8 5.5a12.4 12.4 0 0 0-2.2 4.9 5.9 5.9 0 0 1-.6 1.8c-1.3 2.7-2.6 5.4-4 8.1-.6 1.2-1.5 2.2-2.2 3.3-2 3-4.7 5.6-5.4 9.4a14 14 0 0 1-1.8 4c-1.4 2.6-2.8 5.1-4 7.8s-1 2.5-2.3 3.4a4.7 4.7 0 0 0-2.1 2.8 29.7 29.7 0 0 1-2.4 5 46.9 46.9 0 0 1-2.4 4.1c-1.1 1.6-1.2 3.7-2.6 5.2-2.8 3-4.6 6.7-6.9 10.2s-2.2 4.2-4.1 5.7a2.7 2.7 0 0 0-.9 1.6 32.1 32.1 0 0 0-.3 4.5c0 1.8 2.2 4.7 3.9 5.3l3.7 1a48.2 48.2 0 0 1 9.3 2.6l7 3c2.4 1 4.9 1.7 6.9 3.6a5.6 5.6 0 0 0 1.9.9l6.6 2.5c2.9 1.1 5.7 2.4 8.7 3.3a30.4 30.4 0 0 1 7.9 3.2 126.6 126.6 0 0 0 15.9 7.9 116 116 0 0 1 11.1 5.3c3 1.7 5.7 3.9 9.1 4.8s6.3 2.9 9.9 3.3c1.3.2 2.6 1.2 3.8 1.9 3.2 1.7 6.3 3.9 9.6 5s5.7 3.6 8.6 5.4c1.2.7 2.3 1.7 3.5 2.3s3.9 2.4 6 3.3c4.1 1.8 8.6 2.8 12.4 5.2l.9.3a41.8 41.8 0 0 1 12.5 4.1c1.9 1 3.9 1.9 5.9 2.8s4.4 1.3 6.1 2.6c3.7 2.7 8.2 3.1 12.2 5a10.8 10.8 0 0 0 1.2.1c1.9.6 3.9.3 5.7 1.4a62.1 62.1 0 0 0 6.4 3.1 5.7 5.7 0 0 0 3.7.5 5.4 5.4 0 0 1 2.6.1l8.9 3.1a21 21 0 0 0 3.9 1.1c1.9.3 4-.4 5.6 1.3 3.2.5 6 2.5 9.5 2a4.6 4.6 0 0 1 1.6.3l7.1 1.6c1.9.4 3.8.3 5.6.9a34.3 34.3 0 0 0 12.5 1.4 29.3 29.3 0 0 1 6.7.4c2.5.4 4.9 1.8 7.6.6a2.2 2.2 0 0 1 1 0c4.2.2 8.4-.1 12.6 0 2.5.1 5 1.5 7.5 0a1.8 1.8 0 0 1 .9.1 16 16 0 0 0 3 .4c2.5-.1 5-.2 7.5-.1a74.5 74.5 0 0 0 9.3-.6 2.9 2.9 0 0 0 1.1-.4 19.2 19.2 0 0 1 7.3-2 6.7 6.7 0 0 0 2.5-.6c2.7-1.5 5.8-2.2 8.1-4.4a5.3 5.3 0 0 1 1.3-.6l11-5.6.2-.2c3.2-2 6.4-4 9.6-5.9s8.8-5.9 13.8-7.9c3-1.2 6-2.6 9-3.8a8.8 8.8 0 0 1 3-.6l15.1-.2a10.1 10.1 0 0 1 2.3.5c3.8.9 7.5 2 11.4 1l3.7-1a31.1 31.1 0 0 0 5.8-1.9c3.5-1.9 7.2-3.4 10.4-5.8 1.5-1.1 3.2-1.8 4.6-3a60.9 60.9 0 0 1 8.6-6.3c2.5-1.5 4-4.5 2.2-7a63.3 63.3 0 0 0-4.2-4.8c-2.6-2.9-5.4-5.5-7.6-8.6s-4.7-4.9-6.7-7.6-3.8-2.9-4.3-5.5a1.1 1.1 0 0 0-.6-.7 8.3 8.3 0 0 1-3.2-3c-1.5-2-3.2-3.7-4.7-5.7a36.5 36.5 0 0 1-2.3-3.9c-1-1.8-1.8-3.8-3.2-5.3s-3.7-3.7-4.5-6.3a3.1 3.1 0 0 0-.8-1.1 23.2 23.2 0 0 1-4.6-6.3c-.6-1.2-1-2.7-1.9-3.4a12.8 12.8 0 0 1-4-6.3c-1.2-3.5-3.2-6.7-4.3-10.2-.4-1.4-1-2.8-1.6-4.2l-1.1-2.9c-.9-2.3-1.8-4.5-2.7-6.8s-.3-4.6-1.7-6.8-1-4.2-1.6-6.3-1-3.9-2.1-5.2-2.9-4.9-5.3-6.7-2.7-2.7-4.1-3.9-2.8-3.2-1.8-5.7a108.8 108.8 0 0 1 4.8-10.3 11.2 11.2 0 0 0 1.6-5.2 36.7 36.7 0 0 0-.9-9.2c-.2-1.1-.5-2.2-.8-3.2a18.1 18.1 0 0 0-.8-2.4c-.3-.6-.7-1.1-1-1.6l-5.6-10.4a20 20 0 0 1-1.7-2.9c-1.2-3.7-2.5-7.4-1.9-11.4.2-1.1.3-2.2.5-3.3.7-3.2.8-6.4 2.1-9.5a52.5 52.5 0 0 0 1.7-5.4 48.8 48.8 0 0 1 2.4-7.1 30.8 30.8 0 0 0 1.9-5.8c.9-3.2 1.8-6.4 3.8-9.1a4.9 4.9 0 0 0 .8-1.9c.5-2.4 1.8-4.6 1.8-7.1a2 2 0 0 1 .6-1.3c2.8-2.7 1.9-7 4.2-9.9a1.4 1.4 0 0 0 .1-.9c-.3-2.2.6-4 1.4-5.9a7.4 7.4 0 0 0 .8-2.9c0-3.2 0-6.3 1.3-9.3a13.2 13.2 0 0 0 .4-1.3l3.2-10.4a46.4 46.4 0 0 1 2-6.5 24.1 24.1 0 0 0 2-7.5c.4-3.1.6-6.2 3-8.6a1.7 1.7 0 0 0 .4-1.1c0-3 1.3-6 .1-9.1a4.8 4.8 0 0 0-1.6-2.6l-4.8-3.4a8.5 8.5 0 0 1-.9-1 16.5 16.5 0 0 0-2.3-2.3c-1.8-1.2-3.7-2.1-5.4-3.4-3.5-2.6-7-5.3-10.5-7.9a84.2 84.2 0 0 1-6.9-5 50.8 50.8 0 0 0-6-5.2 45.3 45.3 0 0 1-7.2-5.3c-2.8-2.8-6.3-4.7-9.3-7.3a123.8 123.8 0 0 0-11.7-8.9c-2.2-1.5-4.3-2.7-7-2.8s-3.3-1-5-1.2a10.6 10.6 0 0 0-4.4.2 28.6 28.6 0 0 0-4.6 2.4l-14.9 7.9a40.3 40.3 0 0 1-4.1 2.4 46.5 46.5 0 0 0-9.6 5 73.1 73.1 0 0 1-8.2 5.2c-4.3 2.2-8.2 5.1-12.5 7.3-2.2 1.2-4.4 2.5-6.7 3.5s-6 2.7-9.1 3.7a66.6 66.6 0 0 0-6.5 2.1h-.9c-2.3 0-4.1 1.4-6.1 2.3a4.9 4.9 0 0 1-3.9.5 3.3 3.3 0 0 0-2.5.1l-3.7 1.3c-2.2-1.9-2.2-2.5.3-3.6l1.1-.5 18.7-6.1a63.2 63.2 0 0 0 6.9-2.4c3.5-1.6 6.9-3.5 10.3-5.4l2.4-1.5 4.3-2.5 6.3-3.8c3.3-2 6.5-4.2 9.9-6.1s6-2.8 9.1-4.1c1.3-.6 2.6-1.1 3.8-1.8 3.8-2.2 7.5-4.4 11.2-6.7 1.4-.9 3.3-1.2 4.1-2.9l-8.2-6c-1.9 1.1-3.9 2.1-4.2 4.7a2.4 2.4 0 0 1-2 1.8c-1.2.4-2.8.4-3.5 1.2s-4.9 3.3-7 5.2a11.6 11.6 0 0 1-1.2 1.1c-2.3 1.6-4.9 2.6-7.2 4.5s-6.4 3-9.7 4.4a56.4 56.4 0 0 0-6.1 2.5c-3.2 1.7-6.4 2.7-10.1 1.9-1.3-.3-1.6-1.3-.7-2.2a4.5 4.5 0 0 1 1.3-1l8.6-4 3.1-1.7a.9.9 0 0 0 .1-1.6l-1.8.5-.2-.5 4.4-2a18 18 0 0 0 2.6-1.2c1.6-1.1 3.2-2.1 5.2-2.2a3.4 3.4 0 0 0 1.5-.7l3.5-2.3c-.3-1.7 1-2.4 2.4-2.9a16.2 16.2 0 0 0 7.2-5.5c1.2-1.4 2.2-2.8 4.2-3.4a3.8 3.8 0 0 0 1.7-5.7l-1-1.4c-1.8-2.8-3.7-5.5-5.4-8.4a57.1 57.1 0 0 1-2.6-5.2 16.7 16.7 0 0 1-1-2.6 54.9 54.9 0 0 0-1.4-5.5 20.1 20.1 0 0 1-1.2-7.7c0-1.6.1-3.2 0-4.8s-.4-2-.5-3-.5-1.8-.1-2.3c1.4-2 1.6-4.2 1.9-6.5a27.6 27.6 0 0 1 1.4-5c.5-1.6-.4-3.4.9-4.9s2.2-5.4 1.4-8.4c.9-1.8 1.7-3.6 2.7-5.3a39.8 39.8 0 0 1 2.6-4c.9-1.2 1.9-2.3 2.8-3.4a12.1 12.1 0 0 0 1.8-2.1c1.5-3.1 3.2-5.9 6.4-7.6a3.1 3.1 0 0 0 1.1-.9c2.8-4.2 7.2-6.5 10.9-9.8 1.1-1 2.4-1.8 3.5-2.9a13.8 13.8 0 0 1 6-3.2c1.6-.5 3.4-.7 5.1-1s3.4-.3 5-.7a65.7 65.7 0 0 1 8.4-1.1l5-.4 1.9.2c2.7.7 5.4 1.3 8 2.1s4 .8 6 2 6.3 4.3 10 5.4l.4.2c3.4 3.2 7.7 5.3 10.9 8.8a36.8 36.8 0 0 0 2.5 2.7zm4.3 53.5l-.2-.5a15.4 15.4 0 0 0-2.1.8l-6.4 3.6-3.8 2-3.7 1.7-6.7 2.8c-3.7 1.7-7.3 3.4-11.4 3.9a22.4 22.4 0 0 1-7.6-.4 4.5 4.5 0 0 1-3.4-3.1c-.3-1-.6-2.3.4-3.1a26.5 26.5 0 0 1 5-3.2c2.9-1.3 6-2.4 9.1-3.5a27.1 27.1 0 0 1 4.6-1.3 31.1 31.1 0 0 0 9.2-3c2.4-1.3 5.2-1.9 7.7-2.9a17 17 0 0 0 5.1-2.8 51.4 51.4 0 0 1 5.4-4.1l4.3-3.3a11.4 11.4 0 0 0-1.8-.6 16.5 16.5 0 0 1-6.2-2.7 4.4 4.4 0 0 1-2.1-3 30.3 30.3 0 0 1-.8-8.2 19 19 0 0 0-.9-6.1c-1.1-4.2-3.6-7.7-6.3-11.1a26.4 26.4 0 0 0-6.8-6.4 45.3 45.3 0 0 1-3.7-2.9l-5.4-3.9c-1.9-1.3-4-2.1-5.5-4a3.4 3.4 0 0 0-1.9-.9l-5.1-1-6.3-1.8a8.9 8.9 0 0 0-3.9 0c-3.2.3-6.4 1.2-9.7 1.2a21 21 0 0 0-6 1.2 13 13 0 0 0-4.1 1.9c-1.6 1.2-3 2.8-4.5 4.1a12.5 12.5 0 0 1-2.4 1.6 9.8 9.8 0 0 0-3.5 2.8 4.7 4.7 0 0 1-2.3 1.5 4.7 4.7 0 0 0-2.3 1.5c-.8 1-1.9 1.7-2.8 2.6a29.2 29.2 0 0 0-3.6 4.4c-1.4 2.4-2.5 5.1-3.8 7.6a41.6 41.6 0 0 1-2.5 5.1 11.8 11.8 0 0 0-1.8 5c-.3 2-.5 4.1-.8 6.1l-1.5 10.8a4.8 4.8 0 0 1-.2 1.6c-.7 1.2-.3 2.5-.1 3.7a8 8 0 0 1 .2 1.1c-.1 2.1-.4 4.3-.3 6.4a14.9 14.9 0 0 0 .8 3.7c.6 2.2 1.3 4.4 2 6.5a11.8 11.8 0 0 0 .9 2.6c1.8 3 3.7 5.8 5.5 8.8s1.6 3.2 2.4 4.8a13.5 13.5 0 0 0 1.5 2.4c1 1.2 2.3 2.2 3.2 3.5a18 18 0 0 0 6.5 5.8 3.9 3.9 0 0 1 1.2 1.1 11.7 11.7 0 0 0 5.4 3.8 46.9 46.9 0 0 1 5.4 1.8 7.7 7.7 0 0 0 3.8 1 15.9 15.9 0 0 1 8 1.7l5 2.8a19.4 19.4 0 0 1 7.5 6.4l.7.6a70.7 70.7 0 0 0 6 3.9c2.2 1.2 3.1 3.7 5.4 4.9s3.5 2.7 5.2 4a25.6 25.6 0 0 1 4.6 4.4c2.1 2.7 4.4 5.4 8.2 6.1a6.3 6.3 0 0 1 1.7.8c2.2 1.2 3.9 3.2 6.5 3.9.4.1.7 1 1 1.5s.8 1.7 1.4 2.1 3.4 1.5 5.1 2.4a5.3 5.3 0 0 1 1.8 1.4 16.9 16.9 0 0 0 6.4 5.3 24 24 0 0 1 2.8 1.7c1.4.9 2.8 1.8 4.3 2.6l7 3.4c2.4 1.1 4.8 2 7.3 2.9a11.3 11.3 0 0 0 3.9.9c3.9-.1 7.8.7 11.7.1 2.3-.4 4.8-.3 7-1.1a54.9 54.9 0 0 0 8.7-4.3 42.2 42.2 0 0 0 8-6.6c2-1.9 4.2-3.6 6.1-5.6s5-4.6 7.4-7l9.2-8.8a14.2 14.2 0 0 1 3.3-2.6 33.8 33.8 0 0 0 8.3-5.8 6.8 6.8 0 0 0 1.8-2.2c.8-1.9 1.6-3.6 3.8-4.2a1.1 1.1 0 0 0 .2-.5c-2.6-1.6-3.8-4.1-4.4-6.9a28.8 28.8 0 0 0-3.5-8.5l-5.1-8.6c-1.6-2.7-3.2-5.5-4.9-8.1s-2.8-3.8-4.2-5.8a25.7 25.7 0 0 1-3-4.5 29 29 0 0 0-3.9-7.2c-1-1.2-1.8-2.6-2.7-3.9a6 6 0 0 0-.9-1.4c-1.9-1.5-2.8-3.6-4.1-5.5s-4.2-5.9-6.5-8.8c-.9-1.1-2-1.3-2.6-.5-2 2.6-5.3 3.3-7.7 5.3a3.6 3.6 0 0 1-2 .6c-3.8.2-7.1 1.9-10.6 3.2-1.6.6-2.4 2.1-.9 3.6l4.3 4.4a4.3 4.3 0 0 1 1.3 1.9c.4 2.5 1.6 4.7 1.4 7.4s0 2.8 0 4.2.2 5-.1 7.6a79.2 79.2 0 0 0 0 8.8 10.5 10.5 0 0 1-.2 2.1c-.2 1.1-.6 2.1-.8 3.2s0 1.3-.2 1.9q-1.6 5.6-3.2 11.1c-.4 1.4-.9 2.8-1.4 4.3l-1.5 4.5a6.4 6.4 0 0 0-.3 1.1c-.5 3.5-3 5.5-5.7 7.2a3.4 3.4 0 0 1-3.4-.2 1.4 1.4 0 0 1-.5-2.4 11 11 0 0 1 2.3-2.4 4.2 4.2 0 0 0 1.7-2.5c.3-1 .6-2.4 1.3-3a6.1 6.1 0 0 0 2-3.6 16.6 16.6 0 0 1 1.7-3.9 10.5 10.5 0 0 0 1.5-6.1 8.8 8.8 0 0 1 .4-2.1c.3-1.7 1.5-3.3.6-5.2a3.7 3.7 0 0 1 .3-1.6 14.9 14.9 0 0 0 .3-2.8c-.2-3.1-.4-6.1-.7-9.2a9.4 9.4 0 0 0-.7-1.9 13.7 13.7 0 0 0-3 4.9c-.9 2.2-1 4.7-3.1 6.3a1.2 1.2 0 0 0-.3.6 32.4 32.4 0 0 1-2.9 7.3c-1.2 2.4-2.2 5-3.8 7.1a64 64 0 0 1-10.7 10.4 5.5 5.5 0 0 1-5.2.9 3.7 3.7 0 0 1-1.7-1.8c-.4-.8.2-1.3.8-1.8s3.3-2.9 4.9-4.4 4.2-5.2 6.2-7.8 3.9-7.2 5.4-11 2.6-6.8 4.1-10.1a15.7 15.7 0 0 0 .8-10.9 50.9 50.9 0 0 1-1.6-5 21.6 21.6 0 0 0-1-4.1c-.5-1.2-1.6-1.8-2.1-2.8-1.3-2.5-2.3-5.2-3.4-7.8s-.9-2.5-1.4-3.8a2.3 2.3 0 0 0-2.6-1.6h-1.4c-1.6.2-2.9.6-3.7 2.4s-2 3.5-3.5 4-3.1 2.8-3.4 4.7a8.5 8.5 0 0 1-2.3 4.9 24.8 24.8 0 0 0-3.8 4.8 3.2 3.2 0 0 1-1.2 1.1 52.8 52.8 0 0 1-6.1 3.3 6.6 6.6 0 0 0-3.7 3.2 9.2 9.2 0 0 1-3.7 3.6 4.6 4.6 0 0 0-.9.4l-7 7.1a15.7 15.7 0 0 1-1.9 1.8c-1.8 1.3-4.1 1.9-5.5 3.6l-.6.3-8.6 1.7h-1.2a2 2 0 0 1-1.6-3.1c2-3.2 3.8-6.4 6.8-8.8 1.3-1.1 2.5-2.2 3.7-3.4l2.5-2.2 4.7-4.1c1.9-1.7 3.5-3.7 5.6-5.1a30.8 30.8 0 0 0 6.8-6.2 6 6 0 0 1 3-2.2 4 4 0 0 0 2.9-3.2 9 9 0 0 1 .6-1.1zm-35.8-254.3a46.7 46.7 0 0 0 2.1 5.5 29.5 29.5 0 0 1 3.4 8.3c.5 2.6 1.9 5 1.8 7.8a9.9 9.9 0 0 0 .6 2.5c.4 1.7.7 3.4 1.2 5s0 2.8-.1 4.2-.2 5.4-.3 8 .8 3.9 2.9 4.6a24.3 24.3 0 0 1 8.1 4.5c2 1.7 4.4 2.5 6.6 3.7l5.3 2.6 3.8 2a18.9 18.9 0 0 1 3.3 1.8 26.3 26.3 0 0 0 6.6 3.6 40.2 40.2 0 0 1 4.5 2.6 16.2 16.2 0 0 0 2.2 1.3c2.9 1.1 5.8 2.2 8.3 4.1a5.5 5.5 0 0 0 1.4.8 2.1 2.1 0 0 0 2.9-1.5 16.1 16.1 0 0 1 .9-2.2l4.4-8.9a46.3 46.3 0 0 1 3.1-5.6 8.9 8.9 0 0 1 2.9-2.4c1.1-.6 2.1-.2 2.9.9s1 3.6-1.1 5.2a4.7 4.7 0 0 0-1.9 4.8 6.7 6.7 0 0 1-1.2 4.5c-.7 1.1-1.6 2.2-2.3 3.3s-2.4 3.3-2.5 5.4c2.7 1.7 3.6 1.4 4.4-1.3s1.1-3.8 1.8-5.6 2.8-4.5 6.6-4.4c1.9 0 2.7 1.5 1.8 3.3l-2.8 5a2.3 2.3 0 0 1-1 1c-1.6.6-1.9 2-2 3.5s0 2.2 0 3.4l6 2.8a2.3 2.3 0 0 0 1.3.1l10.2-2.1a10.4 10.4 0 0 0 2.8-.6c2.6-1.4 5.1-2.8 7.5-4.4s4.3-2.7 4.6-5.4.1-3.3.2-5a21.4 21.4 0 0 1 5.3-13.5c2.2-2.5 4.7-4.7 7.1-7a4.6 4.6 0 0 1 1.6-1c3.5-1.2 6.8-2.8 10.8-2.7 1.9.1 4.3-.2 5.4-2.7a3.6 3.6 0 0 1 2.1-1.4c1.8-.6 3.6-1 5.7-1.6l-.8-.4c-2.7-.4-3-.6-3-3.2s-.4-7.3.7-10.9a1 1 0 0 0-.1-.5c-1.7-1-3.3-1.9-4.7-2.9a29.7 29.7 0 0 0-7.7-3.4 37.3 37.3 0 0 1-7-3 31.7 31.7 0 0 0-5.4-2.3l-1.3-.5c-3-1.4-5.5-4.1-9.2-4.1h-.1l-14.2-4.9c-2.1-.7-4.1-1.8-6.2-2.7a5 5 0 0 0-2-.5 8.7 8.7 0 0 1-4.9-1.5 6.6 6.6 0 0 0-1.5-.7 63.9 63.9 0 0 0-8.5-2 3.9 3.9 0 0 1-3.4-3.1 82.6 82.6 0 0 0-2.6-8.9c-1.3-3.6-2.8-7.1-6-9.5l-3.4-2.5c-2.1-1.5-4.1-1.5-5.9.3s-6.1 5.8-8.1 9.6-3.3 6.7-2.6 10.6a1.7 1.7 0 0 1 0 .5c-.2 1.7-.3 3.4-.6 5.2s.9 3.5 1.1 5.2a18.8 18.8 0 0 0 1.9 6.3 31.2 31.2 0 0 1 1.7 3.9 11.3 11.3 0 0 0 4 6 6.1 6.1 0 0 1 1.9 2.7 17.9 17.9 0 0 0 3.3 5.1c.7.9 1.3 1.9 2.1 3-1.8.9-3.3 2-4.9 2.3s-2.1-.9-3.1-1.5l-1.3-.6a5.8 5.8 0 0 1-1.3-1l-2.1-2.5c-1.7-2.3-3.3-4.6-5.1-6.8s-1.4-3.3-2.1-5c-1.4-3.5-3.9-6.7-3.7-11.2a16.7 16.7 0 0 0-5.8 5.6 3.6 3.6 0 0 1-2.4 1.9c-2.6.7-4.4-.4-5.9-2.5a6.3 6.3 0 0 0-6.9-2.5 2.6 2.6 0 0 1-3-.8l-2.4-2.7-1.3.4-1.2.4c-1.7-2.8-2-2.9-4.2-1.2zm156.8-63.9l.5-.4c1.7-4.9 3.5-9.8 5.1-14.7.8-2.2 1.1-4.6 2-6.8s1.8-7.3 2.3-11.1c.1-1.1.5-2.2.6-3.3s1.3-4.1.4-6.3-1.1-3.9-1.6-5.9-1.6-6.8-3.5-9.8c-.6-.9-1.1-1.9-1.8-2.8a35.9 35.9 0 0 1-3.4-4.6 16.8 16.8 0 0 0-3.8-5l-3.8-3.6a16.2 16.2 0 0 0-1.5-1.5l-9.6-6.9a7.5 7.5 0 0 0-1.5-.7l-5.3-2.2c-1.4-.6-2.7-1.5-4.1-1.7a11.5 11.5 0 0 1-4.8-1.7l-1.1-.5c-2.9-.9-6-1.2-8.6-3l-1.1-.4a17.6 17.6 0 0 1-4.1-1.1c-3-1.7-6.5-.9-9.6-2.1a26.6 26.6 0 0 0-5.1-1.1 6.3 6.3 0 0 0-2.5 0 6.1 6.1 0 0 1-3.7 0 13.4 13.4 0 0 0-4.2-.7 31.6 31.6 0 0 0-10.9 2c-2.5.9-5.1 1.5-7.7 2.3s-3 .7-4.2 2a16.4 16.4 0 0 1-3.3 2.7c-1.6 1.1-3.4 2-4.9 3.2a29 29 0 0 0-7.5 8.5 4.5 4.5 0 0 1-.8 1.2 18.6 18.6 0 0 0-4.5 7.1 11.4 11.4 0 0 1-2.6 4.2 12.1 12.1 0 0 0-2.6 3.6 8 8 0 0 1-3.6 3.8c-1.3.8-1.9 2-2.5 3.5a26.1 26.1 0 0 0 2.6 1.2c2.5.9 5.1 1.7 7.7 2.4l8.9 2.2a70.3 70.3 0 0 1 12.6 4.3 116.1 116.1 0 0 0 13.5 4.8 51.3 51.3 0 0 1 11.1 5.2 16.2 16.2 0 0 0 3.9 2.1 14.1 14.1 0 0 1 6.9 4 5.9 5.9 0 0 0 1.5 1.2c2.4 1.2 5 2.1 7.2 3.6a57.5 57.5 0 0 0 5.7 3.3l9.8 4.7a43.1 43.1 0 0 0 5.8 2.1l8.3 2.1a42.7 42.7 0 0 1 5 1.5 25.3 25.3 0 0 1 5 2.5 40 40 0 0 0 8.9 4.8l3 1.2zM713.9 491c1.1.5 1.7.1 1.9-1.1a1.8 1.8 0 0 1 1.7-1.7c2.4-.2 4.9-.2 6.7 1.7s5.9 6.7 8.6 10.1c1.6 1.9 2.8 4.2 4.2 6.2l2.5 3.7a25.9 25.9 0 0 0 2.6 3.4 6.5 6.5 0 0 1 1.6 2.6 37.7 37.7 0 0 0 4.5 9.3l2.6 4 4.9 7.8 2.1 3.4 3.8 6.7.4.3c1.6 1.2 2.2 2.9 2.7 4.6s1.4 5.8 2.5 8.6a5 5 0 0 1-1.1 5.6 1.9 1.9 0 0 0-.5 1.6 5.3 5.3 0 0 1 .5 3.2 1.4 1.4 0 0 0 1.6 1.6 6 6 0 0 0 2.1-.3l6.7-3a2 2 0 0 0 .9-.7 7.1 7.1 0 0 1 3.2-2.7 2.4 2.4 0 0 0 1.2-1.1c.4-1.4 1.5-1.9 2.6-2.6a25.7 25.7 0 0 0 3.2-2.5c1.7-1.5 3.1-3.3 4.9-4.7 4.6-3.6 9-7.5 14.1-10.5l.4-.3c3.3-3.8 7.9-5.8 11.9-8.7s5.3-5 6-9c.3-2.1.7-4.1-.1-6.3a22.9 22.9 0 0 1-.6-4 21.1 21.1 0 0 0-.9-4.2 21 21 0 0 1-1.2-4.6 20.6 20.6 0 0 0-1.3-3.8c-.4-1-.8-1.9-1.1-2.9-1-3.3-1.7-6.6-2.8-9.8a41.2 41.2 0 0 0-3-7.4c-1.1-1.9-2.8-3.5-3.6-5.6a38 38 0 0 0-2.9-5.9c-1.2-2-2.4-4.1-3.5-6.1l-2.2-3.9c-.7-1.2-1.3-2.5-2.1-3.7-2.2-3-4.4-6.1-6.6-9a15.6 15.6 0 0 0-2.6-2.4c-.8-.6-1.7-1.1-2.5-1.8s-4.4-3.9-7.6-4a3.1 3.1 0 0 1-1.5-1.2 2.4 2.4 0 0 0-2.7-.9 8.9 8.9 0 0 0-3.2 1.9c-2.4 1.9-5.3 3.5-7.2 5.9s-6.4 6.6-9.6 9.9a48 48 0 0 1-4.7 3.7c-2.5 2-4.8 4.1-8.1 4.6l-.6.3c-.9 1.1-2.1 1.3-3.4 1.5a23.9 23.9 0 0 0-6.2 2.3 4 4 0 0 1-1.1.5c-3.4.6-5.4 3.3-7.9 5.1s-1.6 2.4-3 2.9a3.3 3.3 0 0 0-.7.9l-1.8 1.8a9.2 9.2 0 0 0-3 4.1c-.7 2.3-1.2 4.3-1.7 6.6zm-65.4-308.5a4.9 4.9 0 0 1 .1 1 4.2 4.2 0 0 0 1.5 3.9 6.9 6.9 0 0 0 3.8.9 62.7 62.7 0 0 0 6.6-.7c3-.4 4.5.8 4.7 3.9a3.3 3.3 0 0 0 1.6 3l2.1 1.3c1.6-.3 2.8-.6 4.1-.8a11 11 0 0 0 3.7-.7c1.7-.8 2.9-.2 3.8 1.6a15.3 15.3 0 0 1 1.4 3.8 4.2 4.2 0 0 0 3.5 3.5 8.9 8.9 0 0 0 3.8.1 6.1 6.1 0 0 1 3.7.5 6.5 6.5 0 0 1 2.9 2.3c.4.6 0 1.8-.3 2.7s.3 3.2 1.5 4.4 1.8 1.2 2.6 1.8 2.6 2 2.1 4.1-.6 4.4-1.9 6.3a2.1 2.1 0 0 0-.5 1.3c.4 2.6-.8 4.8-1.6 7.1a2.7 2.7 0 0 0 0 1.6c.3 1 .7 1.9 1.1 2.9l2.8 1a38.2 38.2 0 0 0 4.7 2.2 50.6 50.6 0 0 0 5.4.8 5.1 5.1 0 0 1 1.9.9c3.6 2.5 7.9 3.1 11.9 4.6s5.7 1.5 8.4 2.5c4.6 1.5 8.5 4.5 13.1 6 3.1 1 5.9 2.7 8.9 4l6.5 2.8c1.4.6 1.6.4 2.3-1a68.1 68.1 0 0 1 4-7.8c2.1-3.2 4.2-6.6 7.6-8.2a8.3 8.3 0 0 1 0-2.7c.9-2.4 2.1-4.6 2.8-7a8.9 8.9 0 0 0 .2-5.8 5.3 5.3 0 0 1-.4-2c0-1.1.3-2.2.4-3.3a45 45 0 0 0-.8-10.7 3.4 3.4 0 0 0-.5-1.7 9.8 9.8 0 0 0-2.7-1.8 2 2 0 0 0-1.8.2c-1.1 1.6-2.9 2.6-3.9 4.4s-3.1 5.7-6.7 6.5a2.1 2.1 0 0 0-.8.8 7.6 7.6 0 0 1-1 1.3 5.1 5.1 0 0 1-1.4.5 4.9 4.9 0 0 1 .1-1.4c.6-1.5 1.3-3 1.9-4.5a47.1 47.1 0 0 1 2-4.3c.8-1.4 1.9-2.7 2.8-4.1s.6-3.8-2.1-4a3.7 3.7 0 0 0-2.8.9c-1.4 1.1-2.9 2.5-4.9 1.7s.6-3.3 1.7-4.5a6.5 6.5 0 0 0-4.3-3.7c-2.4-.6-4.8-1.4-7.2-2.2l-2.3-.8a2 2 0 0 1-1-.5c-1.1-1.8-2.8-1.9-4.6-2s-1.7-.4-2.6-.5c-3.9-.2-7.2-3-11.3-2.5h-.4l-7.1-2.5-1.7-.8-4.9-2.4a26.7 26.7 0 0 1-5.2-2.8 13.5 13.5 0 0 0-4.6-2.4 29.3 29.3 0 0 1-3.8-1.1c-3.4-1.7-6.7-3.5-10-5.3-1.5-.8-2.8-2.2-4.4-2.8s-5.2-1.8-7.8-2.6a1.4 1.4 0 0 1-.7-.2c-1.2-1.7-3.2-2.3-4.9-3.2s-4.7-3.1-7.6-3.6a42.2 42.2 0 0 0-5.1-1c-3-.2-5.5-2.5-8.7-2.2a1.7 1.7 0 0 1-1.1-.4c-1.5-1.2-3.3-1.5-5-2.2l-11.7-4.6-4.2 1.2c-.7.2-1.6.2-1.9.7s-1.7 2.6-1.6 3.8a4.5 4.5 0 0 1-1 3.2 5 5 0 0 0-.8 1.4 18.5 18.5 0 0 1-3.7 7.4 1.9 1.9 0 0 0-.2 2.6 3.8 3.8 0 0 1 .4 3.6c-.1.4-.2.9-.3 1.4a3.1 3.1 0 0 0 3.1.1l4.3-2c2.1-.9 4.3-1.6 6.7-.7a5 5 0 0 1 2.7 1.8c.7 1-.2 1.8-.4 2.7a6.4 6.4 0 0 0-.2 1.2 8.1 8.1 0 0 0-.1 2.1c.3 1.2 1.9 2.1 3.5 1.7a29.7 29.7 0 0 0 5-1.6c2.5-1.7 4.5-2 6.8-.4zm35 209.3l1.9-.5c2.1-.8 4.3-1.7 6.3-2.6a4.8 4.8 0 0 0 2.6-2.6c1.4-3.7 3.1-7.2 4.5-10.9a88.7 88.7 0 0 1 4.8-9.5l2.6-4.8c.9-1.7 1.8-3.3 2.6-5a11.8 11.8 0 0 0 1.5-4.7 1.8 1.8 0 0 0-1.1-2.1 8.3 8.3 0 0 1-4-2.8 4 4 0 0 0-1.3-1 83.4 83.4 0 0 1-11.2-7 19.2 19.2 0 0 0-2.7-1.4l-5-2.5-6.1-2.6a51 51 0 0 1-4.9-2.5l-7-4.4-5.6-3.1c-3.6-2.1-6.5-5.4-10.9-6l-.4-.2c-2.2-1.9-4.9-2.7-7.5-3.8-5-2.1-10-4-14-7.7a5.3 5.3 0 0 0-2.1-1c-2.7-.8-5.3-1.6-7.4-3.5a16.9 16.9 0 0 0-5.8-3.5 4.2 4.2 0 0 1-1.2-.8l-4-3.3c-1.4-1.2-2.3-1-3.8 0a7.2 7.2 0 0 0-2.8 4.7 8.9 8.9 0 0 1-2 4.2 8 8 0 0 0-1.5 2.2c-1.1 2.3-2.4 4.6-3.7 6.9a1.9 1.9 0 0 0 .4 2.5l7.7 7.4c5.1 4.8 9 10.6 14.4 15.2 2.3 1.9 4.1 4.3 6.9 5.8a13.3 13.3 0 0 1 4.7 4.3c1.1 1.7 2.6 3 3.7 4.6s1.4 1.7 2.1 2.6l6.3 9.5.9 1.1a29.5 29.5 0 0 1 4.9 6.1 10.7 10.7 0 0 0 3.6 4.1 35.2 35.2 0 0 1 2.9 2.5 19.5 19.5 0 0 0 2.2 1.4l4.1 2.4a21.5 21.5 0 0 0 2.5 1.7c2 .9 4.1 1.6 6.2 2.3l.8.5a29.4 29.4 0 0 0 6 3.8c2.5 1.1 4.9 2.5 7.4 3.7zm124.7 66h.2l1-1c2.1-2 4.4-3.2 7.4-2.8a18.2 18.2 0 0 0 4.3-.3l3-.6c2.7-.7 5.5-1.1 7.9-2.4 4.5-2.3 8.8-5 13.1-7.6a3.5 3.5 0 0 0 1.5-1.1c.8-1.8 2.5-2.4 4.1-3.3l3.6-1.8a14.9 14.9 0 0 0 4.9-4.7c1.3-1.7 2.6-1.8 3.9-.1a21.4 21.4 0 0 1 2.6 4.7c1.2 2.7 2.2 5.6 3.3 8.3s.3 4.8-1.4 6-2.2.8-3.2 1.4-3.7.6-5.6.7a2.1 2.1 0 0 1-2.1-1.7c-.3-.9.4-1.5 1-2l1.2-.8a1.9 1.9 0 0 0 .8-2.6l-1.7-3.6c-.6-1.3-1-1.4-2.1-.7a4.7 4.7 0 0 0-2.1 3.8c-.1.8-.2 1.6-.3 2.3-.3 2.4-.6 4.7-.8 7.1a2.7 2.7 0 0 0 1.6 3c2.1.8 4.2 1.2 6.4 1.8h.5l6-1.3c1-.3 2-1.1 3-1.2s4.4-.5 6.6-.7a4 4 0 0 0 3.7-3.8c0-2.1-.3-4.3-.2-6.4s-.1-3.8-1.6-5.3-3.5-6.3-4.3-9.8-1.3-5.3-1.8-8.1a20.1 20.1 0 0 1-.2-7.7c.2-1.2.7-2.1 2-2.4a3.3 3.3 0 0 1 3.5 1.5 16.4 16.4 0 0 1 2.3 5.9 42 42 0 0 0 1.1 5.1 48.7 48.7 0 0 1 1.4 4.8 10.7 10.7 0 0 0 2.2 4.9c1.4 1.9 2.8 3.9 3 6.4s1 1.9 2.5 1.3l.9-.4a5.7 5.7 0 0 0 3.4-7.8 48.3 48.3 0 0 0-5.6-10.6c-.8-1.1-1.8-2.1-2.7-3.2s-2.9-4-4.1-6.1a27 27 0 0 1-2.6-5.6 49.1 49.1 0 0 1-1.4-6.9c-.3-1.8.3-2.6 2.1-3.2l1.1-.4a2.7 2.7 0 0 1 4 1.3c.7 1.6 1.8 3 1.7 4.9a5.2 5.2 0 0 0 .8 2.9c2.2 3 2.9 7 6.2 9.2a3.6 3.6 0 0 1 .7.9l2.1 2.9 2.2 3.3c.6 1 1.1 2.1 1.7 3.1a2.1 2.1 0 0 0 1.1 1c.8.1 1.1-.5 1.5-1.2 1.4-2.4.1-4.4-.5-6.6s-3.4-4.9-5-7.4-4.6-6.5-6.5-9.9-4.7-9.2-8.6-12.7c-1.4-1.3-1.7-1.4-3.5-.7l-4.6 1.9-2.1.9c-4.3 2.3-7.7 6.1-12.8 6.9a1.2 1.2 0 0 0-.6.4c-1.3 1.3-3.4 1.3-4.5 3a2.7 2.7 0 0 1-1.1.4l-3 1.3c-4.3 2.2-8.5 4.7-13.2 6a29.7 29.7 0 0 0-4.8 1.9l-6.8 3.7-.9.2-7 1.8a5.9 5.9 0 0 0-2.3 1.2c-1.9 1.8-4.8 2-6.3 4.4a3 3 0 0 1-.7.3c-1.5 1.1-3.1 2.1-4.5 3.4s-2.8 3.1-4.4 4.3a10.4 10.4 0 0 0-2.7 2.6 11.9 11.9 0 0 1-3.9 3.7c-1.4.9-1.5 1.6-.3 2.8s2.1 1.7 3.2 2.5c4.5 3.4 8.4 7.2 10.1 12.8.2.6.6 1.6 2 1.6zm-307.9-20.7l-7.2-1.7c-1-.2-1.5.4-2 1.3a8.5 8.5 0 0 0-.8 5.1 8 8 0 0 1-3.1 7.5l-1.5 1.1c-1.6 1.5-3.2 3.1-4.9 4.5s-2.7 1.4-3.8 2.4a74.8 74.8 0 0 1-10.3 6.7c-2.1 1.3-4.5 2-6.4 3.5s-5.9 3.6-8.9 5.3-5.2 4.2-8.6 4.9a1.8 1.8 0 0 0-.7.6c-3.9 3.9-8.9 6.5-12.6 10.7l-.9.7a19.4 19.4 0 0 0-7.1 7.5 3.8 3.8 0 0 1-1.5 1.8c-2 .8-2.8 2.5-3.8 4.1s-1.6 3.3-2.7 4.7a5.8 5.8 0 0 0-1.3 2.9c-.4 1.9-.6 3.9-1.5 5.5a11.9 11.9 0 0 0-1.5 6.1 14.2 14.2 0 0 1-.5 3.7 18.6 18.6 0 0 0 .5 11.6 38.7 38.7 0 0 1 2.1 6.7 22.9 22.9 0 0 0 2.2 7.2 36.8 36.8 0 0 1 3.4 8.1c.3 1.2.8 2.2 2 2.5s1.9-.9 2.6-1.8 2.3-3.6 3.6-5.2l5.3-6.4c1.1-1.3 2.7-2.4 3.4-3.9s2.8-4 4.3-5.9c2.8-3.5 5.7-6.8 7.9-10.7a33.5 33.5 0 0 1 2.1-2.9l4.6-6.6c1.1-1.6 2-3.6 3.6-4.7s3.7-4 5.2-6.1 3.2-6 4.7-9 2.4-5.4 4.1-7.8 3.4-4.5 4.8-7 3-4.8 4.4-7.3l2.3-3.9c.7-1.1 1.8-2.2 2.1-3.4a11.3 11.3 0 0 1 2.7-5.2 6.8 6.8 0 0 0 1.1-2.4 7.8 7.8 0 0 1 2.4-3.7 3.5 3.5 0 0 0 1.4-1.9 6.7 6.7 0 0 1 1.9-3.7 7.7 7.7 0 0 0 1.9-3.2 18.8 18.8 0 0 1 2-4l3.5-6.9a4.8 4.8 0 0 0-.5-1.4zm66.1-119.9l-1.7 3.3-1.4 3a86 86 0 0 1-4 8.8 14.6 14.6 0 0 0-2 7.4 6 6 0 0 0 2.8 5.2c4.1 3.2 9.1 4.8 13.5 7.3 2.5 1.4 5.1 2.5 7.4 4.1s6.2 4.9 9.3 7.3l8.1 6.5 6.9 5.8 2.8 2.1 6.5 5.2c1 .8 2.2 1.6 2.7 2.7s3.9 2.5 4.3 5a2.6 2.6 0 0 0 .8.5 9.6 9.6 0 0 1 1.7 1.5c1.7 2.3 3.2 4.7 4.9 7a10.8 10.8 0 0 0 2.7 2.9 7.2 7.2 0 0 1 2.9 3.6 7.4 7.4 0 0 0 1 1.6l2.5 3.1c1.6 2.2 3 4.6 4.8 6.7 3.1 3.6 4.7 8.1 6.8 12.2s3.3 8 4.9 12a3.5 3.5 0 0 1 .3.9c.2 1.8.4 3.6.5 5.4s.3 2.6 2.5 2.6 6.1 2 8.1 4.8a20.9 20.9 0 0 1 2.4 6.1 6.6 6.6 0 0 1-1.5 6.3c-.5.7-.8 1.4-1.9 1.6s-2.1 1.6-.8 3.1a9.2 9.2 0 0 1 1.8 2.2c1.1 2.6 2 5.3 3 7.9a5.4 5.4 0 0 0 1.3 2.2 5 5 0 0 1 1.8 3.4c.3 2.4.9 2.8 3.6 2.3a13.4 13.4 0 0 0-.7-7.7c-1.7-4.4-1.9-9.1-2.9-13.6-.6-2.4-.4-4.9-.7-7.3s-.5-7.3-1.7-10.8l-1.5-4.2a12.1 12.1 0 0 1-1-3.6c.1-6-2.2-11-5.5-15.8l-1.2-2c-.7-1.1-1.4-2.1-2.1-3.1s-3.2-3.8-3.7-6.4a6.5 6.5 0 0 0-1-1.9l-4.4-7.5c-1.1-1.8-2.3-3.6-3.4-5.4l-4.2-6.6-2.5-3.7c-1.6-2.3-3.1-4.6-4.8-6.8s-3.5-6.1-5.6-8.9c-3.4-4.4-7.1-8.4-10-13.2-1.6-2.6-4.1-4.6-6-7s-4.3-4-6.1-6.5a54.2 54.2 0 0 0-5.7-5.8 16 16 0 0 0-1.7-1.3l-1.6-1.3a78.2 78.2 0 0 0-7.3-6.7 94.9 94.9 0 0 1-7.2-6.4c-.8-.7-1.6-1.9-2.5-2.1s-3.8-1.6-5.7-2.3a10.3 10.3 0 0 1-2.5-1.8c-1.5-1.1-2.9-2.4-4.4-3.4a5.2 5.2 0 0 0-1.8-.5zm250.1-111.5l.3.2.4-.6a4.6 4.6 0 0 0 .9-3.6c-.2-1.3-1.4-1.4-2.3-1.7l-.6-.4c-3.1-1.3-6.4-1.4-9.6-2.2a4 4 0 0 0-.9.3c-2.1.2-4.2.8-6.1.3s-6.9-.4-10.2-1.9-6.6-2.1-9.9-3.1l-.9-.3c-1.6-.5-3.3-1.1-4.9-1.5-3.3-.8-6.5-1.6-9.3-3.5a19.2 19.2 0 0 0-2.9-1.5c-1.9-.9-4-1.4-5.6-2.6a23.3 23.3 0 0 0-6.5-3.2l-2.5-.8-8.4-3.2h-.7c-1.9-.5-3.8-.9-5.7-1.6s-5.4-1.7-7.7-3.4l-.6-.4-10.3-5.4-5.8-3.3-4.7-2.8c-2-1.2-3.9-2.6-6-3.8s-3.9-1.8-5.8-2.7-1.7-1.3-2.6-1.6c-3.2-.8-6-2.6-9.3-3.3a49.1 49.1 0 0 1-11.4-4c-1.9-1-4-2.2-6.5-1.7a5.2 5.2 0 0 1-2.3-.5 79 79 0 0 0-9.5-2.8c-1.6-.3-3.1-1.1-4.7-1.6s-3.9-.8-5.7-1.4-5.7-2.2-8.7-3.1a34.4 34.4 0 0 1-10.5-5.4l-2.2-1.3c-3.1-1.7-6.4-2.8-9-5.2a9.1 9.1 0 0 0-1.9-1 5.4 5.4 0 0 0-.1 1.3 26.6 26.6 0 0 0 3.4 9 24.8 24.8 0 0 0 6.5 6.2c3.2 2.3 6.6 4.3 9.9 6.4a5 5 0 0 0 1.4.4 47.7 47.7 0 0 1 11.7 4.4 30.3 30.3 0 0 0 3.2 1.4l2.8 1.2c1.2.5 2.4 1.2 3.6 1.7s2.3.6 3.4.9a60.5 60.5 0 0 0 5.8 1.9 37.1 37.1 0 0 1 10.3 3.4c1.8 1 3.8 1.9 5.7 2.8a13.4 13.4 0 0 1 2.6 1c2.9 2.3 6.7 2.8 9.8 4.8a53.8 53.8 0 0 0 6.6 3.2c2.6 1.2 5.1 2.8 7.9 3.8a49.8 49.8 0 0 1 10.3 4.8 56.2 56.2 0 0 0 6.7 3.7c2.2 1.1 4.5 1.9 6.8 2.8l2 .7 11.5 2.7a14.3 14.3 0 0 1 4 1.2 22.7 22.7 0 0 0 5.7 2.1 61.9 61.9 0 0 1 11.6 4.7c3.2 1.7 6.5 3.3 9.9 4.7s6.5 2.3 9.5 3.9a26.8 26.8 0 0 0 10.9 2.7c2.2.1 4.5.1 6.5 1.1a3 3 0 0 0 1.4.2l9.3-.5a7.6 7.6 0 0 0 1.8-.5zM682.9 463.5c1.6-1.7 2.8-3.1 4.2-4.4s4.7-4.1 6.9-6.4a13.2 13.2 0 0 0 2-3.7c.5-1 .6-2.1 1.1-3.1a3.8 3.8 0 0 0-.2-4.1 22.7 22.7 0 0 0-8.3-7.2c-2.9-1.5-3.7-3.5-2.8-6.6s2.4-6.4 2.1-10c-.1-1.2.9-2.6 1.4-3.9l.8-2.1a3.6 3.6 0 0 1-3.7-3.1c-.6-2.3-.9-4.6-1.3-7s-.4-3.2-.6-5a28.6 28.6 0 0 0-3.6.3 9.7 9.7 0 0 1-5.7-.8 13.1 13.1 0 0 1-5.4-3.4 2.1 2.1 0 0 0-1.2-.7 9.4 9.4 0 0 1-5.3-2.5 4.6 4.6 0 0 0-1.4-.6 1.2 1.2 0 0 0-.5 1.9 16.6 16.6 0 0 1 2 3.5 24.2 24.2 0 0 0 3.1 6.1c3.9 6.1 6.5 12.9 9.3 19.5a20.1 20.1 0 0 1 .6 2.5 22.9 22.9 0 0 0 1.3 4.5 34.5 34.5 0 0 1 4.2 16.3c-.1 2.5-.2 4.9-.3 7.4s.2 2.4.3 3.6 0 4.9.1 7.4a5.4 5.4 0 0 0 .9 1.6zm102.4-160.4l5.4-1.7a3.5 3.5 0 0 0 1.2-1.1 14.1 14.1 0 0 0 3.3-7.8c.5-3.2-2.3-7.2-5.2-7.9a51.1 51.1 0 0 1-9.8-3.4 4.9 4.9 0 0 0-6.1 1.3l-1.4 1.9c-1.5 1.9-2.9 3.9-5.7 3.7a2.8 2.8 0 0 0-1.1.3c-2.6 1.1-2.9 3.3-.9 5.1a4 4 0 0 0 1.4 1c2.3.6 4.1 2 6.1 3.1s5.8 2.9 8.7 4.2a33.2 33.2 0 0 0 4.1 1.3zm167.2 341.4c-.3-1.2-.7-2.7-1.2-4.1a14.1 14.1 0 0 0-7.7-8.3 7.8 7.8 0 0 0-2.7-.6c-3.8-.4-7 1.4-10.2 3a3.7 3.7 0 0 0-2 4 8.8 8.8 0 0 1-.3 3 6.2 6.2 0 0 0 1.5 6.4c.6.6 1.1 1.4 1.7 2 2.4 2.6 5 4.7 8.6 5.4a2.3 2.3 0 0 0 2.7-.9 7.4 7.4 0 0 1 5-3.3 5.2 5.2 0 0 0 4.1-3.2 27 27 0 0 0 .5-3.4zm-39.8-223.7a1 1 0 0 0-.2.4c.1 3.4-.5 6.4-3.1 8.9a2.6 2.6 0 0 0-.6 2.1 56.4 56.4 0 0 1 1.4 9.8c.1 1.1-.1 2.2 0 3.3a30 30 0 0 1 .3 6.5 9.3 9.3 0 0 0 .6 4.4c1.1 2.6 3.3 4.5 5.2 6.6a1.3 1.3 0 0 0 2.3-.5 5.2 5.2 0 0 0 .1-4.2 9.3 9.3 0 0 1-.2-5.6 15.9 15.9 0 0 0 .5-2.7c.1-3.1.2-6.3 0-9.4s-.6-6-1.1-8.9a40.5 40.5 0 0 0-1.3-5.5c-.6-2.2-1-4.7-3.9-5.2zm-24.3 32.5c-1 1.1-1.9 2.1-2.7 3.1s-.2 1.5.8 2a4.7 4.7 0 0 1 1.9 1.2c.9 1.7 2.5 2.6 3.8 3.9a17.7 17.7 0 0 1 2.8 3.2 4.8 4.8 0 0 0 3.4 2.2l2.8.3a3.6 3.6 0 0 0 3.5-2c.9-1.6.4-3.2.4-4.8a2.1 2.1 0 0 0-1.6-2.3l-7.9-2.4a9.4 9.4 0 0 1-2.4-.9c-1.5-.9-2.9-2.1-4.8-3.5zM773.8 255.9a45.7 45.7 0 0 1-2.7 6.4 12.2 12.2 0 0 0-1.7 6.6 12.7 12.7 0 0 1-1.3 6.4 1.2 1.2 0 0 0 .5 1.8 16.4 16.4 0 0 0 .6-1.8c.1-.5 0-1.1.2-1.7.6-2.2 1-3.7 3.3-3.7s3.5-.3 4-2.9 1.3-3.2 1-5.1a4 4 0 0 1 .3-2.1c.7-1.7.1-3.2-.3-5.1zM655.4 468.5a3.1 3.1 0 0 0 1.2 0 22 22 0 0 0 4.5-3.4c.6-.7 0-2.3 0-3.4s-1.3-3.2-2.9-4.3-4.3-1.6-7-.7c.9 2 1.9 3.7 2.5 5.6s1.2 4.1 1.7 6.2zM904.3 453c-.1-1.2 0-2.3-.5-3.1a8.9 8.9 0 0 1-.9-4.1c-.1-1.4.2-3-1-4.4l-1.6 1.1c-1.2 1-2.4 2-3.7 2.9s-1.7 1.1-1 2.8 4.4 4.8 8.7 4.8zm-388.9-44.1l-.4-.3h-.5a8.1 8.1 0 0 0-4.4 4c-1.3 2.8-1.3 6-2.2 8.9a8.5 8.5 0 0 0 0 2.2 47.2 47.2 0 0 0 7.5-14.8zM633.2 506h-.9a69.1 69.1 0 0 0-13.1 3.2c-1.3.4-2.9 1-3 2.9 3.9.2 14.5-3.4 17-6.1zm211.4-49.9l.9-3.7c.2-.9-.4-1.9-1.1-1.6a44.5 44.5 0 0 0-5.3 2.1 15.8 15.8 0 0 0-2.5 1.7c-.7.5-1.7 1-1.1 2.4zm-185.7 48.8l.6.5 1.7-2.1 3-4.2 2.5-3.2c-.8-1.3-1.3-2.4-2-3.3a2.4 2.4 0 0 0-1.3-1.1 5.3 5.3 0 0 0-2.1 1.4 1.2 1.2 0 0 0 .3 1.9 2.7 2.7 0 0 1 .8 2.9 29.3 29.3 0 0 1-1.9 4.3c-.4 1-1.1 2-1.6 2.9zM233.2 763.7a34.9 34.9 0 0 0-2.1-3.9c-.9-1.2-1.9-1.1-3.6 0s-1 1.1-.4 2.6 1.8 1.9 2.9 2.6zm412.2-244.4l-.5-.4-4 3.2a26.2 26.2 0 0 0-2.4 1.5c-1.9 1.8-3.7 3.7-5.6 5.5-.4.4-1.1.8-.4 1.6 2.3-2.2 5.5-3.2 7.5-5.7l1.6-1.7zm129.8 496.4l-.4-.5a17.4 17.4 0 0 0-2 1.8c-2 2.4-3.5 5.3-7.1 5.9a1.3 1.3 0 0 0-.7.6l-2.4 3.8h.6a14.1 14.1 0 0 1 5.2-3.9 1.4 1.4 0 0 0 .7-.6c1-2.4 3.3-3.2 5.4-4.6zM656.6 476.8c-1.2.7-.8 1.4-.3 2.1a1.5 1.5 0 0 0 2.4.6zm-10 40.6l.4.6 4-2.9a5.1 5.1 0 0 0 .7-1.1c-2.8.1-3.2 2.7-5.1 3.4zm-12.1-12.1c2.2.4 3-1 3.8-2.2zm123.3 526.5c1.3.3 1.5-.3 1.5-1.1l-.4-.4zm250.6-405.4l-1 1.5c-1.1 1.5-2.2 2.1-3.3 1.6s-1.8-1.8-1.4-3.7.3-1.7.4-2.5c.5-2.5-1.2-4.2-2.6-5.9-2.6-3.3-2.4-4.3 1.6-5.3a3.9 3.9 0 0 1 4.9 2.6c.4 1 .9 2.1 1.4 3.1v8.6z"/><path d="M832.5 574.4a5.9 5.9 0 0 1 0-2.1c1.4-3.6 3-7.1 4.5-10.7s2.8-6.4 3.5-9.8a15.9 15.9 0 0 1 1.2-3.4c1.4-3.2 3-6.3 4.3-9.5s3.1-8 4.6-12a10.8 10.8 0 0 0 .4-1.9 2.9 2.9 0 0 1 .2-1.2c2.2-2.7 2.5-6.1 3.7-9.2s1.9-5.1 2.9-7.7 1.5-4.3 2.3-6.4 1.6-3.8 2.3-5.7 1.9-4 2.2-6.3a4.5 4.5 0 0 1 3-3.7c2.1-.8 3.2.1 2.8 2.3s-1 4.8-1.4 7.2a40.5 40.5 0 0 1-.7 4.2 12.9 12.9 0 0 1-1.9 4.3 10.2 10.2 0 0 0-1.2 3.8 10.7 10.7 0 0 1-1.9 4.8c-1.5 1.8-1.7 4.2-2.3 6.4a34.4 34.4 0 0 1-3.5 8.2 15.4 15.4 0 0 0-1.8 4.1 85.6 85.6 0 0 1-4 11.8 32.4 32.4 0 0 1-3.2 5.8 2.6 2.6 0 0 0-.5 1.1c-.5 5-3.4 9-5.5 13.3l-1.2 2.5c-1.2 2.2-2.3 4.5-3.5 6.7s-3.2 3.3-5.3 3.1zm101.9-79.6a3.6 3.6 0 0 1 0 1.4c-1.2 2.4.1 4.2 1.2 6.1a39.8 39.8 0 0 1 2.7 6.1c1.2 3.3 2.1 6.7 3.4 10s1.4 5.7 2 8.5.8 3.9 1.4 5.8a19.4 19.4 0 0 0 2.2 4.7c1.6 2.4 2 5.1 2.6 7.8s.8 4.8 2.4 6.8a6 6 0 0 1 .8 5.4c-.5 1.9-1.8 2.4-3.4 1.1a3.1 3.1 0 0 1-1.4-2.7 3.7 3.7 0 0 0-.9-2.6 18.7 18.7 0 0 1-1.4-2.5c-.8-1.5-1.6-2.9-2.3-4.4s-1-3.2-1.6-4.7-1.3-2.5-1.9-3.7a23.7 23.7 0 0 1-2.7-8.3c-.1-1 0-1.9 0-2.9a8.7 8.7 0 0 0-1.2-4.7 18.1 18.1 0 0 1-2.3-6.9 1.6 1.6 0 0 0-.2-.9c-1.7-1.6-1.7-3.8-2.2-5.9s-.9-2.4-1.2-3.6c-.9-3.5-1.7-6.9-2.5-10.4a7.2 7.2 0 0 1-.1-1.2c-.1-2.2.2-3.2 1.3-3.4s4 0 4.9 1.9a16.4 16.4 0 0 1 .8 3.2h-.3zm22 13.1a14.6 14.6 0 0 1 1.2 2.3c.9 2.9 2.8 5.3 4.6 7.7a18.6 18.6 0 0 1 3.9 9 20.4 20.4 0 0 0 2.6 7.3 42.6 42.6 0 0 1 2.8 6.3c1.2 3.3 1.8 6.8 3.8 9.9 1 1.5 1.9 3.1 3 4.5a15.6 15.6 0 0 1 2.7 7.2l-1.6 1.4a10.8 10.8 0 0 1-2.5-1.8c-2.3-3.1-5-6.1-6.5-9.6s-4.1-7.1-5-11.2c-.4-1.8-1.7-3.4-2-5.3a32 32 0 0 0-.7-4.5 29.7 29.7 0 0 0-1.6-3.9l-.4-.6-3.1-9a14.2 14.2 0 0 0-.7-1.7 8.9 8.9 0 0 1-.9-6.2 8.3 8.3 0 0 0 0-1.8h.5zm-64.2 48.7a24.5 24.5 0 0 0-.5-3.4 5 5 0 0 1 .1-3.5 3.4 3.4 0 0 0 .3-2.2c-1.3-3.3-1-6.7-.6-9.9a99.4 99.4 0 0 0 .7-11.6c0-1.5.4-3 .5-4.5a9.6 9.6 0 0 0 0-3.8c-.8-2.2-.4-4.4-.4-6.6a3.6 3.6 0 0 1 3-3.4l1.9-.6a2.4 2.4 0 0 1 .4 1c-.3 2.4.3 4.9-.7 7.3a3.6 3.6 0 0 0 .7 4 3.8 3.8 0 0 1 .8 2.6 59.3 59.3 0 0 1-1 6.3c-.7 3.6-1.7 7.1-2.2 10.7-.3 1.9.3 3.8-.5 5.6 1 2.4.3 4.9.4 7.3a23.3 23.3 0 0 1 0 3.1c-.2 2.4-1 2.8-2.9 1.6zm-23.3 5.6a6.1 6.1 0 0 0 .4-2c-.6-3.9.5-7.7.8-11.5s1.6-6.6 2-10 2.1-9.1 2-13.8a16.9 16.9 0 0 1 .9-4.2l.8-3.2a25.9 25.9 0 0 1 3.3-1.3 1.7 1.7 0 0 1 2.2 2.2c-.3 1.9-.6 3.9-1 5.8a11.2 11.2 0 0 1-1 3.2c-1.5 2.7-2.6 5.4-2.4 8.5a1.7 1.7 0 0 1-.1.9c-1.3 2-1.1 4.3-1.3 6.5a3.2 3.2 0 0 1-.3 1.4 10.5 10.5 0 0 0-1.6 4.9c-.1 1.3-1 2.5-1.4 3.7s-1.4 5.3-2.1 8a2.9 2.9 0 0 1-1.2.9zm75.5-86.3a4.5 4.5 0 0 1 3.5 2.9 56.6 56.6 0 0 1 2.3 8.4 41.4 41.4 0 0 0 1.2 6c.7 2.1 1.3 4.2 2.1 6.3a26.5 26.5 0 0 0 1.7 3.6c.9 1.7 1.1 2.6 0 3.7s-1.5 1.2-1.9 1-1.8-1.3-1.8-1.9c.1-2.3-.9-3.9-2-5.7s-.8-2.9-1.2-4.3-1.2-3.9-2-5.8-1.9-4.2-2.8-6.2-1.3-2.7-1.9-4.1.2-4 2.8-3.9zm-39.3 183c-2.1-.3-3.5-.9-3.8-2.7a3.4 3.4 0 0 0-.4-1.1c-2.8-4.5-3.1-9.2-2.1-14.4.5-2.4 1.1-4.4 3.1-5.8a20.9 20.9 0 0 1 3.6-1.8 1.5 1.5 0 0 1 2 .8 4 4 0 0 1-.3 2 .8.8 0 0 1-.3.3 8 8 0 0 0-3.2 7 40.6 40.6 0 0 0 .9 8c.3 1.2 1.4 2.3 2.2 3.3a2.3 2.3 0 0 1 .5 2.8 3 3 0 0 1-2.2 1.6zm-47.6-12.7l-1.6 2.2c-1.3 1.6-3 1.3-4.5.5a10.8 10.8 0 0 1-4.6-4.1 13.9 13.9 0 0 1-2.2-6.2 7 7 0 0 1 1.1-4 14.8 14.8 0 0 1 5.5-4.9 6.1 6.1 0 0 1 4.2-.4 30.1 30.1 0 0 0-4.5 5.5 3.4 3.4 0 0 0-.4 3.1 9.7 9.7 0 0 0 5.6 6.9 7.2 7.2 0 0 1 1.4 1.4zm122.8-4.4l-2.5-2.2c.6-1.9 1.4-3.8 1.8-5.6a6.9 6.9 0 0 0-1.6-6.2 6.5 6.5 0 0 1-1.3-2.4 2.3 2.3 0 0 1 1.1-2.6 2.7 2.7 0 0 1 2.9 0c3 1.3 3.4 3.9 3.8 6.6a18.8 18.8 0 0 1 .3 2.8c0 3.7-.9 7.2-4.5 9.6zm-96-5.1l-.8 1a6.8 6.8 0 0 0-2.8 5.8c0 2 .1 4.1-.1 6.1a2 2 0 0 1-2.2 2 1.2 1.2 0 0 1-.9-.2c-1-1.6-3.1-2.5-3.3-4.6s-.6-3.4.4-5.1a6.8 6.8 0 0 0 .7-1.5 4 4 0 0 1 3-2.7 13.2 13.2 0 0 1 6-.8zm-52.2-12.3l-1.6 3.6c-.3.6-.7 1.2-1 1.9a6 6 0 0 0 1.5 6.9c1.3 1.4 1.3 2.6 0 3.4a2.7 2.7 0 0 1-2.2.4 9 9 0 0 1-5.2-8.1c.2-3.9 2.6-6.5 5.8-8.4a6 6 0 0 1 2.3-.2zm-29.3.7c.3-5 2.1-8.2 6-9.9a1.6 1.6 0 0 1 1.5.1 1.9 1.9 0 0 1 .3 1.7c-1.3 1.9-1 3.8-1 5.9a34 34 0 0 0 .5 4.6c.1.8.3 1.8-.7 2.3s-2 .8-3.1 0-3.9-2.8-3.5-4.7zm91.7-57.4a9 9 0 0 1 1.1 4.7c0 1.7-.2 3.5-.3 5.2s.1 3 .2 4.5a4.2 4.2 0 0 1 0 1.2c-.2 1-.6 2-1.8 1.9s-1.4-1.1-1.5-2.1-.3-1.9-.4-2.8-.6-2.6.3-3.9.1-1.6.2-2.3a42.9 42.9 0 0 1 .8-4.6 6 6 0 0 1 1.4-1.8zm-34 41.2c-1.2-1.9-1.8-3.3-.9-5.1a7.4 7.4 0 0 0 .2-2.6 5.1 5.1 0 0 1 3.6-4.8c1.6-.6 2.9.4 2.4 2s-2.1 5.6-3.3 8.4a10.2 10.2 0 0 1-2 2.1zM822 597.3c1.1-3.4 2.2-6.5 5.4-8.5a1.9 1.9 0 0 1 2.5.5 1.4 1.4 0 0 1-.3 2.3 4.8 4.8 0 0 0-1.5 2.5 15.8 15.8 0 0 1-2.1 3.3c-.3.4-.8.6-1.1.9s-1 1.4-1.7.9a5.4 5.4 0 0 1-1.2-1.9zm136.6-6.7c0-2.4 1.8-4 3.9-3.6a2.8 2.8 0 0 1 1.7 1.3 5.2 5.2 0 0 1-1.7 6.9c-1.5 1-3.1.5-3.4-1.3s-.4-2.3-.5-3.3zm31.2 10c-.3-2.5-1.8-4.6-1.4-7 1.4-.7 2.4 1.6 3.4-.2.6 1.3 1.2 2.5 1.8 3.7a2.2 2.2 0 0 1-.3 2.5 2.8 2.8 0 0 1-3.5 1zm-93.7 1.2c.6 1.6 1.1 2.9 1.7 4.2s-.1 1.9-.8 2.4-1.4.3-2.1-.3-1.8-1.2-1.7-2.6a2.2 2.2 0 0 1 1.1-2.2 14.8 14.8 0 0 0 1.8-1.5zm-.9-42.8c-.2 1.5.5 3.1-1 4.4-1.2-1-2.3-1.9-1.8-3.5s1.4-1.5 2.8-.9zm-26.3 3.2l.5 2.8c-1.8-.8-.4-1.9-.5-2.8zm-415 120l-.8 4.6c-.4 2.1-1.8 3.5-3 5.1s-1.4 1.5-1.4 2.7a2.7 2.7 0 0 1-1 1.6 17.5 17.5 0 0 0-4.9 9 3.1 3.1 0 0 0-.1 1.4 19.4 19.4 0 0 0 6.7 10.6 35.2 35.2 0 0 1 3.2 2.8c1.9 2 4.4 3.1 6.7 4.4s6.4 4 9.7 5.9a29.2 29.2 0 0 0 4.3 1.8l4.2 1.5c4.2 1.6 8.4 3 12.6 4.8s8.1 2.1 12.1 2.9 6.1 1.2 9 2 4.8 1.7 7.2 2.3a24.4 24.4 0 0 0 6.3 1.2 41.9 41.9 0 0 0 8-1 5.4 5.4 0 0 0 2.3-1.7 22.7 22.7 0 0 1 2-2.4c2.9-2.2 4.2-5.6 6-8.5.5-.8 1.2-1.5 1.7-2.2a57.2 57.2 0 0 0 4.8-10 48 48 0 0 1 3.3-6.7 5.1 5.1 0 0 1 2.8-1.7c1-.3 2.5 1.4 2.1 2.5a25.6 25.6 0 0 1-1.6 3.7 4.3 4.3 0 0 0-.8 1.6c.2 3-1 5.7-1.6 8.6a4.1 4.1 0 0 1-.7 2c-1.5 1.5-2.1 3.3-3 5.1s-3.5 5.5-5.1 8.3a24 24 0 0 1-6 6.4 5.4 5.4 0 0 1-3.1 1.1 25.3 25.3 0 0 0-6 1.1 8.1 8.1 0 0 1-3.9.4c-2.7-.3-5.4 0-8.1-.2a76.4 76.4 0 0 1-8.2-1.4 69.6 69.6 0 0 1-10.6-3.1 8.8 8.8 0 0 0-3.4-.2c-2.6.2-4.7-1.5-7.1-1.8s-7-3.1-10.8-4c-5.3-1.3-10.2-3.8-15.3-5.5a3.4 3.4 0 0 1-1.4-.9 16.7 16.7 0 0 0-4.6-3.3 81 81 0 0 1-13.8-8.7 43.7 43.7 0 0 1-6.3-5.8 15.9 15.9 0 0 1-3.6-10c-.1-2.3 1.3-3.9 2.7-5.4s2-3.7 4-4.6a3.3 3.3 0 0 0 .4-1.1 28.5 28.5 0 0 1 1.6-2.9c1.4-2.1 3-4 4.2-6.2s.4-2.3.6-3.5a6.8 6.8 0 0 1 .3-1.6c1.8-3.7 5-4.1 7.4-1zm217.4-444.5c-1.7-2.5-4.3-2.7-6.6-3.3h-1.2c-.8-.1-1.8-.1-1.8-1.1a2.6 2.6 0 0 1 1.3-1.8c2.2-1.1 4.4-2 7-1.2s3.7.2 5.1 1.7a49.2 49.2 0 0 1 3.5 4.1 1.6 1.6 0 0 1 .2 1.4c-.9 1.7-1.5 3.9-3.8 4.2s-2.7 1.9-3.4 3.3a3.3 3.3 0 0 0 .5 2.4c1 2 2.4 3.5 5 3a1.9 1.9 0 0 1 1.6 1 2.4 2.4 0 0 1-.5 2.1 19.8 19.8 0 0 1-4.2 2.3 4.8 4.8 0 0 1-5-1.5 15.1 15.1 0 0 0-2-2 7.1 7.1 0 0 1-1.9-7.9c.9-2.2 2.6-3.6 4.3-5z"/>
</g>
</svg>
