<?xml version="1.0" encoding="utf-8"?>
<!-- Generator: Adobe Illustrator 12.0.0, SVG Export Plug-In . SVG Version: 6.00 Build 51448)  -->
<!DOCTYPE svg PUBLIC "-//W3C//DTD SVG 1.1//EN" "http://www.w3.org/Graphics/SVG/1.1/DTD/svg11.dtd" [
	<!ENTITY ns_svg "http://www.w3.org/2000/svg">
	<!ENTITY ns_xlink "http://www.w3.org/1999/xlink">
]>
<svg  version="1.1" id="Layer_1" xmlns="&ns_svg;" xmlns:xlink="&ns_xlink;" width="94.862" height="97.53"
	 viewBox="0 0 94.862 97.53" overflow="visible" enable-background="new 0 0 94.862 97.53" xml:space="preserve">
<path fill="#2F3E51" d="M94.583,51.938c0,25.178-20.411,45.592-45.589,45.592c-25.178,0-45.595-20.414-45.595-45.592
	c0-25.181,20.417-45.593,45.595-45.593C74.172,6.345,94.583,26.757,94.583,51.938L94.583,51.938z"/>
<path fill="#98CA3E" d="M48.511,1.611c0.978,0,1.956,0.032,2.934,0.096c2.934,0.189,5.867,0.675,8.707,1.44
	c1.426,0.37,2.77,0.835,3.899,1.24l1.833,0.722l0.786,0.358l1.321-0.168l1.519-0.055l0.792,0.008l0.087,0.003l0.733,0.044
	l0.064,0.006c-1.822-1.03-3.777-1.9-5.85-2.596c-2.788-0.94-5.768-1.557-8.858-1.83c-2.986-0.271-6.1-0.221-9.26,0.146
	c-2.479,0.285-4.994,0.768-7.497,1.44c0.728-0.134,1.461-0.256,2.2-0.367C44.093,1.773,46.299,1.611,48.511,1.611L48.511,1.611z
	 M66.577,6.197l-1.112,0.224L64.37,6.75l-0.919,0.358L62.724,7.48c-0.635,0.39-0.891,0.71-0.926,0.878l0.023,0.096l0.774,0.34
	l0.867,0.146l0.564,0.05l0.349,0.029l0.314,0.026c0.472,0.038,0.99,0.064,1.596,0.082l0.075,0.003
	c0.564,0.035,1.21,0.076,1.921,0.104l0.855,0.053l0.314,0.023l1.734,0.128l0.948,0.102l0.524,0.055l0.093,0.009l-0.92-0.596
	l-0.529-0.329l-1.624-0.946l-1.967-1.019L66.577,6.197L66.577,6.197z M80.545,15.16l0.925,0.378
	c-1.832-3.46-4.702-6.588-8.328-9.027l-0.465-0.306L72.636,6.2l-1.584-0.201l-0.681-0.038l-0.093-0.003l-0.763-0.012l-1.455,0.052
	L67.886,6.02l0.141,0.064l2.002,1.036l1.629,0.951l0.57,0.35l1.665,1.094L74.3,9.808l1.367,0.745l0.402,0.393l0.35,0.416l0.109,0.14
	l0.502,0.402l0.174,0.146l0.338,0.279l1.565,1.408l1.403,1.391L80.545,15.16L80.545,15.16z M82.553,16.126l0.845,0.582l0.069-1.077
	c-0.029-0.914-0.239-1.845-0.629-2.759l-0.716-1.257l-0.442-0.611l-0.448-0.512l-0.047-0.049L80.05,9.375l-1.303-0.919l-0.693-0.419
	l-0.559-0.288l-0.168-0.082l-1.52-0.649l-1.287-0.399C78.083,9.235,80.859,12.526,82.553,16.126L82.553,16.126z M81.749,16.47
	l0.303,0.337l0.07,0.076l-0.116-0.265L81.749,16.47L81.749,16.47z M83.089,17.363l0.115,0.297l0.047-0.169L83.089,17.363
	L83.089,17.363z M83.612,18.693c1.577,1.912,3.009,3.963,4.266,6.097l0.047,0.076l-0.39-1.08c-0.269-0.646-0.53-1.243-0.804-1.807
	c-0.314-0.588-0.646-1.156-0.983-1.688c-0.57-0.864-1.21-1.63-1.909-2.282L83.612,18.693L83.612,18.693z M4.731,30.29l-0.599,1.426
	l-0.105,0.25l-0.146,0.341l0.046-0.035l1.094-0.966l0.489-0.521l0.238-0.276l0.239-0.276l0.867-1.149l0.204-0.308l0.215-0.317
	l0.402-0.625l0.238-0.413c0.425-0.745,0.873-1.514,1.269-2.331l0.006-0.018l0.768-1.464l0.192-0.381l0.128-0.247l0.076-0.14
	l0.82-1.548l0.274-0.48l0.174-0.306l0.687-1.205l0.25-0.387l0.262-0.413l0.756-1.161l0.303-0.428l-0.018,0.021l-0.186,0.187
	l-0.343,0.358l-1.321,1.455l-0.151,0.177l-0.093,0.114l-0.989,1.202l-0.093,0.11l-0.151,0.184l-1.164,1.56l-0.32,0.451l-0.117,0.178
	l-0.873,1.289l-0.262,0.41l-0.146,0.242l-0.809,1.327l-0.483,0.884l-0.256,0.469L5.738,28.2L4.731,30.29L4.731,30.29z M3.766,32.618
	l-0.192,0.529l-0.186,0.501l-0.198,0.55l0.041-0.026l0.058-0.038L4.08,33.38l-0.221-0.632L3.766,32.618L3.766,32.618z M90.2,31.067
	l0.117,0.596c0.232,1.205,0.459,2.343,0.721,3.458c0.141,0.637,0.291,1.213,0.473,1.771c0.162,0.557,0.343,1.144,0.576,1.715
	l0.36,0.847l0.384,0.814l0.047,0.09c-0.488-2.775-1.246-5.525-2.264-8.235L90.2,31.067L90.2,31.067z M89.606,49.097l-0.366,0.047
	l-0.989,0.911l-0.123,0.407l-0.086,0.497l0.086,1.199l0.041,0.187l0.129,0.544l0.262,0.795l0.384,0.884l0.478,0.979l0.605,1.064
	l0.349,0.582l0.366,0.594c0.408,0.649,0.891,1.354,1.409,2.099l0.116,0.172l0.047-0.154c0.134-0.591,0.25-1.179,0.355-1.758
	l0.063-0.416l0.034-0.269l0.012-0.128l0.064-0.782l0.035-0.745v-0.681l-0.111-1.293c-0.086-0.838-0.308-1.539-0.494-2.06
	l-0.332-0.789l-0.39-0.631l-0.826-0.854L89.606,49.097L89.606,49.097z M87.535,62.571l0.011,0.053
	c0.053,0.146,0.251,0.48,1.037,1.117c0.453,0.364,1.018,0.763,1.646,1.167l0.279-0.687l0.141-0.344l0.109-0.276l-0.273-0.681
	l0.222-0.413C87.972,62.213,87.587,62.499,87.535,62.571L87.535,62.571z M90.946,65.353c1.564,0.937,2.746,1.432,3.206,1.476
	l-0.238-0.367l-0.972-1.033c-0.391-0.363-0.873-0.771-1.443-1.216L90.946,65.353L90.946,65.353z M88.233,70.245L88.21,70.28
	c-0.635,1.001-1.304,1.99-1.996,2.96l0.14-0.14l0.483-0.568l0.232-0.291l0.203-0.308l0.77-1.307L88.233,70.245L88.233,70.245z
	 M4.284,66.712l0.809,1.769l0.059,0.126l0.104,0.212l0.908,1.734l0.296,0.529l0.478,0.81c0.384,0.681,0.826,1.339,1.251,1.976
	l0.431,0.649l0.611,0.838l0.309,0.413l0.466,0.629l0.32,0.39l0.146,0.178C9.9,76.08,9.353,75.16,8.829,74.211
	c-1.496-2.846-2.619-5.835-3.341-8.891c-0.361-1.481-0.57-2.896-0.71-3.957L4.598,59.53L4.54,58.247l-0.018-0.46l-0.006-1.391
	l0.035-1.403l0.018-0.265l0.011-0.125l0.053-0.687c0.052-0.736,0.104-1.435,0.209-2.107L5,50.555l0.192-1.164l0.169-1.079
	l0.006-0.018l0.192-1.007l0.151-0.935l0.064-0.39l0.093-0.501l0.104-0.806l0.041-0.379l0.035-0.407
	c0.093-0.853,0.052-1.714-0.116-2.622l-0.39-1.146L5.5,40.006l-0.245-0.478l-0.343-0.567l-0.931-1.164l-0.594-0.614l-0.658-0.628
	l-0.012-0.009l-0.204-0.228l-0.006,0.023l-0.14,0.469l-0.192,0.751l-0.128,0.512l-0.244,0.989l-0.303,1.514l-0.052,0.268
	l-0.093,0.483l-0.337,2.293l-0.215,2.313L0.78,46.429l-0.076,1.815v1.013l0.006,0.526l0.006,0.332l0.041,1.196l0.099,1.56
	l0.07,0.757l0.227,1.927l0.39,2.287l0.512,2.272l0.058,0.233l0.565,1.999l0.745,2.203L4.284,66.712L4.284,66.712z M23.246,88.465
	c1.67,1.038,3.411,1.946,5.209,2.718c0.739,0.34,1.513,0.625,2.258,0.899l0.681,0.253l1.007,0.32l0.483,0.151l0.75,0.229
	l0.478,0.125l0.268,0.067l0.151,0.04l-1.333-0.562l-1.216-0.541l-0.64-0.276l-0.448-0.195l-0.937-0.378l-0.803-0.312
	c-0.919-0.358-1.461-0.492-1.466-0.492l-0.041-0.012l-0.198-0.075l-1.997-0.861l-0.489-0.235l-0.233-0.12L23.246,88.465
	L23.246,88.465z M46.881,95.458l-1.176-0.003l-0.838-0.026c-0.663-0.04-1.327-0.09-1.979-0.143h-0.012l-0.285-0.034l-0.664-0.053
	l-0.489-0.041l-1.06-0.093l-1.548-0.21l-0.262-0.034l-0.518-0.076l-0.774-0.148l-0.454-0.087l-1.088-0.216l-1.53-0.381l-0.262-0.064
	l-0.512-0.137l-0.756-0.232l-0.478-0.148l-1.042-0.332l-0.687-0.253c-0.756-0.279-1.542-0.567-2.299-0.92
	c-3.958-1.693-7.653-4.054-10.971-7.004l-1.216-1.136l-0.53-0.532l-0.238-0.247l-0.512-0.457l-0.431-0.378l-0.39-0.373l-0.186-0.181
	l-1.124-1.108l-0.367-0.387l-0.18-0.198l-1.077-1.176l-1.001-1.21l-0.168-0.204l-0.332-0.41l-0.477-0.638l-0.303-0.41l-0.628-0.864
	L7.601,74.26c-0.431-0.648-0.879-1.317-1.275-2.017l-0.471-0.8l-0.32-0.57l-0.908-1.729L4.51,68.901l-0.058-0.123l-0.821-1.795
	l-0.873-2.2l-0.757-2.238l-0.564-2.008l-0.07-0.256L0.85,57.97l-0.396-2.322l-0.227-1.938l-0.076-0.797l-0.099-1.549l-0.041-1.242
	l-0.005-0.329L0,49.266v-1.042L0.076,46.4l0.023-0.519l0.221-2.354l0.338-2.309l0.099-0.515l0.052-0.265l0.309-1.525l0.25-1.016
	l0.128-0.509l0.192-0.757l0.151-0.503l0.076-0.257l0.46-1.486l0.355-0.984l0.18-0.497l0.268-0.73l0.198-0.486l0.105-0.247
	l0.617-1.449l1.019-2.122l0.373-0.684l0.25-0.466l0.501-0.905l0.814-1.345l0.14-0.233l0.285-0.445l0.873-1.29l0.117-0.171
	l0.343-0.486l0.006-0.012l1.158-1.548l0.169-0.207l1.083-1.315l0.087-0.105l0.175-0.207l1.315-1.449l0.378-0.39l0.18-0.181
	l1.106-1.115l0.39-0.358l0.198-0.183l1.176-1.071l1.21-1.007l0.215-0.178l0.413-0.332l1.31-0.993l0.6-0.434l1.304-0.89l0.11-0.079
	l0.227-0.151l1.013-0.626c1.636-1.077,3.341-1.956,4.639-2.599L28.07,6.06l0.408-0.183l0.599-0.265l0.187-0.084L29.7,5.347
	l0.559-0.215c2.532-1.144,5.075-2.104,7.578-2.863c3.097-0.937,6.228-1.592,9.301-1.947c3.207-0.37,6.373-0.422,9.405-0.148
	c3.144,0.283,6.176,0.908,9.021,1.866c2.654,0.89,5.128,2.066,7.375,3.495l0.651,0.122l0.821,0.201
	c0.529,0.143,1.094,0.303,1.641,0.5c0.547,0.209,1.07,0.437,1.577,0.672l0.169,0.082l0.611,0.314l0.722,0.437l1.374,0.972
	l1.192,1.126l0.052,0.05l0.49,0.564l0.465,0.649l0.774,1.362c0.431,1.007,0.663,2.022,0.692,3.035
	c0.006,0.539-0.041,1.074-0.146,1.606c0.85,0.748,1.63,1.644,2.316,2.68c0.349,0.553,0.692,1.138,1.019,1.746l0.006,0.015
	c0.273,0.579,0.547,1.187,0.826,1.859c0.501,1.324,0.914,2.643,1.223,3.929l0.076,0.312l0.244,0.486l0.809,1.79l0.169,0.401
	l0.559,1.426c1.245,3.317,2.106,6.702,2.578,10.109l0.536,1.042l0.197,0.556l0.117,0.516c0.109,0.6,0.133,1.192,0.063,1.764
	l-0.337,1.158l-0.233,0.434l-0.623,0.898l-0.017-1.094c-0.029-1.677-0.158-3.355-0.385-5.025l-0.355-0.579l-0.127-0.207
	l-0.484-0.847l-0.406-0.864l-0.361-0.853c-0.25-0.605-0.437-1.214-0.6-1.778c-0.18-0.57-0.344-1.17-0.482-1.821
	c-0.269-1.124-0.49-2.268-0.729-3.479c-0.244-1.239-0.494-2.514-0.797-3.786l-0.297-0.579l-0.314-0.605l-0.076-0.154l-0.139-0.262
	l-0.729-1.269c-1.17-1.988-2.502-3.902-3.957-5.701l-0.14,0.352l-0.274-0.861L82.81,18.83l-0.961-1.185l-0.314-0.361l-1.32-1.452
	l-0.053-0.058l-0.152-0.046l-1.192-0.544l-0.913-0.745l-0.758-0.885l-0.32-0.448l-0.319-0.448l-0.041-0.061L76.022,12l-0.762-0.614
	l-1.264-0.925l-0.39-0.05l-0.029-0.003l-0.995-0.11l-0.523-0.056l-1.054-0.113l-1.601-0.113l-0.32-0.023l-0.826-0.052
	c-0.722-0.029-1.373-0.067-1.944-0.105l-0.063-0.003c-0.605-0.018-1.135-0.043-1.612-0.082l-0.332-0.029l-0.319-0.026l-0.605-0.052
	l-0.961-0.166c-0.646-0.172-0.978-0.346-1.17-0.603l-0.146-0.646c0.081-0.437,0.501-0.89,1.245-1.347l0.81-0.419l0.983-0.381
	l1.141-0.343l0.169-0.041L63.8,5.047c-1.1-0.396-2.432-0.853-3.829-1.219c-2.8-0.754-5.687-1.231-8.573-1.417
	c-3.137-0.204-6.292-0.076-9.37,0.384c-3.428,0.509-6.682,1.287-9.673,2.313l-0.227,0.076L31.76,5.313l-1.228,0.471l-1.298,0.603
	c-2.753,1.318-5.57,2.896-8.375,4.685c-2.002,1.246-3.882,2.977-5.593,5.151c-0.343,0.46-0.71,0.958-1.112,1.516l-0.739,1.138
	l-0.262,0.417l-0.245,0.378l-0.669,1.179l-0.181,0.312l-0.262,0.462L11.39,22.4l-0.413,0.768l-0.076,0.148l-0.122,0.218
	l-0.187,0.384c-0.273,0.541-0.523,1.024-0.78,1.481c-0.407,0.838-0.855,1.618-1.292,2.369l-0.239,0.419l-0.419,0.664l-0.419,0.62
	L6.53,30.688l-0.25,0.288l-0.233,0.271l-0.524,0.556l-0.914,0.827l0.163,0.888c-0.111,0.564-0.617,0.89-1.1,1.207L3.62,34.759
	l-0.722,0.722l0.314,0.559l0.675,0.646l0.611,0.634l0.995,1.246l0.384,0.623l0.256,0.518l0.046,0.096l0.437,1.304
	c0.192,0.989,0.233,1.918,0.134,2.847L6.71,44.333l-0.035,0.404l-0.116,0.841l-0.087,0.516l-0.064,0.354L6.25,47.413l-0.192,1.013
	L5.89,49.507l-0.192,1.158l-0.157,1.24c-0.099,0.657-0.151,1.341-0.204,2.065l-0.052,0.685l-0.012,0.131l-0.018,0.227l-0.029,1.4
	v1.338l0.018,0.469l0.058,1.255l0.175,1.807c0.14,1.036,0.343,2.424,0.698,3.873c0.705,3.001,1.81,5.934,3.277,8.722
	c1.106,2.025,2.352,3.917,3.696,5.616l0.25,0.317l0.814,0.961l0.175,0.203l0.367,0.422l0.949,1.001l1.414,1.176l0.92,0.73
	l1.595,1.141l0.477,0.323l0.169,0.104l1.327,0.848l0.425,0.25l0.244,0.137l1.362,0.771l1.403,0.701l0.239,0.119l0.459,0.221
	l1.979,0.855l0.157,0.059c0.116,0.029,0.664,0.175,1.537,0.518l0.384,0.151l0.414,0.154l0.96,0.391l0.466,0.2l0.611,0.265
	l1.251,0.557c2.334,1.047,4.866,1.804,7.514,2.249c0.529,0.079,1.094,0.16,1.659,0.232l0.087,0.006l0.483,0.021l0.273,0.009
	l1.537,0.041l0.495-0.003l0.262-0.006l0.763-0.021c0.809-0.003,1.635-0.069,2.427-0.134l0.611-0.047l0.372-0.031l2.008-0.26
	l0.605-0.093c3.288-0.556,6.426-1.411,9.365-2.546c0.553-0.233,1.094-0.475,1.641-0.728c2.055-0.949,4.167-2.14,6.461-3.638
	c1.984-1.307,3.945-2.75,5.825-4.29c2.009-1.664,4.028-3.46,6.169-5.494c0.582-0.657,1.146-1.321,1.694-1.987
	c1.38-1.743,2.683-3.576,3.864-5.444c0.798-1.284,1.561-2.634,2.281-4.034l0.07-0.209l0.023-0.073
	c-0.705-0.448-1.339-0.893-1.846-1.301c-0.727-0.585-1.129-1.044-1.262-1.44l0.109-0.725c0.32-0.384,1.112-0.675,4.703-0.206
	l0.041-0.128l0.279-0.867l-0.018-0.015l-0.018-0.029l-0.407-0.591c-0.519-0.754-1.013-1.464-1.426-2.124l-0.372-0.608l-0.35-0.576
	l-0.623-1.104l-0.494-1.013l-0.402-0.925l-0.285-0.861l-0.14-0.579l-0.04-0.189l-0.094-1.405l0.1-0.591l0.162-0.53
	c0.285-0.675,0.804-1.144,1.455-1.317c0.67-0.181,1.408-0.015,2.072,0.465l0.989,1.013l0.448,0.73l0.367,0.864
	c0.186,0.516,0.436,1.301,0.529,2.218l0.116,1.33v0.748l-0.034,0.765l-0.07,0.81l-0.012,0.122l-0.035,0.312l-0.07,0.425
	c-0.104,0.594-0.227,1.199-0.36,1.801l-0.006,0.018l-0.192,0.664l0.164,1.188l-0.758,0.61l-0.197,0.489l-0.215,0.512
	c0.646,0.504,1.192,0.961,1.623,1.368l1.054,1.12l0.39,1.127l-0.431,0.354c-0.798,0.172-2.759-0.908-3.806-1.53l-0.082,0.157
	l-0.012,0.04l-0.151,0.448l-0.507,1.432l-0.482,1.264l-0.076,0.194l-0.309,0.719l-0.349,0.725l-0.798,1.354l-0.215,0.332
	l-0.012,0.012l-0.244,0.313l-0.523,0.608c-1.502,1.531-2.928,2.937-4.302,4.243c-0.85,0.954-1.74,1.895-2.653,2.812l-0.746,0.698
	c-0.518,0.494-1.059,1.007-1.623,1.478l-0.896,0.783l-1.531,1.229c-3.451,2.647-7.036,4.79-10.656,6.379
	c-0.733,0.328-1.479,0.643-2.24,0.937c-1.846,0.777-3.708,1.426-5.564,1.936l-0.291,0.075c-0.523,0.134-1.064,0.271-1.606,0.402
	l-0.012,0.002l-1.92,0.37l-0.839,0.131l-1.618,0.207l-0.512,0.052l-1.967,0.125l-0.518,0.018H46.881L46.881,95.458z"/>
<g>
	<path fill="#92A2B9" d="M69.536,75.027L58.185,59.434l-0.531-0.25l-1.367-1.855c-0.521-0.718-1.383-1.113-2.024-0.959
		c-0.202-0.311-2.845-3.925-2.845-3.925l3.372-3.271c3.631-3.754,1.308-11.849-5.022-17.975c-4.046-3.914-9.065-6.304-13.1-6.237
		c-2.058,0.034-3.776,0.704-4.969,1.937l-3.74,3.866c-3.631,3.754-1.435,11.792,4.896,17.917c5.149,4.98,11.7,7.289,15.915,5.783
		c0.202,0.252,2.822,3.905,2.822,3.905c-0.471,0.79-0.316,1.383,0.26,2.176c0-0.001,1.271,1.762,1.271,1.762l0.036,0.616
		l11.157,15.387c0.029,0.048,0.932,1.2,1.658,1.171c0.665-0.026,1.747-0.568,2.477-1.096c0.734-0.531,1.313-1.078,1.5-1.688
		C70.267,75.671,69.261,74.751,69.536,75.027z M67.792,77.684c-1.816,1.188-2.573,0.179-2.654,0.06
		c-0.013-0.02-10.703-14.716-10.703-14.716l0.094-0.688l-1.869-2.38c-0.345-0.476-0.38-0.907-0.111-1.357l0.168-0.283l-3.797-5.245
		c-3.77,1.734-10.361-0.266-15.37-5.11c-5.934-5.742-8.12-13.146-4.872-16.503l3.74-3.866c1.004-1.039,2.48-1.603,4.267-1.633
		c3.779-0.063,8.525,2.22,12.388,5.956c5.935,5.742,8.12,13.146,4.873,16.503l-3.854,3.841l3.748,5.227l0.332-0.087
		c0.535-0.14,0.949,0.023,1.306,0.515l1.739,2.486l0.688,0.063l10.542,14.868c0.023,0.029,0.417,0.521,0.325,1.11
		C68.7,76.888,68.372,77.305,67.792,77.684z"/>
	
		<linearGradient id="XMLID_26_" gradientUnits="userSpaceOnUse" x1="97.3027" y1="23.7163" x2="97.3027" y2="51.7359" gradientTransform="matrix(0.6953 -0.7187 0.7187 0.6953 -50.7197 81.0093)">
		<stop  offset="0" style="stop-color:#1B1B1B"/>
		<stop  offset="0.0687" style="stop-color:#242424"/>
		<stop  offset="0.1824" style="stop-color:#3D3D3D"/>
		<stop  offset="0.196" style="stop-color:#414141"/>
		<stop  offset="0.2149" style="stop-color:#484848"/>
		<stop  offset="0.2428" style="stop-color:#5C5C5C"/>
		<stop  offset="0.2762" style="stop-color:#7D7D7D"/>
		<stop  offset="0.3139" style="stop-color:#AAAAAA"/>
		<stop  offset="0.3547" style="stop-color:#E3E3E3"/>
		<stop  offset="0.3727" style="stop-color:#FFFFFF"/>
		<stop  offset="0.4417" style="stop-color:#FBFBFB"/>
		<stop  offset="0.5155" style="stop-color:#EEEEEE"/>
		<stop  offset="0.5356" style="stop-color:#E9E9E9"/>
		<stop  offset="0.553" style="stop-color:#CCCCCC"/>
		<stop  offset="0.5832" style="stop-color:#9F9F9F"/>
		<stop  offset="0.6102" style="stop-color:#7E7E7E"/>
		<stop  offset="0.6327" style="stop-color:#6A6A6A"/>
		<stop  offset="0.6479" style="stop-color:#636363"/>
		<stop  offset="0.6973" style="stop-color:#828282"/>
		<stop  offset="0.8044" style="stop-color:#CFCFCF"/>
		<stop  offset="0.8249" style="stop-color:#DFDFDF"/>
		<stop  offset="0.8537" style="stop-color:#DADADA"/>
		<stop  offset="0.8887" style="stop-color:#CBCBCB"/>
		<stop  offset="0.9269" style="stop-color:#B2B2B2"/>
		<stop  offset="0.9671" style="stop-color:#919191"/>
		<stop  offset="1" style="stop-color:#6F6F6F"/>
	</linearGradient>
	<path fill="url(#XMLID_26_)" d="M31.591,29.859c-0.056,0.058-0.108,0.116-0.161,0.176c-0.076,0.358-0.122,0.733-0.14,1.123
		c0.089-0.113,0.184-0.223,0.286-0.328c2.91-3.008,9.578-1.278,14.894,3.865c5.316,5.143,7.266,11.75,4.355,14.758
		c-0.102,0.105-0.207,0.204-0.318,0.297c0.388-0.03,0.762-0.089,1.117-0.177c0.059-0.054,0.115-0.109,0.171-0.166
		c2.979-3.081,0.87-9.952-4.708-15.35C41.508,28.659,34.569,26.78,31.591,29.859z"/>
	<linearGradient id="XMLID_27_" gradientUnits="userSpaceOnUse" x1="42.3418" y1="28.4722" x2="42.3418" y2="49.5961">
		<stop  offset="0" style="stop-color:#494949"/>
		<stop  offset="0.196" style="stop-color:#414141"/>
		<stop  offset="0.2231" style="stop-color:#484848"/>
		<stop  offset="0.263" style="stop-color:#5C5C5C"/>
		<stop  offset="0.3108" style="stop-color:#7D7D7D"/>
		<stop  offset="0.3649" style="stop-color:#AAAAAA"/>
		<stop  offset="0.4233" style="stop-color:#E3E3E3"/>
		<stop  offset="0.449" style="stop-color:#FFFFFF"/>
		<stop  offset="0.479" style="stop-color:#FBFBFB"/>
		<stop  offset="0.5111" style="stop-color:#EEEEEE"/>
		<stop  offset="0.5441" style="stop-color:#D8D8D8"/>
		<stop  offset="0.5779" style="stop-color:#BABABA"/>
		<stop  offset="0.6121" style="stop-color:#949494"/>
		<stop  offset="0.6463" style="stop-color:#656565"/>
		<stop  offset="0.6479" style="stop-color:#636363"/>
		<stop  offset="0.6973" style="stop-color:#828282"/>
		<stop  offset="0.8044" style="stop-color:#CFCFCF"/>
		<stop  offset="0.8249" style="stop-color:#DFDFDF"/>
		<stop  offset="0.8537" style="stop-color:#DADADA"/>
		<stop  offset="0.8887" style="stop-color:#CBCBCB"/>
		<stop  offset="0.9269" style="stop-color:#B2B2B2"/>
		<stop  offset="0.9671" style="stop-color:#919191"/>
		<stop  offset="1" style="stop-color:#6F6F6F"/>
	</linearGradient>
	<path opacity="0.5" fill="url(#XMLID_27_)" d="M47.087,34.057c-5.579-5.397-12.518-7.277-15.496-4.197
		c-0.019,0.02-0.036,0.04-0.054,0.06c3.069-2.833,9.847-0.924,15.32,4.369c5.539,5.361,7.655,12.174,4.768,15.285l0,0
		c0.059-0.054,0.115-0.109,0.171-0.166C54.774,46.326,52.665,39.455,47.087,34.057z"/>
	
		<linearGradient id="XMLID_28_" gradientUnits="userSpaceOnUse" x1="99.1953" y1="23.0991" x2="99.1953" y2="52.3149" gradientTransform="matrix(0.6953 -0.7187 0.7187 0.6953 -50.7197 81.0093)">
		<stop  offset="0" style="stop-color:#1C370F"/>
		<stop  offset="0.0649" style="stop-color:#244010"/>
		<stop  offset="0.1723" style="stop-color:#395912"/>
		<stop  offset="0.196" style="stop-color:#3F6013"/>
		<stop  offset="0.2211" style="stop-color:#466718"/>
		<stop  offset="0.258" style="stop-color:#5A7B26"/>
		<stop  offset="0.3023" style="stop-color:#7A9C3C"/>
		<stop  offset="0.3523" style="stop-color:#A7C95B"/>
		<stop  offset="0.4036" style="stop-color:#DDFF80"/>
		<stop  offset="0.4462" style="stop-color:#D9FD7C"/>
		<stop  offset="0.4917" style="stop-color:#CCF76F"/>
		<stop  offset="0.5199" style="stop-color:#C0F164"/>
		<stop  offset="0.5454" style="stop-color:#9CC94D"/>
		<stop  offset="0.578" style="stop-color:#749C34"/>
		<stop  offset="0.6072" style="stop-color:#577B22"/>
		<stop  offset="0.6315" style="stop-color:#456717"/>
		<stop  offset="0.6479" style="stop-color:#3F6013"/>
		<stop  offset="0.7048" style="stop-color:#597F1F"/>
		<stop  offset="0.8249" style="stop-color:#98CA3E"/>
		<stop  offset="0.8495" style="stop-color:#94C53C"/>
		<stop  offset="0.8794" style="stop-color:#87B638"/>
		<stop  offset="0.9119" style="stop-color:#729D30"/>
		<stop  offset="0.9465" style="stop-color:#567B25"/>
		<stop  offset="0.9822" style="stop-color:#315017"/>
		<stop  offset="1" style="stop-color:#1C370F"/>
	</linearGradient>
	<path fill="url(#XMLID_28_)" d="M32.709,27.549c-0.652,0.673-1.072,1.519-1.279,2.486c0.052-0.06,0.105-0.118,0.161-0.176
		c2.979-3.08,9.917-1.2,15.496,4.197c5.578,5.398,7.688,12.27,4.708,15.35c-0.056,0.057-0.112,0.112-0.171,0.166
		c0.96-0.239,1.791-0.688,2.443-1.361c3.149-3.255,0.922-10.519-4.977-16.225S35.858,24.294,32.709,27.549z"/>
	<linearGradient id="XMLID_29_" gradientUnits="userSpaceOnUse" x1="42.3789" y1="28.4565" x2="42.3789" y2="49.4343">
		<stop  offset="0" style="stop-color:#3F6013"/>
		<stop  offset="0.196" style="stop-color:#3F6013"/>
		<stop  offset="0.2266" style="stop-color:#466718"/>
		<stop  offset="0.2716" style="stop-color:#5A7B26"/>
		<stop  offset="0.3256" style="stop-color:#7A9C3C"/>
		<stop  offset="0.3865" style="stop-color:#A7C95B"/>
		<stop  offset="0.449" style="stop-color:#DDFF80"/>
		<stop  offset="0.4951" style="stop-color:#D9FC7C"/>
		<stop  offset="0.5444" style="stop-color:#CCF270"/>
		<stop  offset="0.5952" style="stop-color:#B6E15B"/>
		<stop  offset="0.6468" style="stop-color:#99CB3F"/>
		<stop  offset="0.6479" style="stop-color:#98CA3E"/>
		<stop  offset="0.7861" style="stop-color:#B7E85B"/>
		<stop  offset="0.8249" style="stop-color:#C0F164"/>
		<stop  offset="0.8776" style="stop-color:#BBEC5F"/>
		<stop  offset="0.9413" style="stop-color:#ACDE51"/>
		<stop  offset="1" style="stop-color:#98CA3E"/>
	</linearGradient>
	<path opacity="0.9" fill="url(#XMLID_29_)" d="M51.624,49.573c3.671-2.725,1.045-10.386-4.4-15.655
		c-5.448-5.27-13.102-7.563-15.793-3.883c0.052-0.06,0.105-0.118,0.161-0.176c2.979-3.08,9.917-1.2,15.496,4.197
		c5.578,5.398,7.688,12.27,4.708,15.35C51.739,49.463,51.683,49.519,51.624,49.573z"/>
	
		<linearGradient id="XMLID_30_" gradientUnits="userSpaceOnUse" x1="89.0391" y1="22.4424" x2="89.0391" y2="53.3581" gradientTransform="matrix(0.6953 -0.7187 0.7187 0.6953 -50.7197 81.0093)">
		<stop  offset="0" style="stop-color:#98CA3E"/>
		<stop  offset="0.0803" style="stop-color:#ACDE51"/>
		<stop  offset="0.1676" style="stop-color:#BBEC5F"/>
		<stop  offset="0.2397" style="stop-color:#C0F164"/>
		<stop  offset="0.3007" style="stop-color:#7CA639"/>
		<stop  offset="0.3296" style="stop-color:#618727"/>
		<stop  offset="0.3489" style="stop-color:#678E2B"/>
		<stop  offset="0.3775" style="stop-color:#79A237"/>
		<stop  offset="0.4118" style="stop-color:#96C349"/>
		<stop  offset="0.4502" style="stop-color:#BFF063"/>
		<stop  offset="0.4513" style="stop-color:#C0F164"/>
		<stop  offset="0.4881" style="stop-color:#CCF76F"/>
		<stop  offset="0.5474" style="stop-color:#D9FD7C"/>
		<stop  offset="0.603" style="stop-color:#DDFF80"/>
		<stop  offset="0.6526" style="stop-color:#A7C95B"/>
		<stop  offset="0.701" style="stop-color:#7A9C3C"/>
		<stop  offset="0.7439" style="stop-color:#5A7B26"/>
		<stop  offset="0.7797" style="stop-color:#466718"/>
		<stop  offset="0.804" style="stop-color:#3F6013"/>
		<stop  offset="0.8193" style="stop-color:#395912"/>
		<stop  offset="0.8887" style="stop-color:#244010"/>
		<stop  offset="0.9307" style="stop-color:#1C370F"/>
		<stop  offset="0.9419" style="stop-color:#1F3B10"/>
		<stop  offset="0.9534" style="stop-color:#2A4714"/>
		<stop  offset="0.965" style="stop-color:#3B5C1B"/>
		<stop  offset="0.9767" style="stop-color:#537924"/>
		<stop  offset="0.9883" style="stop-color:#729D30"/>
		<stop  offset="1" style="stop-color:#98CA3E"/>
	</linearGradient>
	<path fill="url(#XMLID_30_)" d="M36.998,44.486c-6.144-5.943-8.33-13.648-4.884-17.21l-3.74,3.866
		c-3.445,3.562-1.259,11.267,4.884,17.209c6.143,5.942,13.916,7.873,17.362,4.312l3.74-3.866
		C50.913,52.36,43.141,50.429,36.998,44.486z"/>
	
		<linearGradient id="XMLID_31_" gradientUnits="userSpaceOnUse" x1="80.5479" y1="31.1445" x2="63.3031" y2="59.0126" gradientTransform="matrix(0.6932 -0.7207 0.7207 0.6932 -39.0685 58.7865)">
		<stop  offset="0" style="stop-color:#3F6013"/>
		<stop  offset="0.0617" style="stop-color:#3F6013"/>
		<stop  offset="0.0922" style="stop-color:#5B8121"/>
		<stop  offset="0.1446" style="stop-color:#87B636"/>
		<stop  offset="0.1703" style="stop-color:#98CA3E"/>
		<stop  offset="0.2478" style="stop-color:#638B2A"/>
		<stop  offset="0.3565" style="stop-color:#1C370F"/>
		<stop  offset="0.4291" style="stop-color:#1F3A0F"/>
		<stop  offset="0.4853" style="stop-color:#274410"/>
		<stop  offset="0.5358" style="stop-color:#355412"/>
		<stop  offset="0.5619" style="stop-color:#3F6013"/>
		<stop  offset="0.577" style="stop-color:#456716"/>
		<stop  offset="0.5985" style="stop-color:#54791D"/>
		<stop  offset="0.6238" style="stop-color:#6E982A"/>
		<stop  offset="0.6519" style="stop-color:#92C23B"/>
		<stop  offset="0.6564" style="stop-color:#98CA3E"/>
		<stop  offset="0.7893" style="stop-color:#E9FF8C"/>
		<stop  offset="0.7901" style="stop-color:#EAFF8C"/>
		<stop  offset="0.8316" style="stop-color:#D3F076"/>
		<stop  offset="0.9016" style="stop-color:#B3DB58"/>
		<stop  offset="0.9602" style="stop-color:#9FCF45"/>
		<stop  offset="1" style="stop-color:#98CA3E"/>
	</linearGradient>
	<path fill="url(#XMLID_31_)" d="M32.114,27.276c-3.446,3.562-1.26,11.267,4.884,17.21c6.143,5.943,13.916,7.874,17.363,4.311
		c3.445-3.561,1.258-11.266-4.885-17.209C43.333,25.646,35.559,23.715,32.114,27.276z M54.067,48.211
		c-0.652,0.674-1.483,1.122-2.443,1.361l0,0c-3.68,0.913-9.261-1.273-13.938-5.798c-4.678-4.526-7.046-10.031-6.255-13.74
		c0.207-0.967,0.627-1.813,1.279-2.486c3.149-3.255,10.483-1.269,16.381,4.437S57.217,44.957,54.067,48.211z"/>
	
		<linearGradient id="XMLID_32_" gradientUnits="userSpaceOnUse" x1="86.5635" y1="52.6802" x2="88.9609" y2="52.6802" gradientTransform="matrix(0.8095 -0.587 0.587 0.8095 -50.3834 64.3205)">
		<stop  offset="0" style="stop-color:#3F6013"/>
		<stop  offset="0.0129" style="stop-color:#426415"/>
		<stop  offset="0.1112" style="stop-color:#597D22"/>
		<stop  offset="0.1703" style="stop-color:#618727"/>
		<stop  offset="0.3687" style="stop-color:#1C370F"/>
		<stop  offset="0.4115" style="stop-color:#1F3A0F"/>
		<stop  offset="0.4446" style="stop-color:#274410"/>
		<stop  offset="0.4744" style="stop-color:#355412"/>
		<stop  offset="0.4898" style="stop-color:#3F6013"/>
		<stop  offset="0.5099" style="stop-color:#456716"/>
		<stop  offset="0.5386" style="stop-color:#54791D"/>
		<stop  offset="0.5725" style="stop-color:#6E982A"/>
		<stop  offset="0.6099" style="stop-color:#92C23B"/>
		<stop  offset="0.616" style="stop-color:#98CA3E"/>
		<stop  offset="0.7439" style="stop-color:#E9FF8C"/>
		<stop  offset="0.7447" style="stop-color:#EAFF8C"/>
		<stop  offset="0.7681" style="stop-color:#C9E374"/>
		<stop  offset="0.8049" style="stop-color:#9DBB53"/>
		<stop  offset="0.8377" style="stop-color:#7C9F3B"/>
		<stop  offset="0.8651" style="stop-color:#688D2C"/>
		<stop  offset="0.8836" style="stop-color:#618727"/>
		<stop  offset="0.9089" style="stop-color:#668D29"/>
		<stop  offset="0.9424" style="stop-color:#749E2F"/>
		<stop  offset="0.9803" style="stop-color:#8AB938"/>
		<stop  offset="1" style="stop-color:#98CA3E"/>
	</linearGradient>
	<path fill="url(#XMLID_32_)" d="M54.431,57.333c0.388,0.535,0.269,1.286-0.266,1.674l0,0c-0.537,0.389-1.286,0.269-1.674-0.266
		l-3.947-5.441c-0.359-0.521,0.016-1.084,0.484-1.428c0.501-0.368,1.068-0.516,1.457,0.021L54.431,57.333z"/>
	
		<linearGradient id="XMLID_33_" gradientUnits="userSpaceOnUse" x1="85.5225" y1="57.5562" x2="90.0039" y2="57.5562" gradientTransform="matrix(0.8095 -0.587 0.587 0.8095 -50.3834 64.3205)">
		<stop  offset="0" style="stop-color:#3F6013"/>
		<stop  offset="0.0129" style="stop-color:#426415"/>
		<stop  offset="0.1112" style="stop-color:#597D22"/>
		<stop  offset="0.1703" style="stop-color:#618727"/>
		<stop  offset="0.3479" style="stop-color:#1C370F"/>
		<stop  offset="0.384" style="stop-color:#1F3A0F"/>
		<stop  offset="0.412" style="stop-color:#274410"/>
		<stop  offset="0.4372" style="stop-color:#355412"/>
		<stop  offset="0.4501" style="stop-color:#3F6013"/>
		<stop  offset="0.4766" style="stop-color:#456716"/>
		<stop  offset="0.5143" style="stop-color:#54791D"/>
		<stop  offset="0.5588" style="stop-color:#6E982A"/>
		<stop  offset="0.608" style="stop-color:#92C23B"/>
		<stop  offset="0.616" style="stop-color:#98CA3E"/>
		<stop  offset="0.7439" style="stop-color:#E9FF8C"/>
		<stop  offset="0.7447" style="stop-color:#EAFF8C"/>
		<stop  offset="0.7681" style="stop-color:#C9E374"/>
		<stop  offset="0.8049" style="stop-color:#9DBB53"/>
		<stop  offset="0.8377" style="stop-color:#7C9F3B"/>
		<stop  offset="0.8651" style="stop-color:#688D2C"/>
		<stop  offset="0.8836" style="stop-color:#618727"/>
		<stop  offset="0.9089" style="stop-color:#668D29"/>
		<stop  offset="0.9424" style="stop-color:#749E2F"/>
		<stop  offset="0.9803" style="stop-color:#8AB938"/>
		<stop  offset="1" style="stop-color:#98CA3E"/>
	</linearGradient>
	<path fill="url(#XMLID_33_)" d="M53.081,57.514c-1.227,0.889-1.407,1.876-0.729,2.809l1.645,2.269
		c0.12-0.624,0.557-1.282,1.397-1.892c0.838-0.606,1.6-0.818,2.23-0.739l-1.646-2.269C55.301,56.757,54.309,56.624,53.081,57.514z"
		/>
	
		<linearGradient id="XMLID_34_" gradientUnits="userSpaceOnUse" x1="85.2158" y1="69.5894" x2="90.3086" y2="69.5894" gradientTransform="matrix(0.8095 -0.587 0.587 0.8095 -50.3834 64.3205)">
		<stop  offset="0" style="stop-color:#1C370F"/>
		<stop  offset="0.1869" style="stop-color:#1C370F"/>
		<stop  offset="0.392" style="stop-color:#618727"/>
		<stop  offset="0.4321" style="stop-color:#658C2A"/>
		<stop  offset="0.477" style="stop-color:#719931"/>
		<stop  offset="0.5241" style="stop-color:#85AF3E"/>
		<stop  offset="0.5724" style="stop-color:#A1CE50"/>
		<stop  offset="0.616" style="stop-color:#C0F164"/>
		<stop  offset="0.7447" style="stop-color:#DDFF80"/>
		<stop  offset="0.7591" style="stop-color:#C9EC72"/>
		<stop  offset="0.7961" style="stop-color:#9DC152"/>
		<stop  offset="0.8291" style="stop-color:#7CA13A"/>
		<stop  offset="0.8566" style="stop-color:#688E2C"/>
		<stop  offset="0.8753" style="stop-color:#618727"/>
		<stop  offset="0.8996" style="stop-color:#5C8125"/>
		<stop  offset="0.9317" style="stop-color:#4E7020"/>
		<stop  offset="0.968" style="stop-color:#365518"/>
		<stop  offset="1" style="stop-color:#1C370F"/>
	</linearGradient>
	<path fill="url(#XMLID_34_)" d="M55.394,60.7c-0.954,0.691-1.277,1.268-1.397,1.892l0.021,0.548l11.156,15.387l0.615,0.378
		c-0.305-0.407,0.471-1.063,1.501-1.813c1.028-0.749,1.914-1.304,2.208-0.891l-0.194-0.652L58.138,60.15l-0.514-0.189
		C56.993,59.881,56.346,60.01,55.394,60.7z"/>
	
		<linearGradient id="XMLID_35_" gradientUnits="userSpaceOnUse" x1="85.2168" y1="59.7515" x2="90.3086" y2="59.7515" gradientTransform="matrix(0.8095 -0.587 0.587 0.8095 -50.3834 64.3205)">
		<stop  offset="0" style="stop-color:#1C370F"/>
		<stop  offset="0.0205" style="stop-color:#213D10"/>
		<stop  offset="0.1244" style="stop-color:#375612"/>
		<stop  offset="0.1869" style="stop-color:#3F6013"/>
		<stop  offset="0.2505" style="stop-color:#375612"/>
		<stop  offset="0.3583" style="stop-color:#203B0F"/>
		<stop  offset="0.3736" style="stop-color:#1C370F"/>
		<stop  offset="0.4203" style="stop-color:#223E11"/>
		<stop  offset="0.4886" style="stop-color:#335217"/>
		<stop  offset="0.5697" style="stop-color:#4E7221"/>
		<stop  offset="0.616" style="stop-color:#618727"/>
		<stop  offset="0.7447" style="stop-color:#98CA3E"/>
		<stop  offset="0.755" style="stop-color:#92C23B"/>
		<stop  offset="0.805" style="stop-color:#77A230"/>
		<stop  offset="0.8469" style="stop-color:#678E29"/>
		<stop  offset="0.8753" style="stop-color:#618727"/>
		<stop  offset="0.8996" style="stop-color:#5C8125"/>
		<stop  offset="0.9317" style="stop-color:#4E7020"/>
		<stop  offset="0.968" style="stop-color:#365518"/>
		<stop  offset="1" style="stop-color:#1C370F"/>
	</linearGradient>
	<path opacity="0.8" fill="url(#XMLID_35_)" d="M55.394,60.7c-0.954,0.691-1.277,1.268-1.397,1.892l0.021,0.548
		c0,0,0.075-0.907,1.655-2.053c1.581-1.147,2.466-0.937,2.466-0.937l-0.514-0.189C56.993,59.881,56.346,60.01,55.394,60.7z"/>
	
		<radialGradient id="XMLID_36_" cx="63.6934" cy="67.106" r="2.3237" gradientTransform="matrix(0.8078 -0.5894 0.5894 0.8078 -34.3457 44.093)" gradientUnits="userSpaceOnUse">
		<stop  offset="0" style="stop-color:#FFFFFF"/>
		<stop  offset="0.1052" style="stop-color:#F2F4EE"/>
		<stop  offset="0.3124" style="stop-color:#CED7C3"/>
		<stop  offset="0.6017" style="stop-color:#96A87D"/>
		<stop  offset="0.959" style="stop-color:#48681E"/>
		<stop  offset="1" style="stop-color:#3F6013"/>
	</radialGradient>
	<path opacity="0.5" fill="url(#XMLID_36_)" d="M54.056,63.194c0,0,0-0.021,0.007-0.061c0.01-0.038,0.016-0.097,0.042-0.167
		c0.011-0.034,0.024-0.074,0.037-0.117c0.018-0.041,0.039-0.084,0.06-0.132c0.021-0.047,0.044-0.098,0.07-0.149
		c0.03-0.049,0.063-0.101,0.097-0.154c0.035-0.054,0.067-0.113,0.109-0.169c0.043-0.053,0.088-0.109,0.132-0.166
		c0.046-0.057,0.093-0.116,0.141-0.176c0.054-0.055,0.11-0.109,0.166-0.166c0.115-0.111,0.226-0.234,0.36-0.334
		c0.132-0.105,0.266-0.212,0.397-0.319c0.142-0.091,0.283-0.184,0.421-0.274c0.134-0.096,0.289-0.164,0.429-0.239
		c0.072-0.035,0.142-0.072,0.211-0.106c0.073-0.026,0.143-0.053,0.212-0.079c0.069-0.025,0.135-0.051,0.199-0.074
		c0.066-0.023,0.133-0.034,0.192-0.051c0.063-0.016,0.122-0.031,0.179-0.044c0.057-0.011,0.111-0.014,0.163-0.021
		c0.052-0.005,0.101-0.013,0.145-0.016c0.046,0.001,0.086,0,0.123-0.001c0.074-0.002,0.133,0.011,0.172,0.015
		c0.039,0.005,0.059,0.012,0.059,0.012s-0.02-0.004-0.06-0.005c-0.039,0.002-0.098-0.003-0.17,0.006
		c-0.036,0.004-0.077,0.007-0.12,0.012c-0.044,0.006-0.091,0.018-0.14,0.026c-0.05,0.012-0.104,0.02-0.158,0.035
		c-0.055,0.017-0.111,0.034-0.171,0.054c-0.061,0.02-0.122,0.034-0.186,0.061c-0.062,0.026-0.124,0.054-0.191,0.082
		c-0.064,0.029-0.132,0.06-0.201,0.089c-0.065,0.037-0.133,0.074-0.199,0.111c-0.137,0.076-0.279,0.146-0.414,0.243
		c-0.14,0.092-0.279,0.187-0.419,0.278c-0.129,0.104-0.261,0.205-0.388,0.306C55.228,61.6,55.115,61.716,55,61.821
		c-0.057,0.055-0.113,0.105-0.169,0.157c-0.05,0.057-0.099,0.11-0.146,0.164c-0.046,0.053-0.094,0.105-0.139,0.156
		c-0.043,0.051-0.077,0.106-0.114,0.156c-0.036,0.052-0.07,0.101-0.104,0.146c-0.031,0.049-0.055,0.097-0.082,0.14
		c-0.023,0.044-0.05,0.084-0.069,0.125c-0.018,0.04-0.032,0.078-0.047,0.111c-0.031,0.065-0.046,0.121-0.059,0.158
		C54.059,63.172,54.056,63.194,54.056,63.194z"/>
	
		<radialGradient id="XMLID_37_" cx="62.7295" cy="62.4204" r="2.2646" gradientTransform="matrix(0.8078 -0.5894 0.5894 0.8078 -34.3457 44.093)" gradientUnits="userSpaceOnUse">
		<stop  offset="0" style="stop-color:#FFFFFF"/>
		<stop  offset="0.1052" style="stop-color:#F2F4EE"/>
		<stop  offset="0.3124" style="stop-color:#CED7C3"/>
		<stop  offset="0.6017" style="stop-color:#96A87D"/>
		<stop  offset="0.959" style="stop-color:#48681E"/>
		<stop  offset="1" style="stop-color:#3F6013"/>
	</radialGradient>
	<path opacity="0.6" fill="url(#XMLID_37_)" d="M55.295,57.102c0,0-0.071-0.022-0.193-0.062c-0.062-0.025-0.141-0.026-0.227-0.041
		c-0.042-0.01-0.091-0.011-0.141-0.008c-0.049,0-0.101,0-0.154,0c-0.056,0.005-0.111,0.015-0.169,0.024
		c-0.057,0.008-0.116,0.016-0.175,0.038c-0.061,0.017-0.121,0.036-0.184,0.055c-0.061,0.022-0.122,0.051-0.185,0.076
		c-0.127,0.048-0.245,0.128-0.372,0.192c-0.122,0.072-0.243,0.159-0.359,0.238c-0.113,0.093-0.239,0.179-0.341,0.276
		c-0.103,0.099-0.21,0.188-0.292,0.295c-0.043,0.053-0.094,0.1-0.129,0.154c-0.036,0.054-0.073,0.106-0.107,0.156
		c-0.039,0.05-0.06,0.107-0.088,0.158c-0.024,0.054-0.054,0.103-0.07,0.153c-0.017,0.052-0.031,0.102-0.046,0.148
		c-0.008,0.023-0.016,0.047-0.023,0.07c-0.003,0.022-0.006,0.045-0.01,0.067c-0.006,0.044-0.012,0.085-0.018,0.122
		c-0.004,0.02-0.005,0.038-0.008,0.057c0,0.017,0.001,0.033,0.001,0.051c0.001,0.129,0.002,0.202,0.002,0.202
		s-0.01-0.074-0.029-0.202c-0.002-0.017-0.005-0.035-0.007-0.052c0.003-0.019,0.002-0.038,0.004-0.058
		c0.002-0.039,0.003-0.081,0.004-0.128c0.002-0.022,0.004-0.046,0.005-0.07c0.004-0.023,0.011-0.048,0.016-0.073
		c0.012-0.051,0.023-0.104,0.037-0.159c0.014-0.056,0.042-0.106,0.063-0.164c0.025-0.057,0.044-0.119,0.081-0.173
		c0.033-0.055,0.067-0.112,0.104-0.17c0.033-0.062,0.084-0.109,0.126-0.166c0.084-0.114,0.191-0.217,0.3-0.319
		c0.107-0.104,0.228-0.188,0.341-0.282c0.13-0.086,0.25-0.17,0.379-0.245c0.131-0.068,0.257-0.144,0.392-0.188
		c0.067-0.024,0.13-0.054,0.195-0.073c0.066-0.015,0.132-0.031,0.196-0.047c0.063-0.018,0.125-0.022,0.187-0.026
		c0.061-0.005,0.119-0.014,0.176-0.014c0.057,0.003,0.11,0.007,0.164,0.01c0.05,0.003,0.099,0.008,0.144,0.023
		c0.088,0.026,0.168,0.036,0.227,0.066C55.228,57.071,55.295,57.102,55.295,57.102z"/>
	
		<radialGradient id="XMLID_38_" cx="63.4521" cy="66.7544" r="1.6394" gradientTransform="matrix(0.8078 -0.5894 0.5894 0.8078 -34.3457 44.093)" gradientUnits="userSpaceOnUse">
		<stop  offset="0" style="stop-color:#FFFFFF"/>
		<stop  offset="0.1052" style="stop-color:#F2F4EE"/>
		<stop  offset="0.3124" style="stop-color:#CED7C3"/>
		<stop  offset="0.6017" style="stop-color:#96A87D"/>
		<stop  offset="0.959" style="stop-color:#48681E"/>
		<stop  offset="1" style="stop-color:#3F6013"/>
	</radialGradient>
	<path opacity="0.3" fill="url(#XMLID_38_)" d="M57.624,59.96c0,0-0.074-0.001-0.206-0.002c-0.065-0.001-0.144,0.012-0.232,0.019
		c-0.089,0.012-0.188,0.036-0.296,0.06c-0.104,0.036-0.221,0.064-0.334,0.119c-0.059,0.028-0.118,0.051-0.179,0.081
		c-0.058,0.031-0.118,0.064-0.179,0.097c-0.123,0.061-0.241,0.147-0.366,0.221c-0.119,0.079-0.243,0.168-0.362,0.249
		c-0.118,0.093-0.24,0.181-0.355,0.271c-0.106,0.098-0.226,0.18-0.321,0.279c-0.05,0.048-0.099,0.095-0.147,0.141
		c-0.047,0.047-0.088,0.096-0.131,0.143c-0.09,0.091-0.151,0.193-0.219,0.281c-0.031,0.046-0.053,0.094-0.078,0.137
		c-0.024,0.045-0.055,0.083-0.07,0.126c-0.034,0.083-0.07,0.153-0.089,0.215c-0.04,0.125-0.063,0.196-0.063,0.196
		s0.013-0.073,0.037-0.202c0.013-0.065,0.041-0.141,0.068-0.229c0.031-0.085,0.076-0.182,0.129-0.281
		c0.063-0.095,0.123-0.206,0.209-0.306c0.04-0.05,0.08-0.104,0.125-0.156c0.048-0.049,0.096-0.098,0.146-0.149
		c0.098-0.105,0.212-0.196,0.325-0.296c0.113-0.094,0.233-0.183,0.353-0.274c0.128-0.086,0.25-0.172,0.374-0.254
		c0.129-0.073,0.251-0.154,0.38-0.216c0.064-0.03,0.128-0.061,0.189-0.091c0.063-0.028,0.127-0.048,0.188-0.07
		c0.12-0.052,0.243-0.073,0.353-0.103c0.112-0.021,0.217-0.034,0.309-0.037c0.094,0.003,0.174-0.001,0.239,0.006
		C57.55,59.95,57.624,59.96,57.624,59.96z"/>
	
		<radialGradient id="XMLID_39_" cx="64.1348" cy="38.8257" r="14.2862" gradientTransform="matrix(0.6932 -0.7207 0.7207 0.6932 -39.0685 58.7865)" gradientUnits="userSpaceOnUse">
		<stop  offset="0.3955" style="stop-color:#FFFFFF"/>
		<stop  offset="0.459" style="stop-color:#F2F4EE"/>
		<stop  offset="0.5843" style="stop-color:#CED7C3"/>
		<stop  offset="0.7592" style="stop-color:#96A87D"/>
		<stop  offset="0.9752" style="stop-color:#48681E"/>
		<stop  offset="1" style="stop-color:#3F6013"/>
	</radialGradient>
	<path opacity="0.9" fill="url(#XMLID_39_)" d="M37.157,44.319c0.222,0.208,0.44,0.421,0.666,0.625
		c0.228,0.199,0.447,0.405,0.681,0.597c0.231,0.195,0.46,0.39,0.698,0.575c0.119,0.093,0.234,0.187,0.354,0.278
		c0.121,0.089,0.24,0.178,0.36,0.269c0.958,0.712,1.955,1.339,2.959,1.871c0.499,0.271,1.008,0.503,1.507,0.728
		c0.503,0.211,1.001,0.41,1.497,0.567c0.493,0.167,0.984,0.292,1.461,0.403c0.48,0.097,0.946,0.182,1.399,0.22
		c0.903,0.09,1.742,0.061,2.468-0.072c0.727-0.131,1.338-0.356,1.808-0.602c0.115-0.066,0.23-0.116,0.327-0.184
		c0.102-0.064,0.193-0.124,0.28-0.181c0.168-0.12,0.305-0.229,0.417-0.318c0.21-0.193,0.322-0.297,0.322-0.297
		s-0.11,0.107-0.314,0.307c-0.109,0.093-0.244,0.206-0.408,0.332c-0.086,0.059-0.178,0.122-0.277,0.188
		c-0.096,0.07-0.211,0.124-0.326,0.192c-0.469,0.256-1.08,0.499-1.813,0.646c-0.045,0.01-0.091,0.02-0.137,0.029
		c-0.048,0.008-0.094,0.015-0.143,0.021c-0.095,0.014-0.191,0.027-0.29,0.042c-0.197,0.025-0.4,0.038-0.608,0.055
		c-0.419,0.014-0.859,0.014-1.316-0.03c-0.459-0.032-0.933-0.112-1.419-0.203c-0.483-0.105-0.981-0.226-1.481-0.388
		c-0.504-0.152-1.009-0.348-1.521-0.554c-0.507-0.218-1.02-0.454-1.525-0.725c-1.016-0.533-2.024-1.161-2.994-1.875
		c-0.121-0.09-0.242-0.179-0.364-0.27c-0.12-0.089-0.238-0.186-0.357-0.279c-0.241-0.184-0.473-0.379-0.707-0.575
		c-0.236-0.191-0.46-0.4-0.691-0.601c-0.227-0.204-0.446-0.415-0.669-0.622c-0.878-0.856-1.697-1.765-2.441-2.712
		c-0.745-0.945-1.407-1.932-1.973-2.929c-0.287-0.497-0.54-1.001-0.774-1.502c-0.224-0.505-0.435-1.002-0.604-1.501
		c-0.179-0.495-0.315-0.988-0.437-1.468c-0.107-0.483-0.203-0.953-0.25-1.41c-0.06-0.456-0.074-0.897-0.073-1.315
		c0.01-0.209,0.015-0.414,0.034-0.611c0.011-0.098,0.022-0.195,0.032-0.291c0.006-0.048,0.012-0.095,0.017-0.142
		c0.008-0.047,0.017-0.093,0.024-0.139c0.122-0.737,0.345-1.356,0.586-1.833c0.064-0.117,0.115-0.234,0.181-0.333
		c0.064-0.101,0.124-0.194,0.18-0.282c0.12-0.169,0.23-0.308,0.318-0.419c0.193-0.211,0.295-0.324,0.295-0.324
		s-0.1,0.115-0.286,0.332c-0.085,0.114-0.19,0.256-0.305,0.427c-0.053,0.089-0.11,0.184-0.17,0.286
		c-0.064,0.099-0.111,0.217-0.172,0.334c-0.229,0.478-0.436,1.095-0.541,1.825c-0.007,0.046-0.015,0.092-0.022,0.138
		c-0.005,0.047-0.009,0.094-0.014,0.141c-0.008,0.095-0.017,0.191-0.026,0.289c-0.014,0.195-0.015,0.397-0.021,0.604
		c0.01,0.414,0.027,0.849,0.092,1.299c0.053,0.451,0.153,0.915,0.266,1.39c0.126,0.473,0.268,0.96,0.451,1.447
		c0.174,0.491,0.39,0.981,0.618,1.478c0.24,0.491,0.489,0.991,0.776,1.482c0.565,0.986,1.225,1.961,1.969,2.896"/>
	
		<radialGradient id="XMLID_40_" cx="66.1172" cy="52.5415" r="12.5841" gradientTransform="matrix(0.6932 -0.7207 0.7207 0.6932 -39.0685 58.7865)" gradientUnits="userSpaceOnUse">
		<stop  offset="0.3955" style="stop-color:#FFFFFF"/>
		<stop  offset="0.459" style="stop-color:#F2F4EE"/>
		<stop  offset="0.5843" style="stop-color:#CED7C3"/>
		<stop  offset="0.7592" style="stop-color:#96A87D"/>
		<stop  offset="0.9752" style="stop-color:#48681E"/>
		<stop  offset="1" style="stop-color:#3F6013"/>
	</radialGradient>
	<path opacity="0.5" fill="url(#XMLID_40_)" d="M32.846,27.423c0,0-0.095,0.11-0.274,0.318c-0.082,0.109-0.182,0.245-0.292,0.409
		c-0.051,0.085-0.105,0.176-0.164,0.274c-0.062,0.095-0.107,0.208-0.166,0.321c-0.22,0.458-0.418,1.05-0.52,1.75
		c-0.007,0.044-0.014,0.088-0.021,0.133c-0.004,0.044-0.009,0.09-0.013,0.135c-0.008,0.091-0.017,0.183-0.025,0.276
		c-0.014,0.188-0.015,0.381-0.02,0.58c0.008,0.397,0.024,0.814,0.087,1.246c0.051,0.433,0.147,0.877,0.254,1.334
		c0.122,0.454,0.257,0.921,0.433,1.388c0.167,0.471,0.374,0.941,0.592,1.418c0.23,0.471,0.469,0.951,0.745,1.421
		c0.542,0.946,1.175,1.881,1.889,2.778c0.71,0.897,1.497,1.761,2.331,2.568c0.213,0.199,0.423,0.404,0.638,0.598
		c0.218,0.191,0.429,0.39,0.654,0.574c0.221,0.187,0.442,0.374,0.669,0.55c0.114,0.089,0.225,0.181,0.339,0.267
		c0.115,0.085,0.23,0.172,0.345,0.257c0.919,0.684,1.875,1.286,2.839,1.796c0.479,0.259,0.967,0.482,1.445,0.697
		c0.483,0.202,0.961,0.394,1.437,0.544c0.474,0.161,0.944,0.281,1.401,0.388c0.461,0.093,0.908,0.173,1.342,0.211
		c0.867,0.085,1.672,0.059,2.369-0.07c0.697-0.124,1.281-0.342,1.732-0.577c0.111-0.063,0.223-0.11,0.316-0.176
		c0.095-0.061,0.184-0.119,0.268-0.173c0.159-0.116,0.292-0.22,0.398-0.306c0.201-0.186,0.309-0.284,0.309-0.284
		s-0.104,0.103-0.3,0.293c-0.104,0.089-0.234,0.198-0.392,0.319c-0.082,0.056-0.17,0.115-0.266,0.181
		c-0.093,0.066-0.203,0.119-0.313,0.184c-0.449,0.247-1.035,0.479-1.738,0.62c-0.044,0.01-0.088,0.019-0.132,0.028
		c-0.045,0.007-0.091,0.015-0.137,0.021c-0.091,0.014-0.184,0.027-0.278,0.041c-0.188,0.024-0.384,0.036-0.584,0.052
		c-0.402,0.014-0.825,0.014-1.263-0.029c-0.441-0.03-0.895-0.107-1.361-0.195c-0.463-0.101-0.941-0.216-1.422-0.372
		c-0.482-0.146-0.967-0.332-1.459-0.531c-0.486-0.208-0.979-0.436-1.463-0.694c-0.976-0.511-1.942-1.114-2.873-1.799
		c-0.116-0.086-0.232-0.172-0.349-0.258c-0.115-0.087-0.228-0.179-0.343-0.268c-0.231-0.177-0.455-0.364-0.678-0.553
		c-0.227-0.183-0.442-0.384-0.664-0.577c-0.218-0.196-0.428-0.398-0.642-0.597c-0.842-0.821-1.627-1.693-2.341-2.602
		c-0.716-0.906-1.351-1.853-1.893-2.81c-0.275-0.477-0.518-0.96-0.743-1.44c-0.214-0.484-0.417-0.962-0.58-1.44
		c-0.171-0.475-0.302-0.949-0.418-1.409c-0.104-0.463-0.194-0.914-0.241-1.353c-0.056-0.438-0.071-0.861-0.07-1.262
		c0.01-0.201,0.015-0.397,0.033-0.586c0.01-0.095,0.021-0.188,0.031-0.28c0.006-0.046,0.011-0.091,0.016-0.137
		c0.008-0.044,0.016-0.088,0.024-0.133c0.117-0.707,0.33-1.3,0.562-1.758c0.062-0.112,0.11-0.225,0.173-0.32
		c0.062-0.096,0.119-0.186,0.173-0.271c0.115-0.162,0.22-0.295,0.306-0.402C32.747,27.53,32.846,27.423,32.846,27.423z"/>
	
		<radialGradient id="XMLID_41_" cx="79.8799" cy="49.4009" r="13.6483" gradientTransform="matrix(0.6932 -0.7207 0.7207 0.6932 -39.0685 58.7865)" gradientUnits="userSpaceOnUse">
		<stop  offset="0.3955" style="stop-color:#FFFFFF"/>
		<stop  offset="0.459" style="stop-color:#F2F4EE"/>
		<stop  offset="0.5843" style="stop-color:#CED7C3"/>
		<stop  offset="0.7592" style="stop-color:#96A87D"/>
		<stop  offset="0.9752" style="stop-color:#48681E"/>
		<stop  offset="1" style="stop-color:#3F6013"/>
	</radialGradient>
	<path opacity="0.7" fill="url(#XMLID_41_)" d="M32.709,27.549c0,0,0.104-0.101,0.298-0.29c0.209-0.171,0.514-0.435,0.97-0.662
		c0.45-0.233,1.037-0.446,1.737-0.565c0.698-0.121,1.506-0.136,2.372-0.041c0.868,0.092,1.792,0.309,2.739,0.623
		c0.948,0.312,1.917,0.736,2.875,1.253c0.48,0.254,0.955,0.541,1.43,0.837c0.47,0.305,0.94,0.622,1.397,0.963
		c0.919,0.68,1.807,1.431,2.644,2.235c0.828,0.807,1.612,1.673,2.321,2.568c0.356,0.446,0.688,0.906,1.009,1.365
		c0.311,0.465,0.614,0.929,0.884,1.401c0.549,0.94,1.005,1.894,1.348,2.832c0.346,0.937,0.593,1.854,0.713,2.718
		c0.124,0.862,0.136,1.67,0.038,2.372c-0.096,0.703-0.289,1.296-0.507,1.754c-0.212,0.464-0.466,0.777-0.63,0.992
		c-0.182,0.2-0.279,0.308-0.279,0.308s0.094-0.109,0.27-0.314c0.157-0.22,0.397-0.54,0.599-1.003
		c0.206-0.458,0.384-1.05,0.462-1.746c0.081-0.695,0.051-1.491-0.08-2.341c-0.132-0.853-0.389-1.756-0.742-2.677
		c-0.353-0.924-0.819-1.859-1.363-2.791c-0.27-0.466-0.572-0.925-0.882-1.384c-0.321-0.454-0.651-0.908-1.007-1.349
		c-0.709-0.886-1.483-1.734-2.313-2.536c-0.827-0.801-1.704-1.55-2.611-2.227c-0.453-0.342-0.918-0.657-1.381-0.962
		c-0.471-0.296-0.938-0.582-1.414-0.836c-0.948-0.513-1.899-0.949-2.833-1.27c-0.934-0.324-1.844-0.55-2.701-0.653
		c-0.854-0.104-1.651-0.107-2.344-0.003c-0.693,0.101-1.277,0.298-1.729,0.52c-0.457,0.216-0.769,0.467-0.982,0.631
		C32.816,27.452,32.709,27.549,32.709,27.549z"/>
	
		<radialGradient id="XMLID_42_" cx="77.9131" cy="32.2065" r="10.3297" gradientTransform="matrix(0.6932 -0.7207 0.7207 0.6932 -39.0685 58.7865)" gradientUnits="userSpaceOnUse">
		<stop  offset="0.3955" style="stop-color:#FFFFFF"/>
		<stop  offset="0.4667" style="stop-color:#EEEEEE"/>
		<stop  offset="0.6072" style="stop-color:#C3C3C3"/>
		<stop  offset="0.8033" style="stop-color:#7E7E7E"/>
		<stop  offset="1" style="stop-color:#313131"/>
	</radialGradient>
	<path fill="url(#XMLID_42_)" d="M49.476,31.588c0,0-0.229-0.201-0.631-0.552c-0.207-0.169-0.45-0.381-0.742-0.612
		c-0.146-0.115-0.301-0.238-0.465-0.367c-0.166-0.125-0.34-0.257-0.521-0.396c-0.368-0.271-0.771-0.558-1.207-0.848
		c-0.217-0.146-0.446-0.287-0.678-0.436c-0.234-0.142-0.475-0.289-0.72-0.433c-0.25-0.137-0.498-0.288-0.761-0.42
		c-0.129-0.068-0.26-0.137-0.392-0.206c-0.134-0.065-0.268-0.13-0.401-0.195c-0.269-0.136-0.548-0.249-0.823-0.375
		c-0.282-0.111-0.561-0.233-0.848-0.332c-0.568-0.215-1.151-0.392-1.732-0.533c-0.58-0.146-1.162-0.243-1.729-0.296
		c-0.283-0.033-0.563-0.036-0.836-0.049c-0.137,0.001-0.272,0.003-0.406,0.004c-0.134-0.001-0.265,0.016-0.396,0.022
		c-0.52,0.04-1.009,0.12-1.446,0.247c-0.222,0.053-0.424,0.138-0.621,0.202c-0.097,0.038-0.188,0.081-0.279,0.119
		c-0.09,0.039-0.179,0.074-0.26,0.119c-0.332,0.166-0.606,0.338-0.822,0.494c-0.107,0.08-0.202,0.151-0.285,0.213
		c-0.078,0.068-0.144,0.127-0.197,0.173c-0.107,0.095-0.165,0.145-0.165,0.145s0.056-0.051,0.161-0.148
		c0.053-0.049,0.117-0.108,0.193-0.179c0.083-0.064,0.175-0.137,0.281-0.22c0.213-0.161,0.485-0.34,0.814-0.515
		c0.08-0.048,0.169-0.085,0.259-0.127c0.09-0.041,0.183-0.085,0.278-0.125c0.198-0.069,0.401-0.156,0.625-0.212
		c0.439-0.134,0.933-0.222,1.457-0.269c0.131-0.008,0.264-0.026,0.399-0.026c0.135-0.004,0.271-0.006,0.41-0.01
		c0.276,0.007,0.559,0.012,0.845,0.044c0.571,0.051,1.159,0.146,1.744,0.29c0.586,0.14,1.173,0.316,1.747,0.53
		c0.288,0.101,0.568,0.225,0.852,0.338c0.276,0.127,0.557,0.244,0.826,0.38c0.134,0.066,0.269,0.132,0.402,0.198
		c0.132,0.07,0.264,0.139,0.393,0.208c0.264,0.134,0.512,0.286,0.762,0.426c0.247,0.146,0.488,0.293,0.721,0.439
		c0.229,0.153,0.459,0.296,0.674,0.446c0.434,0.296,0.834,0.589,1.199,0.866c0.18,0.14,0.354,0.275,0.518,0.404
		c0.16,0.133,0.313,0.26,0.456,0.378c0.286,0.237,0.526,0.457,0.728,0.63C49.251,31.382,49.476,31.588,49.476,31.588z"/>
	
		<radialGradient id="XMLID_43_" cx="63.7393" cy="85.8237" r="1.9719" gradientTransform="matrix(0.8078 -0.5894 0.5894 0.8078 -34.3457 44.093)" gradientUnits="userSpaceOnUse">
		<stop  offset="0" style="stop-color:#FFFFFF"/>
		<stop  offset="0.1052" style="stop-color:#F2F4EE"/>
		<stop  offset="0.3124" style="stop-color:#CED7C3"/>
		<stop  offset="0.6017" style="stop-color:#96A87D"/>
		<stop  offset="0.959" style="stop-color:#48681E"/>
		<stop  offset="1" style="stop-color:#3F6013"/>
	</radialGradient>
	<path opacity="0.5" fill="url(#XMLID_43_)" d="M67.101,75.987c0.133-0.097,0.287-0.166,0.429-0.24
		c0.071-0.036,0.142-0.071,0.21-0.106c0.071-0.027,0.143-0.053,0.21-0.078c0.069-0.026,0.136-0.05,0.201-0.074
		c0.064-0.022,0.131-0.035,0.192-0.052c0.063-0.016,0.12-0.031,0.178-0.045c0.057-0.01,0.113-0.013,0.164-0.02
		c0.052-0.005,0.1-0.014,0.145-0.016c0.044,0,0.085,0,0.122,0.001c0.075-0.004,0.133,0.009,0.172,0.013
		c0.04,0.005,0.061,0.013,0.061,0.013s-0.021-0.005-0.062-0.005c-0.039,0-0.097-0.003-0.17,0.005
		c-0.035,0.003-0.076,0.007-0.12,0.012c-0.043,0.006-0.09,0.018-0.14,0.026c-0.051,0.011-0.103,0.021-0.159,0.035
		c-0.053,0.017-0.11,0.035-0.17,0.055c-0.059,0.02-0.123,0.034-0.185,0.06c-0.062,0.027-0.126,0.056-0.19,0.083
		c-0.065,0.028-0.135,0.059-0.201,0.089c-0.066,0.036-0.134,0.072-0.201,0.11c-0.137,0.076-0.278,0.146-0.415,0.243
		c-0.137,0.093-0.276,0.186-0.417,0.278c-0.131,0.104-0.261,0.206-0.389,0.308c-0.133,0.096-0.247,0.211-0.36,0.318
		c-0.059,0.052-0.113,0.104-0.169,0.155c-0.05,0.057-0.099,0.11-0.146,0.165c-0.048,0.052-0.094,0.104-0.14,0.154
		c-0.044,0.052-0.077,0.107-0.114,0.159c-0.036,0.049-0.072,0.098-0.104,0.145c-0.032,0.048-0.057,0.096-0.082,0.14
		s-0.051,0.085-0.069,0.124c-0.018,0.04-0.034,0.077-0.049,0.111c-0.031,0.065-0.046,0.122-0.058,0.16
		c-0.012,0.037-0.015,0.058-0.015,0.058s0-0.021,0.008-0.059c0.009-0.038,0.013-0.099,0.04-0.168
		c0.012-0.036,0.024-0.074,0.037-0.117c0.017-0.042,0.039-0.085,0.061-0.132c0.022-0.047,0.043-0.099,0.07-0.15
		c0.031-0.049,0.063-0.102,0.097-0.154c0.035-0.054,0.067-0.113,0.108-0.168c0.042-0.054,0.087-0.109,0.133-0.167
		c0.046-0.057,0.093-0.115,0.14-0.177c0.056-0.054,0.111-0.109,0.166-0.165c0.115-0.111,0.227-0.235,0.361-0.334"/>
	
		<linearGradient id="XMLID_44_" gradientUnits="userSpaceOnUse" x1="85.2363" y1="79.2065" x2="90.3281" y2="79.2065" gradientTransform="matrix(0.8095 -0.587 0.587 0.8095 -50.3834 64.3205)">
		<stop  offset="0" style="stop-color:#1C370F"/>
		<stop  offset="0.0205" style="stop-color:#213D10"/>
		<stop  offset="0.1244" style="stop-color:#375612"/>
		<stop  offset="0.1869" style="stop-color:#3F6013"/>
		<stop  offset="0.253" style="stop-color:#486A18"/>
		<stop  offset="0.3649" style="stop-color:#5F8526"/>
		<stop  offset="0.3736" style="stop-color:#618727"/>
		<stop  offset="0.4263" style="stop-color:#678E29"/>
		<stop  offset="0.5032" style="stop-color:#77A230"/>
		<stop  offset="0.5947" style="stop-color:#91C23B"/>
		<stop  offset="0.616" style="stop-color:#98CA3E"/>
		<stop  offset="0.7447" style="stop-color:#DDFF80"/>
		<stop  offset="0.7574" style="stop-color:#D3F877"/>
		<stop  offset="0.8064" style="stop-color:#B3DF58"/>
		<stop  offset="0.8475" style="stop-color:#9FCF45"/>
		<stop  offset="0.8753" style="stop-color:#98CA3E"/>
		<stop  offset="0.8919" style="stop-color:#93C43C"/>
		<stop  offset="0.9138" style="stop-color:#85B337"/>
		<stop  offset="0.9388" style="stop-color:#6E982E"/>
		<stop  offset="0.9659" style="stop-color:#4D7222"/>
		<stop  offset="0.9946" style="stop-color:#244112"/>
		<stop  offset="1" style="stop-color:#1C370F"/>
	</linearGradient>
	<path opacity="0.8" fill="url(#XMLID_44_)" d="M69.477,76.137l-0.194-0.652c0,0-0.62-0.578-2.524,0.811s-1.605,2.168-1.605,2.168
		l0.615,0.378l1.646-1.793"/>
	
		<linearGradient id="XMLID_45_" gradientUnits="userSpaceOnUse" x1="64.5693" y1="79.228" x2="68.2146" y2="81.6071" gradientTransform="matrix(0.809 -0.5878 0.5878 0.809 -33.1227 51.4322)">
		<stop  offset="0" style="stop-color:#000000"/>
		<stop  offset="0.4225" style="stop-color:#1C370F"/>
		<stop  offset="0.5339" style="stop-color:#223E11"/>
		<stop  offset="0.7004" style="stop-color:#345317"/>
		<stop  offset="0.9002" style="stop-color:#507421"/>
		<stop  offset="1" style="stop-color:#618727"/>
	</linearGradient>
	<path fill="url(#XMLID_45_)" d="M69.459,76.118c0.196,0.271-0.487,1.1-1.522,1.852c-1.035,0.753-2.034,1.146-2.23,0.875
		c-0.196-0.27,0.485-1.099,1.521-1.851C68.264,76.241,69.263,75.849,69.459,76.118z"/>
	<radialGradient id="XMLID_46_" cx="41.3726" cy="39.8403" r="11.9586" gradientUnits="userSpaceOnUse">
		<stop  offset="0" style="stop-color:#FFFFFF"/>
		<stop  offset="0.2509" style="stop-color:#FCFCFD"/>
		<stop  offset="0.4516" style="stop-color:#F2F4F8"/>
		<stop  offset="0.6349" style="stop-color:#E1E7F0"/>
		<stop  offset="0.8079" style="stop-color:#C9D4E4"/>
		<stop  offset="0.9722" style="stop-color:#ABBCD4"/>
		<stop  offset="1" style="stop-color:#A5B7D1"/>
	</radialGradient>
	<path opacity="0.97" fill="url(#XMLID_46_)" d="M47.087,34.057c-5.579-5.397-12.518-7.277-15.496-4.197
		c-0.056,0.058-0.108,0.116-0.161,0.176c-0.791,3.709,1.578,9.214,6.255,13.74c4.678,4.524,10.259,6.71,13.938,5.797
		c0.059-0.054,0.115-0.109,0.171-0.166C54.774,46.327,52.665,39.456,47.087,34.057z"/>
	
		<radialGradient id="XMLID_47_" cx="70.8525" cy="43.9868" r="10.7771" gradientTransform="matrix(0.6932 -0.7207 0.7207 0.6932 -39.0685 58.7865)" gradientUnits="userSpaceOnUse">
		<stop  offset="0" style="stop-color:#FFFFFF"/>
		<stop  offset="0.2835" style="stop-color:#FCFDFE"/>
		<stop  offset="0.4789" style="stop-color:#F3F6F9"/>
		<stop  offset="0.6477" style="stop-color:#E4E9F1"/>
		<stop  offset="0.8014" style="stop-color:#CED8E6"/>
		<stop  offset="0.9436" style="stop-color:#B2C2D8"/>
		<stop  offset="1" style="stop-color:#A5B7D1"/>
	</radialGradient>
	<path opacity="0.95" fill="url(#XMLID_47_)" d="M34.135,30.766c-2.094,2.164-0.06,7.526,4.542,11.979
		c4.602,4.452,10.029,6.308,12.123,4.145c2.092-2.164,0.059-7.526-4.543-11.979S36.228,28.603,34.135,30.766z"/>
	
		<linearGradient id="XMLID_48_" gradientUnits="userSpaceOnUse" x1="81.3467" y1="27.0073" x2="86.8311" y2="27.0073" gradientTransform="matrix(0.6953 -0.7188 0.7188 0.6953 -37.8585 73.2045)">
		<stop  offset="0" style="stop-color:#A5B7D1"/>
		<stop  offset="0.0097" style="stop-color:#A9BAD3"/>
		<stop  offset="0.0809" style="stop-color:#C4D0E1"/>
		<stop  offset="0.1619" style="stop-color:#DAE1EC"/>
		<stop  offset="0.2572" style="stop-color:#EBEFF5"/>
		<stop  offset="0.3752" style="stop-color:#F6F8FB"/>
		<stop  offset="0.5406" style="stop-color:#FDFDFE"/>
		<stop  offset="1" style="stop-color:#FFFFFF"/>
	</linearGradient>
	<path opacity="0.8" fill="url(#XMLID_48_)" d="M45.241,34.745c0.259-0.408,0.518-0.814,0.775-1.221
		c-4.104-3.717-8.809-5.466-12.199-4.17C33.817,29.354,38.581,28.482,45.241,34.745z"/>
	
		<linearGradient id="XMLID_49_" gradientUnits="userSpaceOnUse" x1="81.0176" y1="40.5151" x2="86.8057" y2="40.5153" gradientTransform="matrix(0.6953 -0.7188 0.7188 0.6953 -37.8585 73.2045)">
		<stop  offset="0" style="stop-color:#A5B7D1"/>
		<stop  offset="0.0422" style="stop-color:#AEBFD6"/>
		<stop  offset="0.1962" style="stop-color:#CCD6E5"/>
		<stop  offset="0.3603" style="stop-color:#E2E8F0"/>
		<stop  offset="0.5371" style="stop-color:#F2F5F9"/>
		<stop  offset="0.7354" style="stop-color:#FCFDFD"/>
		<stop  offset="1" style="stop-color:#FFFFFF"/>
	</linearGradient>
	<path opacity="0.8" fill="url(#XMLID_49_)" d="M46.781,36.298c5.544,6.038,4.868,10.761,4.868,10.761
		c1.367-3.33-0.355-7.975-4.08-12C47.307,35.472,47.044,35.885,46.781,36.298z"/>
	
		<linearGradient id="XMLID_50_" gradientUnits="userSpaceOnUse" x1="74.8379" y1="34.0654" x2="78.04" y2="34.0654" gradientTransform="matrix(0.6953 -0.7188 0.7188 0.6953 -37.8585 73.2045)">
		<stop  offset="0" style="stop-color:#FFFFFF"/>
		<stop  offset="0.3003" style="stop-color:#FCFDFE"/>
		<stop  offset="0.4931" style="stop-color:#F4F6F9"/>
		<stop  offset="0.6556" style="stop-color:#E5EAF2"/>
		<stop  offset="0.8014" style="stop-color:#D0D9E7"/>
		<stop  offset="0.9347" style="stop-color:#B5C4D9"/>
		<stop  offset="1" style="stop-color:#A5B7D1"/>
	</linearGradient>
	<path opacity="0.8" fill="url(#XMLID_50_)" d="M33.261,33.669c0,0,0.185,3.291,5.865,8.785c5.68,5.494,9.265,5.598,9.265,5.598
		c-2.241,0.597-6.138-1.483-9.771-4.996C35.098,39.649,32.906,35.963,33.261,33.669z"/>
</g>
</svg>
