<?xml version="1.0" encoding="utf-8"?>
<!-- Generator: Adobe Illustrator 12.0.0, SVG Export Plug-In . SVG Version: 6.00 Build 51448)  -->
<!DOCTYPE svg PUBLIC "-//W3C//DTD SVG 1.1//EN" "http://www.w3.org/Graphics/SVG/1.1/DTD/svg11.dtd" [
	<!ENTITY ns_svg "http://www.w3.org/2000/svg">
	<!ENTITY ns_xlink "http://www.w3.org/1999/xlink">
]>
<svg  version="1.1" id="Layer_1" xmlns="&ns_svg;" xmlns:xlink="&ns_xlink;" width="120" height="120"
	 viewBox="36.8 43.2 120 120" overflow="visible">
<rect x="36.8 " y="43.2" fill="#2F3E51" width="120" height="120"/>
<g>
    <!-- outline -->
	<path fill="#92A2B9" d="M142.928,153.252l-24.897-34.2l-1.166-0.548l-2.998-4.07c-1.145-1.574-3.033-2.441-4.438-2.104
		c-0.445-0.682-6.241-8.608-6.241-8.608l7.397-7.173c7.964-8.234,2.866-25.988-11.017-39.425
		c-8.874-8.585-19.884-13.826-28.732-13.68c-4.513,0.074-8.281,1.543-10.897,4.249l-8.204,8.48
		c-7.964,8.234-3.146,25.864,10.737,39.298c11.295,10.924,25.663,15.988,34.907,12.685c0.443,0.553,6.189,8.565,6.189,8.565
		c-1.032,1.733-0.694,3.033,0.569,4.772c0-0.002,2.789,3.864,2.789,3.864l0.082,1.352l24.469,33.748
		c0.064,0.105,2.044,2.633,3.638,2.568c1.461-0.058,3.834-1.246,5.432-2.403c1.61-1.165,2.879-2.364,3.29-3.701
		C144.53,154.666,142.324,152.648,142.928,153.252z M139.103,159.08c-3.984,2.604-5.643,0.393-5.822,0.131
		c-0.025-0.043-23.476-32.277-23.476-32.277l0.206-1.508l-4.1-5.22c-0.754-1.043-0.831-1.989-0.244-2.978l0.368-0.621l-8.327-11.504
		c-8.268,3.804-22.726-0.583-33.712-11.209C50.98,81.3,46.187,65.062,53.31,57.698l8.204-8.48c2.203-2.278,5.439-3.516,9.358-3.582
		c8.288-0.137,18.699,4.869,27.17,13.064c13.018,12.595,17.812,28.833,10.688,36.197l-8.451,8.424l8.22,11.464l0.729-0.191
		c1.174-0.306,2.082,0.052,2.866,1.129l3.813,5.453l1.508,0.138l23.124,32.611c0.052,0.063,0.913,1.144,0.712,2.436
		C141.095,157.335,140.375,158.249,139.103,159.08z"/>
	
	<!-- right lens ring -->
	<path fill="#ACDE51" d="M62.155,49.117c-1.43,1.477-2.353,3.331-2.807,5.452c0.115-0.131,0.23-0.259,0.353-0.386
		c6.533-6.754,21.752-2.632,33.988,9.206c12.234,11.841,16.86,26.912,10.328,33.668c-0.125,0.124-0.249,0.246-0.377,0.364
		c2.107-0.525,3.928-1.508,5.358-2.986c6.91-7.139,2.022-23.072-10.914-35.587C85.147,46.333,69.062,41.977,62.155,49.117z"/>

	<!-- left lens ring -->
	<path fill="#ACDE51"
        d="M71.561,86.266c-13.476-13.035-18.27-29.935-10.712-37.748l-8.204,8.48
		c-7.556,7.812-2.761,24.712,10.713,37.747c13.475,13.034,30.523,17.269,38.081,9.457l8.203-8.479
		C102.081,103.535,85.034,99.301,71.561,86.266z"/>
	<!-- upper lens ring -->
	<path fill="#ACDE51" 
        d="M60.849,48.518c-7.558,7.813-2.764,24.713,10.712,37.748c13.474,13.035,30.521,17.27,38.081,9.456
		c7.558-7.811,2.759-24.711-10.713-37.747C85.456,44.941,68.405,40.707,60.849,48.518z M108.999,94.437
		c-1.431,1.478-3.251,2.461-5.358,2.986l0,0c-8.07,2.002-20.312-2.793-30.571-12.717c-10.26-9.927-15.455-22.001-13.721-30.136
		c0.454-2.122,1.377-3.976,2.807-5.452c6.906-7.141,22.992-2.784,35.93,9.732C111.021,71.364,115.909,87.297,108.999,94.437z"/>
	<!-- upper handle ring -->
	<path fill="#ACDE51" d="M109.796,114.441c0.853,1.174,0.592,2.822-0.582,3.672l0,0c-1.179,0.853-2.819,0.59-3.672-0.582
		l-8.656-11.936c-0.788-1.144,0.034-2.377,1.063-3.131c1.099-0.809,2.343-1.131,3.194,0.045L109.796,114.441z"/>
	<!-- middle handle ring -->
	<path fill="#ACDE51" 
        d="M106.836,114.84c-2.69,1.949-3.084,4.115-1.598,6.16l3.606,4.977
		c0.262-1.369,1.222-2.813,3.063-4.148c1.838-1.33,3.509-1.795,4.893-1.622l-3.607-4.976
		C111.707,113.181,109.53,112.887,106.836,114.84z"/>
	<!-- handle -->
	<path fill="#ACDE51"
        d="M111.908,121.828c-2.091,1.516-2.802,2.779-3.063,4.148l0.043,1.201l24.47,33.749l1.35,0.829
		c-0.668-0.894,1.032-2.331,3.294-3.978c2.254-1.644,4.198-2.86,4.841-1.954l-0.424-1.431l-24.491-33.772l-1.126-0.415
		C115.417,120.033,113.999,120.315,111.908,121.828z"/>
	<!-- lower handle ring -->
	<path fill="#ACDE51" d="M142.799,155.688l-0.428-1.432c0,0-1.358-1.268-5.535,1.778
		s-3.521,4.755-3.521,4.755l1.35,0.829l3.611-3.933"/>
	<!-- handle bottom -->
	<path fill="#ACDE51" d="M142.761,155.645c0.429,0.594-1.071,2.412-3.342,4.062c-2.271,1.651-4.459,2.515-4.892,1.919
		c-0.429-0.591,1.066-2.41,3.337-4.06C140.139,155.914,142.328,155.056,142.761,155.645z"/>
    <!-- lens -->
	<radialGradient id="XMLID_46_" cx="81.1543" cy="76.0752" r="26.2302" gradientUnits="userSpaceOnUse">
		<stop  offset="0" style="stop-color:#FFFFFF"/>
		<stop  offset="0.2509" style="stop-color:#FCFCFD"/>
		<stop  offset="0.4516" style="stop-color:#F2F4F8"/>
		<stop  offset="0.6349" style="stop-color:#E1E7F0"/>
		<stop  offset="0.8079" style="stop-color:#C9D4E4"/>
		<stop  offset="0.9722" style="stop-color:#ABBCD4"/>
		<stop  offset="1" style="stop-color:#A5B7D1"/>
	</radialGradient>
	<path opacity="0.97" fill="url(#XMLID_46_)" d="M93.689,63.391C81.453,51.552,66.234,47.43,59.701,54.185
		c-0.122,0.126-0.237,0.255-0.353,0.386c-1.734,8.135,3.461,20.209,13.721,30.136c10.26,9.922,22.501,14.718,30.571,12.716
		c0.128-0.118,0.252-0.24,0.377-0.364C110.55,90.303,105.924,75.231,93.689,63.391z"/>
	
		<radialGradient id="XMLID_47_" cx="127.0391" cy="74.2046" r="23.6376" gradientTransform="matrix(0.6932 -0.7207 0.7207 0.6932 -59.5641 112.6305)" gradientUnits="userSpaceOnUse">
		<stop  offset="0" style="stop-color:#FFFFFF"/>
		<stop  offset="0.2835" style="stop-color:#FCFDFE"/>
		<stop  offset="0.4789" style="stop-color:#F3F6F9"/>
		<stop  offset="0.6477" style="stop-color:#E4E9F1"/>
		<stop  offset="0.8014" style="stop-color:#CED8E6"/>
		<stop  offset="0.9436" style="stop-color:#B2C2D8"/>
		<stop  offset="1" style="stop-color:#A5B7D1"/>
	</radialGradient>
	<path opacity="0.95" fill="url(#XMLID_47_)" d="M65.281,56.172c-4.593,4.747-0.132,16.508,9.962,26.273
		c10.093,9.765,21.998,13.834,26.589,9.09c4.589-4.747,0.129-16.508-9.963-26.273C81.776,55.498,69.871,51.428,65.281,56.172z"/>
	
		<linearGradient id="XMLID_48_" gradientUnits="userSpaceOnUse" x1="138.5" y1="50.1982" x2="150.5293" y2="50.1982" gradientTransform="matrix(0.6953 -0.7188 0.7188 0.6953 -58.3685 126.8408)">
		<stop  offset="0" style="stop-color:#A5B7D1"/>
		<stop  offset="0.0097" style="stop-color:#A9BAD3"/>
		<stop  offset="0.0809" style="stop-color:#C4D0E1"/>
		<stop  offset="0.1619" style="stop-color:#DAE1EC"/>
		<stop  offset="0.2572" style="stop-color:#EBEFF5"/>
		<stop  offset="0.3752" style="stop-color:#F6F8FB"/>
		<stop  offset="0.5406" style="stop-color:#FDFDFE"/>
		<stop  offset="1" style="stop-color:#FFFFFF"/>
	</linearGradient>
	<path opacity="0.8" fill="url(#XMLID_48_)" d="M89.642,64.899c0.567-0.895,1.135-1.786,1.7-2.678
		c-9-8.153-19.32-11.989-26.757-9.146C64.585,53.075,75.032,51.164,89.642,64.899z"/>
	
		<linearGradient id="XMLID_49_" gradientUnits="userSpaceOnUse" x1="137.7793" y1="79.8267" x2="150.4746" y2="79.8271" gradientTransform="matrix(0.6953 -0.7188 0.7188 0.6953 -58.3685 126.8408)">
		<stop  offset="0" style="stop-color:#A5B7D1"/>
		<stop  offset="0.0422" style="stop-color:#AEBFD6"/>
		<stop  offset="0.1962" style="stop-color:#CCD6E5"/>
		<stop  offset="0.3603" style="stop-color:#E2E8F0"/>
		<stop  offset="0.5371" style="stop-color:#F2F5F9"/>
		<stop  offset="0.7354" style="stop-color:#FCFDFD"/>
		<stop  offset="1" style="stop-color:#FFFFFF"/>
	</linearGradient>
	<path opacity="0.8" fill="url(#XMLID_49_)" d="M93.02,68.307c12.158,13.243,10.677,23.602,10.677,23.602
		c2.998-7.303-0.78-17.492-8.948-26.321C94.172,66.495,93.596,67.399,93.02,68.307z"/>
	
		<linearGradient id="XMLID_50_" gradientUnits="userSpaceOnUse" x1="124.2227" y1="65.6802" x2="131.2461" y2="65.6802" gradientTransform="matrix(0.6953 -0.7188 0.7188 0.6953 -58.3685 126.8408)">
		<stop  offset="0" style="stop-color:#FFFFFF"/>
		<stop  offset="0.3003" style="stop-color:#FCFDFE"/>
		<stop  offset="0.4931" style="stop-color:#F4F6F9"/>
		<stop  offset="0.6556" style="stop-color:#E5EAF2"/>
		<stop  offset="0.8014" style="stop-color:#D0D9E7"/>
		<stop  offset="0.9347" style="stop-color:#B5C4D9"/>
		<stop  offset="1" style="stop-color:#A5B7D1"/>
	</linearGradient>
	<path opacity="0.8" fill="url(#XMLID_50_)" d="M63.365,62.541c0,0,0.405,7.217,12.863,19.269
		C88.687,93.86,96.55,94.087,96.55,94.087c-4.916,1.309-13.463-3.252-21.432-10.958C67.394,75.657,62.586,67.571,63.365,62.541z"/>
</g>
</svg>
