<?xml version="1.0" encoding="utf-8"?>
<!DOCTYPE svg PUBLIC "-//W3C//DTD SVG 1.1//EN" "http://www.w3.org/Graphics/SVG/1.1/DTD/svg11.dtd">
<svg xmlns="http://www.w3.org/2000/svg" viewBox="0 -0.1 95.508 98.1" overflow="visible">
<radialGradient id="RES_GRAD" cx="45" cy="272" r="40" gradientTransform="matrix(1 0 0 -1 0 330.001)" gradientUnits="userSpaceOnUse">
	<stop  offset="0" style="stop-color:#FFFFFF"/>
	<stop  offset="0.1027" style="stop-color:#DBDEE1"/>
	<stop  offset="0.2704" style="stop-color:#A7AEB6"/>
	<stop  offset="0.4353" style="stop-color:#7C8692"/>
	<stop  offset="0.5939" style="stop-color:#5B6675"/>
	<stop  offset="0.7443" style="stop-color:#435061"/>
	<stop  offset="0.8833" style="stop-color:#344355"/>
	<stop  offset="1" style="stop-color:#2F3E51"/>
</radialGradient>
<path fill="url(#RES_GRAD)" d="M94.583,51.938c0,25.178-20.411,45.592-45.589,45.592c-25.178,0-45.595-20.414-45.595-45.592
	c0-25.181,20.417-45.593,45.595-45.593C74.172,6.345,94.583,26.757,94.583,51.938L94.583,51.938z"/>
<path fill="#98CA3E" d="M48.511,1.611c0.978,0,1.956,0.032,2.934,0.096c2.934,0.189,5.867,0.675,8.707,1.44
	c1.426,0.37,2.77,0.835,3.899,1.24l1.833,0.722l0.786,0.358l1.321-0.168l1.519-0.055l0.792,0.008l0.087,0.003l0.733,0.044
	l0.064,0.006c-1.822-1.03-3.777-1.9-5.85-2.596c-2.788-0.94-5.768-1.557-8.858-1.83c-2.986-0.271-6.1-0.221-9.26,0.146
	c-2.479,0.285-4.994,0.768-7.497,1.44c0.728-0.134,1.461-0.256,2.2-0.367C44.093,1.773,46.299,1.611,48.511,1.611L48.511,1.611z
	 M66.577,6.197l-1.112,0.224L64.37,6.75l-0.919,0.358L62.724,7.48c-0.635,0.39-0.891,0.71-0.926,0.878l0.023,0.096l0.774,0.34
	l0.867,0.146l0.564,0.05l0.349,0.029l0.314,0.026c0.472,0.038,0.99,0.064,1.596,0.082l0.075,0.003
	c0.564,0.035,1.21,0.076,1.921,0.104l0.855,0.053l0.314,0.023l1.734,0.128l0.948,0.102l0.524,0.055l0.093,0.009l-0.92-0.596
	l-0.529-0.329l-1.624-0.946l-1.967-1.019L66.577,6.197L66.577,6.197z M80.545,15.16l0.925,0.378
	c-1.832-3.46-4.702-6.588-8.328-9.027l-0.465-0.306L72.636,6.2l-1.584-0.201l-0.681-0.038l-0.093-0.003l-0.763-0.012l-1.455,0.052
	L67.886,6.02l0.141,0.064l2.002,1.036l1.629,0.951l0.57,0.35l1.665,1.094L74.3,9.808l1.367,0.745l0.402,0.393l0.35,0.416l0.109,0.14
	l0.502,0.402l0.174,0.146l0.338,0.279l1.565,1.408l1.403,1.391L80.545,15.16L80.545,15.16z M82.553,16.126l0.845,0.582l0.069-1.077
	c-0.029-0.914-0.239-1.845-0.629-2.759l-0.716-1.257l-0.442-0.611l-0.448-0.512l-0.047-0.049L80.05,9.375l-1.303-0.919l-0.693-0.419
	l-0.559-0.288l-0.168-0.082l-1.52-0.649l-1.287-0.399C78.083,9.235,80.859,12.526,82.553,16.126L82.553,16.126z M81.749,16.47
	l0.303,0.337l0.07,0.076l-0.116-0.265L81.749,16.47L81.749,16.47z M83.089,17.363l0.115,0.297l0.047-0.169L83.089,17.363
	L83.089,17.363z M83.612,18.693c1.577,1.912,3.009,3.963,4.266,6.097l0.047,0.076l-0.39-1.08c-0.269-0.646-0.53-1.243-0.804-1.807
	c-0.314-0.588-0.646-1.156-0.983-1.688c-0.57-0.864-1.21-1.63-1.909-2.282L83.612,18.693L83.612,18.693z M4.731,30.29l-0.599,1.426
	l-0.105,0.25l-0.146,0.341l0.046-0.035l1.094-0.966l0.489-0.521l0.238-0.276l0.239-0.276l0.867-1.149l0.204-0.308l0.215-0.317
	l0.402-0.625l0.238-0.413c0.425-0.745,0.873-1.514,1.269-2.331l0.006-0.018l0.768-1.464l0.192-0.381l0.128-0.247l0.076-0.14
	l0.82-1.548l0.274-0.48l0.174-0.306l0.687-1.205l0.25-0.387l0.262-0.413l0.756-1.161l0.303-0.428l-0.018,0.021l-0.186,0.187
	l-0.343,0.358l-1.321,1.455l-0.151,0.177l-0.093,0.114l-0.989,1.202l-0.093,0.11l-0.151,0.184l-1.164,1.56l-0.32,0.451l-0.117,0.178
	l-0.873,1.289l-0.262,0.41l-0.146,0.242l-0.809,1.327l-0.483,0.884l-0.256,0.469L5.738,28.2L4.731,30.29L4.731,30.29z M3.766,32.618
	l-0.192,0.529l-0.186,0.501l-0.198,0.55l0.041-0.026l0.058-0.038L4.08,33.38l-0.221-0.632L3.766,32.618L3.766,32.618z M90.2,31.067
	l0.117,0.596c0.232,1.205,0.459,2.343,0.721,3.458c0.141,0.637,0.291,1.213,0.473,1.771c0.162,0.557,0.343,1.144,0.576,1.715
	l0.36,0.847l0.384,0.814l0.047,0.09c-0.488-2.775-1.246-5.525-2.264-8.235L90.2,31.067L90.2,31.067z M89.606,49.097l-0.366,0.047
	l-0.989,0.911l-0.123,0.407l-0.086,0.497l0.086,1.199l0.041,0.187l0.129,0.544l0.262,0.795l0.384,0.884l0.478,0.979l0.605,1.064
	l0.349,0.582l0.366,0.594c0.408,0.649,0.891,1.354,1.409,2.099l0.116,0.172l0.047-0.154c0.134-0.591,0.25-1.179,0.355-1.758
	l0.063-0.416l0.034-0.269l0.012-0.128l0.064-0.782l0.035-0.745v-0.681l-0.111-1.293c-0.086-0.838-0.308-1.539-0.494-2.06
	l-0.332-0.789l-0.39-0.631l-0.826-0.854L89.606,49.097L89.606,49.097z M87.535,62.571l0.011,0.053
	c0.053,0.146,0.251,0.48,1.037,1.117c0.453,0.364,1.018,0.763,1.646,1.167l0.279-0.687l0.141-0.344l0.109-0.276l-0.273-0.681
	l0.222-0.413C87.972,62.213,87.587,62.499,87.535,62.571L87.535,62.571z M90.946,65.353c1.564,0.937,2.746,1.432,3.206,1.476
	l-0.238-0.367l-0.972-1.033c-0.391-0.363-0.873-0.771-1.443-1.216L90.946,65.353L90.946,65.353z M88.233,70.245L88.21,70.28
	c-0.635,1.001-1.304,1.99-1.996,2.96l0.14-0.14l0.483-0.568l0.232-0.291l0.203-0.308l0.77-1.307L88.233,70.245L88.233,70.245z
	 M4.284,66.712l0.809,1.769l0.059,0.126l0.104,0.212l0.908,1.734l0.296,0.529l0.478,0.81c0.384,0.681,0.826,1.339,1.251,1.976
	l0.431,0.649l0.611,0.838l0.309,0.413l0.466,0.629l0.32,0.39l0.146,0.178C9.9,76.08,9.353,75.16,8.829,74.211
	c-1.496-2.846-2.619-5.835-3.341-8.891c-0.361-1.481-0.57-2.896-0.71-3.957L4.598,59.53L4.54,58.247l-0.018-0.46l-0.006-1.391
	l0.035-1.403l0.018-0.265l0.011-0.125l0.053-0.687c0.052-0.736,0.104-1.435,0.209-2.107L5,50.555l0.192-1.164l0.169-1.079
	l0.006-0.018l0.192-1.007l0.151-0.935l0.064-0.39l0.093-0.501l0.104-0.806l0.041-0.379l0.035-0.407
	c0.093-0.853,0.052-1.714-0.116-2.622l-0.39-1.146L5.5,40.006l-0.245-0.478l-0.343-0.567l-0.931-1.164l-0.594-0.614l-0.658-0.628
	l-0.012-0.009l-0.204-0.228l-0.006,0.023l-0.14,0.469l-0.192,0.751l-0.128,0.512l-0.244,0.989l-0.303,1.514l-0.052,0.268
	l-0.093,0.483l-0.337,2.293l-0.215,2.313L0.78,46.429l-0.076,1.815v1.013l0.006,0.526l0.006,0.332l0.041,1.196l0.099,1.56
	l0.07,0.757l0.227,1.927l0.39,2.287l0.512,2.272l0.058,0.233l0.565,1.999l0.745,2.203L4.284,66.712L4.284,66.712z M23.246,88.465
	c1.67,1.038,3.411,1.946,5.209,2.718c0.739,0.34,1.513,0.625,2.258,0.899l0.681,0.253l1.007,0.32l0.483,0.151l0.75,0.229
	l0.478,0.125l0.268,0.067l0.151,0.04l-1.333-0.562l-1.216-0.541l-0.64-0.276l-0.448-0.195l-0.937-0.378l-0.803-0.312
	c-0.919-0.358-1.461-0.492-1.466-0.492l-0.041-0.012l-0.198-0.075l-1.997-0.861l-0.489-0.235l-0.233-0.12L23.246,88.465
	L23.246,88.465z M46.881,95.458l-1.176-0.003l-0.838-0.026c-0.663-0.04-1.327-0.09-1.979-0.143h-0.012l-0.285-0.034l-0.664-0.053
	l-0.489-0.041l-1.06-0.093l-1.548-0.21l-0.262-0.034l-0.518-0.076l-0.774-0.148l-0.454-0.087l-1.088-0.216l-1.53-0.381l-0.262-0.064
	l-0.512-0.137l-0.756-0.232l-0.478-0.148l-1.042-0.332l-0.687-0.253c-0.756-0.279-1.542-0.567-2.299-0.92
	c-3.958-1.693-7.653-4.054-10.971-7.004l-1.216-1.136l-0.53-0.532l-0.238-0.247l-0.512-0.457l-0.431-0.378l-0.39-0.373l-0.186-0.181
	l-1.124-1.108l-0.367-0.387l-0.18-0.198l-1.077-1.176l-1.001-1.21l-0.168-0.204l-0.332-0.41l-0.477-0.638l-0.303-0.41l-0.628-0.864
	L7.601,74.26c-0.431-0.648-0.879-1.317-1.275-2.017l-0.471-0.8l-0.32-0.57l-0.908-1.729L4.51,68.901l-0.058-0.123l-0.821-1.795
	l-0.873-2.2l-0.757-2.238l-0.564-2.008l-0.07-0.256L0.85,57.97l-0.396-2.322l-0.227-1.938l-0.076-0.797l-0.099-1.549l-0.041-1.242
	l-0.005-0.329L0,49.266v-1.042L0.076,46.4l0.023-0.519l0.221-2.354l0.338-2.309l0.099-0.515l0.052-0.265l0.309-1.525l0.25-1.016
	l0.128-0.509l0.192-0.757l0.151-0.503l0.076-0.257l0.46-1.486l0.355-0.984l0.18-0.497l0.268-0.73l0.198-0.486l0.105-0.247
	l0.617-1.449l1.019-2.122l0.373-0.684l0.25-0.466l0.501-0.905l0.814-1.345l0.14-0.233l0.285-0.445l0.873-1.29l0.117-0.171
	l0.343-0.486l0.006-0.012l1.158-1.548l0.169-0.207l1.083-1.315l0.087-0.105l0.175-0.207l1.315-1.449l0.378-0.39l0.18-0.181
	l1.106-1.115l0.39-0.358l0.198-0.183l1.176-1.071l1.21-1.007l0.215-0.178l0.413-0.332l1.31-0.993l0.6-0.434l1.304-0.89l0.11-0.079
	l0.227-0.151l1.013-0.626c1.636-1.077,3.341-1.956,4.639-2.599L28.07,6.06l0.408-0.183l0.599-0.265l0.187-0.084L29.7,5.347
	l0.559-0.215c2.532-1.144,5.075-2.104,7.578-2.863c3.097-0.937,6.228-1.592,9.301-1.947c3.207-0.37,6.373-0.422,9.405-0.148
	c3.144,0.283,6.176,0.908,9.021,1.866c2.654,0.89,5.128,2.066,7.375,3.495l0.651,0.122l0.821,0.201
	c0.529,0.143,1.094,0.303,1.641,0.5c0.547,0.209,1.07,0.437,1.577,0.672l0.169,0.082l0.611,0.314l0.722,0.437l1.374,0.972
	l1.192,1.126l0.052,0.05l0.49,0.564l0.465,0.649l0.774,1.362c0.431,1.007,0.663,2.022,0.692,3.035
	c0.006,0.539-0.041,1.074-0.146,1.606c0.85,0.748,1.63,1.644,2.316,2.68c0.349,0.553,0.692,1.138,1.019,1.746l0.006,0.015
	c0.273,0.579,0.547,1.187,0.826,1.859c0.501,1.324,0.914,2.643,1.223,3.929l0.076,0.312l0.244,0.486l0.809,1.79l0.169,0.401
	l0.559,1.426c1.245,3.317,2.106,6.702,2.578,10.109l0.536,1.042l0.197,0.556l0.117,0.516c0.109,0.6,0.133,1.192,0.063,1.764
	l-0.337,1.158l-0.233,0.434l-0.623,0.898l-0.017-1.094c-0.029-1.677-0.158-3.355-0.385-5.025l-0.355-0.579l-0.127-0.207
	l-0.484-0.847l-0.406-0.864l-0.361-0.853c-0.25-0.605-0.437-1.214-0.6-1.778c-0.18-0.57-0.344-1.17-0.482-1.821
	c-0.269-1.124-0.49-2.268-0.729-3.479c-0.244-1.239-0.494-2.514-0.797-3.786l-0.297-0.579l-0.314-0.605l-0.076-0.154l-0.139-0.262
	l-0.729-1.269c-1.17-1.988-2.502-3.902-3.957-5.701l-0.14,0.352l-0.274-0.861L82.81,18.83l-0.961-1.185l-0.314-0.361l-1.32-1.452
	l-0.053-0.058l-0.152-0.046l-1.192-0.544l-0.913-0.745l-0.758-0.885l-0.32-0.448l-0.319-0.448l-0.041-0.061L76.022,12l-0.762-0.614
	l-1.264-0.925l-0.39-0.05l-0.029-0.003l-0.995-0.11l-0.523-0.056l-1.054-0.113l-1.601-0.113l-0.32-0.023l-0.826-0.052
	c-0.722-0.029-1.373-0.067-1.944-0.105l-0.063-0.003c-0.605-0.018-1.135-0.043-1.612-0.082l-0.332-0.029l-0.319-0.026l-0.605-0.052
	l-0.961-0.166c-0.646-0.172-0.978-0.346-1.17-0.603l-0.146-0.646c0.081-0.437,0.501-0.89,1.245-1.347l0.81-0.419l0.983-0.381
	l1.141-0.343l0.169-0.041L63.8,5.047c-1.1-0.396-2.432-0.853-3.829-1.219c-2.8-0.754-5.687-1.231-8.573-1.417
	c-3.137-0.204-6.292-0.076-9.37,0.384c-3.428,0.509-6.682,1.287-9.673,2.313l-0.227,0.076L31.76,5.313l-1.228,0.471l-1.298,0.603
	c-2.753,1.318-5.57,2.896-8.375,4.685c-2.002,1.246-3.882,2.977-5.593,5.151c-0.343,0.46-0.71,0.958-1.112,1.516l-0.739,1.138
	l-0.262,0.417l-0.245,0.378l-0.669,1.179l-0.181,0.312l-0.262,0.462L11.39,22.4l-0.413,0.768l-0.076,0.148l-0.122,0.218
	l-0.187,0.384c-0.273,0.541-0.523,1.024-0.78,1.481c-0.407,0.838-0.855,1.618-1.292,2.369l-0.239,0.419l-0.419,0.664l-0.419,0.62
	L6.53,30.688l-0.25,0.288l-0.233,0.271l-0.524,0.556l-0.914,0.827l0.163,0.888c-0.111,0.564-0.617,0.89-1.1,1.207L3.62,34.759
	l-0.722,0.722l0.314,0.559l0.675,0.646l0.611,0.634l0.995,1.246l0.384,0.623l0.256,0.518l0.046,0.096l0.437,1.304
	c0.192,0.989,0.233,1.918,0.134,2.847L6.71,44.333l-0.035,0.404l-0.116,0.841l-0.087,0.516l-0.064,0.354L6.25,47.413l-0.192,1.013
	L5.89,49.507l-0.192,1.158l-0.157,1.24c-0.099,0.657-0.151,1.341-0.204,2.065l-0.052,0.685l-0.012,0.131l-0.018,0.227l-0.029,1.4
	v1.338l0.018,0.469l0.058,1.255l0.175,1.807c0.14,1.036,0.343,2.424,0.698,3.873c0.705,3.001,1.81,5.934,3.277,8.722
	c1.106,2.025,2.352,3.917,3.696,5.616l0.25,0.317l0.814,0.961l0.175,0.203l0.367,0.422l0.949,1.001l1.414,1.176l0.92,0.73
	l1.595,1.141l0.477,0.323l0.169,0.104l1.327,0.848l0.425,0.25l0.244,0.137l1.362,0.771l1.403,0.701l0.239,0.119l0.459,0.221
	l1.979,0.855l0.157,0.059c0.116,0.029,0.664,0.175,1.537,0.518l0.384,0.151l0.414,0.154l0.96,0.391l0.466,0.2l0.611,0.265
	l1.251,0.557c2.334,1.047,4.866,1.804,7.514,2.249c0.529,0.079,1.094,0.16,1.659,0.232l0.087,0.006l0.483,0.021l0.273,0.009
	l1.537,0.041l0.495-0.003l0.262-0.006l0.763-0.021c0.809-0.003,1.635-0.069,2.427-0.134l0.611-0.047l0.372-0.031l2.008-0.26
	l0.605-0.093c3.288-0.556,6.426-1.411,9.365-2.546c0.553-0.233,1.094-0.475,1.641-0.728c2.055-0.949,4.167-2.14,6.461-3.638
	c1.984-1.307,3.945-2.75,5.825-4.29c2.009-1.664,4.028-3.46,6.169-5.494c0.582-0.657,1.146-1.321,1.694-1.987
	c1.38-1.743,2.683-3.576,3.864-5.444c0.798-1.284,1.561-2.634,2.281-4.034l0.07-0.209l0.023-0.073
	c-0.705-0.448-1.339-0.893-1.846-1.301c-0.727-0.585-1.129-1.044-1.262-1.44l0.109-0.725c0.32-0.384,1.112-0.675,4.703-0.206
	l0.041-0.128l0.279-0.867l-0.018-0.015l-0.018-0.029l-0.407-0.591c-0.519-0.754-1.013-1.464-1.426-2.124l-0.372-0.608l-0.35-0.576
	l-0.623-1.104l-0.494-1.013l-0.402-0.925l-0.285-0.861l-0.14-0.579l-0.04-0.189l-0.094-1.405l0.1-0.591l0.162-0.53
	c0.285-0.675,0.804-1.144,1.455-1.317c0.67-0.181,1.408-0.015,2.072,0.465l0.989,1.013l0.448,0.73l0.367,0.864
	c0.186,0.516,0.436,1.301,0.529,2.218l0.116,1.33v0.748l-0.034,0.765l-0.07,0.81l-0.012,0.122l-0.035,0.312l-0.07,0.425
	c-0.104,0.594-0.227,1.199-0.36,1.801l-0.006,0.018l-0.192,0.664l0.164,1.188l-0.758,0.61l-0.197,0.489l-0.215,0.512
	c0.646,0.504,1.192,0.961,1.623,1.368l1.054,1.12l0.39,1.127l-0.431,0.354c-0.798,0.172-2.759-0.908-3.806-1.53l-0.082,0.157
	l-0.012,0.04l-0.151,0.448l-0.507,1.432l-0.482,1.264l-0.076,0.194l-0.309,0.719l-0.349,0.725l-0.798,1.354l-0.215,0.332
	l-0.012,0.012l-0.244,0.313l-0.523,0.608c-1.502,1.531-2.928,2.937-4.302,4.243c-0.85,0.954-1.74,1.895-2.653,2.812l-0.746,0.698
	c-0.518,0.494-1.059,1.007-1.623,1.478l-0.896,0.783l-1.531,1.229c-3.451,2.647-7.036,4.79-10.656,6.379
	c-0.733,0.328-1.479,0.643-2.24,0.937c-1.846,0.777-3.708,1.426-5.564,1.936l-0.291,0.075c-0.523,0.134-1.064,0.271-1.606,0.402
	l-0.012,0.002l-1.92,0.37l-0.839,0.131l-1.618,0.207l-0.512,0.052l-1.967,0.125l-0.518,0.018H46.881L46.881,95.458z"/>
<g transform="scale(0.065,0.065) translate(200,200)">
<path fill="#f9c393" d="M699.1 337.6l-27.6-14.7-26.6-15.2-23-12.4-4.2-6.4-3.2-27.6-9.6-29.5 6.4-64.3 7.4-12.4 6.9-9.2 153.5 51.9.4 17.1v18.3l-1.8 15.2-2.3 28.5 11.1 3.7 8.2 5.1 2.3 6.4-3.7 7.3-5.5 3.7-12.9.4-10.5-2.2-36.8 21.6-11.9 7.8-16.6 6.9z"/><path fill="#318871" d="M761.5 201.2l-20.6-9.1-14.3-2.8-18.9-7.4-21.1-11-21.2-10.1-15.6-4.6-18.4-6.9-10.1-5-14.7-9.7-6-13.3 1.9-6.5 7.3 3.3 9.7 6.8 14.7 6.5 6.9-6 11.5-16.6 17-16.5 18.4-6.4 15.6-1.4 31.7 7.3 20.2 9.7 14.8 12.4 13.3 19.3 1.3 22.1-9.1 24.3-2.3 8.3 7.3 2.8 9.2 2.7 12.9.5 18.4 6-3.7 7.8-8.8 3.6-17.8-.4-17.5-4.2-12-5.5z"/><path fill="#fff" d="M765.3 281.6l-2.8-10.6 3.7-11 4.6-8.7 7.3-2.8 3.3 6.9-2.8 9.2-3.2 6.4-3.7 6.9-6.4 3.7zm-177.7 30.8l10.6-19.8 4.6-6.8 7.8 1.8 23.4 14.2 79.1 45.1-8.8 22-12.4 22.6-11.5.9-17-7.4-28-14.7-47.8-57.9z"/><path fill="#fff" d="M689.6 400l1.9 12.9.4 17 12.9 13.3-7.3 12.4-16.6 14.3-3.7-6.5-7.3-37.2-12-27.6-9.2-14.7 13.8 3.2 12.9 5.1 14.7.9-.5 6.9z"/><path fill="#f9c393" d="M782.9 436.4l9.2-3.7 11.5-11 10.2-7.4 12.8-3.6 21.2-10.2 17-8.7 16-6.4 7.4 6 13.8 14.2 13.3 10.1 5.1 11.5-.5 34-3.6 4.6-5.6-1.8-5-12.9-1-16.1-5 1-8.7 8.7v5l7.8 4.6 6.9 3.3.9 9.1-5.1 4.6-6.4-1.4-5.5-4.5-4.6-4.2-6.5-3.2h-7.3l-10.6 1.9-5.5 1.3-8.3-4.1-.4-12.4-9.7 4.6-7.8 4.6-9.6 1.8-12.9 6-4.2-5.1-5.5-7.8-13.8-12.4zm-94.8-168.5a34.7 34.7 0 1 1 34.8 34.8 34.7 34.7 0 0 1-34.7-34.7"/><path fill="#f9c292" d="M722.8 301.9a34 34 0 1 1 34-34 34 34 0 0 1-34 34"/><path fill="#f9c192" d="M722.8 301.1a33.2 33.2 0 1 1 33.2-33.2 33.2 33.2 0 0 1-33.2 33.2"/><path fill="#f8c091" d="M722.8 300.3a32.4 32.4 0 1 1 32.4-32.4 32.4 32.4 0 0 1-32.4 32.4"/><path fill="#f8bf91" d="M722.8 299.5a31.6 31.6 0 1 1 31.6-31.6 31.6 31.6 0 0 1-31.6 31.6"/><path fill="#f8be91" d="M722.8 298.7a30.8 30.8 0 1 1 30.8-30.8 30.8 30.8 0 0 1-30.8 30.8"/><path fill="#f8bd90" d="M722.8 297.9a30 30 0 1 1 30-30 30 30 0 0 1-30 30"/><path fill="#f8bc90" d="M722.8 297.1a29.3 29.3 0 1 1 29.3-29.3 29.3 29.3 0 0 1-29.3 29.3"/><path fill="#f8bb90" d="M722.8 296.4a28.5 28.5 0 1 1 28.5-28.5 28.5 28.5 0 0 1-28.5 28.5"/><path fill="#f8ba8f" d="M722.8 295.6a27.7 27.7 0 1 1 27.7-27.7 27.7 27.7 0 0 1-27.7 27.7"/><path fill="#f7b98f" d="M722.8 294.8a26.9 26.9 0 1 1 26.9-26.9 26.9 26.9 0 0 1-26.9 26.9"/><path fill="#f7b98e" d="M722.8 294a26.1 26.1 0 1 1 26.1-26.1 26.1 26.1 0 0 1-26.1 26.1"/><path fill="#f7b88e" d="M722.8 293.2a25.3 25.3 0 1 1 25.3-25.3 25.3 25.3 0 0 1-25.3 25.3"/><path fill="#f7b78e" d="M722.8 292.4a24.5 24.5 0 1 1 24.5-24.5 24.5 24.5 0 0 1-24.5 24.5"/><path fill="#f7b68d" d="M722.8 291.7a23.8 23.8 0 1 1 23.8-23.8 23.8 23.8 0 0 1-23.8 23.8"/><path fill="#f6b58d" d="M722.8 290.9a23 23 0 1 1 23-23 23 23 0 0 1-23 23"/><path fill="#f6b48c" d="M722.8 290.1a22.2 22.2 0 1 1 22.2-22.2 22.2 22.2 0 0 1-22.2 22.2"/><path fill="#f6b38c" d="M722.8 289.3a21.4 21.4 0 1 1 21.4-21.4 21.4 21.4 0 0 1-21.4 21.4"/><path fill="#f6b28b" d="M722.8 288.5a20.6 20.6 0 1 1 20.6-20.6 20.6 20.6 0 0 1-20.6 20.6"/><path fill="#f6b18b" d="M722.8 287.7a19.8 19.8 0 1 1 19.8-19.8 19.8 19.8 0 0 1-19.8 19.8"/><path fill="#f6b08b" d="M722.8 286.9a19.1 19.1 0 1 1 19.1-19.1 19.1 19.1 0 0 1-19.1 19.1"/><path fill="#f5af8a" d="M722.8 286.2a18.3 18.3 0 1 1 18.3-18.3 18.3 18.3 0 0 1-18.3 18.3"/><path fill="#f5ae8a" d="M722.8 285.4a17.5 17.5 0 1 1 17.5-17.5 17.5 17.5 0 0 1-17.5 17.5"/><path fill="#f5ad89" d="M722.8 284.6a16.7 16.7 0 1 1 16.7-16.7 16.7 16.7 0 0 1-16.7 16.7"/><path fill="#f5ac89" d="M722.8 283.8a15.9 15.9 0 1 1 15.9-15.9 15.9 15.9 0 0 1-15.9 15.9"/><path fill="#f5ab89" d="M722.8 283a15.1 15.1 0 1 1 15.1-15.1 15.1 15.1 0 0 1-15.1 15.1"/><path fill="#f4aa88" d="M722.8 282.2a14.3 14.3 0 1 1 14.3-14.3 14.3 14.3 0 0 1-14.3 14.3"/><path fill="#f4a988" d="M722.8 281.4a13.6 13.6 0 1 1 13.6-13.6 13.6 13.6 0 0 1-13.6 13.6"/><path fill="#f4a887" d="M722.8 280.7a12.8 12.8 0 1 1 12.8-12.8 12.8 12.8 0 0 1-12.8 12.8"/><path fill="#f4a787" d="M722.8 279.9a12 12 0 1 1 12-12 12 12 0 0 1-12 12"/><path fill="#f4a687" d="M722.8 279.1a11.2 11.2 0 1 1 11.2-11.2 11.2 11.2 0 0 1-11.2 11.2"/><path fill="#f4a586" d="M712.4 267.9a10.4 10.4 0 1 1 10.4 10.4 10.4 10.4 0 0 1-10.4-10.4"/><path fill="#318871" d="M415.7 569l-7.8-16.1-4.7-26.2 4.7-23.9 13.7-14.7 33.2-22.6 29.4-21.1 1.8-10.1 6-3.2 8.3.9 1.8-13.3 2.8-8.8 8.7-5 8.7-4.2 10.6-16 21.1-33.6.5-5.1-2.3-8.2 11.5-23.9 6.4.9 29 16 53.8 57.1 15.6 34.9 6.4 26.6 6 51.1 7.3 5.1 5.6-3.7 11-3.3 5-2.3-.9-8.7 6.9-11.9 12.4-8.8 12.9-4.1 16.1-13.8 10.1-9.2 10.1-4.6 12.9 3.2 15.6 23.5 14.3 27.6 8.7 34-5.5 11-12.9 7.3-14.7 13.4-12.4 11.9-11.5 7-12.9-1.9-13.3 10.1-19.3 18.9-16.6 11.9-14.6 4.1-17.5-1.3-17-5.1-15.6 65.7-19.4 58.9 2.8 11.9 8.3 13.8 3.2 15.6-6.9 15.2 6.4 8.3 7.9 11.5 4.1 22 25.3 44.6 14.7 16.1 20.6 25.8-11 12.4-17.5 9.6-16.9 7.8h-35.9l-11 6-28.1 16.1-17 5-21.1 1-32.2-1.4-25.8-3.2-34-7.8-24.3-7.8-18.9-6.5-42.3-22.5-25.3-11.5-61.5-28-27.6-9.7-3.3-11 23-37.7 51.1-91.9 42.2-97.5 6.5-18.8 34.5-53.8z"/><path fill="#fcc643" d="M930.6 655.8l-6-6.7-1.3-9.3 3.4-7.9 11-5.4 9.5 3.7 5.6 10 .8 8.1-8.9 6.2-9.1 3.8-5-2.5z"/><path fill="#d4cbc5" d="M237.2 765.5l-8.6 2.1-7.6-5.6 6.2-7.8 8.4-2.1 1.6 13.4zM751 1040.9l2.3-8.1 5.9-9.5 7.2-7 9.3-6.3 2.2 9.6-26.9 21.3z"/><path d="M314.5 1102l-1.9-2.1a2.3 2.3 0 0 0-.4-.6c-2-.9-2.9-2.9-4.3-4.2a6.4 6.4 0 0 1-1.8-3 12.8 12.8 0 0 0-2.1-4.5c-1.8-2.2-2.4-5.2-4.6-7.1a2.9 2.9 0 0 1-.5-1.3 10.4 10.4 0 0 0-2.3-4.5 18 18 0 0 1-2.6-4.5c-.6-1.2-1-2.5-2.4-3.1a6.1 6.1 0 0 1-1.4-1.8l-.6 2.1a19.8 19.8 0 0 1-1.3 4c-1.5 2.6-5.9 4-8.9 2.3s-3.9-2.3-5.2-4.4a5.3 5.3 0 0 0-2.2-2c-1.7-.9-1.9-2.9-2-4.6a13.2 13.2 0 0 1 2.2-8.3 31.8 31.8 0 0 0 4.9-10 25 25 0 0 1 2.9-6.2 7.1 7.1 0 0 1 4.7-3.7 6.3 6.3 0 0 0 2.5-1.7 4.1 4.1 0 0 1 3.3-1.1 4.6 4.6 0 0 0 4.1-1.3l2.8 1.4 2-2.3a3.8 3.8 0 0 0 .7-3.7 26.7 26.7 0 0 0-1.8-5.3 2.7 2.7 0 0 1 .3-2.9 18.3 18.3 0 0 0 1.4-2.5 18.2 18.2 0 0 1 3.4-4.5c2.9-2.8 5.5-5.9 8.2-8.9a3.2 3.2 0 0 0 .8-1.2c.8-3.1 4.1-4.3 5.4-7.1 3.9-2.7 6.7-6.6 10.4-9.5s5.1-4.8 7.7-7.1c.9-.8 2.1-1.4 3.1-2.2l4.9-4.4 7.5-6.3c.4-.3.9-.4 1.3-.7l4.7-3.2 6-4.2a21.3 21.3 0 0 0 3.4-2.6c1.8-1.9 3.4-4 5-6a4.2 4.2 0 0 0 .7-3.6c-.1-.5-.3-.9-.3-1.4-.2-2.6-.1-5.2 2.8-6.6a4.7 4.7 0 0 0-.9-1l-6.8-3.9-2.4-1.5c-2.1-1.1-4.2-2.3-6.3-3.3l-9.3-4.2a2.3 2.3 0 0 0-.6-.4c-3.5 0-6-2.4-8.9-3.7s-4.2-2.2-6.3-3.3-1.8-.5-2.7-.9l-7.9-3.8a5.6 5.6 0 0 0-1.3-.6c-2.7-.5-4.7-2.3-6.9-3.6a23.5 23.5 0 0 0-6.1-2.6l-2.5-.8-9.5-4.3c-4.9-2.3-9.6-4.7-14.6-6.8s-7.5-2.9-11.3-4.2a24.1 24.1 0 0 0-3.3-.4l-5.3-1.2a8.9 8.9 0 0 1-5.4-4.4 4.2 4.2 0 0 1-.3-2.5 6.5 6.5 0 0 0-.4-4.1c-.4-.8 0-2.2.2-3.2s1.2-3.4 1.8-5.1a12.6 12.6 0 0 1 .8-1.7 13.8 13.8 0 0 0 1.4-2.5c.8-2.6 2.4-4.6 3.9-6.8s2.7-4.8 4-7.2a17 17 0 0 1 2.1-3.1 31.7 31.7 0 0 0 3.7-5.7c.5-.9.3-2.1.8-3.3s3.5-4.2 4.9-6.6l6.5-10.8c.5-.9 1.2-1.7 1.8-2.5s2.2-3.1 2.3-5.2a1.2 1.2 0 0 1 .2-.7c2.4-3 3-6.9 5.4-10 1-1.3 1.2-3.1 1.9-4.6s.8-2.1 1.5-2.5 3.1-3.4 4.3-5.3c2.9-4.5 5.2-9.4 8.6-13.6.9-1.1 1.2-2.8 1.8-4.3a1.4 1.4 0 0 1 0-.2c2.2-3.1 3.3-6.8 5.4-10l.4-.6c1.2-2.7 2.8-5.3 3.6-8.2s3.4-6.1 4-9.8c-1.4-1.2-3.2-.8-4.8-.4a59 59 0 0 0-7.8 2.8c-2.1.9-4.1 2.2-6.2 3.3a3.9 3.9 0 0 1-1.3.6 23.7 23.7 0 0 0-7.7 2.2 3.9 3.9 0 0 0-1.3.5c-2.4 3-6.1 3.4-9.4 4.7s-4.4 1.4-6.6 2.1c-5.3 1.7-10.6 3.2-15.6 5.7a35.7 35.7 0 0 1-5.4 1.7c-2.8.9-5.6 1.9-8.4 2.6s-4.7.9-7 1.2l-5.8.9-.9.4c-1.7 1.5-4 1.3-5.9 2l-3 .9c-1.6-.5-3.4-1.1-5.2-1.5a4.2 4.2 0 0 0-2 .4c-2.7.9-5.3 2-8 2.8s-3.4.6-4.8 1.8-4.4 1.7-6.7 2.2-2.5 1.2-3.9.6a.9.9 0 0 0-.7.2c-3.1 2.3-6.7 3-10.3 4.1a62.8 62.8 0 0 0-8.2 2.8c-3.2 1.5-6.2 3.4-9.4 5.1-1.4.8-3 1.4-4.5 2.1l-2.5 1.3-2.8 1.2c-1.9.9-3.7 1.9-5.6 2.6a65.5 65.5 0 0 1-7.5 2.3 6.6 6.6 0 0 1-3.3-.3 3.4 3.4 0 0 1 .4-6.6c3.3-1.2 6.7-2.3 9.6-4.4l.8-.5c4.7-1.5 8.9-3.8 13.4-5.8 2.5-1.1 4.8-2.7 7.2-4.1l3.2-1.6 6.4-2.5 3.7-1c2.4-.8 4.8-1.5 7.1-2.5s6.9-3.1 10.3-4.8c1.5-.8 2.8-2.1 4.6-2.4a12.5 12.5 0 0 0 4.7-2.1 4.2 4.2 0 0 0 2.3-2.8c.4-2 2-3.4 3.4-4.8s2.6-1.6 3.9-.3a5.4 5.4 0 0 0 3.8-3.4c.8-2 3-2.6 4.4-3.9a17.8 17.8 0 0 1 2.6-1.7 9.3 9.3 0 0 1 3.5-1.8 5.2 5.2 0 0 0 2-1.2 21.7 21.7 0 0 1 6.9-3.6 10.6 10.6 0 0 0 4.1-2.3 22.8 22.8 0 0 1 3-2c3.3-2 6.5-4.1 9.9-6 1.8-1 3.7-1.8 5.6-2.6l9.8-4.7c4.1-1.9 8.2-3.8 12.4-5.4s9.5-4.3 14.3-6.2c2.8-1.1 5.7-1.7 8.5-2.6a9 9 0 0 0 2-1.2c.7-.4 1.2-1.2 1.9-1.3 2.8-.4 4.7-2.7 7.4-3.5a40.2 40.2 0 0 0 4.6-1.9 10.2 10.2 0 0 0 3-1.8c1-.9 2.5-1.2 3.8-1.8l7.3-2.9a10.1 10.1 0 0 1 2.1-.3l3.3-6.6c.8-1.5 1.7-2.8 1.6-4.6a2.8 2.8 0 0 1 .7-1.4 16.4 16.4 0 0 0 2.7-6 58.4 58.4 0 0 1 2.3-6.4c.8-2.2 1.5-4.3 2.2-6.5a10.7 10.7 0 0 1 .5-1.3c.4-.8.9-1.5 1.2-2.3 1.4-3.2 2.7-6.5 4.3-9.7a48.8 48.8 0 0 0 3.6-8.8 46 46 0 0 1 2.8-6.8 23.9 23.9 0 0 0 1.8-3.3c1.2-4 3.3-7.5 5.6-10.9 1.2-1.9 2.4-3.7 3.5-5.7s1.3-2.7 2.1-4a32.1 32.1 0 0 0 2.3-3.7c1.7-4.2 4.8-7.4 7.1-11.1l6.5-10.2a16.9 16.9 0 0 1 1.5-2.1 47.1 47.1 0 0 0 5.8-7.4 3.5 3.5 0 0 1 .8-.9c1.8-1.5 1.5-3.5-.1-5.2l-3.7-3.7c-1-.9-2-1.9-1.7-3.4a.6.6 0 0 0-.1-.5c-1.9-2.5-1.6-5.9-3.5-8.4a34.5 34.5 0 0 1-2.2-3.9 3.8 3.8 0 0 1-.4-.9l-2.4-9.6a8.8 8.8 0 0 1 .1-2.4 4.2 4.2 0 0 0 .2-.9c-.5-2.7.3-5.2.6-7.8a15.3 15.3 0 0 1 2.5-6.6 3.4 3.4 0 0 0 .7-2.7 8 8 0 0 1 .8-4.8c1.6-3.4 3.2-6.9 5.1-10.2a27.1 27.1 0 0 1 4.1-5.1c1.8-1.9 4.1-3.3 5.7-5.3s6.3-5.5 9.2-8.7c1.4-1.5 3.5-2.3 5.3-3.4a67.6 67.6 0 0 0 6.3-4.3 21.3 21.3 0 0 1 8.4-4.3c2.4-.6 4.2-2.2 6-3.7a14.5 14.5 0 0 1 5-3 12.3 12.3 0 0 0 4.1-2.2c3.1-2.4 6.2-4.6 9.2-7.1s6.1-5.3 9.1-8a3.1 3.1 0 0 0 .6-1.9 23.9 23.9 0 0 1 2.8-10.2c.9-1.7 2.2-3.3 4.5-3.3a2 2 0 0 0 .9-.2c1.9-1.1 4-.9 6-.5s1.5.2 2-1.2 1.5-4.7 2.3-7a13.5 13.5 0 0 0 .4-1.6c.4-2 .7-4 1.1-6s2.4-3.3 4.1-4.5a37.4 37.4 0 0 1 7.3-4.7c3.4-1.5 5.8-4.2 9-6a8.5 8.5 0 0 0 3.6-4.3 3.5 3.5 0 0 1 1-1.6c1.4-1 2-2.6 2.9-4a44.6 44.6 0 0 1 3.1-4.2 9.3 9.3 0 0 0 2.2-4.9 10.8 10.8 0 0 1 2.1-5c.5-.7.8-1.6 1.3-2.3s1.3-1.7 2-2.6 1.6-1.5 1.9-2.4c1-2.9 3.1-4.9 4.8-7.2a40.4 40.4 0 0 0 3-5.3c1-1.9 1.9-3.8 2.9-5.8-.8-1.7-1.6-3.6-2.5-5.4s-.6-5.3.6-7.7 2.4-3.5 3.4-5.3 2.3-4.5 3.7-6.6 1.8-5.9 3.3-8.5a31.3 31.3 0 0 1 3-4.5c1.2-1.5 3.3-1.1 5.2-.1s3.1 2.4 4.8 3.3a5.3 5.3 0 0 0 3.8-4.1c.5-2.1 1.8-3 4.1-3.2a8.4 8.4 0 0 1 4.5.6 1.9 1.9 0 0 0 2.5-.7l3.7-5.8c1.8-2.9 3-6.1 5.1-8.8a6.1 6.1 0 0 0 .8-1.9c.8-2.2 1.7-4.4 3.9-5.4s5.8-2.2 8.7 0l3.8 2.4c1.8-2 1.4-4.3.9-6.5s-1-5.8-1.7-8.7c-.3-1.3-.6-2.6-1-3.9-1-4-1.9-8-3.9-11.6-.8-1.5-1-3.3-1.7-4.9a8.5 8.5 0 0 0-1.9-2.9 5.1 5.1 0 0 1-1.5-5.2 1.9 1.9 0 0 0 0-1.2 1.5 1.5 0 0 0-1-.8l-5.3 1.1c-3 .6-5.6.8-7.4-2s-2.3-3.2-6.2-1.9c-1.2.4-2.3 1-3.6.5s-4.3-1.9-5.3-3.7-.2-1.9-.3-3-1.6.4-2.3 1-4.2 1-6.1.3a4.3 4.3 0 0 1-2.8-4.6 4.9 4.9 0 0 1 .7-1.9c.8-1.4.3-2.6-1.3-2.7a12.8 12.8 0 0 0-3.5.3 10 10 0 0 1-7-1.3c-1.8-1-2-2.5-1.6-4.3l.3-1.2-5.6-1.1c-2.1-.4-4-1.2-5.2-3s-.8-2-.5-2.1.3-3.5 2-5l-1.9-.4H531a6 6 0 0 1-4.6-2.5c-1.7-1.9-1.3-3.1.9-4.3a5.7 5.7 0 0 0 2.6-2.3 3.2 3.2 0 0 1 .8-.8l5.4-4.6c-1-2.4-3.1-2.8-5-3.6s-3.8-3.7-3.8-5.1a2.2 2.2 0 0 1 .5-1.5c1.6-1.4 3.2-2.6 5.5-2.6s6.2-.3 9.2-.7c1.4-.2 3-.5 3.5-2a3.7 3.7 0 0 0-.6-3.8 10.5 10.5 0 0 1-2.2-4.2c-1.2-3.3.7-6.2 4.2-6.2a6.7 6.7 0 0 1 4.2 1.2c1.6 1.1 3.4 2 5.3 3.1a2.3 2.3 0 0 0 .7-.8c.4-1.4.6-2.9 1-4.4a3.3 3.3 0 0 1 1.1-1.8c1.7-1.1 3.6-2.1 5.6-1.4s4.3.3 6.4.4a20.6 20.6 0 0 1 3.7.7 2.7 2.7 0 0 1 1.9 2.7c.3 2.7 1.6 3.3 4 2.5s7.1-2.8 11-2.6h.7c2.4-1.1 3.8 0 5.2 1.9s1.9 3 .7 5.4c1.3 2.2 2 2.6 4.4 2.2a30 30 0 0 0 4-.8 3.3 3.3 0 0 0 1.6-1.5c1.2-2.2 2.2-4.6 3.5-6.8a25.2 25.2 0 0 1 3.5-4.5 22.2 22.2 0 0 0 4.4-6.5c.9-2.1.7-2.8-1.2-3.9-3.6-2-7.2-3.9-10.7-6.1a22.5 22.5 0 0 1-4.6-4.4 45.3 45.3 0 0 1-4.2-5.7 14.1 14.1 0 0 1-2.5-7 14.6 14.6 0 0 0-.5-2.6c-.5-2.4-.8-4.8.3-7.3s1.7-2.7 4.2-2.4a21.5 21.5 0 0 1 10.2 4.6c1.2.9 2.1 2.2 3.5 3.1a49.1 49.1 0 0 0 5.8 3.7c2.4 1.2 4.5 2.9 6.8 4.3a47.1 47.1 0 0 0 6 3c1.9.8 3.3-.2 3-2.3a3.4 3.4 0 0 1 1.9-3.7 7.9 7.9 0 0 0 2.1-2.6l5.4-8.7a58 58 0 0 1 3.1-5.1c1.4-1.9 3.3-3.4 4.7-5.3a60.4 60.4 0 0 1 6.5-6.9 3 3 0 0 1 .5-.5c3.1-1.8 5.8-4.1 9-5.6.9-.4 1.8-1 2.8-1.3l6.8-2.1a5.9 5.9 0 0 0 1.2-.2c3.2-1.8 6.8-1.6 10.2-1.9 2-.2 3.9-.7 5.8-1a19.6 19.6 0 0 1 4.5-.4c3.2.3 6.3.1 9.5.2a19.5 19.5 0 0 1 3.2.7c.9.2 1.9.7 2.7.5s3.8.2 5.7.9a33.4 33.4 0 0 0 5.7 1.6 38 38 0 0 1 6.9 2.3c1.8.7 3.7 1 5.5 1.7s3.6 1.5 5.4 2.3c3.4 1.6 6.8 3 10.1 4.8s6.4 3.8 9.5 5.9a22.5 22.5 0 0 1 5.3 4.7c.9 1.1 2.2 1.8 3.1 2.9s3.4 3.9 5 6 3.2 4.7 5 6.9 2.2 3.9 3.1 6a6.8 6.8 0 0 0 .5 1.8c2.3 2.8 2.2 6.5 3.5 9.7s.2 5.3-.3 8a21.5 21.5 0 0 0-.4 2.6c-.1 1.3.1 2.7-.7 4a1.6 1.6 0 0 0-.1.9 19.5 19.5 0 0 1-2 9.5 20.2 20.2 0 0 0-1.5 6.5 7.7 7.7 0 0 1-.5 1.6c-.6 1.9-1.3 3.8-1.8 5.7s-.6 3.4-1.7 4.8-.7 2.1-1.1 3.4a9.5 9.5 0 0 0 1.8 1.2 32.5 32.5 0 0 0 6.7 2.3 36.8 36.8 0 0 0 7.9 0c2.4-.2 4.9-.7 7.3.1h.5c3.7-.1 7.1 1.4 10.6 2.2a29 29 0 0 1 6.3 2.1 9.1 9.1 0 0 1 4.2 4c1 1.9.4 4.8-1.6 5.7a5.9 5.9 0 0 0-2.3 2.3 11.2 11.2 0 0 1-1.8 1.7 3.7 3.7 0 0 0-.8.6c-1.2 2-3.1 2.7-5.3 3.1a26.8 26.8 0 0 0-3.8 1.3 7.1 7.1 0 0 1-4.9.3c-.9-.3-2 .4-3 .3l-8.5-.6-6.6-.8-1.2.2c-.5 2.2-1.6 4.4-1.3 6.5s-1 5.2-.8 7.9c.1 1 .2 2 .3 3.1a1.9 1.9 0 0 1 0 1.1c-1 1.3-.6 2.9-.8 4.4s-1 4.1-1.5 6.2a18.2 18.2 0 0 1-.9 2.1c2.2.3 2.8 2 3.1 3.6a17.7 17.7 0 0 1 .2 5.4c-.4 3.3-1.7 6.4-2.8 9.5s-1.9 6.8-2.9 10.3c2 1.2 3.5 2.8 6 2.8a2.5 2.5 0 0 1 1.8.5c1.3 1.6 3.2 2.2 4.9 2.9 3.3 1.4 6 3.6 8.7 5.8a4 4 0 0 1 1.8 4.2 5.9 5.9 0 0 0-.1 1.7c.3 4.2-2 7-4.9 9.6a12.2 12.2 0 0 0-2.4 2.5c-1.6 2.7-4.3 3.4-7 3.9s-5 .4-7.5.7a8.6 8.6 0 0 1-4.8-1.1 8 8 0 0 0-4.5-1.3c-.3 1.9-.6 3.7-1.1 5.5a13.6 13.6 0 0 1-1.3 3.3c-.7 1.3-1.7 2.5-2.5 3.8a2.2 2.2 0 0 1-1.7 1.4 2.7 2.7 0 0 0-1.3 1.3 18.4 18.4 0 0 0-2.3 3.5 24.2 24.2 0 0 0-.9 4.4 6.1 6.1 0 0 0-.1.8c-1.6 2-3.7 2.2-5.9 1.7s-2.5 0-3.1 1.6a4.3 4.3 0 0 0-.4 1.6c0 3.8-2.2 6.8-3.4 10.2a1.4 1.4 0 0 1-.4.6c-1.9 1.6-2.2 3.8-2.2 6a10.1 10.1 0 0 1-2.1 6.9.9.9 0 0 0-.3.4c-.2 3.6-3.7 5.3-4.7 8.5a7.7 7.7 0 0 0-.6 1.5 22.1 22.1 0 0 1-3.1 9.1c-.9 1.6-1.1 3.6-1.7 5.3a14.8 14.8 0 0 1-1.8 4.1c-1.2 1.6-3.2 1.4-5 1.7a1.4 1.4 0 0 1-.9-.7c-1.2-1.9-1.9-3.8-1.1-6s2.3-5.6 3.2-8.4a26.8 26.8 0 0 0 .8-5.4c.3-2.7.4-5.5.6-8.3l.5-.3-1.7-1.3a4.4 4.4 0 0 1-1.2-4.6c1-4.5 2.1-8.9 3.2-13.3a48.6 48.6 0 0 1 4-11.1c.8-1.5 1.5-3.1 2.2-4.7a7.2 7.2 0 0 0 .2-1.8c-1.9.9-3.5 1.5-5 2.4a60.2 60.2 0 0 0-6.8 4.3c-2.3 1.8-5.3 2.2-7.8 3.6l-3.1 1.7-4.7 3.2a17.7 17.7 0 0 0 2.4 2.3c2 1.3 4.1 2.4 6.2 3.5a4.4 4.4 0 0 1 2.2 4 10.3 10.3 0 0 1-.8 4.6c-.6 1.5-1.9 2.7-2.8 4a10.3 10.3 0 0 0-1.5 2.9 16.8 16.8 0 0 1-4.2 7 3.4 3.4 0 0 0-1.1 2.2 7.3 7.3 0 0 1-1 2.9 22.8 22.8 0 0 0-2.4 7.1 9.2 9.2 0 0 1-1 2.6l-4.4 7.9v-.5c-2 1.8-1.5 4.1-1.7 6.4s-.8 6.3-1.2 9.4a5.1 5.1 0 0 0-.1.9 10.8 10.8 0 0 1 .2 2.5 8.1 8.1 0 0 1-1.1 2.1c1.1 1.4 1.9 2.8 1 4.6s.2 1.4.4 2a77.5 77.5 0 0 0 2.7 9.7c.9 2.5 2.8 4.1 4.7 5.8s4.2 3.6 5.5 6.1a7.8 7.8 0 0 0 1.8 2.1 4.6 4.6 0 0 1 1.7 5.2c-.7 3-1.6 5.8-3.7 8.1a2.6 2.6 0 0 0-.5 1.1 20.5 20.5 0 0 1-.5 2.1 3.4 3.4 0 0 1-1.1 1.8c-2.1 1-2.5 4.3-5.6 3.9a5.3 5.3 0 0 0-2.3.5l-5.7 2.1a2.6 2.6 0 0 0-.9.2c-1.6 1.9-3.6 3.7-4 6.3a4.5 4.5 0 0 0 1.4 3.2 7.9 7.9 0 0 1 2.3 4.9c.5 4.4.3 8.8-2.9 12.4a4.6 4.6 0 0 0-1 4.9 18 18 0 0 1 .2 1.9c.2.8.5 1.6.7 2.3h.7c3.4-1.9 7.2-2.4 10.7-3.6a22.9 22.9 0 0 0 3.2-.9 51.3 51.3 0 0 0 4.4-2.8 5.3 5.3 0 0 1-1.7-6.2 57.9 57.9 0 0 1 3.8-8.1 34.9 34.9 0 0 1 2.9-4.1 26.4 26.4 0 0 1 10.9-8.5c2.2-1 4.3-2.3 6.5-3.3s2.7-.9 4-1.5l4.9-2.3 1.4-.8a38.2 38.2 0 0 0 8.9-5.5c1.3-1.1 2.2-2.7 3.4-4 3.4-3.6 6.7-7.1 10.9-9.8 1.2-.8 2.1-1.8 3.2-2.7s5.3-2.3 8.1-3.1 5.5-.5 8.3-.6a5.4 5.4 0 0 0 2.1-.1 37 37 0 0 0 6.7-3.9c2.8-2.3 5.2-5.1 7.9-7.6s3.3-2.9 5-4.3a23.2 23.2 0 0 1 10.3-5.1h.5c2.8-2.2 6.5-1.9 9.5-3.6.8-.5 1.8-.7 2.5-1.3 2.5-1.8 5.6-2.1 8.3-3.5s8.5-3.5 12.4-5.9 5.7-2.6 8.5-4 4-2.3 6-3.3l6.9-3.1 6.3-3.1a14.2 14.2 0 0 1 8.6-1.3 4 4 0 0 1 2.2 1.2c1.4 1.5 2.5 3.3 4 4.7a44.4 44.4 0 0 1 3.8 4.6c1.7 2 4.1 3 6.3 4.1a10.4 10.4 0 0 1 4.2 3.7 46.1 46.1 0 0 0 3.5 4.8 23.1 23.1 0 0 0 3.8 2.8l8.7 6.2a1.1 1.1 0 0 1 .5.5c.4 2.4 1.9 4.4 2.3 7s-.1 5.3 1.5 7.6a1.5 1.5 0 0 1 .2 1.1c-.5 1.8.2 3.6-.5 5.5s-.1 3.1-.1 4.7a14.4 14.4 0 0 1 0 1.9c-.4 2.9-.9 5.8-1.2 8.7a6.7 6.7 0 0 0 .5 2.8 9.9 9.9 0 0 1-1.9 10.3 14.9 14.9 0 0 1-6.2 4.3c-2 .7-2 .9-1.7 3s.5 5.6 1.1 8.4a35.6 35.6 0 0 1 1.2 8.4 8.9 8.9 0 0 0 .8 2.5c.6 2.1 1.8 4.1 1.7 6.2 0 3.6 1.9 6.9 1.2 10.5a3.3 3.3 0 0 0 0 1.9c1.1 2.3 1.1 4.9 1.8 7.3s.7 3.9 1 5.8.8 5.6 2.1 8.2a6.4 6.4 0 0 1 .5 3.1 18.5 18.5 0 0 0 1 6.1c1.1 3.4 1.2 7 1.7 10.5s1.3 6.6 2 10a11.4 11.4 0 0 1 .3 1.4c.2 3.1.3 6.2.7 9.3a65.1 65.1 0 0 0 1.4 6.5c.1.2.2.4.2.7.6 3.2 1 6.4 1.7 9.5s1.6 6.2 2.4 9.4a6.7 6.7 0 0 1 .2 1.4 87.6 87.6 0 0 0 1.5 10.8c.5 3.1.8 6.2 1.1 9.4a3.1 3.1 0 0 0 3.3 3 9.9 9.9 0 0 1 5.9 1.6 29.1 29.1 0 0 1 3.8 2.8 18 18 0 0 1 6.4 13.5 13.2 13.2 0 0 1-2.7 9 23.2 23.2 0 0 1-5.7 4.8 4.2 4.2 0 0 0-1.7 1.2 5.8 5.8 0 0 1-3.3 2.9 2.4 2.4 0 0 0-.8.4c-.8.9-1.3 1.8-2.7 2.1-3 .5-5.8 1.7-8.9.8l-.9-.2c-4.2-2.7-8.7-5.2-10.7-10.1-1-2.4-1.9-5.1-1-7.9a12.5 12.5 0 0 0 .5-3.5 9.2 9.2 0 0 1 1.7-5.8 13 13 0 0 1 2.4-2.8c1.7-1.2 3.1-2.6 5-3.5s2.6-2.5 2.4-4.9 0-2.8 0-4.2a2.8 2.8 0 0 0-.1-1.4c-1-1.4-.7-3.1-.8-4.6-.4-4.2-.5-8.5-1.6-12.4a93.8 93.8 0 0 1-2.8-13.9c-.6-4.7-1.5-9.3-1.8-14s-1.3-6.5-2.1-9.7-2.6-8.9-2.4-13.7c.1-2-.9-4-1.3-6s-.9-5.6-1.3-8.4l-.7-4.2c-.3-1.6-.5-3.3-.8-4.9a11.3 11.3 0 0 0-.9-3.2c-1.6-3-2-6.3-2.1-9.7a51.9 51.9 0 0 0-.2-6.7c-.5-3.2-.9-6.4-2.4-9.4-.5-1-.1-2.3-.3-3.5s-.9-3.8-1.3-5.8a23.8 23.8 0 0 1-.5-4 17.2 17.2 0 0 0-1.1-8.1 8 8 0 0 1-.5-2.3c-.3-1.7-1-2.2-2.6-1.6a44.2 44.2 0 0 1-7.1 1.7c-3.4.6-7.1 1-9.5 4.2-1.1 1.5-1.7 3-1.2 4.9 1 3.6 2.2 7.1 3.2 10.6a4.9 4.9 0 0 1-.9 5.1c-1.6 1.6-3.3 3.1-5.7 3.6s-5.1 1.2-7.6 1.8a2.8 2.8 0 0 1-1.5 0 1.1 1.1 0 0 1-.2-2.1 4.1 4.1 0 0 1 2.2-.5 1.9 1.9 0 0 0 2-.9 4.3 4.3 0 0 1 2.8-2l1.7-.8c2.2-1.1 2.4-1.7 1.7-4.2-1.2-4-2.3-8.1-2.2-12.3s1.9-6.4 4.5-8.8a6 6 0 0 1 2-.7l1.6-.7a21.5 21.5 0 0 0-6.5-6.6 26.9 26.9 0 0 0-6.6-3.2 8.4 8.4 0 0 0-3-.5 33.2 33.2 0 0 0-8.5 1.8 39.9 39.9 0 0 1-8.1 1.6 15.6 15.6 0 0 1-3.8 0 10.9 10.9 0 0 1-3-.7c-1.5-.6-2.8-1.6-4.5-.9a1.2 1.2 0 0 1-.9-.2c-1.9-1.3-3.8-.8-5.7-.3a11 11 0 0 1-8.5-.8 27.2 27.2 0 0 1-4.1-3.4c-2.5.9-5.2 1.7-7.7 2.8s-5.4-.2-8.1 1.3l.9 2.1c.7 1.6 1.4 3.3 2.2 4.9 1.7 3.3 2.9 6.9 5.8 9.4a11.8 11.8 0 0 1 3.5 5.6c1 3.2 2.1 6.3 3 9.5.5 1.7.6 3.4 1.1 5.1 1.2 4.3 2.6 8.6 3.9 13 .8 2.6 1.6 5.1 2.2 7.8s.7 5.2-.9 7.5-1.7 3-2.6 4.5c-2 3.6-5 6.1-8.5 8.1s-4.8 3.1-7.1 4.7l-1.5.7-3.9 2.6-3.2 2a4.7 4.7 0 0 0-1.1.8 52.7 52.7 0 0 1-10.7 9.3 35.9 35.9 0 0 0-3.6 3.4c-2.3 2.1-4.1 4.7-7 6.1a4.6 4.6 0 0 0-.9 1 26.4 26.4 0 0 1-9.6 6 20.9 20.9 0 0 1-3.5.8h-.7c-2.4-1-4.9-.2-7.3-.7s-4.3.4-6.2 1.5a14.4 14.4 0 0 1-1.7 1.2c-3.5 1.2-5.3 4.3-7.8 6.7s-2.9 3.4-4.8 4.8-4.8 4.6-7.2 6.9a14.6 14.6 0 0 1-2.3 2c-2 1.3-3 3.5-4.8 4.9s-4 3.1-6 4.6a9.9 9.9 0 0 0-1.3.9 11 11 0 0 1-4.3 3.1c-3 1.1-5.6 3.4-9 3.2l-.7.2c-2.3 1.6-5 1.3-7.5 1.9l-8.3 1.7h-1.4l-6.5-1.3H682c-3.1 1-5.9-.1-8.7-1.2l-6.4-2.5c-1.5-.5-2.1 0-2.4 1.6s-.9 3.3-1.3 5-1.2 3.4-1.1 5.1a35.8 35.8 0 0 1-1.4 9.1c-.8 3-1.5 6-2.3 9a86.4 86.4 0 0 1-2.6 9.1c-1.9 5-2.4 10.3-4.2 15.3a102.9 102.9 0 0 0-4.1 14.8c-.9 4.5-3.1 8.4-5 12.5a52.7 52.7 0 0 0-3.9 12.2 36.1 36.1 0 0 1-2.8 9.8 18.5 18.5 0 0 0-1 3.6 7.7 7.7 0 0 1-.3 1.4 23.5 23.5 0 0 0-2.1 10.4c0 1.5 0 3-.1 4.6a1.7 1.7 0 0 0-.1.7c1.5 2.4 1.5 5.5 3.4 7.8a29.8 29.8 0 0 1 2.8 4.9c1.4 2.7 2.9 5.4 4.1 8.2a10.4 10.4 0 0 1 .9 3.9 21.4 21.4 0 0 0 1.1 6.1 7.3 7.3 0 0 1 .1 2.8c-.1 1.2-.5 2.3-.5 3.5a12.4 12.4 0 0 1-2.7 8.2 20.5 20.5 0 0 0-2.2 4.2c-1.2 2.6-.7 4.1 1.4 6.1 4.3 4.1 8.3 8.3 10.7 13.9a7.4 7.4 0 0 1 .4 1.3c1.3 6.4 2.6 12.9 4.1 19.3a29.3 29.3 0 0 0 2.2 5.9c1 2.1 2.3 4.2 3.2 6.3a18.7 18.7 0 0 1 .7 3.5c.2.8.2 1.9.7 2.4 2.4 2.3 3.7 5.3 5.6 7.8s4.4 7.6 6.4 11.6a40 40 0 0 0 3.6 5.3l2.9 3.7 5.7 7.6c.5.7.9 1.4 1.5 2.1a12.1 12.1 0 0 0 2.1 2.2 17.4 17.4 0 0 1 4.4 4.3 9.7 9.7 0 0 0 3 3 13.8 13.8 0 0 1 5.1 5.5 47.9 47.9 0 0 0 9.8 11.8c2 1.8 3.4 4.3 5 6.6a2.2 2.2 0 0 1 .2 1.8c-.8 1.5-1 3.4-2.4 4.6a2.2 2.2 0 0 0-.7.9c-.6 2.5-2.7 3.8-4.4 5.4a3.4 3.4 0 0 1-2.1.9c-3.1.1-5.3 1.9-7.5 3.6a6 6 0 0 1-.7.7c-2.9 1.6-5.9 3-8.7 4.7s-4.5 2.3-5.6 4.8a3.1 3.1 0 0 0-.2 2c1 3.2.6 6.3.4 9.5s-.8 7.7-1 11.6a10.4 10.4 0 0 0 .3 3.1 43.1 43.1 0 0 1 1.5 13.7 12.5 12.5 0 0 0 .6 4.6c1 3 .6 6 .8 9.2l7.5-2.6c1.4 1.8 2.6 3.5 3.8 5.1a5.9 5.9 0 0 1 .6 1.8 7.3 7.3 0 0 0 .3 1.4 14.7 14.7 0 0 1 1.3 8.9 2.9 2.9 0 0 0 0 1c.4 1.9.8 3.8 1.2 5.8a5.3 5.3 0 0 1 .1 1.9 6.6 6.6 0 0 0 .9 4.6 3.5 3.5 0 0 1-.5 4.4l-5.1 5.8a14.9 14.9 0 0 0 5.9 2.4c2.9.5 5.7 1.2 8.5 1.9a11.8 11.8 0 0 0 5.6.1 15.4 15.4 0 0 1 8.2.3 58 58 0 0 0 7.9 1.5 3 3 0 0 0 3-1.1c1.7-2 3.6-3.8 4.7-6.3a7.9 7.9 0 0 1 4.2-4.3 1.3 1.3 0 0 0 .6-.4c1.7-2.8 5-3.4 7.5-5.2a5.2 5.2 0 0 0 1.2-1.1c2.1-3 5.1-5.1 7.4-7.9a14.1 14.1 0 0 1 1.7-1.3l3.2-3.1a20.5 20.5 0 0 1 2.9-2.4 60.9 60.9 0 0 1 6.4-3.6c3.3-1.5 5.3-.6 6.8 2.8a27.1 27.1 0 0 1 1.7 12.1 5.9 5.9 0 0 1-2 3.7c-2.2 1.9-3.8 4.5-6.5 5.8a7.9 7.9 0 0 0-1.5 1.8c-2.3 2.4-4.5 5.1-7.4 6.9a6.9 6.9 0 0 0-1.7 2 47.5 47.5 0 0 1-9.2 9.5c-2.2 1.8-4.1 3.8-6.2 5.6l-4.8 4.1a3.9 3.9 0 0 0-1.3 1.3c-1.4 4.1-4.7 4.7-8.3 4.9a25.1 25.1 0 0 1-5.2-.5 57.4 57.4 0 0 1-7.8-1.5c-1.3-.4-2.3.1-3.4.1h-11a9.6 9.6 0 0 0-2.9.8l-3.7 1.7c-.5 2.3.8 4.4 2.6 6.4-1.2 2.4-2.7 4.3-5.2 5.4a5.2 5.2 0 0 0-2 1.3c-2 2.3-4.6 3.2-7.4 4.1l-3.6 1.3c-2.9 1.3-5.7 1.5-8.5-.1a4.9 4.9 0 0 1-1.6-1.6c-2.4-3.4-2.7-7.4-3.6-11.2a36.2 36.2 0 0 1-.5-11.1 12.2 12.2 0 0 1 1.8-4.8c1.3-2.3.6-4.5-.3-6.6a2.1 2.1 0 0 0-1.5-.9 6.5 6.5 0 0 0-2.6.2 3.4 3.4 0 0 1-2.8 0 2 2 0 0 0-1.2-.1c-4.8.9-6.8-2.6-9.1-5.7s-1.6-4.7-2.4-7.1c-.1-.3.1-.7-.1-.9-1.7-3.7-1.5-7.9-3.1-11.7s-2.1-4.9-3-7.4a34.5 34.5 0 0 1-1.1-3.9c-.3-1.2-.6-2.5-.8-3.7a5.4 5.4 0 0 1-.1-2.6c.9-2.3.3-4.5-.1-6.7s-.4-2.8-.6-4.2-.4-2.8-.8-4.2-1.1-3.1-1.4-4.8-1.5-3.1-2.5-4.6-4-5.2-5.5-8a56.9 56.9 0 0 1-3.7-9.2c-1.2-3.5-2.1-7.1-.9-11a1.5 1.5 0 0 0-2.4-1.7c-2.1 1.2-4 2.6-6 3.8l-8.4 4.8c-2.3 1.3-4.6 2.5-6.8 3.9a98 98 0 0 1-14.4 8.1l-1.2.8a9.6 9.6 0 0 1-1.9 1.3l-10.1 3.6c-1 .3-2.1.8-3.1 1l-4.4.8-10.1 1.3a45 45 0 0 1-4.8.2h-8.4a4.4 4.4 0 0 1-1.6-.2c-3.3-1.4-6.6-1.2-10-.8a77.7 77.7 0 0 1-8.3.3c-4.5.1-8.7-1.6-13.2-1.5a68.8 68.8 0 0 1-10.1-1 65.9 65.9 0 0 1-6.4-1.5l-1.6-.4c-4.2-.6-8.4-1-12.5-1.7a25.8 25.8 0 0 1-4.5-1.5c-1.8-.7-3.7-1.4-5.5-2s-2.8-.4-4.2-.8l-8-2.5-.9-.2a26.4 26.4 0 0 1-8.4-1.4 21.3 21.3 0 0 1-5-2.1 27 27 0 0 0-9.5-3.4 17.8 17.8 0 0 1-5.5-1.8c-2.4-1.3-4.4-.8-6.2.9s-2.9 2.9-4.5 4.2l-8.7 7.3a1.4 1.4 0 0 1-.6.4 3.9 3.9 0 0 0-3.6 3 .9.9 0 0 1-.4.6c-1.6.6-2.3 2.1-3.6 3l-6.4 4.8c-3.7 2.7-7.2 5.6-11.3 7.8-1.5.8-2.6 2.3-4.1 3.1-3.5 1.9-7.2 3.7-10.8 5.5a5.8 5.8 0 0 0-1.3.9 24.4 24.4 0 0 1-5 3.9 9.1 9.1 0 0 0-2 2c-1.2 1.3-2.3 2.6-3.5 3.8s-2.1 1.4-2.3 2.7c1.4 1.1 2.7 2 4 3.1s1.8 3.4.6 5.5c-2.4 4-5.6 7.4-8.5 11.1-1.4 1.7-2.9 3.4-4.1 5.2a5.1 5.1 0 0 1-3.1 2.1 7.8 7.8 0 0 0-4.6 3.8 11 11 0 0 0-1.8 3.8c-.4 1.9-2.8 3.3-4.8 3.1s-3.2-.7-4.9-.9a12.4 12.4 0 0 1-4.8-2l-8.6-4.8-1.6-.9-1.8-.6a4.2 4.2 0 0 0-.5 5.5l2.3 3.6a21 21 0 0 1 1.9 2.7c1.6 3.5 4 6.5 5.3 10.2s2.2 4.4 3.1 6.7 1.5 4.7 2.3 7a2 2 0 0 0 1.3 1.2c1.9.1 3.8.6 5.6-.5a2.3 2.3 0 0 1 1.1-.5c4 .1 7.4-2.1 11.2-2.8a126.5 126.5 0 0 1 27.5-2.1c1.7.1 3.6-.2 4.5 1.4s2.8 2 2.7 4a.6.6 0 0 0 .2.4c1.9 1.8 1.5 4.2 1.6 6.5s-1.3 4.8-3 6.7a3.2 3.2 0 0 1-2.3 1c-3.6.3-7.3.6-10.9 1.1s-4.8 1.1-7.2 1.6l-2.4.3a14 14 0 0 0-3.3.6c-2.4 1-4.9.6-7.3.9l-9.4 1.3-8.7 1-3.2.5h-13.6zm332.4-651.9a9.6 9.6 0 0 0-.7-6.1 30.5 30.5 0 0 1-2.3-5.8c-.9-3.6-3.1-6.6-4.8-9.8s-4.4-6.4-6.2-9.8-3.9-5.8-5.7-8.7a6 6 0 0 0-1.1-1.2 34.9 34.9 0 0 1-6.7-7.9c-.5-.8-1.2-1.5-1.7-2.3s-3.2-3.5-4.9-5.1-4.8-4.8-7.3-7.1a18.5 18.5 0 0 0-2.4-1.8c-1.5-1-3-1.9-4.5-3l-8.8-7.1a43.9 43.9 0 0 1-3.4-3.3 6.3 6.3 0 0 0-1.9-1.6 21.3 21.3 0 0 1-4.2-2.7c-1.8-1.4-3.6-3-5.3-4.6l-.6-.4-12.2-6.4a8.7 8.7 0 0 0-1.7-.8c-1-.3-2.2-.8-3.1.2-2.7 2.8-5.9 5.3-7.4 9.2a15.3 15.3 0 0 1-2.2 3.7 37.1 37.1 0 0 0-4.4 7.5c-1.3 3-2 6.2-3.8 8.9-.4.5-.2 1.4-.4 2.1a6.5 6.5 0 0 1-1.2 2.8c-1.8 1.6-2.6 3.7-3.8 5.7a26 26 0 0 1-1.8 2.8 50.5 50.5 0 0 0-4.9 6.6c-2.1 3.7-3.6 7.7-6.4 11a5 5 0 0 0-.5 1.1l-1.4 2.7a9.9 9.9 0 0 0-1.2 2.1 12.5 12.5 0 0 1-2.6 5c-.5.7-.8 1.5-1.3 2.3-2.3 3.4-3.7 7.2-5.9 10.7a36.2 36.2 0 0 0-4.1 7.7 30.6 30.6 0 0 1-2.5 4.9l-2.8 4.7c-1.4 2.3-2.9 4.6-4.2 6.9-.5.8-.5 1.8-1.1 2.6a39.8 39.8 0 0 0-4 6.7 81.4 81.4 0 0 1-7.2 12.5c-1.7 2.4-2.8 5.1-4.3 7.6a68.6 68.6 0 0 1-4.4 7 21.5 21.5 0 0 0-1.8 3.3 5.4 5.4 0 0 1-.8 1.4c-1.6 1.5-2.4 3.5-3.4 5.3a33.7 33.7 0 0 1-3.8 6 43.8 43.8 0 0 0-5.2 6.7 2.2 2.2 0 0 1-.7.9c-2.2 1-3.1 2.8-3.9 4.9a7.6 7.6 0 0 1-1.1 1.8c-2.5 3.5-4.9 7.1-7.6 10.4s-3.8 6.3-7 8.2a3.4 3.4 0 0 0-.6 1.2c-1.4 2.5-2.5 5-4.9 6.8a10.6 10.6 0 0 0-3.4 4.2c-1.4 3.4-3.8 5.9-6.1 8.7l-2.4 2.6c-1.7 1.7-3.5 3.2-4.7 5.3-2.1 3.8-5.6 6.4-8 9.9s-2.8 4.5-4.2 6.8a1.3 1.3 0 0 0-.2.7c.2 2.5-1.5 4.3-2.9 5.8-3.3 3.5-5.1 8-8.1 11.6l-.2.4c-.7 2.3-2.3 3.9-3.6 5.8a21.4 21.4 0 0 0-1.7 3.3c-.2.3-.1.8-.3 1.1l-3.6 6.9a20.1 20.1 0 0 0-1.4 2.5c-.8 2.1-1.3 4.3-2.1 6.5a10.3 10.3 0 0 1-1.2 2.8c-1.6 2.3-2.2 4.9-2.9 7.5s-2.9 6.1-3.9 9.3c-.5 1.6-1.7 3.1-1.9 4.8a17.4 17.4 0 0 1-2.5 6.4 56.6 56.6 0 0 0-4.2 8.9 18 18 0 0 1-1.8 4.6 40.4 40.4 0 0 0-3.8 7.9c-1.5 3.7-2.9 7.4-4.3 11.1-.8 1.9-2.4 3.6-2 5.9a.3.3 0 0 1-.1.2c-1.8 2-2.3 4.6-3.4 7s-2.5 4.6-2.7 7.3a4.1 4.1 0 0 1-.6 1.3c-.7 1.5-1.6 2.9-2.2 4.5s-1.1 3.6-1.7 5.4a3.3 3.3 0 0 1-.5.8c-2.3 3.2-4.8 6.3-6.4 10s-2.4 5.2-3.6 7.7-1.8 3.4-2.5 5.1-2.1 3.1-2.3 5.1a7.5 7.5 0 0 1-2 3.9 28.6 28.6 0 0 0-4.9 8.1c-1.9 4.1-4.9 7.5-7.1 11.3-1.1 1.9-2.7 3.6-3.8 5.5a12.4 12.4 0 0 0-2.2 4.9 5.9 5.9 0 0 1-.6 1.8c-1.3 2.7-2.6 5.4-4 8.1-.6 1.2-1.5 2.2-2.2 3.3-2 3-4.7 5.6-5.4 9.4a14 14 0 0 1-1.8 4c-1.4 2.6-2.8 5.1-4 7.8s-1 2.5-2.3 3.4a4.7 4.7 0 0 0-2.1 2.8 29.7 29.7 0 0 1-2.4 5 46.9 46.9 0 0 1-2.4 4.1c-1.1 1.6-1.2 3.7-2.6 5.2-2.8 3-4.6 6.7-6.9 10.2s-2.2 4.2-4.1 5.7a2.7 2.7 0 0 0-.9 1.6 32.1 32.1 0 0 0-.3 4.5c0 1.8 2.2 4.7 3.9 5.3l3.7 1a48.2 48.2 0 0 1 9.3 2.6l7 3c2.4 1 4.9 1.7 6.9 3.6a5.6 5.6 0 0 0 1.9.9l6.6 2.5c2.9 1.1 5.7 2.4 8.7 3.3a30.4 30.4 0 0 1 7.9 3.2 126.6 126.6 0 0 0 15.9 7.9 116 116 0 0 1 11.1 5.3c3 1.7 5.7 3.9 9.1 4.8s6.3 2.9 9.9 3.3c1.3.2 2.6 1.2 3.8 1.9 3.2 1.7 6.3 3.9 9.6 5s5.7 3.6 8.6 5.4c1.2.7 2.3 1.7 3.5 2.3s3.9 2.4 6 3.3c4.1 1.8 8.6 2.8 12.4 5.2l.9.3a41.8 41.8 0 0 1 12.5 4.1c1.9 1 3.9 1.9 5.9 2.8s4.4 1.3 6.1 2.6c3.7 2.7 8.2 3.1 12.2 5a10.8 10.8 0 0 0 1.2.1c1.9.6 3.9.3 5.7 1.4a62.1 62.1 0 0 0 6.4 3.1 5.7 5.7 0 0 0 3.7.5 5.4 5.4 0 0 1 2.6.1l8.9 3.1a21 21 0 0 0 3.9 1.1c1.9.3 4-.4 5.6 1.3 3.2.5 6 2.5 9.5 2a4.6 4.6 0 0 1 1.6.3l7.1 1.6c1.9.4 3.8.3 5.6.9a34.3 34.3 0 0 0 12.5 1.4 29.3 29.3 0 0 1 6.7.4c2.5.4 4.9 1.8 7.6.6a2.2 2.2 0 0 1 1 0c4.2.2 8.4-.1 12.6 0 2.5.1 5 1.5 7.5 0a1.8 1.8 0 0 1 .9.1 16 16 0 0 0 3 .4c2.5-.1 5-.2 7.5-.1a74.5 74.5 0 0 0 9.3-.6 2.9 2.9 0 0 0 1.1-.4 19.2 19.2 0 0 1 7.3-2 6.7 6.7 0 0 0 2.5-.6c2.7-1.5 5.8-2.2 8.1-4.4a5.3 5.3 0 0 1 1.3-.6l11-5.6.2-.2c3.2-2 6.4-4 9.6-5.9s8.8-5.9 13.8-7.9c3-1.2 6-2.6 9-3.8a8.8 8.8 0 0 1 3-.6l15.1-.2a10.1 10.1 0 0 1 2.3.5c3.8.9 7.5 2 11.4 1l3.7-1a31.1 31.1 0 0 0 5.8-1.9c3.5-1.9 7.2-3.4 10.4-5.8 1.5-1.1 3.2-1.8 4.6-3a60.9 60.9 0 0 1 8.6-6.3c2.5-1.5 4-4.5 2.2-7a63.3 63.3 0 0 0-4.2-4.8c-2.6-2.9-5.4-5.5-7.6-8.6s-4.7-4.9-6.7-7.6-3.8-2.9-4.3-5.5a1.1 1.1 0 0 0-.6-.7 8.3 8.3 0 0 1-3.2-3c-1.5-2-3.2-3.7-4.7-5.7a36.5 36.5 0 0 1-2.3-3.9c-1-1.8-1.8-3.8-3.2-5.3s-3.7-3.7-4.5-6.3a3.1 3.1 0 0 0-.8-1.1 23.2 23.2 0 0 1-4.6-6.3c-.6-1.2-1-2.7-1.9-3.4a12.8 12.8 0 0 1-4-6.3c-1.2-3.5-3.2-6.7-4.3-10.2-.4-1.4-1-2.8-1.6-4.2l-1.1-2.9c-.9-2.3-1.8-4.5-2.7-6.8s-.3-4.6-1.7-6.8-1-4.2-1.6-6.3-1-3.9-2.1-5.2-2.9-4.9-5.3-6.7-2.7-2.7-4.1-3.9-2.8-3.2-1.8-5.7a108.8 108.8 0 0 1 4.8-10.3 11.2 11.2 0 0 0 1.6-5.2 36.7 36.7 0 0 0-.9-9.2c-.2-1.1-.5-2.2-.8-3.2a18.1 18.1 0 0 0-.8-2.4c-.3-.6-.7-1.1-1-1.6l-5.6-10.4a20 20 0 0 1-1.7-2.9c-1.2-3.7-2.5-7.4-1.9-11.4.2-1.1.3-2.2.5-3.3.7-3.2.8-6.4 2.1-9.5a52.5 52.5 0 0 0 1.7-5.4 48.8 48.8 0 0 1 2.4-7.1 30.8 30.8 0 0 0 1.9-5.8c.9-3.2 1.8-6.4 3.8-9.1a4.9 4.9 0 0 0 .8-1.9c.5-2.4 1.8-4.6 1.8-7.1a2 2 0 0 1 .6-1.3c2.8-2.7 1.9-7 4.2-9.9a1.4 1.4 0 0 0 .1-.9c-.3-2.2.6-4 1.4-5.9a7.4 7.4 0 0 0 .8-2.9c0-3.2 0-6.3 1.3-9.3a13.2 13.2 0 0 0 .4-1.3l3.2-10.4a46.4 46.4 0 0 1 2-6.5 24.1 24.1 0 0 0 2-7.5c.4-3.1.6-6.2 3-8.6a1.7 1.7 0 0 0 .4-1.1c0-3 1.3-6 .1-9.1a4.8 4.8 0 0 0-1.6-2.6l-4.8-3.4a8.5 8.5 0 0 1-.9-1 16.5 16.5 0 0 0-2.3-2.3c-1.8-1.2-3.7-2.1-5.4-3.4-3.5-2.6-7-5.3-10.5-7.9a84.2 84.2 0 0 1-6.9-5 50.8 50.8 0 0 0-6-5.2 45.3 45.3 0 0 1-7.2-5.3c-2.8-2.8-6.3-4.7-9.3-7.3a123.8 123.8 0 0 0-11.7-8.9c-2.2-1.5-4.3-2.7-7-2.8s-3.3-1-5-1.2a10.6 10.6 0 0 0-4.4.2 28.6 28.6 0 0 0-4.6 2.4l-14.9 7.9a40.3 40.3 0 0 1-4.1 2.4 46.5 46.5 0 0 0-9.6 5 73.1 73.1 0 0 1-8.2 5.2c-4.3 2.2-8.2 5.1-12.5 7.3-2.2 1.2-4.4 2.5-6.7 3.5s-6 2.7-9.1 3.7a66.6 66.6 0 0 0-6.5 2.1h-.9c-2.3 0-4.1 1.4-6.1 2.3a4.9 4.9 0 0 1-3.9.5 3.3 3.3 0 0 0-2.5.1l-3.7 1.3c-2.2-1.9-2.2-2.5.3-3.6l1.1-.5 18.7-6.1a63.2 63.2 0 0 0 6.9-2.4c3.5-1.6 6.9-3.5 10.3-5.4l2.4-1.5 4.3-2.5 6.3-3.8c3.3-2 6.5-4.2 9.9-6.1s6-2.8 9.1-4.1c1.3-.6 2.6-1.1 3.8-1.8 3.8-2.2 7.5-4.4 11.2-6.7 1.4-.9 3.3-1.2 4.1-2.9l-8.2-6c-1.9 1.1-3.9 2.1-4.2 4.7a2.4 2.4 0 0 1-2 1.8c-1.2.4-2.8.4-3.5 1.2s-4.9 3.3-7 5.2a11.6 11.6 0 0 1-1.2 1.1c-2.3 1.6-4.9 2.6-7.2 4.5s-6.4 3-9.7 4.4a56.4 56.4 0 0 0-6.1 2.5c-3.2 1.7-6.4 2.7-10.1 1.9-1.3-.3-1.6-1.3-.7-2.2a4.5 4.5 0 0 1 1.3-1l8.6-4 3.1-1.7a.9.9 0 0 0 .1-1.6l-1.8.5-.2-.5 4.4-2a18 18 0 0 0 2.6-1.2c1.6-1.1 3.2-2.1 5.2-2.2a3.4 3.4 0 0 0 1.5-.7l3.5-2.3c-.3-1.7 1-2.4 2.4-2.9a16.2 16.2 0 0 0 7.2-5.5c1.2-1.4 2.2-2.8 4.2-3.4a3.8 3.8 0 0 0 1.7-5.7l-1-1.4c-1.8-2.8-3.7-5.5-5.4-8.4a57.1 57.1 0 0 1-2.6-5.2 16.7 16.7 0 0 1-1-2.6 54.9 54.9 0 0 0-1.4-5.5 20.1 20.1 0 0 1-1.2-7.7c0-1.6.1-3.2 0-4.8s-.4-2-.5-3-.5-1.8-.1-2.3c1.4-2 1.6-4.2 1.9-6.5a27.6 27.6 0 0 1 1.4-5c.5-1.6-.4-3.4.9-4.9s2.2-5.4 1.4-8.4c.9-1.8 1.7-3.6 2.7-5.3a39.8 39.8 0 0 1 2.6-4c.9-1.2 1.9-2.3 2.8-3.4a12.1 12.1 0 0 0 1.8-2.1c1.5-3.1 3.2-5.9 6.4-7.6a3.1 3.1 0 0 0 1.1-.9c2.8-4.2 7.2-6.5 10.9-9.8 1.1-1 2.4-1.8 3.5-2.9a13.8 13.8 0 0 1 6-3.2c1.6-.5 3.4-.7 5.1-1s3.4-.3 5-.7a65.7 65.7 0 0 1 8.4-1.1l5-.4 1.9.2c2.7.7 5.4 1.3 8 2.1s4 .8 6 2 6.3 4.3 10 5.4l.4.2c3.4 3.2 7.7 5.3 10.9 8.8a36.8 36.8 0 0 0 2.5 2.7zm4.3 53.5l-.2-.5a15.4 15.4 0 0 0-2.1.8l-6.4 3.6-3.8 2-3.7 1.7-6.7 2.8c-3.7 1.7-7.3 3.4-11.4 3.9a22.4 22.4 0 0 1-7.6-.4 4.5 4.5 0 0 1-3.4-3.1c-.3-1-.6-2.3.4-3.1a26.5 26.5 0 0 1 5-3.2c2.9-1.3 6-2.4 9.1-3.5a27.1 27.1 0 0 1 4.6-1.3 31.1 31.1 0 0 0 9.2-3c2.4-1.3 5.2-1.9 7.7-2.9a17 17 0 0 0 5.1-2.8 51.4 51.4 0 0 1 5.4-4.1l4.3-3.3a11.4 11.4 0 0 0-1.8-.6 16.5 16.5 0 0 1-6.2-2.7 4.4 4.4 0 0 1-2.1-3 30.3 30.3 0 0 1-.8-8.2 19 19 0 0 0-.9-6.1c-1.1-4.2-3.6-7.7-6.3-11.1a26.4 26.4 0 0 0-6.8-6.4 45.3 45.3 0 0 1-3.7-2.9l-5.4-3.9c-1.9-1.3-4-2.1-5.5-4a3.4 3.4 0 0 0-1.9-.9l-5.1-1-6.3-1.8a8.9 8.9 0 0 0-3.9 0c-3.2.3-6.4 1.2-9.7 1.2a21 21 0 0 0-6 1.2 13 13 0 0 0-4.1 1.9c-1.6 1.2-3 2.8-4.5 4.1a12.5 12.5 0 0 1-2.4 1.6 9.8 9.8 0 0 0-3.5 2.8 4.7 4.7 0 0 1-2.3 1.5 4.7 4.7 0 0 0-2.3 1.5c-.8 1-1.9 1.7-2.8 2.6a29.2 29.2 0 0 0-3.6 4.4c-1.4 2.4-2.5 5.1-3.8 7.6a41.6 41.6 0 0 1-2.5 5.1 11.8 11.8 0 0 0-1.8 5c-.3 2-.5 4.1-.8 6.1l-1.5 10.8a4.8 4.8 0 0 1-.2 1.6c-.7 1.2-.3 2.5-.1 3.7a8 8 0 0 1 .2 1.1c-.1 2.1-.4 4.3-.3 6.4a14.9 14.9 0 0 0 .8 3.7c.6 2.2 1.3 4.4 2 6.5a11.8 11.8 0 0 0 .9 2.6c1.8 3 3.7 5.8 5.5 8.8s1.6 3.2 2.4 4.8a13.5 13.5 0 0 0 1.5 2.4c1 1.2 2.3 2.2 3.2 3.5a18 18 0 0 0 6.5 5.8 3.9 3.9 0 0 1 1.2 1.1 11.7 11.7 0 0 0 5.4 3.8 46.9 46.9 0 0 1 5.4 1.8 7.7 7.7 0 0 0 3.8 1 15.9 15.9 0 0 1 8 1.7l5 2.8a19.4 19.4 0 0 1 7.5 6.4l.7.6a70.7 70.7 0 0 0 6 3.9c2.2 1.2 3.1 3.7 5.4 4.9s3.5 2.7 5.2 4a25.6 25.6 0 0 1 4.6 4.4c2.1 2.7 4.4 5.4 8.2 6.1a6.3 6.3 0 0 1 1.7.8c2.2 1.2 3.9 3.2 6.5 3.9.4.1.7 1 1 1.5s.8 1.7 1.4 2.1 3.4 1.5 5.1 2.4a5.3 5.3 0 0 1 1.8 1.4 16.9 16.9 0 0 0 6.4 5.3 24 24 0 0 1 2.8 1.7c1.4.9 2.8 1.8 4.3 2.6l7 3.4c2.4 1.1 4.8 2 7.3 2.9a11.3 11.3 0 0 0 3.9.9c3.9-.1 7.8.7 11.7.1 2.3-.4 4.8-.3 7-1.1a54.9 54.9 0 0 0 8.7-4.3 42.2 42.2 0 0 0 8-6.6c2-1.9 4.2-3.6 6.1-5.6s5-4.6 7.4-7l9.2-8.8a14.2 14.2 0 0 1 3.3-2.6 33.8 33.8 0 0 0 8.3-5.8 6.8 6.8 0 0 0 1.8-2.2c.8-1.9 1.6-3.6 3.8-4.2a1.1 1.1 0 0 0 .2-.5c-2.6-1.6-3.8-4.1-4.4-6.9a28.8 28.8 0 0 0-3.5-8.5l-5.1-8.6c-1.6-2.7-3.2-5.5-4.9-8.1s-2.8-3.8-4.2-5.8a25.7 25.7 0 0 1-3-4.5 29 29 0 0 0-3.9-7.2c-1-1.2-1.8-2.6-2.7-3.9a6 6 0 0 0-.9-1.4c-1.9-1.5-2.8-3.6-4.1-5.5s-4.2-5.9-6.5-8.8c-.9-1.1-2-1.3-2.6-.5-2 2.6-5.3 3.3-7.7 5.3a3.6 3.6 0 0 1-2 .6c-3.8.2-7.1 1.9-10.6 3.2-1.6.6-2.4 2.1-.9 3.6l4.3 4.4a4.3 4.3 0 0 1 1.3 1.9c.4 2.5 1.6 4.7 1.4 7.4s0 2.8 0 4.2.2 5-.1 7.6a79.2 79.2 0 0 0 0 8.8 10.5 10.5 0 0 1-.2 2.1c-.2 1.1-.6 2.1-.8 3.2s0 1.3-.2 1.9q-1.6 5.6-3.2 11.1c-.4 1.4-.9 2.8-1.4 4.3l-1.5 4.5a6.4 6.4 0 0 0-.3 1.1c-.5 3.5-3 5.5-5.7 7.2a3.4 3.4 0 0 1-3.4-.2 1.4 1.4 0 0 1-.5-2.4 11 11 0 0 1 2.3-2.4 4.2 4.2 0 0 0 1.7-2.5c.3-1 .6-2.4 1.3-3a6.1 6.1 0 0 0 2-3.6 16.6 16.6 0 0 1 1.7-3.9 10.5 10.5 0 0 0 1.5-6.1 8.8 8.8 0 0 1 .4-2.1c.3-1.7 1.5-3.3.6-5.2a3.7 3.7 0 0 1 .3-1.6 14.9 14.9 0 0 0 .3-2.8c-.2-3.1-.4-6.1-.7-9.2a9.4 9.4 0 0 0-.7-1.9 13.7 13.7 0 0 0-3 4.9c-.9 2.2-1 4.7-3.1 6.3a1.2 1.2 0 0 0-.3.6 32.4 32.4 0 0 1-2.9 7.3c-1.2 2.4-2.2 5-3.8 7.1a64 64 0 0 1-10.7 10.4 5.5 5.5 0 0 1-5.2.9 3.7 3.7 0 0 1-1.7-1.8c-.4-.8.2-1.3.8-1.8s3.3-2.9 4.9-4.4 4.2-5.2 6.2-7.8 3.9-7.2 5.4-11 2.6-6.8 4.1-10.1a15.7 15.7 0 0 0 .8-10.9 50.9 50.9 0 0 1-1.6-5 21.6 21.6 0 0 0-1-4.1c-.5-1.2-1.6-1.8-2.1-2.8-1.3-2.5-2.3-5.2-3.4-7.8s-.9-2.5-1.4-3.8a2.3 2.3 0 0 0-2.6-1.6h-1.4c-1.6.2-2.9.6-3.7 2.4s-2 3.5-3.5 4-3.1 2.8-3.4 4.7a8.5 8.5 0 0 1-2.3 4.9 24.8 24.8 0 0 0-3.8 4.8 3.2 3.2 0 0 1-1.2 1.1 52.8 52.8 0 0 1-6.1 3.3 6.6 6.6 0 0 0-3.7 3.2 9.2 9.2 0 0 1-3.7 3.6 4.6 4.6 0 0 0-.9.4l-7 7.1a15.7 15.7 0 0 1-1.9 1.8c-1.8 1.3-4.1 1.9-5.5 3.6l-.6.3-8.6 1.7h-1.2a2 2 0 0 1-1.6-3.1c2-3.2 3.8-6.4 6.8-8.8 1.3-1.1 2.5-2.2 3.7-3.4l2.5-2.2 4.7-4.1c1.9-1.7 3.5-3.7 5.6-5.1a30.8 30.8 0 0 0 6.8-6.2 6 6 0 0 1 3-2.2 4 4 0 0 0 2.9-3.2 9 9 0 0 1 .6-1.1zm-35.8-254.3a46.7 46.7 0 0 0 2.1 5.5 29.5 29.5 0 0 1 3.4 8.3c.5 2.6 1.9 5 1.8 7.8a9.9 9.9 0 0 0 .6 2.5c.4 1.7.7 3.4 1.2 5s0 2.8-.1 4.2-.2 5.4-.3 8 .8 3.9 2.9 4.6a24.3 24.3 0 0 1 8.1 4.5c2 1.7 4.4 2.5 6.6 3.7l5.3 2.6 3.8 2a18.9 18.9 0 0 1 3.3 1.8 26.3 26.3 0 0 0 6.6 3.6 40.2 40.2 0 0 1 4.5 2.6 16.2 16.2 0 0 0 2.2 1.3c2.9 1.1 5.8 2.2 8.3 4.1a5.5 5.5 0 0 0 1.4.8 2.1 2.1 0 0 0 2.9-1.5 16.1 16.1 0 0 1 .9-2.2l4.4-8.9a46.3 46.3 0 0 1 3.1-5.6 8.9 8.9 0 0 1 2.9-2.4c1.1-.6 2.1-.2 2.9.9s1 3.6-1.1 5.2a4.7 4.7 0 0 0-1.9 4.8 6.7 6.7 0 0 1-1.2 4.5c-.7 1.1-1.6 2.2-2.3 3.3s-2.4 3.3-2.5 5.4c2.7 1.7 3.6 1.4 4.4-1.3s1.1-3.8 1.8-5.6 2.8-4.5 6.6-4.4c1.9 0 2.7 1.5 1.8 3.3l-2.8 5a2.3 2.3 0 0 1-1 1c-1.6.6-1.9 2-2 3.5s0 2.2 0 3.4l6 2.8a2.3 2.3 0 0 0 1.3.1l10.2-2.1a10.4 10.4 0 0 0 2.8-.6c2.6-1.4 5.1-2.8 7.5-4.4s4.3-2.7 4.6-5.4.1-3.3.2-5a21.4 21.4 0 0 1 5.3-13.5c2.2-2.5 4.7-4.7 7.1-7a4.6 4.6 0 0 1 1.6-1c3.5-1.2 6.8-2.8 10.8-2.7 1.9.1 4.3-.2 5.4-2.7a3.6 3.6 0 0 1 2.1-1.4c1.8-.6 3.6-1 5.7-1.6l-.8-.4c-2.7-.4-3-.6-3-3.2s-.4-7.3.7-10.9a1 1 0 0 0-.1-.5c-1.7-1-3.3-1.9-4.7-2.9a29.7 29.7 0 0 0-7.7-3.4 37.3 37.3 0 0 1-7-3 31.7 31.7 0 0 0-5.4-2.3l-1.3-.5c-3-1.4-5.5-4.1-9.2-4.1h-.1l-14.2-4.9c-2.1-.7-4.1-1.8-6.2-2.7a5 5 0 0 0-2-.5 8.7 8.7 0 0 1-4.9-1.5 6.6 6.6 0 0 0-1.5-.7 63.9 63.9 0 0 0-8.5-2 3.9 3.9 0 0 1-3.4-3.1 82.6 82.6 0 0 0-2.6-8.9c-1.3-3.6-2.8-7.1-6-9.5l-3.4-2.5c-2.1-1.5-4.1-1.5-5.9.3s-6.1 5.8-8.1 9.6-3.3 6.7-2.6 10.6a1.7 1.7 0 0 1 0 .5c-.2 1.7-.3 3.4-.6 5.2s.9 3.5 1.1 5.2a18.8 18.8 0 0 0 1.9 6.3 31.2 31.2 0 0 1 1.7 3.9 11.3 11.3 0 0 0 4 6 6.1 6.1 0 0 1 1.9 2.7 17.9 17.9 0 0 0 3.3 5.1c.7.9 1.3 1.9 2.1 3-1.8.9-3.3 2-4.9 2.3s-2.1-.9-3.1-1.5l-1.3-.6a5.8 5.8 0 0 1-1.3-1l-2.1-2.5c-1.7-2.3-3.3-4.6-5.1-6.8s-1.4-3.3-2.1-5c-1.4-3.5-3.9-6.7-3.7-11.2a16.7 16.7 0 0 0-5.8 5.6 3.6 3.6 0 0 1-2.4 1.9c-2.6.7-4.4-.4-5.9-2.5a6.3 6.3 0 0 0-6.9-2.5 2.6 2.6 0 0 1-3-.8l-2.4-2.7-1.3.4-1.2.4c-1.7-2.8-2-2.9-4.2-1.2zm156.8-63.9l.5-.4c1.7-4.9 3.5-9.8 5.1-14.7.8-2.2 1.1-4.6 2-6.8s1.8-7.3 2.3-11.1c.1-1.1.5-2.2.6-3.3s1.3-4.1.4-6.3-1.1-3.9-1.6-5.9-1.6-6.8-3.5-9.8c-.6-.9-1.1-1.9-1.8-2.8a35.9 35.9 0 0 1-3.4-4.6 16.8 16.8 0 0 0-3.8-5l-3.8-3.6a16.2 16.2 0 0 0-1.5-1.5l-9.6-6.9a7.5 7.5 0 0 0-1.5-.7l-5.3-2.2c-1.4-.6-2.7-1.5-4.1-1.7a11.5 11.5 0 0 1-4.8-1.7l-1.1-.5c-2.9-.9-6-1.2-8.6-3l-1.1-.4a17.6 17.6 0 0 1-4.1-1.1c-3-1.7-6.5-.9-9.6-2.1a26.6 26.6 0 0 0-5.1-1.1 6.3 6.3 0 0 0-2.5 0 6.1 6.1 0 0 1-3.7 0 13.4 13.4 0 0 0-4.2-.7 31.6 31.6 0 0 0-10.9 2c-2.5.9-5.1 1.5-7.7 2.3s-3 .7-4.2 2a16.4 16.4 0 0 1-3.3 2.7c-1.6 1.1-3.4 2-4.9 3.2a29 29 0 0 0-7.5 8.5 4.5 4.5 0 0 1-.8 1.2 18.6 18.6 0 0 0-4.5 7.1 11.4 11.4 0 0 1-2.6 4.2 12.1 12.1 0 0 0-2.6 3.6 8 8 0 0 1-3.6 3.8c-1.3.8-1.9 2-2.5 3.5a26.1 26.1 0 0 0 2.6 1.2c2.5.9 5.1 1.7 7.7 2.4l8.9 2.2a70.3 70.3 0 0 1 12.6 4.3 116.1 116.1 0 0 0 13.5 4.8 51.3 51.3 0 0 1 11.1 5.2 16.2 16.2 0 0 0 3.9 2.1 14.1 14.1 0 0 1 6.9 4 5.9 5.9 0 0 0 1.5 1.2c2.4 1.2 5 2.1 7.2 3.6a57.5 57.5 0 0 0 5.7 3.3l9.8 4.7a43.1 43.1 0 0 0 5.8 2.1l8.3 2.1a42.7 42.7 0 0 1 5 1.5 25.3 25.3 0 0 1 5 2.5 40 40 0 0 0 8.9 4.8l3 1.2zM713.9 491c1.1.5 1.7.1 1.9-1.1a1.8 1.8 0 0 1 1.7-1.7c2.4-.2 4.9-.2 6.7 1.7s5.9 6.7 8.6 10.1c1.6 1.9 2.8 4.2 4.2 6.2l2.5 3.7a25.9 25.9 0 0 0 2.6 3.4 6.5 6.5 0 0 1 1.6 2.6 37.7 37.7 0 0 0 4.5 9.3l2.6 4 4.9 7.8 2.1 3.4 3.8 6.7.4.3c1.6 1.2 2.2 2.9 2.7 4.6s1.4 5.8 2.5 8.6a5 5 0 0 1-1.1 5.6 1.9 1.9 0 0 0-.5 1.6 5.3 5.3 0 0 1 .5 3.2 1.4 1.4 0 0 0 1.6 1.6 6 6 0 0 0 2.1-.3l6.7-3a2 2 0 0 0 .9-.7 7.1 7.1 0 0 1 3.2-2.7 2.4 2.4 0 0 0 1.2-1.1c.4-1.4 1.5-1.9 2.6-2.6a25.7 25.7 0 0 0 3.2-2.5c1.7-1.5 3.1-3.3 4.9-4.7 4.6-3.6 9-7.5 14.1-10.5l.4-.3c3.3-3.8 7.9-5.8 11.9-8.7s5.3-5 6-9c.3-2.1.7-4.1-.1-6.3a22.9 22.9 0 0 1-.6-4 21.1 21.1 0 0 0-.9-4.2 21 21 0 0 1-1.2-4.6 20.6 20.6 0 0 0-1.3-3.8c-.4-1-.8-1.9-1.1-2.9-1-3.3-1.7-6.6-2.8-9.8a41.2 41.2 0 0 0-3-7.4c-1.1-1.9-2.8-3.5-3.6-5.6a38 38 0 0 0-2.9-5.9c-1.2-2-2.4-4.1-3.5-6.1l-2.2-3.9c-.7-1.2-1.3-2.5-2.1-3.7-2.2-3-4.4-6.1-6.6-9a15.6 15.6 0 0 0-2.6-2.4c-.8-.6-1.7-1.1-2.5-1.8s-4.4-3.9-7.6-4a3.1 3.1 0 0 1-1.5-1.2 2.4 2.4 0 0 0-2.7-.9 8.9 8.9 0 0 0-3.2 1.9c-2.4 1.9-5.3 3.5-7.2 5.9s-6.4 6.6-9.6 9.9a48 48 0 0 1-4.7 3.7c-2.5 2-4.8 4.1-8.1 4.6l-.6.3c-.9 1.1-2.1 1.3-3.4 1.5a23.9 23.9 0 0 0-6.2 2.3 4 4 0 0 1-1.1.5c-3.4.6-5.4 3.3-7.9 5.1s-1.6 2.4-3 2.9a3.3 3.3 0 0 0-.7.9l-1.8 1.8a9.2 9.2 0 0 0-3 4.1c-.7 2.3-1.2 4.3-1.7 6.6zm-65.4-308.5a4.9 4.9 0 0 1 .1 1 4.2 4.2 0 0 0 1.5 3.9 6.9 6.9 0 0 0 3.8.9 62.7 62.7 0 0 0 6.6-.7c3-.4 4.5.8 4.7 3.9a3.3 3.3 0 0 0 1.6 3l2.1 1.3c1.6-.3 2.8-.6 4.1-.8a11 11 0 0 0 3.7-.7c1.7-.8 2.9-.2 3.8 1.6a15.3 15.3 0 0 1 1.4 3.8 4.2 4.2 0 0 0 3.5 3.5 8.9 8.9 0 0 0 3.8.1 6.1 6.1 0 0 1 3.7.5 6.5 6.5 0 0 1 2.9 2.3c.4.6 0 1.8-.3 2.7s.3 3.2 1.5 4.4 1.8 1.2 2.6 1.8 2.6 2 2.1 4.1-.6 4.4-1.9 6.3a2.1 2.1 0 0 0-.5 1.3c.4 2.6-.8 4.8-1.6 7.1a2.7 2.7 0 0 0 0 1.6c.3 1 .7 1.9 1.1 2.9l2.8 1a38.2 38.2 0 0 0 4.7 2.2 50.6 50.6 0 0 0 5.4.8 5.1 5.1 0 0 1 1.9.9c3.6 2.5 7.9 3.1 11.9 4.6s5.7 1.5 8.4 2.5c4.6 1.5 8.5 4.5 13.1 6 3.1 1 5.9 2.7 8.9 4l6.5 2.8c1.4.6 1.6.4 2.3-1a68.1 68.1 0 0 1 4-7.8c2.1-3.2 4.2-6.6 7.6-8.2a8.3 8.3 0 0 1 0-2.7c.9-2.4 2.1-4.6 2.8-7a8.9 8.9 0 0 0 .2-5.8 5.3 5.3 0 0 1-.4-2c0-1.1.3-2.2.4-3.3a45 45 0 0 0-.8-10.7 3.4 3.4 0 0 0-.5-1.7 9.8 9.8 0 0 0-2.7-1.8 2 2 0 0 0-1.8.2c-1.1 1.6-2.9 2.6-3.9 4.4s-3.1 5.7-6.7 6.5a2.1 2.1 0 0 0-.8.8 7.6 7.6 0 0 1-1 1.3 5.1 5.1 0 0 1-1.4.5 4.9 4.9 0 0 1 .1-1.4c.6-1.5 1.3-3 1.9-4.5a47.1 47.1 0 0 1 2-4.3c.8-1.4 1.9-2.7 2.8-4.1s.6-3.8-2.1-4a3.7 3.7 0 0 0-2.8.9c-1.4 1.1-2.9 2.5-4.9 1.7s.6-3.3 1.7-4.5a6.5 6.5 0 0 0-4.3-3.7c-2.4-.6-4.8-1.4-7.2-2.2l-2.3-.8a2 2 0 0 1-1-.5c-1.1-1.8-2.8-1.9-4.6-2s-1.7-.4-2.6-.5c-3.9-.2-7.2-3-11.3-2.5h-.4l-7.1-2.5-1.7-.8-4.9-2.4a26.7 26.7 0 0 1-5.2-2.8 13.5 13.5 0 0 0-4.6-2.4 29.3 29.3 0 0 1-3.8-1.1c-3.4-1.7-6.7-3.5-10-5.3-1.5-.8-2.8-2.2-4.4-2.8s-5.2-1.8-7.8-2.6a1.4 1.4 0 0 1-.7-.2c-1.2-1.7-3.2-2.3-4.9-3.2s-4.7-3.1-7.6-3.6a42.2 42.2 0 0 0-5.1-1c-3-.2-5.5-2.5-8.7-2.2a1.7 1.7 0 0 1-1.1-.4c-1.5-1.2-3.3-1.5-5-2.2l-11.7-4.6-4.2 1.2c-.7.2-1.6.2-1.9.7s-1.7 2.6-1.6 3.8a4.5 4.5 0 0 1-1 3.2 5 5 0 0 0-.8 1.4 18.5 18.5 0 0 1-3.7 7.4 1.9 1.9 0 0 0-.2 2.6 3.8 3.8 0 0 1 .4 3.6c-.1.4-.2.9-.3 1.4a3.1 3.1 0 0 0 3.1.1l4.3-2c2.1-.9 4.3-1.6 6.7-.7a5 5 0 0 1 2.7 1.8c.7 1-.2 1.8-.4 2.7a6.4 6.4 0 0 0-.2 1.2 8.1 8.1 0 0 0-.1 2.1c.3 1.2 1.9 2.1 3.5 1.7a29.7 29.7 0 0 0 5-1.6c2.5-1.7 4.5-2 6.8-.4zm35 209.3l1.9-.5c2.1-.8 4.3-1.7 6.3-2.6a4.8 4.8 0 0 0 2.6-2.6c1.4-3.7 3.1-7.2 4.5-10.9a88.7 88.7 0 0 1 4.8-9.5l2.6-4.8c.9-1.7 1.8-3.3 2.6-5a11.8 11.8 0 0 0 1.5-4.7 1.8 1.8 0 0 0-1.1-2.1 8.3 8.3 0 0 1-4-2.8 4 4 0 0 0-1.3-1 83.4 83.4 0 0 1-11.2-7 19.2 19.2 0 0 0-2.7-1.4l-5-2.5-6.1-2.6a51 51 0 0 1-4.9-2.5l-7-4.4-5.6-3.1c-3.6-2.1-6.5-5.4-10.9-6l-.4-.2c-2.2-1.9-4.9-2.7-7.5-3.8-5-2.1-10-4-14-7.7a5.3 5.3 0 0 0-2.1-1c-2.7-.8-5.3-1.6-7.4-3.5a16.9 16.9 0 0 0-5.8-3.5 4.2 4.2 0 0 1-1.2-.8l-4-3.3c-1.4-1.2-2.3-1-3.8 0a7.2 7.2 0 0 0-2.8 4.7 8.9 8.9 0 0 1-2 4.2 8 8 0 0 0-1.5 2.2c-1.1 2.3-2.4 4.6-3.7 6.9a1.9 1.9 0 0 0 .4 2.5l7.7 7.4c5.1 4.8 9 10.6 14.4 15.2 2.3 1.9 4.1 4.3 6.9 5.8a13.3 13.3 0 0 1 4.7 4.3c1.1 1.7 2.6 3 3.7 4.6s1.4 1.7 2.1 2.6l6.3 9.5.9 1.1a29.5 29.5 0 0 1 4.9 6.1 10.7 10.7 0 0 0 3.6 4.1 35.2 35.2 0 0 1 2.9 2.5 19.5 19.5 0 0 0 2.2 1.4l4.1 2.4a21.5 21.5 0 0 0 2.5 1.7c2 .9 4.1 1.6 6.2 2.3l.8.5a29.4 29.4 0 0 0 6 3.8c2.5 1.1 4.9 2.5 7.4 3.7zm124.7 66h.2l1-1c2.1-2 4.4-3.2 7.4-2.8a18.2 18.2 0 0 0 4.3-.3l3-.6c2.7-.7 5.5-1.1 7.9-2.4 4.5-2.3 8.8-5 13.1-7.6a3.5 3.5 0 0 0 1.5-1.1c.8-1.8 2.5-2.4 4.1-3.3l3.6-1.8a14.9 14.9 0 0 0 4.9-4.7c1.3-1.7 2.6-1.8 3.9-.1a21.4 21.4 0 0 1 2.6 4.7c1.2 2.7 2.2 5.6 3.3 8.3s.3 4.8-1.4 6-2.2.8-3.2 1.4-3.7.6-5.6.7a2.1 2.1 0 0 1-2.1-1.7c-.3-.9.4-1.5 1-2l1.2-.8a1.9 1.9 0 0 0 .8-2.6l-1.7-3.6c-.6-1.3-1-1.4-2.1-.7a4.7 4.7 0 0 0-2.1 3.8c-.1.8-.2 1.6-.3 2.3-.3 2.4-.6 4.7-.8 7.1a2.7 2.7 0 0 0 1.6 3c2.1.8 4.2 1.2 6.4 1.8h.5l6-1.3c1-.3 2-1.1 3-1.2s4.4-.5 6.6-.7a4 4 0 0 0 3.7-3.8c0-2.1-.3-4.3-.2-6.4s-.1-3.8-1.6-5.3-3.5-6.3-4.3-9.8-1.3-5.3-1.8-8.1a20.1 20.1 0 0 1-.2-7.7c.2-1.2.7-2.1 2-2.4a3.3 3.3 0 0 1 3.5 1.5 16.4 16.4 0 0 1 2.3 5.9 42 42 0 0 0 1.1 5.1 48.7 48.7 0 0 1 1.4 4.8 10.7 10.7 0 0 0 2.2 4.9c1.4 1.9 2.8 3.9 3 6.4s1 1.9 2.5 1.3l.9-.4a5.7 5.7 0 0 0 3.4-7.8 48.3 48.3 0 0 0-5.6-10.6c-.8-1.1-1.8-2.1-2.7-3.2s-2.9-4-4.1-6.1a27 27 0 0 1-2.6-5.6 49.1 49.1 0 0 1-1.4-6.9c-.3-1.8.3-2.6 2.1-3.2l1.1-.4a2.7 2.7 0 0 1 4 1.3c.7 1.6 1.8 3 1.7 4.9a5.2 5.2 0 0 0 .8 2.9c2.2 3 2.9 7 6.2 9.2a3.6 3.6 0 0 1 .7.9l2.1 2.9 2.2 3.3c.6 1 1.1 2.1 1.7 3.1a2.1 2.1 0 0 0 1.1 1c.8.1 1.1-.5 1.5-1.2 1.4-2.4.1-4.4-.5-6.6s-3.4-4.9-5-7.4-4.6-6.5-6.5-9.9-4.7-9.2-8.6-12.7c-1.4-1.3-1.7-1.4-3.5-.7l-4.6 1.9-2.1.9c-4.3 2.3-7.7 6.1-12.8 6.9a1.2 1.2 0 0 0-.6.4c-1.3 1.3-3.4 1.3-4.5 3a2.7 2.7 0 0 1-1.1.4l-3 1.3c-4.3 2.2-8.5 4.7-13.2 6a29.7 29.7 0 0 0-4.8 1.9l-6.8 3.7-.9.2-7 1.8a5.9 5.9 0 0 0-2.3 1.2c-1.9 1.8-4.8 2-6.3 4.4a3 3 0 0 1-.7.3c-1.5 1.1-3.1 2.1-4.5 3.4s-2.8 3.1-4.4 4.3a10.4 10.4 0 0 0-2.7 2.6 11.9 11.9 0 0 1-3.9 3.7c-1.4.9-1.5 1.6-.3 2.8s2.1 1.7 3.2 2.5c4.5 3.4 8.4 7.2 10.1 12.8.2.6.6 1.6 2 1.6zm-307.9-20.7l-7.2-1.7c-1-.2-1.5.4-2 1.3a8.5 8.5 0 0 0-.8 5.1 8 8 0 0 1-3.1 7.5l-1.5 1.1c-1.6 1.5-3.2 3.1-4.9 4.5s-2.7 1.4-3.8 2.4a74.8 74.8 0 0 1-10.3 6.7c-2.1 1.3-4.5 2-6.4 3.5s-5.9 3.6-8.9 5.3-5.2 4.2-8.6 4.9a1.8 1.8 0 0 0-.7.6c-3.9 3.9-8.9 6.5-12.6 10.7l-.9.7a19.4 19.4 0 0 0-7.1 7.5 3.8 3.8 0 0 1-1.5 1.8c-2 .8-2.8 2.5-3.8 4.1s-1.6 3.3-2.7 4.7a5.8 5.8 0 0 0-1.3 2.9c-.4 1.9-.6 3.9-1.5 5.5a11.9 11.9 0 0 0-1.5 6.1 14.2 14.2 0 0 1-.5 3.7 18.6 18.6 0 0 0 .5 11.6 38.7 38.7 0 0 1 2.1 6.7 22.9 22.9 0 0 0 2.2 7.2 36.8 36.8 0 0 1 3.4 8.1c.3 1.2.8 2.2 2 2.5s1.9-.9 2.6-1.8 2.3-3.6 3.6-5.2l5.3-6.4c1.1-1.3 2.7-2.4 3.4-3.9s2.8-4 4.3-5.9c2.8-3.5 5.7-6.8 7.9-10.7a33.5 33.5 0 0 1 2.1-2.9l4.6-6.6c1.1-1.6 2-3.6 3.6-4.7s3.7-4 5.2-6.1 3.2-6 4.7-9 2.4-5.4 4.1-7.8 3.4-4.5 4.8-7 3-4.8 4.4-7.3l2.3-3.9c.7-1.1 1.8-2.2 2.1-3.4a11.3 11.3 0 0 1 2.7-5.2 6.8 6.8 0 0 0 1.1-2.4 7.8 7.8 0 0 1 2.4-3.7 3.5 3.5 0 0 0 1.4-1.9 6.7 6.7 0 0 1 1.9-3.7 7.7 7.7 0 0 0 1.9-3.2 18.8 18.8 0 0 1 2-4l3.5-6.9a4.8 4.8 0 0 0-.5-1.4zm66.1-119.9l-1.7 3.3-1.4 3a86 86 0 0 1-4 8.8 14.6 14.6 0 0 0-2 7.4 6 6 0 0 0 2.8 5.2c4.1 3.2 9.1 4.8 13.5 7.3 2.5 1.4 5.1 2.5 7.4 4.1s6.2 4.9 9.3 7.3l8.1 6.5 6.9 5.8 2.8 2.1 6.5 5.2c1 .8 2.2 1.6 2.7 2.7s3.9 2.5 4.3 5a2.6 2.6 0 0 0 .8.5 9.6 9.6 0 0 1 1.7 1.5c1.7 2.3 3.2 4.7 4.9 7a10.8 10.8 0 0 0 2.7 2.9 7.2 7.2 0 0 1 2.9 3.6 7.4 7.4 0 0 0 1 1.6l2.5 3.1c1.6 2.2 3 4.6 4.8 6.7 3.1 3.6 4.7 8.1 6.8 12.2s3.3 8 4.9 12a3.5 3.5 0 0 1 .3.9c.2 1.8.4 3.6.5 5.4s.3 2.6 2.5 2.6 6.1 2 8.1 4.8a20.9 20.9 0 0 1 2.4 6.1 6.6 6.6 0 0 1-1.5 6.3c-.5.7-.8 1.4-1.9 1.6s-2.1 1.6-.8 3.1a9.2 9.2 0 0 1 1.8 2.2c1.1 2.6 2 5.3 3 7.9a5.4 5.4 0 0 0 1.3 2.2 5 5 0 0 1 1.8 3.4c.3 2.4.9 2.8 3.6 2.3a13.4 13.4 0 0 0-.7-7.7c-1.7-4.4-1.9-9.1-2.9-13.6-.6-2.4-.4-4.9-.7-7.3s-.5-7.3-1.7-10.8l-1.5-4.2a12.1 12.1 0 0 1-1-3.6c.1-6-2.2-11-5.5-15.8l-1.2-2c-.7-1.1-1.4-2.1-2.1-3.1s-3.2-3.8-3.7-6.4a6.5 6.5 0 0 0-1-1.9l-4.4-7.5c-1.1-1.8-2.3-3.6-3.4-5.4l-4.2-6.6-2.5-3.7c-1.6-2.3-3.1-4.6-4.8-6.8s-3.5-6.1-5.6-8.9c-3.4-4.4-7.1-8.4-10-13.2-1.6-2.6-4.1-4.6-6-7s-4.3-4-6.1-6.5a54.2 54.2 0 0 0-5.7-5.8 16 16 0 0 0-1.7-1.3l-1.6-1.3a78.2 78.2 0 0 0-7.3-6.7 94.9 94.9 0 0 1-7.2-6.4c-.8-.7-1.6-1.9-2.5-2.1s-3.8-1.6-5.7-2.3a10.3 10.3 0 0 1-2.5-1.8c-1.5-1.1-2.9-2.4-4.4-3.4a5.2 5.2 0 0 0-1.8-.5zm250.1-111.5l.3.2.4-.6a4.6 4.6 0 0 0 .9-3.6c-.2-1.3-1.4-1.4-2.3-1.7l-.6-.4c-3.1-1.3-6.4-1.4-9.6-2.2a4 4 0 0 0-.9.3c-2.1.2-4.2.8-6.1.3s-6.9-.4-10.2-1.9-6.6-2.1-9.9-3.1l-.9-.3c-1.6-.5-3.3-1.1-4.9-1.5-3.3-.8-6.5-1.6-9.3-3.5a19.2 19.2 0 0 0-2.9-1.5c-1.9-.9-4-1.4-5.6-2.6a23.3 23.3 0 0 0-6.5-3.2l-2.5-.8-8.4-3.2h-.7c-1.9-.5-3.8-.9-5.7-1.6s-5.4-1.7-7.7-3.4l-.6-.4-10.3-5.4-5.8-3.3-4.7-2.8c-2-1.2-3.9-2.6-6-3.8s-3.9-1.8-5.8-2.7-1.7-1.3-2.6-1.6c-3.2-.8-6-2.6-9.3-3.3a49.1 49.1 0 0 1-11.4-4c-1.9-1-4-2.2-6.5-1.7a5.2 5.2 0 0 1-2.3-.5 79 79 0 0 0-9.5-2.8c-1.6-.3-3.1-1.1-4.7-1.6s-3.9-.8-5.7-1.4-5.7-2.2-8.7-3.1a34.4 34.4 0 0 1-10.5-5.4l-2.2-1.3c-3.1-1.7-6.4-2.8-9-5.2a9.1 9.1 0 0 0-1.9-1 5.4 5.4 0 0 0-.1 1.3 26.6 26.6 0 0 0 3.4 9 24.8 24.8 0 0 0 6.5 6.2c3.2 2.3 6.6 4.3 9.9 6.4a5 5 0 0 0 1.4.4 47.7 47.7 0 0 1 11.7 4.4 30.3 30.3 0 0 0 3.2 1.4l2.8 1.2c1.2.5 2.4 1.2 3.6 1.7s2.3.6 3.4.9a60.5 60.5 0 0 0 5.8 1.9 37.1 37.1 0 0 1 10.3 3.4c1.8 1 3.8 1.9 5.7 2.8a13.4 13.4 0 0 1 2.6 1c2.9 2.3 6.7 2.8 9.8 4.8a53.8 53.8 0 0 0 6.6 3.2c2.6 1.2 5.1 2.8 7.9 3.8a49.8 49.8 0 0 1 10.3 4.8 56.2 56.2 0 0 0 6.7 3.7c2.2 1.1 4.5 1.9 6.8 2.8l2 .7 11.5 2.7a14.3 14.3 0 0 1 4 1.2 22.7 22.7 0 0 0 5.7 2.1 61.9 61.9 0 0 1 11.6 4.7c3.2 1.7 6.5 3.3 9.9 4.7s6.5 2.3 9.5 3.9a26.8 26.8 0 0 0 10.9 2.7c2.2.1 4.5.1 6.5 1.1a3 3 0 0 0 1.4.2l9.3-.5a7.6 7.6 0 0 0 1.8-.5zM682.9 463.5c1.6-1.7 2.8-3.1 4.2-4.4s4.7-4.1 6.9-6.4a13.2 13.2 0 0 0 2-3.7c.5-1 .6-2.1 1.1-3.1a3.8 3.8 0 0 0-.2-4.1 22.7 22.7 0 0 0-8.3-7.2c-2.9-1.5-3.7-3.5-2.8-6.6s2.4-6.4 2.1-10c-.1-1.2.9-2.6 1.4-3.9l.8-2.1a3.6 3.6 0 0 1-3.7-3.1c-.6-2.3-.9-4.6-1.3-7s-.4-3.2-.6-5a28.6 28.6 0 0 0-3.6.3 9.7 9.7 0 0 1-5.7-.8 13.1 13.1 0 0 1-5.4-3.4 2.1 2.1 0 0 0-1.2-.7 9.4 9.4 0 0 1-5.3-2.5 4.6 4.6 0 0 0-1.4-.6 1.2 1.2 0 0 0-.5 1.9 16.6 16.6 0 0 1 2 3.5 24.2 24.2 0 0 0 3.1 6.1c3.9 6.1 6.5 12.9 9.3 19.5a20.1 20.1 0 0 1 .6 2.5 22.9 22.9 0 0 0 1.3 4.5 34.5 34.5 0 0 1 4.2 16.3c-.1 2.5-.2 4.9-.3 7.4s.2 2.4.3 3.6 0 4.9.1 7.4a5.4 5.4 0 0 0 .9 1.6zm102.4-160.4l5.4-1.7a3.5 3.5 0 0 0 1.2-1.1 14.1 14.1 0 0 0 3.3-7.8c.5-3.2-2.3-7.2-5.2-7.9a51.1 51.1 0 0 1-9.8-3.4 4.9 4.9 0 0 0-6.1 1.3l-1.4 1.9c-1.5 1.9-2.9 3.9-5.7 3.7a2.8 2.8 0 0 0-1.1.3c-2.6 1.1-2.9 3.3-.9 5.1a4 4 0 0 0 1.4 1c2.3.6 4.1 2 6.1 3.1s5.8 2.9 8.7 4.2a33.2 33.2 0 0 0 4.1 1.3zm167.2 341.4c-.3-1.2-.7-2.7-1.2-4.1a14.1 14.1 0 0 0-7.7-8.3 7.8 7.8 0 0 0-2.7-.6c-3.8-.4-7 1.4-10.2 3a3.7 3.7 0 0 0-2 4 8.8 8.8 0 0 1-.3 3 6.2 6.2 0 0 0 1.5 6.4c.6.6 1.1 1.4 1.7 2 2.4 2.6 5 4.7 8.6 5.4a2.3 2.3 0 0 0 2.7-.9 7.4 7.4 0 0 1 5-3.3 5.2 5.2 0 0 0 4.1-3.2 27 27 0 0 0 .5-3.4zm-39.8-223.7a1 1 0 0 0-.2.4c.1 3.4-.5 6.4-3.1 8.9a2.6 2.6 0 0 0-.6 2.1 56.4 56.4 0 0 1 1.4 9.8c.1 1.1-.1 2.2 0 3.3a30 30 0 0 1 .3 6.5 9.3 9.3 0 0 0 .6 4.4c1.1 2.6 3.3 4.5 5.2 6.6a1.3 1.3 0 0 0 2.3-.5 5.2 5.2 0 0 0 .1-4.2 9.3 9.3 0 0 1-.2-5.6 15.9 15.9 0 0 0 .5-2.7c.1-3.1.2-6.3 0-9.4s-.6-6-1.1-8.9a40.5 40.5 0 0 0-1.3-5.5c-.6-2.2-1-4.7-3.9-5.2zm-24.3 32.5c-1 1.1-1.9 2.1-2.7 3.1s-.2 1.5.8 2a4.7 4.7 0 0 1 1.9 1.2c.9 1.7 2.5 2.6 3.8 3.9a17.7 17.7 0 0 1 2.8 3.2 4.8 4.8 0 0 0 3.4 2.2l2.8.3a3.6 3.6 0 0 0 3.5-2c.9-1.6.4-3.2.4-4.8a2.1 2.1 0 0 0-1.6-2.3l-7.9-2.4a9.4 9.4 0 0 1-2.4-.9c-1.5-.9-2.9-2.1-4.8-3.5zM773.8 255.9a45.7 45.7 0 0 1-2.7 6.4 12.2 12.2 0 0 0-1.7 6.6 12.7 12.7 0 0 1-1.3 6.4 1.2 1.2 0 0 0 .5 1.8 16.4 16.4 0 0 0 .6-1.8c.1-.5 0-1.1.2-1.7.6-2.2 1-3.7 3.3-3.7s3.5-.3 4-2.9 1.3-3.2 1-5.1a4 4 0 0 1 .3-2.1c.7-1.7.1-3.2-.3-5.1zM655.4 468.5a3.1 3.1 0 0 0 1.2 0 22 22 0 0 0 4.5-3.4c.6-.7 0-2.3 0-3.4s-1.3-3.2-2.9-4.3-4.3-1.6-7-.7c.9 2 1.9 3.7 2.5 5.6s1.2 4.1 1.7 6.2zM904.3 453c-.1-1.2 0-2.3-.5-3.1a8.9 8.9 0 0 1-.9-4.1c-.1-1.4.2-3-1-4.4l-1.6 1.1c-1.2 1-2.4 2-3.7 2.9s-1.7 1.1-1 2.8 4.4 4.8 8.7 4.8zm-388.9-44.1l-.4-.3h-.5a8.1 8.1 0 0 0-4.4 4c-1.3 2.8-1.3 6-2.2 8.9a8.5 8.5 0 0 0 0 2.2 47.2 47.2 0 0 0 7.5-14.8zM633.2 506h-.9a69.1 69.1 0 0 0-13.1 3.2c-1.3.4-2.9 1-3 2.9 3.9.2 14.5-3.4 17-6.1zm211.4-49.9l.9-3.7c.2-.9-.4-1.9-1.1-1.6a44.5 44.5 0 0 0-5.3 2.1 15.8 15.8 0 0 0-2.5 1.7c-.7.5-1.7 1-1.1 2.4zm-185.7 48.8l.6.5 1.7-2.1 3-4.2 2.5-3.2c-.8-1.3-1.3-2.4-2-3.3a2.4 2.4 0 0 0-1.3-1.1 5.3 5.3 0 0 0-2.1 1.4 1.2 1.2 0 0 0 .3 1.9 2.7 2.7 0 0 1 .8 2.9 29.3 29.3 0 0 1-1.9 4.3c-.4 1-1.1 2-1.6 2.9zM233.2 763.7a34.9 34.9 0 0 0-2.1-3.9c-.9-1.2-1.9-1.1-3.6 0s-1 1.1-.4 2.6 1.8 1.9 2.9 2.6zm412.2-244.4l-.5-.4-4 3.2a26.2 26.2 0 0 0-2.4 1.5c-1.9 1.8-3.7 3.7-5.6 5.5-.4.4-1.1.8-.4 1.6 2.3-2.2 5.5-3.2 7.5-5.7l1.6-1.7zm129.8 496.4l-.4-.5a17.4 17.4 0 0 0-2 1.8c-2 2.4-3.5 5.3-7.1 5.9a1.3 1.3 0 0 0-.7.6l-2.4 3.8h.6a14.1 14.1 0 0 1 5.2-3.9 1.4 1.4 0 0 0 .7-.6c1-2.4 3.3-3.2 5.4-4.6zM656.6 476.8c-1.2.7-.8 1.4-.3 2.1a1.5 1.5 0 0 0 2.4.6zm-10 40.6l.4.6 4-2.9a5.1 5.1 0 0 0 .7-1.1c-2.8.1-3.2 2.7-5.1 3.4zm-12.1-12.1c2.2.4 3-1 3.8-2.2zm123.3 526.5c1.3.3 1.5-.3 1.5-1.1l-.4-.4zm250.6-405.4l-1 1.5c-1.1 1.5-2.2 2.1-3.3 1.6s-1.8-1.8-1.4-3.7.3-1.7.4-2.5c.5-2.5-1.2-4.2-2.6-5.9-2.6-3.3-2.4-4.3 1.6-5.3a3.9 3.9 0 0 1 4.9 2.6c.4 1 .9 2.1 1.4 3.1v8.6z"/><path d="M832.5 574.4a5.9 5.9 0 0 1 0-2.1c1.4-3.6 3-7.1 4.5-10.7s2.8-6.4 3.5-9.8a15.9 15.9 0 0 1 1.2-3.4c1.4-3.2 3-6.3 4.3-9.5s3.1-8 4.6-12a10.8 10.8 0 0 0 .4-1.9 2.9 2.9 0 0 1 .2-1.2c2.2-2.7 2.5-6.1 3.7-9.2s1.9-5.1 2.9-7.7 1.5-4.3 2.3-6.4 1.6-3.8 2.3-5.7 1.9-4 2.2-6.3a4.5 4.5 0 0 1 3-3.7c2.1-.8 3.2.1 2.8 2.3s-1 4.8-1.4 7.2a40.5 40.5 0 0 1-.7 4.2 12.9 12.9 0 0 1-1.9 4.3 10.2 10.2 0 0 0-1.2 3.8 10.7 10.7 0 0 1-1.9 4.8c-1.5 1.8-1.7 4.2-2.3 6.4a34.4 34.4 0 0 1-3.5 8.2 15.4 15.4 0 0 0-1.8 4.1 85.6 85.6 0 0 1-4 11.8 32.4 32.4 0 0 1-3.2 5.8 2.6 2.6 0 0 0-.5 1.1c-.5 5-3.4 9-5.5 13.3l-1.2 2.5c-1.2 2.2-2.3 4.5-3.5 6.7s-3.2 3.3-5.3 3.1zm101.9-79.6a3.6 3.6 0 0 1 0 1.4c-1.2 2.4.1 4.2 1.2 6.1a39.8 39.8 0 0 1 2.7 6.1c1.2 3.3 2.1 6.7 3.4 10s1.4 5.7 2 8.5.8 3.9 1.4 5.8a19.4 19.4 0 0 0 2.2 4.7c1.6 2.4 2 5.1 2.6 7.8s.8 4.8 2.4 6.8a6 6 0 0 1 .8 5.4c-.5 1.9-1.8 2.4-3.4 1.1a3.1 3.1 0 0 1-1.4-2.7 3.7 3.7 0 0 0-.9-2.6 18.7 18.7 0 0 1-1.4-2.5c-.8-1.5-1.6-2.9-2.3-4.4s-1-3.2-1.6-4.7-1.3-2.5-1.9-3.7a23.7 23.7 0 0 1-2.7-8.3c-.1-1 0-1.9 0-2.9a8.7 8.7 0 0 0-1.2-4.7 18.1 18.1 0 0 1-2.3-6.9 1.6 1.6 0 0 0-.2-.9c-1.7-1.6-1.7-3.8-2.2-5.9s-.9-2.4-1.2-3.6c-.9-3.5-1.7-6.9-2.5-10.4a7.2 7.2 0 0 1-.1-1.2c-.1-2.2.2-3.2 1.3-3.4s4 0 4.9 1.9a16.4 16.4 0 0 1 .8 3.2h-.3zm22 13.1a14.6 14.6 0 0 1 1.2 2.3c.9 2.9 2.8 5.3 4.6 7.7a18.6 18.6 0 0 1 3.9 9 20.4 20.4 0 0 0 2.6 7.3 42.6 42.6 0 0 1 2.8 6.3c1.2 3.3 1.8 6.8 3.8 9.9 1 1.5 1.9 3.1 3 4.5a15.6 15.6 0 0 1 2.7 7.2l-1.6 1.4a10.8 10.8 0 0 1-2.5-1.8c-2.3-3.1-5-6.1-6.5-9.6s-4.1-7.1-5-11.2c-.4-1.8-1.7-3.4-2-5.3a32 32 0 0 0-.7-4.5 29.7 29.7 0 0 0-1.6-3.9l-.4-.6-3.1-9a14.2 14.2 0 0 0-.7-1.7 8.9 8.9 0 0 1-.9-6.2 8.3 8.3 0 0 0 0-1.8h.5zm-64.2 48.7a24.5 24.5 0 0 0-.5-3.4 5 5 0 0 1 .1-3.5 3.4 3.4 0 0 0 .3-2.2c-1.3-3.3-1-6.7-.6-9.9a99.4 99.4 0 0 0 .7-11.6c0-1.5.4-3 .5-4.5a9.6 9.6 0 0 0 0-3.8c-.8-2.2-.4-4.4-.4-6.6a3.6 3.6 0 0 1 3-3.4l1.9-.6a2.4 2.4 0 0 1 .4 1c-.3 2.4.3 4.9-.7 7.3a3.6 3.6 0 0 0 .7 4 3.8 3.8 0 0 1 .8 2.6 59.3 59.3 0 0 1-1 6.3c-.7 3.6-1.7 7.1-2.2 10.7-.3 1.9.3 3.8-.5 5.6 1 2.4.3 4.9.4 7.3a23.3 23.3 0 0 1 0 3.1c-.2 2.4-1 2.8-2.9 1.6zm-23.3 5.6a6.1 6.1 0 0 0 .4-2c-.6-3.9.5-7.7.8-11.5s1.6-6.6 2-10 2.1-9.1 2-13.8a16.9 16.9 0 0 1 .9-4.2l.8-3.2a25.9 25.9 0 0 1 3.3-1.3 1.7 1.7 0 0 1 2.2 2.2c-.3 1.9-.6 3.9-1 5.8a11.2 11.2 0 0 1-1 3.2c-1.5 2.7-2.6 5.4-2.4 8.5a1.7 1.7 0 0 1-.1.9c-1.3 2-1.1 4.3-1.3 6.5a3.2 3.2 0 0 1-.3 1.4 10.5 10.5 0 0 0-1.6 4.9c-.1 1.3-1 2.5-1.4 3.7s-1.4 5.3-2.1 8a2.9 2.9 0 0 1-1.2.9zm75.5-86.3a4.5 4.5 0 0 1 3.5 2.9 56.6 56.6 0 0 1 2.3 8.4 41.4 41.4 0 0 0 1.2 6c.7 2.1 1.3 4.2 2.1 6.3a26.5 26.5 0 0 0 1.7 3.6c.9 1.7 1.1 2.6 0 3.7s-1.5 1.2-1.9 1-1.8-1.3-1.8-1.9c.1-2.3-.9-3.9-2-5.7s-.8-2.9-1.2-4.3-1.2-3.9-2-5.8-1.9-4.2-2.8-6.2-1.3-2.7-1.9-4.1.2-4 2.8-3.9zm-39.3 183c-2.1-.3-3.5-.9-3.8-2.7a3.4 3.4 0 0 0-.4-1.1c-2.8-4.5-3.1-9.2-2.1-14.4.5-2.4 1.1-4.4 3.1-5.8a20.9 20.9 0 0 1 3.6-1.8 1.5 1.5 0 0 1 2 .8 4 4 0 0 1-.3 2 .8.8 0 0 1-.3.3 8 8 0 0 0-3.2 7 40.6 40.6 0 0 0 .9 8c.3 1.2 1.4 2.3 2.2 3.3a2.3 2.3 0 0 1 .5 2.8 3 3 0 0 1-2.2 1.6zm-47.6-12.7l-1.6 2.2c-1.3 1.6-3 1.3-4.5.5a10.8 10.8 0 0 1-4.6-4.1 13.9 13.9 0 0 1-2.2-6.2 7 7 0 0 1 1.1-4 14.8 14.8 0 0 1 5.5-4.9 6.1 6.1 0 0 1 4.2-.4 30.1 30.1 0 0 0-4.5 5.5 3.4 3.4 0 0 0-.4 3.1 9.7 9.7 0 0 0 5.6 6.9 7.2 7.2 0 0 1 1.4 1.4zm122.8-4.4l-2.5-2.2c.6-1.9 1.4-3.8 1.8-5.6a6.9 6.9 0 0 0-1.6-6.2 6.5 6.5 0 0 1-1.3-2.4 2.3 2.3 0 0 1 1.1-2.6 2.7 2.7 0 0 1 2.9 0c3 1.3 3.4 3.9 3.8 6.6a18.8 18.8 0 0 1 .3 2.8c0 3.7-.9 7.2-4.5 9.6zm-96-5.1l-.8 1a6.8 6.8 0 0 0-2.8 5.8c0 2 .1 4.1-.1 6.1a2 2 0 0 1-2.2 2 1.2 1.2 0 0 1-.9-.2c-1-1.6-3.1-2.5-3.3-4.6s-.6-3.4.4-5.1a6.8 6.8 0 0 0 .7-1.5 4 4 0 0 1 3-2.7 13.2 13.2 0 0 1 6-.8zm-52.2-12.3l-1.6 3.6c-.3.6-.7 1.2-1 1.9a6 6 0 0 0 1.5 6.9c1.3 1.4 1.3 2.6 0 3.4a2.7 2.7 0 0 1-2.2.4 9 9 0 0 1-5.2-8.1c.2-3.9 2.6-6.5 5.8-8.4a6 6 0 0 1 2.3-.2zm-29.3.7c.3-5 2.1-8.2 6-9.9a1.6 1.6 0 0 1 1.5.1 1.9 1.9 0 0 1 .3 1.7c-1.3 1.9-1 3.8-1 5.9a34 34 0 0 0 .5 4.6c.1.8.3 1.8-.7 2.3s-2 .8-3.1 0-3.9-2.8-3.5-4.7zm91.7-57.4a9 9 0 0 1 1.1 4.7c0 1.7-.2 3.5-.3 5.2s.1 3 .2 4.5a4.2 4.2 0 0 1 0 1.2c-.2 1-.6 2-1.8 1.9s-1.4-1.1-1.5-2.1-.3-1.9-.4-2.8-.6-2.6.3-3.9.1-1.6.2-2.3a42.9 42.9 0 0 1 .8-4.6 6 6 0 0 1 1.4-1.8zm-34 41.2c-1.2-1.9-1.8-3.3-.9-5.1a7.4 7.4 0 0 0 .2-2.6 5.1 5.1 0 0 1 3.6-4.8c1.6-.6 2.9.4 2.4 2s-2.1 5.6-3.3 8.4a10.2 10.2 0 0 1-2 2.1zM822 597.3c1.1-3.4 2.2-6.5 5.4-8.5a1.9 1.9 0 0 1 2.5.5 1.4 1.4 0 0 1-.3 2.3 4.8 4.8 0 0 0-1.5 2.5 15.8 15.8 0 0 1-2.1 3.3c-.3.4-.8.6-1.1.9s-1 1.4-1.7.9a5.4 5.4 0 0 1-1.2-1.9zm136.6-6.7c0-2.4 1.8-4 3.9-3.6a2.8 2.8 0 0 1 1.7 1.3 5.2 5.2 0 0 1-1.7 6.9c-1.5 1-3.1.5-3.4-1.3s-.4-2.3-.5-3.3zm31.2 10c-.3-2.5-1.8-4.6-1.4-7 1.4-.7 2.4 1.6 3.4-.2.6 1.3 1.2 2.5 1.8 3.7a2.2 2.2 0 0 1-.3 2.5 2.8 2.8 0 0 1-3.5 1zm-93.7 1.2c.6 1.6 1.1 2.9 1.7 4.2s-.1 1.9-.8 2.4-1.4.3-2.1-.3-1.8-1.2-1.7-2.6a2.2 2.2 0 0 1 1.1-2.2 14.8 14.8 0 0 0 1.8-1.5zm-.9-42.8c-.2 1.5.5 3.1-1 4.4-1.2-1-2.3-1.9-1.8-3.5s1.4-1.5 2.8-.9zm-26.3 3.2l.5 2.8c-1.8-.8-.4-1.9-.5-2.8zm-415 120l-.8 4.6c-.4 2.1-1.8 3.5-3 5.1s-1.4 1.5-1.4 2.7a2.7 2.7 0 0 1-1 1.6 17.5 17.5 0 0 0-4.9 9 3.1 3.1 0 0 0-.1 1.4 19.4 19.4 0 0 0 6.7 10.6 35.2 35.2 0 0 1 3.2 2.8c1.9 2 4.4 3.1 6.7 4.4s6.4 4 9.7 5.9a29.2 29.2 0 0 0 4.3 1.8l4.2 1.5c4.2 1.6 8.4 3 12.6 4.8s8.1 2.1 12.1 2.9 6.1 1.2 9 2 4.8 1.7 7.2 2.3a24.4 24.4 0 0 0 6.3 1.2 41.9 41.9 0 0 0 8-1 5.4 5.4 0 0 0 2.3-1.7 22.7 22.7 0 0 1 2-2.4c2.9-2.2 4.2-5.6 6-8.5.5-.8 1.2-1.5 1.7-2.2a57.2 57.2 0 0 0 4.8-10 48 48 0 0 1 3.3-6.7 5.1 5.1 0 0 1 2.8-1.7c1-.3 2.5 1.4 2.1 2.5a25.6 25.6 0 0 1-1.6 3.7 4.3 4.3 0 0 0-.8 1.6c.2 3-1 5.7-1.6 8.6a4.1 4.1 0 0 1-.7 2c-1.5 1.5-2.1 3.3-3 5.1s-3.5 5.5-5.1 8.3a24 24 0 0 1-6 6.4 5.4 5.4 0 0 1-3.1 1.1 25.3 25.3 0 0 0-6 1.1 8.1 8.1 0 0 1-3.9.4c-2.7-.3-5.4 0-8.1-.2a76.4 76.4 0 0 1-8.2-1.4 69.6 69.6 0 0 1-10.6-3.1 8.8 8.8 0 0 0-3.4-.2c-2.6.2-4.7-1.5-7.1-1.8s-7-3.1-10.8-4c-5.3-1.3-10.2-3.8-15.3-5.5a3.4 3.4 0 0 1-1.4-.9 16.7 16.7 0 0 0-4.6-3.3 81 81 0 0 1-13.8-8.7 43.7 43.7 0 0 1-6.3-5.8 15.9 15.9 0 0 1-3.6-10c-.1-2.3 1.3-3.9 2.7-5.4s2-3.7 4-4.6a3.3 3.3 0 0 0 .4-1.1 28.5 28.5 0 0 1 1.6-2.9c1.4-2.1 3-4 4.2-6.2s.4-2.3.6-3.5a6.8 6.8 0 0 1 .3-1.6c1.8-3.7 5-4.1 7.4-1zm217.4-444.5c-1.7-2.5-4.3-2.7-6.6-3.3h-1.2c-.8-.1-1.8-.1-1.8-1.1a2.6 2.6 0 0 1 1.3-1.8c2.2-1.1 4.4-2 7-1.2s3.7.2 5.1 1.7a49.2 49.2 0 0 1 3.5 4.1 1.6 1.6 0 0 1 .2 1.4c-.9 1.7-1.5 3.9-3.8 4.2s-2.7 1.9-3.4 3.3a3.3 3.3 0 0 0 .5 2.4c1 2 2.4 3.5 5 3a1.9 1.9 0 0 1 1.6 1 2.4 2.4 0 0 1-.5 2.1 19.8 19.8 0 0 1-4.2 2.3 4.8 4.8 0 0 1-5-1.5 15.1 15.1 0 0 0-2-2 7.1 7.1 0 0 1-1.9-7.9c.9-2.2 2.6-3.6 4.3-5z"/>
</g>

</svg>
