<?xml version="1.0" encoding="utf-8"?>
<!-- Generator: Adobe Illustrator 12.0.0, SVG Export Plug-In . SVG Version: 6.00 Build 51448)  -->
<!DOCTYPE svg PUBLIC "-//W3C//DTD SVG 1.1//EN" "http://www.w3.org/Graphics/SVG/1.1/DTD/svg11.dtd" [
	<!ENTITY ns_svg "http://www.w3.org/2000/svg">
	<!ENTITY ns_xlink "http://www.w3.org/1999/xlink">
]>
<svg  version="1.1" id="Layer_1" xmlns="&ns_svg;" xmlns:xlink="&ns_xlink;" width="94.862" height="97.53"
	 viewBox="0 0 94.862 97.53" overflow="visible" enable-background="new 0 0 94.862 97.53" xml:space="preserve">
<path fill="#2F3E51" d="M94.583,51.938c0,25.178-20.411,45.592-45.589,45.592c-25.178,0-45.595-20.414-45.595-45.592
	c0-25.181,20.417-45.593,45.595-45.593C74.172,6.345,94.583,26.757,94.583,51.938L94.583,51.938z"/>
<path fill="#98CA3E" d="M48.511,1.611c0.978,0,1.956,0.032,2.934,0.096c2.934,0.189,5.867,0.675,8.707,1.44
	c1.426,0.37,2.77,0.835,3.899,1.24l1.833,0.722l0.786,0.358l1.321-0.168l1.519-0.055l0.792,0.008l0.087,0.003l0.733,0.044
	l0.064,0.006c-1.822-1.03-3.777-1.9-5.85-2.596c-2.788-0.94-5.768-1.557-8.858-1.83c-2.986-0.271-6.1-0.221-9.26,0.146
	c-2.479,0.285-4.994,0.768-7.497,1.44c0.728-0.134,1.461-0.256,2.2-0.367C44.093,1.773,46.299,1.611,48.511,1.611L48.511,1.611z
	 M66.577,6.197l-1.112,0.224L64.37,6.75l-0.919,0.358L62.724,7.48c-0.635,0.39-0.891,0.71-0.926,0.878l0.023,0.096l0.774,0.34
	l0.867,0.146l0.564,0.05l0.349,0.029l0.314,0.026c0.472,0.038,0.99,0.064,1.596,0.082l0.075,0.003
	c0.564,0.035,1.21,0.076,1.921,0.104l0.855,0.053l0.314,0.023l1.734,0.128l0.948,0.102l0.524,0.055l0.093,0.009l-0.92-0.596
	l-0.529-0.329l-1.624-0.946l-1.967-1.019L66.577,6.197L66.577,6.197z M80.545,15.16l0.925,0.378
	c-1.832-3.46-4.702-6.588-8.328-9.027l-0.465-0.306L72.636,6.2l-1.584-0.201l-0.681-0.038l-0.093-0.003l-0.763-0.012l-1.455,0.052
	L67.886,6.02l0.141,0.064l2.002,1.036l1.629,0.951l0.57,0.35l1.665,1.094L74.3,9.808l1.367,0.745l0.402,0.393l0.35,0.416l0.109,0.14
	l0.502,0.402l0.174,0.146l0.338,0.279l1.565,1.408l1.403,1.391L80.545,15.16L80.545,15.16z M82.553,16.126l0.845,0.582l0.069-1.077
	c-0.029-0.914-0.239-1.845-0.629-2.759l-0.716-1.257l-0.442-0.611l-0.448-0.512l-0.047-0.049L80.05,9.375l-1.303-0.919l-0.693-0.419
	l-0.559-0.288l-0.168-0.082l-1.52-0.649l-1.287-0.399C78.083,9.235,80.859,12.526,82.553,16.126L82.553,16.126z M81.749,16.47
	l0.303,0.337l0.07,0.076l-0.116-0.265L81.749,16.47L81.749,16.47z M83.089,17.363l0.115,0.297l0.047-0.169L83.089,17.363
	L83.089,17.363z M83.612,18.693c1.577,1.912,3.009,3.963,4.266,6.097l0.047,0.076l-0.39-1.08c-0.269-0.646-0.53-1.243-0.804-1.807
	c-0.314-0.588-0.646-1.156-0.983-1.688c-0.57-0.864-1.21-1.63-1.909-2.282L83.612,18.693L83.612,18.693z M4.731,30.29l-0.599,1.426
	l-0.105,0.25l-0.146,0.341l0.046-0.035l1.094-0.966l0.489-0.521l0.238-0.276l0.239-0.276l0.867-1.149l0.204-0.308l0.215-0.317
	l0.402-0.625l0.238-0.413c0.425-0.745,0.873-1.514,1.269-2.331l0.006-0.018l0.768-1.464l0.192-0.381l0.128-0.247l0.076-0.14
	l0.82-1.548l0.274-0.48l0.174-0.306l0.687-1.205l0.25-0.387l0.262-0.413l0.756-1.161l0.303-0.428l-0.018,0.021l-0.186,0.187
	l-0.343,0.358l-1.321,1.455l-0.151,0.177l-0.093,0.114l-0.989,1.202l-0.093,0.11l-0.151,0.184l-1.164,1.56l-0.32,0.451l-0.117,0.178
	l-0.873,1.289l-0.262,0.41l-0.146,0.242l-0.809,1.327l-0.483,0.884l-0.256,0.469L5.738,28.2L4.731,30.29L4.731,30.29z M3.766,32.618
	l-0.192,0.529l-0.186,0.501l-0.198,0.55l0.041-0.026l0.058-0.038L4.08,33.38l-0.221-0.632L3.766,32.618L3.766,32.618z M90.2,31.067
	l0.117,0.596c0.232,1.205,0.459,2.343,0.721,3.458c0.141,0.637,0.291,1.213,0.473,1.771c0.162,0.557,0.343,1.144,0.576,1.715
	l0.36,0.847l0.384,0.814l0.047,0.09c-0.488-2.775-1.246-5.525-2.264-8.235L90.2,31.067L90.2,31.067z M89.606,49.097l-0.366,0.047
	l-0.989,0.911l-0.123,0.407l-0.086,0.497l0.086,1.199l0.041,0.187l0.129,0.544l0.262,0.795l0.384,0.884l0.478,0.979l0.605,1.064
	l0.349,0.582l0.366,0.594c0.408,0.649,0.891,1.354,1.409,2.099l0.116,0.172l0.047-0.154c0.134-0.591,0.25-1.179,0.355-1.758
	l0.063-0.416l0.034-0.269l0.012-0.128l0.064-0.782l0.035-0.745v-0.681l-0.111-1.293c-0.086-0.838-0.308-1.539-0.494-2.06
	l-0.332-0.789l-0.39-0.631l-0.826-0.854L89.606,49.097L89.606,49.097z M87.535,62.571l0.011,0.053
	c0.053,0.146,0.251,0.48,1.037,1.117c0.453,0.364,1.018,0.763,1.646,1.167l0.279-0.687l0.141-0.344l0.109-0.276l-0.273-0.681
	l0.222-0.413C87.972,62.213,87.587,62.499,87.535,62.571L87.535,62.571z M90.946,65.353c1.564,0.937,2.746,1.432,3.206,1.476
	l-0.238-0.367l-0.972-1.033c-0.391-0.363-0.873-0.771-1.443-1.216L90.946,65.353L90.946,65.353z M88.233,70.245L88.21,70.28
	c-0.635,1.001-1.304,1.99-1.996,2.96l0.14-0.14l0.483-0.568l0.232-0.291l0.203-0.308l0.77-1.307L88.233,70.245L88.233,70.245z
	 M4.284,66.712l0.809,1.769l0.059,0.126l0.104,0.212l0.908,1.734l0.296,0.529l0.478,0.81c0.384,0.681,0.826,1.339,1.251,1.976
	l0.431,0.649l0.611,0.838l0.309,0.413l0.466,0.629l0.32,0.39l0.146,0.178C9.9,76.08,9.353,75.16,8.829,74.211
	c-1.496-2.846-2.619-5.835-3.341-8.891c-0.361-1.481-0.57-2.896-0.71-3.957L4.598,59.53L4.54,58.247l-0.018-0.46l-0.006-1.391
	l0.035-1.403l0.018-0.265l0.011-0.125l0.053-0.687c0.052-0.736,0.104-1.435,0.209-2.107L5,50.555l0.192-1.164l0.169-1.079
	l0.006-0.018l0.192-1.007l0.151-0.935l0.064-0.39l0.093-0.501l0.104-0.806l0.041-0.379l0.035-0.407
	c0.093-0.853,0.052-1.714-0.116-2.622l-0.39-1.146L5.5,40.006l-0.245-0.478l-0.343-0.567l-0.931-1.164l-0.594-0.614l-0.658-0.628
	l-0.012-0.009l-0.204-0.228l-0.006,0.023l-0.14,0.469l-0.192,0.751l-0.128,0.512l-0.244,0.989l-0.303,1.514l-0.052,0.268
	l-0.093,0.483l-0.337,2.293l-0.215,2.313L0.78,46.429l-0.076,1.815v1.013l0.006,0.526l0.006,0.332l0.041,1.196l0.099,1.56
	l0.07,0.757l0.227,1.927l0.39,2.287l0.512,2.272l0.058,0.233l0.565,1.999l0.745,2.203L4.284,66.712L4.284,66.712z M23.246,88.465
	c1.67,1.038,3.411,1.946,5.209,2.718c0.739,0.34,1.513,0.625,2.258,0.899l0.681,0.253l1.007,0.32l0.483,0.151l0.75,0.229
	l0.478,0.125l0.268,0.067l0.151,0.04l-1.333-0.562l-1.216-0.541l-0.64-0.276l-0.448-0.195l-0.937-0.378l-0.803-0.312
	c-0.919-0.358-1.461-0.492-1.466-0.492l-0.041-0.012l-0.198-0.075l-1.997-0.861l-0.489-0.235l-0.233-0.12L23.246,88.465
	L23.246,88.465z M46.881,95.458l-1.176-0.003l-0.838-0.026c-0.663-0.04-1.327-0.09-1.979-0.143h-0.012l-0.285-0.034l-0.664-0.053
	l-0.489-0.041l-1.06-0.093l-1.548-0.21l-0.262-0.034l-0.518-0.076l-0.774-0.148l-0.454-0.087l-1.088-0.216l-1.53-0.381l-0.262-0.064
	l-0.512-0.137l-0.756-0.232l-0.478-0.148l-1.042-0.332l-0.687-0.253c-0.756-0.279-1.542-0.567-2.299-0.92
	c-3.958-1.693-7.653-4.054-10.971-7.004l-1.216-1.136l-0.53-0.532l-0.238-0.247l-0.512-0.457l-0.431-0.378l-0.39-0.373l-0.186-0.181
	l-1.124-1.108l-0.367-0.387l-0.18-0.198l-1.077-1.176l-1.001-1.21l-0.168-0.204l-0.332-0.41l-0.477-0.638l-0.303-0.41l-0.628-0.864
	L7.601,74.26c-0.431-0.648-0.879-1.317-1.275-2.017l-0.471-0.8l-0.32-0.57l-0.908-1.729L4.51,68.901l-0.058-0.123l-0.821-1.795
	l-0.873-2.2l-0.757-2.238l-0.564-2.008l-0.07-0.256L0.85,57.97l-0.396-2.322l-0.227-1.938l-0.076-0.797l-0.099-1.549l-0.041-1.242
	l-0.005-0.329L0,49.266v-1.042L0.076,46.4l0.023-0.519l0.221-2.354l0.338-2.309l0.099-0.515l0.052-0.265l0.309-1.525l0.25-1.016
	l0.128-0.509l0.192-0.757l0.151-0.503l0.076-0.257l0.46-1.486l0.355-0.984l0.18-0.497l0.268-0.73l0.198-0.486l0.105-0.247
	l0.617-1.449l1.019-2.122l0.373-0.684l0.25-0.466l0.501-0.905l0.814-1.345l0.14-0.233l0.285-0.445l0.873-1.29l0.117-0.171
	l0.343-0.486l0.006-0.012l1.158-1.548l0.169-0.207l1.083-1.315l0.087-0.105l0.175-0.207l1.315-1.449l0.378-0.39l0.18-0.181
	l1.106-1.115l0.39-0.358l0.198-0.183l1.176-1.071l1.21-1.007l0.215-0.178l0.413-0.332l1.31-0.993l0.6-0.434l1.304-0.89l0.11-0.079
	l0.227-0.151l1.013-0.626c1.636-1.077,3.341-1.956,4.639-2.599L28.07,6.06l0.408-0.183l0.599-0.265l0.187-0.084L29.7,5.347
	l0.559-0.215c2.532-1.144,5.075-2.104,7.578-2.863c3.097-0.937,6.228-1.592,9.301-1.947c3.207-0.37,6.373-0.422,9.405-0.148
	c3.144,0.283,6.176,0.908,9.021,1.866c2.654,0.89,5.128,2.066,7.375,3.495l0.651,0.122l0.821,0.201
	c0.529,0.143,1.094,0.303,1.641,0.5c0.547,0.209,1.07,0.437,1.577,0.672l0.169,0.082l0.611,0.314l0.722,0.437l1.374,0.972
	l1.192,1.126l0.052,0.05l0.49,0.564l0.465,0.649l0.774,1.362c0.431,1.007,0.663,2.022,0.692,3.035
	c0.006,0.539-0.041,1.074-0.146,1.606c0.85,0.748,1.63,1.644,2.316,2.68c0.349,0.553,0.692,1.138,1.019,1.746l0.006,0.015
	c0.273,0.579,0.547,1.187,0.826,1.859c0.501,1.324,0.914,2.643,1.223,3.929l0.076,0.312l0.244,0.486l0.809,1.79l0.169,0.401
	l0.559,1.426c1.245,3.317,2.106,6.702,2.578,10.109l0.536,1.042l0.197,0.556l0.117,0.516c0.109,0.6,0.133,1.192,0.063,1.764
	l-0.337,1.158l-0.233,0.434l-0.623,0.898l-0.017-1.094c-0.029-1.677-0.158-3.355-0.385-5.025l-0.355-0.579l-0.127-0.207
	l-0.484-0.847l-0.406-0.864l-0.361-0.853c-0.25-0.605-0.437-1.214-0.6-1.778c-0.18-0.57-0.344-1.17-0.482-1.821
	c-0.269-1.124-0.49-2.268-0.729-3.479c-0.244-1.239-0.494-2.514-0.797-3.786l-0.297-0.579l-0.314-0.605l-0.076-0.154l-0.139-0.262
	l-0.729-1.269c-1.17-1.988-2.502-3.902-3.957-5.701l-0.14,0.352l-0.274-0.861L82.81,18.83l-0.961-1.185l-0.314-0.361l-1.32-1.452
	l-0.053-0.058l-0.152-0.046l-1.192-0.544l-0.913-0.745l-0.758-0.885l-0.32-0.448l-0.319-0.448l-0.041-0.061L76.022,12l-0.762-0.614
	l-1.264-0.925l-0.39-0.05l-0.029-0.003l-0.995-0.11l-0.523-0.056l-1.054-0.113l-1.601-0.113l-0.32-0.023l-0.826-0.052
	c-0.722-0.029-1.373-0.067-1.944-0.105l-0.063-0.003c-0.605-0.018-1.135-0.043-1.612-0.082l-0.332-0.029l-0.319-0.026l-0.605-0.052
	l-0.961-0.166c-0.646-0.172-0.978-0.346-1.17-0.603l-0.146-0.646c0.081-0.437,0.501-0.89,1.245-1.347l0.81-0.419l0.983-0.381
	l1.141-0.343l0.169-0.041L63.8,5.047c-1.1-0.396-2.432-0.853-3.829-1.219c-2.8-0.754-5.687-1.231-8.573-1.417
	c-3.137-0.204-6.292-0.076-9.37,0.384c-3.428,0.509-6.682,1.287-9.673,2.313l-0.227,0.076L31.76,5.313l-1.228,0.471l-1.298,0.603
	c-2.753,1.318-5.57,2.896-8.375,4.685c-2.002,1.246-3.882,2.977-5.593,5.151c-0.343,0.46-0.71,0.958-1.112,1.516l-0.739,1.138
	l-0.262,0.417l-0.245,0.378l-0.669,1.179l-0.181,0.312l-0.262,0.462L11.39,22.4l-0.413,0.768l-0.076,0.148l-0.122,0.218
	l-0.187,0.384c-0.273,0.541-0.523,1.024-0.78,1.481c-0.407,0.838-0.855,1.618-1.292,2.369l-0.239,0.419l-0.419,0.664l-0.419,0.62
	L6.53,30.688l-0.25,0.288l-0.233,0.271l-0.524,0.556l-0.914,0.827l0.163,0.888c-0.111,0.564-0.617,0.89-1.1,1.207L3.62,34.759
	l-0.722,0.722l0.314,0.559l0.675,0.646l0.611,0.634l0.995,1.246l0.384,0.623l0.256,0.518l0.046,0.096l0.437,1.304
	c0.192,0.989,0.233,1.918,0.134,2.847L6.71,44.333l-0.035,0.404l-0.116,0.841l-0.087,0.516l-0.064,0.354L6.25,47.413l-0.192,1.013
	L5.89,49.507l-0.192,1.158l-0.157,1.24c-0.099,0.657-0.151,1.341-0.204,2.065l-0.052,0.685l-0.012,0.131l-0.018,0.227l-0.029,1.4
	v1.338l0.018,0.469l0.058,1.255l0.175,1.807c0.14,1.036,0.343,2.424,0.698,3.873c0.705,3.001,1.81,5.934,3.277,8.722
	c1.106,2.025,2.352,3.917,3.696,5.616l0.25,0.317l0.814,0.961l0.175,0.203l0.367,0.422l0.949,1.001l1.414,1.176l0.92,0.73
	l1.595,1.141l0.477,0.323l0.169,0.104l1.327,0.848l0.425,0.25l0.244,0.137l1.362,0.771l1.403,0.701l0.239,0.119l0.459,0.221
	l1.979,0.855l0.157,0.059c0.116,0.029,0.664,0.175,1.537,0.518l0.384,0.151l0.414,0.154l0.96,0.391l0.466,0.2l0.611,0.265
	l1.251,0.557c2.334,1.047,4.866,1.804,7.514,2.249c0.529,0.079,1.094,0.16,1.659,0.232l0.087,0.006l0.483,0.021l0.273,0.009
	l1.537,0.041l0.495-0.003l0.262-0.006l0.763-0.021c0.809-0.003,1.635-0.069,2.427-0.134l0.611-0.047l0.372-0.031l2.008-0.26
	l0.605-0.093c3.288-0.556,6.426-1.411,9.365-2.546c0.553-0.233,1.094-0.475,1.641-0.728c2.055-0.949,4.167-2.14,6.461-3.638
	c1.984-1.307,3.945-2.75,5.825-4.29c2.009-1.664,4.028-3.46,6.169-5.494c0.582-0.657,1.146-1.321,1.694-1.987
	c1.38-1.743,2.683-3.576,3.864-5.444c0.798-1.284,1.561-2.634,2.281-4.034l0.07-0.209l0.023-0.073
	c-0.705-0.448-1.339-0.893-1.846-1.301c-0.727-0.585-1.129-1.044-1.262-1.44l0.109-0.725c0.32-0.384,1.112-0.675,4.703-0.206
	l0.041-0.128l0.279-0.867l-0.018-0.015l-0.018-0.029l-0.407-0.591c-0.519-0.754-1.013-1.464-1.426-2.124l-0.372-0.608l-0.35-0.576
	l-0.623-1.104l-0.494-1.013l-0.402-0.925l-0.285-0.861l-0.14-0.579l-0.04-0.189l-0.094-1.405l0.1-0.591l0.162-0.53
	c0.285-0.675,0.804-1.144,1.455-1.317c0.67-0.181,1.408-0.015,2.072,0.465l0.989,1.013l0.448,0.73l0.367,0.864
	c0.186,0.516,0.436,1.301,0.529,2.218l0.116,1.33v0.748l-0.034,0.765l-0.07,0.81l-0.012,0.122l-0.035,0.312l-0.07,0.425
	c-0.104,0.594-0.227,1.199-0.36,1.801l-0.006,0.018l-0.192,0.664l0.164,1.188l-0.758,0.61l-0.197,0.489l-0.215,0.512
	c0.646,0.504,1.192,0.961,1.623,1.368l1.054,1.12l0.39,1.127l-0.431,0.354c-0.798,0.172-2.759-0.908-3.806-1.53l-0.082,0.157
	l-0.012,0.04l-0.151,0.448l-0.507,1.432l-0.482,1.264l-0.076,0.194l-0.309,0.719l-0.349,0.725l-0.798,1.354l-0.215,0.332
	l-0.012,0.012l-0.244,0.313l-0.523,0.608c-1.502,1.531-2.928,2.937-4.302,4.243c-0.85,0.954-1.74,1.895-2.653,2.812l-0.746,0.698
	c-0.518,0.494-1.059,1.007-1.623,1.478l-0.896,0.783l-1.531,1.229c-3.451,2.647-7.036,4.79-10.656,6.379
	c-0.733,0.328-1.479,0.643-2.24,0.937c-1.846,0.777-3.708,1.426-5.564,1.936l-0.291,0.075c-0.523,0.134-1.064,0.271-1.606,0.402
	l-0.012,0.002l-1.92,0.37l-0.839,0.131l-1.618,0.207l-0.512,0.052l-1.967,0.125l-0.518,0.018H46.881L46.881,95.458z"/>
<path fill="#98CA3E" d="M52.48,31.552l-0.682-0.739c-0.675-0.616-1.402-1.19-2.17-1.708c-0.77-0.512-1.584-0.969-2.428-1.359
	s-1.717-0.713-2.613-0.963c-0.896-0.247-1.81-0.419-2.724-0.518l0.076-0.006l0.006-0.145l-0.972-0.128
	c-1.263-0.02-2.526,0.102-3.76,0.367c-1.24,0.262-2.438,0.678-3.574,1.216c-2.275,1.071-4.26,2.689-5.803,4.625
	c-1.524,1.946-2.602,4.22-3.09,6.585c-0.5,2.366-0.448,4.796,0.105,7.058l0.32,0.675l0.018-0.306l-0.116-0.698
	c-0.204-1.013-0.262-1.927-0.245-2.82c0.122,1.7,0.471,3.449,1.135,5.151l-0.076,0.157l0.262,0.823
	c0.733,1.77,1.839,3.408,3.207,4.775c1.368,1.371,2.992,2.471,4.732,3.233c1.275,0.567,2.631,0.934,3.999,1.138
	c0.687,0.084,1.379,0.151,2.066,0.146l1.036-0.029l0.512-0.044l0.512-0.055c2.724-0.35,5.308-1.467,7.404-3.132
	c0.809-0.646,1.57-1.394,2.24-2.217c0.676-0.821,1.252-1.717,1.711-2.64c0.466-0.92,0.81-1.868,1.03-2.785s0.326-1.804,0.344-2.607
	l-0.023-0.725l-0.076-0.605l-0.25-0.625l-0.209,0.349l-0.082,0.463l-0.088,0.594l-0.109,0.684l-0.135,0.725l-0.169,0.73
	l-0.186,0.687l-0.198,0.539c-0.325,0.972-0.763,1.906-1.298,2.782c-0.535,0.875-1.164,1.696-1.892,2.436
	c-0.722,0.739-1.53,1.402-2.415,1.97c-0.879,0.567-1.839,1.027-2.846,1.383c-1.665,0.579-3.445,0.835-5.227,0.756
	c-1.775-0.084-3.539-0.512-5.151-1.254l0.536,0.166l0.547,0.151l0.565,0.131l0.587,0.116l0.442,0.035l-0.041-0.099l-0.157-0.079
	l-0.233-0.096l-0.611-0.204c-1.863-0.562-3.626-1.516-5.116-2.822c-1.49-1.301-2.718-2.931-3.539-4.767
	c-0.821-1.837-1.228-3.868-1.176-5.908c0.029-1.021,0.163-2.04,0.419-3.029c0.262-0.989,0.634-1.949,1.111-2.857l-0.116,0.276
	l-0.035,0.454l0.198-0.262l0.291-0.498c1.321-2.482,3.346-4.542,5.779-5.884c0.605-0.344,1.24-0.626,1.892-0.87
	c0.652-0.25,1.327-0.439,2.008-0.582c0.681-0.151,1.379-0.236,2.083-0.274c0.699-0.049,1.409-0.023,2.113,0.041l-0.116,0.125
	l0.303,0.099l0.495,0.102c1.757,0.312,3.556,1.01,5.145,2.028c1.589,1.013,2.962,2.34,4.004,3.745
	c1.054,1.409,1.787,2.887,2.311,4.19c0.523,1.31,0.838,2.448,1.17,3.222c0.25,0.617,0.454,0.641,0.611,0.187l0.11-0.425l0.069-0.585
	l0.023-0.347v-0.381l-0.012-0.41l-0.034-0.439c-0.052-0.605-0.169-1.271-0.343-1.977c-0.182-0.701-0.438-1.435-0.752-2.165
	c-0.326-0.728-0.715-1.449-1.158-2.136C53.516,32.778,53.004,32.137,52.48,31.552L52.48,31.552z"/>
<path fill="#98CA3E" d="M67.718,72.849l-0.158-0.227c-0.727-0.681-1.361-1.487-1.955-2.284l0.023,0.006l-0.018-0.341
	c-1.886-1.918-3.848-3.804-5.855-5.477l-0.15,0.241l0.518,0.614l-1.182-0.97l-0.047-0.334c-0.697-0.832-1.473-1.63-2.229-2.41
	c-1.105-1.144-2.229-2.249-3.388-3.303c-0.896-0.814-1.908-1.711-2.84-2.183l-0.757-0.122l0.692,1.24l0.111,0.143
	c0.977,0.898,1.932,1.78,2.863,2.75c0.774,0.8,1.53,1.62,2.281,2.45l-0.663-0.388l-0.035,0.338c1.833,1.752,3.795,3.408,5.441,5.39
	l-0.081-0.053l-0.093,0.288c1.176,1.368,2.502,2.529,3.771,3.777l-0.018,0.323c1.467,1.755,3.334,3.902,4.859,3.792
	C70.017,76.024,68.829,74.15,67.718,72.849L67.718,72.849z"/>
<path fill="#98CA3E" d="M54.581,56.215l0.169,0.219c0.763,0.64,1.443,1.411,2.083,2.174l-0.022-0.003l0.028,0.337
	c1.997,1.813,4.057,3.585,6.152,5.148l0.134-0.251l-0.547-0.585l1.228,0.905l0.07,0.329c0.739,0.794,1.561,1.548,2.352,2.284
	c1.17,1.083,2.357,2.128,3.567,3.114c0.937,0.762,2.003,1.604,2.951,2.025l0.769,0.078l-0.758-1.199l-0.127-0.137
	c-1.02-0.844-2.02-1.673-3.01-2.59c-0.809-0.757-1.611-1.533-2.403-2.319l0.675,0.347l0.023-0.335
	c-1.932-1.649-3.975-3.195-5.732-5.087l0.087,0.05l0.075-0.294c-1.25-1.301-2.636-2.387-3.975-3.564v-0.323
	c-1.56-1.671-3.545-3.717-5.058-3.521C52.113,53.171,53.4,54.976,54.581,56.215L54.581,56.215z"/>
<path fill="#98CA3E" d="M51.712,43.915l0.075-0.238l0.105-1.395l0.041-1.423l0.018,0.018l0.186-0.276
	c-0.238-1.283-0.722-2.512-1.426-3.565c-0.705-1.059-1.63-1.94-2.637-2.549l-0.128,0.253l0.501,0.498l-1.141-0.684l-0.082-0.294
	c-0.751-0.585-1.653-0.993-2.555-1.252c-0.664-0.189-1.344-0.291-2.02-0.314c-0.669-0.022-1.339,0.026-1.985,0.128
	c-1.001,0.154-2.083,0.451-2.823,0.935l-0.413,0.55l1.152,0.154l0.151-0.009c1.03-0.256,2.031-0.46,3.056-0.46
	c0.844,0,1.676,0.114,2.45,0.373l-0.57,0.075l0.087,0.282c0.861,0.143,1.746,0.416,2.555,0.879c0.809,0.457,1.53,1.109,2.013,1.921
	l-0.058-0.044l-0.157,0.239c0.332,0.541,0.652,1.085,0.92,1.664s0.488,1.193,0.605,1.837l-0.21,0.183
	c0.022,0.81-0.099,1.717-0.157,2.567c-0.053,0.85-0.018,1.644,0.419,2.211l1.152-0.197C51.229,45.5,51.561,44.686,51.712,43.915
	L51.712,43.915z"/>
</svg>
