<?xml version="1.0" encoding="utf-8"?>
<!DOCTYPE svg PUBLIC "-//W3C//DTD SVG 1.1//EN" "http://www.w3.org/Graphics/SVG/1.1/DTD/svg11.dtd">
<svg xmlns="http://www.w3.org/2000/svg" viewBox="0 -0.1 97.5 98.1" overflow="visible">
<radialGradient id="RES_GRAD" cx="47.75" cy="280" r="49" gradientTransform="matrix(1 0 0 -1 0 330)" gradientUnits="userSpaceOnUse">
     <stop  offset="0"     style="stop-color:#FFFFFF"/>
     <stop  offset="0.195" style="stop-color:#F7F8F8"/>
     <stop  offset="0.38"  style="stop-color:#E1E3E6"/>
     <stop  offset="0.56"  style="stop-color:#BEC2C8"/>
     <stop  offset="0.707" style="stop-color:#979FA8"/>
     <stop  offset="0.83"  style="stop-color:#707A87"/>
     <stop  offset="0.85"  style="stop-color:#697481"/>
     <stop  offset="0.98"  style="stop-color:#374658"/>
     <stop  offset="0.996" style="stop-color:#314052"/>
     <stop  offset="1"     style="stop-color:#2F3E51"/>
</radialGradient>
<path fill="url(#RES_GRAD)" d="M94.5,50c0,25.178 -20.411,45.592 -45.589,45.592c-25.178,0 -45.595,-20.414 -45.595,-45.592c0,-25.181 20.417,-45.593 45.595,-45.593c25.178,-0 45.589,20.412 45.589,45.593"/>
<path fill="#98CA3E" d="M48.537,0.406L48.537,0.406C45.386,0.77,42.181,1.441,39.01,2.4c-2.562,0.777-5.17,1.762-7.752,2.928
	l-0.541,0.208l-0.455,0.188l-2.03,0.904c-1.355,0.672-3.104,1.574-4.78,2.677l-1.017,0.629l-0.243,0.16l-0.128,0.093l-1.312,0.896
	l-0.62,0.448l-1.338,1.014l-0.431,0.347l-1.453,1.208l-1.211,1.102l-0.598,0.551l-1.321,1.33l-0.388,0.4l-1.346,1.483L11.765,19.3
	l-1.272,1.546l-1.188,1.589l-0.362,0.517l-1.011,1.49l-0.297,0.463L6.66,26.516l-0.518,0.935l-0.257,0.479l-0.377,0.691
	l-1.046,2.177L3.72,32.54l-0.204,0.501l-0.278,0.756l-0.544,1.507l-0.474,1.53l-0.231,0.775l-0.331,1.306l-0.254,1.034l-0.372,1.839
	L0.93,42.313l-0.346,2.365l-0.228,2.415l-0.025,0.552l-0.077,1.853l0,1.078l0.011,0.876l0.042,1.27l0.102,1.588l0.079,0.824
	l0.231,1.977l0.406,2.383l0.53,2.372l0.077,0.282l0.573,2.04l0.776,2.297l0.895,2.257l0.843,1.846l0.182,0.38l0.929,1.771
	l0.332,0.592l0.483,0.82c-0.004-0.007,1.261,1.998,1.261,1.998l0.49,0.736l0.649,0.894l0.31,0.419l0.486,0.65l0.521,0.641
	l1.017,1.229l1.291,1.412l0.38,0.401l1.343,1.321l0.4,0.382l0.453,0.397l0.516,0.461l0.214,0.225l0.544,0.547l1.247,1.165
	c3.422,3.043,7.214,5.464,11.279,7.203c-0.013-0.006,2.262,0.908,2.262,0.908l0.793,0.291l1.079,0.345l1.257,0.387l0.537,0.145
	L36.9,96.76l1.127,0.225l1.25,0.239l0.546,0.082l0.275,0.035l1.567,0.212l1.598,0.139l0.676,0.054l0.269,0.033
	c0.032,0.002,2.05,0.147,2.05,0.147l0.865,0.027l1.208,0.003l0.497,0.005l0.543-0.019l2.011-0.128l0.538-0.055l1.656-0.211
	l0.864-0.136l1.967-0.378c0.034-0.007,1.671-0.417,1.671-0.417l0.295-0.076c1.896-0.52,3.816-1.188,5.718-1.988
	c-0.014,0.005,2.283-0.956,2.283-0.956c3.722-1.633,7.395-3.832,10.915-6.533l1.562-1.254l0.926-0.809
	c-0.009,0.008,1.663-1.514,1.663-1.514l0.755-0.705c0.013-0.013,2.723-2.887,2.723-2.887c-0.027,0.028,4.352-4.289,4.352-4.289
	l0.552-0.642l0.264-0.336l0.256-0.384l0.82-1.393l0.374-0.773l0.321-0.748l0.084-0.212l0.491-1.288l0.519-1.464
	c0,0,0.023-0.07,0.037-0.111c2.653,1.501,3.454,1.385,3.711,1.33l0.117-0.026l0.799-0.656l-0.544-1.571l-1.143-1.214
	c-0.016-0.016-0.928-0.785-1.41-1.192c0.035-0.084,0.077-0.183,0.077-0.183s0.099-0.243,0.154-0.382
	c0.152-0.123,0.887-0.715,0.887-0.715s-0.165-1.206-0.189-1.38c0.042-0.146,0.166-0.573,0.166-0.573
	c0.013-0.048,0.383-1.898,0.383-1.898l0.072-0.436l0.039-0.342l0.084-0.959l0.036-0.798v-0.78l-0.119-1.394
	c-0.077-0.764-0.263-1.538-0.563-2.377l-0.384-0.904l-0.489-0.806l-1.072-1.115c-0.863-0.633-1.76-0.828-2.588-0.604
	c-0.812,0.215-1.455,0.791-1.807,1.621l-0.181,0.589l-0.127,0.719l0.101,1.484l0.05,0.26l0.145,0.604l0.301,0.913l0.424,0.981
	l0.512,1.048l0.646,1.146l0.741,1.218c0.003,0.005,1.322,1.976,1.322,1.976s0.333,0.482,0.449,0.651
	c-0.049,0.151-0.072,0.226-0.123,0.384c-3.324-0.401-4.321-0.153-4.806,0.429l-0.09,0.107l-0.149,0.991l0.037,0.114
	c0.169,0.504,0.613,1.024,1.441,1.691c0,0,1.038,0.732,1.586,1.118c-0.181,0.306-2.232,3.933-2.232,3.933
	c-1.178,1.864-2.487,3.709-3.89,5.479c0.005-0.006-1.701,1.996-1.701,1.996c-2.115,2.008-4.155,3.824-6.207,5.523
	c-1.895,1.551-3.869,3.006-5.869,4.321c-2.314,1.513-4.438,2.709-6.491,3.655c-0.001,0-1.649,0.732-1.649,0.732
	c-2.942,1.137-6.108,1.997-9.395,2.553l-0.608,0.093l-2.026,0.262l-0.354,0.03l-0.616,0.048c-0.003,0-2.428,0.134-2.428,0.134
	l-1.049,0.027l-0.494,0.003l-1.819-0.051l-0.484-0.02c-0.047-0.003-1.72-0.237-1.72-0.237c-2.642-0.444-5.167-1.2-7.497-2.244
	l-1.271-0.567l-1.099-0.474l-0.983-0.4l-0.434-0.162l-0.383-0.15l-1.622-0.545l-2.09-0.901l-0.447-0.216l-1.66-0.83l-1.609-0.909
	l-0.423-0.249l-1.332-0.852l-0.18-0.11l-0.464-0.316l-1.609-1.15l-0.915-0.726l-1.426-1.187l-0.92-0.976l-0.534-0.616l-0.824-0.973
	l-0.243-0.308c-1.351-1.709-2.598-3.603-3.705-5.631c-1.471-2.797-2.575-5.735-3.278-8.728c-0.344-1.406-0.547-2.752-0.699-3.884
	l-0.176-1.815L6.571,59.64L6.553,59.17l0-1.34l0.029-1.41l0.028-0.329l0.053-0.702c0-0.002,0.203-2.061,0.203-2.061l0.161-1.271
	l0.192-1.156L7.392,49.8l0.192-1.012l0.162-0.992l0.063-0.35l0.09-0.531l0.12-0.868l0.038-0.436l0.04-0.375
	c0.038-0.347,0.056-0.693,0.056-1.041c0-0.655-0.066-1.314-0.198-1.995l-0.471-1.419l-0.321-0.653L6.75,39.455L5.706,38.14
	l-0.651-0.679c0,0-0.554-0.53-0.646-0.618c-0.02-0.035-0.05-0.089-0.097-0.174c0.215-0.216,0.466-0.466,0.466-0.466
	c0.51-0.322,1.154-0.745,1.306-1.516l0.018-0.093c0,0-0.083-0.457-0.132-0.722c0.25-0.226,0.722-0.653,0.722-0.653l0.56-0.591
	l0.504-0.584l0.949-1.262l0.439-0.649l0.434-0.687l0.254-0.445c0-0.001,1.326-2.433,1.326-2.433
	c-0.014,0.025,0.788-1.496,0.788-1.496l0.193-0.396l0.111-0.198l0.084-0.163l0.416-0.772l0.415-0.791l0.258-0.454l0.181-0.313
	l0.681-1.2l0.233-0.358l0.27-0.429l0.746-1.149c-0.013,0.019,1.11-1.513,1.11-1.513c1.692-2.148,3.558-3.869,5.541-5.103
	c2.845-1.815,5.688-3.405,8.452-4.729l1.312-0.609l1.215-0.465l0.36-0.127l0.223-0.074c3.01-1.032,6.284-1.814,9.733-2.326
	c3.086-0.461,6.25-0.591,9.406-0.386c2.898,0.187,5.793,0.665,8.603,1.422c0.003,0.001,3.849,1.225,3.849,1.225
	s0.221,0.087,0.32,0.126c-0.096,0.037-0.981,0.379-0.981,0.379l-0.87,0.447c-0.927,0.567-1.415,1.123-1.524,1.719l-0.019,0.101
	l0.193,0.857l0.063,0.085c0.269,0.361,0.691,0.592,1.458,0.796l1.02,0.178l1.314,0.114c0.005,0.001,1.667,0.085,1.667,0.085
	c0.045,0.002,2.031,0.109,2.031,0.109l0.827,0.052l1.945,0.138l2.592,0.282c0,0,0.166,0.021,0.288,0.036
	c0.176,0.128,1.181,0.863,1.181,0.863s0.619,0.5,0.705,0.569c0.063,0.085,0.415,0.556,0.415,0.556l0.359,0.509l0.325,0.454
	l0.794,0.933l1.041,0.859l1.268,0.579c0,0,0.044,0.014,0.083,0.026c0.069,0.075,1.304,1.435,1.304,1.435l0.313,0.358
	c0,0,0.981,1.211,0.996,1.229c0.049,0.151,0.67,2.105,0.67,2.105s0.177-0.445,0.329-0.827c1.259,1.614,2.432,3.294,3.453,5.03
	l0.737,1.283l0.133,0.252l0.07,0.143c0,0,0.545,1.055,0.594,1.15c0.021,0.104,0.794,3.77,0.794,3.77
	c0,0.001,0.073,0.372,0.073,0.372l0.671,3.18c0.001,0,0.499,1.882,0.499,1.882c-0.003-0.011,0.623,1.844,0.623,1.844l0.369,0.871
	l0.418,0.895l0.51,0.895c0,0,0.351,0.572,0.437,0.71c0.219,1.646,0.35,3.311,0.379,4.949l0.04,2.657l1.516-2.183l0.267-0.489
	l0.382-1.271c0.037-0.287,0.056-0.567,0.056-0.844c0-0.394-0.038-0.781-0.108-1.175l-0.124-0.545l-0.215-0.619
	c0,0-0.484-0.95-0.539-1.06c-0.487-3.462-1.367-6.916-2.626-10.268l-0.568-1.454l-0.177-0.419l-0.826-1.828l-0.255-0.512
	l-0.04-0.212c-0.311-1.294-0.733-2.655-1.259-4.046c-0.006-0.016-0.854-1.923-0.854-1.923c-0.018-0.039-1.068-1.84-1.068-1.84
	c-0.663-1.003-1.427-1.879-2.258-2.642c0.036-0.396,0.131-1.448,0.131-1.448c-0.031-1.096-0.28-2.193-0.741-3.271l-0.812-1.433
	l-0.501-0.702l-0.541-0.627l-1.28-1.212l-1.449-1.03L80.59,7.684L79.94,7.349l-0.182-0.09c-0.008-0.004-1.642-0.698-1.642-0.698
	c-0.008-0.003-1.712-0.523-1.712-0.523l-0.845-0.207c0,0-0.491-0.093-0.612-0.115c-2.295-1.448-4.813-2.645-7.494-3.543
	c-2.915-0.981-6.034-1.628-9.27-1.918C55.083-0.027,51.837,0.025,48.537,0.406z M7.024,29.411l1.109-2.03l0.958-1.574l0.26-0.405
	l0.879-1.298l0.122-0.185l0.315-0.444c0,0,0.306-0.409,0.61-0.818c-0.227,0.43-0.534,1.004-0.534,1.004l-0.134,0.258l-0.198,0.393
	l-0.776,1.478c-0.012,0.033-1.162,2.154-1.162,2.154L8.11,28.575l-0.396,0.614L7.503,29.5l-0.21,0.317l-0.862,1.141
	c0,0-0.283,0.327-0.345,0.398C6.212,31.094,7.024,29.411,7.024,29.411z M6.527,70.19l-0.156-0.324l-0.819-1.791l-0.864-2.171
	l-0.748-2.212l-0.566-2.006l-0.054-0.222l-0.518-2.294l-0.391-2.296l-0.227-1.931l-0.07-0.755l-0.1-1.569l-0.041-1.2L1.964,50.56
	v-1.021l0.077-1.822l0.023-0.5l0.217-2.325l0.338-2.301l0.144-0.74l0.307-1.534l0.372-1.499c0,0,0.055-0.217,0.109-0.427
	c0.144,0.138,0.295,0.282,0.295,0.282l0.589,0.608l0.914,1.146l0.311,0.522l0.232,0.454L6.3,42.598
	c0.093,0.521,0.141,1.046,0.141,1.566c0,0.295-0.016,0.589-0.047,0.88l-0.036,0.425l-0.041,0.374L6.212,46.65l-0.09,0.481
	l-0.22,1.356l-0.193,1.008l-0.18,1.13l-0.194,1.177l-0.164,1.292l0,0c0,0.006-0.215,2.166-0.215,2.166l-0.064,0.814l-0.019,0.28
	L4.837,57.8l0.006,1.426l0.019,0.484l0.059,1.306l0.185,1.887c0.146,1.107,0.36,2.556,0.732,4.085
	c0.361,1.526,0.828,3.036,1.38,4.523C6.962,71.022,6.527,70.19,6.527,70.19z M91.642,50.913c0.163,0.059,0.756,0.271,0.914,0.328
	c0.132,0.136,0.758,0.782,0.758,0.782l0.329,0.557l0.303,0.733c0.167,0.471,0.382,1.144,0.465,1.947l0.111,1.305l-0.002,0.647
	l-0.034,0.733l-0.063,0.777l-0.013,0.122l-0.032,0.26l-0.063,0.408c0,0-0.075,0.371-0.155,0.768
	c-0.415-0.619-0.887-1.321-0.887-1.321l-0.369-0.601l-0.352-0.584l-0.608-1.07l-0.47-0.966l-0.382-0.878l-0.249-0.764l-0.12-0.511
	l-0.038-0.181c0,0-0.065-0.975-0.073-1.086c0.016-0.092,0.076-0.446,0.076-0.446s0.037-0.117,0.07-0.222
	c0.14-0.128,0.626-0.577,0.789-0.728C91.593,50.919,91.6,50.918,91.642,50.913z M92.06,64.448c0.022,0.058,0.191,0.479,0.271,0.678
	c-0.018,0.043-0.213,0.524-0.227,0.557c-0.479-0.34-1.133-0.803-1.134-0.804c-0.243-0.197-0.405-0.348-0.535-0.478
	C90.75,64.38,91.232,64.382,92.06,64.448z M93.788,66.539c0.318,0.269,0.519,0.438,0.718,0.605
	c-0.238-0.124-0.517-0.284-0.796-0.444C93.746,66.625,93.749,66.62,93.788,66.539z M58.029,1.962
	c3.092,0.273,6.078,0.89,8.875,1.833c1.353,0.453,2.647,1.014,3.91,1.62c-0.463,0.017-1.072,0.039-1.072,0.039
	s-1.019,0.128-1.246,0.156c-0.181-0.082-0.67-0.305-0.67-0.305l-1.882-0.742c-0.015-0.005-4.016-1.277-4.016-1.277
	c-2.83-0.762-5.741-1.239-8.652-1.444C54.886,1.81,56.481,1.821,58.029,1.962z M64.674,8.589l0.704-0.357l0.887-0.344l1.074-0.32
	c0,0,0.693-0.139,0.925-0.185c0.223,0.102,1.003,0.458,1.003,0.458l1.975,1.022c0,0,0.874,0.511,1.294,0.756
	c-0.519-0.038-1.578-0.117-1.578-0.117l-0.873-0.054c-0.011,0-2.036-0.109-2.036-0.109c-0.005,0-1.601-0.081-1.601-0.081
	l-1.241-0.106c0,0-0.673-0.114-0.779-0.133c-0.028-0.013-0.116-0.052-0.213-0.094C64.326,8.829,64.458,8.722,64.674,8.589z
	 M78.694,11.784l-0.356-0.422l-0.489-0.482l-1.447-0.789L76.04,9.826l-1.707-1.122l-0.591-0.363l-1.663-0.972
	c0,0-0.315-0.163-0.501-0.259c0.223,0.003,0.495,0.008,0.495,0.008l0.766,0.04c0,0,1.371,0.176,1.5,0.192
	c0.124,0.081,0.375,0.247,0.375,0.247c2.831,1.904,5.188,4.251,6.969,6.851c-0.094-0.093-0.289-0.286-0.289-0.286l-1.607-1.445
	l-0.534-0.443c0,0-0.396-0.317-0.472-0.379C78.745,11.848,78.694,11.784,78.694,11.784z M78.971,8.783
	c0.007,0.002,0.069,0.029,0.069,0.029l0.145,0.072l0.56,0.288l0.675,0.409l1.293,0.913l1.098,1.04l0.468,0.534l0.421,0.584
	l0.697,1.23c0.345,0.814,0.546,1.696,0.573,2.569c0,0-0.008,0.124-0.011,0.171c-0.012-0.008-0.035-0.023-0.043-0.029
	C83.545,13.733,81.512,11.08,78.971,8.783z M85.101,18.345c-0.111,0.082-0.178,0.131-0.229,0.168
	c-0.023-0.073-0.028-0.087-0.05-0.154C84.875,18.356,84.967,18.351,85.101,18.345z"/>
<g transform="scale(0.065,0.065) translate(170,160)">
<path fill="#f9c393" d="M699.1 337.6l-27.6-14.7-26.6-15.2-23-12.4-4.2-6.4-3.2-27.6-9.6-29.5 6.4-64.3 7.4-12.4 6.9-9.2 153.5 51.9.4 17.1v18.3l-1.8 15.2-2.3 28.5 11.1 3.7 8.2 5.1 2.3 6.4-3.7 7.3-5.5 3.7-12.9.4-10.5-2.2-36.8 21.6-11.9 7.8-16.6 6.9z"/><path fill="#318871" d="M761.5 201.2l-20.6-9.1-14.3-2.8-18.9-7.4-21.1-11-21.2-10.1-15.6-4.6-18.4-6.9-10.1-5-14.7-9.7-6-13.3 1.9-6.5 7.3 3.3 9.7 6.8 14.7 6.5 6.9-6 11.5-16.6 17-16.5 18.4-6.4 15.6-1.4 31.7 7.3 20.2 9.7 14.8 12.4 13.3 19.3 1.3 22.1-9.1 24.3-2.3 8.3 7.3 2.8 9.2 2.7 12.9.5 18.4 6-3.7 7.8-8.8 3.6-17.8-.4-17.5-4.2-12-5.5z"/><path fill="#fff" d="M765.3 281.6l-2.8-10.6 3.7-11 4.6-8.7 7.3-2.8 3.3 6.9-2.8 9.2-3.2 6.4-3.7 6.9-6.4 3.7zm-177.7 30.8l10.6-19.8 4.6-6.8 7.8 1.8 23.4 14.2 79.1 45.1-8.8 22-12.4 22.6-11.5.9-17-7.4-28-14.7-47.8-57.9z"/><path fill="#fff" d="M689.6 400l1.9 12.9.4 17 12.9 13.3-7.3 12.4-16.6 14.3-3.7-6.5-7.3-37.2-12-27.6-9.2-14.7 13.8 3.2 12.9 5.1 14.7.9-.5 6.9z"/><path fill="#f9c393" d="M782.9 436.4l9.2-3.7 11.5-11 10.2-7.4 12.8-3.6 21.2-10.2 17-8.7 16-6.4 7.4 6 13.8 14.2 13.3 10.1 5.1 11.5-.5 34-3.6 4.6-5.6-1.8-5-12.9-1-16.1-5 1-8.7 8.7v5l7.8 4.6 6.9 3.3.9 9.1-5.1 4.6-6.4-1.4-5.5-4.5-4.6-4.2-6.5-3.2h-7.3l-10.6 1.9-5.5 1.3-8.3-4.1-.4-12.4-9.7 4.6-7.8 4.6-9.6 1.8-12.9 6-4.2-5.1-5.5-7.8-13.8-12.4zm-94.8-168.5a34.7 34.7 0 1 1 34.8 34.8 34.7 34.7 0 0 1-34.7-34.7"/><path fill="#f9c292" d="M722.8 301.9a34 34 0 1 1 34-34 34 34 0 0 1-34 34"/><path fill="#f9c192" d="M722.8 301.1a33.2 33.2 0 1 1 33.2-33.2 33.2 33.2 0 0 1-33.2 33.2"/><path fill="#f8c091" d="M722.8 300.3a32.4 32.4 0 1 1 32.4-32.4 32.4 32.4 0 0 1-32.4 32.4"/><path fill="#f8bf91" d="M722.8 299.5a31.6 31.6 0 1 1 31.6-31.6 31.6 31.6 0 0 1-31.6 31.6"/><path fill="#f8be91" d="M722.8 298.7a30.8 30.8 0 1 1 30.8-30.8 30.8 30.8 0 0 1-30.8 30.8"/><path fill="#f8bd90" d="M722.8 297.9a30 30 0 1 1 30-30 30 30 0 0 1-30 30"/><path fill="#f8bc90" d="M722.8 297.1a29.3 29.3 0 1 1 29.3-29.3 29.3 29.3 0 0 1-29.3 29.3"/><path fill="#f8bb90" d="M722.8 296.4a28.5 28.5 0 1 1 28.5-28.5 28.5 28.5 0 0 1-28.5 28.5"/><path fill="#f8ba8f" d="M722.8 295.6a27.7 27.7 0 1 1 27.7-27.7 27.7 27.7 0 0 1-27.7 27.7"/><path fill="#f7b98f" d="M722.8 294.8a26.9 26.9 0 1 1 26.9-26.9 26.9 26.9 0 0 1-26.9 26.9"/><path fill="#f7b98e" d="M722.8 294a26.1 26.1 0 1 1 26.1-26.1 26.1 26.1 0 0 1-26.1 26.1"/><path fill="#f7b88e" d="M722.8 293.2a25.3 25.3 0 1 1 25.3-25.3 25.3 25.3 0 0 1-25.3 25.3"/><path fill="#f7b78e" d="M722.8 292.4a24.5 24.5 0 1 1 24.5-24.5 24.5 24.5 0 0 1-24.5 24.5"/><path fill="#f7b68d" d="M722.8 291.7a23.8 23.8 0 1 1 23.8-23.8 23.8 23.8 0 0 1-23.8 23.8"/><path fill="#f6b58d" d="M722.8 290.9a23 23 0 1 1 23-23 23 23 0 0 1-23 23"/><path fill="#f6b48c" d="M722.8 290.1a22.2 22.2 0 1 1 22.2-22.2 22.2 22.2 0 0 1-22.2 22.2"/><path fill="#f6b38c" d="M722.8 289.3a21.4 21.4 0 1 1 21.4-21.4 21.4 21.4 0 0 1-21.4 21.4"/><path fill="#f6b28b" d="M722.8 288.5a20.6 20.6 0 1 1 20.6-20.6 20.6 20.6 0 0 1-20.6 20.6"/><path fill="#f6b18b" d="M722.8 287.7a19.8 19.8 0 1 1 19.8-19.8 19.8 19.8 0 0 1-19.8 19.8"/><path fill="#f6b08b" d="M722.8 286.9a19.1 19.1 0 1 1 19.1-19.1 19.1 19.1 0 0 1-19.1 19.1"/><path fill="#f5af8a" d="M722.8 286.2a18.3 18.3 0 1 1 18.3-18.3 18.3 18.3 0 0 1-18.3 18.3"/><path fill="#f5ae8a" d="M722.8 285.4a17.5 17.5 0 1 1 17.5-17.5 17.5 17.5 0 0 1-17.5 17.5"/><path fill="#f5ad89" d="M722.8 284.6a16.7 16.7 0 1 1 16.7-16.7 16.7 16.7 0 0 1-16.7 16.7"/><path fill="#f5ac89" d="M722.8 283.8a15.9 15.9 0 1 1 15.9-15.9 15.9 15.9 0 0 1-15.9 15.9"/><path fill="#f5ab89" d="M722.8 283a15.1 15.1 0 1 1 15.1-15.1 15.1 15.1 0 0 1-15.1 15.1"/><path fill="#f4aa88" d="M722.8 282.2a14.3 14.3 0 1 1 14.3-14.3 14.3 14.3 0 0 1-14.3 14.3"/><path fill="#f4a988" d="M722.8 281.4a13.6 13.6 0 1 1 13.6-13.6 13.6 13.6 0 0 1-13.6 13.6"/><path fill="#f4a887" d="M722.8 280.7a12.8 12.8 0 1 1 12.8-12.8 12.8 12.8 0 0 1-12.8 12.8"/><path fill="#f4a787" d="M722.8 279.9a12 12 0 1 1 12-12 12 12 0 0 1-12 12"/><path fill="#f4a687" d="M722.8 279.1a11.2 11.2 0 1 1 11.2-11.2 11.2 11.2 0 0 1-11.2 11.2"/><path fill="#f4a586" d="M712.4 267.9a10.4 10.4 0 1 1 10.4 10.4 10.4 10.4 0 0 1-10.4-10.4"/><path fill="#318871" d="M415.7 569l-7.8-16.1-4.7-26.2 4.7-23.9 13.7-14.7 33.2-22.6 29.4-21.1 1.8-10.1 6-3.2 8.3.9 1.8-13.3 2.8-8.8 8.7-5 8.7-4.2 10.6-16 21.1-33.6.5-5.1-2.3-8.2 11.5-23.9 6.4.9 29 16 53.8 57.1 15.6 34.9 6.4 26.6 6 51.1 7.3 5.1 5.6-3.7 11-3.3 5-2.3-.9-8.7 6.9-11.9 12.4-8.8 12.9-4.1 16.1-13.8 10.1-9.2 10.1-4.6 12.9 3.2 15.6 23.5 14.3 27.6 8.7 34-5.5 11-12.9 7.3-14.7 13.4-12.4 11.9-11.5 7-12.9-1.9-13.3 10.1-19.3 18.9-16.6 11.9-14.6 4.1-17.5-1.3-17-5.1-15.6 65.7-19.4 58.9 2.8 11.9 8.3 13.8 3.2 15.6-6.9 15.2 6.4 8.3 7.9 11.5 4.1 22 25.3 44.6 14.7 16.1 20.6 25.8-11 12.4-17.5 9.6-16.9 7.8h-35.9l-11 6-28.1 16.1-17 5-21.1 1-32.2-1.4-25.8-3.2-34-7.8-24.3-7.8-18.9-6.5-42.3-22.5-25.3-11.5-61.5-28-27.6-9.7-3.3-11 23-37.7 51.1-91.9 42.2-97.5 6.5-18.8 34.5-53.8z"/><path fill="#fcc643" d="M930.6 655.8l-6-6.7-1.3-9.3 3.4-7.9 11-5.4 9.5 3.7 5.6 10 .8 8.1-8.9 6.2-9.1 3.8-5-2.5z"/><path fill="#d4cbc5" d="M237.2 765.5l-8.6 2.1-7.6-5.6 6.2-7.8 8.4-2.1 1.6 13.4zM751 1040.9l2.3-8.1 5.9-9.5 7.2-7 9.3-6.3 2.2 9.6-26.9 21.3z"/><path d="M314.5 1102l-1.9-2.1a2.3 2.3 0 0 0-.4-.6c-2-.9-2.9-2.9-4.3-4.2a6.4 6.4 0 0 1-1.8-3 12.8 12.8 0 0 0-2.1-4.5c-1.8-2.2-2.4-5.2-4.6-7.1a2.9 2.9 0 0 1-.5-1.3 10.4 10.4 0 0 0-2.3-4.5 18 18 0 0 1-2.6-4.5c-.6-1.2-1-2.5-2.4-3.1a6.1 6.1 0 0 1-1.4-1.8l-.6 2.1a19.8 19.8 0 0 1-1.3 4c-1.5 2.6-5.9 4-8.9 2.3s-3.9-2.3-5.2-4.4a5.3 5.3 0 0 0-2.2-2c-1.7-.9-1.9-2.9-2-4.6a13.2 13.2 0 0 1 2.2-8.3 31.8 31.8 0 0 0 4.9-10 25 25 0 0 1 2.9-6.2 7.1 7.1 0 0 1 4.7-3.7 6.3 6.3 0 0 0 2.5-1.7 4.1 4.1 0 0 1 3.3-1.1 4.6 4.6 0 0 0 4.1-1.3l2.8 1.4 2-2.3a3.8 3.8 0 0 0 .7-3.7 26.7 26.7 0 0 0-1.8-5.3 2.7 2.7 0 0 1 .3-2.9 18.3 18.3 0 0 0 1.4-2.5 18.2 18.2 0 0 1 3.4-4.5c2.9-2.8 5.5-5.9 8.2-8.9a3.2 3.2 0 0 0 .8-1.2c.8-3.1 4.1-4.3 5.4-7.1 3.9-2.7 6.7-6.6 10.4-9.5s5.1-4.8 7.7-7.1c.9-.8 2.1-1.4 3.1-2.2l4.9-4.4 7.5-6.3c.4-.3.9-.4 1.3-.7l4.7-3.2 6-4.2a21.3 21.3 0 0 0 3.4-2.6c1.8-1.9 3.4-4 5-6a4.2 4.2 0 0 0 .7-3.6c-.1-.5-.3-.9-.3-1.4-.2-2.6-.1-5.2 2.8-6.6a4.7 4.7 0 0 0-.9-1l-6.8-3.9-2.4-1.5c-2.1-1.1-4.2-2.3-6.3-3.3l-9.3-4.2a2.3 2.3 0 0 0-.6-.4c-3.5 0-6-2.4-8.9-3.7s-4.2-2.2-6.3-3.3-1.8-.5-2.7-.9l-7.9-3.8a5.6 5.6 0 0 0-1.3-.6c-2.7-.5-4.7-2.3-6.9-3.6a23.5 23.5 0 0 0-6.1-2.6l-2.5-.8-9.5-4.3c-4.9-2.3-9.6-4.7-14.6-6.8s-7.5-2.9-11.3-4.2a24.1 24.1 0 0 0-3.3-.4l-5.3-1.2a8.9 8.9 0 0 1-5.4-4.4 4.2 4.2 0 0 1-.3-2.5 6.5 6.5 0 0 0-.4-4.1c-.4-.8 0-2.2.2-3.2s1.2-3.4 1.8-5.1a12.6 12.6 0 0 1 .8-1.7 13.8 13.8 0 0 0 1.4-2.5c.8-2.6 2.4-4.6 3.9-6.8s2.7-4.8 4-7.2a17 17 0 0 1 2.1-3.1 31.7 31.7 0 0 0 3.7-5.7c.5-.9.3-2.1.8-3.3s3.5-4.2 4.9-6.6l6.5-10.8c.5-.9 1.2-1.7 1.8-2.5s2.2-3.1 2.3-5.2a1.2 1.2 0 0 1 .2-.7c2.4-3 3-6.9 5.4-10 1-1.3 1.2-3.1 1.9-4.6s.8-2.1 1.5-2.5 3.1-3.4 4.3-5.3c2.9-4.5 5.2-9.4 8.6-13.6.9-1.1 1.2-2.8 1.8-4.3a1.4 1.4 0 0 1 0-.2c2.2-3.1 3.3-6.8 5.4-10l.4-.6c1.2-2.7 2.8-5.3 3.6-8.2s3.4-6.1 4-9.8c-1.4-1.2-3.2-.8-4.8-.4a59 59 0 0 0-7.8 2.8c-2.1.9-4.1 2.2-6.2 3.3a3.9 3.9 0 0 1-1.3.6 23.7 23.7 0 0 0-7.7 2.2 3.9 3.9 0 0 0-1.3.5c-2.4 3-6.1 3.4-9.4 4.7s-4.4 1.4-6.6 2.1c-5.3 1.7-10.6 3.2-15.6 5.7a35.7 35.7 0 0 1-5.4 1.7c-2.8.9-5.6 1.9-8.4 2.6s-4.7.9-7 1.2l-5.8.9-.9.4c-1.7 1.5-4 1.3-5.9 2l-3 .9c-1.6-.5-3.4-1.1-5.2-1.5a4.2 4.2 0 0 0-2 .4c-2.7.9-5.3 2-8 2.8s-3.4.6-4.8 1.8-4.4 1.7-6.7 2.2-2.5 1.2-3.9.6a.9.9 0 0 0-.7.2c-3.1 2.3-6.7 3-10.3 4.1a62.8 62.8 0 0 0-8.2 2.8c-3.2 1.5-6.2 3.4-9.4 5.1-1.4.8-3 1.4-4.5 2.1l-2.5 1.3-2.8 1.2c-1.9.9-3.7 1.9-5.6 2.6a65.5 65.5 0 0 1-7.5 2.3 6.6 6.6 0 0 1-3.3-.3 3.4 3.4 0 0 1 .4-6.6c3.3-1.2 6.7-2.3 9.6-4.4l.8-.5c4.7-1.5 8.9-3.8 13.4-5.8 2.5-1.1 4.8-2.7 7.2-4.1l3.2-1.6 6.4-2.5 3.7-1c2.4-.8 4.8-1.5 7.1-2.5s6.9-3.1 10.3-4.8c1.5-.8 2.8-2.1 4.6-2.4a12.5 12.5 0 0 0 4.7-2.1 4.2 4.2 0 0 0 2.3-2.8c.4-2 2-3.4 3.4-4.8s2.6-1.6 3.9-.3a5.4 5.4 0 0 0 3.8-3.4c.8-2 3-2.6 4.4-3.9a17.8 17.8 0 0 1 2.6-1.7 9.3 9.3 0 0 1 3.5-1.8 5.2 5.2 0 0 0 2-1.2 21.7 21.7 0 0 1 6.9-3.6 10.6 10.6 0 0 0 4.1-2.3 22.8 22.8 0 0 1 3-2c3.3-2 6.5-4.1 9.9-6 1.8-1 3.7-1.8 5.6-2.6l9.8-4.7c4.1-1.9 8.2-3.8 12.4-5.4s9.5-4.3 14.3-6.2c2.8-1.1 5.7-1.7 8.5-2.6a9 9 0 0 0 2-1.2c.7-.4 1.2-1.2 1.9-1.3 2.8-.4 4.7-2.7 7.4-3.5a40.2 40.2 0 0 0 4.6-1.9 10.2 10.2 0 0 0 3-1.8c1-.9 2.5-1.2 3.8-1.8l7.3-2.9a10.1 10.1 0 0 1 2.1-.3l3.3-6.6c.8-1.5 1.7-2.8 1.6-4.6a2.8 2.8 0 0 1 .7-1.4 16.4 16.4 0 0 0 2.7-6 58.4 58.4 0 0 1 2.3-6.4c.8-2.2 1.5-4.3 2.2-6.5a10.7 10.7 0 0 1 .5-1.3c.4-.8.9-1.5 1.2-2.3 1.4-3.2 2.7-6.5 4.3-9.7a48.8 48.8 0 0 0 3.6-8.8 46 46 0 0 1 2.8-6.8 23.9 23.9 0 0 0 1.8-3.3c1.2-4 3.3-7.5 5.6-10.9 1.2-1.9 2.4-3.7 3.5-5.7s1.3-2.7 2.1-4a32.1 32.1 0 0 0 2.3-3.7c1.7-4.2 4.8-7.4 7.1-11.1l6.5-10.2a16.9 16.9 0 0 1 1.5-2.1 47.1 47.1 0 0 0 5.8-7.4 3.5 3.5 0 0 1 .8-.9c1.8-1.5 1.5-3.5-.1-5.2l-3.7-3.7c-1-.9-2-1.9-1.7-3.4a.6.6 0 0 0-.1-.5c-1.9-2.5-1.6-5.9-3.5-8.4a34.5 34.5 0 0 1-2.2-3.9 3.8 3.8 0 0 1-.4-.9l-2.4-9.6a8.8 8.8 0 0 1 .1-2.4 4.2 4.2 0 0 0 .2-.9c-.5-2.7.3-5.2.6-7.8a15.3 15.3 0 0 1 2.5-6.6 3.4 3.4 0 0 0 .7-2.7 8 8 0 0 1 .8-4.8c1.6-3.4 3.2-6.9 5.1-10.2a27.1 27.1 0 0 1 4.1-5.1c1.8-1.9 4.1-3.3 5.7-5.3s6.3-5.5 9.2-8.7c1.4-1.5 3.5-2.3 5.3-3.4a67.6 67.6 0 0 0 6.3-4.3 21.3 21.3 0 0 1 8.4-4.3c2.4-.6 4.2-2.2 6-3.7a14.5 14.5 0 0 1 5-3 12.3 12.3 0 0 0 4.1-2.2c3.1-2.4 6.2-4.6 9.2-7.1s6.1-5.3 9.1-8a3.1 3.1 0 0 0 .6-1.9 23.9 23.9 0 0 1 2.8-10.2c.9-1.7 2.2-3.3 4.5-3.3a2 2 0 0 0 .9-.2c1.9-1.1 4-.9 6-.5s1.5.2 2-1.2 1.5-4.7 2.3-7a13.5 13.5 0 0 0 .4-1.6c.4-2 .7-4 1.1-6s2.4-3.3 4.1-4.5a37.4 37.4 0 0 1 7.3-4.7c3.4-1.5 5.8-4.2 9-6a8.5 8.5 0 0 0 3.6-4.3 3.5 3.5 0 0 1 1-1.6c1.4-1 2-2.6 2.9-4a44.6 44.6 0 0 1 3.1-4.2 9.3 9.3 0 0 0 2.2-4.9 10.8 10.8 0 0 1 2.1-5c.5-.7.8-1.6 1.3-2.3s1.3-1.7 2-2.6 1.6-1.5 1.9-2.4c1-2.9 3.1-4.9 4.8-7.2a40.4 40.4 0 0 0 3-5.3c1-1.9 1.9-3.8 2.9-5.8-.8-1.7-1.6-3.6-2.5-5.4s-.6-5.3.6-7.7 2.4-3.5 3.4-5.3 2.3-4.5 3.7-6.6 1.8-5.9 3.3-8.5a31.3 31.3 0 0 1 3-4.5c1.2-1.5 3.3-1.1 5.2-.1s3.1 2.4 4.8 3.3a5.3 5.3 0 0 0 3.8-4.1c.5-2.1 1.8-3 4.1-3.2a8.4 8.4 0 0 1 4.5.6 1.9 1.9 0 0 0 2.5-.7l3.7-5.8c1.8-2.9 3-6.1 5.1-8.8a6.1 6.1 0 0 0 .8-1.9c.8-2.2 1.7-4.4 3.9-5.4s5.8-2.2 8.7 0l3.8 2.4c1.8-2 1.4-4.3.9-6.5s-1-5.8-1.7-8.7c-.3-1.3-.6-2.6-1-3.9-1-4-1.9-8-3.9-11.6-.8-1.5-1-3.3-1.7-4.9a8.5 8.5 0 0 0-1.9-2.9 5.1 5.1 0 0 1-1.5-5.2 1.9 1.9 0 0 0 0-1.2 1.5 1.5 0 0 0-1-.8l-5.3 1.1c-3 .6-5.6.8-7.4-2s-2.3-3.2-6.2-1.9c-1.2.4-2.3 1-3.6.5s-4.3-1.9-5.3-3.7-.2-1.9-.3-3-1.6.4-2.3 1-4.2 1-6.1.3a4.3 4.3 0 0 1-2.8-4.6 4.9 4.9 0 0 1 .7-1.9c.8-1.4.3-2.6-1.3-2.7a12.8 12.8 0 0 0-3.5.3 10 10 0 0 1-7-1.3c-1.8-1-2-2.5-1.6-4.3l.3-1.2-5.6-1.1c-2.1-.4-4-1.2-5.2-3s-.8-2-.5-2.1.3-3.5 2-5l-1.9-.4H531a6 6 0 0 1-4.6-2.5c-1.7-1.9-1.3-3.1.9-4.3a5.7 5.7 0 0 0 2.6-2.3 3.2 3.2 0 0 1 .8-.8l5.4-4.6c-1-2.4-3.1-2.8-5-3.6s-3.8-3.7-3.8-5.1a2.2 2.2 0 0 1 .5-1.5c1.6-1.4 3.2-2.6 5.5-2.6s6.2-.3 9.2-.7c1.4-.2 3-.5 3.5-2a3.7 3.7 0 0 0-.6-3.8 10.5 10.5 0 0 1-2.2-4.2c-1.2-3.3.7-6.2 4.2-6.2a6.7 6.7 0 0 1 4.2 1.2c1.6 1.1 3.4 2 5.3 3.1a2.3 2.3 0 0 0 .7-.8c.4-1.4.6-2.9 1-4.4a3.3 3.3 0 0 1 1.1-1.8c1.7-1.1 3.6-2.1 5.6-1.4s4.3.3 6.4.4a20.6 20.6 0 0 1 3.7.7 2.7 2.7 0 0 1 1.9 2.7c.3 2.7 1.6 3.3 4 2.5s7.1-2.8 11-2.6h.7c2.4-1.1 3.8 0 5.2 1.9s1.9 3 .7 5.4c1.3 2.2 2 2.6 4.4 2.2a30 30 0 0 0 4-.8 3.3 3.3 0 0 0 1.6-1.5c1.2-2.2 2.2-4.6 3.5-6.8a25.2 25.2 0 0 1 3.5-4.5 22.2 22.2 0 0 0 4.4-6.5c.9-2.1.7-2.8-1.2-3.9-3.6-2-7.2-3.9-10.7-6.1a22.5 22.5 0 0 1-4.6-4.4 45.3 45.3 0 0 1-4.2-5.7 14.1 14.1 0 0 1-2.5-7 14.6 14.6 0 0 0-.5-2.6c-.5-2.4-.8-4.8.3-7.3s1.7-2.7 4.2-2.4a21.5 21.5 0 0 1 10.2 4.6c1.2.9 2.1 2.2 3.5 3.1a49.1 49.1 0 0 0 5.8 3.7c2.4 1.2 4.5 2.9 6.8 4.3a47.1 47.1 0 0 0 6 3c1.9.8 3.3-.2 3-2.3a3.4 3.4 0 0 1 1.9-3.7 7.9 7.9 0 0 0 2.1-2.6l5.4-8.7a58 58 0 0 1 3.1-5.1c1.4-1.9 3.3-3.4 4.7-5.3a60.4 60.4 0 0 1 6.5-6.9 3 3 0 0 1 .5-.5c3.1-1.8 5.8-4.1 9-5.6.9-.4 1.8-1 2.8-1.3l6.8-2.1a5.9 5.9 0 0 0 1.2-.2c3.2-1.8 6.8-1.6 10.2-1.9 2-.2 3.9-.7 5.8-1a19.6 19.6 0 0 1 4.5-.4c3.2.3 6.3.1 9.5.2a19.5 19.5 0 0 1 3.2.7c.9.2 1.9.7 2.7.5s3.8.2 5.7.9a33.4 33.4 0 0 0 5.7 1.6 38 38 0 0 1 6.9 2.3c1.8.7 3.7 1 5.5 1.7s3.6 1.5 5.4 2.3c3.4 1.6 6.8 3 10.1 4.8s6.4 3.8 9.5 5.9a22.5 22.5 0 0 1 5.3 4.7c.9 1.1 2.2 1.8 3.1 2.9s3.4 3.9 5 6 3.2 4.7 5 6.9 2.2 3.9 3.1 6a6.8 6.8 0 0 0 .5 1.8c2.3 2.8 2.2 6.5 3.5 9.7s.2 5.3-.3 8a21.5 21.5 0 0 0-.4 2.6c-.1 1.3.1 2.7-.7 4a1.6 1.6 0 0 0-.1.9 19.5 19.5 0 0 1-2 9.5 20.2 20.2 0 0 0-1.5 6.5 7.7 7.7 0 0 1-.5 1.6c-.6 1.9-1.3 3.8-1.8 5.7s-.6 3.4-1.7 4.8-.7 2.1-1.1 3.4a9.5 9.5 0 0 0 1.8 1.2 32.5 32.5 0 0 0 6.7 2.3 36.8 36.8 0 0 0 7.9 0c2.4-.2 4.9-.7 7.3.1h.5c3.7-.1 7.1 1.4 10.6 2.2a29 29 0 0 1 6.3 2.1 9.1 9.1 0 0 1 4.2 4c1 1.9.4 4.8-1.6 5.7a5.9 5.9 0 0 0-2.3 2.3 11.2 11.2 0 0 1-1.8 1.7 3.7 3.7 0 0 0-.8.6c-1.2 2-3.1 2.7-5.3 3.1a26.8 26.8 0 0 0-3.8 1.3 7.1 7.1 0 0 1-4.9.3c-.9-.3-2 .4-3 .3l-8.5-.6-6.6-.8-1.2.2c-.5 2.2-1.6 4.4-1.3 6.5s-1 5.2-.8 7.9c.1 1 .2 2 .3 3.1a1.9 1.9 0 0 1 0 1.1c-1 1.3-.6 2.9-.8 4.4s-1 4.1-1.5 6.2a18.2 18.2 0 0 1-.9 2.1c2.2.3 2.8 2 3.1 3.6a17.7 17.7 0 0 1 .2 5.4c-.4 3.3-1.7 6.4-2.8 9.5s-1.9 6.8-2.9 10.3c2 1.2 3.5 2.8 6 2.8a2.5 2.5 0 0 1 1.8.5c1.3 1.6 3.2 2.2 4.9 2.9 3.3 1.4 6 3.6 8.7 5.8a4 4 0 0 1 1.8 4.2 5.9 5.9 0 0 0-.1 1.7c.3 4.2-2 7-4.9 9.6a12.2 12.2 0 0 0-2.4 2.5c-1.6 2.7-4.3 3.4-7 3.9s-5 .4-7.5.7a8.6 8.6 0 0 1-4.8-1.1 8 8 0 0 0-4.5-1.3c-.3 1.9-.6 3.7-1.1 5.5a13.6 13.6 0 0 1-1.3 3.3c-.7 1.3-1.7 2.5-2.5 3.8a2.2 2.2 0 0 1-1.7 1.4 2.7 2.7 0 0 0-1.3 1.3 18.4 18.4 0 0 0-2.3 3.5 24.2 24.2 0 0 0-.9 4.4 6.1 6.1 0 0 0-.1.8c-1.6 2-3.7 2.2-5.9 1.7s-2.5 0-3.1 1.6a4.3 4.3 0 0 0-.4 1.6c0 3.8-2.2 6.8-3.4 10.2a1.4 1.4 0 0 1-.4.6c-1.9 1.6-2.2 3.8-2.2 6a10.1 10.1 0 0 1-2.1 6.9.9.9 0 0 0-.3.4c-.2 3.6-3.7 5.3-4.7 8.5a7.7 7.7 0 0 0-.6 1.5 22.1 22.1 0 0 1-3.1 9.1c-.9 1.6-1.1 3.6-1.7 5.3a14.8 14.8 0 0 1-1.8 4.1c-1.2 1.6-3.2 1.4-5 1.7a1.4 1.4 0 0 1-.9-.7c-1.2-1.9-1.9-3.8-1.1-6s2.3-5.6 3.2-8.4a26.8 26.8 0 0 0 .8-5.4c.3-2.7.4-5.5.6-8.3l.5-.3-1.7-1.3a4.4 4.4 0 0 1-1.2-4.6c1-4.5 2.1-8.9 3.2-13.3a48.6 48.6 0 0 1 4-11.1c.8-1.5 1.5-3.1 2.2-4.7a7.2 7.2 0 0 0 .2-1.8c-1.9.9-3.5 1.5-5 2.4a60.2 60.2 0 0 0-6.8 4.3c-2.3 1.8-5.3 2.2-7.8 3.6l-3.1 1.7-4.7 3.2a17.7 17.7 0 0 0 2.4 2.3c2 1.3 4.1 2.4 6.2 3.5a4.4 4.4 0 0 1 2.2 4 10.3 10.3 0 0 1-.8 4.6c-.6 1.5-1.9 2.7-2.8 4a10.3 10.3 0 0 0-1.5 2.9 16.8 16.8 0 0 1-4.2 7 3.4 3.4 0 0 0-1.1 2.2 7.3 7.3 0 0 1-1 2.9 22.8 22.8 0 0 0-2.4 7.1 9.2 9.2 0 0 1-1 2.6l-4.4 7.9v-.5c-2 1.8-1.5 4.1-1.7 6.4s-.8 6.3-1.2 9.4a5.1 5.1 0 0 0-.1.9 10.8 10.8 0 0 1 .2 2.5 8.1 8.1 0 0 1-1.1 2.1c1.1 1.4 1.9 2.8 1 4.6s.2 1.4.4 2a77.5 77.5 0 0 0 2.7 9.7c.9 2.5 2.8 4.1 4.7 5.8s4.2 3.6 5.5 6.1a7.8 7.8 0 0 0 1.8 2.1 4.6 4.6 0 0 1 1.7 5.2c-.7 3-1.6 5.8-3.7 8.1a2.6 2.6 0 0 0-.5 1.1 20.5 20.5 0 0 1-.5 2.1 3.4 3.4 0 0 1-1.1 1.8c-2.1 1-2.5 4.3-5.6 3.9a5.3 5.3 0 0 0-2.3.5l-5.7 2.1a2.6 2.6 0 0 0-.9.2c-1.6 1.9-3.6 3.7-4 6.3a4.5 4.5 0 0 0 1.4 3.2 7.9 7.9 0 0 1 2.3 4.9c.5 4.4.3 8.8-2.9 12.4a4.6 4.6 0 0 0-1 4.9 18 18 0 0 1 .2 1.9c.2.8.5 1.6.7 2.3h.7c3.4-1.9 7.2-2.4 10.7-3.6a22.9 22.9 0 0 0 3.2-.9 51.3 51.3 0 0 0 4.4-2.8 5.3 5.3 0 0 1-1.7-6.2 57.9 57.9 0 0 1 3.8-8.1 34.9 34.9 0 0 1 2.9-4.1 26.4 26.4 0 0 1 10.9-8.5c2.2-1 4.3-2.3 6.5-3.3s2.7-.9 4-1.5l4.9-2.3 1.4-.8a38.2 38.2 0 0 0 8.9-5.5c1.3-1.1 2.2-2.7 3.4-4 3.4-3.6 6.7-7.1 10.9-9.8 1.2-.8 2.1-1.8 3.2-2.7s5.3-2.3 8.1-3.1 5.5-.5 8.3-.6a5.4 5.4 0 0 0 2.1-.1 37 37 0 0 0 6.7-3.9c2.8-2.3 5.2-5.1 7.9-7.6s3.3-2.9 5-4.3a23.2 23.2 0 0 1 10.3-5.1h.5c2.8-2.2 6.5-1.9 9.5-3.6.8-.5 1.8-.7 2.5-1.3 2.5-1.8 5.6-2.1 8.3-3.5s8.5-3.5 12.4-5.9 5.7-2.6 8.5-4 4-2.3 6-3.3l6.9-3.1 6.3-3.1a14.2 14.2 0 0 1 8.6-1.3 4 4 0 0 1 2.2 1.2c1.4 1.5 2.5 3.3 4 4.7a44.4 44.4 0 0 1 3.8 4.6c1.7 2 4.1 3 6.3 4.1a10.4 10.4 0 0 1 4.2 3.7 46.1 46.1 0 0 0 3.5 4.8 23.1 23.1 0 0 0 3.8 2.8l8.7 6.2a1.1 1.1 0 0 1 .5.5c.4 2.4 1.9 4.4 2.3 7s-.1 5.3 1.5 7.6a1.5 1.5 0 0 1 .2 1.1c-.5 1.8.2 3.6-.5 5.5s-.1 3.1-.1 4.7a14.4 14.4 0 0 1 0 1.9c-.4 2.9-.9 5.8-1.2 8.7a6.7 6.7 0 0 0 .5 2.8 9.9 9.9 0 0 1-1.9 10.3 14.9 14.9 0 0 1-6.2 4.3c-2 .7-2 .9-1.7 3s.5 5.6 1.1 8.4a35.6 35.6 0 0 1 1.2 8.4 8.9 8.9 0 0 0 .8 2.5c.6 2.1 1.8 4.1 1.7 6.2 0 3.6 1.9 6.9 1.2 10.5a3.3 3.3 0 0 0 0 1.9c1.1 2.3 1.1 4.9 1.8 7.3s.7 3.9 1 5.8.8 5.6 2.1 8.2a6.4 6.4 0 0 1 .5 3.1 18.5 18.5 0 0 0 1 6.1c1.1 3.4 1.2 7 1.7 10.5s1.3 6.6 2 10a11.4 11.4 0 0 1 .3 1.4c.2 3.1.3 6.2.7 9.3a65.1 65.1 0 0 0 1.4 6.5c.1.2.2.4.2.7.6 3.2 1 6.4 1.7 9.5s1.6 6.2 2.4 9.4a6.7 6.7 0 0 1 .2 1.4 87.6 87.6 0 0 0 1.5 10.8c.5 3.1.8 6.2 1.1 9.4a3.1 3.1 0 0 0 3.3 3 9.9 9.9 0 0 1 5.9 1.6 29.1 29.1 0 0 1 3.8 2.8 18 18 0 0 1 6.4 13.5 13.2 13.2 0 0 1-2.7 9 23.2 23.2 0 0 1-5.7 4.8 4.2 4.2 0 0 0-1.7 1.2 5.8 5.8 0 0 1-3.3 2.9 2.4 2.4 0 0 0-.8.4c-.8.9-1.3 1.8-2.7 2.1-3 .5-5.8 1.7-8.9.8l-.9-.2c-4.2-2.7-8.7-5.2-10.7-10.1-1-2.4-1.9-5.1-1-7.9a12.5 12.5 0 0 0 .5-3.5 9.2 9.2 0 0 1 1.7-5.8 13 13 0 0 1 2.4-2.8c1.7-1.2 3.1-2.6 5-3.5s2.6-2.5 2.4-4.9 0-2.8 0-4.2a2.8 2.8 0 0 0-.1-1.4c-1-1.4-.7-3.1-.8-4.6-.4-4.2-.5-8.5-1.6-12.4a93.8 93.8 0 0 1-2.8-13.9c-.6-4.7-1.5-9.3-1.8-14s-1.3-6.5-2.1-9.7-2.6-8.9-2.4-13.7c.1-2-.9-4-1.3-6s-.9-5.6-1.3-8.4l-.7-4.2c-.3-1.6-.5-3.3-.8-4.9a11.3 11.3 0 0 0-.9-3.2c-1.6-3-2-6.3-2.1-9.7a51.9 51.9 0 0 0-.2-6.7c-.5-3.2-.9-6.4-2.4-9.4-.5-1-.1-2.3-.3-3.5s-.9-3.8-1.3-5.8a23.8 23.8 0 0 1-.5-4 17.2 17.2 0 0 0-1.1-8.1 8 8 0 0 1-.5-2.3c-.3-1.7-1-2.2-2.6-1.6a44.2 44.2 0 0 1-7.1 1.7c-3.4.6-7.1 1-9.5 4.2-1.1 1.5-1.7 3-1.2 4.9 1 3.6 2.2 7.1 3.2 10.6a4.9 4.9 0 0 1-.9 5.1c-1.6 1.6-3.3 3.1-5.7 3.6s-5.1 1.2-7.6 1.8a2.8 2.8 0 0 1-1.5 0 1.1 1.1 0 0 1-.2-2.1 4.1 4.1 0 0 1 2.2-.5 1.9 1.9 0 0 0 2-.9 4.3 4.3 0 0 1 2.8-2l1.7-.8c2.2-1.1 2.4-1.7 1.7-4.2-1.2-4-2.3-8.1-2.2-12.3s1.9-6.4 4.5-8.8a6 6 0 0 1 2-.7l1.6-.7a21.5 21.5 0 0 0-6.5-6.6 26.9 26.9 0 0 0-6.6-3.2 8.4 8.4 0 0 0-3-.5 33.2 33.2 0 0 0-8.5 1.8 39.9 39.9 0 0 1-8.1 1.6 15.6 15.6 0 0 1-3.8 0 10.9 10.9 0 0 1-3-.7c-1.5-.6-2.8-1.6-4.5-.9a1.2 1.2 0 0 1-.9-.2c-1.9-1.3-3.8-.8-5.7-.3a11 11 0 0 1-8.5-.8 27.2 27.2 0 0 1-4.1-3.4c-2.5.9-5.2 1.7-7.7 2.8s-5.4-.2-8.1 1.3l.9 2.1c.7 1.6 1.4 3.3 2.2 4.9 1.7 3.3 2.9 6.9 5.8 9.4a11.8 11.8 0 0 1 3.5 5.6c1 3.2 2.1 6.3 3 9.5.5 1.7.6 3.4 1.1 5.1 1.2 4.3 2.6 8.6 3.9 13 .8 2.6 1.6 5.1 2.2 7.8s.7 5.2-.9 7.5-1.7 3-2.6 4.5c-2 3.6-5 6.1-8.5 8.1s-4.8 3.1-7.1 4.7l-1.5.7-3.9 2.6-3.2 2a4.7 4.7 0 0 0-1.1.8 52.7 52.7 0 0 1-10.7 9.3 35.9 35.9 0 0 0-3.6 3.4c-2.3 2.1-4.1 4.7-7 6.1a4.6 4.6 0 0 0-.9 1 26.4 26.4 0 0 1-9.6 6 20.9 20.9 0 0 1-3.5.8h-.7c-2.4-1-4.9-.2-7.3-.7s-4.3.4-6.2 1.5a14.4 14.4 0 0 1-1.7 1.2c-3.5 1.2-5.3 4.3-7.8 6.7s-2.9 3.4-4.8 4.8-4.8 4.6-7.2 6.9a14.6 14.6 0 0 1-2.3 2c-2 1.3-3 3.5-4.8 4.9s-4 3.1-6 4.6a9.9 9.9 0 0 0-1.3.9 11 11 0 0 1-4.3 3.1c-3 1.1-5.6 3.4-9 3.2l-.7.2c-2.3 1.6-5 1.3-7.5 1.9l-8.3 1.7h-1.4l-6.5-1.3H682c-3.1 1-5.9-.1-8.7-1.2l-6.4-2.5c-1.5-.5-2.1 0-2.4 1.6s-.9 3.3-1.3 5-1.2 3.4-1.1 5.1a35.8 35.8 0 0 1-1.4 9.1c-.8 3-1.5 6-2.3 9a86.4 86.4 0 0 1-2.6 9.1c-1.9 5-2.4 10.3-4.2 15.3a102.9 102.9 0 0 0-4.1 14.8c-.9 4.5-3.1 8.4-5 12.5a52.7 52.7 0 0 0-3.9 12.2 36.1 36.1 0 0 1-2.8 9.8 18.5 18.5 0 0 0-1 3.6 7.7 7.7 0 0 1-.3 1.4 23.5 23.5 0 0 0-2.1 10.4c0 1.5 0 3-.1 4.6a1.7 1.7 0 0 0-.1.7c1.5 2.4 1.5 5.5 3.4 7.8a29.8 29.8 0 0 1 2.8 4.9c1.4 2.7 2.9 5.4 4.1 8.2a10.4 10.4 0 0 1 .9 3.9 21.4 21.4 0 0 0 1.1 6.1 7.3 7.3 0 0 1 .1 2.8c-.1 1.2-.5 2.3-.5 3.5a12.4 12.4 0 0 1-2.7 8.2 20.5 20.5 0 0 0-2.2 4.2c-1.2 2.6-.7 4.1 1.4 6.1 4.3 4.1 8.3 8.3 10.7 13.9a7.4 7.4 0 0 1 .4 1.3c1.3 6.4 2.6 12.9 4.1 19.3a29.3 29.3 0 0 0 2.2 5.9c1 2.1 2.3 4.2 3.2 6.3a18.7 18.7 0 0 1 .7 3.5c.2.8.2 1.9.7 2.4 2.4 2.3 3.7 5.3 5.6 7.8s4.4 7.6 6.4 11.6a40 40 0 0 0 3.6 5.3l2.9 3.7 5.7 7.6c.5.7.9 1.4 1.5 2.1a12.1 12.1 0 0 0 2.1 2.2 17.4 17.4 0 0 1 4.4 4.3 9.7 9.7 0 0 0 3 3 13.8 13.8 0 0 1 5.1 5.5 47.9 47.9 0 0 0 9.8 11.8c2 1.8 3.4 4.3 5 6.6a2.2 2.2 0 0 1 .2 1.8c-.8 1.5-1 3.4-2.4 4.6a2.2 2.2 0 0 0-.7.9c-.6 2.5-2.7 3.8-4.4 5.4a3.4 3.4 0 0 1-2.1.9c-3.1.1-5.3 1.9-7.5 3.6a6 6 0 0 1-.7.7c-2.9 1.6-5.9 3-8.7 4.7s-4.5 2.3-5.6 4.8a3.1 3.1 0 0 0-.2 2c1 3.2.6 6.3.4 9.5s-.8 7.7-1 11.6a10.4 10.4 0 0 0 .3 3.1 43.1 43.1 0 0 1 1.5 13.7 12.5 12.5 0 0 0 .6 4.6c1 3 .6 6 .8 9.2l7.5-2.6c1.4 1.8 2.6 3.5 3.8 5.1a5.9 5.9 0 0 1 .6 1.8 7.3 7.3 0 0 0 .3 1.4 14.7 14.7 0 0 1 1.3 8.9 2.9 2.9 0 0 0 0 1c.4 1.9.8 3.8 1.2 5.8a5.3 5.3 0 0 1 .1 1.9 6.6 6.6 0 0 0 .9 4.6 3.5 3.5 0 0 1-.5 4.4l-5.1 5.8a14.9 14.9 0 0 0 5.9 2.4c2.9.5 5.7 1.2 8.5 1.9a11.8 11.8 0 0 0 5.6.1 15.4 15.4 0 0 1 8.2.3 58 58 0 0 0 7.9 1.5 3 3 0 0 0 3-1.1c1.7-2 3.6-3.8 4.7-6.3a7.9 7.9 0 0 1 4.2-4.3 1.3 1.3 0 0 0 .6-.4c1.7-2.8 5-3.4 7.5-5.2a5.2 5.2 0 0 0 1.2-1.1c2.1-3 5.1-5.1 7.4-7.9a14.1 14.1 0 0 1 1.7-1.3l3.2-3.1a20.5 20.5 0 0 1 2.9-2.4 60.9 60.9 0 0 1 6.4-3.6c3.3-1.5 5.3-.6 6.8 2.8a27.1 27.1 0 0 1 1.7 12.1 5.9 5.9 0 0 1-2 3.7c-2.2 1.9-3.8 4.5-6.5 5.8a7.9 7.9 0 0 0-1.5 1.8c-2.3 2.4-4.5 5.1-7.4 6.9a6.9 6.9 0 0 0-1.7 2 47.5 47.5 0 0 1-9.2 9.5c-2.2 1.8-4.1 3.8-6.2 5.6l-4.8 4.1a3.9 3.9 0 0 0-1.3 1.3c-1.4 4.1-4.7 4.7-8.3 4.9a25.1 25.1 0 0 1-5.2-.5 57.4 57.4 0 0 1-7.8-1.5c-1.3-.4-2.3.1-3.4.1h-11a9.6 9.6 0 0 0-2.9.8l-3.7 1.7c-.5 2.3.8 4.4 2.6 6.4-1.2 2.4-2.7 4.3-5.2 5.4a5.2 5.2 0 0 0-2 1.3c-2 2.3-4.6 3.2-7.4 4.1l-3.6 1.3c-2.9 1.3-5.7 1.5-8.5-.1a4.9 4.9 0 0 1-1.6-1.6c-2.4-3.4-2.7-7.4-3.6-11.2a36.2 36.2 0 0 1-.5-11.1 12.2 12.2 0 0 1 1.8-4.8c1.3-2.3.6-4.5-.3-6.6a2.1 2.1 0 0 0-1.5-.9 6.5 6.5 0 0 0-2.6.2 3.4 3.4 0 0 1-2.8 0 2 2 0 0 0-1.2-.1c-4.8.9-6.8-2.6-9.1-5.7s-1.6-4.7-2.4-7.1c-.1-.3.1-.7-.1-.9-1.7-3.7-1.5-7.9-3.1-11.7s-2.1-4.9-3-7.4a34.5 34.5 0 0 1-1.1-3.9c-.3-1.2-.6-2.5-.8-3.7a5.4 5.4 0 0 1-.1-2.6c.9-2.3.3-4.5-.1-6.7s-.4-2.8-.6-4.2-.4-2.8-.8-4.2-1.1-3.1-1.4-4.8-1.5-3.1-2.5-4.6-4-5.2-5.5-8a56.9 56.9 0 0 1-3.7-9.2c-1.2-3.5-2.1-7.1-.9-11a1.5 1.5 0 0 0-2.4-1.7c-2.1 1.2-4 2.6-6 3.8l-8.4 4.8c-2.3 1.3-4.6 2.5-6.8 3.9a98 98 0 0 1-14.4 8.1l-1.2.8a9.6 9.6 0 0 1-1.9 1.3l-10.1 3.6c-1 .3-2.1.8-3.1 1l-4.4.8-10.1 1.3a45 45 0 0 1-4.8.2h-8.4a4.4 4.4 0 0 1-1.6-.2c-3.3-1.4-6.6-1.2-10-.8a77.7 77.7 0 0 1-8.3.3c-4.5.1-8.7-1.6-13.2-1.5a68.8 68.8 0 0 1-10.1-1 65.9 65.9 0 0 1-6.4-1.5l-1.6-.4c-4.2-.6-8.4-1-12.5-1.7a25.8 25.8 0 0 1-4.5-1.5c-1.8-.7-3.7-1.4-5.5-2s-2.8-.4-4.2-.8l-8-2.5-.9-.2a26.4 26.4 0 0 1-8.4-1.4 21.3 21.3 0 0 1-5-2.1 27 27 0 0 0-9.5-3.4 17.8 17.8 0 0 1-5.5-1.8c-2.4-1.3-4.4-.8-6.2.9s-2.9 2.9-4.5 4.2l-8.7 7.3a1.4 1.4 0 0 1-.6.4 3.9 3.9 0 0 0-3.6 3 .9.9 0 0 1-.4.6c-1.6.6-2.3 2.1-3.6 3l-6.4 4.8c-3.7 2.7-7.2 5.6-11.3 7.8-1.5.8-2.6 2.3-4.1 3.1-3.5 1.9-7.2 3.7-10.8 5.5a5.8 5.8 0 0 0-1.3.9 24.4 24.4 0 0 1-5 3.9 9.1 9.1 0 0 0-2 2c-1.2 1.3-2.3 2.6-3.5 3.8s-2.1 1.4-2.3 2.7c1.4 1.1 2.7 2 4 3.1s1.8 3.4.6 5.5c-2.4 4-5.6 7.4-8.5 11.1-1.4 1.7-2.9 3.4-4.1 5.2a5.1 5.1 0 0 1-3.1 2.1 7.8 7.8 0 0 0-4.6 3.8 11 11 0 0 0-1.8 3.8c-.4 1.9-2.8 3.3-4.8 3.1s-3.2-.7-4.9-.9a12.4 12.4 0 0 1-4.8-2l-8.6-4.8-1.6-.9-1.8-.6a4.2 4.2 0 0 0-.5 5.5l2.3 3.6a21 21 0 0 1 1.9 2.7c1.6 3.5 4 6.5 5.3 10.2s2.2 4.4 3.1 6.7 1.5 4.7 2.3 7a2 2 0 0 0 1.3 1.2c1.9.1 3.8.6 5.6-.5a2.3 2.3 0 0 1 1.1-.5c4 .1 7.4-2.1 11.2-2.8a126.5 126.5 0 0 1 27.5-2.1c1.7.1 3.6-.2 4.5 1.4s2.8 2 2.7 4a.6.6 0 0 0 .2.4c1.9 1.8 1.5 4.2 1.6 6.5s-1.3 4.8-3 6.7a3.2 3.2 0 0 1-2.3 1c-3.6.3-7.3.6-10.9 1.1s-4.8 1.1-7.2 1.6l-2.4.3a14 14 0 0 0-3.3.6c-2.4 1-4.9.6-7.3.9l-9.4 1.3-8.7 1-3.2.5h-13.6zm332.4-651.9a9.6 9.6 0 0 0-.7-6.1 30.5 30.5 0 0 1-2.3-5.8c-.9-3.6-3.1-6.6-4.8-9.8s-4.4-6.4-6.2-9.8-3.9-5.8-5.7-8.7a6 6 0 0 0-1.1-1.2 34.9 34.9 0 0 1-6.7-7.9c-.5-.8-1.2-1.5-1.7-2.3s-3.2-3.5-4.9-5.1-4.8-4.8-7.3-7.1a18.5 18.5 0 0 0-2.4-1.8c-1.5-1-3-1.9-4.5-3l-8.8-7.1a43.9 43.9 0 0 1-3.4-3.3 6.3 6.3 0 0 0-1.9-1.6 21.3 21.3 0 0 1-4.2-2.7c-1.8-1.4-3.6-3-5.3-4.6l-.6-.4-12.2-6.4a8.7 8.7 0 0 0-1.7-.8c-1-.3-2.2-.8-3.1.2-2.7 2.8-5.9 5.3-7.4 9.2a15.3 15.3 0 0 1-2.2 3.7 37.1 37.1 0 0 0-4.4 7.5c-1.3 3-2 6.2-3.8 8.9-.4.5-.2 1.4-.4 2.1a6.5 6.5 0 0 1-1.2 2.8c-1.8 1.6-2.6 3.7-3.8 5.7a26 26 0 0 1-1.8 2.8 50.5 50.5 0 0 0-4.9 6.6c-2.1 3.7-3.6 7.7-6.4 11a5 5 0 0 0-.5 1.1l-1.4 2.7a9.9 9.9 0 0 0-1.2 2.1 12.5 12.5 0 0 1-2.6 5c-.5.7-.8 1.5-1.3 2.3-2.3 3.4-3.7 7.2-5.9 10.7a36.2 36.2 0 0 0-4.1 7.7 30.6 30.6 0 0 1-2.5 4.9l-2.8 4.7c-1.4 2.3-2.9 4.6-4.2 6.9-.5.8-.5 1.8-1.1 2.6a39.8 39.8 0 0 0-4 6.7 81.4 81.4 0 0 1-7.2 12.5c-1.7 2.4-2.8 5.1-4.3 7.6a68.6 68.6 0 0 1-4.4 7 21.5 21.5 0 0 0-1.8 3.3 5.4 5.4 0 0 1-.8 1.4c-1.6 1.5-2.4 3.5-3.4 5.3a33.7 33.7 0 0 1-3.8 6 43.8 43.8 0 0 0-5.2 6.7 2.2 2.2 0 0 1-.7.9c-2.2 1-3.1 2.8-3.9 4.9a7.6 7.6 0 0 1-1.1 1.8c-2.5 3.5-4.9 7.1-7.6 10.4s-3.8 6.3-7 8.2a3.4 3.4 0 0 0-.6 1.2c-1.4 2.5-2.5 5-4.9 6.8a10.6 10.6 0 0 0-3.4 4.2c-1.4 3.4-3.8 5.9-6.1 8.7l-2.4 2.6c-1.7 1.7-3.5 3.2-4.7 5.3-2.1 3.8-5.6 6.4-8 9.9s-2.8 4.5-4.2 6.8a1.3 1.3 0 0 0-.2.7c.2 2.5-1.5 4.3-2.9 5.8-3.3 3.5-5.1 8-8.1 11.6l-.2.4c-.7 2.3-2.3 3.9-3.6 5.8a21.4 21.4 0 0 0-1.7 3.3c-.2.3-.1.8-.3 1.1l-3.6 6.9a20.1 20.1 0 0 0-1.4 2.5c-.8 2.1-1.3 4.3-2.1 6.5a10.3 10.3 0 0 1-1.2 2.8c-1.6 2.3-2.2 4.9-2.9 7.5s-2.9 6.1-3.9 9.3c-.5 1.6-1.7 3.1-1.9 4.8a17.4 17.4 0 0 1-2.5 6.4 56.6 56.6 0 0 0-4.2 8.9 18 18 0 0 1-1.8 4.6 40.4 40.4 0 0 0-3.8 7.9c-1.5 3.7-2.9 7.4-4.3 11.1-.8 1.9-2.4 3.6-2 5.9a.3.3 0 0 1-.1.2c-1.8 2-2.3 4.6-3.4 7s-2.5 4.6-2.7 7.3a4.1 4.1 0 0 1-.6 1.3c-.7 1.5-1.6 2.9-2.2 4.5s-1.1 3.6-1.7 5.4a3.3 3.3 0 0 1-.5.8c-2.3 3.2-4.8 6.3-6.4 10s-2.4 5.2-3.6 7.7-1.8 3.4-2.5 5.1-2.1 3.1-2.3 5.1a7.5 7.5 0 0 1-2 3.9 28.6 28.6 0 0 0-4.9 8.1c-1.9 4.1-4.9 7.5-7.1 11.3-1.1 1.9-2.7 3.6-3.8 5.5a12.4 12.4 0 0 0-2.2 4.9 5.9 5.9 0 0 1-.6 1.8c-1.3 2.7-2.6 5.4-4 8.1-.6 1.2-1.5 2.2-2.2 3.3-2 3-4.7 5.6-5.4 9.4a14 14 0 0 1-1.8 4c-1.4 2.6-2.8 5.1-4 7.8s-1 2.5-2.3 3.4a4.7 4.7 0 0 0-2.1 2.8 29.7 29.7 0 0 1-2.4 5 46.9 46.9 0 0 1-2.4 4.1c-1.1 1.6-1.2 3.7-2.6 5.2-2.8 3-4.6 6.7-6.9 10.2s-2.2 4.2-4.1 5.7a2.7 2.7 0 0 0-.9 1.6 32.1 32.1 0 0 0-.3 4.5c0 1.8 2.2 4.7 3.9 5.3l3.7 1a48.2 48.2 0 0 1 9.3 2.6l7 3c2.4 1 4.9 1.7 6.9 3.6a5.6 5.6 0 0 0 1.9.9l6.6 2.5c2.9 1.1 5.7 2.4 8.7 3.3a30.4 30.4 0 0 1 7.9 3.2 126.6 126.6 0 0 0 15.9 7.9 116 116 0 0 1 11.1 5.3c3 1.7 5.7 3.9 9.1 4.8s6.3 2.9 9.9 3.3c1.3.2 2.6 1.2 3.8 1.9 3.2 1.7 6.3 3.9 9.6 5s5.7 3.6 8.6 5.4c1.2.7 2.3 1.7 3.5 2.3s3.9 2.4 6 3.3c4.1 1.8 8.6 2.8 12.4 5.2l.9.3a41.8 41.8 0 0 1 12.5 4.1c1.9 1 3.9 1.9 5.9 2.8s4.4 1.3 6.1 2.6c3.7 2.7 8.2 3.1 12.2 5a10.8 10.8 0 0 0 1.2.1c1.9.6 3.9.3 5.7 1.4a62.1 62.1 0 0 0 6.4 3.1 5.7 5.7 0 0 0 3.7.5 5.4 5.4 0 0 1 2.6.1l8.9 3.1a21 21 0 0 0 3.9 1.1c1.9.3 4-.4 5.6 1.3 3.2.5 6 2.5 9.5 2a4.6 4.6 0 0 1 1.6.3l7.1 1.6c1.9.4 3.8.3 5.6.9a34.3 34.3 0 0 0 12.5 1.4 29.3 29.3 0 0 1 6.7.4c2.5.4 4.9 1.8 7.6.6a2.2 2.2 0 0 1 1 0c4.2.2 8.4-.1 12.6 0 2.5.1 5 1.5 7.5 0a1.8 1.8 0 0 1 .9.1 16 16 0 0 0 3 .4c2.5-.1 5-.2 7.5-.1a74.5 74.5 0 0 0 9.3-.6 2.9 2.9 0 0 0 1.1-.4 19.2 19.2 0 0 1 7.3-2 6.7 6.7 0 0 0 2.5-.6c2.7-1.5 5.8-2.2 8.1-4.4a5.3 5.3 0 0 1 1.3-.6l11-5.6.2-.2c3.2-2 6.4-4 9.6-5.9s8.8-5.9 13.8-7.9c3-1.2 6-2.6 9-3.8a8.8 8.8 0 0 1 3-.6l15.1-.2a10.1 10.1 0 0 1 2.3.5c3.8.9 7.5 2 11.4 1l3.7-1a31.1 31.1 0 0 0 5.8-1.9c3.5-1.9 7.2-3.4 10.4-5.8 1.5-1.1 3.2-1.8 4.6-3a60.9 60.9 0 0 1 8.6-6.3c2.5-1.5 4-4.5 2.2-7a63.3 63.3 0 0 0-4.2-4.8c-2.6-2.9-5.4-5.5-7.6-8.6s-4.7-4.9-6.7-7.6-3.8-2.9-4.3-5.5a1.1 1.1 0 0 0-.6-.7 8.3 8.3 0 0 1-3.2-3c-1.5-2-3.2-3.7-4.7-5.7a36.5 36.5 0 0 1-2.3-3.9c-1-1.8-1.8-3.8-3.2-5.3s-3.7-3.7-4.5-6.3a3.1 3.1 0 0 0-.8-1.1 23.2 23.2 0 0 1-4.6-6.3c-.6-1.2-1-2.7-1.9-3.4a12.8 12.8 0 0 1-4-6.3c-1.2-3.5-3.2-6.7-4.3-10.2-.4-1.4-1-2.8-1.6-4.2l-1.1-2.9c-.9-2.3-1.8-4.5-2.7-6.8s-.3-4.6-1.7-6.8-1-4.2-1.6-6.3-1-3.9-2.1-5.2-2.9-4.9-5.3-6.7-2.7-2.7-4.1-3.9-2.8-3.2-1.8-5.7a108.8 108.8 0 0 1 4.8-10.3 11.2 11.2 0 0 0 1.6-5.2 36.7 36.7 0 0 0-.9-9.2c-.2-1.1-.5-2.2-.8-3.2a18.1 18.1 0 0 0-.8-2.4c-.3-.6-.7-1.1-1-1.6l-5.6-10.4a20 20 0 0 1-1.7-2.9c-1.2-3.7-2.5-7.4-1.9-11.4.2-1.1.3-2.2.5-3.3.7-3.2.8-6.4 2.1-9.5a52.5 52.5 0 0 0 1.7-5.4 48.8 48.8 0 0 1 2.4-7.1 30.8 30.8 0 0 0 1.9-5.8c.9-3.2 1.8-6.4 3.8-9.1a4.9 4.9 0 0 0 .8-1.9c.5-2.4 1.8-4.6 1.8-7.1a2 2 0 0 1 .6-1.3c2.8-2.7 1.9-7 4.2-9.9a1.4 1.4 0 0 0 .1-.9c-.3-2.2.6-4 1.4-5.9a7.4 7.4 0 0 0 .8-2.9c0-3.2 0-6.3 1.3-9.3a13.2 13.2 0 0 0 .4-1.3l3.2-10.4a46.4 46.4 0 0 1 2-6.5 24.1 24.1 0 0 0 2-7.5c.4-3.1.6-6.2 3-8.6a1.7 1.7 0 0 0 .4-1.1c0-3 1.3-6 .1-9.1a4.8 4.8 0 0 0-1.6-2.6l-4.8-3.4a8.5 8.5 0 0 1-.9-1 16.5 16.5 0 0 0-2.3-2.3c-1.8-1.2-3.7-2.1-5.4-3.4-3.5-2.6-7-5.3-10.5-7.9a84.2 84.2 0 0 1-6.9-5 50.8 50.8 0 0 0-6-5.2 45.3 45.3 0 0 1-7.2-5.3c-2.8-2.8-6.3-4.7-9.3-7.3a123.8 123.8 0 0 0-11.7-8.9c-2.2-1.5-4.3-2.7-7-2.8s-3.3-1-5-1.2a10.6 10.6 0 0 0-4.4.2 28.6 28.6 0 0 0-4.6 2.4l-14.9 7.9a40.3 40.3 0 0 1-4.1 2.4 46.5 46.5 0 0 0-9.6 5 73.1 73.1 0 0 1-8.2 5.2c-4.3 2.2-8.2 5.1-12.5 7.3-2.2 1.2-4.4 2.5-6.7 3.5s-6 2.7-9.1 3.7a66.6 66.6 0 0 0-6.5 2.1h-.9c-2.3 0-4.1 1.4-6.1 2.3a4.9 4.9 0 0 1-3.9.5 3.3 3.3 0 0 0-2.5.1l-3.7 1.3c-2.2-1.9-2.2-2.5.3-3.6l1.1-.5 18.7-6.1a63.2 63.2 0 0 0 6.9-2.4c3.5-1.6 6.9-3.5 10.3-5.4l2.4-1.5 4.3-2.5 6.3-3.8c3.3-2 6.5-4.2 9.9-6.1s6-2.8 9.1-4.1c1.3-.6 2.6-1.1 3.8-1.8 3.8-2.2 7.5-4.4 11.2-6.7 1.4-.9 3.3-1.2 4.1-2.9l-8.2-6c-1.9 1.1-3.9 2.1-4.2 4.7a2.4 2.4 0 0 1-2 1.8c-1.2.4-2.8.4-3.5 1.2s-4.9 3.3-7 5.2a11.6 11.6 0 0 1-1.2 1.1c-2.3 1.6-4.9 2.6-7.2 4.5s-6.4 3-9.7 4.4a56.4 56.4 0 0 0-6.1 2.5c-3.2 1.7-6.4 2.7-10.1 1.9-1.3-.3-1.6-1.3-.7-2.2a4.5 4.5 0 0 1 1.3-1l8.6-4 3.1-1.7a.9.9 0 0 0 .1-1.6l-1.8.5-.2-.5 4.4-2a18 18 0 0 0 2.6-1.2c1.6-1.1 3.2-2.1 5.2-2.2a3.4 3.4 0 0 0 1.5-.7l3.5-2.3c-.3-1.7 1-2.4 2.4-2.9a16.2 16.2 0 0 0 7.2-5.5c1.2-1.4 2.2-2.8 4.2-3.4a3.8 3.8 0 0 0 1.7-5.7l-1-1.4c-1.8-2.8-3.7-5.5-5.4-8.4a57.1 57.1 0 0 1-2.6-5.2 16.7 16.7 0 0 1-1-2.6 54.9 54.9 0 0 0-1.4-5.5 20.1 20.1 0 0 1-1.2-7.7c0-1.6.1-3.2 0-4.8s-.4-2-.5-3-.5-1.8-.1-2.3c1.4-2 1.6-4.2 1.9-6.5a27.6 27.6 0 0 1 1.4-5c.5-1.6-.4-3.4.9-4.9s2.2-5.4 1.4-8.4c.9-1.8 1.7-3.6 2.7-5.3a39.8 39.8 0 0 1 2.6-4c.9-1.2 1.9-2.3 2.8-3.4a12.1 12.1 0 0 0 1.8-2.1c1.5-3.1 3.2-5.9 6.4-7.6a3.1 3.1 0 0 0 1.1-.9c2.8-4.2 7.2-6.5 10.9-9.8 1.1-1 2.4-1.8 3.5-2.9a13.8 13.8 0 0 1 6-3.2c1.6-.5 3.4-.7 5.1-1s3.4-.3 5-.7a65.7 65.7 0 0 1 8.4-1.1l5-.4 1.9.2c2.7.7 5.4 1.3 8 2.1s4 .8 6 2 6.3 4.3 10 5.4l.4.2c3.4 3.2 7.7 5.3 10.9 8.8a36.8 36.8 0 0 0 2.5 2.7zm4.3 53.5l-.2-.5a15.4 15.4 0 0 0-2.1.8l-6.4 3.6-3.8 2-3.7 1.7-6.7 2.8c-3.7 1.7-7.3 3.4-11.4 3.9a22.4 22.4 0 0 1-7.6-.4 4.5 4.5 0 0 1-3.4-3.1c-.3-1-.6-2.3.4-3.1a26.5 26.5 0 0 1 5-3.2c2.9-1.3 6-2.4 9.1-3.5a27.1 27.1 0 0 1 4.6-1.3 31.1 31.1 0 0 0 9.2-3c2.4-1.3 5.2-1.9 7.7-2.9a17 17 0 0 0 5.1-2.8 51.4 51.4 0 0 1 5.4-4.1l4.3-3.3a11.4 11.4 0 0 0-1.8-.6 16.5 16.5 0 0 1-6.2-2.7 4.4 4.4 0 0 1-2.1-3 30.3 30.3 0 0 1-.8-8.2 19 19 0 0 0-.9-6.1c-1.1-4.2-3.6-7.7-6.3-11.1a26.4 26.4 0 0 0-6.8-6.4 45.3 45.3 0 0 1-3.7-2.9l-5.4-3.9c-1.9-1.3-4-2.1-5.5-4a3.4 3.4 0 0 0-1.9-.9l-5.1-1-6.3-1.8a8.9 8.9 0 0 0-3.9 0c-3.2.3-6.4 1.2-9.7 1.2a21 21 0 0 0-6 1.2 13 13 0 0 0-4.1 1.9c-1.6 1.2-3 2.8-4.5 4.1a12.5 12.5 0 0 1-2.4 1.6 9.8 9.8 0 0 0-3.5 2.8 4.7 4.7 0 0 1-2.3 1.5 4.7 4.7 0 0 0-2.3 1.5c-.8 1-1.9 1.7-2.8 2.6a29.2 29.2 0 0 0-3.6 4.4c-1.4 2.4-2.5 5.1-3.8 7.6a41.6 41.6 0 0 1-2.5 5.1 11.8 11.8 0 0 0-1.8 5c-.3 2-.5 4.1-.8 6.1l-1.5 10.8a4.8 4.8 0 0 1-.2 1.6c-.7 1.2-.3 2.5-.1 3.7a8 8 0 0 1 .2 1.1c-.1 2.1-.4 4.3-.3 6.4a14.9 14.9 0 0 0 .8 3.7c.6 2.2 1.3 4.4 2 6.5a11.8 11.8 0 0 0 .9 2.6c1.8 3 3.7 5.8 5.5 8.8s1.6 3.2 2.4 4.8a13.5 13.5 0 0 0 1.5 2.4c1 1.2 2.3 2.2 3.2 3.5a18 18 0 0 0 6.5 5.8 3.9 3.9 0 0 1 1.2 1.1 11.7 11.7 0 0 0 5.4 3.8 46.9 46.9 0 0 1 5.4 1.8 7.7 7.7 0 0 0 3.8 1 15.9 15.9 0 0 1 8 1.7l5 2.8a19.4 19.4 0 0 1 7.5 6.4l.7.6a70.7 70.7 0 0 0 6 3.9c2.2 1.2 3.1 3.7 5.4 4.9s3.5 2.7 5.2 4a25.6 25.6 0 0 1 4.6 4.4c2.1 2.7 4.4 5.4 8.2 6.1a6.3 6.3 0 0 1 1.7.8c2.2 1.2 3.9 3.2 6.5 3.9.4.1.7 1 1 1.5s.8 1.7 1.4 2.1 3.4 1.5 5.1 2.4a5.3 5.3 0 0 1 1.8 1.4 16.9 16.9 0 0 0 6.4 5.3 24 24 0 0 1 2.8 1.7c1.4.9 2.8 1.8 4.3 2.6l7 3.4c2.4 1.1 4.8 2 7.3 2.9a11.3 11.3 0 0 0 3.9.9c3.9-.1 7.8.7 11.7.1 2.3-.4 4.8-.3 7-1.1a54.9 54.9 0 0 0 8.7-4.3 42.2 42.2 0 0 0 8-6.6c2-1.9 4.2-3.6 6.1-5.6s5-4.6 7.4-7l9.2-8.8a14.2 14.2 0 0 1 3.3-2.6 33.8 33.8 0 0 0 8.3-5.8 6.8 6.8 0 0 0 1.8-2.2c.8-1.9 1.6-3.6 3.8-4.2a1.1 1.1 0 0 0 .2-.5c-2.6-1.6-3.8-4.1-4.4-6.9a28.8 28.8 0 0 0-3.5-8.5l-5.1-8.6c-1.6-2.7-3.2-5.5-4.9-8.1s-2.8-3.8-4.2-5.8a25.7 25.7 0 0 1-3-4.5 29 29 0 0 0-3.9-7.2c-1-1.2-1.8-2.6-2.7-3.9a6 6 0 0 0-.9-1.4c-1.9-1.5-2.8-3.6-4.1-5.5s-4.2-5.9-6.5-8.8c-.9-1.1-2-1.3-2.6-.5-2 2.6-5.3 3.3-7.7 5.3a3.6 3.6 0 0 1-2 .6c-3.8.2-7.1 1.9-10.6 3.2-1.6.6-2.4 2.1-.9 3.6l4.3 4.4a4.3 4.3 0 0 1 1.3 1.9c.4 2.5 1.6 4.7 1.4 7.4s0 2.8 0 4.2.2 5-.1 7.6a79.2 79.2 0 0 0 0 8.8 10.5 10.5 0 0 1-.2 2.1c-.2 1.1-.6 2.1-.8 3.2s0 1.3-.2 1.9q-1.6 5.6-3.2 11.1c-.4 1.4-.9 2.8-1.4 4.3l-1.5 4.5a6.4 6.4 0 0 0-.3 1.1c-.5 3.5-3 5.5-5.7 7.2a3.4 3.4 0 0 1-3.4-.2 1.4 1.4 0 0 1-.5-2.4 11 11 0 0 1 2.3-2.4 4.2 4.2 0 0 0 1.7-2.5c.3-1 .6-2.4 1.3-3a6.1 6.1 0 0 0 2-3.6 16.6 16.6 0 0 1 1.7-3.9 10.5 10.5 0 0 0 1.5-6.1 8.8 8.8 0 0 1 .4-2.1c.3-1.7 1.5-3.3.6-5.2a3.7 3.7 0 0 1 .3-1.6 14.9 14.9 0 0 0 .3-2.8c-.2-3.1-.4-6.1-.7-9.2a9.4 9.4 0 0 0-.7-1.9 13.7 13.7 0 0 0-3 4.9c-.9 2.2-1 4.7-3.1 6.3a1.2 1.2 0 0 0-.3.6 32.4 32.4 0 0 1-2.9 7.3c-1.2 2.4-2.2 5-3.8 7.1a64 64 0 0 1-10.7 10.4 5.5 5.5 0 0 1-5.2.9 3.7 3.7 0 0 1-1.7-1.8c-.4-.8.2-1.3.8-1.8s3.3-2.9 4.9-4.4 4.2-5.2 6.2-7.8 3.9-7.2 5.4-11 2.6-6.8 4.1-10.1a15.7 15.7 0 0 0 .8-10.9 50.9 50.9 0 0 1-1.6-5 21.6 21.6 0 0 0-1-4.1c-.5-1.2-1.6-1.8-2.1-2.8-1.3-2.5-2.3-5.2-3.4-7.8s-.9-2.5-1.4-3.8a2.3 2.3 0 0 0-2.6-1.6h-1.4c-1.6.2-2.9.6-3.7 2.4s-2 3.5-3.5 4-3.1 2.8-3.4 4.7a8.5 8.5 0 0 1-2.3 4.9 24.8 24.8 0 0 0-3.8 4.8 3.2 3.2 0 0 1-1.2 1.1 52.8 52.8 0 0 1-6.1 3.3 6.6 6.6 0 0 0-3.7 3.2 9.2 9.2 0 0 1-3.7 3.6 4.6 4.6 0 0 0-.9.4l-7 7.1a15.7 15.7 0 0 1-1.9 1.8c-1.8 1.3-4.1 1.9-5.5 3.6l-.6.3-8.6 1.7h-1.2a2 2 0 0 1-1.6-3.1c2-3.2 3.8-6.4 6.8-8.8 1.3-1.1 2.5-2.2 3.7-3.4l2.5-2.2 4.7-4.1c1.9-1.7 3.5-3.7 5.6-5.1a30.8 30.8 0 0 0 6.8-6.2 6 6 0 0 1 3-2.2 4 4 0 0 0 2.9-3.2 9 9 0 0 1 .6-1.1zm-35.8-254.3a46.7 46.7 0 0 0 2.1 5.5 29.5 29.5 0 0 1 3.4 8.3c.5 2.6 1.9 5 1.8 7.8a9.9 9.9 0 0 0 .6 2.5c.4 1.7.7 3.4 1.2 5s0 2.8-.1 4.2-.2 5.4-.3 8 .8 3.9 2.9 4.6a24.3 24.3 0 0 1 8.1 4.5c2 1.7 4.4 2.5 6.6 3.7l5.3 2.6 3.8 2a18.9 18.9 0 0 1 3.3 1.8 26.3 26.3 0 0 0 6.6 3.6 40.2 40.2 0 0 1 4.5 2.6 16.2 16.2 0 0 0 2.2 1.3c2.9 1.1 5.8 2.2 8.3 4.1a5.5 5.5 0 0 0 1.4.8 2.1 2.1 0 0 0 2.9-1.5 16.1 16.1 0 0 1 .9-2.2l4.4-8.9a46.3 46.3 0 0 1 3.1-5.6 8.9 8.9 0 0 1 2.9-2.4c1.1-.6 2.1-.2 2.9.9s1 3.6-1.1 5.2a4.7 4.7 0 0 0-1.9 4.8 6.7 6.7 0 0 1-1.2 4.5c-.7 1.1-1.6 2.2-2.3 3.3s-2.4 3.3-2.5 5.4c2.7 1.7 3.6 1.4 4.4-1.3s1.1-3.8 1.8-5.6 2.8-4.5 6.6-4.4c1.9 0 2.7 1.5 1.8 3.3l-2.8 5a2.3 2.3 0 0 1-1 1c-1.6.6-1.9 2-2 3.5s0 2.2 0 3.4l6 2.8a2.3 2.3 0 0 0 1.3.1l10.2-2.1a10.4 10.4 0 0 0 2.8-.6c2.6-1.4 5.1-2.8 7.5-4.4s4.3-2.7 4.6-5.4.1-3.3.2-5a21.4 21.4 0 0 1 5.3-13.5c2.2-2.5 4.7-4.7 7.1-7a4.6 4.6 0 0 1 1.6-1c3.5-1.2 6.8-2.8 10.8-2.7 1.9.1 4.3-.2 5.4-2.7a3.6 3.6 0 0 1 2.1-1.4c1.8-.6 3.6-1 5.7-1.6l-.8-.4c-2.7-.4-3-.6-3-3.2s-.4-7.3.7-10.9a1 1 0 0 0-.1-.5c-1.7-1-3.3-1.9-4.7-2.9a29.7 29.7 0 0 0-7.7-3.4 37.3 37.3 0 0 1-7-3 31.7 31.7 0 0 0-5.4-2.3l-1.3-.5c-3-1.4-5.5-4.1-9.2-4.1h-.1l-14.2-4.9c-2.1-.7-4.1-1.8-6.2-2.7a5 5 0 0 0-2-.5 8.7 8.7 0 0 1-4.9-1.5 6.6 6.6 0 0 0-1.5-.7 63.9 63.9 0 0 0-8.5-2 3.9 3.9 0 0 1-3.4-3.1 82.6 82.6 0 0 0-2.6-8.9c-1.3-3.6-2.8-7.1-6-9.5l-3.4-2.5c-2.1-1.5-4.1-1.5-5.9.3s-6.1 5.8-8.1 9.6-3.3 6.7-2.6 10.6a1.7 1.7 0 0 1 0 .5c-.2 1.7-.3 3.4-.6 5.2s.9 3.5 1.1 5.2a18.8 18.8 0 0 0 1.9 6.3 31.2 31.2 0 0 1 1.7 3.9 11.3 11.3 0 0 0 4 6 6.1 6.1 0 0 1 1.9 2.7 17.9 17.9 0 0 0 3.3 5.1c.7.9 1.3 1.9 2.1 3-1.8.9-3.3 2-4.9 2.3s-2.1-.9-3.1-1.5l-1.3-.6a5.8 5.8 0 0 1-1.3-1l-2.1-2.5c-1.7-2.3-3.3-4.6-5.1-6.8s-1.4-3.3-2.1-5c-1.4-3.5-3.9-6.7-3.7-11.2a16.7 16.7 0 0 0-5.8 5.6 3.6 3.6 0 0 1-2.4 1.9c-2.6.7-4.4-.4-5.9-2.5a6.3 6.3 0 0 0-6.9-2.5 2.6 2.6 0 0 1-3-.8l-2.4-2.7-1.3.4-1.2.4c-1.7-2.8-2-2.9-4.2-1.2zm156.8-63.9l.5-.4c1.7-4.9 3.5-9.8 5.1-14.7.8-2.2 1.1-4.6 2-6.8s1.8-7.3 2.3-11.1c.1-1.1.5-2.2.6-3.3s1.3-4.1.4-6.3-1.1-3.9-1.6-5.9-1.6-6.8-3.5-9.8c-.6-.9-1.1-1.9-1.8-2.8a35.9 35.9 0 0 1-3.4-4.6 16.8 16.8 0 0 0-3.8-5l-3.8-3.6a16.2 16.2 0 0 0-1.5-1.5l-9.6-6.9a7.5 7.5 0 0 0-1.5-.7l-5.3-2.2c-1.4-.6-2.7-1.5-4.1-1.7a11.5 11.5 0 0 1-4.8-1.7l-1.1-.5c-2.9-.9-6-1.2-8.6-3l-1.1-.4a17.6 17.6 0 0 1-4.1-1.1c-3-1.7-6.5-.9-9.6-2.1a26.6 26.6 0 0 0-5.1-1.1 6.3 6.3 0 0 0-2.5 0 6.1 6.1 0 0 1-3.7 0 13.4 13.4 0 0 0-4.2-.7 31.6 31.6 0 0 0-10.9 2c-2.5.9-5.1 1.5-7.7 2.3s-3 .7-4.2 2a16.4 16.4 0 0 1-3.3 2.7c-1.6 1.1-3.4 2-4.9 3.2a29 29 0 0 0-7.5 8.5 4.5 4.5 0 0 1-.8 1.2 18.6 18.6 0 0 0-4.5 7.1 11.4 11.4 0 0 1-2.6 4.2 12.1 12.1 0 0 0-2.6 3.6 8 8 0 0 1-3.6 3.8c-1.3.8-1.9 2-2.5 3.5a26.1 26.1 0 0 0 2.6 1.2c2.5.9 5.1 1.7 7.7 2.4l8.9 2.2a70.3 70.3 0 0 1 12.6 4.3 116.1 116.1 0 0 0 13.5 4.8 51.3 51.3 0 0 1 11.1 5.2 16.2 16.2 0 0 0 3.9 2.1 14.1 14.1 0 0 1 6.9 4 5.9 5.9 0 0 0 1.5 1.2c2.4 1.2 5 2.1 7.2 3.6a57.5 57.5 0 0 0 5.7 3.3l9.8 4.7a43.1 43.1 0 0 0 5.8 2.1l8.3 2.1a42.7 42.7 0 0 1 5 1.5 25.3 25.3 0 0 1 5 2.5 40 40 0 0 0 8.9 4.8l3 1.2zM713.9 491c1.1.5 1.7.1 1.9-1.1a1.8 1.8 0 0 1 1.7-1.7c2.4-.2 4.9-.2 6.7 1.7s5.9 6.7 8.6 10.1c1.6 1.9 2.8 4.2 4.2 6.2l2.5 3.7a25.9 25.9 0 0 0 2.6 3.4 6.5 6.5 0 0 1 1.6 2.6 37.7 37.7 0 0 0 4.5 9.3l2.6 4 4.9 7.8 2.1 3.4 3.8 6.7.4.3c1.6 1.2 2.2 2.9 2.7 4.6s1.4 5.8 2.5 8.6a5 5 0 0 1-1.1 5.6 1.9 1.9 0 0 0-.5 1.6 5.3 5.3 0 0 1 .5 3.2 1.4 1.4 0 0 0 1.6 1.6 6 6 0 0 0 2.1-.3l6.7-3a2 2 0 0 0 .9-.7 7.1 7.1 0 0 1 3.2-2.7 2.4 2.4 0 0 0 1.2-1.1c.4-1.4 1.5-1.9 2.6-2.6a25.7 25.7 0 0 0 3.2-2.5c1.7-1.5 3.1-3.3 4.9-4.7 4.6-3.6 9-7.5 14.1-10.5l.4-.3c3.3-3.8 7.9-5.8 11.9-8.7s5.3-5 6-9c.3-2.1.7-4.1-.1-6.3a22.9 22.9 0 0 1-.6-4 21.1 21.1 0 0 0-.9-4.2 21 21 0 0 1-1.2-4.6 20.6 20.6 0 0 0-1.3-3.8c-.4-1-.8-1.9-1.1-2.9-1-3.3-1.7-6.6-2.8-9.8a41.2 41.2 0 0 0-3-7.4c-1.1-1.9-2.8-3.5-3.6-5.6a38 38 0 0 0-2.9-5.9c-1.2-2-2.4-4.1-3.5-6.1l-2.2-3.9c-.7-1.2-1.3-2.5-2.1-3.7-2.2-3-4.4-6.1-6.6-9a15.6 15.6 0 0 0-2.6-2.4c-.8-.6-1.7-1.1-2.5-1.8s-4.4-3.9-7.6-4a3.1 3.1 0 0 1-1.5-1.2 2.4 2.4 0 0 0-2.7-.9 8.9 8.9 0 0 0-3.2 1.9c-2.4 1.9-5.3 3.5-7.2 5.9s-6.4 6.6-9.6 9.9a48 48 0 0 1-4.7 3.7c-2.5 2-4.8 4.1-8.1 4.6l-.6.3c-.9 1.1-2.1 1.3-3.4 1.5a23.9 23.9 0 0 0-6.2 2.3 4 4 0 0 1-1.1.5c-3.4.6-5.4 3.3-7.9 5.1s-1.6 2.4-3 2.9a3.3 3.3 0 0 0-.7.9l-1.8 1.8a9.2 9.2 0 0 0-3 4.1c-.7 2.3-1.2 4.3-1.7 6.6zm-65.4-308.5a4.9 4.9 0 0 1 .1 1 4.2 4.2 0 0 0 1.5 3.9 6.9 6.9 0 0 0 3.8.9 62.7 62.7 0 0 0 6.6-.7c3-.4 4.5.8 4.7 3.9a3.3 3.3 0 0 0 1.6 3l2.1 1.3c1.6-.3 2.8-.6 4.1-.8a11 11 0 0 0 3.7-.7c1.7-.8 2.9-.2 3.8 1.6a15.3 15.3 0 0 1 1.4 3.8 4.2 4.2 0 0 0 3.5 3.5 8.9 8.9 0 0 0 3.8.1 6.1 6.1 0 0 1 3.7.5 6.5 6.5 0 0 1 2.9 2.3c.4.6 0 1.8-.3 2.7s.3 3.2 1.5 4.4 1.8 1.2 2.6 1.8 2.6 2 2.1 4.1-.6 4.4-1.9 6.3a2.1 2.1 0 0 0-.5 1.3c.4 2.6-.8 4.8-1.6 7.1a2.7 2.7 0 0 0 0 1.6c.3 1 .7 1.9 1.1 2.9l2.8 1a38.2 38.2 0 0 0 4.7 2.2 50.6 50.6 0 0 0 5.4.8 5.1 5.1 0 0 1 1.9.9c3.6 2.5 7.9 3.1 11.9 4.6s5.7 1.5 8.4 2.5c4.6 1.5 8.5 4.5 13.1 6 3.1 1 5.9 2.7 8.9 4l6.5 2.8c1.4.6 1.6.4 2.3-1a68.1 68.1 0 0 1 4-7.8c2.1-3.2 4.2-6.6 7.6-8.2a8.3 8.3 0 0 1 0-2.7c.9-2.4 2.1-4.6 2.8-7a8.9 8.9 0 0 0 .2-5.8 5.3 5.3 0 0 1-.4-2c0-1.1.3-2.2.4-3.3a45 45 0 0 0-.8-10.7 3.4 3.4 0 0 0-.5-1.7 9.8 9.8 0 0 0-2.7-1.8 2 2 0 0 0-1.8.2c-1.1 1.6-2.9 2.6-3.9 4.4s-3.1 5.7-6.7 6.5a2.1 2.1 0 0 0-.8.8 7.6 7.6 0 0 1-1 1.3 5.1 5.1 0 0 1-1.4.5 4.9 4.9 0 0 1 .1-1.4c.6-1.5 1.3-3 1.9-4.5a47.1 47.1 0 0 1 2-4.3c.8-1.4 1.9-2.7 2.8-4.1s.6-3.8-2.1-4a3.7 3.7 0 0 0-2.8.9c-1.4 1.1-2.9 2.5-4.9 1.7s.6-3.3 1.7-4.5a6.5 6.5 0 0 0-4.3-3.7c-2.4-.6-4.8-1.4-7.2-2.2l-2.3-.8a2 2 0 0 1-1-.5c-1.1-1.8-2.8-1.9-4.6-2s-1.7-.4-2.6-.5c-3.9-.2-7.2-3-11.3-2.5h-.4l-7.1-2.5-1.7-.8-4.9-2.4a26.7 26.7 0 0 1-5.2-2.8 13.5 13.5 0 0 0-4.6-2.4 29.3 29.3 0 0 1-3.8-1.1c-3.4-1.7-6.7-3.5-10-5.3-1.5-.8-2.8-2.2-4.4-2.8s-5.2-1.8-7.8-2.6a1.4 1.4 0 0 1-.7-.2c-1.2-1.7-3.2-2.3-4.9-3.2s-4.7-3.1-7.6-3.6a42.2 42.2 0 0 0-5.1-1c-3-.2-5.5-2.5-8.7-2.2a1.7 1.7 0 0 1-1.1-.4c-1.5-1.2-3.3-1.5-5-2.2l-11.7-4.6-4.2 1.2c-.7.2-1.6.2-1.9.7s-1.7 2.6-1.6 3.8a4.5 4.5 0 0 1-1 3.2 5 5 0 0 0-.8 1.4 18.5 18.5 0 0 1-3.7 7.4 1.9 1.9 0 0 0-.2 2.6 3.8 3.8 0 0 1 .4 3.6c-.1.4-.2.9-.3 1.4a3.1 3.1 0 0 0 3.1.1l4.3-2c2.1-.9 4.3-1.6 6.7-.7a5 5 0 0 1 2.7 1.8c.7 1-.2 1.8-.4 2.7a6.4 6.4 0 0 0-.2 1.2 8.1 8.1 0 0 0-.1 2.1c.3 1.2 1.9 2.1 3.5 1.7a29.7 29.7 0 0 0 5-1.6c2.5-1.7 4.5-2 6.8-.4zm35 209.3l1.9-.5c2.1-.8 4.3-1.7 6.3-2.6a4.8 4.8 0 0 0 2.6-2.6c1.4-3.7 3.1-7.2 4.5-10.9a88.7 88.7 0 0 1 4.8-9.5l2.6-4.8c.9-1.7 1.8-3.3 2.6-5a11.8 11.8 0 0 0 1.5-4.7 1.8 1.8 0 0 0-1.1-2.1 8.3 8.3 0 0 1-4-2.8 4 4 0 0 0-1.3-1 83.4 83.4 0 0 1-11.2-7 19.2 19.2 0 0 0-2.7-1.4l-5-2.5-6.1-2.6a51 51 0 0 1-4.9-2.5l-7-4.4-5.6-3.1c-3.6-2.1-6.5-5.4-10.9-6l-.4-.2c-2.2-1.9-4.9-2.7-7.5-3.8-5-2.1-10-4-14-7.7a5.3 5.3 0 0 0-2.1-1c-2.7-.8-5.3-1.6-7.4-3.5a16.9 16.9 0 0 0-5.8-3.5 4.2 4.2 0 0 1-1.2-.8l-4-3.3c-1.4-1.2-2.3-1-3.8 0a7.2 7.2 0 0 0-2.8 4.7 8.9 8.9 0 0 1-2 4.2 8 8 0 0 0-1.5 2.2c-1.1 2.3-2.4 4.6-3.7 6.9a1.9 1.9 0 0 0 .4 2.5l7.7 7.4c5.1 4.8 9 10.6 14.4 15.2 2.3 1.9 4.1 4.3 6.9 5.8a13.3 13.3 0 0 1 4.7 4.3c1.1 1.7 2.6 3 3.7 4.6s1.4 1.7 2.1 2.6l6.3 9.5.9 1.1a29.5 29.5 0 0 1 4.9 6.1 10.7 10.7 0 0 0 3.6 4.1 35.2 35.2 0 0 1 2.9 2.5 19.5 19.5 0 0 0 2.2 1.4l4.1 2.4a21.5 21.5 0 0 0 2.5 1.7c2 .9 4.1 1.6 6.2 2.3l.8.5a29.4 29.4 0 0 0 6 3.8c2.5 1.1 4.9 2.5 7.4 3.7zm124.7 66h.2l1-1c2.1-2 4.4-3.2 7.4-2.8a18.2 18.2 0 0 0 4.3-.3l3-.6c2.7-.7 5.5-1.1 7.9-2.4 4.5-2.3 8.8-5 13.1-7.6a3.5 3.5 0 0 0 1.5-1.1c.8-1.8 2.5-2.4 4.1-3.3l3.6-1.8a14.9 14.9 0 0 0 4.9-4.7c1.3-1.7 2.6-1.8 3.9-.1a21.4 21.4 0 0 1 2.6 4.7c1.2 2.7 2.2 5.6 3.3 8.3s.3 4.8-1.4 6-2.2.8-3.2 1.4-3.7.6-5.6.7a2.1 2.1 0 0 1-2.1-1.7c-.3-.9.4-1.5 1-2l1.2-.8a1.9 1.9 0 0 0 .8-2.6l-1.7-3.6c-.6-1.3-1-1.4-2.1-.7a4.7 4.7 0 0 0-2.1 3.8c-.1.8-.2 1.6-.3 2.3-.3 2.4-.6 4.7-.8 7.1a2.7 2.7 0 0 0 1.6 3c2.1.8 4.2 1.2 6.4 1.8h.5l6-1.3c1-.3 2-1.1 3-1.2s4.4-.5 6.6-.7a4 4 0 0 0 3.7-3.8c0-2.1-.3-4.3-.2-6.4s-.1-3.8-1.6-5.3-3.5-6.3-4.3-9.8-1.3-5.3-1.8-8.1a20.1 20.1 0 0 1-.2-7.7c.2-1.2.7-2.1 2-2.4a3.3 3.3 0 0 1 3.5 1.5 16.4 16.4 0 0 1 2.3 5.9 42 42 0 0 0 1.1 5.1 48.7 48.7 0 0 1 1.4 4.8 10.7 10.7 0 0 0 2.2 4.9c1.4 1.9 2.8 3.9 3 6.4s1 1.9 2.5 1.3l.9-.4a5.7 5.7 0 0 0 3.4-7.8 48.3 48.3 0 0 0-5.6-10.6c-.8-1.1-1.8-2.1-2.7-3.2s-2.9-4-4.1-6.1a27 27 0 0 1-2.6-5.6 49.1 49.1 0 0 1-1.4-6.9c-.3-1.8.3-2.6 2.1-3.2l1.1-.4a2.7 2.7 0 0 1 4 1.3c.7 1.6 1.8 3 1.7 4.9a5.2 5.2 0 0 0 .8 2.9c2.2 3 2.9 7 6.2 9.2a3.6 3.6 0 0 1 .7.9l2.1 2.9 2.2 3.3c.6 1 1.1 2.1 1.7 3.1a2.1 2.1 0 0 0 1.1 1c.8.1 1.1-.5 1.5-1.2 1.4-2.4.1-4.4-.5-6.6s-3.4-4.9-5-7.4-4.6-6.5-6.5-9.9-4.7-9.2-8.6-12.7c-1.4-1.3-1.7-1.4-3.5-.7l-4.6 1.9-2.1.9c-4.3 2.3-7.7 6.1-12.8 6.9a1.2 1.2 0 0 0-.6.4c-1.3 1.3-3.4 1.3-4.5 3a2.7 2.7 0 0 1-1.1.4l-3 1.3c-4.3 2.2-8.5 4.7-13.2 6a29.7 29.7 0 0 0-4.8 1.9l-6.8 3.7-.9.2-7 1.8a5.9 5.9 0 0 0-2.3 1.2c-1.9 1.8-4.8 2-6.3 4.4a3 3 0 0 1-.7.3c-1.5 1.1-3.1 2.1-4.5 3.4s-2.8 3.1-4.4 4.3a10.4 10.4 0 0 0-2.7 2.6 11.9 11.9 0 0 1-3.9 3.7c-1.4.9-1.5 1.6-.3 2.8s2.1 1.7 3.2 2.5c4.5 3.4 8.4 7.2 10.1 12.8.2.6.6 1.6 2 1.6zm-307.9-20.7l-7.2-1.7c-1-.2-1.5.4-2 1.3a8.5 8.5 0 0 0-.8 5.1 8 8 0 0 1-3.1 7.5l-1.5 1.1c-1.6 1.5-3.2 3.1-4.9 4.5s-2.7 1.4-3.8 2.4a74.8 74.8 0 0 1-10.3 6.7c-2.1 1.3-4.5 2-6.4 3.5s-5.9 3.6-8.9 5.3-5.2 4.2-8.6 4.9a1.8 1.8 0 0 0-.7.6c-3.9 3.9-8.9 6.5-12.6 10.7l-.9.7a19.4 19.4 0 0 0-7.1 7.5 3.8 3.8 0 0 1-1.5 1.8c-2 .8-2.8 2.5-3.8 4.1s-1.6 3.3-2.7 4.7a5.8 5.8 0 0 0-1.3 2.9c-.4 1.9-.6 3.9-1.5 5.5a11.9 11.9 0 0 0-1.5 6.1 14.2 14.2 0 0 1-.5 3.7 18.6 18.6 0 0 0 .5 11.6 38.7 38.7 0 0 1 2.1 6.7 22.9 22.9 0 0 0 2.2 7.2 36.8 36.8 0 0 1 3.4 8.1c.3 1.2.8 2.2 2 2.5s1.9-.9 2.6-1.8 2.3-3.6 3.6-5.2l5.3-6.4c1.1-1.3 2.7-2.4 3.4-3.9s2.8-4 4.3-5.9c2.8-3.5 5.7-6.8 7.9-10.7a33.5 33.5 0 0 1 2.1-2.9l4.6-6.6c1.1-1.6 2-3.6 3.6-4.7s3.7-4 5.2-6.1 3.2-6 4.7-9 2.4-5.4 4.1-7.8 3.4-4.5 4.8-7 3-4.8 4.4-7.3l2.3-3.9c.7-1.1 1.8-2.2 2.1-3.4a11.3 11.3 0 0 1 2.7-5.2 6.8 6.8 0 0 0 1.1-2.4 7.8 7.8 0 0 1 2.4-3.7 3.5 3.5 0 0 0 1.4-1.9 6.7 6.7 0 0 1 1.9-3.7 7.7 7.7 0 0 0 1.9-3.2 18.8 18.8 0 0 1 2-4l3.5-6.9a4.8 4.8 0 0 0-.5-1.4zm66.1-119.9l-1.7 3.3-1.4 3a86 86 0 0 1-4 8.8 14.6 14.6 0 0 0-2 7.4 6 6 0 0 0 2.8 5.2c4.1 3.2 9.1 4.8 13.5 7.3 2.5 1.4 5.1 2.5 7.4 4.1s6.2 4.9 9.3 7.3l8.1 6.5 6.9 5.8 2.8 2.1 6.5 5.2c1 .8 2.2 1.6 2.7 2.7s3.9 2.5 4.3 5a2.6 2.6 0 0 0 .8.5 9.6 9.6 0 0 1 1.7 1.5c1.7 2.3 3.2 4.7 4.9 7a10.8 10.8 0 0 0 2.7 2.9 7.2 7.2 0 0 1 2.9 3.6 7.4 7.4 0 0 0 1 1.6l2.5 3.1c1.6 2.2 3 4.6 4.8 6.7 3.1 3.6 4.7 8.1 6.8 12.2s3.3 8 4.9 12a3.5 3.5 0 0 1 .3.9c.2 1.8.4 3.6.5 5.4s.3 2.6 2.5 2.6 6.1 2 8.1 4.8a20.9 20.9 0 0 1 2.4 6.1 6.6 6.6 0 0 1-1.5 6.3c-.5.7-.8 1.4-1.9 1.6s-2.1 1.6-.8 3.1a9.2 9.2 0 0 1 1.8 2.2c1.1 2.6 2 5.3 3 7.9a5.4 5.4 0 0 0 1.3 2.2 5 5 0 0 1 1.8 3.4c.3 2.4.9 2.8 3.6 2.3a13.4 13.4 0 0 0-.7-7.7c-1.7-4.4-1.9-9.1-2.9-13.6-.6-2.4-.4-4.9-.7-7.3s-.5-7.3-1.7-10.8l-1.5-4.2a12.1 12.1 0 0 1-1-3.6c.1-6-2.2-11-5.5-15.8l-1.2-2c-.7-1.1-1.4-2.1-2.1-3.1s-3.2-3.8-3.7-6.4a6.5 6.5 0 0 0-1-1.9l-4.4-7.5c-1.1-1.8-2.3-3.6-3.4-5.4l-4.2-6.6-2.5-3.7c-1.6-2.3-3.1-4.6-4.8-6.8s-3.5-6.1-5.6-8.9c-3.4-4.4-7.1-8.4-10-13.2-1.6-2.6-4.1-4.6-6-7s-4.3-4-6.1-6.5a54.2 54.2 0 0 0-5.7-5.8 16 16 0 0 0-1.7-1.3l-1.6-1.3a78.2 78.2 0 0 0-7.3-6.7 94.9 94.9 0 0 1-7.2-6.4c-.8-.7-1.6-1.9-2.5-2.1s-3.8-1.6-5.7-2.3a10.3 10.3 0 0 1-2.5-1.8c-1.5-1.1-2.9-2.4-4.4-3.4a5.2 5.2 0 0 0-1.8-.5zm250.1-111.5l.3.2.4-.6a4.6 4.6 0 0 0 .9-3.6c-.2-1.3-1.4-1.4-2.3-1.7l-.6-.4c-3.1-1.3-6.4-1.4-9.6-2.2a4 4 0 0 0-.9.3c-2.1.2-4.2.8-6.1.3s-6.9-.4-10.2-1.9-6.6-2.1-9.9-3.1l-.9-.3c-1.6-.5-3.3-1.1-4.9-1.5-3.3-.8-6.5-1.6-9.3-3.5a19.2 19.2 0 0 0-2.9-1.5c-1.9-.9-4-1.4-5.6-2.6a23.3 23.3 0 0 0-6.5-3.2l-2.5-.8-8.4-3.2h-.7c-1.9-.5-3.8-.9-5.7-1.6s-5.4-1.7-7.7-3.4l-.6-.4-10.3-5.4-5.8-3.3-4.7-2.8c-2-1.2-3.9-2.6-6-3.8s-3.9-1.8-5.8-2.7-1.7-1.3-2.6-1.6c-3.2-.8-6-2.6-9.3-3.3a49.1 49.1 0 0 1-11.4-4c-1.9-1-4-2.2-6.5-1.7a5.2 5.2 0 0 1-2.3-.5 79 79 0 0 0-9.5-2.8c-1.6-.3-3.1-1.1-4.7-1.6s-3.9-.8-5.7-1.4-5.7-2.2-8.7-3.1a34.4 34.4 0 0 1-10.5-5.4l-2.2-1.3c-3.1-1.7-6.4-2.8-9-5.2a9.1 9.1 0 0 0-1.9-1 5.4 5.4 0 0 0-.1 1.3 26.6 26.6 0 0 0 3.4 9 24.8 24.8 0 0 0 6.5 6.2c3.2 2.3 6.6 4.3 9.9 6.4a5 5 0 0 0 1.4.4 47.7 47.7 0 0 1 11.7 4.4 30.3 30.3 0 0 0 3.2 1.4l2.8 1.2c1.2.5 2.4 1.2 3.6 1.7s2.3.6 3.4.9a60.5 60.5 0 0 0 5.8 1.9 37.1 37.1 0 0 1 10.3 3.4c1.8 1 3.8 1.9 5.7 2.8a13.4 13.4 0 0 1 2.6 1c2.9 2.3 6.7 2.8 9.8 4.8a53.8 53.8 0 0 0 6.6 3.2c2.6 1.2 5.1 2.8 7.9 3.8a49.8 49.8 0 0 1 10.3 4.8 56.2 56.2 0 0 0 6.7 3.7c2.2 1.1 4.5 1.9 6.8 2.8l2 .7 11.5 2.7a14.3 14.3 0 0 1 4 1.2 22.7 22.7 0 0 0 5.7 2.1 61.9 61.9 0 0 1 11.6 4.7c3.2 1.7 6.5 3.3 9.9 4.7s6.5 2.3 9.5 3.9a26.8 26.8 0 0 0 10.9 2.7c2.2.1 4.5.1 6.5 1.1a3 3 0 0 0 1.4.2l9.3-.5a7.6 7.6 0 0 0 1.8-.5zM682.9 463.5c1.6-1.7 2.8-3.1 4.2-4.4s4.7-4.1 6.9-6.4a13.2 13.2 0 0 0 2-3.7c.5-1 .6-2.1 1.1-3.1a3.8 3.8 0 0 0-.2-4.1 22.7 22.7 0 0 0-8.3-7.2c-2.9-1.5-3.7-3.5-2.8-6.6s2.4-6.4 2.1-10c-.1-1.2.9-2.6 1.4-3.9l.8-2.1a3.6 3.6 0 0 1-3.7-3.1c-.6-2.3-.9-4.6-1.3-7s-.4-3.2-.6-5a28.6 28.6 0 0 0-3.6.3 9.7 9.7 0 0 1-5.7-.8 13.1 13.1 0 0 1-5.4-3.4 2.1 2.1 0 0 0-1.2-.7 9.4 9.4 0 0 1-5.3-2.5 4.6 4.6 0 0 0-1.4-.6 1.2 1.2 0 0 0-.5 1.9 16.6 16.6 0 0 1 2 3.5 24.2 24.2 0 0 0 3.1 6.1c3.9 6.1 6.5 12.9 9.3 19.5a20.1 20.1 0 0 1 .6 2.5 22.9 22.9 0 0 0 1.3 4.5 34.5 34.5 0 0 1 4.2 16.3c-.1 2.5-.2 4.9-.3 7.4s.2 2.4.3 3.6 0 4.9.1 7.4a5.4 5.4 0 0 0 .9 1.6zm102.4-160.4l5.4-1.7a3.5 3.5 0 0 0 1.2-1.1 14.1 14.1 0 0 0 3.3-7.8c.5-3.2-2.3-7.2-5.2-7.9a51.1 51.1 0 0 1-9.8-3.4 4.9 4.9 0 0 0-6.1 1.3l-1.4 1.9c-1.5 1.9-2.9 3.9-5.7 3.7a2.8 2.8 0 0 0-1.1.3c-2.6 1.1-2.9 3.3-.9 5.1a4 4 0 0 0 1.4 1c2.3.6 4.1 2 6.1 3.1s5.8 2.9 8.7 4.2a33.2 33.2 0 0 0 4.1 1.3zm167.2 341.4c-.3-1.2-.7-2.7-1.2-4.1a14.1 14.1 0 0 0-7.7-8.3 7.8 7.8 0 0 0-2.7-.6c-3.8-.4-7 1.4-10.2 3a3.7 3.7 0 0 0-2 4 8.8 8.8 0 0 1-.3 3 6.2 6.2 0 0 0 1.5 6.4c.6.6 1.1 1.4 1.7 2 2.4 2.6 5 4.7 8.6 5.4a2.3 2.3 0 0 0 2.7-.9 7.4 7.4 0 0 1 5-3.3 5.2 5.2 0 0 0 4.1-3.2 27 27 0 0 0 .5-3.4zm-39.8-223.7a1 1 0 0 0-.2.4c.1 3.4-.5 6.4-3.1 8.9a2.6 2.6 0 0 0-.6 2.1 56.4 56.4 0 0 1 1.4 9.8c.1 1.1-.1 2.2 0 3.3a30 30 0 0 1 .3 6.5 9.3 9.3 0 0 0 .6 4.4c1.1 2.6 3.3 4.5 5.2 6.6a1.3 1.3 0 0 0 2.3-.5 5.2 5.2 0 0 0 .1-4.2 9.3 9.3 0 0 1-.2-5.6 15.9 15.9 0 0 0 .5-2.7c.1-3.1.2-6.3 0-9.4s-.6-6-1.1-8.9a40.5 40.5 0 0 0-1.3-5.5c-.6-2.2-1-4.7-3.9-5.2zm-24.3 32.5c-1 1.1-1.9 2.1-2.7 3.1s-.2 1.5.8 2a4.7 4.7 0 0 1 1.9 1.2c.9 1.7 2.5 2.6 3.8 3.9a17.7 17.7 0 0 1 2.8 3.2 4.8 4.8 0 0 0 3.4 2.2l2.8.3a3.6 3.6 0 0 0 3.5-2c.9-1.6.4-3.2.4-4.8a2.1 2.1 0 0 0-1.6-2.3l-7.9-2.4a9.4 9.4 0 0 1-2.4-.9c-1.5-.9-2.9-2.1-4.8-3.5zM773.8 255.9a45.7 45.7 0 0 1-2.7 6.4 12.2 12.2 0 0 0-1.7 6.6 12.7 12.7 0 0 1-1.3 6.4 1.2 1.2 0 0 0 .5 1.8 16.4 16.4 0 0 0 .6-1.8c.1-.5 0-1.1.2-1.7.6-2.2 1-3.7 3.3-3.7s3.5-.3 4-2.9 1.3-3.2 1-5.1a4 4 0 0 1 .3-2.1c.7-1.7.1-3.2-.3-5.1zM655.4 468.5a3.1 3.1 0 0 0 1.2 0 22 22 0 0 0 4.5-3.4c.6-.7 0-2.3 0-3.4s-1.3-3.2-2.9-4.3-4.3-1.6-7-.7c.9 2 1.9 3.7 2.5 5.6s1.2 4.1 1.7 6.2zM904.3 453c-.1-1.2 0-2.3-.5-3.1a8.9 8.9 0 0 1-.9-4.1c-.1-1.4.2-3-1-4.4l-1.6 1.1c-1.2 1-2.4 2-3.7 2.9s-1.7 1.1-1 2.8 4.4 4.8 8.7 4.8zm-388.9-44.1l-.4-.3h-.5a8.1 8.1 0 0 0-4.4 4c-1.3 2.8-1.3 6-2.2 8.9a8.5 8.5 0 0 0 0 2.2 47.2 47.2 0 0 0 7.5-14.8zM633.2 506h-.9a69.1 69.1 0 0 0-13.1 3.2c-1.3.4-2.9 1-3 2.9 3.9.2 14.5-3.4 17-6.1zm211.4-49.9l.9-3.7c.2-.9-.4-1.9-1.1-1.6a44.5 44.5 0 0 0-5.3 2.1 15.8 15.8 0 0 0-2.5 1.7c-.7.5-1.7 1-1.1 2.4zm-185.7 48.8l.6.5 1.7-2.1 3-4.2 2.5-3.2c-.8-1.3-1.3-2.4-2-3.3a2.4 2.4 0 0 0-1.3-1.1 5.3 5.3 0 0 0-2.1 1.4 1.2 1.2 0 0 0 .3 1.9 2.7 2.7 0 0 1 .8 2.9 29.3 29.3 0 0 1-1.9 4.3c-.4 1-1.1 2-1.6 2.9zM233.2 763.7a34.9 34.9 0 0 0-2.1-3.9c-.9-1.2-1.9-1.1-3.6 0s-1 1.1-.4 2.6 1.8 1.9 2.9 2.6zm412.2-244.4l-.5-.4-4 3.2a26.2 26.2 0 0 0-2.4 1.5c-1.9 1.8-3.7 3.7-5.6 5.5-.4.4-1.1.8-.4 1.6 2.3-2.2 5.5-3.2 7.5-5.7l1.6-1.7zm129.8 496.4l-.4-.5a17.4 17.4 0 0 0-2 1.8c-2 2.4-3.5 5.3-7.1 5.9a1.3 1.3 0 0 0-.7.6l-2.4 3.8h.6a14.1 14.1 0 0 1 5.2-3.9 1.4 1.4 0 0 0 .7-.6c1-2.4 3.3-3.2 5.4-4.6zM656.6 476.8c-1.2.7-.8 1.4-.3 2.1a1.5 1.5 0 0 0 2.4.6zm-10 40.6l.4.6 4-2.9a5.1 5.1 0 0 0 .7-1.1c-2.8.1-3.2 2.7-5.1 3.4zm-12.1-12.1c2.2.4 3-1 3.8-2.2zm123.3 526.5c1.3.3 1.5-.3 1.5-1.1l-.4-.4zm250.6-405.4l-1 1.5c-1.1 1.5-2.2 2.1-3.3 1.6s-1.8-1.8-1.4-3.7.3-1.7.4-2.5c.5-2.5-1.2-4.2-2.6-5.9-2.6-3.3-2.4-4.3 1.6-5.3a3.9 3.9 0 0 1 4.9 2.6c.4 1 .9 2.1 1.4 3.1v8.6z"/><path d="M832.5 574.4a5.9 5.9 0 0 1 0-2.1c1.4-3.6 3-7.1 4.5-10.7s2.8-6.4 3.5-9.8a15.9 15.9 0 0 1 1.2-3.4c1.4-3.2 3-6.3 4.3-9.5s3.1-8 4.6-12a10.8 10.8 0 0 0 .4-1.9 2.9 2.9 0 0 1 .2-1.2c2.2-2.7 2.5-6.1 3.7-9.2s1.9-5.1 2.9-7.7 1.5-4.3 2.3-6.4 1.6-3.8 2.3-5.7 1.9-4 2.2-6.3a4.5 4.5 0 0 1 3-3.7c2.1-.8 3.2.1 2.8 2.3s-1 4.8-1.4 7.2a40.5 40.5 0 0 1-.7 4.2 12.9 12.9 0 0 1-1.9 4.3 10.2 10.2 0 0 0-1.2 3.8 10.7 10.7 0 0 1-1.9 4.8c-1.5 1.8-1.7 4.2-2.3 6.4a34.4 34.4 0 0 1-3.5 8.2 15.4 15.4 0 0 0-1.8 4.1 85.6 85.6 0 0 1-4 11.8 32.4 32.4 0 0 1-3.2 5.8 2.6 2.6 0 0 0-.5 1.1c-.5 5-3.4 9-5.5 13.3l-1.2 2.5c-1.2 2.2-2.3 4.5-3.5 6.7s-3.2 3.3-5.3 3.1zm101.9-79.6a3.6 3.6 0 0 1 0 1.4c-1.2 2.4.1 4.2 1.2 6.1a39.8 39.8 0 0 1 2.7 6.1c1.2 3.3 2.1 6.7 3.4 10s1.4 5.7 2 8.5.8 3.9 1.4 5.8a19.4 19.4 0 0 0 2.2 4.7c1.6 2.4 2 5.1 2.6 7.8s.8 4.8 2.4 6.8a6 6 0 0 1 .8 5.4c-.5 1.9-1.8 2.4-3.4 1.1a3.1 3.1 0 0 1-1.4-2.7 3.7 3.7 0 0 0-.9-2.6 18.7 18.7 0 0 1-1.4-2.5c-.8-1.5-1.6-2.9-2.3-4.4s-1-3.2-1.6-4.7-1.3-2.5-1.9-3.7a23.7 23.7 0 0 1-2.7-8.3c-.1-1 0-1.9 0-2.9a8.7 8.7 0 0 0-1.2-4.7 18.1 18.1 0 0 1-2.3-6.9 1.6 1.6 0 0 0-.2-.9c-1.7-1.6-1.7-3.8-2.2-5.9s-.9-2.4-1.2-3.6c-.9-3.5-1.7-6.9-2.5-10.4a7.2 7.2 0 0 1-.1-1.2c-.1-2.2.2-3.2 1.3-3.4s4 0 4.9 1.9a16.4 16.4 0 0 1 .8 3.2h-.3zm22 13.1a14.6 14.6 0 0 1 1.2 2.3c.9 2.9 2.8 5.3 4.6 7.7a18.6 18.6 0 0 1 3.9 9 20.4 20.4 0 0 0 2.6 7.3 42.6 42.6 0 0 1 2.8 6.3c1.2 3.3 1.8 6.8 3.8 9.9 1 1.5 1.9 3.1 3 4.5a15.6 15.6 0 0 1 2.7 7.2l-1.6 1.4a10.8 10.8 0 0 1-2.5-1.8c-2.3-3.1-5-6.1-6.5-9.6s-4.1-7.1-5-11.2c-.4-1.8-1.7-3.4-2-5.3a32 32 0 0 0-.7-4.5 29.7 29.7 0 0 0-1.6-3.9l-.4-.6-3.1-9a14.2 14.2 0 0 0-.7-1.7 8.9 8.9 0 0 1-.9-6.2 8.3 8.3 0 0 0 0-1.8h.5zm-64.2 48.7a24.5 24.5 0 0 0-.5-3.4 5 5 0 0 1 .1-3.5 3.4 3.4 0 0 0 .3-2.2c-1.3-3.3-1-6.7-.6-9.9a99.4 99.4 0 0 0 .7-11.6c0-1.5.4-3 .5-4.5a9.6 9.6 0 0 0 0-3.8c-.8-2.2-.4-4.4-.4-6.6a3.6 3.6 0 0 1 3-3.4l1.9-.6a2.4 2.4 0 0 1 .4 1c-.3 2.4.3 4.9-.7 7.3a3.6 3.6 0 0 0 .7 4 3.8 3.8 0 0 1 .8 2.6 59.3 59.3 0 0 1-1 6.3c-.7 3.6-1.7 7.1-2.2 10.7-.3 1.9.3 3.8-.5 5.6 1 2.4.3 4.9.4 7.3a23.3 23.3 0 0 1 0 3.1c-.2 2.4-1 2.8-2.9 1.6zm-23.3 5.6a6.1 6.1 0 0 0 .4-2c-.6-3.9.5-7.7.8-11.5s1.6-6.6 2-10 2.1-9.1 2-13.8a16.9 16.9 0 0 1 .9-4.2l.8-3.2a25.9 25.9 0 0 1 3.3-1.3 1.7 1.7 0 0 1 2.2 2.2c-.3 1.9-.6 3.9-1 5.8a11.2 11.2 0 0 1-1 3.2c-1.5 2.7-2.6 5.4-2.4 8.5a1.7 1.7 0 0 1-.1.9c-1.3 2-1.1 4.3-1.3 6.5a3.2 3.2 0 0 1-.3 1.4 10.5 10.5 0 0 0-1.6 4.9c-.1 1.3-1 2.5-1.4 3.7s-1.4 5.3-2.1 8a2.9 2.9 0 0 1-1.2.9zm75.5-86.3a4.5 4.5 0 0 1 3.5 2.9 56.6 56.6 0 0 1 2.3 8.4 41.4 41.4 0 0 0 1.2 6c.7 2.1 1.3 4.2 2.1 6.3a26.5 26.5 0 0 0 1.7 3.6c.9 1.7 1.1 2.6 0 3.7s-1.5 1.2-1.9 1-1.8-1.3-1.8-1.9c.1-2.3-.9-3.9-2-5.7s-.8-2.9-1.2-4.3-1.2-3.9-2-5.8-1.9-4.2-2.8-6.2-1.3-2.7-1.9-4.1.2-4 2.8-3.9zm-39.3 183c-2.1-.3-3.5-.9-3.8-2.7a3.4 3.4 0 0 0-.4-1.1c-2.8-4.5-3.1-9.2-2.1-14.4.5-2.4 1.1-4.4 3.1-5.8a20.9 20.9 0 0 1 3.6-1.8 1.5 1.5 0 0 1 2 .8 4 4 0 0 1-.3 2 .8.8 0 0 1-.3.3 8 8 0 0 0-3.2 7 40.6 40.6 0 0 0 .9 8c.3 1.2 1.4 2.3 2.2 3.3a2.3 2.3 0 0 1 .5 2.8 3 3 0 0 1-2.2 1.6zm-47.6-12.7l-1.6 2.2c-1.3 1.6-3 1.3-4.5.5a10.8 10.8 0 0 1-4.6-4.1 13.9 13.9 0 0 1-2.2-6.2 7 7 0 0 1 1.1-4 14.8 14.8 0 0 1 5.5-4.9 6.1 6.1 0 0 1 4.2-.4 30.1 30.1 0 0 0-4.5 5.5 3.4 3.4 0 0 0-.4 3.1 9.7 9.7 0 0 0 5.6 6.9 7.2 7.2 0 0 1 1.4 1.4zm122.8-4.4l-2.5-2.2c.6-1.9 1.4-3.8 1.8-5.6a6.9 6.9 0 0 0-1.6-6.2 6.5 6.5 0 0 1-1.3-2.4 2.3 2.3 0 0 1 1.1-2.6 2.7 2.7 0 0 1 2.9 0c3 1.3 3.4 3.9 3.8 6.6a18.8 18.8 0 0 1 .3 2.8c0 3.7-.9 7.2-4.5 9.6zm-96-5.1l-.8 1a6.8 6.8 0 0 0-2.8 5.8c0 2 .1 4.1-.1 6.1a2 2 0 0 1-2.2 2 1.2 1.2 0 0 1-.9-.2c-1-1.6-3.1-2.5-3.3-4.6s-.6-3.4.4-5.1a6.8 6.8 0 0 0 .7-1.5 4 4 0 0 1 3-2.7 13.2 13.2 0 0 1 6-.8zm-52.2-12.3l-1.6 3.6c-.3.6-.7 1.2-1 1.9a6 6 0 0 0 1.5 6.9c1.3 1.4 1.3 2.6 0 3.4a2.7 2.7 0 0 1-2.2.4 9 9 0 0 1-5.2-8.1c.2-3.9 2.6-6.5 5.8-8.4a6 6 0 0 1 2.3-.2zm-29.3.7c.3-5 2.1-8.2 6-9.9a1.6 1.6 0 0 1 1.5.1 1.9 1.9 0 0 1 .3 1.7c-1.3 1.9-1 3.8-1 5.9a34 34 0 0 0 .5 4.6c.1.8.3 1.8-.7 2.3s-2 .8-3.1 0-3.9-2.8-3.5-4.7zm91.7-57.4a9 9 0 0 1 1.1 4.7c0 1.7-.2 3.5-.3 5.2s.1 3 .2 4.5a4.2 4.2 0 0 1 0 1.2c-.2 1-.6 2-1.8 1.9s-1.4-1.1-1.5-2.1-.3-1.9-.4-2.8-.6-2.6.3-3.9.1-1.6.2-2.3a42.9 42.9 0 0 1 .8-4.6 6 6 0 0 1 1.4-1.8zm-34 41.2c-1.2-1.9-1.8-3.3-.9-5.1a7.4 7.4 0 0 0 .2-2.6 5.1 5.1 0 0 1 3.6-4.8c1.6-.6 2.9.4 2.4 2s-2.1 5.6-3.3 8.4a10.2 10.2 0 0 1-2 2.1zM822 597.3c1.1-3.4 2.2-6.5 5.4-8.5a1.9 1.9 0 0 1 2.5.5 1.4 1.4 0 0 1-.3 2.3 4.8 4.8 0 0 0-1.5 2.5 15.8 15.8 0 0 1-2.1 3.3c-.3.4-.8.6-1.1.9s-1 1.4-1.7.9a5.4 5.4 0 0 1-1.2-1.9zm136.6-6.7c0-2.4 1.8-4 3.9-3.6a2.8 2.8 0 0 1 1.7 1.3 5.2 5.2 0 0 1-1.7 6.9c-1.5 1-3.1.5-3.4-1.3s-.4-2.3-.5-3.3zm31.2 10c-.3-2.5-1.8-4.6-1.4-7 1.4-.7 2.4 1.6 3.4-.2.6 1.3 1.2 2.5 1.8 3.7a2.2 2.2 0 0 1-.3 2.5 2.8 2.8 0 0 1-3.5 1zm-93.7 1.2c.6 1.6 1.1 2.9 1.7 4.2s-.1 1.9-.8 2.4-1.4.3-2.1-.3-1.8-1.2-1.7-2.6a2.2 2.2 0 0 1 1.1-2.2 14.8 14.8 0 0 0 1.8-1.5zm-.9-42.8c-.2 1.5.5 3.1-1 4.4-1.2-1-2.3-1.9-1.8-3.5s1.4-1.5 2.8-.9zm-26.3 3.2l.5 2.8c-1.8-.8-.4-1.9-.5-2.8zm-415 120l-.8 4.6c-.4 2.1-1.8 3.5-3 5.1s-1.4 1.5-1.4 2.7a2.7 2.7 0 0 1-1 1.6 17.5 17.5 0 0 0-4.9 9 3.1 3.1 0 0 0-.1 1.4 19.4 19.4 0 0 0 6.7 10.6 35.2 35.2 0 0 1 3.2 2.8c1.9 2 4.4 3.1 6.7 4.4s6.4 4 9.7 5.9a29.2 29.2 0 0 0 4.3 1.8l4.2 1.5c4.2 1.6 8.4 3 12.6 4.8s8.1 2.1 12.1 2.9 6.1 1.2 9 2 4.8 1.7 7.2 2.3a24.4 24.4 0 0 0 6.3 1.2 41.9 41.9 0 0 0 8-1 5.4 5.4 0 0 0 2.3-1.7 22.7 22.7 0 0 1 2-2.4c2.9-2.2 4.2-5.6 6-8.5.5-.8 1.2-1.5 1.7-2.2a57.2 57.2 0 0 0 4.8-10 48 48 0 0 1 3.3-6.7 5.1 5.1 0 0 1 2.8-1.7c1-.3 2.5 1.4 2.1 2.5a25.6 25.6 0 0 1-1.6 3.7 4.3 4.3 0 0 0-.8 1.6c.2 3-1 5.7-1.6 8.6a4.1 4.1 0 0 1-.7 2c-1.5 1.5-2.1 3.3-3 5.1s-3.5 5.5-5.1 8.3a24 24 0 0 1-6 6.4 5.4 5.4 0 0 1-3.1 1.1 25.3 25.3 0 0 0-6 1.1 8.1 8.1 0 0 1-3.9.4c-2.7-.3-5.4 0-8.1-.2a76.4 76.4 0 0 1-8.2-1.4 69.6 69.6 0 0 1-10.6-3.1 8.8 8.8 0 0 0-3.4-.2c-2.6.2-4.7-1.5-7.1-1.8s-7-3.1-10.8-4c-5.3-1.3-10.2-3.8-15.3-5.5a3.4 3.4 0 0 1-1.4-.9 16.7 16.7 0 0 0-4.6-3.3 81 81 0 0 1-13.8-8.7 43.7 43.7 0 0 1-6.3-5.8 15.9 15.9 0 0 1-3.6-10c-.1-2.3 1.3-3.9 2.7-5.4s2-3.7 4-4.6a3.3 3.3 0 0 0 .4-1.1 28.5 28.5 0 0 1 1.6-2.9c1.4-2.1 3-4 4.2-6.2s.4-2.3.6-3.5a6.8 6.8 0 0 1 .3-1.6c1.8-3.7 5-4.1 7.4-1zm217.4-444.5c-1.7-2.5-4.3-2.7-6.6-3.3h-1.2c-.8-.1-1.8-.1-1.8-1.1a2.6 2.6 0 0 1 1.3-1.8c2.2-1.1 4.4-2 7-1.2s3.7.2 5.1 1.7a49.2 49.2 0 0 1 3.5 4.1 1.6 1.6 0 0 1 .2 1.4c-.9 1.7-1.5 3.9-3.8 4.2s-2.7 1.9-3.4 3.3a3.3 3.3 0 0 0 .5 2.4c1 2 2.4 3.5 5 3a1.9 1.9 0 0 1 1.6 1 2.4 2.4 0 0 1-.5 2.1 19.8 19.8 0 0 1-4.2 2.3 4.8 4.8 0 0 1-5-1.5 15.1 15.1 0 0 0-2-2 7.1 7.1 0 0 1-1.9-7.9c.9-2.2 2.6-3.6 4.3-5z"/>
</g>

</svg>
