<?xml version="1.0" encoding="utf-8"?>
<!DOCTYPE svg PUBLIC "-//W3C//DTD SVG 1.1//EN" "http://www.w3.org/Graphics/SVG/1.1/DTD/svg11.dtd">
<svg xmlns="http://www.w3.org/2000/svg" viewBox="0 -0.1 95.508 98" overflow="visible">
<path fill="#2F3E51" d="M92.651,51.812c0,25.351-20.549,45.898-45.897,45.898S0.852,77.161,0.852,51.812
	c0-25.351,20.555-45.899,45.903-45.899S92.651,26.461,92.651,51.812L92.651,51.812z"/>
<path fill="#B5AC5A" d="M48.838,1.622c0.984,0,1.969,0.031,2.953,0.097c2.959,0.19,5.906,0.677,8.766,1.45
	c1.437,0.372,2.789,0.841,3.926,1.248l1.847,0.727l0.791,0.36l1.336-0.17l1.522-0.057l0.797,0.01L70.87,5.29l0.731,0.044
	l0.064,0.006c-1.828-1.04-3.803-1.913-5.889-2.616c-2.807-0.942-5.807-1.563-8.918-1.84c-3.006-0.272-6.142-0.223-9.323,0.146
	c-2.496,0.286-5.027,0.772-7.547,1.449c0.732-0.135,1.471-0.258,2.215-0.369C44.391,1.786,46.611,1.622,48.838,1.622L48.838,1.622z
	 M67.025,6.24l-1.118,0.226l-1.103,0.331l-0.926,0.36l-0.732,0.375c-0.639,0.39-0.896,0.715-0.932,0.885l0.023,0.097l0.779,0.343
	L63.891,9l0.567,0.053l0.353,0.029l0.315,0.025c0.476,0.038,0.996,0.064,1.604,0.082l0.076,0.003
	c0.568,0.035,1.219,0.076,1.939,0.105l0.863,0.052l0.316,0.023l1.74,0.129l0.955,0.103l0.527,0.057l0.094,0.009l-0.92-0.602
	l-0.539-0.331l-1.635-0.951l-1.98-1.025L67.025,6.24L67.025,6.24z M81.088,15.262l0.932,0.381c-1.846-3.482-4.733-6.633-8.379-9.088
	l-0.469-0.311l-0.047-0.003L71.532,6.04l-0.687-0.041h-0.088l-0.773-0.013L68.52,6.04l-0.176,0.02l0.146,0.063l2.01,1.046
	l1.641,0.958l0.574,0.352l1.676,1.103l0.41,0.293l1.383,0.75l0.398,0.397l0.357,0.419l0.11,0.142l0.498,0.403l0.177,0.146
	l0.34,0.281l1.576,1.418l1.418,1.399L81.088,15.262L81.088,15.262z M83.116,16.235l0.844,0.586l0.069-1.084
	c-0.022-0.92-0.239-1.856-0.633-2.776l-0.721-1.267l-0.439-0.614l-0.457-0.517l-0.047-0.05L80.59,9.438l-1.307-0.926L78.581,8.09
	l-0.563-0.293l-0.17-0.079l-1.529-0.653l-1.289-0.4C78.616,9.297,81.404,12.611,83.116,16.235L83.116,16.235z M82.301,16.581
	l0.311,0.34l0.07,0.076l-0.123-0.268L82.301,16.581L82.301,16.581z M83.654,17.48l0.111,0.299l0.047-0.17L83.654,17.48L83.654,17.48
	z M84.182,18.819c1.582,1.926,3.029,3.99,4.295,6.139l0.041,0.076l-0.393-1.088c-0.27-0.649-0.533-1.251-0.809-1.821
	c-0.316-0.589-0.65-1.16-0.99-1.699c-0.574-0.867-1.219-1.638-1.916-2.294L84.182,18.819L84.182,18.819z M4.77,30.494l-0.61,1.435
	l-0.105,0.252l-0.146,0.343l0.047-0.034l1.102-0.974l0.492-0.523l0.24-0.278l0.246-0.278l0.867-1.157l0.205-0.311l0.223-0.322
	l0.398-0.627l0.24-0.416c0.434-0.75,0.879-1.522,1.277-2.347l0.012-0.019l0.773-1.474l0.188-0.384l0.135-0.249l0.076-0.141
	l0.82-1.56l0.275-0.486l0.176-0.305l0.691-1.213l0.252-0.39l0.264-0.419l0.762-1.166l0.311-0.435l-0.023,0.023l-0.188,0.188
	l-0.346,0.36l-1.33,1.465l-0.152,0.179l-0.088,0.111l-1.002,1.213l-0.088,0.111l-0.152,0.185L9.434,22.42l-0.322,0.457l-0.117,0.179
	l-0.879,1.298l-0.258,0.413L7.706,25.01l-0.809,1.336l-0.492,0.891L6.152,27.71l-0.375,0.68L4.77,30.494L4.77,30.494z M3.791,32.837
	L3.598,33.37l-0.182,0.501l-0.205,0.557l0.041-0.029l0.059-0.034l0.797-0.76l-0.223-0.636L3.791,32.837L3.791,32.837z
	 M90.809,31.276l0.117,0.599c0.234,1.216,0.463,2.36,0.732,3.482c0.135,0.643,0.287,1.223,0.469,1.784
	c0.164,0.558,0.346,1.151,0.58,1.727l0.363,0.853l0.387,0.82l0.047,0.091c-0.492-2.795-1.254-5.563-2.279-8.291L90.809,31.276
	L90.809,31.276z M90.211,49.429l-0.369,0.047l-0.99,0.916L88.723,50.8l-0.082,0.504l0.082,1.207l0.041,0.188l0.129,0.547
	l0.265,0.801l0.393,0.891l0.476,0.984l0.608,1.072l0.353,0.586l0.369,0.598c0.41,0.652,0.901,1.361,1.418,2.111l0.117,0.174
	l0.047-0.156c0.135-0.594,0.258-1.186,0.356-1.77l0.069-0.418l0.029-0.271l0.012-0.129l0.064-0.789l0.035-0.75v-0.686l-0.111-1.302
	c-0.088-0.846-0.311-1.549-0.492-2.073l-0.34-0.793l-0.393-0.638l-0.832-0.856L90.211,49.429L90.211,49.429z M88.125,62.993
	l0.018,0.053c0.047,0.146,0.246,0.481,1.043,1.125c0.451,0.365,1.021,0.768,1.658,1.174l0.275-0.691l0.141-0.346l0.111-0.276
	l-0.275-0.687l0.223-0.416C88.564,62.632,88.178,62.919,88.125,62.993L88.125,62.993z M91.559,65.794
	c1.576,0.942,2.767,1.44,3.229,1.483l-0.24-0.368l-0.979-1.039c-0.393-0.367-0.879-0.777-1.446-1.226L91.559,65.794L91.559,65.794z
	 M88.829,70.718l-0.022,0.035c-0.64,1.008-1.308,2.004-2.011,2.979l0.142-0.141l0.492-0.572l0.229-0.293l0.205-0.311l0.773-1.314
	L88.829,70.718L88.829,70.718z M4.313,67.161l0.814,1.78l0.059,0.127l0.105,0.214l0.914,1.745l0.299,0.533l0.48,0.813
	c0.387,0.688,0.832,1.348,1.26,1.992l0.434,0.651l0.621,0.844l0.305,0.416l0.469,0.634l0.322,0.393l0.146,0.18
	c-0.574-0.891-1.125-1.815-1.646-2.771c-1.512-2.865-2.643-5.875-3.369-8.951c-0.363-1.49-0.574-2.914-0.715-3.986l-0.182-1.844
	L4.57,58.64l-0.012-0.463l-0.006-1.4l0.029-1.411L4.6,55.097l0.012-0.125l0.053-0.69c0.059-0.742,0.111-1.445,0.211-2.121
	l0.158-1.265l0.199-1.174l0.17-1.084V48.62l0.193-1.015l0.152-0.939l0.07-0.396l0.088-0.501l0.111-0.812l0.035-0.381l0.041-0.41
	c0.094-0.858,0.053-1.727-0.123-2.644L5.578,40.37l-0.041-0.095l-0.24-0.479l-0.352-0.574L4.007,38.05L3.41,37.434l-0.656-0.633
	l-0.012-0.009l-0.205-0.229l-0.012,0.023L2.39,37.058l-0.193,0.756L2.062,38.33l-0.246,0.996L1.512,40.85L1.459,41.12l-0.094,0.485
	l-0.34,2.31l-0.217,2.329l-0.023,0.498L0.709,48.57l0.006,1.02v0.531l0.006,0.334l0.041,1.203l0.1,1.569l0.07,0.763l0.229,1.938
	l0.393,2.303L2.07,60.52l0.064,0.234l0.563,2.012l0.75,2.219L4.313,67.161L4.313,67.161z M23.402,89.062
	c1.682,1.045,3.439,1.959,5.25,2.736c0.744,0.342,1.518,0.627,2.268,0.902l0.691,0.258l1.008,0.322l0.486,0.151l0.756,0.23
	l0.486,0.127l0.264,0.065l0.158,0.039l-1.348-0.563l-1.225-0.545l-0.645-0.279l-0.445-0.195l-0.949-0.381l-0.809-0.313
	c-0.92-0.359-1.471-0.494-1.477-0.494l-0.041-0.013l-0.199-0.075l-2.01-0.867l-0.486-0.238l-0.24-0.119L23.402,89.062L23.402,89.062
	z M47.197,96.099h-1.184l-0.838-0.029c-0.668-0.038-1.342-0.088-1.992-0.141h-0.018l-0.281-0.035l-0.668-0.053L41.719,95.8
	l-1.066-0.094l-1.559-0.211L38.83,95.46l-0.521-0.076l-0.779-0.15l-0.457-0.088l-1.09-0.217l-1.547-0.383l-0.264-0.064l-0.516-0.139
	l-0.762-0.234l-0.48-0.147l-1.043-0.334l-0.697-0.256c-0.762-0.281-1.553-0.57-2.314-0.927c-3.984-1.704-7.705-4.079-11.045-7.051
	l-1.219-1.143l-0.539-0.537l-0.24-0.248l-0.516-0.461l-0.428-0.383l-0.398-0.375l-0.188-0.181l-1.131-1.114l-0.369-0.392
	l-0.182-0.199l-1.084-1.184l-1.008-1.219l-0.17-0.205L9.51,77.343l-0.475-0.645l-0.311-0.41l-0.633-0.871l-0.434-0.656
	c-0.439-0.652-0.891-1.326-1.289-2.029l-0.475-0.809l-0.322-0.574L4.658,69.61l-0.117-0.245l-0.053-0.123l-0.832-1.808L2.777,65.22
	l-0.762-2.254l-0.568-2.021l-0.07-0.258L0.855,58.36l-0.398-2.34l-0.229-1.949l-0.076-0.803l-0.1-1.559l-0.041-1.25l-0.006-0.332
	L0,49.599V48.55l0.076-1.837L0.1,46.191l0.223-2.37l0.34-2.325l0.1-0.517l0.053-0.267l0.311-1.538l0.252-1.021l0.129-0.513
	l0.193-0.762l0.152-0.507l0.076-0.258l0.463-1.497l0.357-0.99l0.182-0.501l0.27-0.735L3.4,31.902l0.105-0.249l0.621-1.459
	l1.025-2.136l0.375-0.688l0.258-0.473l0.498-0.907l0.82-1.354l0.146-0.234l0.281-0.447l0.879-1.298l0.117-0.174l0.346-0.488
	l0.012-0.013l1.16-1.559l0.17-0.208l1.096-1.324l0.088-0.104l0.176-0.208l1.324-1.459l0.375-0.394l0.182-0.182l1.119-1.125
	l0.387-0.357l0.205-0.185l1.184-1.081l1.213-1.011l0.217-0.18l0.416-0.334l1.324-1.002l0.604-0.434L21.43,9.94l0.117-0.079
	l0.223-0.151l1.02-0.63c1.646-1.084,3.363-1.97,4.67-2.616l0.803-0.366l0.41-0.182l0.604-0.271l0.193-0.082l0.43-0.18l0.563-0.217
	c2.549-1.151,5.109-2.121,7.629-2.883c3.117-0.943,6.27-1.604,9.363-1.964c3.229-0.368,6.417-0.422,9.469-0.146
	c3.164,0.284,6.223,0.914,9.082,1.875c2.672,0.896,5.168,2.083,7.424,3.521l0.662,0.123l0.82,0.202
	c0.533,0.145,1.102,0.303,1.652,0.501c0.551,0.214,1.084,0.442,1.594,0.681l0.17,0.082l0.609,0.315l0.727,0.439l1.383,0.979
	l1.207,1.131l0.047,0.054l0.498,0.567l0.469,0.65l0.773,1.374c0.439,1.014,0.668,2.036,0.697,3.056
	c0.006,0.542-0.041,1.081-0.141,1.617c0.854,0.753,1.635,1.652,2.325,2.698c0.356,0.557,0.697,1.146,1.025,1.755l0.006,0.018
	c0.28,0.583,0.551,1.195,0.832,1.872c0.504,1.333,0.92,2.66,1.229,3.955l0.076,0.313l0.246,0.488l0.814,1.803l0.17,0.403
	l0.563,1.437c1.254,3.34,2.121,6.747,2.596,10.178l0.539,1.049l0.199,0.561l0.123,0.519c0.111,0.604,0.129,1.201,0.059,1.775
	l-0.34,1.166l-0.229,0.437l-0.627,0.906l-0.023-1.103c-0.029-1.688-0.158-3.378-0.387-5.06l-0.357-0.583l-0.129-0.208l-0.479-0.853
	l-0.416-0.873l-0.356-0.855c-0.252-0.609-0.439-1.222-0.609-1.793c-0.182-0.574-0.346-1.175-0.486-1.831
	c-0.27-1.131-0.492-2.282-0.732-3.501c-0.246-1.248-0.498-2.531-0.803-3.812l-0.299-0.583l-0.311-0.609l-0.082-0.155l-0.142-0.264
	l-0.731-1.277c-1.178-2.001-2.514-3.929-3.984-5.738l-0.141,0.354l-0.275-0.867l-0.088-0.104L82.4,17.765l-0.312-0.363l-1.33-1.462
	L80.7,15.881l-0.152-0.047l-1.2-0.548l-0.921-0.75l-0.762-0.892l-0.322-0.451l-0.315-0.45l-0.047-0.063l-0.445-0.601l-0.762-0.618
	l-1.277-0.933l-0.393-0.05l-0.029-0.006l-0.996-0.107l-0.533-0.057l-1.055-0.114l-1.617-0.113l-0.322-0.023l-0.826-0.053
	c-0.731-0.029-1.383-0.067-1.963-0.105l-0.063-0.006c-0.604-0.015-1.144-0.041-1.623-0.079l-0.334-0.028L64.418,9.76l-0.604-0.053
	L62.841,9.54c-0.646-0.173-0.983-0.35-1.178-0.606l-0.146-0.649c0.082-0.439,0.51-0.896,1.254-1.359l0.819-0.419l0.984-0.384
	l1.153-0.347l0.164-0.041l-1.658-0.652c-1.112-0.398-2.448-0.858-3.86-1.229c-2.817-0.759-5.72-1.238-8.631-1.43
	c-3.158-0.202-6.329-0.076-9.434,0.39c-3.451,0.514-6.727,1.295-9.738,2.329L32.35,5.219l-0.375,0.129l-1.236,0.476l-1.301,0.605
	c-2.771,1.327-5.613,2.915-8.432,4.717c-2.021,1.251-3.914,2.997-5.631,5.187c-0.352,0.463-0.721,0.964-1.125,1.525l-0.744,1.146
	l-0.264,0.419l-0.24,0.381l-0.68,1.188l-0.182,0.313l-0.264,0.466l-0.41,0.782l-0.41,0.773l-0.082,0.146l-0.117,0.223l-0.193,0.388
	c-0.27,0.545-0.527,1.03-0.785,1.491c-0.41,0.844-0.861,1.626-1.295,2.385l-0.246,0.422l-0.422,0.668L7.494,29.67l-0.92,1.225
	l-0.252,0.29l-0.234,0.272l-0.527,0.56l-0.92,0.829l0.164,0.896c-0.111,0.567-0.615,0.896-1.107,1.216l-0.053,0.035L2.918,35.72
	l0.316,0.563l0.68,0.649l0.615,0.64l1.008,1.251l0.381,0.63l0.258,0.519l0.047,0.101l0.439,1.313
	c0.193,0.996,0.234,1.931,0.135,2.865l-0.035,0.384L6.721,45.04l-0.117,0.847l-0.088,0.52l-0.059,0.356l-0.158,0.97L6.1,48.749
	l-0.17,1.092l-0.193,1.166l-0.158,1.248c-0.1,0.662-0.152,1.352-0.205,2.08L5.32,55.024l-0.012,0.132L5.29,55.384l-0.029,1.41
	l0.006,1.348l0.018,0.471l0.053,1.265l0.176,1.817c0.141,1.043,0.346,2.441,0.703,3.9c0.715,3.021,1.822,5.973,3.305,8.777
	c1.107,2.041,2.361,3.944,3.715,5.655l0.258,0.32l0.814,0.967l0.176,0.205l0.369,0.424l0.955,1.009l1.424,1.184l0.926,0.736
	l1.605,1.147l0.486,0.324l0.164,0.104l1.336,0.854l0.434,0.252l0.24,0.137l1.371,0.777l1.418,0.703l0.24,0.123l0.457,0.223
	l1.992,0.861l0.158,0.059c0.117,0.029,0.668,0.177,1.547,0.521l0.387,0.151l0.416,0.154l0.967,0.394l0.469,0.202l0.621,0.267
	l1.254,0.561c2.35,1.056,4.898,1.816,7.564,2.263c0.533,0.082,1.102,0.164,1.67,0.235l0.094,0.006l0.486,0.021l0.275,0.008
	l1.541,0.041l0.504-0.002l0.258-0.006l0.768-0.021c0.82-0.002,1.646-0.069,2.444-0.137l0.614-0.047l0.375-0.029l2.021-0.262
	l0.615-0.094c3.305-0.56,6.463-1.42,9.428-2.563c0.551-0.233,1.102-0.479,1.646-0.731c2.074-0.955,4.195-2.154,6.504-3.662
	c1.998-1.316,3.973-2.771,5.871-4.318c2.021-1.676,4.055-3.483,6.211-5.531c0.586-0.662,1.154-1.33,1.699-2.002
	c1.389-1.754,2.701-3.6,3.891-5.479c0.803-1.293,1.57-2.654,2.297-4.062l0.07-0.211l0.029-0.073
	c-0.716-0.451-1.354-0.898-1.857-1.31c-0.738-0.59-1.143-1.053-1.271-1.451l0.111-0.729c0.316-0.388,1.113-0.681,4.729-0.209
	l0.047-0.129l0.275-0.873l-0.012-0.015l-0.023-0.028l-0.41-0.597c-0.521-0.758-1.014-1.473-1.436-2.139l-0.375-0.611l-0.346-0.58
	l-0.633-1.112l-0.498-1.019l-0.404-0.934l-0.287-0.865l-0.135-0.582l-0.047-0.19l-0.094-1.414l0.1-0.599l0.164-0.53
	c0.287-0.681,0.809-1.15,1.465-1.326c0.68-0.183,1.418-0.019,2.092,0.469l0.99,1.02l0.457,0.734l0.369,0.871
	c0.182,0.516,0.434,1.309,0.533,2.232l0.11,1.338v0.754l-0.035,0.77l-0.063,0.814l-0.012,0.123l-0.041,0.313l-0.07,0.429
	c-0.1,0.598-0.223,1.207-0.363,1.813l-0.006,0.018l-0.193,0.669l0.17,1.192l-0.768,0.617l-0.199,0.492l-0.217,0.514
	c0.65,0.51,1.201,0.969,1.641,1.377l1.062,1.131l0.393,1.133l-0.438,0.357c-0.803,0.174-2.777-0.914-3.826-1.541l-0.082,0.158
	l-0.012,0.041l-0.158,0.451l-0.51,1.44L90,69.792l-0.082,0.197l-0.311,0.723l-0.353,0.729l-0.797,1.361l-0.224,0.334l-0.012,0.01
	l-0.246,0.318l-0.526,0.613c-1.513,1.541-2.947,2.955-4.33,4.271c-0.854,0.961-1.746,1.906-2.672,2.83l-0.75,0.703
	c-0.521,0.498-1.066,1.014-1.636,1.488l-0.901,0.787l-1.541,1.235c-3.476,2.666-7.084,4.822-10.724,6.422
	c-0.737,0.332-1.494,0.648-2.256,0.943c-1.856,0.783-3.738,1.436-5.602,1.949l-0.293,0.076l-1.617,0.403l-0.018,0.002l-1.935,0.373
	l-0.838,0.131l-1.629,0.209l-0.521,0.054l-1.981,0.123l-0.516,0.018h-0.495V96.099z"/>
<g>
	<path fill="none" d="M45.417,50.557c0,0-4.02-7.096-8.02-14.034c-4.676-8.112-12.146-19.449-12.74-19.106
		c-0.593,0.342,5.473,12.487,10.15,20.601c3.998,6.938,8.123,13.975,8.123,13.975c0.135-0.208,0.496-0.686,1.07-1.016
		C44.579,50.645,45.17,50.568,45.417,50.557"/>
</g>
<g>
	<path fill="#B5AC5A" d="M78.087,61.364c-0.067-4.625-9.458-9.75-24.958-9.5c-12.973,0.209-39.352,3.499-39.369,13.949
		c-0.006,3.551,5.244,6.628,5.244,5.926c0-0.43-2.5-2.976-2.469-5.938c0.225-6.301,17.426-10.592,37.787-10.9
		c10.682-0.162,20.099,3.129,20.182,6.296S61.1,65.122,61.109,69.214c0.011,3.971,9.478,3.649,9.449,5.4
		c-0.034,2.124-8.156,4.268-19.93,4.249c-24.526-0.037-28.522-12.753-28.875-12.25c-0.526,0.751,4.766,15.392,28.75,15.625
		c15.482,0.15,23.75-3.5,24-7.25c0.291-4.367-9.688-4-9.75-5.792C64.696,67.552,78.171,67.114,78.087,61.364z"/>
	<g>
		<g>
			<path fill="#2F3E51" d="M43.448,52.577c-0.812,0.438-1.478,1.182-1.478,1.182l5.935,9.311l0.003-0.002
				c0-0.042,0.251-0.639,0.818-0.965c0.564-0.325,1.17-0.271,1.246-0.226l0.004-0.002l-5.081-9.803
				C44.896,52.073,44.056,52.249,43.448,52.577z"/>
			<path fill="#B5AC5A" d="M44.729,51.279c-0.098,0.021-0.975,0.214-1.666,0.586h-0.001c-0.925,0.5-1.666,1.317-1.696,1.354
				l-0.657,0.859l7.353,10.747l0.613-1.508c0.028-0.068,0.188-0.359,0.455-0.513c0.274-0.159,0.572-0.158,0.636-0.147l1.555,0.218
				l-0.625-1.371l-5.364-10.351L44.729,51.279z M44.48,53.029c0.477,0.92,3.465,6.686,4.252,8.205
				c-0.14,0.053-0.28,0.092-0.41,0.166c-0.13,0.075-0.239,0.174-0.352,0.268c-0.923-1.448-4.402-6.906-4.962-7.784
				c0.225-0.197,0.511-0.424,0.823-0.593C44.023,53.187,44.261,53.101,44.48,53.029z"/>
		</g>
	</g>
	<g>
		<g>
			<path fill="#B5AC5A" d="M24.828,21.808c-2.839,1.808,7.369,22.781,17.31,33.396c0.598-0.527,0.866-1.111,0.866-1.111
				c0.044-0.068,0.283-0.418,0.688-0.651c0.407-0.232,0.83-0.267,0.911-0.271c0,0,0.672-0.004,1.024-0.215
				C41.535,40.427,26.685,20.626,24.828,21.808z M42.884,52.037c-0.161,0.093-0.255,0.202-0.385,0.306
				c-2.3-2.354-15.793-24.713-14.914-25.416c1.125-0.9,14.513,21.938,15.755,24.931C43.185,51.919,43.044,51.945,42.884,52.037z"/>
		</g>
	</g>
	<path fill="#B5AC5A" d="M59.348,57.629c-3.396,0.016-6.635,1.079-6.594,2.703c0.047,1.844,3.128,2.565,5.316,2.496
		c2.34-0.074,3.73-1.684,3.621-1.777c-0.096-0.082-1.828,0.734-3.219,0.75c-1.85,0.021-3.993-0.641-4.029-1.448
		c-0.033-0.739,2.009-1.333,4.842-1.333c2.891,0,5.234,0.672,5.234,1.328c0,1.641-3,3.516-2.813,3.766s4.453-1.891,4.438-3.719
		C66.13,58.659,62.738,57.614,59.348,57.629z"/>
	<path fill="#B5AC5A" d="M50.523,61.629c0,0-1.164-0.056-1.852,0.339c-0.693,0.399-1.223,1.361-1.223,1.361
		c0.01,3.572,0.357,4.885,3.07,6.601c-0.365-0.042-0.66-0.225-0.66-0.225s0.06,0.189,0.084,0.211
		c1.504,1.229,2.572,1.067,3.697,4.219C55.259,68.027,54.782,64.122,50.523,61.629z M52.996,69.528
		c-1.336-0.525-3.628-3.071-3.934-5.85c0.094-0.087,0.229-0.198,0.418-0.307c0.168-0.098,0.308-0.146,0.424-0.186
		C52.32,64.994,52.658,67.089,52.996,69.528z"/>
</g>
</svg>
