<?xml version="1.0" encoding="utf-8"?>
<!DOCTYPE svg PUBLIC "-//W3C//DTD SVG 1.1//EN" "http://www.w3.org/Graphics/SVG/1.1/DTD/svg11.dtd">
<svg xmlns="http://www.w3.org/2000/svg" viewBox="0 -0.1 95.508 98.1" overflow="visible">
<path fill="#2F3E51" d="M92.542,51.827c0,25.351-20.549,45.899-45.897,45.899c-25.348,0-45.903-20.549-45.903-45.899
	S21.297,5.928,46.645,5.928C71.993,5.928,92.542,26.477,92.542,51.827L92.542,51.827z"/>
<path fill="#B5AC5A" d="M48.838,1.622c0.984,0,1.969,0.032,2.953,0.097c2.959,0.19,5.906,0.677,8.766,1.45
	c1.436,0.372,2.789,0.841,3.926,1.248l1.846,0.727l0.791,0.36l1.336-0.17l1.523-0.056l0.797,0.009L70.87,5.29l0.732,0.044
	l0.064,0.006c-1.828-1.04-3.803-1.913-5.889-2.616c-2.807-0.943-5.807-1.564-8.918-1.84c-3.006-0.272-6.141-0.223-9.323,0.146
	c-2.496,0.287-5.027,0.773-7.547,1.45c0.732-0.135,1.471-0.258,2.215-0.369C44.391,1.786,46.611,1.622,48.838,1.622L48.838,1.622z
	 M67.026,6.239l-1.119,0.226l-1.102,0.331l-0.926,0.36l-0.732,0.375c-0.639,0.39-0.896,0.715-0.932,0.885l0.023,0.097l0.779,0.343
	l0.873,0.144l0.568,0.053l0.352,0.029l0.316,0.026c0.475,0.038,0.996,0.064,1.605,0.082l0.076,0.003
	c0.568,0.035,1.219,0.076,1.939,0.105L69.61,9.35l0.316,0.023l1.74,0.129l0.955,0.103l0.527,0.056l0.094,0.009l-0.92-0.601
	l-0.539-0.331l-1.635-0.952l-1.98-1.025L67.026,6.239L67.026,6.239z M81.088,15.262l0.932,0.381
	c-1.846-3.483-4.734-6.633-8.379-9.088l-0.469-0.311l-0.047-0.003L71.532,6.04l-0.686-0.041h-0.088l-0.773-0.012L68.52,6.04
	L68.344,6.06l0.146,0.062l2.01,1.046l1.641,0.958l0.574,0.352l1.676,1.102l0.41,0.293l1.383,0.75l0.398,0.398l0.357,0.419
	l0.111,0.141l0.498,0.404l0.176,0.146l0.34,0.281l1.576,1.418l1.418,1.4L81.088,15.262L81.088,15.262z M83.116,16.235l0.844,0.586
	l0.07-1.084c-0.023-0.92-0.24-1.857-0.633-2.777l-0.721-1.266l-0.439-0.615l-0.457-0.516l-0.047-0.05L80.59,9.438l-1.307-0.926
	L78.581,8.09l-0.563-0.293l-0.17-0.079l-1.529-0.653L75.03,6.664C78.616,9.297,81.405,12.611,83.116,16.235L83.116,16.235z
	 M82.301,16.581l0.311,0.34l0.07,0.076l-0.123-0.267L82.301,16.581L82.301,16.581z M83.655,17.48l0.111,0.299l0.047-0.17
	L83.655,17.48L83.655,17.48z M84.182,18.819c1.582,1.925,3.029,3.99,4.295,6.138l0.041,0.076l-0.393-1.087
	c-0.27-0.65-0.533-1.251-0.809-1.822c-0.316-0.589-0.65-1.16-0.99-1.699c-0.574-0.867-1.219-1.638-1.916-2.294L84.182,18.819
	L84.182,18.819z M4.77,30.494L4.16,31.929l-0.105,0.252l-0.146,0.343l0.047-0.035l1.102-0.973l0.492-0.524l0.24-0.278l0.246-0.278
	l0.867-1.157l0.205-0.311l0.223-0.322l0.398-0.627l0.24-0.416c0.434-0.75,0.879-1.523,1.277-2.347l0.012-0.018l0.773-1.474
	l0.188-0.384l0.135-0.249l0.076-0.141l0.82-1.559l0.275-0.486l0.176-0.305l0.691-1.213l0.252-0.39l0.264-0.419l0.762-1.166
	l0.311-0.434l-0.023,0.023l-0.188,0.188l-0.346,0.36l-1.33,1.465l-0.152,0.179l-0.088,0.111l-1.002,1.213l-0.088,0.111l-0.152,0.185
	l-1.178,1.567l-0.322,0.457l-0.117,0.179l-0.879,1.298l-0.258,0.413l-0.152,0.243l-0.809,1.336l-0.492,0.891L6.152,27.71
	l-0.375,0.68L4.77,30.494L4.77,30.494z M3.791,32.837l-0.193,0.533l-0.182,0.501l-0.205,0.557l0.041-0.029l0.059-0.035l0.797-0.759
	l-0.223-0.636L3.791,32.837L3.791,32.837z M90.809,31.276l0.117,0.598c0.234,1.216,0.463,2.361,0.732,3.483
	c0.135,0.642,0.287,1.222,0.469,1.784c0.164,0.557,0.346,1.151,0.58,1.726l0.363,0.853l0.387,0.82l0.047,0.091
	c-0.492-2.795-1.254-5.563-2.279-8.291L90.809,31.276L90.809,31.276z M90.211,49.429l-0.369,0.047l-0.99,0.916L88.723,50.8
	l-0.082,0.504l0.082,1.207l0.041,0.188l0.129,0.547l0.264,0.801l0.393,0.891l0.475,0.984l0.609,1.072l0.352,0.586l0.369,0.598
	c0.41,0.652,0.902,1.361,1.418,2.111l0.117,0.174l0.047-0.156c0.135-0.594,0.258-1.186,0.357-1.77l0.07-0.418l0.029-0.27
	l0.012-0.129l0.064-0.789l0.035-0.75v-0.686l-0.111-1.301c-0.088-0.846-0.311-1.549-0.492-2.074l-0.34-0.793l-0.393-0.637
	l-0.832-0.857L90.211,49.429L90.211,49.429z M88.125,62.993l0.018,0.053c0.047,0.146,0.246,0.482,1.043,1.125
	c0.451,0.365,1.02,0.768,1.658,1.174l0.275-0.691l0.141-0.346l0.111-0.277l-0.275-0.686l0.223-0.416
	C88.565,62.632,88.178,62.919,88.125,62.993L88.125,62.993z M91.559,65.794c1.576,0.943,2.766,1.441,3.229,1.484l-0.24-0.369
	l-0.979-1.039c-0.393-0.367-0.879-0.777-1.447-1.225L91.559,65.794L91.559,65.794z M88.829,70.718l-0.023,0.035
	c-0.639,1.008-1.307,2.004-2.01,2.98l0.141-0.141l0.492-0.572l0.229-0.293l0.205-0.311l0.773-1.314L88.829,70.718L88.829,70.718z
	 M4.313,67.161l0.814,1.781l0.059,0.127l0.105,0.213l0.914,1.746l0.299,0.533l0.48,0.813c0.387,0.688,0.832,1.348,1.26,1.992
	l0.434,0.652l0.621,0.844l0.305,0.416l0.469,0.633l0.322,0.393l0.146,0.18c-0.574-0.891-1.125-1.816-1.646-2.771
	c-1.512-2.865-2.643-5.875-3.369-8.951c-0.363-1.49-0.574-2.914-0.715-3.986l-0.182-1.844L4.57,58.64l-0.012-0.463l-0.006-1.4
	l0.029-1.412L4.6,55.097l0.012-0.125l0.053-0.691c0.059-0.742,0.111-1.445,0.211-2.121l0.158-1.264l0.199-1.174l0.17-1.084V48.62
	l0.193-1.014l0.152-0.94l0.07-0.396l0.088-0.501l0.111-0.812l0.035-0.381l0.041-0.41c0.094-0.858,0.053-1.726-0.123-2.643
	L5.578,40.37l-0.041-0.094l-0.24-0.48l-0.352-0.574l-0.938-1.172L3.41,37.434l-0.656-0.633l-0.012-0.009l-0.205-0.229l-0.012,0.023
	l-0.135,0.472l-0.193,0.756l-0.135,0.516l-0.246,0.996L1.512,40.85l-0.053,0.27l-0.094,0.486l-0.34,2.309l-0.217,2.329l-0.023,0.498
	L0.709,48.57l0.006,1.019v0.531l0.006,0.334l0.041,1.203l0.1,1.57l0.07,0.762l0.229,1.939l0.393,2.303l0.516,2.289l0.064,0.234
	l0.563,2.012l0.75,2.219L4.313,67.161L4.313,67.161z M23.402,89.062c1.682,1.045,3.439,1.959,5.25,2.736
	c0.744,0.342,1.518,0.627,2.268,0.902l0.691,0.258l1.008,0.322l0.486,0.152l0.756,0.23l0.486,0.127l0.264,0.066l0.158,0.039
	l-1.348-0.563l-1.225-0.545l-0.645-0.279l-0.445-0.195l-0.949-0.381l-0.809-0.314c-0.92-0.359-1.471-0.494-1.477-0.494l-0.041-0.012
	l-0.199-0.076l-2.01-0.867l-0.486-0.238l-0.24-0.119L23.402,89.062L23.402,89.062z M47.197,96.099h-1.184l-0.838-0.029
	c-0.668-0.039-1.342-0.088-1.992-0.141h-0.018l-0.281-0.035l-0.668-0.053L41.719,95.8l-1.066-0.094l-1.559-0.211L38.83,95.46
	l-0.521-0.076l-0.779-0.15l-0.457-0.088l-1.09-0.217l-1.547-0.383l-0.264-0.064l-0.516-0.139l-0.762-0.234l-0.48-0.148l-1.043-0.334
	l-0.697-0.256c-0.762-0.281-1.553-0.57-2.314-0.926c-3.984-1.705-7.705-4.08-11.045-7.051l-1.219-1.143l-0.539-0.537l-0.24-0.248
	l-0.516-0.461l-0.428-0.383l-0.398-0.375l-0.188-0.18l-1.131-1.115l-0.369-0.391l-0.182-0.199l-1.084-1.184l-1.008-1.219
	l-0.17-0.205L9.51,77.343l-0.475-0.645l-0.311-0.41l-0.633-0.871l-0.434-0.656c-0.439-0.652-0.891-1.326-1.289-2.029l-0.475-0.809
	l-0.322-0.574L4.658,69.61l-0.117-0.246l-0.053-0.123l-0.832-1.807L2.777,65.22l-0.762-2.254l-0.568-2.021l-0.07-0.258L0.855,58.36
	l-0.398-2.34l-0.229-1.949l-0.076-0.803l-0.1-1.559l-0.041-1.25l-0.006-0.332L0,49.599v-1.049l0.076-1.837L0.1,46.191l0.223-2.37
	l0.34-2.326l0.1-0.516l0.053-0.267l0.311-1.538l0.252-1.02l0.129-0.513l0.193-0.762l0.152-0.507l0.076-0.258l0.463-1.497l0.357-0.99
	l0.182-0.501l0.27-0.735l0.199-0.489l0.105-0.249l0.621-1.459l1.025-2.136l0.375-0.688l0.258-0.472l0.498-0.908l0.82-1.354
	l0.146-0.234l0.281-0.448l0.879-1.298l0.117-0.173l0.346-0.489l0.012-0.012l1.16-1.559l0.17-0.208l1.096-1.324l0.088-0.105
	l0.176-0.208l1.324-1.459l0.375-0.393l0.182-0.182l1.119-1.125l0.387-0.357l0.205-0.185l1.184-1.081l1.213-1.011l0.217-0.179
	l0.416-0.334l1.324-1.002l0.604-0.434l1.307-0.896l0.117-0.079l0.223-0.152l1.02-0.63c1.646-1.084,3.363-1.969,4.67-2.616
	l0.803-0.366l0.41-0.182l0.604-0.27l0.193-0.082L29.9,5.383l0.563-0.217c2.549-1.151,5.109-2.121,7.629-2.883
	c3.117-0.943,6.27-1.603,9.363-1.963c3.229-0.369,6.417-0.422,9.469-0.146c3.164,0.284,6.223,0.914,9.082,1.875
	c2.672,0.896,5.168,2.083,7.424,3.521l0.662,0.123l0.82,0.202c0.533,0.144,1.102,0.302,1.652,0.501
	c0.551,0.214,1.084,0.442,1.594,0.68l0.17,0.082l0.609,0.316l0.727,0.439l1.383,0.979l1.207,1.131l0.047,0.053l0.498,0.568
	l0.469,0.65l0.773,1.374c0.439,1.014,0.668,2.036,0.697,3.056c0.006,0.542-0.041,1.081-0.141,1.617
	c0.855,0.753,1.635,1.652,2.326,2.698c0.357,0.557,0.697,1.146,1.025,1.755l0.006,0.018c0.281,0.583,0.551,1.195,0.832,1.872
	c0.504,1.333,0.92,2.66,1.23,3.955l0.076,0.313l0.246,0.489l0.814,1.802l0.17,0.404l0.563,1.436
	c1.254,3.34,2.121,6.747,2.596,10.178l0.539,1.049l0.199,0.56l0.123,0.519c0.111,0.604,0.129,1.201,0.059,1.775l-0.34,1.166
	l-0.229,0.437l-0.627,0.906l-0.023-1.102c-0.029-1.688-0.158-3.378-0.387-5.06l-0.357-0.583l-0.129-0.208l-0.48-0.853l-0.416-0.873
	l-0.357-0.855c-0.252-0.609-0.439-1.222-0.609-1.793c-0.182-0.574-0.346-1.175-0.486-1.831c-0.27-1.131-0.492-2.282-0.732-3.501
	c-0.246-1.248-0.498-2.531-0.803-3.812l-0.299-0.583l-0.311-0.609l-0.082-0.155l-0.141-0.264l-0.732-1.277
	c-1.178-2.001-2.514-3.929-3.984-5.739l-0.141,0.354l-0.275-0.867l-0.088-0.105l-0.973-1.192l-0.311-0.363l-1.33-1.462l-0.059-0.059
	l-0.152-0.047l-1.201-0.548l-0.92-0.75l-0.762-0.891l-0.322-0.451l-0.316-0.451l-0.047-0.062l-0.445-0.601l-0.762-0.618
	l-1.277-0.932l-0.393-0.05l-0.029-0.006l-0.996-0.108l-0.533-0.056l-1.055-0.114l-1.617-0.114l-0.322-0.023l-0.826-0.053
	c-0.732-0.029-1.383-0.067-1.963-0.105l-0.064-0.006c-0.604-0.015-1.143-0.041-1.623-0.079l-0.334-0.029L64.418,9.76l-0.604-0.053
	l-0.973-0.167c-0.645-0.173-0.984-0.349-1.178-0.606l-0.146-0.65c0.082-0.439,0.51-0.896,1.254-1.359l0.82-0.419l0.984-0.384
	l1.154-0.346l0.164-0.041l-1.658-0.653c-1.113-0.398-2.449-0.858-3.861-1.228c-2.818-0.759-5.719-1.239-8.631-1.43
	c-3.158-0.202-6.329-0.076-9.434,0.39c-3.451,0.513-6.727,1.295-9.738,2.329L32.35,5.219l-0.375,0.129l-1.236,0.475l-1.301,0.606
	c-2.771,1.327-5.613,2.915-8.432,4.717c-2.021,1.251-3.914,2.997-5.631,5.186c-0.352,0.463-0.721,0.964-1.125,1.526l-0.744,1.146
	l-0.264,0.419l-0.24,0.381l-0.68,1.187l-0.182,0.313l-0.264,0.466l-0.41,0.782l-0.41,0.773l-0.082,0.146l-0.117,0.223l-0.193,0.387
	c-0.27,0.545-0.527,1.031-0.785,1.491c-0.41,0.844-0.861,1.626-1.295,2.385l-0.246,0.422l-0.422,0.668L7.494,29.67l-0.92,1.225
	l-0.252,0.29l-0.234,0.272l-0.527,0.56l-0.92,0.829l0.164,0.896c-0.111,0.568-0.615,0.896-1.107,1.216l-0.053,0.035L2.918,35.72
	l0.316,0.563l0.68,0.65l0.615,0.639l1.008,1.251l0.381,0.63l0.258,0.519l0.047,0.1l0.439,1.313c0.193,0.996,0.234,1.931,0.135,2.865
	l-0.035,0.384L6.721,45.04l-0.117,0.847l-0.088,0.519l-0.059,0.357l-0.158,0.97L6.1,48.749l-0.17,1.092l-0.193,1.166l-0.158,1.248
	c-0.1,0.662-0.152,1.352-0.205,2.08L5.32,55.024l-0.012,0.131l-0.018,0.229l-0.029,1.41l0.006,1.348l0.018,0.471l0.053,1.264
	l0.176,1.818c0.141,1.043,0.346,2.441,0.703,3.9c0.715,3.02,1.822,5.973,3.305,8.777c1.107,2.041,2.361,3.945,3.715,5.656
	l0.258,0.32l0.814,0.967l0.176,0.205l0.369,0.424l0.955,1.008l1.424,1.184l0.926,0.736l1.605,1.148l0.486,0.324l0.164,0.104
	l1.336,0.855l0.434,0.252l0.24,0.137l1.371,0.777l1.418,0.703l0.24,0.123l0.457,0.223l1.992,0.861l0.158,0.059
	c0.117,0.029,0.668,0.176,1.547,0.521l0.387,0.152l0.416,0.154l0.967,0.393l0.469,0.203l0.621,0.266l1.254,0.561
	c2.35,1.055,4.898,1.816,7.564,2.262c0.533,0.082,1.102,0.164,1.67,0.236l0.094,0.006l0.486,0.021l0.275,0.008l1.541,0.041
	l0.504-0.002l0.258-0.006l0.768-0.021c0.82-0.002,1.646-0.07,2.444-0.137l0.615-0.047l0.375-0.029l2.021-0.262l0.615-0.094
	c3.305-0.559,6.463-1.42,9.428-2.563c0.551-0.234,1.102-0.48,1.646-0.732c2.074-0.955,4.195-2.154,6.504-3.662
	c1.998-1.316,3.973-2.77,5.871-4.318c2.021-1.676,4.055-3.484,6.211-5.531c0.586-0.662,1.154-1.33,1.699-2.002
	c1.389-1.754,2.701-3.6,3.891-5.48c0.803-1.293,1.57-2.654,2.297-4.061l0.07-0.211l0.029-0.074
	c-0.715-0.451-1.354-0.898-1.857-1.309c-0.738-0.59-1.143-1.053-1.271-1.451l0.111-0.729c0.316-0.387,1.113-0.68,4.729-0.209
	l0.047-0.129l0.275-0.873l-0.012-0.014l-0.023-0.029l-0.41-0.596c-0.521-0.758-1.014-1.473-1.436-2.139l-0.375-0.611l-0.346-0.58
	l-0.633-1.113l-0.498-1.018l-0.404-0.934l-0.287-0.865l-0.135-0.582l-0.047-0.191l-0.094-1.414l0.1-0.598l0.164-0.531
	c0.287-0.68,0.809-1.15,1.465-1.326c0.68-0.182,1.418-0.018,2.092,0.469l0.99,1.02l0.457,0.734l0.369,0.871
	c0.182,0.516,0.434,1.309,0.533,2.232l0.111,1.338v0.754l-0.035,0.77l-0.064,0.814l-0.012,0.123l-0.041,0.314l-0.07,0.428
	c-0.1,0.598-0.223,1.207-0.363,1.813l-0.006,0.018l-0.193,0.668l0.17,1.193l-0.768,0.617l-0.199,0.492l-0.217,0.514
	c0.65,0.51,1.201,0.969,1.641,1.377l1.061,1.131l0.393,1.133l-0.439,0.357c-0.803,0.174-2.777-0.914-3.826-1.541l-0.082,0.158
	l-0.012,0.041l-0.158,0.451l-0.51,1.441L90,69.792l-0.082,0.197l-0.311,0.723l-0.352,0.73l-0.797,1.361l-0.223,0.334l-0.012,0.01
	l-0.246,0.318l-0.527,0.613c-1.512,1.541-2.947,2.955-4.33,4.271c-0.855,0.961-1.746,1.906-2.672,2.83l-0.75,0.703
	c-0.521,0.498-1.066,1.014-1.635,1.488l-0.902,0.787l-1.541,1.236c-3.475,2.666-7.084,4.822-10.723,6.422
	c-0.738,0.332-1.494,0.648-2.256,0.943c-1.857,0.783-3.738,1.436-5.602,1.949l-0.293,0.076l-1.617,0.404l-0.018,0.002l-1.934,0.373
	l-0.838,0.131l-1.629,0.209l-0.521,0.053l-1.981,0.123l-0.516,0.018H47.197L47.197,96.099z"/>
<g>
	<path fill="none" enable-background="new    " d="M45.417,50.557c0,0-4.02-7.096-8.02-14.034
		c-4.676-8.113-12.146-19.45-12.74-19.107c-0.593,0.342,5.473,12.488,10.15,20.601c3.998,6.938,8.123,13.974,8.123,13.974
		c0.135-0.208,0.496-0.685,1.07-1.015C44.579,50.645,45.17,50.568,45.417,50.557"/>
</g>
<g>
	<path fill="#B5AC5A" d="M76.972,60.901c0.087-3.749-9.263-7.425-22.163-7.425c-12.975,0-40.073,2.995-40.049,12.337
		c0.006,2.56,3.15,5.466,3.15,4.763c0-0.429-1.594-2.177-1.5-4.799c0.225-6.301,17.549-10.876,37.912-10.876
		c12.713,0,20.252,3.142,20.213,6c-0.038,2.813-13.436,3.221-13.425,7.313c0.01,3.971,9.475,3.422,9.449,5.4
		c-0.024,2.005-8.813,3.505-20.587,3.487c-24.525-0.037-30.734-8.979-31.087-8.476c-0.526,0.751,7.462,11.019,31.762,10.838
		c15.188-0.112,23.86-2.127,23.85-6.075c-0.009-3.72-10.8-2.584-10.8-5.175C63.697,65.852,76.86,65.739,76.972,60.901z"/>
	<g>
		<g>
			<path fill="#2F3E51" enable-background="new    " d="M43.448,52.577c-0.812,0.439-1.478,1.182-1.478,1.182l5.935,9.311
				l0.003-0.002c0-0.042,0.251-0.639,0.819-0.965c0.564-0.325,1.17-0.271,1.246-0.226l0.004-0.002l-5.081-9.803
				C44.896,52.072,44.056,52.249,43.448,52.577z"/>
			<path fill="#B5AC5A" d="M44.729,51.279c-0.098,0.021-0.975,0.213-1.666,0.585h-0.001c-0.925,0.5-1.666,1.318-1.696,1.354
				l-0.657,0.859l7.353,10.747l0.613-1.507c0.028-0.069,0.188-0.36,0.455-0.513c0.275-0.159,0.572-0.158,0.636-0.148l1.554,0.218
				l-0.625-1.371l-5.364-10.35L44.729,51.279z M44.48,53.029c0.477,0.919,3.465,6.685,4.252,8.205
				c-0.139,0.052-0.28,0.091-0.41,0.166s-0.239,0.173-0.352,0.267c-0.923-1.448-4.402-6.906-4.962-7.784
				c0.225-0.197,0.511-0.424,0.823-0.593C44.023,53.187,44.261,53.101,44.48,53.029z"/>
		</g>
	</g>
	<g>
		<g>
			<path fill="#B5AC5A" d="M24.828,21.808c-2.839,1.807,7.369,22.781,17.31,33.396c0.598-0.527,0.866-1.111,0.866-1.111
				c0.044-0.068,0.283-0.418,0.688-0.651c0.407-0.233,0.83-0.267,0.911-0.271c0,0,0.672-0.004,1.024-0.215
				C41.535,40.427,26.685,20.626,24.828,21.808z M42.884,52.037c-0.161,0.093-0.255,0.202-0.385,0.306
				c-2.3-2.354-15.793-24.713-14.914-25.416c1.125-0.9,14.513,21.938,15.755,24.931C43.185,51.919,43.044,51.945,42.884,52.037z"/>
		</g>
	</g>
	<path fill="#B5AC5A" d="M59.888,58.009c-2.956-0.445-7.314,0.228-7.137,2.149c0.188,2.037,3.697,2.692,5.32,2.67
		c2.011-0.028,4.408-0.853,4.163-1.139c-0.169-0.197-1.401,0.423-3.755,0.281c-2.32-0.141-3.948-0.858-4.036-1.617
		c-0.112-0.971,2.437-1.423,5.526-0.887c2.319,0.403,3.898,1.158,3.755,1.843c-0.183,0.872-2.094,1.563-2.053,1.856
		c0.04,0.293,1.363,0.093,2.067-0.274c0.772-0.401,1.356-0.899,1.462-1.624C65.441,59.622,62.367,58.384,59.888,58.009z"/>
	<path fill="#B5AC5A" d="M50.523,61.629c0,0-1.163-0.056-1.851,0.339c-0.693,0.399-1.223,1.361-1.223,1.361
		c0.01,3.573,0.357,4.885,3.07,6.601c-0.365-0.042-0.66-0.225-0.66-0.225s0.06,0.19,0.084,0.211
		c1.504,1.229,2.573,1.068,3.698,4.219C55.259,68.027,54.782,64.122,50.523,61.629z M52.996,69.528
		c-1.336-0.526-3.628-3.072-3.933-5.85c0.093-0.087,0.229-0.198,0.418-0.307c0.168-0.097,0.307-0.146,0.424-0.185
		C52.321,64.994,52.658,67.089,52.996,69.528z"/>
</g>
</svg>
