<?xml version="1.0" encoding="utf-8"?>
<!DOCTYPE svg PUBLIC "-//W3C//DTD SVG 1.1//EN" "http://www.w3.org/Graphics/SVG/1.1/DTD/svg11.dtd">
<svg xmlns="http://www.w3.org/2000/svg" viewBox="0 0 351.776 286.683" overflow="visible">
<g>
	<path d="M170.28,285.902c-4.117-0.809-10.156-4.172-11.285-6.285c-0.535-0.994-0.535-7.111,0-18.355
		c0.91-19.084,0.824-19.574-4.644-25.73c2.242,2.492,2.093,2.113-7.325-9.168c-7.414-8.879-7.257-8.422-5.242-15.211
		c1.676-5.641,1.688-6.018,0.461-13.643c-0.695-4.314-1.699-8.4-2.238-9.082c-1.59-2.029-4.035-3.93-6.27-4.879
		c-2.793-1.189-3.902-3.896-3.902-9.496c0-2.611-0.719-6.705-1.645-9.365c-1.07-3.078-1.5-5.84-1.238-7.926
		c0.938-7.418,2.348-12.98,4.242-16.713c1.145-2.258,2.203-5.996,2.442-8.633c2.438-11.853,2.23-12.375,2.57-13.731
		c0.453-1.8,0.246-1.902-4.984-2.394c-14.457-1.363-49.086-12.703-66.961-21.93c-18.219-9.402-37.844-28.383-48.055-46.476
		C11.288,38.165,4.62,23.692,2.288,16.661C0.108,10.098-0.755,0.735,0.769,0.149c0.625-0.242,1.55-0.183,2.054,0.129
		C3.327,0.587,6.429,6.27,9.71,12.899c7.254,14.649,15.039,26.449,23.269,35.293c13.59,14.59,24.997,20.094,59.184,28.559
		c8.359,2.07,21.32,5.5,28.801,7.621c7.48,2.125,17.008,4.59,21.176,5.48l7.578,1.621l4.82-1.859
		c2.656-1.023,5.547-2.113,6.426-2.422c0.879-0.308,9.48-0.515,19.113-0.461c16.941,0.094,17.621,0.16,20.801,2.016
		c3.23,1.883,3.398,1.898,9.688,0.797c3.52-0.614,10.18-2.004,14.797-3.09c4.621-1.086,13.441-2.738,19.602-3.672
		c16.477-2.492,33.223-7.09,44.012-12.082c2.777-1.285,5.254-2.336,5.508-2.336c1.137,0,11.789-7.367,16.793-11.613
		c9.363-7.946,21.438-23.602,32.684-42.391c3.191-5.328,4.797-7.266,6.18-7.469c1.824-0.265,1.855-0.156,1.371,4.481
		c-2.016,19.289-20.008,50.359-41.363,71.418c-7.984,7.879-9.246,8.781-19.262,13.824c-9.684,4.871-12.391,5.809-27.922,9.695
		c-21.688,5.43-29.016,7.774-33.828,10.828c-2.105,1.332-4.164,2.426-4.578,2.426s-0.539,1.078-0.273,2.399
		c0.613,3.062-0.809,4.8-3.93,4.8h-2.414l0.422,4.653c0.238,2.637,1.297,6.375,2.441,8.633c1.895,3.733,3.305,9.295,4.242,16.713
		c0.262,2.086-0.168,4.848-1.238,7.926c-0.926,2.66-1.645,6.754-1.645,9.365c0,5.6-1.109,8.307-3.902,9.496
		c-2.234,0.949-4.68,2.85-6.27,4.879c-0.539,0.682-1.543,4.768-2.238,9.082c-1.227,7.625-1.215,8.002,0.461,13.643
		c2.016,6.789,2.172,6.332-5.242,15.211c-9.418,11.281-9.566,11.66-9.879,25.846c-0.152,6.732,0.121,15.164,0.602,18.736
		c0.738,5.504,0.688,6.777-0.348,8.357c-2.176,3.32-7.328,6.109-11.996,6.496c-4.141,0.342-4.309,0.281-4.152-1.539
		c0.258-3.018-1.141-15.068-1.797-15.475c-0.891-0.551-2.613,10.199-2.016,12.588c0.543,2.158-0.125,5.457-1.074,5.305
		C174.011,286.627,172.198,286.281,170.28,285.902L170.28,285.902z M173.624,279.363c0.219-2.75,0.75-9.5,1.18-15
		s1.18-12.158,1.664-14.801c0.488-2.639,1.016-5.879,1.172-7.199c0.156-1.318,0.266,1.561,0.238,6.398
		c-0.023,4.973,0.602,12.805,1.441,18c0.816,5.063,1.465,11.043,1.445,13.297l-0.043,4.098l3.203-0.719
		c4.301-0.965,7.52-2.707,8.227-4.445c0.32-0.783,0.695-9.809,0.832-20.047l0.25-18.615l2.199-3.781
		c1.207-2.082,4.426-6.664,7.148-10.186c6.977-9.02,7.168-9.469,5.645-13.279c-1.57-3.918-1.602-9.578-0.102-18.096
		c1.48-8.43,2.16-9.598,6.695-11.516c4.891-2.066,5.746-3.336,5.746-8.553c0-3.932-0.152-4.303-1.582-3.932
		c-0.871,0.23-2.793,0.143-4.27-0.189c-2.348-0.533-2.871-0.34-4.121,1.479c-1.492,2.172-6.027,6.172-6.027,5.316
		c0-0.273,1.438-1.906,3.199-3.631c1.758-1.725,3.199-3.871,3.199-4.775c0-0.922,2.453-4.285,5.602-7.678
		c4.695-5.068,5.598-6.49,5.598-8.818c0-3.625-2.668-11.475-5.141-15.117c-2.449-3.608-3.273-9.809-2.125-16.008
		c1.098-5.953,2.098-7.027,2.84-3.062c0.648,3.445,0.512,3.961-0.949,3.625c-0.563-0.129-1.023,0.425-1.023,1.238
		c0,1.219,0.492,1.418,2.859,1.141c3.785-0.442,4.188-1.926,1.555-5.723c-1.852-2.676-2.09-3.617-1.609-6.453
		c1.359-8.055-4.285-16.422-12.395-18.367c-2.34-0.563-5.91-1.997-7.934-3.184c-3.613-2.129-3.863-2.16-14.676-1.813
		c-14.902-0.507-15.719-0.683-18.878-0.222c-2.047,0.297-4.442,1-5.325,1.558c-0.879,0.559-3.039,1.473-4.797,2.036
		c-7.488,2.378-10.054,5.531-14.363,17.605c-1.953,17.82-2.777,24.02-5.226,27.628c-2.473,3.642-5.141,11.492-5.141,15.117
		c0,2.328,0.902,3.75,5.598,8.818c3.148,3.393,5.601,6.756,5.601,7.678c0,0.904,1.442,3.051,3.199,4.775
		c1.762,1.725,3.2,3.357,3.2,3.631c0,0.855-4.536-3.145-6.028-5.316c-1.25-1.818-1.773-2.012-4.121-1.479
		c-1.476,0.332-3.398,0.42-4.269,0.189c-1.43-0.371-1.582,0-1.582,3.932c0,5.217,0.855,6.486,5.746,8.553
		c4.535,1.918,5.215,3.086,6.695,11.516c1.5,8.518,1.469,14.178-0.102,18.096c-1.523,3.811-1.332,4.26,5.645,13.279
		c2.723,3.521,5.941,8.104,7.148,9.234c4.02,3.771,6.293,10.141,4.981,15.83c-0.613,2.664-0.637,4.902-0.07,7.381
		c0.574,2.525,0.523,5.668-0.176,10.844c-0.547,4.014-0.762,7.896-0.477,8.629c0.492,1.281,9.543,6.078,11.473,6.082
		C172.862,284.363,173.382,282.406,173.624,279.363L173.624,279.363z M182.53,272.824c-2.754-4.197-3.262-17.486-0.973-25.461
		c0.891-3.111,2.188-4.043,2.23-1.602c0.02,1.176,0.133,1.211,0.695,0.201c0.367-0.658,0.879-6.383,1.137-12.721
		c0.492-12.148,1.586-16.064,2.441-8.736c2.086,17.881,1.996,42.646-0.176,48.057C186.776,275.33,184.253,275.455,182.53,272.824
		L182.53,272.824z M186.854,268.631c1.59-7.912,1.309-9.418-2.289-12.268l-3.203-2.533l0.008,3.865
		c0.008,7.982,1.938,15.471,3.98,15.471C185.679,273.166,186.354,271.123,186.854,268.631L186.854,268.631z M166.624,271.363
		c-1.141-2.805-2.391-19.107-2.164-28.197c0.074-3.082,0.699-8.611,1.387-12.289c0.683-3.678,1.039-7.514,0.785-8.521
		c-0.586-2.346,0.344-9.281,1.176-8.764c0.348,0.213,0.43,3.035,0.188,6.268c-0.301,3.961-0.148,6.061,0.461,6.439
		c0.551,0.338,0.906,3.025,0.906,6.857c0,6.836,0.691,9.496,3.086,11.893c1.285,1.285,1.563,2.775,1.645,8.85
		c0.098,7.285-1.559,16.975-3.25,19.008C169.366,274.688,167.733,274.092,166.624,271.363L166.624,271.363z M171.3,266.006
		c0.695-3.057,1.254-7.465,1.238-9.801l-0.023-4.242l-1.645,2.203c-0.902,1.207-2.238,2.189-2.973,2.178
		c-1.105-0.01-1.04-0.252,0.371-1.398c0.941-0.762,2.121-2.189,2.629-3.184c0.809-1.574,0.723-1.799-0.676-1.799
		c-1.188,0-1.816-0.822-2.461-3.207c-0.473-1.768-0.805-3.654-0.734-4.201c0.398-3.086-0.141-6.238-0.977-5.721
		c-0.895,0.553-0.735,6.932,0.617,24.721C167.526,272.91,169.335,274.648,171.3,266.006L171.3,266.006z M176.19,227.26
		c-0.316-4.607-0.336-9.125-0.043-10.043c0.414-1.307,1.074-22.518,1.176-37.854c0.008-1.211,0.418-2.197,0.91-2.197
		c0.617,0,0.746,1.672,0.418,5.396c-0.262,2.969-0.684,16.018-0.941,28.992c-0.254,12.977-0.57,23.701-0.707,23.836
		C176.87,235.523,176.503,231.863,176.19,227.26L176.19,227.26z M166.101,209.563c-0.106-0.879-0.286-3.039-0.403-4.801
		c-0.344-5.16-0.656-5.852-4.351-9.613c-1.934-1.971-3.149-3.586-2.7-3.586c0.45,0,1.86,1.09,3.137,2.422
		c1.274,1.332,2.754,2.254,3.281,2.053c0.68-0.264,1.129,1.604,1.52,6.311c0.305,3.676,0.367,7.162,0.133,7.746
		C166.444,210.777,166.222,210.588,166.101,209.563L166.101,209.563z M185.897,209.563c-0.121,1.025-0.344,1.215-0.617,0.531
		c-0.234-0.584-0.172-4.07,0.133-7.746c0.391-4.707,0.84-6.574,1.52-6.311c0.527,0.201,2.008-0.721,3.281-2.053
		c1.277-1.332,2.688-2.422,3.137-2.422s-0.766,1.615-2.699,3.586c-3.695,3.762-4.008,4.453-4.352,9.613
		C186.183,206.523,186.003,208.684,185.897,209.563L185.897,209.563z M159.995,207.348c-2.926-2.953-5.019-4.631-7.898-6.328
		c-1.586-0.936-2.735-2.254-2.735-3.135c0-1.998,1.301-1.957,1.828,0.053c0.227,0.865,1.707,2.193,3.293,2.949
		c1.582,0.754,2.879,1.791,2.879,2.297c0,0.508,0.91,1.336,2.024,1.844c1.113,0.51,2.222,1.441,2.468,2.078
		c0.243,0.637,0.954,0.961,1.575,0.725c0.625-0.242,1.136-0.039,1.136,0.447C164.565,209.777,161.858,209.23,159.995,207.348
		L159.995,207.348z M192.003,207.348c-1.863,1.883-4.57,2.43-4.57,0.93c0-0.486,0.512-0.689,1.137-0.447
		c0.621,0.236,1.332-0.088,1.574-0.725c0.246-0.637,1.355-1.568,2.469-2.078c1.113-0.508,2.023-1.336,2.023-1.844
		c0-0.506,1.297-1.543,2.879-2.297c1.586-0.756,3.066-2.084,3.293-2.949c0.527-2.01,1.828-2.051,1.828-0.053
		c0,0.881-1.148,2.199-2.734,3.135C197.022,202.717,194.929,204.395,192.003,207.348L192.003,207.348z M185.897,191.762
		c-1.008-4.92-3.684-13.742-4.633-15.26c-0.766-1.225-1.359-1.443-2.41-0.879c-0.895,0.479-1.574,0.447-1.906-0.082
		c-0.602-0.975-3.586,2.514-3.586,4.189c0,0.611-0.398,1.512-0.887,2.004c-0.492,0.488-1.547,2.811-2.344,5.156
		c-1.32,3.871-1.461,4.029-1.512,1.693c-0.066-3,3.867-12.031,6.051-13.896c2.223-1.9,5.484-1.461,7.422,1
		c0.918,1.172,1.672,2.656,1.672,3.301c0,0.646,0.578,2.75,1.285,4.678c3.027,8.221,3.504,10.297,2.367,10.297
		C186.827,193.963,186.144,192.973,185.897,191.762L185.897,191.762z M195.819,188.762c-0.035-1.613,4.398-8.682,6.164-9.834
		c1.547-1.008,1.402-0.541-0.98,3.125C197.108,188.049,195.839,189.691,195.819,188.762L195.819,188.762z M156.179,188.762
		c-0.02,0.93-1.289-0.713-5.184-6.709c-2.383-3.666-2.527-4.133-0.98-3.125C151.78,180.08,156.214,187.148,156.179,188.762
		L156.179,188.762z M149.069,138.166c-0.242-2.531-0.558-5.798-0.703-7.259c-0.144-1.46-0.027-2.805,0.258-2.979
		c0.285-0.176,0.762,1.738,1.051,4.257c0.293,2.521,0.742,5.93,1,7.578c0.277,1.805,0.14,3-0.348,3
		C149.878,142.762,149.312,140.692,149.069,138.166L149.069,138.166z M202.929,138.166c-0.243,2.526-0.809,4.597-1.258,4.597
		c-0.488,0-0.625-1.195-0.348-3c0.258-1.648,0.707-5.058,1-7.578c0.289-2.519,0.766-4.433,1.051-4.257
		c0.285,0.175,0.402,1.519,0.258,2.979C203.487,132.368,203.171,135.634,202.929,138.166L202.929,138.166z M177.972,135.563
		c-0.328-2.418-0.547-8.539-0.488-13.601l0.109-9.2l0.703,9.602c0.387,5.281,0.605,11.398,0.484,13.598l-0.215,4L177.972,135.563z
		 M132.202,168.938c1.461,1.156,3.211,1.268,4.738,0.301c1.778-1.125,0.454-4.068-3.914-8.729l-3.992-4.258v2.561
		C129.034,162.367,130.726,167.77,132.202,168.938L132.202,168.938z M219.796,168.938c1.477-1.168,3.168-6.57,3.168-10.125v-2.561
		l-3.992,4.258c-4.367,4.66-5.691,7.604-3.914,8.729C216.585,170.205,218.335,170.094,219.796,168.938L219.796,168.938z
		 M230.71,114.001c4.148-2.543,16.113-6.371,34.004-10.875c19.559-4.926,36.074-13.469,45.934-23.758
		c14.68-15.324,29.789-39.316,35.473-56.324c3.68-11.016,3.191-12.328-1.613-4.34c-18.715,31.121-36.48,47.746-61.246,57.316
		c-11.391,4.403-21.133,6.856-37.66,9.481c-12.324,1.957-35.422,6.582-36.059,7.218c-0.164,0.165,0.488,0.547,1.449,0.852
		c0.961,0.309,3.152,1.824,4.867,3.375c3.574,3.227,5.699,9.066,5.332,14.656c-0.203,3.082-0.012,3.512,1.773,4.028
		C226.226,116.567,226.683,116.469,230.71,114.001L230.71,114.001z M137.737,110.962c1.067-4.289,4.657-12.633,6.5-15.11
		l1.871-2.511l-4.558-0.571c-2.508-0.312-11.766-2.558-20.574-4.988c-8.805-2.434-23.391-6.324-32.411-8.652
		c-23.211-5.985-31.253-9.137-42.703-16.735c-5.418-3.597-15.875-13.144-20.586-18.797C18.214,35.13,10.179,21.094,5.331,8.762
		C2.952,2.708,2.163,1.77,2.163,4.993c0,3.695,5.016,18.109,9.895,28.437c7.511,15.903,18.152,32.102,25.05,38.145
		c9.352,8.187,21.36,16.512,30.274,20.988c15.957,8.008,55.293,20.059,66.894,20.492
		C136.827,113.149,137.257,112.891,137.737,110.962L137.737,110.962z"/>
</g>
</svg>
