<?xml version="1.0" encoding="utf-8"?>
<!DOCTYPE svg PUBLIC "-//W3C//DTD SVG 1.1//EN" "http://www.w3.org/Graphics/SVG/1.1/DTD/svg11.dtd">
<svg xmlns="http://www.w3.org/2000/svg" viewBox="0 0 353.358 288.308" overflow="visible">
<path fill="#D09A3F" d="M175.044,288.305c-3.667-0.586-7.378-1.367-10.611-3.244c-1.953-1.047-3.95-2.24-5.263-4.058
	c-0.814-1.655-0.467-3.592-0.607-5.382c-0.098-9.733,1.074-19.445,0.727-29.178c-0.163-2.643-1.025-5.312-2.821-7.303
	c-0.781-0.993-1.823-1.851-2.268-3.044c-0.435-0.461-0.896-0.868-1.227-1.41c-3.749-4.677-7.845-9.088-11.317-13.976
	c-1.052-1.66-1.421-3.755-0.803-5.638c0.841-3.732,2.675-7.378,2.116-11.279c-0.456-4.204-1.216-8.409-2.257-12.5
	c-0.293-1.15-0.944-2.17-1.823-2.946c-1.617-1.665-3.687-2.788-5.754-3.781c-2.173-1.443-3.038-4.161-3.192-6.662
	c-0.236-2.924-0.108-5.903-0.825-8.757c-0.806-3.603-2.49-7.074-2.257-10.84c0.139-2.425,0.684-4.801,1.063-7.193
	c0.79-4.188,2.06-8.295,3.985-12.099c1.473-3.689,1.761-7.693,2.631-11.545c0.613-3.293,1.27-6.608,1.761-9.901
	c-0.366-0.222-0.882-0.157-1.291-0.304c-2.621-0.396-5.295-0.461-7.895-1.047c-10.671-1.915-21.031-5.214-31.313-8.61
	C85.252,104,74.803,99.991,64.828,94.989c-10.403-5.415-19.734-12.744-28.106-20.904c-8.615-8.491-16.292-18.007-21.964-28.728
	c-3.063-5.8-5.905-11.724-8.553-17.735c-1.639-3.874-3.31-7.764-4.484-11.811C0.516,11.39-0.263,6.783,0.082,2.193
	c0.108-1.025,0.787-2.138,1.92-2.159C3.25-0.167,4.55,0.539,5.021,1.727c4.935,8.501,8.781,17.627,13.981,25.971
	c6.768,11.225,14.896,21.804,25.188,29.964c7.106,5.512,15.421,9.25,23.939,12.083c13.701,4.655,27.905,7.568,41.843,11.398
	c12.847,3.418,25.589,7.33,38.629,9.939c0.911,0.222,1.915,0.559,2.777,0.016c3.537-1.334,7.025-2.837,10.634-3.944
	c6.728-0.548,13.487-0.336,20.226-0.385c5.019,0.027,10.053-0.011,15.05,0.412c2.062,0.26,3.999,1.09,5.691,2.262
	c1.313,0.765,2.881,1.102,4.373,0.732c5.968-0.803,11.832-2.208,17.691-3.483c6.641-1.492,13.325-2.772,20.058-3.781
	c7.449-1.183,14.86-2.604,22.152-4.536c8.768-2.257,17.388-5.198,25.553-9.12c1.753-0.662,3.538-1.248,5.046-2.376
	c4.878-3.125,9.619-6.51,14.03-10.249c6.781-5.914,12.451-13.015,17.822-20.215c5.734-7.731,10.867-15.875,15.869-24.088
	c1.204-1.91,2.425-3.999,4.427-5.149c0.944-0.439,2.388-0.629,3.049,0.364c0.603,1.112,0.136,2.419,0.146,3.619
	c-0.992,10.14-4.958,19.688-9.461,28.727c-6.988,13.748-15.918,26.492-26.216,37.956c-4.362,4.801-8.936,9.435-13.933,13.59
	c-5.11,3.868-11.073,6.37-16.753,9.261c-5.724,2.686-11.833,4.427-17.958,5.957c-10.715,2.799-21.561,5.187-32.01,8.865
	c-3.027,1.118-5.93,2.61-8.615,4.378c-0.803,0.483-1.704,0.841-2.507,1.27c-0.087,1.639,0.679,3.407-0.174,4.954
	c-0.846,1.741-2.956,2.387-4.785,2.29c-0.391,0.06-0.856-0.158-1.21-0.011c0.282,4.134,0.793,8.344,2.702,12.077
	c1.416,2.957,2.365,6.098,3.044,9.304c0.656,3.104,1.188,6.255,1.361,9.429c-0.103,4.33-2.327,8.252-2.713,12.533
	c-0.482,3.212,0.065,6.635-1.155,9.706c-0.591,1.601-1.807,2.935-3.374,3.613c-1.356,0.64-2.67,1.346-3.771,2.371
	c-1.302,1.009-2.565,2.311-2.87,3.998c-1.106,3.847-1.616,7.855-2.219,11.811c-0.298,2.441-0.005,4.932,0.781,7.254
	c0.673,2.382,1.698,4.774,1.568,7.298c-0.375,2.805-2.539,4.872-4.167,7.021c-3.483,4.318-7.427,8.365-10.107,13.243
	c-1.996,4.188-1.769,8.989-1.97,13.536c-0.146,6.624-0.108,13.275,0.543,19.873c0.223,2.219,0.689,4.46,0.461,6.695
	c-0.217,1.725-1.291,3.151-2.528,4.302c-3.775,3.662-9.195,5.344-14.409,5.062c-1.14,0.076-1.889-1.209-1.601-2.234
	c0.108-4.492-0.537-8.947-1.178-13.38c-0.624,2.876-1.09,5.816-1.139,8.773c0.098,1.823,0.586,3.673,0.064,5.469
	C176.629,287.024,176.178,288.381,175.044,288.305"/>
<path fill="#3D3017" d="M217.649,124.66c1.318-0.157,2.827,0,3.95-0.841c0.559-0.667-0.076-1.552-0.348-2.203
	c-0.646-1.199-1.541-2.268-2.17-3.478c0.189,1.633,0.944,3.353,0.374,4.997c-0.38,0.738-1.329,0.77-2.029,0.646
	C217.21,123.998,217.237,124.687,217.649,124.66 M179.243,141.88c-0.835-0.396-0.737-1.502-0.895-2.278
	c-1.178-7.579-0.896-15.289-0.83-22.938c0.064-1.183-0.033-2.398,0.146-3.559c0.276-0.64,1.383-0.504,1.416,0.223
	c0.331,2.148,0.293,4.346,0.531,6.505c0.505,6.906,1.085,13.851,0.488,20.768C180.035,141.115,179.971,141.972,179.243,141.88z
	 M202.366,144.387c-1.058-0.201-1.356-1.503-1.226-2.431c0.51-3.896,0.943-7.813,1.573-11.686c0.185-0.792,0.271-1.883,1.112-2.263
	c0.635-0.222,1.209,0.347,1.27,0.955c0.379,1.601-0.006,3.266-0.104,4.883c-0.342,2.886-0.391,5.832-1.096,8.659
	c-0.239,0.678-0.467,1.568-1.205,1.845C202.589,144.387,202.48,144.392,202.366,144.387z M151.031,144.387
	c-1.063-0.212-1.313-1.476-1.514-2.371c-0.759-3.711-0.873-7.509-1.253-11.269c-0.011-0.928-0.038-2.083,0.76-2.707
	c0.781-0.358,1.508,0.488,1.53,1.221c0.954,3.635,0.949,7.433,1.671,11.111c0.13,1.172,0.368,2.522-0.271,3.591
	C151.737,144.235,151.39,144.414,151.031,144.387z M135.469,169.913c0.801-0.038,2.021-0.223,2.168-1.188
	c-0.006-1.59-1.231-2.827-2.049-4.074c-1.529-1.98-3.301-3.738-5.013-5.551c0.076,3.315,0.787,6.689,2.466,9.56
	C133.619,169.402,134.52,169.901,135.469,169.913z M218.013,169.918c1.634,0.011,2.881-1.399,3.299-2.881
	c1.053-2.512,1.606-5.214,1.628-7.938c-2.512,2.8-5.528,5.355-6.999,8.903c-0.206,0.569-0.065,1.389,0.624,1.568
	C217.015,169.788,217.514,169.918,218.013,169.918z M196.551,190.616c-0.923-0.233-0.901-1.438-0.537-2.133
	c1.383-3.314,3.347-6.401,5.811-9.017c0.607-0.548,1.491-1.188,2.332-0.819c0.684,0.516,0.337,1.503-0.108,2.057
	c-2.002,3.255-4.015,6.532-6.445,9.488C197.32,190.447,196.952,190.659,196.551,190.616z M156.761,190.621
	c-1.367-0.412-1.898-1.915-2.745-2.93c-1.758-2.615-3.641-5.181-5.04-7.997c-0.179-0.727,0.656-1.54,1.351-1.09
	c2.182,0.977,3.31,3.249,4.639,5.11c1.172,1.834,2.403,3.722,2.789,5.892C157.748,190.133,157.336,190.691,156.761,190.621z
	 M167.129,212.116c-0.906-0.157-1.096-1.253-1.096-2.023c0.026-0.418-0.061-0.261-0.201-0.021c-0.716,0.993-2.138,0.749-3.125,0.358
	c-2.484-1.021-3.949-3.456-6.082-4.997c-1.773-1.465-3.781-2.609-5.643-3.955c-1.155-0.917-2.034-2.458-1.514-3.95
	c0.25-0.83,1.308-1.421,2.078-0.873c1.15,0.689,0.993,2.327,2.095,3.065c1.567,1.384,3.933,1.834,5.083,3.667
	c0.185,0.564,0.478,1.135,1.074,1.335c1.416,0.781,2.995,1.573,3.706,3.114c0.504,0.25,1.079-0.271,1.622-0.049
	c0.282,0.07,0.542,0.255,0.711,0.494c-0.244-2.626-0.065-5.409-1.112-7.856c-1.476-2.805-4.362-4.509-5.968-7.21
	c-0.293-0.505-0.342-1.34,0.33-1.552c0.874-0.282,1.585,0.472,2.241,0.911c1.427,1.15,2.522,2.821,4.297,3.483
	c0.781-0.168,1.486,0.467,1.616,1.21c0.749,2.148,0.695,4.481,0.966,6.717c0.18,2.408,0.38,4.855,0.011,7.253
	C168.067,211.699,167.66,212.149,167.129,212.116z M186.248,212.122c-1.042-0.276-1.184-1.558-1.135-2.463
	c0.044-4.216,0.152-8.502,1.199-12.604c0.244-0.635,0.906-1.117,1.601-1.004c1.324-0.406,2.203-1.601,3.201-2.495
	c0.879-0.841,1.845-1.785,3.104-1.975c0.879,0.124,1.009,1.361,0.391,1.871c-1.726,2.74-4.77,4.465-6.033,7.515
	c-0.825,2.338-0.624,4.866-0.9,7.308c0.466-0.673,1.334-0.537,2.018-0.391c0.543,0.043,0.651-0.694,0.938-1.015
	c0.982-1.346,2.832-1.59,3.901-2.849c0.478-1.616,2.148-2.344,3.505-3.098c1.27-0.646,2.604-1.541,2.983-3.017
	c0.282-0.835,1.129-1.735,2.095-1.389c1.204,0.526,1.302,2.181,0.797,3.244c-0.971,2.04-3.271,2.816-4.964,4.124
	c-2.127,1.465-4.021,3.233-5.843,5.056c-1.221,1.112-2.892,2.095-4.606,1.747c-0.429-0.146-0.771-0.499-0.955-0.911
	c-0.092,0.76-0.13,1.698-0.759,2.225C186.622,212.095,186.438,212.144,186.248,212.122z M177.691,237.041
	c-0.89-0.233-0.895-1.351-0.949-2.078c-0.521-5.561-1.123-11.16-0.667-16.742c0.521-4.097,0.467-8.253,0.694-12.37
	c0.314-8.735,0.401-17.486,0.548-26.216c0.038-0.737,0.363-1.605,0.765-2.083c-0.325-0.044-0.618-0.288-0.808-0.483
	c-1.231,0.988-2.295,2.377-2.42,4.016c-0.104,0.867-0.646,1.546-1.155,2.213c-1.628,2.501-2.051,5.6-3.483,8.188
	c-0.575,0.58-1.682,0.021-1.552-0.798c-0.401-3.12,1.031-6.061,2.143-8.876c1.135-2.577,2.322-5.279,4.443-7.194
	c2.322-1.741,5.941-1.296,7.802,0.923c1.373,1.405,2.241,3.271,2.452,5.214c1.025,4.297,3.212,8.263,3.972,12.636
	c0.223,0.808-0.011,1.893-0.906,2.17c-1.145,0.217-2.062-0.852-2.403-1.834c-0.597-1.91-0.911-3.9-1.476-5.827
	c-0.922-3.499-1.958-6.993-3.418-10.303c-0.223-0.429-0.749-0.83-1.204-0.461c-0.142,0.125-0.738,0.168-0.369,0.325
	c0.694,0.57,0.613,1.59,0.694,2.404c-0.151,3.852-0.456,7.698-0.569,11.556c-0.543,14.795-0.564,29.601-1.221,44.385
	C178.668,236.352,178.321,237.101,177.691,237.041z M167.059,242.119c0.086-0.662,0.075-1.329,0.026-1.991
	c-0.054,0.705-0.049,1.422-0.038,2.132l0.012-0.103V242.119z M167.785,255.774c1.389-1.139,2.767-2.441,3.418-4.155
	c-1.025,0.043-2.029-0.473-2.512-1.395c-0.825-1.373-1.047-3.011-1.449-4.541c-0.086-0.581-0.098-0.543-0.07,0.049
	c0.142,3.363,0.331,6.722,0.581,10.075L167.785,255.774z M169.793,271.215c0.65-1.036,0.846-2.311,1.215-3.482
	c1.058-4.086,1.541-8.323,1.486-12.549c-1.025,1.361-2.42,2.854-4.27,2.783c-0.391-0.174-0.348,0.087-0.287,0.429
	c0.357,3.857,0.434,7.764,1.313,11.545c0.13,0.455,0.293,0.917,0.499,1.334L169.793,271.215z M185.895,272.756
	c0.944-2.49,1.216-5.176,1.693-7.785c0.287-1.948,0.32-4.221-1.161-5.719c-1.021-1.149-2.365-1.942-3.516-2.951
	c0.032,5.36,0.151,10.916,2.349,15.896c0.146,0.276,0.315,0.548,0.549,0.765C185.835,272.897,185.862,272.826,185.895,272.756z
	 M172.831,284.313c0.472-1.135,0.521-2.415,0.694-3.625c0.357-3.771,0.575-7.552,0.9-11.328c0.076-0.911,0.141-1.828,0.217-2.739
	c-0.455,2.191-0.879,4.416-1.736,6.494c-0.58,1.286-1.801,2.604-3.347,2.403c-1.688-0.331-2.632-2.034-3.076-3.56
	c-1.085-4.383-1.227-8.924-1.617-13.405c-0.58-8.171-0.841-16.45,0.569-24.55c0.439-3.093,1.107-6.163,1.232-9.288
	c-0.038-1.796-0.402-3.581-0.195-5.377c0.141-1.698,0.368-3.429,0.977-5.014c0.276-0.646,1.27-1.052,1.741-0.379
	c0.662,0.873,0.385,2.045,0.521,3.06c0.055,3.093-0.635,6.212-0.087,9.288c0.532,0.662,0.896,1.433,0.95,2.279
	c0.786,4.508-0.229,9.25,1.236,13.649c0.412,1.356,1.346,2.426,2.268,3.462c1.292,1.476,1.367,3.569,1.477,5.441
	c0.043,1.682,0.135,3.364,0.081,5.046c0.418-3.749,1.058-7.487,1.703-11.198c0.169-0.906,0.157-1.932,0.635-2.729
	c0.635-0.532,1.573,0.298,1.367,1.015c0.19,5.463-0.005,10.942,0.586,16.39c0.055,0.624,0.108,1.248,0.185,1.872
	c-0.054-5.269,0.206-10.705,2.219-15.631c0.348-0.809,1.188-1.758,2.165-1.373c0.195,0.055,0.412,0.445,0.358-0.021
	c0.879-7.227,0.516-14.578,1.709-21.75c0.168-0.727,0.342-1.769,1.242-1.877c0.89-0.098,1.237,0.933,1.373,1.627
	c1.014,5.897,1.274,11.909,1.633,17.888c0.45,9.532,0.559,19.113-0.412,28.624c-0.293,1.997-0.537,4.14-1.66,5.876
	c-0.781,1.14-2.307,1.817-3.657,1.28c-2.072-0.737-3.119-2.924-3.673-4.915c0.603,4.204,1.068,8.458,0.896,12.711
	c2.69-0.559,5.458-1.128,7.845-2.561c0.857-0.602,1.996-1.193,2.116-2.365c0.113-1.188,0.087-2.387,0.217-3.575
	c0.607-11.415,0.434-22.847,0.749-34.272c0.064-0.792,0.71-1.416,1.03-2.126c3.017-5.252,6.651-10.097,10.373-14.86
	c1.46-1.942,3.001-3.874,4.059-6.065c0.439-1.135,0.271-2.42-0.293-3.473c-1.14-2.8-1.471-5.838-1.405-8.844
	c0.07-5.153,1.068-10.237,2.138-15.267c0.537-2.263,1.595-4.622,3.705-5.789c2.225-1.399,5.165-1.834,6.81-4.047
	c1.161-1.97,0.803-4.367,0.868-6.57c-0.022-0.543-0.038-1.106-0.195-1.617c-1.932,0.505-3.944,0.044-5.882-0.266
	c-0.591-0.13-1.27-0.168-1.698,0.348c-0.667,0.748-1.145,1.639-1.866,2.338c-1.48,1.66-3.114,3.239-5.051,4.341
	c-0.705,0.276-1.605-0.516-1.188-1.231c0.548-1.178,1.628-1.965,2.441-2.952c1.503-1.552,3.288-3.108,3.88-5.273
	c0.472-1.926,1.958-3.363,3.07-4.947c2.507-3.137,5.67-5.784,7.683-9.294c0.895-2.121,0.136-4.454-0.348-6.587
	c-0.977-3.775-2.49-7.421-4.579-10.725c-1.855-3.13-2.414-6.853-2.436-10.455c0.032-3.461,0.613-6.923,1.692-10.206
	c0.228-0.759,0.972-1.692,1.861-1.313c0.255,0.108,0.493,0.331,0.64,0.531c-0.684-2.496,0.564-5.045,0.131-7.568
	c-0.662-6.657-6.039-12.63-12.646-13.894c-3.445-0.922-6.608-2.604-9.723-4.302c-2.875-1.042-6.017-0.542-9.017-0.548
	c-6.88,0.261-13.759-0.684-20.644-0.293c-2.632,0.239-5.246,0.966-7.515,2.328c-3.396,1.546-7.378,2.17-10.167,4.813
	c-3.32,3.108-4.883,7.536-6.521,11.681c-1.085,2.382-0.933,5.057-1.329,7.596c-0.688,6.06-1.297,12.158-2.832,18.066
	c-0.602,2.078-1.695,3.955-2.837,5.778c-2.057,3.971-3.546,8.252-4.045,12.706c-0.09,1.552,0.562,3.055,1.593,4.199
	c2.867,3.809,6.641,6.917,9.049,11.067c0.575,0.934,0.575,2.105,1.231,2.984c1.514,2.469,4.097,4.096,5.615,6.56
	c0.38,0.623-0.232,1.421-0.928,1.323c-0.856-0.136-1.454-0.89-2.164-1.34c-1.802-1.481-3.429-3.19-4.77-5.105
	c-0.439-0.629-1.236-0.868-1.958-0.651c-1.611,0.342-3.244,0.679-4.904,0.439c-0.355,0.061-1.083-0.38-1.08,0.201
	c-0.021,2.518-0.423,5.182,0.627,7.552c1.134,1.927,3.415,2.588,5.313,3.467c2.182,0.874,4.15,2.55,4.796,4.878
	c1.205,3.336,1.541,6.912,2.148,10.4c0.657,4.715,1.031,9.668-0.406,14.279c-0.537,1.448-1.405,3.055-0.722,4.606
	c0.824,2.127,2.414,3.809,3.7,5.664c2.811,3.668,5.566,7.379,8.388,11.041c1.573,1.773,3.331,3.434,4.384,5.593
	c2.181,4.069,2.761,8.984,1.497,13.438c-0.445,2.49,0.055,5.008,0.499,7.455c0.618,5.805-1.248,11.496-1.009,17.285
	c0.293,0.809,1.193,1.172,1.85,1.649c2.632,1.557,5.307,3.119,8.241,4.042C172.527,284.264,172.679,284.29,172.831,284.313z
	 M175.044,288.305c-3.667-0.586-7.378-1.367-10.611-3.244c-1.953-1.047-3.95-2.24-5.263-4.058c-0.814-1.655-0.467-3.592-0.607-5.382
	c-0.098-9.733,1.074-19.445,0.727-29.178c-0.163-2.643-1.025-5.312-2.821-7.303c-0.781-0.993-1.823-1.851-2.268-3.044
	c-0.435-0.461-0.896-0.868-1.227-1.41c-3.749-4.677-7.845-9.088-11.317-13.976c-1.052-1.66-1.421-3.755-0.803-5.638
	c0.841-3.732,2.675-7.378,2.116-11.279c-0.456-4.204-1.216-8.409-2.257-12.5c-0.293-1.15-0.944-2.17-1.823-2.946
	c-1.617-1.665-3.687-2.788-5.754-3.781c-2.173-1.443-3.038-4.161-3.192-6.662c-0.236-2.924-0.108-5.903-0.825-8.757
	c-0.806-3.603-2.49-7.074-2.257-10.84c0.139-2.425,0.684-4.801,1.063-7.193c0.79-4.188,2.06-8.295,3.985-12.099
	c1.473-3.689,1.761-7.693,2.631-11.545c0.613-3.293,1.27-6.608,1.761-9.901c-0.366-0.222-0.882-0.157-1.291-0.304
	c-2.621-0.396-5.295-0.461-7.895-1.047c-10.671-1.915-21.031-5.214-31.313-8.61C85.252,104,74.803,99.991,64.828,94.989
	c-10.403-5.415-19.734-12.744-28.106-20.904c-8.615-8.491-16.292-18.007-21.964-28.728c-3.063-5.8-5.905-11.724-8.553-17.735
	c-1.639-3.874-3.31-7.764-4.484-11.811C0.516,11.39-0.263,6.783,0.082,2.193c0.108-1.025,0.787-2.138,1.92-2.159
	C3.25-0.167,4.55,0.539,5.021,1.727c4.935,8.501,8.781,17.627,13.981,25.971c6.768,11.225,14.896,21.804,25.188,29.964
	c7.106,5.512,15.421,9.25,23.939,12.083c13.701,4.655,27.905,7.568,41.843,11.398c12.847,3.418,25.589,7.33,38.629,9.939
	c0.911,0.222,1.915,0.559,2.777,0.016c3.537-1.334,7.025-2.837,10.634-3.944c6.728-0.548,13.487-0.336,20.226-0.385
	c5.019,0.027,10.053-0.011,15.05,0.412c2.062,0.26,3.999,1.09,5.691,2.262c1.313,0.765,2.881,1.102,4.373,0.732
	c5.968-0.803,11.832-2.208,17.691-3.483c6.641-1.492,13.325-2.772,20.058-3.781c7.449-1.183,14.86-2.604,22.152-4.536
	c8.768-2.257,17.388-5.198,25.553-9.12c1.753-0.662,3.538-1.248,5.046-2.376c4.878-3.125,9.619-6.51,14.03-10.249
	c6.781-5.914,12.451-13.015,17.822-20.215c5.734-7.731,10.867-15.875,15.869-24.088c1.204-1.91,2.425-3.999,4.427-5.149
	c0.944-0.439,2.388-0.629,3.049,0.364c0.603,1.112,0.136,2.419,0.146,3.619c-0.992,10.14-4.958,19.688-9.461,28.727
	c-6.988,13.748-15.918,26.492-26.216,37.956c-4.362,4.801-8.936,9.435-13.933,13.59c-5.11,3.868-11.073,6.37-16.753,9.261
	c-5.724,2.686-11.833,4.427-17.958,5.957c-10.715,2.799-21.561,5.187-32.01,8.865c-3.027,1.118-5.93,2.61-8.615,4.378
	c-0.803,0.483-1.704,0.841-2.507,1.27c-0.087,1.639,0.679,3.407-0.174,4.954c-0.846,1.741-2.956,2.387-4.785,2.29
	c-0.391,0.06-0.856-0.158-1.21-0.011c0.282,4.134,0.793,8.344,2.702,12.077c1.416,2.957,2.365,6.098,3.044,9.304
	c0.656,3.104,1.188,6.255,1.361,9.429c-0.103,4.33-2.327,8.252-2.713,12.533c-0.482,3.212,0.065,6.635-1.155,9.706
	c-0.591,1.601-1.807,2.935-3.374,3.613c-1.356,0.64-2.67,1.346-3.771,2.371c-1.302,1.009-2.565,2.311-2.87,3.998
	c-1.106,3.847-1.616,7.855-2.219,11.811c-0.298,2.441-0.005,4.932,0.781,7.254c0.673,2.382,1.698,4.774,1.568,7.298
	c-0.375,2.805-2.539,4.872-4.167,7.021c-3.483,4.318-7.427,8.365-10.107,13.243c-1.996,4.188-1.769,8.989-1.97,13.536
	c-0.146,6.624-0.108,13.275,0.543,19.873c0.223,2.219,0.689,4.46,0.461,6.695c-0.217,1.725-1.291,3.151-2.528,4.302
	c-3.775,3.662-9.195,5.344-14.409,5.062c-1.14,0.076-1.889-1.209-1.601-2.234c0.108-4.492-0.537-8.947-1.178-13.38
	c-0.624,2.876-1.09,5.816-1.139,8.773c0.098,1.823,0.586,3.673,0.064,5.469C176.629,287.024,176.178,288.381,175.044,288.305z"/>
<path fill="#E8CF98" d="M136.158,113.109c0.591,0.038,1.354-0.244,1.375-0.928c1.389-4.888,3.277-9.641,5.675-14.117
	c0.635-1.123,1.422-2.257,2.159-3.261c-6.499-0.7-12.79-2.572-19.118-4.161c-11.195-2.968-22.337-6.136-33.567-8.99
	c-9.909-2.577-19.881-5.057-29.457-8.735c-8.867-3.489-17.171-8.42-24.316-14.725c-6.241-5.458-12.329-11.203-17.127-17.996
	c-5.629-7.894-10.333-16.434-14.31-25.266c-1.289-2.93-2.46-5.914-3.727-8.854c0.233,2.68,1.193,5.197,1.918,7.769
	c4.907,15.305,12.079,29.855,20.934,43.246c4.183,6.277,8.646,12.473,14.621,17.101c7.688,6.353,15.837,12.174,24.542,17.036
	c7.544,4.074,15.665,7.047,23.744,9.907c11.8,4.058,23.738,7.758,35.935,10.449C128.964,112.323,132.536,113.055,136.158,113.109
	 M226.417,116.202c2.431-0.152,4.188-2.121,6.364-2.962c5.533-2.615,11.479-4.221,17.317-6.011
	c7.541-2.192,15.224-3.928,22.737-6.19c12.094-3.803,23.84-9.223,33.659-17.345c5.757-4.921,10.542-10.911,15.202-16.846
	c7.4-9.685,13.927-20.063,19.319-30.979c3.033-6.25,5.61-12.766,7.275-19.515c-2.208,3.017-3.89,6.402-5.989,9.489
	c-8.442,13.281-18.213,25.949-30.464,35.927c-10.221,8.393-22.243,14.377-34.798,18.446c-10.818,3.586-22.076,5.583-33.317,7.357
	c-10.52,1.817-21.028,3.781-31.418,6.196c2.181,1.025,4.091,2.609,5.768,4.33c3.586,3.955,4.975,9.483,4.698,14.735
	c0.043,0.857-0.445,2.029,0.439,2.615C224.258,115.795,225.305,116.126,226.417,116.202"/>
</svg>
