<?xml version="1.0" encoding="utf-8"?>
<!DOCTYPE svg PUBLIC "-//W3C//DTD SVG 1.1//EN" "http://www.w3.org/Graphics/SVG/1.1/DTD/svg11.dtd">
<svg xmlns="http://www.w3.org/2000/svg" viewBox="0 0 353.359 288.308" overflow="visible">
<g>
	<path d="M175.047,288.305c-3.668-0.586-7.379-1.368-10.617-3.247c-1.953-1.046-3.95-2.238-5.262-4.058
		c-0.813-1.656-0.465-3.591-0.602-5.379c-0.101-9.734,1.071-19.445,0.727-29.181c-0.164-2.644-1.027-5.312-2.828-7.3
		c-0.781-0.997-1.82-1.852-2.266-3.047c-0.429-0.457-0.894-0.868-1.222-1.411c-3.75-4.675-7.848-9.085-11.321-13.972
		c-1.047-1.66-1.422-3.758-0.804-5.642c0.843-3.729,2.679-7.375,2.121-11.276c-0.461-4.203-1.219-8.406-2.262-12.5
		c-0.289-1.149-0.938-2.172-1.816-2.945c-1.625-1.668-3.692-2.79-5.758-3.782c-2.172-1.44-3.039-4.164-3.192-6.664
		c-0.238-2.926-0.109-5.901-0.824-8.758c-0.808-3.597-2.492-7.07-2.258-10.839c0.137-2.422,0.684-4.801,1.063-7.192
		c0.789-4.187,2.058-8.297,3.984-12.097c1.473-3.688,1.762-7.696,2.633-11.547c0.613-3.293,1.27-6.606,1.758-9.899
		c-0.363-0.222-0.879-0.16-1.289-0.304c-2.621-0.399-5.297-0.465-7.895-1.047c-10.672-1.918-21.031-5.215-31.312-8.61
		c-10.551-3.609-21-7.621-30.977-12.621c-10.402-5.414-19.734-12.742-28.105-20.902c-8.614-8.492-16.293-18.008-21.965-28.727
		c-3.063-5.804-5.906-11.726-8.551-17.738c-1.641-3.875-3.309-7.766-4.484-11.813C0.516,11.391-0.262,6.785,0.082,2.195
		c0.109-1.027,0.789-2.14,1.922-2.16C3.25-0.168,4.551,0.539,5.023,1.723c4.934,8.507,8.782,17.628,13.981,25.976
		C25.773,38.922,33.898,49.5,44.191,57.66c7.106,5.512,15.422,9.25,23.938,12.086c13.703,4.652,27.906,7.566,41.844,11.398
		c12.847,3.418,25.59,7.329,38.629,9.938c0.91,0.219,1.914,0.559,2.781,0.019c3.535-1.339,7.023-2.843,10.633-3.945
		c6.726-0.551,13.484-0.34,20.226-0.39c5.016,0.027,10.051-0.008,15.047,0.417c2.066,0.258,4,1.086,5.691,2.262
		c1.313,0.762,2.883,1.102,4.375,0.731c5.965-0.801,11.828-2.207,17.691-3.481c6.637-1.492,13.324-2.773,20.055-3.785
		c7.449-1.18,14.859-2.602,22.152-4.535c8.77-2.258,17.387-5.195,25.555-9.117c1.75-0.664,3.535-1.25,5.047-2.379
		c4.875-3.125,9.617-6.508,14.027-10.246c6.781-5.918,12.453-13.02,17.824-20.215c5.73-7.731,10.863-15.879,15.867-24.09
		c1.207-1.91,2.426-4,4.43-5.152c0.941-0.438,2.387-0.625,3.047,0.367c0.602,1.113,0.137,2.422,0.145,3.617
		c-0.988,10.141-4.957,19.691-9.461,28.727c-6.984,13.75-15.914,26.492-26.215,37.957c-4.363,4.804-8.938,9.437-13.934,13.589
		c-5.105,3.868-11.07,6.372-16.75,9.262c-5.727,2.688-11.832,4.43-17.961,5.957c-10.711,2.801-21.559,5.188-32.008,8.867
		c-3.027,1.114-5.934,2.606-8.613,4.379c-0.805,0.481-1.707,0.836-2.508,1.266c-0.086,1.641,0.676,3.41-0.176,4.953
		c-0.844,1.746-2.957,2.391-4.781,2.289c-0.395,0.063-0.859-0.152-1.211-0.008c0.281,4.133,0.793,8.344,2.703,12.078
		c1.414,2.957,2.363,6.098,3.039,9.301c0.66,3.106,1.191,6.258,1.363,9.431c-0.102,4.327-2.328,8.25-2.715,12.53
		c-0.48,3.216,0.066,6.638-1.156,9.707c-0.586,1.603-1.805,2.938-3.375,3.613c-1.355,0.641-2.668,1.344-3.766,2.372
		c-1.305,1.011-2.566,2.312-2.871,4c-1.105,3.847-1.617,7.854-2.219,11.808c-0.297,2.445-0.008,4.935,0.781,7.259
		c0.672,2.379,1.695,4.77,1.566,7.293c-0.375,2.809-2.539,4.87-4.164,7.022c-3.484,4.317-7.43,8.368-10.109,13.243
		c-2,4.187-1.77,8.988-1.969,13.535c-0.148,6.625-0.109,13.276,0.543,19.875c0.223,2.218,0.691,4.461,0.461,6.694
		c-0.219,1.724-1.297,3.152-2.527,4.302c-3.777,3.66-9.199,5.344-14.41,5.062c-1.145,0.075-1.891-1.211-1.602-2.233
		c0.109-4.496-0.535-8.949-1.176-13.384c-0.625,2.879-1.094,5.82-1.145,8.777c0.098,1.821,0.586,3.668,0.07,5.469
		C176.625,287.022,176.18,288.379,175.047,288.305L175.047,288.305z M172.828,284.312c0.477-1.136,0.523-2.418,0.699-3.625
		c0.355-3.772,0.574-7.554,0.902-11.328c0.07-0.914,0.137-1.828,0.215-2.742c-0.453,2.191-0.879,4.418-1.738,6.496
		c-0.578,1.285-1.801,2.603-3.348,2.403c-1.688-0.329-2.628-2.036-3.071-3.559c-1.093-4.384-1.23-8.923-1.621-13.406
		c-0.582-8.172-0.84-16.45,0.571-24.551c0.441-3.091,1.105-6.164,1.226-9.289c-0.035-1.793-0.394-3.578-0.191-5.375
		c0.144-1.695,0.367-3.427,0.976-5.013c0.278-0.647,1.27-1.051,1.742-0.379c0.66,0.871,0.383,2.047,0.52,3.06
		c0.055,3.094-0.637,6.211-0.086,9.289c0.531,0.66,0.891,1.43,0.953,2.276c0.785,4.508-0.23,9.25,1.234,13.649
		c0.41,1.358,1.344,2.425,2.27,3.464c1.285,1.477,1.367,3.571,1.473,5.442c0.043,1.68,0.137,3.362,0.082,5.043
		c0.414-3.746,1.059-7.485,1.703-11.195c0.164-0.907,0.156-1.934,0.637-2.731c0.633-0.53,1.574,0.298,1.367,1.017
		c0.188,5.465-0.008,10.945,0.582,16.39c0.055,0.621,0.113,1.246,0.184,1.871c-0.051-5.269,0.211-10.703,2.223-15.628
		c0.348-0.809,1.188-1.758,2.16-1.375c0.199,0.054,0.418,0.445,0.363-0.02c0.875-7.228,0.516-14.578,1.707-21.755
		c0.168-0.726,0.34-1.766,1.246-1.875c0.891-0.098,1.234,0.935,1.371,1.625c1.012,5.902,1.27,11.91,1.633,17.888
		c0.449,9.535,0.559,19.117-0.418,28.625c-0.289,2-0.531,4.144-1.652,5.875c-0.785,1.144-2.309,1.819-3.656,1.28
		c-2.074-0.733-3.125-2.922-3.676-4.913c0.602,4.206,1.066,8.457,0.891,12.715c2.691-0.563,5.461-1.129,7.852-2.563
		c0.855-0.601,1.992-1.194,2.109-2.367c0.117-1.187,0.094-2.387,0.219-3.573c0.613-11.414,0.438-22.849,0.75-34.271
		c0.063-0.793,0.711-1.418,1.031-2.129c3.016-5.25,6.648-10.097,10.375-14.859c1.457-1.94,2.996-3.875,4.055-6.065
		c0.441-1.133,0.273-2.418-0.293-3.474c-1.137-2.801-1.469-5.84-1.402-8.844c0.07-5.156,1.07-10.237,2.137-15.265
		c0.535-2.267,1.594-4.621,3.707-5.793c2.223-1.399,5.164-1.832,6.805-4.043c1.164-1.974,0.805-4.367,0.867-6.571
		c-0.02-0.543-0.035-1.104-0.191-1.617c-1.934,0.504-3.945,0.043-5.883-0.265c-0.59-0.133-1.27-0.168-1.699,0.347
		c-0.664,0.746-1.145,1.638-1.863,2.34c-1.48,1.656-3.113,3.238-5.051,4.341c-0.707,0.272-1.609-0.517-1.188-1.234
		c0.543-1.18,1.625-1.965,2.438-2.95c1.504-1.55,3.293-3.108,3.883-5.272c0.473-1.927,1.957-3.367,3.07-4.949
		c2.508-3.137,5.668-5.782,7.68-9.293c0.895-2.121,0.137-4.457-0.344-6.586c-0.98-3.778-2.492-7.422-4.582-10.727
		c-1.855-3.129-2.41-6.851-2.434-10.453c0.031-3.461,0.609-6.926,1.691-10.207c0.227-0.762,0.973-1.695,1.863-1.312
		c0.254,0.105,0.492,0.332,0.637,0.531c-0.68-2.496,0.566-5.047,0.129-7.567c-0.66-6.66-6.039-12.632-12.645-13.894
		c-3.445-0.926-6.605-2.609-9.723-4.301c-2.875-1.043-6.016-0.543-9.016-0.551c-6.883,0.258-13.762-0.683-20.644-0.293
		c-2.633,0.239-5.243,0.965-7.516,2.325c-3.395,1.55-7.379,2.175-10.164,4.812c-3.32,3.113-4.887,7.539-6.52,11.684
		c-1.089,2.379-0.937,5.054-1.332,7.597c-0.691,6.055-1.296,12.157-2.832,18.063c-0.601,2.078-1.695,3.957-2.836,5.781
		c-2.058,3.968-3.546,8.25-4.046,12.703c-0.09,1.555,0.562,3.056,1.593,4.203c2.867,3.806,6.641,6.914,9.047,11.067
		c0.574,0.933,0.578,2.104,1.235,2.983c1.515,2.47,4.093,4.095,5.613,6.56c0.379,0.625-0.231,1.418-0.926,1.324
		c-0.859-0.138-1.453-0.892-2.164-1.341c-1.805-1.479-3.43-3.19-4.77-5.108c-0.437-0.629-1.238-0.864-1.957-0.649
		c-1.613,0.34-3.246,0.681-4.906,0.442c-0.355,0.058-1.082-0.383-1.078,0.195c-0.023,2.52-0.426,5.184,0.625,7.555
		c1.133,1.925,3.414,2.59,5.316,3.465c2.18,0.875,4.149,2.55,4.797,4.878c1.203,3.34,1.539,6.914,2.145,10.399
		c0.656,4.719,1.031,9.672-0.406,14.28c-0.539,1.449-1.403,3.056-0.727,4.606c0.832,2.128,2.418,3.812,3.707,5.664
		c2.809,3.668,5.566,7.382,8.387,11.043c1.57,1.772,3.332,3.433,4.379,5.593c2.187,4.067,2.765,8.981,1.504,13.438
		c-0.446,2.487,0.054,5.008,0.496,7.457c0.621,5.801-1.246,11.491-1.008,17.28c0.293,0.81,1.195,1.173,1.848,1.652
		c2.628,1.555,5.308,3.118,8.238,4.04C172.531,284.262,172.68,284.289,172.828,284.312L172.828,284.312z M185.895,272.754
		c0.945-2.488,1.219-5.177,1.695-7.785c0.285-1.946,0.32-4.219-1.16-5.719c-1.023-1.149-2.367-1.942-3.516-2.953
		c0.031,5.362,0.148,10.918,2.348,15.897c0.145,0.278,0.313,0.552,0.547,0.767C185.836,272.894,185.863,272.823,185.895,272.754
		L185.895,272.754z M169.793,271.215c0.652-1.035,0.844-2.313,1.215-3.485c1.059-4.086,1.539-8.32,1.488-12.55
		c-1.027,1.363-2.422,2.854-4.27,2.785c-0.391-0.172-0.348,0.09-0.286,0.426c0.352,3.859,0.434,7.765,1.313,11.546
		c0.129,0.457,0.293,0.918,0.496,1.336L169.793,271.215z M167.785,255.772c1.391-1.136,2.77-2.44,3.422-4.156
		c-1.027,0.043-2.031-0.473-2.516-1.391c-0.824-1.375-1.046-3.011-1.445-4.543c-0.09-0.582-0.098-0.542-0.074,0.047
		c0.141,3.364,0.332,6.724,0.582,10.078L167.785,255.772z M167.059,242.116c0.086-0.659,0.078-1.327,0.027-1.991
		c-0.055,0.707-0.051,1.422-0.039,2.133l0.008-0.103L167.059,242.116z M177.691,237.039c-0.887-0.234-0.895-1.349-0.949-2.078
		c-0.52-5.56-1.125-11.16-0.664-16.742c0.52-4.098,0.461-8.25,0.691-12.371c0.316-8.735,0.398-17.485,0.551-26.215
		c0.039-0.739,0.363-1.606,0.762-2.082c-0.32-0.043-0.621-0.289-0.809-0.485c-1.23,0.992-2.289,2.375-2.418,4.017
		c-0.105,0.866-0.645,1.547-1.156,2.215c-1.629,2.5-2.047,5.597-3.484,8.187c-0.574,0.578-1.68,0.021-1.551-0.797
		c-0.402-3.121,1.031-6.062,2.145-8.879c1.137-2.574,2.32-5.277,4.445-7.191c2.32-1.745,5.938-1.297,7.801,0.923
		c1.371,1.405,2.238,3.269,2.449,5.215c1.027,4.293,3.211,8.262,3.969,12.633c0.227,0.808-0.008,1.894-0.902,2.168
		c-1.145,0.218-2.063-0.852-2.406-1.832c-0.594-1.907-0.91-3.903-1.469-5.829c-0.926-3.496-1.961-6.992-3.426-10.3
		c-0.219-0.43-0.75-0.832-1.203-0.461c-0.141,0.125-0.734,0.168-0.363,0.328c0.691,0.565,0.609,1.59,0.691,2.401
		c-0.152,3.853-0.453,7.699-0.57,11.556c-0.543,14.793-0.563,29.601-1.223,44.387C178.668,236.348,178.324,237.101,177.691,237.039
		L177.691,237.039z M186.25,212.121c-1.043-0.277-1.184-1.56-1.137-2.462c0.047-4.219,0.152-8.504,1.199-12.604
		c0.246-0.637,0.906-1.118,1.602-1.004c1.324-0.407,2.199-1.598,3.199-2.493c0.883-0.843,1.848-1.789,3.102-1.976
		c0.883,0.121,1.016,1.358,0.395,1.871c-1.727,2.737-4.77,4.465-6.035,7.512c-0.82,2.34-0.621,4.871-0.898,7.308
		c0.465-0.672,1.336-0.535,2.02-0.39c0.539,0.047,0.652-0.692,0.938-1.017c0.98-1.344,2.832-1.59,3.902-2.844
		c0.473-1.621,2.148-2.347,3.504-3.097c1.27-0.649,2.605-1.543,2.98-3.021c0.281-0.832,1.133-1.733,2.094-1.387
		c1.207,0.524,1.305,2.18,0.801,3.243c-0.977,2.039-3.27,2.816-4.965,4.125c-2.129,1.461-4.02,3.229-5.844,5.054
		c-1.223,1.114-2.891,2.094-4.605,1.746c-0.43-0.144-0.773-0.5-0.953-0.91c-0.094,0.763-0.129,1.699-0.762,2.224
		C186.625,212.094,186.438,212.141,186.25,212.121L186.25,212.121z M167.129,212.112c-0.906-0.151-1.094-1.25-1.094-2.019
		c0.028-0.422-0.062-0.262-0.203-0.024c-0.715,0.992-2.137,0.746-3.125,0.36c-2.484-1.021-3.949-3.457-6.082-5
		c-1.77-1.465-3.781-2.61-5.641-3.954c-1.156-0.918-2.031-2.457-1.511-3.949c0.25-0.832,1.304-1.422,2.074-0.875
		c1.152,0.692,0.996,2.332,2.094,3.067c1.566,1.386,3.937,1.832,5.082,3.668c0.187,0.562,0.476,1.136,1.078,1.332
		c1.414,0.781,2.992,1.578,3.703,3.117c0.504,0.246,1.082-0.274,1.621-0.047c0.285,0.069,0.543,0.254,0.715,0.491
		c-0.25-2.625-0.067-5.409-1.117-7.858c-1.477-2.806-4.36-4.508-5.965-7.211c-0.293-0.5-0.34-1.34,0.332-1.547
		c0.875-0.281,1.582,0.469,2.238,0.909c1.43,1.149,2.524,2.82,4.301,3.481c0.777-0.168,1.484,0.468,1.613,1.211
		c0.754,2.148,0.692,4.48,0.965,6.718c0.18,2.407,0.383,4.856,0.016,7.25C168.066,211.694,167.66,212.147,167.129,212.112
		L167.129,212.112z M156.758,190.621c-1.363-0.414-1.895-1.918-2.742-2.931c-1.754-2.617-3.641-5.179-5.039-7.996
		c-0.184-0.729,0.652-1.539,1.347-1.094c2.184,0.981,3.309,3.25,4.641,5.114c1.172,1.832,2.406,3.718,2.789,5.894
		C157.746,190.133,157.336,190.69,156.758,190.621L156.758,190.621z M196.551,190.616c-0.926-0.237-0.898-1.44-0.535-2.133
		c1.379-3.315,3.348-6.401,5.813-9.015c0.605-0.551,1.488-1.192,2.328-0.821c0.688,0.512,0.336,1.504-0.109,2.056
		c-2,3.258-4.016,6.53-6.445,9.487C197.32,190.448,196.949,190.655,196.551,190.616L196.551,190.616z M218.016,169.918
		c1.629,0.012,2.879-1.402,3.297-2.879c1.055-2.513,1.605-5.216,1.629-7.941c-2.516,2.8-5.531,5.355-7,8.906
		c-0.207,0.569-0.066,1.387,0.625,1.565C217.016,169.789,217.512,169.918,218.016,169.918L218.016,169.918z M135.469,169.914
		c0.801-0.039,2.023-0.224,2.168-1.188c-0.004-1.593-1.23-2.828-2.047-4.078c-1.531-1.976-3.301-3.738-5.012-5.547
		c0.074,3.313,0.785,6.688,2.465,9.559C133.621,169.401,134.52,169.901,135.469,169.914L135.469,169.914z M151.035,144.383
		c-1.066-0.211-1.32-1.473-1.515-2.371c-0.762-3.707-0.872-7.508-1.25-11.266c-0.016-0.926-0.043-2.086,0.757-2.707
		c0.778-0.356,1.508,0.488,1.528,1.219c0.953,3.636,0.949,7.433,1.668,11.113c0.136,1.172,0.371,2.52-0.266,3.59
		C151.738,144.233,151.391,144.413,151.035,144.383L151.035,144.383z M202.371,144.383c-1.063-0.2-1.363-1.5-1.227-2.43
		c0.508-3.895,0.941-7.812,1.57-11.684c0.188-0.793,0.27-1.882,1.109-2.261c0.637-0.227,1.215,0.343,1.273,0.953
		c0.379,1.601-0.008,3.265-0.105,4.883c-0.34,2.886-0.391,5.832-1.094,8.66c-0.238,0.676-0.465,1.565-1.207,1.847
		C202.59,144.383,202.48,144.394,202.371,144.383L202.371,144.383z M179.242,141.879c-0.832-0.396-0.738-1.504-0.895-2.278
		c-1.172-7.582-0.895-15.289-0.832-22.937c0.07-1.184-0.027-2.398,0.148-3.563c0.277-0.636,1.387-0.503,1.414,0.223
		c0.336,2.152,0.293,4.344,0.535,6.508c0.504,6.902,1.082,13.851,0.492,20.769C180.039,141.113,179.973,141.969,179.242,141.879
		L179.242,141.879z M217.648,124.656c1.32-0.152,2.828,0,3.949-0.84c0.559-0.668-0.074-1.55-0.348-2.203
		c-0.645-1.195-1.539-2.265-2.168-3.476c0.191,1.636,0.945,3.355,0.375,4.996c-0.379,0.738-1.332,0.773-2.027,0.648
		C217.211,123.996,217.238,124.687,217.648,124.656L217.648,124.656z M226.418,116.199c2.43-0.148,4.188-2.117,6.363-2.961
		c5.535-2.617,11.48-4.219,17.316-6.012c7.543-2.191,15.223-3.925,22.738-6.187c12.094-3.805,23.84-9.223,33.66-17.344
		c5.754-4.922,10.539-10.914,15.203-16.847c7.398-9.688,13.926-20.067,19.316-30.981c3.035-6.25,5.609-12.766,7.277-19.512
		c-2.207,3.016-3.891,6.399-5.992,9.489c-8.441,13.281-18.211,25.945-30.461,35.922c-10.223,8.394-22.246,14.382-34.797,18.449
		c-10.82,3.586-22.078,5.582-33.316,7.359c-10.52,1.813-21.031,3.777-31.422,6.192c2.184,1.027,4.09,2.613,5.77,4.328
		c3.586,3.957,4.973,9.484,4.695,14.738c0.047,0.855-0.441,2.031,0.441,2.613C224.258,115.797,225.305,116.125,226.418,116.199
		L226.418,116.199z M136.16,113.108c0.59,0.035,1.356-0.246,1.371-0.929c1.391-4.887,3.278-9.641,5.676-14.114
		c0.637-1.125,1.426-2.261,2.16-3.261c-6.5-0.704-12.789-2.575-19.117-4.164c-11.195-2.965-22.336-6.137-33.566-8.989
		c-9.911-2.578-19.883-5.058-29.457-8.734C54.359,69.426,46.055,64.5,38.91,58.19c-6.242-5.457-12.328-11.199-17.129-17.992
		c-5.629-7.894-10.332-16.433-14.308-25.266C6.184,12,5.012,9.019,3.746,6.078c0.234,2.68,1.192,5.199,1.918,7.77
		c4.906,15.304,12.078,29.855,20.934,43.246c4.183,6.273,8.644,12.468,14.621,17.101c7.687,6.352,15.836,12.172,24.539,17.031
		c7.547,4.079,15.668,7.051,23.746,9.911c11.801,4.058,23.738,7.757,35.934,10.449C128.965,112.32,132.539,113.055,136.16,113.108
		L136.16,113.108z"/>
</g>
</svg>
