<?xml version="1.0"?>
<svg xmlns="http://www.w3.org/2000/svg" viewBox="256 0 960 1152">
<path d="M1187.931,933.924c0,0-52.271,197.17-476.15,197.17c-423.873,0-429.589-162.12-429.083-175.55
	c5.21-138.074,227.746-86.119,227.746-86.119s-86.897,4.328-86.897,82.26c0,64.939,101.805,115.539,307.315,121.21
	C1149.09,1084.444,1187.931,933.924,1187.931,933.924z
M862.289,0c0,0,151.551,14.993,129.812,179.203c0,0,96.17,62.461,89.14,149.051c-7.04,86.584-71.97,188.938-278.994,223.264
	c0,0,120.265-32.923,124.654-99.879c4.7-71.438-118.681-101.742-118.681-168.844c0-67.105,152.86-76.596,140.58-189.48
	C940.67,18.708,862.289,0,862.289,0zM1158.13,800.358c-60.619-104.835-244.97-133.872-377.111-138.025c-114.944-3.611-261.144-11.542-261.144-52.808
	c0-56.148,163.405-23.711,161.3-92.965c-1.887-62.034-154.467-64.028-133.241-217.435c9.846-71.165,97.593-109.797,174.573-126.823
	c76.982-17.023,174.883-50.401,176.743-92.618c1.87-42.219-43.344-56.646-43.344-56.646s26.625,15.877,16.136,46.897
	c-10.49,31.028-46.526,33.19-152.84,35.533c-90.071,1.989-220.768,12.814-306.788,103.718
	c-90.131,95.258-75.76,251.112,124.402,313.541c0,0-216.017,37.114-211.958,157.293c4.024,119.415,143.126,148.108,359.372,152.602
	c219.35,4.556,302.45,26.378,302.45,78.082c0,41.92-66.49,65.51-167.515,69.109c-106.139,3.801-180.855-11.539-181.559-41.129
	c-0.947-39.729,101.024-20.2,101.024-20.2s-37.798-16.594-87.249-14.426c-35.291,1.541-59.682,19.386-60.404,42.205
	c-1.055,33.55,28.996,61.851,110.916,75.41c126.46,20.92,290.356,19.48,396.576-45.46
	C1177.71,927.774,1186.86,850.046,1158.13,800.358"/>
<path fill="#1095C2" d="M741.092,341.356c9.644-4.981-8.186-17.92-7.162-40.724c1.17-25.776,11.869-41.641-3.248-41.241
	c-11.835,0.313-29.35,22.546-26.472,45.182C707.087,327.207,728.74,347.736,741.092,341.356
M725.066,411.359c-12.104,7.963,18.999,16.162,26.467,40.051c8.438,27.002-0.923,46.539,20.967,41.717
	c17.14-3.767,33.941-31.865,20.838-54.442C780.24,416.106,740.578,401.168,725.066,411.359
M674.557,360.845c8.395-6.943-11.71-15.757-15.406-38.268c-4.182-25.448,3.003-43.268-11.695-39.622
	c-11.494,2.863-24.029,28.36-16.546,49.869C638.39,354.329,663.794,369.736,674.557,360.845"/>
</svg>