<?xml version="1.0" encoding="utf-8"?>
<!-- Generator: Adobe Illustrator 12.0.0, SVG Export Plug-In . SVG Version: 6.00 Build 51448)  -->
<!DOCTYPE svg PUBLIC "-//W3C//DTD SVG 1.1//EN" "http://www.w3.org/Graphics/SVG/1.1/DTD/svg11.dtd" [
	<!ENTITY ns_svg "http://www.w3.org/2000/svg">
	<!ENTITY ns_xlink "http://www.w3.org/1999/xlink">
]>
<svg  version="1.1" id="Layer_1" xmlns="&ns_svg;" xmlns:xlink="&ns_xlink;" width="110.314" height="113.59"
	 viewBox="0 0 110.314 113.59" overflow="visible" enable-background="new 0 0 110.314 113.59" xml:space="preserve">
<path fill="#303E51" d="M25,93.59c-2.761,0-5-2.238-5-5s2.239-5,5-5h35c2.762,0,5,2.238,5,5s-2.238,5-5,5"/>
<path fill="#303E51" d="M28.426,69.959c-2.626-0.854-4.063-3.675-3.21-6.301c0.854-2.626,3.674-4.063,6.301-3.21l33.286,10.815
	c2.627,0.854,4.063,3.674,3.211,6.301c-0.854,2.625-3.675,4.063-6.301,3.21"/>
<path fill="#303E51" d="M38.987,48.542c-2.234-1.623-2.729-4.75-1.106-6.984c1.623-2.233,4.75-2.729,6.984-1.106l28.316,20.573
	c2.233,1.623,2.729,4.75,1.105,6.983c-1.622,2.234-4.75,2.729-6.983,1.106"/>
<path fill="#303E51" d="M55.649,31.438c-1.623-2.234-1.128-5.361,1.106-6.984c2.233-1.623,5.361-1.127,6.983,1.106l20.573,28.315
	c1.623,2.234,1.128,5.361-1.106,6.984c-2.233,1.623-5.361,1.128-6.984-1.106"/>
<path fill="#303E51" d="M76.78,20.32c-0.853-2.626,0.585-5.447,3.21-6.3c2.627-0.853,5.447,0.584,6.301,3.21l10.815,33.287
	c0.854,2.626-0.584,5.447-3.21,6.301c-2.626,0.853-5.447-0.584-6.301-3.21"/>
<path fill="#303E51" d="M100.314,16.276c0-2.762,2.237-5,5-5c2.761,0,5,2.239,5,5v35c0,2.761-2.239,5-5,5c-2.763,0-5-2.239-5-5"/>
<path fill="#303E51" d="M10,73.59H0v25c0,8.284,6.716,15,15,15h55c8.284,0,15-6.716,15-15v-25H75v25c0,2.762-2.238,5-5,5H15
	c-2.761,0-5-2.238-5-5V73.59"/>
<path fill="none" stroke="#000000" stroke-width="0" stroke-miterlimit="10" d="M42.649,19.284
	C27.401,32.079,16.457,49.257,11.305,68.484"/>
<path fill="#303E51" d="M45.864,23.114C30.058,34.433,18.018,50.24,11.305,68.484l0,0c3.533-20.207,13.382-38.773,28.13-53.031
	l9.642,11.491L65.631,0L36.222,11.623"/>
</svg>
