<?xml version="1.0" encoding="utf-8"?>
<svg xmlns="http://www.w3.org/2000/svg" xmlns:xlink="http://www.w3.org/1999/xlink" viewBox="42.5 -0.1 97.5 98.1" overflow="visible">
<path fill="#CB443E" d="M92.279,0.429L92.279,0.429c-3.214,0.374-6.48,1.059-9.708,2.034c-2.595,0.786-5.254,1.79-7.902,2.986
	l-0.552,0.212l-0.662,0.278l-1.048,0.467l-0.83,0.378c-1.374,0.681-3.154,1.599-4.867,2.727l-1.037,0.641l-0.369,0.248l-1.344,0.922
	l-0.63,0.451l-1.371,1.038l-0.439,0.353l-1.477,1.229l-1.442,1.313l-0.403,0.371l-1.352,1.356l-0.394,0.414l-1.369,1.507
	l-0.283,0.336l-1.306,1.58L52.29,22.89l-0.375,0.525l-1.03,1.519l-0.448,0.717l-0.846,1.397l-1.174,2.145l-1.064,2.219l-0.756,1.777
	l-0.207,0.508l-0.471,1.289l-0.367,1.019l-0.483,1.559l-0.235,0.791l-0.336,1.333l-0.259,1.039l-0.38,1.879l-0.103,0.532
	L43.4,45.551l-0.232,2.461l-0.025,0.562l-0.079,1.889v1.098l0.006,0.551l0.006,0.345l0.042,1.293l0.103,1.618l0.081,0.839
	l0.235,2.016l0.413,2.431l0.541,2.415l0.077,0.287l0.585,2.082l0.79,2.341l0.913,2.3l0.866,1.883l0.049,0.114l0.128,0.271
	l0.948,1.804l0.338,0.603l0.492,0.839c-0.003-0.006,1.341,2.112,1.341,2.112l0.444,0.671l0.664,0.913l0.325,0.43l0.485,0.657
	l0.356,0.442l1.213,1.468l1.318,1.44l0.384,0.407l1.174,1.159l0.611,0.585l0.98,0.876l0.219,0.229l0.562,0.559l1.263,1.186
	c3.487,3.103,7.353,5.569,11.496,7.343c0.002,0,2.371,0.95,2.371,0.95l0.749,0.274l1.09,0.351l1.283,0.395l0.548,0.148l0.284,0.067
	l1.586,0.395l1.144,0.229l1.274,0.243l0.557,0.082l1.878,0.254l1.118,0.099l1.203,0.097l0.265,0.035
	c0.041,0.002,2.101,0.147,2.101,0.147l0.873,0.03h1.233l0.512-0.003l0.548-0.019l2.05-0.127l0.555-0.058l1.686-0.214l0.877-0.139
	l2.004-0.384l1.707-0.426l0.307-0.08c1.938-0.531,3.895-1.211,5.826-2.023c-0.015,0.005,2.326-0.974,2.326-0.974
	c3.789-1.666,7.533-3.906,11.122-6.659l1.591-1.277l0.944-0.823c-0.009,0.008,1.696-1.546,1.696-1.546l0.767-0.719
	c0.013-0.01,2.78-2.941,2.78-2.941c0.002-0.002,4.434-4.37,4.434-4.37l0.562-0.653l0.271-0.349l0.261-0.383l0.836-1.423l0.381-0.785
	l0.413-0.971l0.499-1.322c0,0,0.555-1.563,0.568-1.604c1.808,1.031,3.092,1.503,3.783,1.354l0.117-0.024l0.818-0.667l-0.554-1.601
	l-1.165-1.239c-0.018-0.02-0.952-0.805-1.443-1.218c0.035-0.084,0.078-0.184,0.078-0.184s0.102-0.251,0.158-0.392
	c0.152-0.126,0.91-0.734,0.91-0.734s-0.175-1.222-0.201-1.4c0.047-0.149,0.17-0.582,0.17-0.582c0.014-0.046,0.393-1.939,0.393-1.939
	l0.071-0.439l0.044-0.341l0.014-0.142l0.068-0.846l0.035-0.81l0.002-0.796l-0.117-1.418c-0.107-1.02-0.379-1.869-0.574-2.42
	l-0.391-0.924l-0.506-0.824l-1.084-1.134c-0.877-0.645-1.794-0.844-2.641-0.616c-0.831,0.224-1.484,0.811-1.84,1.654l-0.188,0.591
	l-0.127,0.739l0.102,1.514l0.063,0.282l0.135,0.591l0.31,0.934l0.433,1l0.52,1.067l0.666,1.172l0.361,0.604l0.387,0.635
	c0.006,0.008,1.367,2.037,1.367,2.037s0.322,0.471,0.441,0.643c-0.049,0.156-0.072,0.233-0.124,0.397
	c-3.398-0.412-4.411-0.156-4.899,0.44l-0.088,0.106l-0.153,1.002l0.038,0.113c0.165,0.517,0.619,1.049,1.469,1.729
	c0,0,1.055,0.743,1.613,1.138c-0.168,0.278-2.279,4.014-2.279,4.014c-1.205,1.903-2.541,3.784-3.967,5.586l-1.729,2.036
	c-2.139,2.029-4.219,3.881-6.324,5.628c-1.945,1.586-3.961,3.069-5.991,4.405c-2.365,1.546-4.529,2.765-6.616,3.726
	c-0.002,0-1.678,0.746-1.678,0.746c-3.004,1.157-6.231,2.033-9.576,2.602l-0.623,0.096l-2.064,0.266l-0.994,0.077
	c-0.004,0-2.473,0.14-2.473,0.14l-1.063,0.027l-0.51,0.003l-1.848-0.052l-0.493-0.021c-0.053-0.002-1.757-0.245-1.757-0.245
	c-2.694-0.448-5.267-1.219-7.645-2.285l-1.29-0.575l-1.126-0.485l-1.003-0.406l-0.441-0.166l-0.389-0.152
	c0-0.001-1.651-0.556-1.651-0.556l-0.111-0.044L70.4,92.132l-0.448-0.221l-0.239-0.122l-1.462-0.725l-1.628-0.925l-0.445-0.258
	l-1.354-0.867l-0.172-0.108l-0.487-0.326l-1.636-1.169l-0.932-0.741l-1.455-1.211l-0.938-0.994l-0.543-0.629l-0.834-0.991
	l-0.258-0.319c-1.383-1.747-2.652-3.678-3.768-5.736c-1.492-2.822-2.62-5.815-3.35-8.897c-0.351-1.435-0.557-2.806-0.712-3.957
	l-0.18-1.849l-0.07-1.756l-0.005-1.366l0.029-1.437l0.03-0.337l0.055-0.713c0-0.002,0.207-2.102,0.207-2.102l0.164-1.294
	l0.196-1.179l0.175-1.129l0.201-1.025l0.225-1.378l0.09-0.531l0.123-0.887l0.044-0.437l0.037-0.399
	c0.037-0.35,0.056-0.699,0.056-1.051c0-0.666-0.067-1.34-0.202-2.035l-0.479-1.445l-0.064-0.135l-0.265-0.533l-0.412-0.684
	l-1.076-1.341l-0.661-0.689c0,0-0.565-0.541-0.658-0.63c-0.021-0.037-0.052-0.093-0.101-0.182c0.22-0.22,0.477-0.478,0.477-0.478
	c0.509-0.318,1.175-0.752,1.331-1.545l0.018-0.095c0,0-0.085-0.466-0.135-0.737c0.254-0.229,0.737-0.662,0.737-0.662l0.572-0.606
	l0.513-0.593l0.967-1.286l0.448-0.662l0.442-0.699l0.333-0.573l1.277-2.359c-0.014,0.025,0.806-1.527,0.806-1.527l0.198-0.398
	l0.116-0.22l0.077-0.138l0.426-0.804l0.423-0.808l0.263-0.463l0.185-0.318l0.7-1.222l0.507-0.805l0.761-1.171
	c-0.012,0.019,1.134-1.537,1.134-1.537c1.728-2.203,3.631-3.956,5.651-5.206c2.878-1.84,5.775-3.461,8.617-4.821l1.332-0.62
	l1.238-0.476l0.595-0.201c3.056-1.051,6.393-1.849,9.919-2.373c3.133-0.471,6.359-0.604,9.588-0.396
	c2.961,0.193,5.914,0.684,8.771,1.453c0.004,0.001,3.93,1.25,3.93,1.25s0.225,0.089,0.326,0.129
	c-0.086,0.033-1.002,0.391-1.002,0.391l-0.89,0.451c-0.946,0.586-1.441,1.152-1.555,1.752l-0.021,0.103l0.197,0.876l0.064,0.088
	c0.277,0.362,0.705,0.597,1.484,0.804l1.045,0.183l0.66,0.061l0.675,0.057c0.004,0,1.7,0.084,1.7,0.084
	c0.044,0.005,2.074,0.113,2.074,0.113l0.836,0.054l1.99,0.141l1.064,0.115l0.551,0.057l1.02,0.111c0,0,0.169,0.022,0.295,0.039
	c0.175,0.128,1.211,0.882,1.211,0.882s0.625,0.51,0.713,0.58c0.063,0.085,0.417,0.565,0.417,0.565l0.7,0.983l0.81,0.951l1.062,0.875
	l1.295,0.59c0,0,0.043,0.015,0.087,0.029c0.067,0.073,1.333,1.462,1.333,1.462l0.309,0.362c0,0,1.009,1.236,1.023,1.253
	c0.048,0.15,0.679,2.144,0.679,2.144s0.182-0.456,0.335-0.843c1.271,1.628,2.467,3.338,3.523,5.134l0.748,1.307l0.221,0.412
	c0,0,0.546,1.065,0.594,1.162c0.023,0.105,0.79,3.743,0.79,3.743c0.021,0.102,0.069,0.353,0.069,0.353l0.707,3.367l0.51,1.917
	c-0.005-0.009,0.639,1.883,0.639,1.883l0.369,0.881l0.438,0.918l0.508,0.907l0.145,0.234c0,0,0.218,0.353,0.303,0.491
	c0.227,1.674,0.357,3.371,0.387,5.048l0.057,2.692l1.529-2.211l0.269-0.5l0.386-1.293c0.04-0.304,0.061-0.597,0.061-0.883
	c0-0.398-0.037-0.786-0.109-1.173l-0.131-0.558l-0.221-0.629c0,0-0.492-0.969-0.548-1.079c-0.495-3.528-1.392-7.05-2.677-10.468
	l-0.58-1.483l-0.18-0.426l-0.84-1.863c0,0-0.195-0.385-0.236-0.47c-0.021-0.078-0.064-0.265-0.064-0.265
	c-0.319-1.326-0.748-2.713-1.282-4.126c-0.007-0.016-0.874-1.965-0.874-1.965c-0.016-0.038-1.088-1.876-1.088-1.876
	c-0.676-1.021-1.452-1.915-2.294-2.688c0.033-0.397,0.128-1.479,0.128-1.479c-0.03-1.125-0.287-2.245-0.757-3.334l-0.819-1.46
	l-0.512-0.715l-0.559-0.64l-0.066-0.072l-1.24-1.162l-1.473-1.049l-0.781-0.472l-0.652-0.341l-0.186-0.091
	c-0.009-0.003-1.678-0.715-1.678-0.715c-0.012-0.005-1.748-0.531-1.748-0.531l-0.854-0.21c0,0-0.51-0.096-0.634-0.118
	c-2.335-1.478-4.901-2.697-7.638-3.615c-2.972-0.998-6.151-1.654-9.449-1.95C98.96-0.008,95.652,0.042,92.279,0.429z M49.963,29.996
	l0.372-0.674l0.264-0.488l0.503-0.912l0.821-1.354l0.418-0.669l0.893-1.319l0.125-0.191l0.32-0.454c0,0,0.333-0.442,0.659-0.875
	c-0.24,0.455-0.492,0.936-0.492,0.936l-0.214,0.396l-0.203,0.414l-0.788,1.502c-0.02,0.033-1.314,2.411-1.314,2.411l-0.248,0.428
	l-0.398,0.627l-0.218,0.314l-0.217,0.329l-0.873,1.164l-0.228,0.256c0,0-0.071,0.082-0.14,0.161
	C49.123,31.749,49.963,29.996,49.963,29.996z M49.455,71.567l-0.102-0.208l-0.892-1.948l-0.88-2.213l-0.761-2.255l-0.636-2.28
	l-0.524-2.331l-0.399-2.34l-0.231-1.967l-0.07-0.771l-0.102-1.599l-0.042-1.221l-0.005-0.336v-0.535l-0.007-1.052l0.078-1.854
	l0.023-0.509l0.221-2.37l0.346-2.347l0.457-2.318l0.248-1l0.138-0.522c0,0,0.057-0.225,0.112-0.442
	c0.144,0.14,0.296,0.285,0.296,0.285l0.603,0.621l0.933,1.168l0.324,0.538l0.226,0.455l0.42,1.219
	c0.099,0.532,0.149,1.07,0.149,1.606c0,0.299-0.015,0.596-0.048,0.892l-0.042,0.428l-0.037,0.396l-0.111,0.812l-0.159,0.902
	l-0.157,0.974l-0.196,1.027l-0.177,1.151l-0.204,1.2l-0.165,1.321c0.001-0.008-0.207,2.046-0.207,2.046l-0.066,0.868l-0.011,0.119
	l-0.021,0.288l-0.031,1.475l0.006,1.451l0.012,0.487l0.061,1.337l0.189,1.922c0.136,1.034,0.358,2.57,0.746,4.167
	c0.371,1.57,0.849,3.123,1.419,4.648C49.928,72.471,49.455,71.567,49.455,71.567z M136.221,51.912
	c0.165,0.061,0.771,0.276,0.932,0.335c0.134,0.138,0.773,0.797,0.773,0.797l0.338,0.568l0.313,0.749
	c0.18,0.518,0.387,1.188,0.471,1.985l0.113,1.328l-0.002,0.662l-0.037,0.746l-0.063,0.791l-0.042,0.399l-0.066,0.4
	c0,0-0.08,0.39-0.162,0.798c-0.395-0.585-0.908-1.353-0.908-1.353l-0.376-0.612l-0.36-0.598l-0.619-1.091l-0.473-0.98l-0.398-0.9
	l-0.252-0.776l-0.121-0.521l-0.038-0.183c0,0-0.064-1.003-0.071-1.11c0.016-0.09,0.075-0.461,0.075-0.461s0.038-0.116,0.073-0.219
	c0.136-0.126,0.637-0.591,0.803-0.743C136.169,51.92,136.177,51.919,136.221,51.912z M136.646,65.711
	c0.021,0.055,0.197,0.49,0.279,0.694c-0.02,0.043-0.218,0.535-0.232,0.569c-0.488-0.346-1.154-0.819-1.154-0.819
	c-0.258-0.206-0.422-0.361-0.559-0.493C135.305,65.639,135.799,65.641,136.646,65.711z M138.408,67.836
	c0.334,0.283,0.566,0.479,0.756,0.642c-0.252-0.133-0.543-0.298-0.84-0.47C138.362,67.929,138.366,67.923,138.408,67.836z
	 M101.957,2.014c3.15,0.279,6.194,0.908,9.05,1.867c1.397,0.471,2.722,1.044,4.002,1.659c-0.468,0.019-1.106,0.041-1.106,0.041
	s-1.045,0.13-1.277,0.16c-0.184-0.084-0.683-0.311-0.683-0.311l-1.921-0.758c-0.015-0.005-4.094-1.301-4.094-1.301
	c-2.888-0.781-5.872-1.271-8.87-1.478C98.715,1.859,100.359,1.868,101.957,2.014z M108.725,8.771l0.721-0.365l0.904-0.35
	l1.094-0.326c0,0,0.708-0.144,0.945-0.19c0.226,0.105,1.021,0.471,1.021,0.471l2.014,1.041c0,0,0.912,0.531,1.334,0.777
	c-0.525-0.039-1.619-0.119-1.619-0.119l-0.89-0.056c-0.013-0.001-2.085-0.112-2.085-0.112c-0.004,0-1.627-0.083-1.627-0.083
	l-0.685-0.057l-0.579-0.054c0,0-0.691-0.115-0.796-0.134c-0.032-0.013-0.124-0.054-0.226-0.099
	C108.364,9.019,108.502,8.908,108.725,8.771z M125.768,14.457l-1.638-1.474l-0.546-0.451l-0.516-0.418l-0.414-0.512l-0.488-0.49
	l-1.485-0.806l-0.368-0.268l-1.738-1.144l-0.604-0.37l-1.695-0.991c0,0-0.324-0.169-0.521-0.271
	c0.228,0.004,0.524,0.009,0.524,0.009l0.771,0.042c0,0,1.426,0.181,1.542,0.196c0.13,0.085,0.378,0.25,0.378,0.25
	c2.893,1.947,5.3,4.349,7.115,7.011C125.977,14.664,125.768,14.457,125.768,14.457z M123.295,8.966
	c0.008,0.003,0.078,0.032,0.078,0.032l0.16,0.074l0.557,0.291l0.697,0.418l1.309,0.931l1.122,1.061l0.486,0.549l0.417,0.591
	l0.713,1.257c0.359,0.845,0.564,1.742,0.586,2.617c0,0-0.009,0.129-0.013,0.18c-0.011-0.009-0.034-0.023-0.042-0.029
	C127.96,14.013,125.883,11.306,123.295,8.966z M129.547,18.722c-0.109,0.08-0.18,0.129-0.229,0.164
	c-0.021-0.072-0.025-0.087-0.048-0.152C129.324,18.731,129.416,18.726,129.547,18.722z"/>
<g>
	<path fill="#CB443E" d="M89.584,18.006c-0.052,0.054-0.392,0.437-0.392,1.289c0,0.318,0.047,0.702,0.175,1.158l0,0
		c0.107,0.382,0.27,0.757,0.442,1.153c0.334,0.769,0.696,1.602,0.696,2.64c0,0.632-0.134,1.341-0.49,2.158
		c-0.79,1.814-1.249,3.19-1.249,4.591c0,0.793,0.149,1.596,0.468,2.49c-1.068-0.96-2.359-2.812-2.359-5.27
		c0-0.111,0.003-0.223,0.008-0.337c0.005-0.108,0.007-0.215,0.007-0.32c0-2.438-1.371-3.839-2.482-4.975
		c-0.502-0.513-0.977-0.999-1.25-1.501c-0.252-0.466-0.304-0.812-0.304-1.018c0-0.142,0.024-0.217,0.025-0.219
		c0.012-0.035,0.018-0.07,0.018-0.106c0-0.122-0.069-0.239-0.184-0.292c-0.148-0.069-0.324-0.019-0.408,0.123
		c-0.027,0.046-0.16,0.292-0.16,0.733c0,0.403,0.11,0.97,0.514,1.698c0.192,0.347,0.437,0.674,0.696,1.021
		c0.669,0.893,1.411,1.885,1.411,3.514c0,0.339-0.032,0.707-0.104,1.106c-0.211,1.174-0.342,2.165-0.342,3.065
		c0,1.441,0.344,2.653,1.223,4.009c-1.318-0.717-3.104-2.329-3.588-4.917c-0.486-2.595-2.229-3.696-3.628-4.581
		c-0.607-0.384-1.181-0.746-1.563-1.173c-0.524-0.586-0.557-1.018-0.557-1.117c0-0.014,0-0.021,0-0.021
		c0.001-0.011,0.002-0.022,0.002-0.032c0-0.151-0.105-0.287-0.255-0.317c-0.161-0.033-0.32,0.057-0.369,0.213
		c-0.01,0.031-0.04,0.142-0.04,0.319c0,0.385,0.142,1.084,0.945,1.965c0.267,0.293,0.58,0.555,0.913,0.832
		c1.035,0.864,2.208,1.843,2.337,4.195c0.169,3.095,0.583,4.865,2.479,6.678c-1.448-0.396-3.55-1.553-4.616-3.955
		c-1.071-2.413-3.021-3.083-4.587-3.621c-0.68-0.233-1.321-0.454-1.791-0.781c-0.734-0.511-0.804-0.975-0.804-0.979
		c-0.022-0.163-0.164-0.287-0.328-0.282c-0.164,0.005-0.298,0.129-0.31,0.292c-0.001,0.008-0.001,0.022-0.001,0.042
		c0,0.214,0.089,1.07,1.408,1.972c0.328,0.224,0.693,0.406,1.08,0.599c1.207,0.602,2.574,1.285,3.242,3.543
		c0.879,2.973,1.69,4.6,3.954,5.927c-1.5-0.052-3.814-0.693-5.406-2.785c-1.598-2.101-3.65-2.303-5.298-2.465
		c-0.715-0.07-1.39-0.137-1.923-0.347c-0.832-0.328-1.006-0.763-1.008-0.767c-0.059-0.153-0.225-0.241-0.384-0.199
		c-0.142,0.038-0.238,0.164-0.238,0.305c0,0.017,0.001,0.034,0.004,0.051c0.016,0.102,0.208,1.011,1.833,1.636
		c0.37,0.142,0.768,0.235,1.189,0.334c1.313,0.307,2.801,0.656,3.972,2.7c1.541,2.69,2.706,4.086,5.215,4.856
		c-1.472,0.296-3.873,0.205-5.903-1.463c-2.04-1.676-4.083-1.399-5.724-1.177c-0.712,0.096-1.384,0.187-1.951,0.105
		c-0.885-0.128-1.155-0.51-1.158-0.514c-0.092-0.136-0.274-0.183-0.419-0.105s-0.208,0.249-0.146,0.4
		c0.04,0.095,0.436,0.936,2.162,1.169c0.393,0.053,0.801,0.052,1.234,0.051c1.349-0.004,2.876-0.008,4.487,1.711
		c2.119,2.261,3.576,3.349,6.192,3.52c-1.363,0.628-3.717,1.095-6.08-0.061c-2.371-1.16-4.295-0.419-5.841,0.175
		c-0.67,0.258-1.304,0.501-1.874,0.553c-0.891,0.08-1.242-0.23-1.246-0.233c-0.121-0.111-0.31-0.115-0.432-0.005
		c-0.123,0.109-0.146,0.291-0.05,0.423c0.061,0.083,0.639,0.81,2.373,0.638c0.395-0.039,0.792-0.134,1.213-0.235
		c1.311-0.314,2.797-0.67,4.76,0.63c2.585,1.713,4.256,2.434,6.844,1.995c-1.181,0.926-3.369,1.926-5.936,1.346
		c-2.575-0.582-4.276,0.582-5.644,1.518c-0.593,0.405-1.153,0.788-1.696,0.97c-0.849,0.283-1.262,0.063-1.266,0.06
		c-0.144-0.079-0.328-0.04-0.422,0.095c-0.094,0.135-0.075,0.316,0.05,0.424c0.078,0.067,0.809,0.641,2.456,0.074
		c0.375-0.13,0.739-0.313,1.125-0.509c1.203-0.608,2.567-1.298,4.778-0.484c2.908,1.069,4.697,1.392,7.112,0.37
		c-0.938,1.172-2.832,2.643-5.458,2.67c-2.639,0.028-4.027,1.553-5.141,2.778c-0.483,0.531-0.94,1.033-1.427,1.335
		c-0.76,0.472-1.213,0.352-1.217,0.351c-0.158-0.045-0.328,0.036-0.389,0.188c-0.061,0.153,0,0.325,0.146,0.401
		c0.091,0.047,0.935,0.437,2.407-0.494c0.335-0.212,0.647-0.476,0.978-0.755c1.031-0.869,2.199-1.854,4.537-1.573
		c3.077,0.37,4.893,0.269,7.007-1.282c-0.641,1.356-2.145,3.227-4.696,3.859c-2.562,0.636-3.56,2.439-4.362,3.89
		c-0.348,0.628-0.676,1.222-1.08,1.628c-0.631,0.634-1.1,0.621-1.104,0.621c-0.164-0.007-0.311,0.111-0.334,0.273
		s0.075,0.316,0.234,0.356c0.1,0.025,1.01,0.21,2.228-1.036c0.277-0.283,0.521-0.611,0.778-0.959
		c0.802-1.084,1.711-2.313,4.052-2.578c3.081-0.35,4.824-0.866,6.525-2.866c-0.311,1.469-1.346,3.638-3.682,4.842
		c-2.347,1.209-2.902,3.195-3.348,4.79c-0.193,0.691-0.376,1.346-0.675,1.833c-0.468,0.763-0.926,0.859-0.931,0.86
		c-0.152,0.028-0.263,0.163-0.263,0.315c0,0.009,0,0.018,0.001,0.027c0.015,0.163,0.146,0.29,0.31,0.292
		c0.103,0.002,1.031-0.028,1.929-1.521c0.204-0.34,0.365-0.716,0.536-1.113c0.53-1.239,1.132-2.644,3.348-3.442
		c2.916-1.05,4.493-1.954,5.686-4.289c0.001,0.048,0.004,0.092,0.004,0.142c0,1.504-0.537,3.759-2.469,5.414
		c-2.004,1.718-2.087,3.778-2.153,5.433c-0.029,0.718-0.056,1.396-0.235,1.939c-0.28,0.851-0.704,1.05-0.708,1.052
		c-0.118,0.054-0.192,0.172-0.192,0.296c0,0.032,0.005,0.066,0.016,0.099c0.052,0.155,0.209,0.248,0.369,0.213
		c0.101-0.022,0.997-0.266,1.526-1.926c0.121-0.378,0.19-0.78,0.264-1.206c0.231-1.329,0.492-2.835,2.464-4.122
		c2.595-1.694,3.921-2.938,4.544-5.485c0.131,0.502,0.225,1.112,0.225,1.791c0,1.284-0.33,2.794-1.342,4.184
		c-0.877,1.204-1.133,2.373-1.133,3.455c0,0.836,0.153,1.62,0.292,2.328c0.117,0.602,0.229,1.176,0.229,1.685
		c0,0.088-0.003,0.173-0.01,0.257c-0.076,0.892-0.442,1.183-0.446,1.186c-0.083,0.063-0.127,0.161-0.127,0.259
		c0,0.058,0.015,0.115,0.047,0.166c0.086,0.14,0.261,0.193,0.408,0.122c0.093-0.045,0.909-0.489,1.041-2.226
		c0.01-0.129,0.014-0.259,0.014-0.391c0-0.272-0.017-0.553-0.035-0.845c-0.019-0.302-0.037-0.612-0.037-0.933
		c0-1.106,0.226-2.321,1.484-3.646c2.133-2.246,3.136-3.762,3.156-6.381c0.436,0.818,0.832,2.009,0.832,3.378
		c0,0.848-0.152,1.762-0.541,2.688c-0.34,0.811-0.472,1.56-0.472,2.254c0,1.391,0.53,2.561,0.986,3.567
		c0.296,0.654,0.577,1.272,0.661,1.839c0.024,0.164,0.034,0.31,0.034,0.439c0,0.569-0.192,0.814-0.195,0.817
		c-0.049,0.06-0.073,0.133-0.073,0.205c0,0.083,0.031,0.164,0.092,0.226c0.116,0.116,0.298,0.129,0.425,0.025
		c0.066-0.055,0.563-0.498,0.563-1.651c0-0.224-0.019-0.475-0.063-0.754c-0.063-0.393-0.181-0.783-0.306-1.197
		c-0.2-0.664-0.415-1.373-0.415-2.182c0-0.765,0.191-1.618,0.767-2.607c1.171-2.013,1.816-3.476,1.816-5.163
		c0-0.562-0.078-1.152-0.227-1.792c0.845,0.956,1.786,2.637,1.786,4.716c0,0.367-0.029,0.747-0.094,1.139
		c-0.06,0.36-0.087,0.702-0.087,1.026c0,2.022,1.057,3.39,1.93,4.52c0.439,0.568,0.854,1.104,1.066,1.636
		c0.152,0.38,0.193,0.675,0.193,0.884c0,0.248-0.059,0.374-0.06,0.376c-0.021,0.046-0.032,0.094-0.032,0.142
		c0,0.108,0.054,0.215,0.151,0.274c0.14,0.086,0.319,0.056,0.42-0.074c0.039-0.051,0.26-0.367,0.26-0.989
		c0-0.375-0.08-0.861-0.329-1.467c-0.15-0.367-0.355-0.72-0.572-1.094c-0.491-0.845-1.028-1.771-1.028-3.073
		c0-0.496,0.078-1.047,0.267-1.669c0.468-1.545,0.752-2.775,0.752-3.932c0-1.063-0.244-2.066-0.801-3.192
		c1.226,0.866,2.808,2.673,2.988,5.297c0.181,2.633,1.784,3.93,3.072,4.971c0.559,0.452,1.086,0.879,1.415,1.347
		c0.377,0.535,0.428,0.925,0.428,1.097c0,0.063-0.007,0.098-0.007,0.099c-0.005,0.023-0.008,0.047-0.008,0.069
		c0,0.137,0.086,0.264,0.219,0.308c0.156,0.052,0.324-0.02,0.392-0.169c0.018-0.04,0.088-0.216,0.088-0.512
		c0-0.407-0.133-1.043-0.721-1.862c-0.231-0.322-0.513-0.619-0.811-0.933c-0.869-0.917-1.848-1.949-1.848-4.01
		c0-0.139,0.004-0.281,0.014-0.429c0.036-0.593,0.059-1.138,0.059-1.647c0-2.146-0.396-3.64-1.747-5.272
		c1.393,0.561,3.347,1.953,4.127,4.464c0.783,2.521,2.643,3.412,4.136,4.129c0.647,0.311,1.26,0.604,1.688,0.983
		c0.669,0.594,0.685,1.062,0.685,1.066c0.003,0.164,0.129,0.304,0.292,0.317c0.164,0.015,0.312-0.093,0.343-0.254
		c0.004-0.021,0.012-0.076,0.012-0.16c0-0.326-0.13-1.095-1.176-2.004c-0.3-0.261-0.642-0.484-1.003-0.721
		c-1.129-0.738-2.407-1.574-2.809-3.896c-0.528-3.054-1.145-4.765-3.238-6.345c1.484,0.226,3.707,1.13,5.045,3.393
		c1.344,2.271,3.357,2.711,4.977,3.063c0.701,0.152,1.364,0.297,1.869,0.567c0.788,0.423,0.911,0.875,0.912,0.88
		c0.04,0.158,0.195,0.266,0.357,0.241c0.158-0.023,0.274-0.154,0.274-0.312c0-0.005,0-0.01,0-0.015
		c-0.005-0.103-0.089-1.028-1.631-1.838c-0.352-0.184-0.736-0.322-1.143-0.47c-1.269-0.458-2.706-0.977-3.632-3.143
		c-1.218-2.85-2.213-4.372-4.614-5.428c1.496-0.123,3.868,0.246,5.691,2.139c1.832,1.9,3.893,1.863,5.549,1.833
		c0.719-0.013,1.397-0.025,1.95,0.121c0.864,0.23,1.088,0.642,1.091,0.646c0.076,0.146,0.251,0.214,0.403,0.153
		c0.125-0.05,0.204-0.168,0.204-0.295c0-0.028-0.004-0.058-0.013-0.086c-0.028-0.1-0.323-0.98-2.011-1.412
		c-0.384-0.098-0.79-0.145-1.22-0.193c-1.34-0.153-2.858-0.327-4.258-2.221c-1.843-2.492-3.161-3.743-5.741-4.217
		c1.428-0.465,3.82-0.653,6.03,0.768c2.221,1.428,4.218,0.915,5.822,0.504c0.696-0.178,1.353-0.347,1.925-0.331
		c0.895,0.024,1.207,0.373,1.21,0.376c0.107,0.124,0.294,0.15,0.429,0.056c0.134-0.094,0.178-0.271,0.098-0.415
		c-0.05-0.09-0.54-0.878-2.282-0.909c-0.396-0.007-0.802,0.041-1.231,0.093c-1.339,0.16-2.856,0.342-4.655-1.179
		c-2.369-2.002-3.947-2.91-6.57-2.773c1.28-0.784,3.571-1.525,6.057-0.65c2.489,0.878,4.314-0.081,5.781-0.852
		c0.636-0.334,1.236-0.65,1.797-0.767c0.876-0.183,1.261,0.085,1.265,0.088c0.133,0.096,0.32,0.078,0.43-0.045
		c0.108-0.123,0.11-0.306-0.001-0.426c-0.069-0.076-0.729-0.73-2.431-0.359c-0.387,0.084-0.771,0.225-1.177,0.374
		c-1.266,0.464-2.7,0.991-4.802-0.073c-2.766-1.401-4.507-1.926-7.026-1.19c1.066-1.056,3.122-2.3,5.737-2.022
		c2.625,0.279,4.18-1.075,5.429-2.163c0.542-0.472,1.054-0.917,1.572-1.16c0.81-0.38,1.245-0.208,1.25-0.207
		c0.151,0.062,0.33,0.001,0.407-0.143c0.078-0.144,0.038-0.322-0.098-0.415c-0.086-0.058-0.878-0.542-2.448,0.211
		c-0.357,0.172-0.698,0.397-1.06,0.636c-1.124,0.744-2.398,1.587-4.688,1.036c-3.015-0.725-4.831-0.831-7.112,0.466
		c0.793-1.274,2.505-2.961,5.116-3.294c2.619-0.334,3.819-2.009,4.784-3.356c0.419-0.584,0.814-1.136,1.262-1.492
		c0.701-0.556,1.165-0.49,1.169-0.489c0.162,0.026,0.321-0.074,0.364-0.233c0.042-0.158-0.038-0.322-0.191-0.381
		c-0.097-0.037-0.979-0.325-2.333,0.771c-0.309,0.25-0.588,0.547-0.884,0.863c-0.923,0.983-1.969,2.097-4.324,2.089
		c-3.099-0.011-4.89,0.299-6.81,2.085c0.479-1.422,1.756-3.453,4.216-4.377c2.471-0.929,3.253-2.836,3.881-4.369
		c0.272-0.665,0.53-1.292,0.884-1.742c0.554-0.703,1.02-0.745,1.024-0.746c0.146-0.011,0.27-0.118,0.296-0.261
		c0.003-0.021,0.005-0.041,0.005-0.061c0-0.122-0.066-0.234-0.18-0.288c-0.146-0.069-1.117-0.126-2.188,1.26
		c-0.242,0.313-0.445,0.668-0.661,1.043c-0.671,1.169-1.432,2.495-3.725,3.03c-3.02,0.705-4.69,1.42-6.147,3.602
		c0.14-1.495,0.914-3.767,3.095-5.234c2.189-1.474,2.511-3.51,2.769-5.146c0.112-0.71,0.218-1.38,0.458-1.899
		c0.377-0.812,0.82-0.96,0.825-0.962c0.136-0.043,0.227-0.17,0.227-0.308c0-0.021-0.002-0.042-0.006-0.063
		c-0.033-0.161-0.179-0.271-0.342-0.255c-0.103,0.011-1.021,0.149-1.739,1.736c-0.164,0.361-0.28,0.753-0.403,1.167
		c-0.383,1.293-0.817,2.758-2.926,3.808c-2.775,1.382-4.236,2.464-5.15,4.924c-0.041-0.285-0.065-0.601-0.065-0.943
		c0-1.442,0.428-3.305,1.869-4.865c1.31-1.418,1.578-2.898,1.578-4.237c0-0.492-0.036-0.965-0.07-1.409
		c-0.031-0.402-0.061-0.792-0.061-1.155c0-0.284,0.019-0.553,0.068-0.799c0.179-0.876,0.577-1.124,0.581-1.126
		c0.1-0.06,0.158-0.168,0.158-0.279c0-0.045-0.01-0.09-0.029-0.133c-0.069-0.148-0.236-0.223-0.392-0.168
		c-0.098,0.034-0.959,0.38-1.292,2.09c-0.076,0.389-0.099,0.797-0.123,1.229c-0.074,1.347-0.159,2.872-1.969,4.38
		c-2.382,1.985-3.555,3.375-3.877,5.98c-0.267-0.682-0.481-1.597-0.481-2.622c0-1.077,0.237-2.274,0.898-3.447
		c0.569-1.012,0.768-1.958,0.768-2.836c0-1.117-0.321-2.122-0.604-3.006c-0.218-0.685-0.425-1.331-0.442-1.903
		c-0.001-0.036-0.002-0.072-0.002-0.106c0-0.814,0.304-1.12,0.308-1.123c0.064-0.063,0.099-0.149,0.099-0.234
		c0-0.069-0.022-0.139-0.068-0.196c-0.102-0.129-0.281-0.163-0.42-0.074c-0.083,0.053-0.78,0.544-0.78,2.108
		c0,0.072,0.002,0.146,0.005,0.224c0.016,0.396,0.088,0.798,0.164,1.224c0.093,0.519,0.191,1.065,0.191,1.651
		c0,0.911-0.237,1.917-1.098,3.064c-1.618,2.158-2.45,3.666-2.45,5.739c0,0.31,0.019,0.632,0.056,0.97
		c-0.629-0.91-1.265-2.363-1.265-4.077c0-0.612,0.081-1.256,0.272-1.92c0.171-0.594,0.243-1.146,0.243-1.662
		c0-1.684-0.776-2.974-1.43-4.061c-0.371-0.615-0.72-1.197-0.87-1.749c-0.075-0.279-0.101-0.509-0.101-0.693
		c0-0.387,0.113-0.571,0.114-0.574c0.034-0.054,0.051-0.114,0.051-0.175c0-0.095-0.042-0.189-0.12-0.251
		C89.881,17.879,89.699,17.888,89.584,18.006z"/>
	<path fill="#F9C735" d="M86.44,35.427c-1.154-0.271-4.132-2-4.799-5.569c-0.668-3.569-3.794-4.122-5.115-5.6
		c-0.724-0.81-0.635-1.392-0.635-1.392s-0.247,0.784,0.836,1.973c1.083,1.189,3.155,1.978,3.333,5.225
		c0.178,3.247,0.579,5.086,3.205,7.182c-1.185,0.002-4.481-0.994-5.954-4.312s-4.643-3.136-6.269-4.269
		c-0.892-0.622-0.939-1.208-0.939-1.208s-0.059,0.819,1.269,1.727s3.526,1.197,4.448,4.315c0.922,3.119,1.736,4.815,4.775,6.25
		c-1.153,0.275-4.59,0.066-6.789-2.823c-2.198-2.89-5.24-1.981-7.084-2.708c-1.011-0.399-1.193-0.959-1.193-0.959
		s0.132,0.811,1.633,1.388c1.501,0.577,3.707,0.352,5.323,3.173s2.8,4.285,6.088,4.98c-1.058,0.534-4.451,1.124-7.256-1.181
		c-2.805-2.304-5.556-0.719-7.518-1.001c-1.076-0.155-1.381-0.658-1.381-0.658s0.314,0.759,1.909,0.974
		c1.594,0.215,3.688-0.513,5.912,1.86c2.224,2.373,3.713,3.524,7.072,3.442c-0.906,0.763-4.072,2.119-7.333,0.524
		s-5.572,0.582-7.546,0.759c-1.082,0.097-1.496-0.321-1.496-0.321s0.481,0.666,2.082,0.507s3.471-1.349,6.181,0.447
		c2.711,1.796,4.426,2.573,7.675,1.718c-0.706,0.952-3.473,3.002-7.015,2.201c-3.541-0.8-5.287,1.852-7.167,2.479
		c-1.031,0.344-1.53,0.031-1.53,0.031s0.622,0.537,2.143,0.015c1.521-0.523,3.065-2.113,6.118-0.991
		c3.052,1.123,4.899,1.482,7.865-0.099c-0.467,1.09-2.688,3.722-6.318,3.76s-4.718,3.021-6.402,4.065
		c-0.924,0.572-1.481,0.384-1.481,0.384s0.729,0.379,2.088-0.48c1.359-0.86,2.496-2.764,5.724-2.375s5.109,0.313,7.63-1.91
		c-0.204,1.168-1.757,4.241-5.281,5.115c-3.524,0.875-3.895,4.027-5.293,5.433c-0.767,0.77-1.353,0.715-1.353,0.715
		s0.797,0.201,1.921-0.949c1.125-1.15,1.792-3.265,5.022-3.631c3.231-0.367,5.044-0.874,6.984-3.618
		c0.071,1.184-0.732,4.532-3.959,6.195c-3.227,1.664-2.86,4.817-3.897,6.507c-0.568,0.926-1.151,1.008-1.151,1.008
		s0.822,0.012,1.65-1.367c0.829-1.378,0.99-3.59,4.05-4.691s4.706-2.014,5.961-5.131c0.342,1.135,0.333,4.578-2.423,6.941
		c-2.756,2.362-1.672,5.347-2.292,7.229c-0.339,1.032-0.888,1.246-0.888,1.246s0.802-0.178,1.291-1.711
		c0.489-1.532,0.136-3.721,2.859-5.498c2.723-1.778,4.115-3.045,4.618-6.367c0.594,1.025,1.38,4.378-0.757,7.313
		c-2.138,2.935-0.395,5.589-0.563,7.563c-0.092,1.083-0.577,1.417-0.577,1.417s0.74-0.358,0.862-1.962s-0.727-3.652,1.513-6.01
		s3.302-3.912,3.025-7.261c0.815,0.86,2.352,3.942,0.949,7.291c-1.403,3.348,0.905,5.528,1.197,7.488
		c0.159,1.075-0.234,1.513-0.234,1.513s0.637-0.52,0.386-2.107c-0.251-1.589-1.549-3.387,0.087-6.197s2.311-4.567,1.269-7.763
		c0.992,0.649,3.198,3.293,2.605,6.875s2.155,5.171,2.892,7.012c0.403,1.009,0.121,1.525,0.121,1.525s0.499-0.652-0.111-2.141
		c-0.61-1.487-2.288-2.938-1.345-6.05c0.943-3.111,1.195-4.978-0.556-7.846c1.114,0.403,3.872,2.467,4.121,6.089
		s3.289,4.535,4.43,6.155c0.626,0.89,0.47,1.457,0.47,1.457s0.336-0.75-0.602-2.057c-0.938-1.308-2.903-2.331-2.703-5.577
		c0.199-3.245,0.015-5.119-2.351-7.506c1.178,0.136,4.337,1.508,5.414,4.975s4.247,3.653,5.73,4.968
		c0.813,0.721,0.793,1.309,0.793,1.309s0.153-0.807-1.06-1.862c-1.214-1.056-3.363-1.599-3.917-4.803s-1.166-4.984-4.018-6.762
		c1.177-0.141,4.566,0.467,6.415,3.592c1.848,3.125,4.975,2.575,6.722,3.513c0.957,0.513,1.073,1.09,1.073,1.09
		s-0.037-0.82-1.461-1.567c-1.424-0.748-3.641-0.78-4.919-3.771c-1.277-2.99-2.284-4.581-5.469-5.653
		c1.113-0.407,4.552-0.599,7.07,2.016c2.52,2.615,5.435,1.359,7.351,1.868c1.051,0.278,1.296,0.813,1.296,0.813
		s-0.225-0.79-1.782-1.188c-1.559-0.398-3.723,0.081-5.656-2.534c-1.933-2.615-3.278-3.932-6.625-4.239
		c0.989-0.653,4.291-1.633,7.345,0.33c3.054,1.964,5.602,0.069,7.583,0.122c1.087,0.029,1.448,0.493,1.448,0.493
		s-0.4-0.717-2.009-0.745c-1.607-0.029-3.604,0.937-6.088-1.162c-2.483-2.099-4.097-3.068-7.424-2.597
		c0.812-0.864,3.799-2.579,7.224-1.373c3.424,1.207,5.466-1.225,7.406-1.63c1.063-0.222,1.523,0.146,1.523,0.146
		s-0.556-0.605-2.127-0.263c-1.571,0.343-3.29,1.744-6.191,0.274c-2.9-1.469-4.694-2.042-7.823-0.815
		c0.591-1.027,3.102-3.384,6.712-3s5.037-2.453,6.832-3.294c0.983-0.461,1.516-0.209,1.516-0.209s-0.681-0.461-2.13,0.235
		c-1.45,0.696-2.8,2.455-5.962,1.694c-3.161-0.761-5.038-0.904-7.8,1.011c0.338-1.136,2.237-4.008,5.839-4.468
		c3.602-0.459,4.335-3.548,5.888-4.781c0.851-0.676,1.426-0.553,1.426-0.553s-0.768-0.292-2.018,0.72s-2.158,3.035-5.41,3.023
		c-3.252-0.011-5.111,0.283-7.356,2.782c0.066-1.183,1.252-4.416,4.65-5.693s3.4-4.452,4.627-6.01
		c0.672-0.854,1.261-0.868,1.261-0.868s-0.815-0.106-1.798,1.166c-0.983,1.273-1.4,3.451-4.567,4.189
		c-3.167,0.739-4.908,1.454-6.517,4.404c-0.208-1.167,0.2-4.586,3.213-6.612c3.012-2.027,2.281-5.117,3.115-6.915
		c0.457-0.986,1.026-1.135,1.026-1.135s-0.817,0.084-1.48,1.549s-0.566,3.68-3.478,5.13s-4.44,2.546-5.325,5.788
		c-0.472-1.087-0.862-4.509,1.601-7.175c2.464-2.667,1.041-5.505,1.438-7.447c0.217-1.065,0.737-1.341,0.737-1.341
		s-0.776,0.27-1.084,1.849c-0.307,1.579,0.298,3.712-2.2,5.793s-3.734,3.502-3.848,6.86c-0.709-0.949-1.879-4.188-0.097-7.352
		s-0.257-5.596-0.319-7.577c-0.033-1.086,0.408-1.475,0.408-1.475s-0.692,0.441-0.628,2.048c0.065,1.607,1.146,3.543-0.805,6.145
		c-1.951,2.602-2.826,4.269-2.162,7.563c-0.909-0.76-2.794-3.642-1.789-7.131c1.004-3.489-1.541-5.386-2.058-7.299
		c-0.283-1.049,0.057-1.529,0.057-1.529s-0.572,0.59-0.139,2.139c0.434,1.548,1.932,3.184,0.634,6.165
		c-1.298,2.981-1.765,4.805-0.359,7.857c-1.06-0.53-3.559-2.899-3.386-6.526s-2.741-4.886-3.686-6.628
		c-0.518-0.955-0.297-1.501-0.297-1.501s-0.421,0.706,0.358,2.113c0.779,1.407,2.613,2.652,2.038,5.853
		C84.402,30.9,84.369,32.782,86.44,35.427L86.44,35.427z"/>
</g>
<circle fill="#9EDDFF" cx="92.688" cy="49.979" r="14.999"/>
<circle fill="#FCC939" cx="92.659" cy="45.624" r="10.484"/>
<path fill="#483618" d="M82.119,45.624c0,5.802,4.72,10.522,10.521,10.522c5.802,0,10.522-4.721,10.522-10.522
	S98.441,35.102,92.64,35.102C86.838,35.102,82.119,39.822,82.119,45.624z M82.194,45.624c0-5.76,4.687-10.446,10.446-10.446
	c5.761,0,10.447,4.686,10.447,10.446c0,5.761-4.687,10.447-10.447,10.447C86.88,56.071,82.194,51.385,82.194,45.624z"/>
<g>
	<path fill="#483618" d="M82.056,39.347c-2.84,2.84-4.404,6.616-4.404,10.633s1.564,7.792,4.404,10.633
		c2.84,2.84,6.616,4.403,10.632,4.403c4.017,0,7.793-1.563,10.633-4.403c2.84-2.841,4.404-6.616,4.404-10.633
		s-1.564-7.793-4.404-10.633s-6.616-4.404-10.633-4.404C88.672,34.943,84.896,36.507,82.056,39.347z M82.109,60.558
		c-2.826-2.826-4.382-6.583-4.382-10.579c0-3.997,1.556-7.753,4.382-10.58c2.826-2.826,6.583-4.382,10.579-4.382
		c3.997,0,7.754,1.556,10.58,4.382c2.825,2.826,4.382,6.583,4.382,10.58c0,3.996-1.557,7.753-4.382,10.579
		c-2.826,2.826-6.583,4.382-10.58,4.382C88.692,64.94,84.935,63.385,82.109,60.558z"/>
</g>
<g>
	<path fill="#483618" d="M87.575,43.072c0.558,0,0.897,0.345,1.405,0.357c0.508,0.013,0.848-0.184,1.384-0.167
		c0.535,0.017,1.128,0.645,0.961,0.791c-0.167,0.146-0.476-0.523-1.011-0.515s-0.963,0.211-1.315,0.199
		c-0.351-0.013-0.972-0.427-1.436-0.433c-0.464-0.006-1.11,0.32-1.154,0.201C86.365,43.385,87.017,43.072,87.575,43.072z"/>
</g>
<g>
	<path fill="#C4543A" d="M91.225,44.658c0.095-0.01,0.145,0.04,0.201,0.117c0.217,0.316,0.326,0.651,0.276,1.037
		c-0.021,0.023-0.045,0.04-0.075,0.05C91.584,45.444,91.45,45.026,91.225,44.658z"/>
</g>
<g>
	<path fill="#C4543A" d="M93.833,44.808c0.092,0.036,0.109,0.036,0.066,0.134c-0.133,0.142-0.217,0.359-0.292,0.619
		C93.595,45.285,93.67,45.034,93.833,44.808z"/>
</g>
<g>
	<path fill="#A8211F" d="M91.026,48.3c-0.005,0.255,0.129,0.412,0.364,0.421c0.235,0.009,0.555-0.031,0.681,0.069
		c0.125,0.101,0.206,0.152,0.21,0.302c0.003,0.149-0.073,0.304-0.103,0.457c0.003,0.027,0.016,0.046,0.034,0.06
		c0.127-0.17,0.211-0.479,0.22-0.651c0.288,0.132,0.669-0.018,0.843-0.11c0.173-0.092,0.423,0.007,0.657,0.024
		c0.234,0.017,0.461-0.157,0.457-0.429c-0.005-0.272-0.123-0.429-0.237-0.458c0.032,0.129,0.078,0.246,0.091,0.357
		c0.012,0.111,0.012,0.217-0.139,0.313s-0.306-0.061-0.647-0.034s-0.435,0.189-0.765,0.199c-0.331,0.01-0.409-0.162-0.628-0.224
		s-0.543,0.031-0.657,0.001c-0.114-0.029-0.242-0.088-0.244-0.276c-0.001-0.188,0.266-0.396,0.225-0.487
		C91.347,47.743,91.032,48.045,91.026,48.3z"/>
</g>
<g>
	<path fill="#A8211F" d="M93.08,49.073c0.066-0.008,0.094-0.004,0.145,0.038c0.041,0.17,0.064,0.35,0.006,0.515
		C93.199,49.436,93.144,49.298,93.08,49.073z"/>
</g>
<g>
	<path fill="#71331B" stroke="#A8211F" stroke-width="0.06" d="M94.937,50.578c0.013,0.021-0.539,0.458-1.154,0.477
		c0.014,0.42-0.395,0.733-1.078,0.477c-0.627,0.255-1.229,0.038-1.178-0.577c-0.521-0.063-0.781-0.109-1.196-0.443
		c-0.071,0.072-0.185,0.172-0.209,0.143c-0.029-0.036,0.133-0.152,0.18-0.256s0.104-0.252,0.144-0.229
		c0.04,0.024-0.044,0.164-0.046,0.227c-0.001,0.061,0.071,0.104,0.14,0.149c0.202,0.134,0.404,0.096,0.686-0.015
		c0.282-0.109,0.761-0.354,1.028-0.354s0.306,0.124,0.451,0.2c0.158-0.08,0.209-0.188,0.451-0.2
		c0.243-0.013,0.732,0.409,1.133,0.447C94.69,50.661,94.924,50.556,94.937,50.578z"/>
</g>
<g>
	<path fill="#A8211F" d="M94.975,50.566c-0.057-0.131-0.111-0.307-0.023-0.325c0.088-0.018,0.084,0.112,0.159,0.272
		s0.256,0.244,0.178,0.315C95.209,50.899,95.031,50.698,94.975,50.566z"/>
</g>
<g>
	<g>
		<path fill="#C4543A" d="M92.642,51.79c0.246,0,0.781,0.175,0.739,0.263c-0.041,0.089-0.188-0.041-0.618-0.093
			c-0.431-0.053-0.962,0.198-0.986,0.077C91.751,51.915,92.395,51.79,92.642,51.79z"/>
	</g>
</g>
<g>
	<path fill="#C4543A" d="M94.585,53.688c0.113,0,0.151,0.786-0.184,1.153c-0.334,0.368-2.341,0.819-2.943,0.318
		c-0.602-0.502-0.601-1.243-0.535-1.222c0.066,0.022,0.05,0.394,0.619,0.971c0.568,0.576,2.462,0.065,2.736-0.185
		S94.473,53.688,94.585,53.688z"/>
</g>
<g>
	<g>
		<path fill="#3D5998" d="M91.038,56.497c-0.288,0.153-0.44,0.389-0.465,0.722c0.032,0.067,0.05,0.132,0.05,0.192
			c0,0.116-0.057,0.22-0.171,0.305l-0.01,0.008l-0.012,0.002c-0.205,0.034-0.495,0.035-0.618,0s-0.258-0.154-0.368-0.251
			c-0.098-0.087-0.285-0.043-0.492,0.132c-0.15-0.071-0.127-0.38-0.665-0.086l-0.009,0.005h-0.011
			c-0.371,0.016-0.694-0.108-0.962-0.364c-0.02,0.012-0.033,0.028-0.038,0.052c0.234,0.305,0.553,0.47,0.95,0.488l0.047,0.002
			c0,0,1.172,0.002,1.311,0.081s0.497,0.161,0.646,0.167c0.15,0.006,0.205-0.033,0.306-0.024l0.048,0.005l-0.003,0.049
			c-0.003,0.057-0.005,0.113-0.005,0.171c0,0.211,0.026,0.423,0.078,0.634c0.111,0.186,0.269,0.258,0.479,0.226
			c0-0.038,0-0.072,0-0.111c-0.129-0.014-0.23-0.057-0.298-0.131c-0.07-0.077-0.105-0.186-0.105-0.322c0-0.015,0-0.03,0.001-0.046
			c0.023-0.194,0.057-0.387,0.1-0.575c-0.03-0.152-0.046-0.307-0.046-0.462c0-0.106,0.007-0.214,0.022-0.321
			c0.02-0.132,0.086-0.236,0.197-0.311l0.009-0.006l0.01-0.002c0.189-0.034,0.38-0.034,0.57,0l0.007,0.002l0.007,0.003
			c0.274,0.146,0.558,0.279,0.844,0.397c0.816,0.135,1.611,0.371,2.363,0.705c0.219,0.078,0.442,0.078,0.661-0.001
			c0.254-0.169,0.524-0.321,0.802-0.45l0.003-0.001l0.003-0.001c0.163-0.052,0.332-0.086,0.502-0.102
			c0.046-0.018,0.085-0.044,0.119-0.075c-0.189-0.055-0.388-0.066-0.591-0.028c-0.242,0.105-0.474,0.237-0.688,0.394l-0.004,0.003
			L95.61,57.57c-0.347,0.169-0.698,0.169-1.047,0c-0.633-0.283-1.304-0.484-1.993-0.597l-0.006-0.001c0,0-1.039-0.446-1.052-0.451
			C91.356,56.498,91.196,56.49,91.038,56.497z"/>
	</g>
</g>
<g>
	<path fill="#010101" d="M95.916,58.353c-0.052,0.092,0.336,0.285,0.358,0.56c0.025,0.31-0.126,0.553-0.107,0.938
		c0.018,0.382,0.616,0.969,0.621,1.27c0.005,0.302-0.2,0.787-0.11,0.845c0.09,0.059,0.433-0.602,0.425-0.911
		c-0.009-0.31-0.461-0.745-0.507-1.213c-0.046-0.459,0.056-0.681,0.039-0.952C96.617,58.604,95.968,58.263,95.916,58.353z"/>
</g>
<path fill="#5E1C13" stroke="#A8211F" stroke-width="0.045" stroke-miterlimit="11" d="M91.269,45.925
	c-0.496-0.205-0.705-0.188-1.105,0.029c-0.253,0.137-0.752,0.143-1.045,0c-0.757-0.368-0.855-0.785-1.597-0.71
	c-0.251,0.025-0.489-0.063-0.61-0.222c0.115,0.073,0.498,0.092,0.69,0.013c0.364-0.151,0.581-0.217,1.041-0.176
	c0.46,0.042,0.803,0.468,1.313,0.36c0.247-0.053,0.509-0.126,0.794-0.034C91.165,45.32,91.269,45.781,91.269,45.925z"/>
<path fill="#C4543A" d="M90.896,45.081c-0.065,0.039-0.319-0.275-0.449-0.295c-0.287-0.02-0.468,0.15-0.845,0.15
	c-0.376,0-0.878-0.322-1.237-0.339s-0.672,0.124-1.003,0.163c-0.132-0.029-0.151-0.088-0.143-0.243
	c0.134,0.293,0.77-0.059,1.129-0.067s0.773,0.313,1.233,0.322c0.46,0.008,0.564-0.146,0.899-0.138S90.961,45.042,90.896,45.081z"/>
<g>
	<defs>
		<path id="XMLID_1_" d="M89.452,45.465c-0.619-0.129-0.71-0.594-1.532-0.349c0.646,0,1.181,0.788,1.708,0.805
			c0.526,0.017,0.752-0.46,1.413-0.251c-0.142-0.228-0.451-0.275-0.658-0.257C90.169,45.431,90.071,45.595,89.452,45.465z"/>
	</defs>
	<use xlink:href="#XMLID_1_"  fill="#F2F2F2"/>
	<clipPath id="XMLID_5_">
		<use xlink:href="#XMLID_1_" />
	</clipPath>
	<g clip-path="url(#XMLID_5_)">
		<circle fill="#A6EEFF" stroke="#88B6DD" stroke-width="0.09" cx="89.582" cy="45.621" r="0.652"/>
		<circle stroke="#172430" stroke-width="0.06" cx="89.582" cy="45.621" r="0.351"/>
	</g>
</g>
<g>
	<path fill="#5E1C13" stroke="#A8211F" stroke-width="0.045" stroke-miterlimit="11" d="M95.063,45.21
		c0.259-0.008,0.53,0.15,1.003,0.138c0.473-0.012,0.714-0.253,0.966-0.276c0.46-0.042,0.648-0.008,0.962,0.175
		c0.18,0.105,0.575,0.061,0.69-0.012c-0.122,0.159-0.323,0.301-0.574,0.276c-0.741-0.074-0.823,0.247-1.58,0.614
		c-0.293,0.142-0.803,0.213-1.066,0.025c-0.371-0.266-0.905-0.331-1.401-0.125C94.28,45.57,94.803,45.219,95.063,45.21z"/>
</g>
<path fill="#F2F2F2" d="M96.132,45.653c0.251-0.013,0.778-0.593,1.542-0.324c-0.646,0-1.165,0.717-1.692,0.734
	c-0.526,0.017-0.781-0.615-1.547-0.276c0.143-0.228,0.485-0.305,0.786-0.318C95.514,45.457,95.882,45.666,96.132,45.653z"/>
<path fill="#C4543A" d="M94.85,44.761c0.335-0.008,0.439,0.146,0.899,0.138c0.46-0.009,0.873-0.381,1.232-0.373
	c0.36,0.008,1.046,0.36,1.18,0.067c0.008,0.154-0.011,0.213-0.143,0.242c-0.331-0.04-0.694-0.18-1.054-0.163
	s-0.861,0.389-1.237,0.389s-0.558-0.169-0.844-0.15c-0.131,0.021-0.385,0.334-0.449,0.296C94.369,45.168,94.516,44.769,94.85,44.761
	z"/>
<g>
	<defs>
		<path id="XMLID_3_" d="M96.132,45.653c0.251-0.013,0.778-0.593,1.542-0.324c-0.647,0-1.164,0.717-1.692,0.734
			c-0.526,0.017-0.781-0.615-1.547-0.276c0.143-0.228,0.485-0.305,0.786-0.318C95.514,45.457,95.882,45.666,96.132,45.653z"/>
	</defs>
	<clipPath id="XMLID_6_">
		<use xlink:href="#XMLID_3_" />
	</clipPath>
	<g clip-path="url(#XMLID_6_)">
		<circle fill="#A6EEFF" stroke="#88B6DD" stroke-width="0.09" cx="95.962" cy="45.785" r="0.652"/>
		<circle stroke="#172430" stroke-width="0.06" cx="95.961" cy="45.785" r="0.351"/>
	</g>
</g>
<g>
	<path fill="#483618" d="M99.127,43.53c-0.044,0.119-0.435-0.301-1.097-0.327c-0.662-0.025-1.28,0.515-1.845,0.508
		c-0.563-0.007-0.831-0.207-1.113-0.199c-0.535,0.017-0.972,0.55-1.012,0.515s0.427-0.774,0.961-0.791
		c0.535-0.017,0.462,0.201,1.184,0.167s0.883-0.424,1.705-0.452C98.732,42.925,99.171,43.411,99.127,43.53z"/>
</g>
<g>
	<path fill="#010101" d="M95.118,61.614c-0.056,0.288-0.025,0.411-0.1,0.407c-0.057-0.003-0.11-0.213-0.075-0.42
		c0.034-0.207,0.183-0.423,0.182-0.678c-0.003-0.508-0.828-0.821-0.841-1.325c-0.008-0.338,0.188-0.354,0.188-0.594
		c0-0.237-0.552-0.563-0.501-0.664c0.049-0.101,1.31,0.313,1.36,0.94c0.03,0.383-0.183,0.339-0.17,0.652s0.377,0.589,0.389,0.871
		C95.563,61.087,95.175,61.325,95.118,61.614z"/>
</g>
<g>
	<path fill="#E4EFE7" d="M94.274,58.556c0.231,0.037,0.713,0.298,0.737,0.649c0.008,0.106-0.029,0.18-0.075,0.251
		c-0.06-0.087-0.143-0.138-0.25-0.15c-0.084-0.007-0.164,0.031-0.238,0.088C94.711,59.043,94.687,58.867,94.274,58.556z"/>
</g>
<g>
	<path fill="#010101" d="M95.455,59.298c-0.004,0.188-0.056,0.359-0.04,0.583c0.015,0.224,0.26,0.572,0.248,0.945
		c-0.012,0.374-0.248,0.517-0.189,0.562c0.059,0.044,0.351-0.305,0.341-0.572c-0.011-0.268-0.27-0.781-0.281-0.97
		s0.064-0.347,0.056-0.564s-0.226-0.474-0.255-0.447C95.305,58.859,95.459,59.11,95.455,59.298z"/>
</g>
<g>
	<path fill="#E4EFE7" d="M94.511,59.858c0.101,0.056,0.201,0.056,0.301,0c0.307,0.458,0.577,0.62,0.57,0.99
		c-0.004,0.232-0.125,0.27-0.264,0.502c0.051-0.157,0.13-0.269,0.126-0.483C95.235,60.467,94.705,60.142,94.511,59.858z"/>
</g>
<path fill="#823A2B" d="M91.743,51.08c0,0.268,0.224,0.393,0.418,0.393c0.098,0,0.248-0.043,0.334-0.092
	c0.062-0.035,0.123-0.082,0.163-0.082c0.038,0,0.09,0.034,0.146,0.07c0.076,0.05,0.22,0.095,0.318,0.095
	c0.193,0,0.46-0.165,0.46-0.359c0-0.193-0.159-0.343-0.451-0.334c-0.293,0.008-0.314,0.188-0.491,0.202
	c-0.178,0.016-0.32-0.211-0.495-0.211C91.969,50.762,91.743,50.811,91.743,51.08z"/>
<path fill="#823A2B" d="M93.17,50.302c-0.124-0.004-0.171,0.039-0.248,0.095c-0.04,0.027-0.085,0.06-0.143,0.09l-0.07,0.035
	l-0.068-0.036c-0.057-0.03-0.1-0.063-0.137-0.094c-0.069-0.056-0.111-0.09-0.245-0.09c-0.171,0-0.698,0.338-1.266,0.42
	c0.174,0.053,0.509,0.078,0.614,0.076c0.213-0.227,0.436-0.232,0.533-0.232c0.132,0,0.317,0.22,0.489,0.213s0.308-0.207,0.539-0.2
	c0.445,0.012,0.502,0.194,0.583,0.313c0.08,0.003,0.446-0.053,0.634-0.132C93.72,50.747,93.381,50.308,93.17,50.302z"/>
<path d="M89.286,57.404c-0.127-0.011-0.22,0.067-0.313,0.137l-0.033,0.024l-0.03-0.027c-0.084-0.077-0.103-0.144-0.29-0.137
	s-0.341,0.216-0.354,0.35s0.024,0.253,0.07,0.329c0.228,0.379,0.473,0.824,0.598,1.291c0.042,0.024,0.085,0.037,0.133,0.038
	c0-0.02-0.001-0.039-0.001-0.059c0-0.45,0.153-0.754,0.435-1.222c0.06-0.1,0.114-0.244,0.095-0.372
	C89.576,57.633,89.481,57.421,89.286,57.404z"/>
<path fill="#71331B" d="M89.289,57.768c0.155,0.142-0.309,0.568-0.347,0.865c-0.042-0.297-0.522-0.707-0.351-0.857
	s0.292,0.025,0.341,0.08C89.001,57.798,89.132,57.624,89.289,57.768z"/>
</svg>
