<?xml version="1.0" encoding="utf-8"?>
<!-- Generator: Adobe Illustrator 12.0.0, SVG Export Plug-In . SVG Version: 6.00 Build 51448)  -->
<!DOCTYPE svg PUBLIC "-//W3C//DTD SVG 1.1//EN" "http://www.w3.org/Graphics/SVG/1.1/DTD/svg11.dtd" [
	<!ENTITY ns_svg "http://www.w3.org/2000/svg">
	<!ENTITY ns_xlink "http://www.w3.org/1999/xlink">
]>
<svg  version="1.1" id="Layer_1" xmlns="&ns_svg;" xmlns:xlink="&ns_xlink;" width="440.711" height="359.371"
	 viewBox="0 0 440.711 359.371" overflow="visible" enable-background="new 0 0 440.711 359.371" xml:space="preserve">
<path id="path2997_2_" fill="#D09A3F" d="M218.217,359.182c-3.971-0.701-8.014-1.369-11.613-3.27
	c-2.789-1.344-5.588-2.924-7.641-5.277c-1-1.518-0.721-3.445-0.855-5.172c-0.232-12.096,1.119-24.158,0.977-36.25
	c-0.084-3.568-0.65-7.318-2.906-10.207c-1.02-1.467-2.367-2.721-3.379-4.184c-0.014-0.871-1.041-1.221-1.385-1.953
	c-4.592-5.697-9.508-11.172-13.928-17.016c-1.371-1.908-2.354-4.318-1.742-6.695c0.9-4.895,3.461-9.549,2.893-14.648
	c-0.367-4.191-1.182-8.34-1.979-12.473c-0.459-1.996-0.82-4.051-1.758-5.879c-2.139-2.783-5.07-4.873-8.285-6.248
	c-2.223-1.182-3.518-3.537-3.975-5.945c-0.803-3.775-0.25-7.703-1.039-11.48c-0.475-3.17-1.564-6.186-2.447-9.256
	c-0.803-3.055-0.953-6.291-0.299-9.391c0.981-6.84,2.417-13.732,5.592-19.91c1.467-3.387,2.145-7.025,2.689-10.652
	c1.139-5.377,2.068-10.799,3.037-16.203c0.185-0.514,0.219-1.363-0.527-1.383c-2.971-0.779-6.092-0.625-9.097-1.236
	c-10.962-1.743-21.64-4.884-32.228-8.159c-14.544-4.595-28.896-9.871-42.746-16.273c-7.654-3.572-14.951-7.904-21.731-12.946
	c-13.069-9.613-24.697-21.114-34.53-34.01c-5.24-6.916-9.738-14.373-13.557-22.163c-4.723-9.376-9.175-18.922-12.772-28.786
	C1.006,16.154-0.21,9.89-0.142,3.591c0.05-1.145,0.119-2.48,0.949-3.34C1.78-0.39,3.167-0.282,4.144,0.294
	c0.961,0.82,1.358,2.107,2.078,3.125c5.279,9.407,9.619,19.352,15.182,28.577c8.258,14.089,18.196,27.45,30.692,37.991
	c7.806,6.532,16.912,11.331,26.417,14.863c16.939,6.423,34.737,10.127,52.214,14.793c10.832,2.806,21.591,5.885,32.393,8.805
	c7.492,2.006,15.038,3.799,22.63,5.35c0.91,0.212,1.877,0.518,2.737-0.048c4.437-1.673,8.826-3.516,13.327-4.991
	c5.952-0.555,11.94-0.435,17.911-0.51c8.105,0.004,16.22-0.046,24.32,0.351c2.742,0.166,5.529,0.755,7.814,2.351
	c1.791,1.114,3.858,2.105,6.029,1.657c5.139-0.567,10.2-1.755,15.276-2.75c7.957-1.731,15.887-3.627,23.931-4.984
	c9.391-1.631,18.864-2.904,28.142-5.102c13.359-3.034,26.584-6.921,38.978-12.825c1.71-0.84,3.54-1.385,5.287-2.124
	c4.697-2.75,9.168-5.953,13.557-9.173c4.555-3.364,8.883-7.048,12.772-11.144c7.375-7.664,13.889-16.197,20.05-24.892
	c5.604-7.947,10.756-16.222,15.805-24.545c1.471-2.233,2.854-4.673,5.113-6.201c0.939-0.495,2.188-0.778,3.159-0.25
	c0.956,0.869,0.491,2.326,0.514,3.456c-0.894,11.687-5.153,22.793-10.118,33.304c-7.646,15.939-17.514,30.756-28.767,44.371
	c-6.691,8.009-13.948,15.567-21.78,22.46c-6.029,4.985-13.332,8.068-20.245,11.628c-6.027,2.941-12.361,5.218-18.859,6.879
	c-14.006,3.787-28.218,6.871-42.029,11.33c-4.532,1.515-9.032,3.294-13.022,5.97c-1.438,0.908-2.986,1.723-4.545,2.318
	c-0.343,1.975,0.768,4.055-0.052,6.004c-0.739,2.127-3.182,3.057-5.284,2.943c-0.822,0.016-1.646-0.008-2.466-0.002
	c0.345,4.119,0.619,8.299,1.988,12.215c1.063,3.148,2.801,6.041,3.707,9.262c1.69,5.408,2.64,11.037,3.228,16.66
	c0.166,4.127-1.461,7.996-2.519,11.906c-0.927,3.645-1.228,7.414-1.25,11.172c-0.179,3.043-0.746,6.441-3.149,8.543
	c-1.666,1.355-3.867,1.822-5.488,3.242c-1.625,1.248-3.299,2.572-4.324,4.363c-1.613,4.403-2.16,9.118-2.973,13.731
	c-0.564,3.399-0.929,6.938,0.065,10.295c0.804,3.344,2.265,6.592,2.509,10.07c-0.029,3.086-2.22,5.545-4.009,7.848
	c-4.424,5.563-9.407,10.731-13.155,16.783c-2.089,3.575-2.789,7.737-2.938,11.823c-0.464,8.613-0.459,17.254-0.037,25.869
	c0.146,3.773,0.744,7.496,1.082,11.246c0.194,2.111-0.104,4.4-1.558,6.039c-3.008,3.875-7.637,6.23-12.354,7.338
	c-2.326,0.459-4.727,0.681-7.092,0.519c-0.879-0.16-1.457-1.104-1.227-1.979c0.192-5.404-0.599-10.779-1.3-16.117
	c-0.147-0.953-0.327-1.926-0.588-2.828c-0.948,2.479-1.203,5.229-1.625,7.859c-0.339,2.631-0.616,5.354-0.055,7.977
	c0.177,1.896,0.026,3.986-1.043,5.604C218.961,359.008,218.6,359.217,218.217,359.182z"/>
<path id="path2997_3_" fill="#E7CE97" d="M283.503,145.238c2.821-0.063,4.924-2.218,7.379-3.343
	c5.203-2.637,10.834-4.306,16.379-6.09c10.061-3.131,20.324-5.607,30.488-8.348c15.396-4.446,30.403-10.888,43.234-20.575
	c5.421-4.087,10.073-8.991,14.445-14.146c10.694-12.461,19.939-26.124,27.844-40.499c5.173-9.484,9.624-19.438,12.505-29.86
	c0.404-1.363,0.772-2.751,0.857-4.179c-2.85,3.283-4.724,7.29-7.128,10.902c-11.271,18.047-24.355,35.338-41.189,48.553
	c-11.146,8.792-23.897,15.423-37.28,20.115c-13.347,4.847-27.313,7.727-41.317,9.921c-12.78,2.087-25.519,4.507-38.178,7.191
	c-2.412,0.537-4.835,1.077-7.219,1.704c1.37,0.532,2.711,1.095,3.866,2.02c3.338,2.229,6.267,5.197,7.898,8.902
	c2.102,4.401,2.749,9.396,2.297,14.242c-0.061,0.931,0.023,2.275,1.133,2.539C280.795,144.774,282.141,145.132,283.503,145.238z
	 M170.359,141.359c0.955,0.062,2.289-0.135,2.49-1.269c0.852-2.996,1.791-5.955,2.998-8.829c1.576-3.896,3.234-7.82,5.592-11.313
	c0.564-0.8,1.18-1.567,1.76-2.359c-4.225-0.447-8.424-1.146-12.539-2.211c-14.188-3.358-28.168-7.517-42.273-11.188
	c-13.521-3.645-27.182-6.817-40.512-11.117c-8.549-2.775-16.891-6.289-24.526-11.06c-5.153-3.076-9.97-6.688-14.44-10.69
	c-5.938-5.188-11.713-10.609-16.765-16.667c-7.515-9.305-13.54-19.726-18.882-30.399c-2.627-5.306-4.871-10.791-7.104-16.264
	C5.771,7.117,5.361,5.958,4.777,5.332c-0.39,2.642,0.572,5.256,1.203,7.798c2.467,8.693,5.799,17.15,9.41,25.429
	c5.887,13.089,13.021,25.63,21.238,37.386c3.95,5.542,8.197,10.987,13.475,15.311c8.074,6.857,16.657,13.113,25.622,18.746
	c5.977,3.746,12.237,6.979,18.763,9.648c12.622,5.258,25.631,9.539,38.715,13.513c10.145,2.987,20.383,5.81,30.818,7.599
	C166.119,141.096,168.23,141.324,170.359,141.359L170.359,141.359z"/>
<path d="M0.404-0.397L0.313-0.336L0.237-0.257c-1.105,1.144-1.177,2.789-1.23,3.99c-0.002,0.174-0.003,0.349-0.003,0.524
	c0,5.839,1.07,12.002,3.181,18.359c3.16,8.664,7.113,17.575,12.83,28.92c3.957,8.073,8.551,15.585,13.652,22.317
	c9.981,13.09,21.667,24.6,34.735,34.211c6.769,5.034,14.139,9.425,21.901,13.047c12.771,5.903,26.792,11.241,42.868,16.32
	c10.255,3.172,21.196,6.416,32.371,8.194c1.367,0.279,2.795,0.403,4.177,0.523c1.633,0.142,3.176,0.286,4.683,0.665
	c-0.008,0.038-0.005,0.063-0.02,0.103l-0.029,0.08l-0.479,2.688c-0.793,4.459-1.614,9.07-2.567,13.568
	c-0.609,4.06-1.284,7.36-2.628,10.461c-3.382,6.577-4.764,13.89-5.665,20.167c-0.28,1.324-0.42,2.707-0.42,4.115
	c0,1.873,0.248,3.791,0.743,5.673c0.006,0.021,0.705,2.353,0.705,2.353c0.677,2.212,1.376,4.499,1.721,6.797
	c0.384,1.85,0.442,3.668,0.502,5.594c0.062,1.947,0.125,3.962,0.547,5.946c0.565,2.984,2.2,5.405,4.482,6.62
	c3.279,1.406,5.977,3.435,7.894,5.897c0.715,1.423,1.072,2.998,1.442,4.668l0.202,0.902c-0.007-0.034,0.074,0.388,0.074,0.388
	c0.753,3.909,1.533,7.951,1.884,11.949c0.35,3.147-0.557,6.103-1.517,9.231c-0.512,1.668-1.042,3.393-1.364,5.147
	c-0.75,2.902,0.625,5.665,1.913,7.459c2.733,3.613,5.676,7.114,8.522,10.5l5.439,6.562l-0.125-0.201l0.877,1.078
	c0.164,0.15,0.411,0.378,0.412,0.463l0.005,0.344l0.172,0.21l1.762,2.187l1.619,2c2.313,2.964,2.663,6.93,2.727,9.659
	c0.069,5.831-0.218,11.78-0.496,17.533c-0.296,6.124-0.601,12.457-0.482,18.713c0.003,0.058,0.049,1.295,0.049,1.295
	c0.026,1.415,0.056,3.019,0.971,4.407l0.037,0.057l0.044,0.052c2.235,2.56,5.279,4.227,7.961,5.52
	c3.583,1.894,7.593,2.6,11.47,3.283l0.402,0.07c0.765,0.074,1.455-0.234,1.929-0.813c0.897-1.35,1.332-2.997,1.332-4.954
	c0-0.443-0.022-0.902-0.066-1.377l-0.006-0.059l-0.012-0.058c-0.215-1.004-0.297-2.041-0.297-3.087c0-1.522,0.174-3.063,0.365-4.554
	c0-0.001,0.24-1.589,0.24-1.589c0.071-0.489,0.164-0.981,0.242-1.474c0.537,4.061,1.067,8.223,1.067,12.352
	c0,0.545-0.009,1.09-0.028,1.634l0.032-0.219c-0.184,0.694-0.063,1.449,0.332,2.068c0.386,0.606,0.999,1.025,1.682,1.149
	c2.403,0.171,4.877-0.008,7.466-0.52c5.507-1.293,10.094-4.026,12.95-7.706c1.398-1.574,2.023-3.924,1.764-6.744l-0.442-4.123
	c-0.269-2.316-0.546-4.712-0.637-7.069c-0.427-8.729-0.415-17.397,0.037-25.777c0.171-4.723,1.088-8.438,2.802-11.374
	c2.529-4.082,5.727-7.865,8.818-11.523l4.258-5.142c0.007-0.009,0.519-0.661,0.519-0.661c1.723-2.186,3.676-4.663,3.706-7.799
	c-0.17-2.463-0.874-4.722-1.555-6.905l-0.98-3.408c-0.956-3.232-0.59-6.663-0.053-9.897c-0.002,0.009,0.471-2.803,0.471-2.803
	c0.584-3.567,1.192-7.255,2.425-10.655c0.897-1.53,2.352-2.723,4.024-4.008c0.787-0.688,1.696-1.125,2.657-1.588
	c0.963-0.464,1.959-0.944,2.853-1.67c2.782-2.433,3.34-6.226,3.518-9.262c0.027-4.34,0.415-7.813,1.221-10.984
	c0.001,0,0.805-2.734,0.805-2.734c0.864-2.827,1.756-5.744,1.756-8.828c0-0.209-0.004-0.419-0.013-0.629
	c-0.682-6.538-1.75-12.052-3.271-16.918c-0.514-1.828-1.298-3.572-2.056-5.259c-0.59-1.311-1.199-2.666-1.658-4.025
	c-1.21-3.463-1.545-7.23-1.848-10.892c0.145,0,1.397-0.001,1.397-0.001c2.301,0.127,5.281-0.948,6.209-3.614
	c0.275-0.654,0.365-1.323,0.365-1.981c0-0.657-0.089-1.302-0.174-1.906c-0.077-0.56-0.152-1.098-0.152-1.605
	c0-0.058,0.011-0.112,0.014-0.169c1.347-0.559,2.729-1.257,4.132-2.142c4.163-2.792,8.809-4.532,12.808-5.869
	c9.096-2.937,18.548-5.32,27.689-7.625l14.282-3.688c6.686-1.708,13.096-4.046,19.038-6.945c0.02-0.01,4.379-2.195,4.379-2.195
	c5.509-2.726,11.206-5.544,16.064-9.561c7.621-6.707,14.984-14.3,21.911-22.59c11.884-14.378,21.606-29.375,28.9-44.579
	c4.245-8.989,9.239-20.933,10.214-33.661c0.003-0.097,0.044-0.895,0.044-0.895c0.024-0.29,0.051-0.61,0.051-0.942
	c0-0.829-0.163-1.734-0.934-2.435l-0.089-0.081l-0.105-0.058c-1.123-0.611-2.656-0.52-4.104,0.244
	c-2.228,1.499-3.594,3.615-4.914,5.661l-0.567,0.874c-4.812,7.931-10.038,16.364-15.787,24.519
	c-7.504,10.59-13.658,18.231-19.954,24.774c-3.623,3.816-7.758,7.423-12.645,11.033c-4.177,3.064-8.655,6.289-13.417,9.081
	c-0.119,0.046-2.014,0.782-2.014,0.782l-3.26,1.34c-10.796,5.142-23.115,9.195-38.76,12.748c-6.653,1.576-13.53,2.695-20.181,3.776
	l-7.91,1.315c-6.192,1.045-12.41,2.429-18.424,3.767l-5.548,1.226c0.021-0.004-3.566,0.721-3.566,0.721
	c-3.797,0.779-7.723,1.584-11.607,2.012c-1.975,0.403-3.827-0.539-5.392-1.512c-2.092-1.462-4.815-2.29-8.282-2.5
	c-7.266-0.356-14.64-0.354-21.771-0.353h-2.609c-0.013,0-4.016,0.031-4.016,0.031c-4.584,0.024-9.325,0.049-13.989,0.483
	l-0.112,0.01l-0.107,0.035c-3.111,1.02-6.207,2.228-9.2,3.397l-4.269,1.647l-0.097,0.062c-0.402,0.265-0.914,0.161-1.714-0.032
	l-0.246-0.059c-7.426-1.517-15.02-3.313-22.598-5.342l-11.915-3.267l-20.486-5.54c0,0-13.796-3.539-13.796-3.539
	c-12.719-3.197-25.87-6.502-38.314-11.221c-10.23-3.802-19.02-8.745-26.13-14.695c-11.122-9.381-21.09-21.724-30.471-37.729
	c-3.14-5.208-5.939-10.745-8.645-16.099c-2.08-4.114-4.23-8.368-6.527-12.461C7.184,3.027,6.545,1.945,6.545,1.945
	C6.145,1.203,5.691,0.361,4.938-0.281L4.873-0.337L4.798-0.381C3.402-1.206,1.636-1.213,0.404-0.397z M5.678,11.852
	c1.755,4.263,3.578,8.587,5.688,12.849c6.336,12.66,12.373,22.377,19,30.584c5.553,6.659,11.94,12.471,16.885,16.792
	c4.642,4.156,9.553,7.792,14.585,10.796c6.994,4.371,15.089,8.022,24.73,11.152c9.42,3.038,19.147,5.552,28.554,7.983l12.006,3.147
	c0.008,0.002,15.981,4.309,15.981,4.309c8.598,2.358,17.488,4.796,26.322,6.887c3.411,0.883,7.053,1.515,10.954,1.994
	c-0.295,0.398-0.762,1.027-0.762,1.027c-2.404,3.562-4.068,7.478-5.702,11.514c-1.057,2.515-1.993,5.273-3.032,8.931
	c-0.098,0.521-0.999,0.575-1.464,0.544l-0.049-0.002c-1.895-0.031-3.921-0.222-6.197-0.584c-10.47-1.795-20.939-4.7-30.692-7.571
	c-10.757-3.267-24.876-7.754-38.613-13.477c-6.387-2.612-12.648-5.832-18.616-9.572c-9.009-5.661-17.591-11.939-25.506-18.661
	c-5.332-4.369-9.546-9.853-13.308-15.129c-8.192-11.72-15.306-24.243-21.14-37.215c-4.26-9.765-7.235-17.805-9.36-25.292
	C5.943,12.855,5.788,12.27,5.678,11.852z M431.778,25.692c0.603-1.021,1.228-2.05,1.873-3.064
	c-2.604,9.237-6.603,18.764-12.257,29.13c-8.146,14.814-17.474,28.383-27.725,40.327c-5.249,6.189-9.654,10.505-14.288,13.999
	c-11.578,8.741-25.613,15.417-42.91,20.413c0.016-0.004-8.882,2.346-8.882,2.346c-7.117,1.86-14.477,3.783-21.626,6.009
	c-0.01,0.002-1.906,0.609-1.906,0.609c-4.89,1.559-9.946,3.171-14.628,5.543c0.035-0.017-2.431,1.382-2.431,1.382
	c-1.493,0.935-2.902,1.817-4.519,1.854c-1.048-0.087-2.295-0.386-3.606-0.886l-0.062-0.023l-0.063-0.015
	c-0.32-0.076-0.378-0.707-0.378-1.151c0-0.145,0.006-0.27,0.012-0.35c0.094-1.003,0.14-1.999,0.14-2.982
	c0-4.23-0.859-8.252-2.532-11.755c-1.545-3.509-4.4-6.735-8.245-9.303c-0.431-0.346-0.92-0.605-1.403-0.874
	c2.092-0.494,4.418-1.042,4.418-1.042c13.002-2.757,25.831-5.173,38.121-7.18c17.086-2.676,29.887-5.751,41.498-9.968
	c14.164-4.966,26.804-11.787,37.558-20.27c14.638-11.49,27.799-27,41.419-48.808C429.34,29.653,431.778,25.692,431.778,25.692z
	 M264.688,216.174c0.626,0.429,3.446,1.437,5.001,1.345c2.125-0.125,4.59-1.77,4.842-1.807c1.047,7.309-0.529,9.03-1.113,9.727
	c-1.217,1.408-8.546,4.565-10.054,6.108c-2.01,2.135-3.313,7.734-3.313,7.734s-2.285,12.086-2.285,17.946
	c0,1.458,0.068,2.919,0.222,4.381c0.182,2.583,1.064,5.06,1.877,7.176c0.247,0.521,0.342,1.05,0.342,1.556
	c0,1.22-0.552,2.305-0.859,2.817c-1.912,3.062-4.186,5.999-6.385,8.84l-4.277,5.686c-2.663,3.608-5.284,7.723-8.001,12.563
	l-0.123,0.219l-0.13,7.083l-0.055,4.146c0,0.001-0.123,8.711-0.123,8.711c-0.107,8.839-0.218,17.979-0.846,26.936l-0.004,0.059
	l0.003,0.058c0.003,0.055,0.004,0.115,0.004,0.179c0,0.541-0.112,1.368-0.719,1.902c-2.913,2.566-6.914,3.451-10.787,4.302
	c0.017-0.563,0.042-1.128,0.042-1.688c0-3.54-0.329-6.895-0.712-10.06c1.191,1.963,2.858,3.184,4.714,3.32
	c2.321,0.131,3.958-1.717,4.66-3.338c1.215-3.297,1.503-6.745,1.781-10.081l0.019-0.222c0.818-11.809,0.717-24.327-0.316-39.409
	c-0.002-0.016-0.228-2.846-0.228-2.846c-0.289-3.712-0.588-7.551-1.241-11.293c-0.025-0.106-0.133-0.614-0.133-0.614
	c-0.146-0.79-0.391-2.112-1.696-2.514l-0.12-0.037l-0.126-0.006c-1.602-0.076-2.038,1.607-2.224,2.327l-0.055,0.208l-0.01,0.051
	c-0.854,5.029-1.081,10.178-1.301,15.157c-0.143,3.222-0.289,6.554-0.605,9.8c0-0.001,0-0.001,0-0.001
	c0,0.004-0.192,1.756-0.192,1.756c-0.009,0.089-0.028,0.163-0.036,0.25c-0.178-0.057-0.352-0.098-0.478-0.108l-0.132-0.011
	l-0.129,0.024c-1.682,0.306-2.343,1.94-2.78,3.021l-0.048,0.117c-1.169,3.313-1.741,6.679-2.058,9.838
	c-0.102-2.333-0.151-4.664-0.166-6.946c0,0-0.131-6.931-0.132-7.011c0.006-0.06,0.025-0.117,0.025-0.176
	c0-0.646-0.371-1.295-0.966-1.604c-0.644-0.334-1.384-0.162-1.842,0.428l-0.152,0.197l-0.6,3.465l-0.364,2.275
	c-0.329,1.733-0.588,3.482-0.854,5.229c-0.079-2.115-0.214-4.281-1.323-6.254c-0.056-0.089-1.266-1.576-1.266-1.576
	c-0.63-0.725-1.226-1.408-1.607-2.194c-1.488-3.209-1.522-6.932-1.556-10.53l-0.027-1.97c0-0.023-0.046-1.266-0.046-1.266
	c-0.06-1.846-0.132-3.751-0.654-5.603c-0.105-0.627-0.442-1.07-0.692-1.393c0,0-0.243-0.376-0.276-0.427
	c-0.151-0.99-0.213-1.982-0.213-2.987c0-1.29,0.091-2.601,0.185-3.953c0.093-1.341,0.188-2.716,0.188-4.098
	c0-0.472-0.011-0.944-0.037-1.416l-0.013-0.115l-0.049-0.668c-0.026-0.771-0.063-1.825-0.923-2.563l-0.068-0.06l-0.079-0.045
	c-0.468-0.273-0.99-0.319-1.47-0.128c-0.936,0.372-1.352,1.486-1.487,1.948l-0.01,0.039c-0.817,3.28-1.129,6.383-0.925,9.223
	c0.474,2.568,0.17,5.179-0.151,7.435c0.001-0.01-0.552,3.506-0.552,3.506c-0.71,4.44-1.444,9.031-1.715,13.625
	c-0.432,8.848,0.126,17.571,0.792,25.68c0.002,0.021,0.225,2.338,0.225,2.338c0.309,3.317,0.628,6.748,1.553,10.049
	c0.396,1.077,1.525,4.116,4.343,4.469c0.054,0.005,1.324-0.15,1.324-0.15c2.479-0.9,3.442-3.507,3.921-5.122
	c-0.068,0.89-0.137,1.781-0.137,1.781c0.003-0.03-0.378,4.702-0.378,4.702c-0.161,2.43-0.327,4.942-0.754,7.353l0.028-0.115
	l-0.188,0.834c-0.04,0.215-0.08,0.421-0.131,0.602c-2.264-0.619-4.437-1.735-6.54-2.844l-0.126-0.067
	c-0.002-0.001-1.447-0.808-1.447-0.808c-1.556-0.852-3.009-1.679-4.179-2.814c-0.089-0.368-0.146-0.759-0.146-1.184
	c0-0.309,0.014-0.624,0.027-0.936l0.02-0.476c0.083-2.402,0.394-4.864,0.695-7.245c0.362-2.863,0.731-5.793,0.731-8.747
	c0-1.366-0.079-2.736-0.274-4.108c-0.479-2.067-0.715-3.921-0.715-5.614c0-1.127,0.105-2.183,0.313-3.183
	c0.498-1.819,0.741-3.704,0.741-5.599c0-5.353-1.938-10.782-5.531-15.021c-1.471-1.535-2.975-3.138-4.264-4.91
	c0-0.001-5.715-7.597-5.715-7.597l-5.06-6.701c-0.001-0.002-0.718-1.024-0.718-1.024c-1.16-1.628-2.359-3.311-2.359-5.16
	c0-0.024,0-0.049,0.001-0.073c0.114-0.85,0.476-1.797,0.859-2.8l0.813-2.444c0.574-2.533,0.794-5.111,0.794-7.663
	c0-4.065-1.597-14.279-1.597-14.279c-0.499-2.945-0.34-5.83-2.276-8.815c-2.804-4.325-10.471-6.825-11.804-8.659
	c-0.616-0.848-2.167-3.666-2.144-9.8c1.321,0.998,3.259,2.299,5.644,2.217c2.417-0.083,3.654-1.762,4.708-1.625
	c1.26,0.163,5.203,5.925,7.705,7.475l-0.203-0.166c0.507,0.541,1.33,0.649,2.032,0.345c0.017,0.313,0.082,0.63,0.247,0.9
	c1.88,3.342,7.065,10.86,7.065,10.86c0.579,0.867,1.235,1.851,2.351,2.414l0.106,0.054l0.115,0.026
	c0.587,0.14,1.153-0.016,1.55-0.428c0.458-0.475,0.63-1.237,0.438-1.944c-0.806-2.938-7.589-12.865-9.774-13.671l-0.063-0.023
	l-0.066-0.015c-0.354-0.078-0.691-0.026-0.993,0.104c-0.01-0.056-0.008-0.11-0.023-0.165l-0.034-0.118l-0.062-0.106
	c-0.909-1.576-2.18-2.835-3.409-4.052c0,0-4.192-4.108-4.346-5.569c-1.008-9.545-10.508-16.545-15.008-22.045
	c0.647-4.805,3.76-11.006,6.408-15.756c1.636-2.302,2.874-5.17,3.624-8.435c1.522-7.024,2.319-14.247,3.09-21.232l0.492-4.398
	c0.053-1.845,0.708-3.499,1.402-5.25l0.444-1.137c1.761-4.371,3.766-9.347,7.514-12.641c2.239-2.025,5.033-3.003,7.991-4.038
	c1.617-0.566,3.289-1.151,4.863-1.922c2.469-1.493,5.412-2.325,9.341-2.664c3.599-0.173,7.324-0.013,10.924,0.143l4.442,0.169
	c3.755,0.201,7.56,0.218,11.283,0.051c0.006,0,2.191-0.029,2.191-0.029c2.718-0.064,5.531-0.13,7.93,0.998
	c4.26,2.508,8.25,4.25,12.117,5.279c8.016,1.707,14.438,9.165,14.988,17.36c0.049,0.367,0.068,0.73,0.068,1.093
	c0,0.904-0.125,1.802-0.256,2.736c-0.137,0.979-0.277,1.981-0.277,3.01c0,0.277,0.023,0.558,0.047,0.838
	c-0.411-0.147-1.163-0.259-1.983,0.483l-0.059,0.053l-0.049,0.062c-0.755,0.937-1.055,2.063-1.318,3.058l-0.27,0.951
	c-0.892,3.734-1.337,7.247-1.337,10.525c0,3.378,0.473,6.508,1.414,9.374c0.526,1.804,1.492,3.403,2.426,4.948l1.146,1.972
	c2.359,4.861,4.797,10.088,5.485,14.359c-4.75,5.708-14.833,12.083-15.763,21.885c-0.261,2.746-1.502,3.82-3.248,5.582
	c0,0-3.414,3.608-3.684,4.577l-0.019,0.066c0,0-0.001,0.013-0.003,0.022c-0.069-0.031-0.118-0.088-0.194-0.111l-0.175-0.054
	l-0.182,0.012c-1.618,0.104-2.825,1.4-3.474,2.097l-0.037,0.042c-2.855,3.429-5.034,6.916-6.475,10.365
	c-0.278,0.702-1.074,2.715,0.633,3.535l0.162,0.078l0.18,0.017c1.045,0.097,1.78-0.707,2.094-1.051
	c2.647-3.491,5.216-7.341,7.913-11.839c0.236-0.313,0.46-0.849,0.507-1.407c0.642,0.273,1.438,0.193,1.976-0.253
	C260.339,221.896,263.272,218.103,264.688,216.174z M273.65,154.347c0.529-0.375,0.845-0.938,0.889-1.586
	c0.051-0.312,0.072-0.624,0.072-0.936c0-0.726-0.125-1.446-0.265-2.159c0.003,0.003,0.005,0.007,0.007,0.01
	c0.845,1.248,1.643,2.427,1.956,3.762c0.008,0.034,0.012,0.068,0.012,0.101c0,0.352-0.438,0.622-0.743,0.715
	c-0.795,0.25-1.73,0.375-2.761,0.448C273.118,154.629,273.405,154.521,273.65,154.347z M271.665,154.762
	c0-0.011,0.004-0.025,0.004-0.036c0.07,0.014,0.141,0.021,0.211,0.028c-0.075,0.002-0.137,0.011-0.214,0.012
	C271.666,154.765,271.665,154.764,271.665,154.762z M209.234,310.96c0.35,1.023,0.842,2.037,1.799,2.785
	c0.505,0.463,1.107,0.618,1.682,0.686c-0.491,0.998-1.183,2.018-2.315,3.112l-0.087,0.096c0,0-0.578,0.508-0.677,0.594
	C209.469,315.779,209.363,313.381,209.234,310.96z M210.795,322.398c1.645-0.387,2.836-1.411,3.85-2.568
	c0.001,0.19,0.003,0.479,0.003,0.479c-0.116,5.563-0.94,10.907-2.449,15.865c0.033-0.093-0.273,0.766-0.273,0.766
	c-0.049,0.148-0.104,0.274-0.155,0.416c-0.551-1.614-0.77-3.387-0.971-5.119l-0.128-1.078c-0.27-2.917-0.478-5.814-0.699-8.716
	C210.265,322.456,210.549,322.448,210.795,322.398z M228.678,320.91c0.356,0.282,0.732,0.58,0.732,0.58
	c1.663,1.265,3.234,2.459,3.949,4.245c0.247,0.804,0.342,1.655,0.342,2.532c0,1.468-0.265,3.008-0.524,4.516
	c-0.006,0.042-0.429,2.233-0.429,2.233c-0.291,1.603-0.645,3.108-1.146,4.55c-0.113-0.207-0.231-0.413-0.326-0.628
	C228.99,333.213,228.716,326.916,228.678,320.91z M222.44,139.832c-0.758,0.017-1.369,0.608-1.423,1.376l-0.123,6.325l-0.049,3.79
	c0,0.016-0.001,0.36-0.001,0.36c-0.035,7.068-0.071,14.376,1.007,21.511c0.013,0.066,0.15,1.072,0.15,1.072
	c0.082,0.824,0.176,1.757,0.718,2.581l0.214,0.325l0.005-0.088l0.966,0.242l1.194-0.801l-0.186-0.056
	c0.354-1.229,0.387-2.477,0.418-3.682l0.078-1.674c0.227-7.202-0.315-14.425-0.839-21.41l-0.285-3.864
	c-0.005-0.051-0.131-1.875-0.131-1.875c-0.041-0.963-0.084-1.959-0.304-2.953C223.781,140.354,223.181,139.816,222.44,139.832z
	 M185.169,159.372l-0.106,0.1l-0.073,0.126c-0.769,1.323-0.669,2.891-0.59,4.15l0.012,0.184c0.005,0.059,0.45,4.704,0.45,4.704
	c0.232,2.792,0.472,5.678,1.061,8.498l0.007,0.032l0.181,0.642c0.219,0.861,0.55,2.161,1.881,2.604l0.101,0.034l0.105,0.012
	c1.02,0.113,1.927-0.643,2.158-1.798c0.293-1.828,0.002-3.564-0.28-5.242l-0.283-1.875c-0.005-0.038-0.445-3.63-0.445-3.63
	c-0.261-2.439-0.531-4.961-1.265-7.396l0.041,0.231c-0.042-0.728-0.55-1.427-1.236-1.7
	C186.283,158.807,185.641,158.929,185.169,159.372z M254.33,158.973c-0.645,0.148-1.205,0.705-1.403,1.383
	c-0.577,1.649-0.791,3.365-0.993,5.026l-0.261,1.949c-0.006,0.041-1.171,9.149-1.171,9.149c-0.038,0.332-0.058,0.643-0.058,0.935
	c0,1.596,0.57,2.602,1.701,2.994l0.09,0.03l0.094,0.014c0.638,0.093,1.29-0.198,1.703-0.759l0.034-0.047l0.028-0.05
	c0.932-1.633,1.195-3.547,1.429-5.237l0.041-0.301c0.006-0.055,0.487-5.066,0.487-5.066l0.504-5.271
	c0.003-0.108,0.013-0.893,0.013-0.893c0.031-1.027,0.065-2.191-0.605-3.228l-0.042-0.066l-0.052-0.058
	C255.469,159.031,254.894,158.842,254.33,158.973z M217.602,217.948l-0.049,0.051c-2.64,2.956-4.194,6.662-5.566,9.933
	c-0.014,0.035-0.33,0.866-0.33,0.866c-0.899,2.357-1.899,4.977-1.899,7.704c0,0.49,0.044,0.984,0.115,1.48
	c0,0.015-0.001,0.029-0.001,0.044c0,0.008,0.006,0.013,0.006,0.021c0.005,0.031,0.002,0.063,0.008,0.095
	c0,0-0.002-0.044-0.004-0.085c0.014,0.675,0.429,1.264,1.082,1.487c0.713,0.245,1.502-0.013,1.921-0.626l0.044-0.064l0.033-0.07
	c0.628-1.329,1.112-2.724,1.579-4.073l1.16-3.118c0.529-1.377,1.228-2.616,2.089-3.717c0.611-0.762,0.743-1.618,0.86-2.373
	c0.079-0.513,0.147-0.955,0.35-1.301c0.463-0.843,1.194-1.939,2.162-2.699c0.113,0.092,0.211,0.171,0.211,0.171
	c0.005,0.002,0.009,0.001,0.014,0.003c-0.68,1.187-0.772,2.505-0.772,3.726c0,0.159,0.001,0.317,0.002,0.473l-0.01,1.125
	c-0.148,13.71-0.405,24.741-0.809,34.749c0.001-0.019-0.153,3.412-0.153,3.412c-0.09,2.483-0.184,5.052-0.594,7.504
	c-0.398,6.57,0.201,13.1,0.78,19.41l0.088,0.96l0.032,0.167l0.065,0.591c0.041,0.677,0.108,1.809,1.162,2.374l0.318,0.172
	l-0.035-0.071l1.037-0.212c0.521-0.354,0.705-0.966,0.769-1.3l0.014-0.071l0.003-0.072c0.426-9.974,0.639-20.124,0.846-29.94
	l0.67-25.524c0.139-4.509,0.348-8.579,0.64-12.451c0.003-0.083,0.036-1.22,0.036-1.22c0.017-0.375,0.035-0.766,0.035-1.165
	c0-0.87-0.086-1.779-0.453-2.645c-0.058-0.127-0.173-0.196-0.25-0.305c0.147-0.059,0.249-0.1,0.35-0.14
	c0.314,0.033,0.724,0.892,0.903,1.271c1.938,4.904,3.598,10.483,5.208,17.521c0.228,1.098,0.688,3.271,2.422,4.151
	c-0.277,0.052-0.561,0.085-0.801,0.252c-0.802,0.56-1.129,1.591-1.263,2.356c-1.008,5.023-1.182,10.195-1.217,14.59
	c0.002,0.069,0.017,0.508,0.017,0.508c0.021,0.972,0.056,2.599,1.586,3.2l0.115,0.045l0.122,0.016
	c0.532,0.069,1.079-0.151,1.464-0.591l0.1-0.114l0.062-0.139c0.201-0.453,0.294-0.917,0.386-1.381
	c0.389,0.311,0.857,0.504,1.357,0.529c1.685,0.085,3.459-0.593,5.13-1.96c0.049-0.042,1.64-1.559,1.64-1.559
	c1.315-1.269,2.558-2.467,3.955-3.545c1.376-1.159,2.834-2.088,4.377-3.07l1.495-0.962c0.813-0.596,3.054-2.242,3.054-4.668
	c0-0.146-0.017-0.297-0.033-0.449c-0.002-0.922-0.489-1.863-1.212-2.343c-0.581-0.385-1.255-0.447-1.901-0.183
	c-1.199,0.458-1.617,1.549-1.921,2.35l-0.329,0.762c-0.723,1.15-1.99,1.829-3.333,2.548c-1.146,0.613-2.323,1.26-3.285,2.254
	c-0.501,0.409-0.706,0.931-0.85,1.316l-0.201,0.439c-0.461,0.48-1.159,0.854-1.898,1.252c-0.826,0.442-1.672,0.916-2.393,1.653
	c-0.445,0.341-0.7,0.783-0.897,1.146c-0.103,0.187-0.203,0.349-0.291,0.437c-0.148-0.023-0.307-0.048-0.307-0.048
	c-0.461-0.095-1.103-0.205-1.745,0.038c0.074-0.933,0.185-2.308,0.185-2.308c0.12-2.206,0.234-4.29,1.054-6.188
	c0.876-1.734,2.286-3.163,3.778-4.677c1.33-1.347,2.704-2.74,3.729-4.438l-0.174,0.214c0.532-0.497,0.689-1.295,0.391-1.985
	c-0.283-0.655-0.917-1.05-1.614-1.005l-0.138,0.009l-0.13,0.046c-1.732,0.609-2.974,1.847-4.174,3.043c0,0-0.322,0.305-0.638,0.604
	c0.002-0.047,0.024-0.088,0.024-0.134c0-0.104-0.005-0.209-0.017-0.313c-0.376-2.723-1.293-5.282-2.179-7.758l-0.485-1.363
	l-0.689-1.912c-0.84-2.29-1.709-4.658-2.007-7.068l-0.011-0.091l-0.027-0.087c-0.733-2.334-2.107-4.396-3.868-5.805
	C224.801,215.215,220.271,215.352,217.602,217.948z M221.501,221.445c-0.003,0.004-0.008,0.013-0.009,0.015L221.501,221.445z
	 M198.2,238.601c-0.587,0.224-0.972,0.729-1.029,1.354l-0.015,0.158l0.035,0.155c0.276,1.212,1.077,2.124,1.783,2.93l0.355,0.409
	c-0.005-0.007,2.172,2.325,2.172,2.325c1.587,1.604,3.086,3.117,3.826,5.101c0.595,2.087,0.725,4.333,0.862,6.71
	c0,0,0.049,0.631,0.083,1.067c-0.634-0.24-1.318-0.097-1.774,0.006c0,0-0.151,0.03-0.264,0.053
	c-0.059-0.095-0.189-0.303-0.189-0.303l-0.163-0.287c-0.904-1.391-2.201-2.11-3.456-2.807l-1.511-0.899
	c-0.111-0.059-0.187-0.228-0.322-0.574l-0.541-1.03c-1.035-1.203-2.341-1.906-3.605-2.587c-1.334-0.718-2.594-1.396-3.362-2.559h0
	c0-0.018-0.318-0.744-0.318-0.744c-0.321-0.84-0.761-1.99-2.036-2.424c-0.635-0.22-1.291-0.131-1.842,0.252
	c-0.785,0.546-1.154,1.549-1.174,2.305c-0.017,0.151-0.032,0.303-0.032,0.449c0,2.461,2.337,4.164,3.142,4.751
	c3.728,2.269,6.476,4.324,8.72,6.516c0,0.001,0.369,0.375,0.369,0.375c1.794,1.831,3.829,3.906,6.755,4.14
	c0.018,0.001,0.697-0.057,0.919-0.075c0.386-0.051,0.73-0.242,1.044-0.475c0.081,0.701,0.301,1.519,1.121,2.046l0.117,0.075
	l0.133,0.041c0.469,0.143,0.954,0.082,1.365-0.173c0.768-0.473,0.979-1.389,1.025-1.657c0.105-1.136,0.147-2.267,0.147-3.391
	c0-2.614-0.231-5.193-0.458-7.713l-0.045-0.505c-0.006-0.053-0.18-1.571-0.18-1.571c-0.154-1.532-0.333-3.112-1.016-4.604
	c-0.281-0.925-1.143-1.454-2.185-1.385c-1.263-0.511-2.273-1.48-3.328-2.529c-0.978-0.974-1.989-1.979-3.287-2.674l0.211,0.151
	C199.726,238.508,198.881,238.342,198.2,238.601z"/>
<path id="path2997" d="M218.363,359.367c-3.971-0.701-8.013-1.369-11.612-3.27c-2.789-1.345-5.588-2.925-7.642-5.277
	c-1-1.519-0.721-3.445-0.855-5.172c-0.231-12.097,1.12-24.158,0.977-36.25c-0.084-3.568-0.649-7.318-2.906-10.207
	c-1.02-1.467-2.366-2.721-3.379-4.185c-0.014-0.87-1.04-1.221-1.385-1.952c-4.591-5.697-9.508-11.173-13.928-17.017
	c-1.37-1.908-2.354-4.317-1.742-6.695c0.901-4.895,3.462-9.549,2.894-14.647c-0.368-4.191-1.183-8.34-1.979-12.473
	c-0.458-1.996-0.819-4.052-1.758-5.88c-2.138-2.782-5.069-4.872-8.285-6.247c-2.222-1.183-3.518-3.537-3.974-5.945
	c-0.803-3.775-0.25-7.703-1.039-11.48c-0.475-3.17-1.564-6.186-2.447-9.256c-0.804-3.055-0.954-6.291-0.3-9.391
	c0.982-6.84,2.417-13.732,5.592-19.912c1.468-3.386,2.146-7.024,2.689-10.652c1.139-5.377,2.069-10.798,3.038-16.203
	c0.185-0.514,0.219-1.363-0.528-1.383c-2.97-0.779-6.091-0.624-9.096-1.235c-10.962-1.744-21.64-4.885-32.227-8.16
	c-14.544-4.595-28.897-9.871-42.746-16.273c-7.655-3.572-14.952-7.904-21.732-12.946c-13.069-9.613-24.697-21.114-34.53-34.01
	c-5.24-6.916-9.738-14.373-13.556-22.163c-4.723-9.375-9.175-18.921-12.773-28.786C1.154,16.34-0.063,10.076,0.006,3.777
	c0.05-1.145,0.12-2.48,0.95-3.34c0.97-0.642,2.357-0.534,3.333,0.043C5.25,1.3,5.647,2.587,6.367,3.605
	c5.28,9.407,9.62,19.352,15.182,28.577c8.258,14.089,18.196,27.449,30.692,37.99c7.806,6.532,16.912,11.331,26.417,14.863
	c16.939,6.423,34.737,10.127,52.214,14.793c10.832,2.806,21.591,5.885,32.393,8.805c7.492,2.006,15.038,3.799,22.63,5.35
	c0.91,0.212,1.877,0.518,2.737-0.048c4.437-1.673,8.826-3.516,13.327-4.991c5.952-0.555,11.94-0.435,17.911-0.51
	c8.104,0.004,16.221-0.046,24.319,0.351c2.742,0.166,5.529,0.755,7.814,2.351c1.791,1.114,3.859,2.105,6.029,1.657
	c5.139-0.567,10.201-1.755,15.277-2.75c7.957-1.731,15.887-3.627,23.93-4.984c9.391-1.631,18.865-2.904,28.142-5.102
	c13.36-3.034,26.584-6.921,38.979-12.825c1.71-0.84,3.54-1.385,5.286-2.124c4.697-2.75,9.169-5.953,13.558-9.173
	c4.554-3.364,8.882-7.048,12.771-11.144c7.375-7.664,13.89-16.196,20.051-24.891c5.603-7.947,10.756-16.222,15.805-24.545
	c1.47-2.233,2.854-4.673,5.113-6.201c0.938-0.495,2.188-0.778,3.158-0.25c0.956,0.869,0.491,2.326,0.515,3.456
	c-0.895,11.688-5.154,22.793-10.118,33.304c-7.646,15.938-17.514,30.756-28.767,44.37c-6.691,8.009-13.948,15.567-21.78,22.46
	c-6.03,4.985-13.332,8.068-20.245,11.628c-6.028,2.941-12.362,5.218-18.86,6.879c-14.006,3.787-28.218,6.871-42.028,11.33
	c-4.533,1.515-9.033,3.295-13.023,5.971c-1.438,0.907-2.986,1.722-4.545,2.317c-0.342,1.976,0.768,4.055-0.051,6.004
	c-0.74,2.127-3.182,3.057-5.285,2.943c-0.822,0.017-1.645-0.007-2.465-0.002c0.344,4.119,0.619,8.299,1.988,12.215
	c1.063,3.149,2.801,6.041,3.707,9.263c1.69,5.408,2.639,11.037,3.227,16.66c0.166,4.127-1.461,7.996-2.518,11.905
	c-0.927,3.646-1.228,7.414-1.25,11.172c-0.179,3.044-0.746,6.441-3.15,8.544c-1.666,1.354-3.867,1.821-5.488,3.241
	c-1.625,1.248-3.299,2.573-4.324,4.363c-1.613,4.403-2.16,9.118-2.973,13.731c-0.564,3.4-0.928,6.939,0.066,10.295
	c0.803,3.345,2.264,6.592,2.508,10.07c-0.029,3.086-2.219,5.545-4.008,7.848c-4.424,5.564-9.408,10.732-13.156,16.783
	c-2.088,3.576-2.789,7.738-2.938,11.824c-0.464,8.613-0.459,17.254-0.037,25.869c0.146,3.773,0.744,7.496,1.082,11.246
	c0.194,2.111-0.104,4.4-1.558,6.039c-3.008,3.875-7.637,6.23-12.354,7.338c-2.326,0.459-4.727,0.68-7.092,0.518
	c-0.879-0.16-1.457-1.104-1.227-1.979c0.193-5.404-0.598-10.779-1.299-16.117c-0.148-0.953-0.328-1.926-0.588-2.828
	c-0.949,2.479-1.203,5.229-1.625,7.858c-0.339,2.632-0.616,5.354-0.055,7.978c0.177,1.896,0.026,3.986-1.043,5.604
	C219.108,359.193,218.746,359.402,218.363,359.367z M215.761,355.469c0.587-0.594,0.563-1.564,0.793-2.324
	c0.71-4.008,0.703-8.104,1.145-12.151c0.855-10.935,1.539-21.906,3.587-32.697c0.344-1.823,0.514-3.726,0.924-5.51
	c0.457-0.589,1.16,0.192,0.992,0.741c0.258,5.88-0.04,11.775,0.505,17.646c0.396,6.037,1.29,12.013,2.174,17.992
	c0.73,5.248,1.264,10.563,0.993,15.867c0.101,0.317,0.567-0.255,0.8-0.119c4.081-0.899,8.454-1.787,11.678-4.627
	c0.816-0.72,1.102-1.813,1.053-2.877c0.832-11.882,0.755-23.798,0.971-35.697c0.07-3.655,0.053-7.338,0.18-10.978
	c2.418-4.307,5.016-8.504,7.944-12.473c3.497-4.924,7.509-9.473,10.704-14.59c0.936-1.559,1.413-3.525,0.594-5.246
	c-0.857-2.232-1.646-4.52-1.816-6.922c-0.776-7.404,0.684-14.791,2.052-22.037c0.59-2.531,1.213-5.273,3.047-7.221
	c2.837-2.904,7.442-3.086,10.104-6.165c1.394-1.663,1.397-3.987,1.504-6.056c-0.043-1.688,0.09-3.424-0.258-5.082
	c-0.203-0.674-0.984-0.102-1.44-0.137c-2.45,0.398-4.875-0.32-7.281-0.633c-1.167-0.019-1.929,0.973-2.487,1.867
	c-2.022,2.65-4.425,5.039-7.199,6.895c-0.449,0.383-1.41,0.242-1.313-0.479c0.306-1.099,1.319-1.753,1.968-2.635
	c2.153-2.315,4.75-4.423,5.938-7.439c0.24-2.077,1.81-3.653,2.928-5.317c3.17-4.192,7.234-7.674,10.132-12.041
	c1.079-1.733,1.22-3.85,0.806-5.81c-0.781-4.847-2.506-9.497-4.645-13.902c-1.201-2.235-2.783-4.296-3.503-6.759
	c-2.043-6.219-1.574-12.995-0.075-19.28c0.402-1.249,0.572-2.643,1.414-3.688c1.346-1.217,2.229,1.18,2.324,2.25
	c0.217,1.606,0.809,3.224,0.547,4.859c-0.061,0.896-1.033,1.254-1.793,1.043c-0.465-0.189-0.943,0.041-1.023,0.547
	c-0.146,0.569-0.061,1.478,0.699,1.496c1.496,0,3.027-0.124,4.449-0.57c0.859-0.265,1.639-1.03,1.41-2
	c-0.748-3.185-3.787-5.38-4.29-8.656c-0.312-2.655,0.759-5.271,0.405-7.938c-0.578-8.607-7.287-16.463-15.729-18.259
	c-4.226-1.125-8.192-3.01-11.949-5.218c-3.294-1.547-7.058-1.036-10.59-1.063c-3.735,0.168-7.478,0.148-11.211-0.051
	c-5.157-0.146-10.322-0.558-15.48-0.309c-3.367,0.29-6.78,0.994-9.695,2.762c-4.314,2.113-9.401,2.785-13.074,6.107
	c-3.886,3.415-5.896,8.339-7.789,13.038c-0.813,2.148-1.843,4.284-1.905,6.627c-0.98,8.533-1.741,17.115-3.563,25.521
	c-0.67,2.916-1.792,5.725-3.523,8.172c-2.721,4.88-4.57,10.229-5.504,15.735c-0.301,2.047-0.039,4.291,1.305,5.932
	c3.047,4.39,7.215,7.875,10.3,12.248c1.079,1.412,2.158,2.935,2.438,4.728c0.667,1.75,1.987,3.162,3.213,4.539
	c1.589,1.701,3.446,3.207,4.611,5.228c0.207,0.721-0.84,1.065-1.291,0.584c-2.471-1.531-4.477-3.679-6.416-5.808
	c-0.834-0.992-1.439-2.481-2.758-2.867c-1.581-0.271-3.073,0.527-4.647,0.57c-1.452,0.185-2.932,0.047-4.353-0.203
	c-0.581,0.431-0.344,1.412-0.459,2.062c-0.067,2.774-0.279,5.688,0.744,8.317c1.321,2.617,4.356,3.603,6.875,4.738
	c2.271,0.953,4.539,2.453,5.465,4.84c1.564,3.504,1.938,7.392,2.656,11.138c0.999,6.245,1.777,12.737,0.363,18.979
	c-0.444,1.852-1.46,3.584-1.699,5.461c-0.045,2.644,1.862,4.785,3.27,6.867c3.53,4.797,7.262,9.475,10.772,14.293
	c1.293,1.778,2.793,3.389,4.31,4.969c4.539,5.353,6.439,12.949,4.573,19.769c-0.629,3.024-0.301,6.164,0.391,9.142
	c0.948,6.663-0.931,13.278-1.162,19.927c-0.035,1.045-0.147,2.172,0.175,3.16c1.691,1.744,3.998,2.762,6.083,3.975
	C210.572,353.543,213.063,354.871,215.761,355.469z M232.021,344.414c-2.403-0.178-3.984-2.428-4.758-4.508
	c-1.879-5.074-2.119-10.578-2.133-15.945c0.079-5.379,0.557-10.844,2.354-15.941c0.402-0.99,0.894-2.315,2.08-2.531
	c0.951,0.078,1.129,1.234,1.146,2c0.399-1.54,0.407-3.2,0.638-4.797c0.807-8.28,0.502-16.672,1.897-24.887
	c0.178-0.658,0.392-1.795,1.254-1.754c0.946,0.291,0.912,1.566,1.138,2.344c0.809,4.627,1.063,9.344,1.456,14.035
	c0.896,13.062,1.224,26.188,0.318,39.258c-0.281,3.363-0.548,6.801-1.722,9.988C235.059,343.133,233.729,344.51,232.021,344.414z
	 M211.718,343.414c-1.89-0.236-2.907-2.139-3.504-3.746c-1.111-3.965-1.324-8.113-1.745-12.199
	c-0.698-8.488-1.205-17.023-0.79-25.539c0.339-5.731,1.393-11.381,2.26-17.049c0.359-2.523,0.632-5.115,0.158-7.646
	c-0.214-2.989,0.179-6.023,0.898-8.909c0.181-0.617,0.72-1.689,1.493-1.238c0.741,0.636,0.487,1.774,0.637,2.642
	c0.233,4.211-0.768,8.455-0.105,12.641c0.188,0.67,0.862,1.037,0.971,1.758c0.631,2.164,0.578,4.473,0.68,6.711
	c0.096,4.338-0.183,8.893,1.682,12.914c0.708,1.459,1.98,2.525,2.902,3.824c1.369,2.436,1.098,5.355,1.305,8.055
	c0.191,7.633-0.489,15.359-2.532,22.711c-0.544,1.928-1.359,4.215-3.413,4.961C212.326,343.395,212.022,343.436,211.718,343.414z
	 M231.991,341.441c1.286-2.619,1.551-5.58,2.157-8.406c0.432-2.51,0.906-5.191,0.14-7.672c-1.095-2.734-3.841-4.178-5.97-6.014
	c-0.875-1.054-0.623,0.239-0.651,0.946c0.024,6.412,0.282,13.019,2.685,19.027C230.706,340.135,231.175,341.033,231.991,341.441z
	 M211.648,339.332c0.937-0.625,1.103-1.895,1.508-2.867c1.588-5.219,2.378-10.688,2.492-16.156c0-1.113-0.021-2.227-0.023-3.34
	c-1.315,1.779-2.734,3.91-5.027,4.449c-0.621,0.125-1.69,0.023-1.688-0.797c0.264-1.111,1.523-1.529,2.184-2.359
	c1.354-1.309,2.647-2.898,3.125-4.719c-0.851-0.119-1.855,0.066-2.57-0.586c-1.383-1.08-1.625-2.963-2.137-4.539
	c-0.48-2.012-0.944-4.074-0.633-6.148c0.1-1.76,0.113-3.639-0.617-5.25c-0.703,2.709-0.345,5.572-0.336,8.351
	c0.36,8.649,0.955,17.293,1.753,25.912c0.33,2.645,0.506,5.424,1.731,7.831C211.467,339.203,211.542,339.301,211.648,339.332
	L211.648,339.332z M221.65,295.285c-0.818-0.439-0.524-1.59-0.736-2.352c-0.612-6.679-1.278-13.396-0.877-20.104
	c0.608-3.636,0.532-7.361,0.76-11.041c0.467-11.576,0.684-23.162,0.809-34.746c0.072-1.683-0.229-3.571,0.733-5.051
	c0.413-0.658,1.468-0.67,1.797,0.065c0.603,1.42,0.294,3.055,0.306,4.563c-0.313,4.157-0.514,8.321-0.642,12.489
	c-0.68,18.479-0.728,36.996-1.516,55.459C222.227,294.871,222.034,295.359,221.65,295.285L221.65,295.285z M232.378,264.141
	c-1.083-0.426-0.91-1.826-0.969-2.77c0.039-4.826,0.252-9.691,1.202-14.426c0.146-0.836,0.591-2.064,1.648-1.871
	c0.991-0.031,1.775-0.844,2.539-1.406c1.702-1.438,3.112-3.447,5.285-4.211c0.654-0.043,0.928,0.84,0.477,1.262
	c-2.072,3.432-5.754,5.631-7.569,9.234c-1.306,3.021-0.959,6.42-1.382,9.631c-0.145,1.439-0.061,2.969-0.649,4.299
	C232.816,264.047,232.604,264.17,232.378,264.141z M208.296,264.098c-0.911-0.586-0.588-1.848-0.824-2.752
	c-0.416-3.549-0.221-7.221-1.207-10.662c-1.184-3.174-4.069-5.192-6.172-7.723c-0.741-0.875-1.665-1.766-1.926-2.914
	c0.063-0.686,0.995-0.697,1.406-0.313c2.59,1.385,4.073,4.313,6.883,5.344c0.577-0.123,1.262,0.025,1.445,0.664
	c0.886,1.846,0.857,3.967,1.142,5.963c0.337,3.766,0.711,7.576,0.366,11.35C209.319,263.58,208.931,264.291,208.296,264.098
	L208.296,264.098z M204.75,262.445c-2.746-0.219-4.69-2.396-6.504-4.232c-2.625-2.564-5.695-4.705-8.83-6.609
	c-1.383-1.008-2.971-2.471-2.701-4.36c0.02-0.859,0.699-1.986,1.695-1.642c1.188,0.404,1.292,1.838,1.84,2.771
	c1.682,2.549,5.093,2.979,7.02,5.219c0.464,0.584,0.44,1.478,1.18,1.867c1.56,1.067,3.498,1.681,4.578,3.34
	c0.291,0.479,0.524,1.172,1.223,1.086c0.665-0.09,1.443-0.469,2.016,0.095c0.909,0.733,0.261,2.287-0.824,2.41
	C205.216,262.445,204.982,262.459,204.75,262.445z M235.667,262.438c-1.168-0.059-1.946-1.739-0.94-2.508
	c0.662-0.531,1.494-0.037,2.215-0.043c0.86-0.262,0.914-1.354,1.598-1.848c1.243-1.338,3.184-1.721,4.438-3.039
	c0.405-0.496,0.381-1.215,0.922-1.637c1.959-2.088,5.262-2.538,6.838-5.053c0.527-0.91,0.619-2.265,1.753-2.687
	c0.989-0.415,1.743,0.729,1.745,1.603c0.273,1.836-1.223,3.289-2.569,4.278c-2.011,1.32-4.089,2.521-5.935,4.076
	c-2.021,1.56-3.758,3.392-5.616,5.121C238.869,261.721,237.327,262.521,235.667,262.438z M234.645,243.469
	c-1.615-0.398-2.107-2.258-2.402-3.678c-1.375-6.01-3.004-11.975-5.27-17.705c-0.375-0.795-0.943-2.02-2.005-1.863
	c-0.991,0.316-2.081,1.133-3.141,0.56c-0.339-0.173-0.521-0.761-0.944-0.38c-1.202,0.791-2.064,2.05-2.747,3.293
	c-0.652,1.113-0.302,2.525-1.134,3.563c-0.933,1.191-1.677,2.521-2.222,3.941c-0.996,2.342-1.636,4.856-2.723,7.155
	c-0.349,0.513-1.225,0.285-1.184-0.371c-0.535-3.354,0.884-6.6,2.036-9.666c1.425-3.397,2.917-6.885,5.39-9.653
	c2.32-2.258,6.301-2.313,8.758-0.254c1.688,1.351,2.896,3.274,3.539,5.323c0.395,3.195,1.693,6.172,2.745,9.188
	c1.021,2.915,2.188,5.827,2.613,8.897C236.042,242.639,235.602,243.596,234.645,243.469L234.645,243.469z M245.253,237.262
	c-0.878-0.422-0.409-1.576-0.144-2.248c1.535-3.676,3.771-7.051,6.32-10.111c0.744-0.799,1.67-1.707,2.807-1.78
	c0.793,0.242,0.423,1.262,0.074,1.731c-2.406,4.013-4.977,7.955-7.793,11.679C246.202,236.877,245.759,237.309,245.253,237.262
	L245.253,237.262z M195.378,237.246c-1.268-0.641-1.843-2.055-2.712-3.113c-2.195-3.201-4.401-6.406-6.3-9.785
	c-0.305-0.502-0.061-1.391,0.648-1.233c2.272,0.838,3.531,3.081,4.91,4.93c1.67,2.539,3.436,5.111,4.246,8.065
	C196.318,236.652,196.071,237.41,195.378,237.246L195.378,237.246z M168.863,212.383c1.156-0.045,2.669-0.369,3.156-1.555
	c0.341-1.645-0.788-3.113-1.604-4.449c-2.347-3.428-5.377-6.232-8.161-9.289c-0.134,4.318,0.723,8.654,2.59,12.551
	c0.651,1.414,1.964,2.506,3.523,2.699C168.532,212.359,168.697,212.377,168.863,212.383L168.863,212.383z M188.308,179.464
	c-1.043-0.348-1.104-1.646-1.406-2.535c-0.897-4.296-0.963-8.708-1.492-13.059c-0.077-1.25-0.203-2.654,0.445-3.77
	c0.507-0.477,1.236,0.124,1.269,0.705c1.062,3.521,1.117,7.249,1.675,10.853c0.262,2.254,0.94,4.533,0.576,6.806
	C189.272,178.979,188.903,179.53,188.308,179.464z M252.473,179.464c-1.15-0.399-1.092-1.879-0.978-2.87
	c0.348-3.04,0.813-6.072,1.165-9.107c0.361-2.284,0.445-4.657,1.222-6.847c0.149-0.527,0.795-0.995,1.242-0.496
	c0.658,1.016,0.403,2.344,0.435,3.496c-0.279,3.431-0.699,6.85-0.984,10.281c-0.244,1.755-0.461,3.626-1.348,5.18
	C253.051,179.34,252.77,179.507,252.473,179.464z M223.555,176.296c-0.611-0.928-0.475-2.168-0.714-3.252
	c-1.084-7.172-1.03-14.461-0.995-21.701c0.068-3.353,0.036-6.727,0.17-10.066c0.037-0.539,0.793-0.627,0.858-0.051
	c0.337,1.526,0.222,3.129,0.414,4.684c0.597,8.355,1.387,16.729,1.125,25.113c-0.154,1.715,0.019,3.506-0.461,5.168
	C223.87,176.32,223.688,176.4,223.555,176.296z M282.503,145.238c2.821-0.063,4.924-2.218,7.379-3.343
	c5.203-2.637,10.834-4.306,16.379-6.09c10.061-3.131,20.324-5.607,30.488-8.348c15.396-4.446,30.403-10.888,43.234-20.575
	c5.421-4.087,10.073-8.991,14.445-14.146c10.694-12.461,19.939-26.124,27.844-40.499c5.173-9.484,9.624-19.438,12.505-29.86
	c0.404-1.363,0.772-2.751,0.857-4.179c-2.85,3.283-4.724,7.29-7.128,10.902c-11.271,18.047-24.355,35.338-41.189,48.553
	c-11.146,8.792-23.897,15.423-37.28,20.115c-13.347,4.847-27.313,7.727-41.317,9.921c-12.78,2.087-25.519,4.507-38.178,7.191
	c-2.412,0.537-4.835,1.077-7.219,1.704c1.37,0.532,2.711,1.095,3.866,2.02c3.338,2.229,6.267,5.197,7.898,8.902
	c2.102,4.401,2.749,9.396,2.297,14.242c-0.061,0.931,0.023,2.275,1.133,2.539C279.795,144.774,281.141,145.132,282.503,145.238z
	 M169.359,141.359c0.955,0.062,2.289-0.135,2.491-1.269c0.851-2.996,1.79-5.955,2.997-8.829c1.577-3.896,3.235-7.82,5.592-11.313
	c0.565-0.8,1.181-1.567,1.76-2.359c-4.224-0.447-8.423-1.146-12.539-2.211c-14.188-3.358-28.167-7.517-42.273-11.188
	c-13.521-3.645-27.181-6.817-40.512-11.117c-8.548-2.775-16.891-6.289-24.526-11.06c-5.153-3.076-9.97-6.688-14.44-10.69
	c-5.937-5.188-11.713-10.609-16.765-16.667c-7.514-9.305-13.54-19.726-18.882-30.399c-2.627-5.305-4.871-10.79-7.103-16.263
	C4.771,7.117,4.361,5.958,3.777,5.332c-0.39,2.642,0.572,5.257,1.204,7.798c2.467,8.693,5.799,17.15,9.41,25.429
	c5.887,13.089,13.021,25.63,21.238,37.386c3.951,5.542,8.198,10.987,13.475,15.311c8.074,6.857,16.657,13.113,25.622,18.746
	c5.977,3.746,12.237,6.979,18.763,9.648c12.622,5.258,25.63,9.539,38.715,13.513c10.145,2.987,20.382,5.81,30.817,7.599
	C165.119,141.096,167.23,141.324,169.359,141.359L169.359,141.359z"/>
<path fill="#D09A3F" d="M272.924,200.148c-2.455,2.573-4.992,5.234-6.644,8.543c-0.168,0.341-0.545,1.208-0.545,2.135
	c0,1.059,0.488,1.928,1.339,2.387c0.773,0.48,1.746,0.774,2.715,0.795c2.347,0.063,4.562-1.594,5.41-4.03
	c1.312-2.953,2.091-6.162,2.296-9.549l0.339-5.597C277.834,194.832,272.931,200.141,272.924,200.148z"/>
<path fill="#D09A3F" d="M167.396,200.148c2.455,2.573,4.992,5.234,6.644,8.543c0.168,0.341,0.545,1.208,0.545,2.135
	c0,1.059-0.488,1.928-1.339,2.387c-0.773,0.48-1.746,0.774-2.715,0.795c-2.347,0.063-4.562-1.594-5.41-4.03
	c-1.312-2.953-2.091-6.162-2.296-9.549l-0.339-5.597C162.486,194.832,167.39,200.141,167.396,200.148z"/>
</svg>
