<?xml version="1.0" encoding="utf-8"?>
<!-- Generator: Adobe Illustrator 12.0.0, SVG Export Plug-In . SVG Version: 6.00 Build 51448)  -->
<!DOCTYPE svg PUBLIC "-//W3C//DTD SVG 1.1//EN" "http://www.w3.org/Graphics/SVG/1.1/DTD/svg11.dtd" [
	<!ENTITY ns_svg "http://www.w3.org/2000/svg">
	<!ENTITY ns_xlink "http://www.w3.org/1999/xlink">
]>
<svg  version="1.1" id="Layer_1" xmlns="&ns_svg;" xmlns:xlink="&ns_xlink;" width="440.711" height="359.371"
	 viewBox="0 0 440.711 359.371" overflow="visible" enable-background="new 0 0 440.711 359.371" xml:space="preserve">
<path id="path2997_2_" fill="#D09A3F" d="M218.217,359.182c-3.971-0.701-8.014-1.369-11.613-3.27
	c-2.789-1.344-5.588-2.924-7.641-5.277c-1-1.518-0.721-3.445-0.855-5.172c-0.232-12.096,1.119-24.158,0.977-36.25
	c-0.084-3.568-0.65-7.318-2.906-10.207c-1.02-1.467-2.367-2.721-3.379-4.184c-0.014-0.871-1.041-1.221-1.385-1.953
	c-4.592-5.697-9.508-11.172-13.928-17.016c-1.371-1.908-2.354-4.318-1.742-6.695c0.9-4.895,3.461-9.549,2.893-14.648
	c-0.367-4.191-1.182-8.34-1.979-12.473c-0.459-1.996-0.82-4.051-1.758-5.879c-2.139-2.783-5.07-4.873-8.285-6.248
	c-2.223-1.182-3.518-3.537-3.975-5.945c-0.803-3.775-0.25-7.703-1.039-11.48c-0.475-3.17-1.564-6.186-2.447-9.256
	c-0.803-3.055-0.953-6.291-0.299-9.391c0.981-6.84,2.417-13.732,5.592-19.91c1.467-3.387,2.145-7.025,2.689-10.652
	c1.139-5.377,2.068-10.799,3.037-16.203c0.185-0.514,0.219-1.363-0.527-1.383c-2.971-0.779-6.092-0.625-9.097-1.236
	c-10.962-1.743-21.64-4.884-32.228-8.159c-14.544-4.595-28.896-9.871-42.746-16.273c-7.654-3.572-14.951-7.904-21.731-12.946
	c-13.069-9.613-24.697-21.114-34.53-34.01c-5.24-6.916-9.738-14.373-13.557-22.163c-4.723-9.376-9.175-18.922-12.772-28.786
	C1.006,16.154-0.21,9.89-0.142,3.591c0.05-1.145,0.119-2.48,0.949-3.34C1.78-0.39,3.167-0.282,4.144,0.294
	c0.961,0.82,1.358,2.107,2.078,3.125c5.279,9.407,9.619,19.352,15.182,28.577c8.258,14.089,18.196,27.45,30.692,37.991
	c7.806,6.532,16.912,11.331,26.417,14.863c16.939,6.423,34.737,10.127,52.214,14.793c10.832,2.806,21.591,5.885,32.393,8.805
	c7.492,2.006,15.038,3.799,22.63,5.35c0.91,0.212,1.877,0.518,2.737-0.048c4.437-1.673,8.826-3.516,13.327-4.991
	c5.952-0.555,11.94-0.435,17.911-0.51c8.105,0.004,16.22-0.046,24.32,0.351c2.742,0.166,5.529,0.755,7.814,2.351
	c1.791,1.114,3.859,2.105,6.029,1.657c5.139-0.567,10.201-1.755,15.277-2.75c7.957-1.731,15.887-3.627,23.93-4.984
	c9.391-1.631,18.865-2.904,28.142-5.102c13.36-3.034,26.584-6.921,38.978-12.825c1.71-0.84,3.54-1.385,5.287-2.124
	c4.697-2.75,9.168-5.953,13.557-9.173c4.554-3.364,8.882-7.048,12.772-11.144c7.375-7.664,13.889-16.197,20.05-24.892
	c5.603-7.947,10.756-16.222,15.805-24.545c1.47-2.233,2.854-4.673,5.113-6.201c0.939-0.495,2.188-0.778,3.159-0.25
	c0.956,0.869,0.491,2.326,0.514,3.456c-0.894,11.687-5.154,22.793-10.118,33.304c-7.646,15.939-17.514,30.756-28.767,44.371
	c-6.691,8.009-13.948,15.567-21.78,22.46c-6.03,4.985-13.332,8.068-20.245,11.628c-6.028,2.941-12.362,5.218-18.86,6.879
	c-14.006,3.787-28.218,6.871-42.029,11.33c-4.533,1.515-9.033,3.294-13.023,5.97c-1.438,0.908-2.986,1.723-4.545,2.318
	c-0.342,1.975,0.768,4.055-0.051,6.004c-0.74,2.127-3.182,3.057-5.285,2.943c-0.822,0.016-1.645-0.008-2.465-0.002
	c0.344,4.119,0.619,8.299,1.988,12.215c1.064,3.148,2.801,6.041,3.707,9.262c1.691,5.408,2.639,11.037,3.227,16.66
	c0.166,4.127-1.461,7.996-2.518,11.906c-0.926,3.645-1.227,7.414-1.25,11.172c-0.178,3.043-0.746,6.441-3.15,8.543
	c-1.666,1.355-3.867,1.822-5.488,3.242c-1.625,1.248-3.299,2.573-4.324,4.363c-1.613,4.404-2.16,9.119-2.973,13.732
	c-0.564,3.4-0.928,6.939,0.066,10.295c0.803,3.344,2.264,6.592,2.508,10.07c-0.029,3.086-2.219,5.545-4.008,7.848
	c-4.424,5.564-9.408,10.732-13.156,16.783c-2.088,3.576-2.789,7.738-2.938,11.824c-0.463,8.613-0.459,17.254-0.037,25.869
	c0.146,3.773,0.744,7.496,1.082,11.246c0.195,2.111-0.104,4.4-1.557,6.039c-3.008,3.875-7.637,6.23-12.354,7.338
	c-2.326,0.459-4.727,0.68-7.092,0.518c-0.879-0.16-1.457-1.105-1.227-1.98c0.193-5.404-0.598-10.779-1.299-16.117
	c-0.148-0.953-0.328-1.926-0.588-2.828c-0.949,2.48-1.203,5.229-1.625,7.859c-0.339,2.631-0.616,5.354-0.055,7.977
	c0.177,1.896,0.026,3.986-1.043,5.605C218.961,359.008,218.6,359.217,218.217,359.182z"/>
<path id="path2997_3_" fill="#E7CE97" d="M283.503,145.238c2.821-0.063,4.924-2.218,7.379-3.343
	c5.203-2.637,10.834-4.306,16.379-6.09c10.06-3.131,20.324-5.607,30.488-8.348c15.396-4.446,30.403-10.888,43.234-20.575
	c5.421-4.087,10.074-8.991,14.446-14.146c10.694-12.461,19.939-26.124,27.843-40.499c5.173-9.484,9.624-19.438,12.505-29.86
	c0.405-1.363,0.773-2.751,0.858-4.179c-2.85,3.283-4.724,7.29-7.128,10.902c-11.271,18.047-24.356,35.338-41.19,48.553
	c-11.145,8.792-23.897,15.423-37.28,20.115c-13.347,4.847-27.312,7.727-41.317,9.921c-12.78,2.087-25.519,4.507-38.178,7.191
	c-2.412,0.537-4.835,1.077-7.219,1.704c1.37,0.532,2.711,1.095,3.867,2.02c3.337,2.229,6.266,5.197,7.898,8.902
	c2.102,4.401,2.749,9.396,2.297,14.242c-0.061,0.931,0.023,2.275,1.133,2.539C280.795,144.774,282.141,145.132,283.503,145.238z
	 M170.359,141.359c0.955,0.062,2.289-0.135,2.49-1.269c0.852-2.996,1.791-5.955,2.998-8.829c1.576-3.896,3.234-7.82,5.592-11.313
	c0.564-0.8,1.18-1.567,1.76-2.359c-4.225-0.447-8.424-1.146-12.539-2.211c-14.188-3.358-28.168-7.517-42.273-11.188
	c-13.521-3.645-27.182-6.817-40.512-11.117c-8.549-2.775-16.891-6.289-24.526-11.06c-5.153-3.076-9.97-6.688-14.44-10.69
	c-5.938-5.187-11.713-10.609-16.765-16.667c-7.515-9.305-13.54-19.726-18.882-30.399c-2.627-5.306-4.871-10.791-7.104-16.264
	C5.771,7.117,5.361,5.958,4.777,5.332C4.387,7.974,5.349,10.588,5.98,13.13c2.467,8.693,5.799,17.15,9.41,25.429
	c5.887,13.089,13.021,25.63,21.238,37.386c3.95,5.542,8.197,10.987,13.475,15.311c8.074,6.857,16.657,13.113,25.622,18.746
	c5.977,3.746,12.237,6.979,18.763,9.648c12.622,5.258,25.631,9.539,38.715,13.513c10.145,2.987,20.383,5.81,30.818,7.599
	C166.119,141.096,168.23,141.324,170.359,141.359L170.359,141.359z"/>
<path id="path2997" d="M218.363,359.367c-3.971-0.701-8.013-1.369-11.612-3.27c-2.789-1.344-5.588-2.924-7.642-5.277
	c-1-1.518-0.721-3.445-0.855-5.172c-0.231-12.096,1.12-24.158,0.977-36.25c-0.084-3.568-0.649-7.318-2.906-10.207
	c-1.02-1.467-2.366-2.721-3.379-4.184c-0.014-0.871-1.04-1.221-1.385-1.953c-4.591-5.697-9.508-11.172-13.928-17.016
	c-1.37-1.908-2.354-4.318-1.742-6.695c0.901-4.895,3.462-9.549,2.894-14.648c-0.368-4.191-1.183-8.34-1.979-12.473
	c-0.458-1.996-0.819-4.051-1.758-5.879c-2.138-2.783-5.069-4.873-8.285-6.248c-2.222-1.182-3.518-3.537-3.974-5.945
	c-0.803-3.775-0.25-7.703-1.039-11.48c-0.475-3.17-1.564-6.186-2.447-9.256c-0.804-3.055-0.954-6.291-0.3-9.391
	c0.982-6.84,2.417-13.732,5.592-19.911c1.468-3.386,2.146-7.024,2.689-10.652c1.139-5.377,2.069-10.798,3.038-16.203
	c0.185-0.514,0.219-1.363-0.528-1.383c-2.97-0.779-6.091-0.624-9.096-1.235c-10.962-1.744-21.64-4.885-32.227-8.16
	c-14.544-4.595-28.897-9.871-42.746-16.273c-7.655-3.572-14.952-7.904-21.732-12.946c-13.069-9.613-24.697-21.114-34.53-34.01
	c-5.24-6.916-9.738-14.373-13.556-22.163c-4.723-9.375-9.175-18.921-12.773-28.786c-1.98-5.961-3.197-12.225-3.128-18.524
	c0.05-1.145,0.12-2.48,0.95-3.34C1.926-0.205,3.313-0.097,4.289,0.48C5.25,1.3,5.647,2.587,6.367,3.605
	c5.28,9.407,9.62,19.352,15.182,28.577c8.258,14.089,18.196,27.449,30.692,37.99c7.806,6.532,16.912,11.331,26.417,14.863
	c16.939,6.423,34.737,10.127,52.214,14.793c10.832,2.806,21.591,5.885,32.393,8.805c7.492,2.006,15.038,3.799,22.63,5.35
	c0.91,0.212,1.877,0.518,2.737-0.048c4.437-1.673,8.826-3.516,13.327-4.991c5.952-0.555,11.94-0.435,17.911-0.51
	c8.105,0.004,16.221-0.046,24.32,0.351c2.742,0.166,5.529,0.755,7.814,2.351c1.791,1.114,3.859,2.105,6.029,1.657
	c5.139-0.567,10.201-1.755,15.277-2.75c7.957-1.731,15.887-3.627,23.93-4.984c9.391-1.631,18.865-2.904,28.142-5.102
	c13.36-3.034,26.584-6.921,38.978-12.825c1.71-0.84,3.54-1.385,5.287-2.124c4.697-2.75,9.168-5.953,13.557-9.173
	c4.554-3.364,8.882-7.048,12.772-11.144c7.375-7.664,13.889-16.196,20.05-24.891c5.603-7.947,10.756-16.222,15.805-24.545
	c1.47-2.233,2.854-4.673,5.113-6.201c0.939-0.495,2.188-0.778,3.159-0.25c0.956,0.869,0.491,2.326,0.514,3.456
	c-0.894,11.687-5.154,22.793-10.118,33.304c-7.646,15.938-17.514,30.756-28.767,44.37c-6.691,8.009-13.948,15.567-21.78,22.46
	c-6.03,4.985-13.332,8.068-20.245,11.628c-6.028,2.941-12.362,5.218-18.86,6.879c-14.006,3.787-28.218,6.871-42.029,11.33
	c-4.533,1.515-9.033,3.295-13.023,5.971c-1.438,0.907-2.986,1.722-4.545,2.317c-0.342,1.976,0.768,4.055-0.051,6.004
	c-0.74,2.127-3.182,3.057-5.285,2.943c-0.822,0.017-1.645-0.007-2.465-0.002c0.344,4.119,0.619,8.299,1.988,12.215
	c1.064,3.149,2.801,6.041,3.707,9.262c1.691,5.408,2.639,11.037,3.227,16.66c0.166,4.127-1.461,7.996-2.518,11.906
	c-0.926,3.645-1.227,7.414-1.25,11.172c-0.178,3.043-0.746,6.441-3.15,8.543c-1.666,1.355-3.867,1.822-5.488,3.242
	c-1.625,1.248-3.299,2.573-4.324,4.363c-1.613,4.404-2.16,9.119-2.973,13.732c-0.564,3.4-0.928,6.939,0.066,10.295
	c0.803,3.344,2.264,6.592,2.508,10.07c-0.029,3.086-2.219,5.545-4.008,7.848c-4.424,5.564-9.408,10.732-13.156,16.783
	c-2.088,3.576-2.789,7.738-2.938,11.824c-0.463,8.613-0.459,17.254-0.037,25.869c0.146,3.773,0.744,7.496,1.082,11.246
	c0.195,2.111-0.104,4.4-1.557,6.039c-3.008,3.875-7.637,6.23-12.354,7.338c-2.326,0.459-4.727,0.68-7.092,0.518
	c-0.879-0.16-1.457-1.105-1.227-1.98c0.193-5.404-0.598-10.779-1.299-16.117c-0.148-0.953-0.328-1.926-0.588-2.828
	c-0.949,2.48-1.203,5.229-1.625,7.859c-0.339,2.631-0.616,5.354-0.055,7.977c0.177,1.896,0.026,3.986-1.043,5.605
	C219.108,359.193,218.746,359.402,218.363,359.367z M215.761,355.469c0.587-0.594,0.563-1.564,0.793-2.324
	c0.71-4.008,0.703-8.105,1.145-12.152c0.855-10.934,1.539-21.906,3.587-32.697c0.344-1.824,0.514-3.725,0.924-5.51
	c0.457-0.588,1.16,0.193,0.992,0.742c0.258,5.879-0.04,11.775,0.505,17.645c0.396,6.037,1.29,12.012,2.174,17.992
	c0.731,5.248,1.264,10.563,0.993,15.867c0.1,0.318,0.568-0.254,0.8-0.119c4.081-0.9,8.454-1.787,11.677-4.627
	c0.817-0.719,1.102-1.814,1.054-2.877c0.831-11.881,0.754-23.797,0.97-35.697c0.071-3.656,0.053-7.338,0.18-10.977
	c2.417-4.307,5.015-8.504,7.944-12.473c3.497-4.924,7.509-9.473,10.704-14.59c0.935-1.559,1.413-3.525,0.594-5.246
	c-0.857-2.232-1.646-4.52-1.817-6.922c-0.776-7.404,0.684-14.791,2.052-22.037c0.59-2.531,1.213-5.273,3.047-7.221
	c2.837-2.904,7.443-3.086,10.105-6.165c1.393-1.663,1.397-3.987,1.504-6.055c-0.044-1.689,0.09-3.424-0.258-5.082
	c-0.204-0.674-0.984-0.102-1.441-0.137c-2.45,0.398-4.875-0.321-7.281-0.633c-1.167-0.019-1.928,0.973-2.488,1.867
	c-2.022,2.65-4.424,5.039-7.199,6.895c-0.449,0.383-1.41,0.242-1.313-0.48c0.306-1.098,1.32-1.753,1.968-2.635
	c2.153-2.315,4.75-4.422,5.938-7.439c0.239-2.077,1.809-3.653,2.927-5.317c3.17-4.193,7.234-7.675,10.132-12.042
	c1.079-1.733,1.219-3.849,0.805-5.809c-0.78-4.847-2.505-9.497-4.644-13.902c-1.201-2.235-2.783-4.296-3.503-6.759
	c-2.043-6.219-1.574-12.995-0.075-19.28c0.402-1.249,0.572-2.643,1.414-3.688c1.346-1.217,2.229,1.18,2.324,2.25
	c0.217,1.606,0.809,3.224,0.547,4.859c-0.061,0.896-1.033,1.254-1.793,1.043c-0.465-0.189-0.943,0.041-1.023,0.547
	c-0.147,0.569-0.061,1.478,0.699,1.496c1.496,0,3.027-0.124,4.449-0.57c0.859-0.265,1.639-1.03,1.41-2
	c-0.748-3.185-3.787-5.38-4.29-8.656c-0.312-2.655,0.759-5.271,0.406-7.938c-0.578-8.607-7.287-16.463-15.73-18.259
	c-4.226-1.125-8.193-3.01-11.949-5.218c-3.294-1.547-7.058-1.036-10.59-1.063c-3.736,0.168-7.477,0.148-11.211-0.051
	c-5.157-0.146-10.322-0.558-15.48-0.309c-3.367,0.29-6.78,0.994-9.695,2.762c-4.314,2.113-9.401,2.785-13.074,6.107
	c-3.886,3.415-5.896,8.339-7.789,13.038c-0.813,2.148-1.843,4.284-1.905,6.627c-0.98,8.533-1.741,17.115-3.563,25.521
	c-0.67,2.916-1.792,5.725-3.523,8.172c-2.721,4.88-4.57,10.229-5.504,15.735c-0.301,2.047-0.039,4.291,1.305,5.932
	c3.047,4.389,7.215,7.875,10.3,12.248c1.079,1.412,2.158,2.934,2.438,4.727c0.667,1.75,1.987,3.162,3.213,4.539
	c1.589,1.701,3.446,3.207,4.611,5.227c0.207,0.721-0.84,1.066-1.291,0.584c-2.471-1.531-4.477-3.678-6.416-5.807
	c-0.834-0.992-1.439-2.482-2.758-2.867c-1.581-0.271-3.073,0.527-4.647,0.57c-1.452,0.184-2.932,0.047-4.353-0.203
	c-0.581,0.43-0.344,1.412-0.459,2.061c-0.067,2.775-0.279,5.688,0.744,8.318c1.321,2.617,4.356,3.602,6.875,4.738
	c2.271,0.953,4.539,2.453,5.465,4.84c1.564,3.504,1.938,7.391,2.656,11.137c0.999,6.246,1.777,12.738,0.363,18.98
	c-0.444,1.852-1.46,3.584-1.699,5.461c-0.045,2.643,1.862,4.785,3.27,6.867c3.53,4.797,7.262,9.475,10.772,14.293
	c1.293,1.779,2.793,3.389,4.31,4.969c4.539,5.352,6.439,12.949,4.573,19.768c-0.629,3.025-0.301,6.164,0.391,9.142
	c0.948,6.663-0.931,13.278-1.162,19.927c-0.035,1.045-0.147,2.172,0.175,3.16c1.691,1.744,3.998,2.762,6.083,3.975
	C210.572,353.543,213.063,354.871,215.761,355.469z M232.022,344.414c-2.404-0.178-3.985-2.428-4.758-4.508
	c-1.879-5.074-2.119-10.578-2.133-15.945c0.079-5.379,0.557-10.844,2.354-15.941c0.401-0.99,0.893-2.316,2.08-2.531
	c0.951,0.078,1.128,1.234,1.145,2c0.399-1.541,0.407-3.201,0.637-4.797c0.807-8.281,0.502-16.672,1.898-24.887
	c0.178-0.658,0.392-1.795,1.254-1.754c0.947,0.291,0.912,1.566,1.137,2.344c0.809,4.627,1.063,9.344,1.457,14.035
	c0.896,13.061,1.224,26.188,0.318,39.258c-0.281,3.363-0.548,6.801-1.721,9.988C235.058,343.133,233.729,344.51,232.022,344.414z
	 M211.718,343.414c-1.89-0.236-2.907-2.139-3.504-3.746c-1.111-3.965-1.324-8.113-1.745-12.199
	c-0.698-8.488-1.205-17.023-0.79-25.539c0.339-5.732,1.393-11.381,2.26-17.049c0.359-2.523,0.632-5.115,0.158-7.646
	c-0.214-2.99,0.179-6.024,0.898-8.91c0.181-0.617,0.72-1.689,1.493-1.238c0.741,0.635,0.487,1.775,0.637,2.641
	c0.233,4.211-0.768,8.455-0.105,12.641c0.188,0.67,0.862,1.037,0.971,1.758c0.631,2.164,0.578,4.473,0.68,6.711
	c0.096,4.338-0.183,8.893,1.682,12.914c0.708,1.459,1.98,2.525,2.902,3.824c1.369,2.436,1.098,5.355,1.305,8.055
	c0.191,7.633-0.489,15.359-2.532,22.711c-0.544,1.928-1.359,4.215-3.413,4.961C212.326,343.395,212.022,343.436,211.718,343.414z
	 M231.991,341.441c1.286-2.619,1.551-5.58,2.158-8.406c0.431-2.51,0.906-5.191,0.139-7.672c-1.094-2.734-3.841-4.178-5.969-6.014
	c-0.875-1.053-0.624,0.24-0.652,0.947c0.025,6.412,0.282,13.018,2.684,19.027C230.706,340.135,231.175,341.033,231.991,341.441z
	 M211.648,339.332c0.937-0.625,1.103-1.895,1.508-2.867c1.588-5.219,2.378-10.688,2.492-16.156c0-1.113-0.021-2.227-0.023-3.34
	c-1.315,1.779-2.734,3.91-5.027,4.449c-0.621,0.125-1.69,0.023-1.688-0.797c0.264-1.111,1.523-1.529,2.184-2.359
	c1.354-1.309,2.647-2.898,3.125-4.719c-0.851-0.119-1.855,0.066-2.57-0.586c-1.383-1.08-1.625-2.963-2.137-4.539
	c-0.48-2.012-0.944-4.074-0.633-6.148c0.1-1.76,0.113-3.639-0.617-5.25c-0.703,2.709-0.345,5.572-0.336,8.35
	c0.36,8.65,0.955,17.293,1.753,25.912c0.33,2.645,0.506,5.424,1.731,7.832C211.467,339.203,211.542,339.301,211.648,339.332
	L211.648,339.332z M221.651,295.285c-0.819-0.439-0.525-1.59-0.737-2.352c-0.612-6.678-1.278-13.396-0.877-20.104
	c0.608-3.635,0.532-7.361,0.76-11.041c0.467-11.576,0.683-23.162,0.808-34.746c0.073-1.682-0.229-3.572,0.734-5.051
	c0.413-0.658,1.467-0.67,1.797,0.066c0.602,1.42,0.293,3.055,0.305,4.563c-0.313,4.158-0.513,8.322-0.641,12.49
	c-0.68,18.479-0.727,36.996-1.516,55.459C222.227,294.871,222.034,295.359,221.651,295.285L221.651,295.285z M232.378,264.141
	c-1.083-0.426-0.91-1.826-0.969-2.77c0.039-4.826,0.252-9.691,1.203-14.426c0.145-0.836,0.59-2.064,1.648-1.871
	c0.991-0.031,1.775-0.844,2.539-1.406c1.702-1.438,3.112-3.447,5.285-4.211c0.654-0.043,0.928,0.84,0.477,1.262
	c-2.073,3.432-5.755,5.631-7.57,9.234c-1.305,3.021-0.959,6.42-1.381,9.631c-0.145,1.439-0.061,2.969-0.65,4.299
	C232.817,264.047,232.604,264.17,232.378,264.141z M208.296,264.098c-0.911-0.586-0.588-1.848-0.824-2.752
	c-0.416-3.549-0.221-7.221-1.207-10.662c-1.184-3.174-4.069-5.193-6.172-7.723c-0.741-0.875-1.665-1.766-1.926-2.914
	c0.063-0.686,0.995-0.697,1.406-0.313c2.59,1.385,4.073,4.313,6.883,5.344c0.577-0.123,1.262,0.025,1.445,0.664
	c0.886,1.846,0.857,3.967,1.142,5.963c0.337,3.766,0.711,7.576,0.366,11.35C209.319,263.58,208.931,264.291,208.296,264.098
	L208.296,264.098z M204.75,262.445c-2.746-0.219-4.69-2.396-6.504-4.232c-2.625-2.564-5.695-4.705-8.83-6.609
	c-1.383-1.008-2.971-2.471-2.701-4.361c0.02-0.859,0.699-1.986,1.695-1.641c1.188,0.404,1.292,1.838,1.84,2.77
	c1.682,2.549,5.093,2.98,7.02,5.219c0.464,0.584,0.44,1.477,1.18,1.867c1.56,1.068,3.498,1.68,4.578,3.34
	c0.291,0.48,0.524,1.172,1.223,1.086c0.665-0.09,1.443-0.469,2.016,0.094c0.909,0.734,0.261,2.287-0.824,2.41
	C205.216,262.445,204.982,262.459,204.75,262.445z M235.667,262.438c-1.168-0.059-1.947-1.74-0.941-2.508
	c0.663-0.531,1.495-0.037,2.215-0.043c0.861-0.262,0.914-1.355,1.598-1.848c1.243-1.338,3.184-1.721,4.438-3.039
	c0.405-0.496,0.38-1.215,0.922-1.637c1.958-2.087,5.261-2.538,6.837-5.053c0.528-0.91,0.619-2.264,1.753-2.686
	c0.989-0.415,1.743,0.729,1.746,1.602c0.273,1.836-1.223,3.289-2.57,4.279c-2.011,1.32-4.089,2.521-5.934,4.076
	c-2.021,1.559-3.759,3.391-5.617,5.121C238.869,261.721,237.327,262.521,235.667,262.438z M234.644,243.469
	c-1.615-0.398-2.107-2.258-2.402-3.678c-1.375-6.01-3.003-11.975-5.27-17.705c-0.374-0.795-0.942-2.02-2.004-1.863
	c-0.991,0.316-2.082,1.133-3.141,0.559c-0.338-0.172-0.521-0.76-0.944-0.379c-1.202,0.791-2.064,2.049-2.747,3.293
	c-0.652,1.113-0.302,2.525-1.134,3.563c-0.933,1.191-1.677,2.52-2.222,3.941c-0.996,2.342-1.636,4.857-2.723,7.156
	c-0.349,0.512-1.225,0.285-1.184-0.371c-0.535-3.355,0.884-6.6,2.036-9.666c1.425-3.398,2.917-6.885,5.39-9.654
	c2.32-2.258,6.301-2.314,8.757-0.254c1.689,1.351,2.896,3.275,3.539,5.324c0.395,3.195,1.694,6.171,2.746,9.188
	c1.021,2.915,2.189,5.827,2.613,8.898C236.042,242.639,235.601,243.596,234.644,243.469L234.644,243.469z M245.253,237.262
	c-0.878-0.422-0.409-1.576-0.144-2.248c1.535-3.676,3.772-7.051,6.321-10.111c0.744-0.799,1.67-1.707,2.807-1.781
	c0.793,0.242,0.422,1.262,0.073,1.731c-2.406,4.013-4.976,7.956-7.792,11.679C246.202,236.877,245.759,237.309,245.253,237.262
	L245.253,237.262z M195.378,237.246c-1.268-0.641-1.843-2.055-2.712-3.113c-2.195-3.201-4.401-6.406-6.3-9.785
	c-0.305-0.502-0.061-1.391,0.648-1.234c2.272,0.838,3.531,3.082,4.91,4.93c1.67,2.539,3.436,5.111,4.246,8.066
	C196.318,236.652,196.071,237.41,195.378,237.246L195.378,237.246z M168.863,212.383c1.156-0.045,2.669-0.369,3.156-1.555
	c0.341-1.645-0.788-3.113-1.604-4.449c-2.347-3.428-5.377-6.232-8.161-9.289c-0.134,4.318,0.723,8.654,2.59,12.551
	c0.651,1.414,1.964,2.506,3.523,2.699C168.532,212.359,168.697,212.377,168.863,212.383L168.863,212.383z M271.933,212.383
	c2.024,0.055,3.807-1.432,4.436-3.314c1.684-3.74,2.482-7.893,2.314-12.006c-3.225,3.725-7.155,6.99-9.387,11.457
	c-0.471,0.961-0.83,2.535,0.328,3.16C270.318,212.107,271.111,212.365,271.933,212.383z M188.308,179.464
	c-1.043-0.348-1.104-1.646-1.406-2.535c-0.897-4.296-0.963-8.708-1.492-13.059c-0.077-1.25-0.203-2.654,0.445-3.77
	c0.507-0.477,1.236,0.124,1.269,0.705c1.062,3.521,1.117,7.249,1.675,10.853c0.262,2.254,0.94,4.533,0.576,6.806
	C189.272,178.979,188.903,179.53,188.308,179.464z M252.472,179.464c-1.15-0.399-1.091-1.879-0.977-2.87
	c0.348-3.04,0.813-6.072,1.165-9.107c0.361-2.284,0.446-4.657,1.222-6.847c0.149-0.527,0.795-0.995,1.242-0.496
	c0.658,1.016,0.403,2.344,0.434,3.496c-0.279,3.431-0.698,6.85-0.984,10.281c-0.244,1.755-0.46,3.626-1.348,5.18
	C253.051,179.34,252.769,179.507,252.472,179.464z M223.554,176.296c-0.61-0.928-0.474-2.168-0.713-3.252
	c-1.084-7.172-1.03-14.461-0.996-21.701c0.069-3.353,0.037-6.727,0.17-10.066c0.038-0.539,0.794-0.627,0.859-0.051
	c0.337,1.526,0.221,3.129,0.414,4.684c0.597,8.355,1.387,16.729,1.125,25.113c-0.154,1.715,0.018,3.506-0.461,5.168
	C223.87,176.32,223.688,176.4,223.554,176.296z M282.503,145.238c2.821-0.063,4.924-2.218,7.379-3.343
	c5.203-2.637,10.834-4.306,16.379-6.09c10.06-3.131,20.324-5.607,30.488-8.348c15.396-4.446,30.403-10.888,43.234-20.575
	c5.421-4.087,10.074-8.991,14.446-14.146c10.694-12.461,19.939-26.124,27.843-40.499c5.173-9.484,9.624-19.438,12.505-29.86
	c0.405-1.363,0.773-2.751,0.858-4.179c-2.85,3.283-4.724,7.29-7.128,10.902c-11.271,18.047-24.356,35.338-41.19,48.553
	c-11.145,8.792-23.897,15.423-37.28,20.115c-13.347,4.847-27.312,7.727-41.317,9.921c-12.78,2.087-25.519,4.507-38.178,7.191
	c-2.412,0.537-4.835,1.077-7.219,1.704c1.37,0.532,2.711,1.095,3.867,2.02c3.337,2.229,6.266,5.197,7.898,8.902
	c2.102,4.401,2.749,9.396,2.297,14.242c-0.061,0.931,0.023,2.275,1.133,2.539C279.795,144.774,281.141,145.132,282.503,145.238z
	 M169.359,141.359c0.955,0.062,2.289-0.135,2.491-1.269c0.851-2.996,1.79-5.955,2.997-8.829c1.577-3.896,3.235-7.82,5.592-11.313
	c0.565-0.8,1.181-1.567,1.76-2.359c-4.224-0.447-8.423-1.146-12.539-2.211c-14.188-3.358-28.167-7.517-42.273-11.188
	c-13.521-3.645-27.181-6.817-40.512-11.117c-8.548-2.775-16.891-6.289-24.526-11.06c-5.153-3.076-9.97-6.688-14.44-10.69
	c-5.937-5.187-11.713-10.609-16.765-16.667c-7.514-9.305-13.54-19.726-18.882-30.399C9.635,18.952,7.391,13.467,5.159,7.994
	C4.771,7.117,4.361,5.958,3.777,5.332c-0.39,2.642,0.572,5.257,1.204,7.798c2.467,8.693,5.799,17.15,9.41,25.429
	c5.887,13.089,13.021,25.63,21.238,37.386c3.951,5.542,8.198,10.987,13.475,15.311c8.074,6.857,16.657,13.113,25.622,18.746
	c5.977,3.746,12.237,6.979,18.763,9.648c12.622,5.258,25.63,9.539,38.715,13.513c10.145,2.987,20.382,5.81,30.817,7.599
	C165.119,141.096,167.23,141.324,169.359,141.359L169.359,141.359z"/>
</svg>
