<?xml version="1.0" encoding="utf-8"?>
<svg  xmlns="http://www.w3.org/2000/svg" xmlns:xlink="http://www.w3.org/1999/xlink" viewBox="0 0 1161 701" overflow="visible">
<path fill="none" stroke="#FF0000" stroke-width="2" stroke-miterlimit="10" d="M228.062,296.072
	c-6.274-3.074-30.021-16.866-35.346-45.322c-5.325-28.456-30.254-32.867-40.787-44.651c-5.776-6.461-5.067-11.1-5.067-11.1
	s-1.967,6.249,6.667,15.733c8.633,9.483,25.156,15.773,26.576,41.665c1.42,25.891,4.619,40.556,25.559,57.273
	c-9.45,0.019-35.737-7.924-47.481-34.386c-11.744-26.461-37.018-25.004-49.985-34.041c-7.109-4.955-7.49-9.632-7.49-9.632
	s-0.472,6.534,10.115,13.771c10.588,7.237,28.117,9.547,35.469,34.413c7.353,24.866,13.848,38.398,38.079,49.835
	c-9.191,2.198-36.602,0.531-54.131-22.509c-17.53-23.039-41.787-15.793-56.489-21.596c-8.06-3.182-9.509-7.646-9.509-7.646
	s1.047,6.467,13.018,11.068c11.972,4.6,29.56,2.805,42.449,25.305c12.889,22.5,22.33,34.17,48.545,39.71
	c-8.437,4.258-35.493,8.957-57.863-9.418c-22.371-18.376-44.303-5.731-59.946-7.987c-8.577-1.237-11.016-5.247-11.016-5.247
	s2.51,6.052,15.219,7.767c12.71,1.716,29.411-4.087,47.141,14.834c17.73,18.92,29.608,28.098,56.394,27.444
	c-7.227,6.089-32.47,16.901-58.475,4.179c-26.006-12.721-44.43,4.641-60.172,6.053c-8.632,0.774-11.93-2.563-11.93-2.563
	s3.839,5.31,16.601,4.047c12.763-1.262,27.675-10.759,49.291,3.563c21.616,14.322,35.29,20.514,61.203,13.699
	c-5.628,7.592-27.697,23.934-55.935,17.553c-28.238-6.383-42.163,14.761-57.155,19.766c-8.219,2.744-12.199,0.256-12.199,0.256
	s4.96,4.281,17.087,0.11c12.128-4.171,24.448-16.853,48.784-7.901s39.069,11.822,62.713-0.783
	c-3.726,8.685-21.432,29.676-50.38,29.978c-28.949,0.303-37.622,24.087-51.055,32.415c-7.366,4.564-11.812,3.063-11.812,3.063
	s5.813,3.021,16.652-3.834c10.838-6.855,19.902-22.035,45.647-18.938c25.744,3.097,40.742,2.492,60.841-15.227
	c-1.622,9.311-14.01,33.818-42.108,40.789c-28.099,6.971-31.053,32.114-42.204,43.314c-6.114,6.141-10.787,5.703-10.787,5.703
	s6.353,1.602,15.319-7.568c8.965-9.172,14.284-26.033,40.049-28.955c25.765-2.923,40.219-6.97,55.691-28.847
	c0.567,9.433-5.834,36.138-31.567,49.399c-25.734,13.264-22.81,38.41-31.078,51.881c-4.533,7.385-9.18,8.037-9.18,8.037
	s6.55,0.092,13.159-10.898c6.61-10.99,7.896-28.625,32.293-37.41c24.396-8.786,37.528-16.057,47.537-40.912
	c2.728,9.049,2.657,36.51-19.324,55.35c-21.981,18.84-13.337,42.633-18.275,57.648c-2.708,8.23-7.08,9.938-7.08,9.938
	s6.396-1.422,10.292-13.641c3.896-12.217,1.082-29.672,22.794-43.848c21.713-14.176,32.814-24.279,36.821-50.771
	c4.741,8.174,11.006,34.912-6.038,58.313s-3.146,44.561-4.488,60.309c-0.737,8.635-4.597,11.303-4.597,11.303
	s5.895-2.857,6.868-15.645c0.974-12.789-5.79-29.123,12.068-47.924c17.859-18.801,26.33-31.191,24.12-57.895
	c6.498,6.86,18.76,31.432,7.572,58.133s7.216,44.086,9.541,59.719c1.275,8.57-1.866,12.059-1.866,12.059s5.077-4.141,3.075-16.809
	s-12.35-27.002,0.691-49.414s18.427-36.424,10.118-61.896c7.905,5.178,25.503,26.258,20.774,54.82
	c-4.728,28.561,17.188,41.232,23.056,55.908c3.217,8.047,0.965,12.162,0.965,12.162s3.985-5.197-0.884-17.063
	s-18.244-23.426-10.723-48.242s9.53-39.691-4.429-62.562c8.886,3.215,30.871,19.671,32.857,48.552
	c1.984,28.883,26.232,36.158,35.327,49.084c4.986,7.088,3.743,11.613,3.743,11.613s2.68-5.979-4.795-16.4
	c-7.474-10.422-23.154-18.588-21.56-44.469c1.596-25.881,0.121-40.818-18.737-59.854c9.389,1.078,34.576,12.021,43.168,39.666
	c8.594,27.646,33.865,29.133,45.695,39.613c6.486,5.748,6.321,10.438,6.321,10.438s1.228-6.436-8.448-14.852
	c-9.676-8.418-26.818-12.748-31.234-38.299c-4.416-25.552-9.296-39.746-32.035-53.919c9.385-1.116,36.415,3.722,51.152,28.642
	c14.736,24.918,39.671,20.537,53.6,28.008c7.637,4.096,8.557,8.697,8.557,8.697s-0.289-6.545-11.646-12.504
	c-11.355-5.959-29.033-6.217-39.224-30.062s-18.212-36.531-43.607-45.078c8.874-3.25,36.293-4.776,56.38,16.072
	c20.086,20.849,43.337,10.836,58.612,14.894c8.376,2.223,10.333,6.489,10.333,6.489s-1.791-6.302-14.215-9.481
	c-12.425-3.18-29.686,0.646-45.1-20.207c-15.414-20.852-26.146-31.346-52.827-33.806c7.885-5.209,34.213-13.017,58.564,2.638
	c24.354,15.654,44.669,0.549,60.469,0.974c8.663,0.233,11.551,3.932,11.551,3.932s-3.196-5.719-16.019-5.946
	c-12.822-0.229-28.736,7.474-48.544-9.262c-19.807-16.734-32.67-24.472-59.198-20.713c6.471-6.886,30.288-20.557,57.594-10.939
	c27.307,9.617,43.592-9.767,59.063-12.996c8.483-1.772,12.146,1.162,12.146,1.162s-4.428-4.828-16.958-2.094
	c-12.53,2.735-26.239,13.899-49.371,2.184c-23.132-11.717-37.432-16.278-62.38-6.502c4.709-8.193,24.731-26.987,53.52-23.926
	c28.788,3.06,40.163-19.558,54.474-26.269c7.846-3.68,12.087-1.67,12.087-1.67s-5.423-3.677-16.984,1.874
	c-11.561,5.551-22.326,19.576-47.537,13.51c-25.211-6.064-40.177-7.206-62.197,8.061c2.692-9.06,17.841-31.963,46.559-35.625
	c28.718-3.661,34.571-28.291,46.947-38.122c6.786-5.39,11.376-4.412,11.376-4.412s-6.124-2.327-16.095,5.74
	c-9.969,8.067-17.209,24.197-43.139,24.109s-40.757,2.253-58.663,22.186c0.531-9.435,9.989-35.216,37.088-45.401
	c27.101-10.186,27.115-35.502,36.891-47.922c5.359-6.809,10.052-6.917,10.052-6.917s-6.496-0.852-14.336,9.297
	c-7.84,10.15-11.166,27.514-36.417,33.408c-25.251,5.895-39.138,11.592-51.965,35.117c-1.659-9.304,1.598-36.571,25.617-52.731
	c24.021-16.161,18.197-40.798,24.846-55.137c3.645-7.862,8.185-9.049,8.185-9.049s-6.517,0.669-11.806,12.353
	c-5.288,11.684-4.52,29.347-27.73,40.906c-23.212,11.558-35.41,20.305-42.467,46.153c-3.76-8.669-6.878-35.953,12.769-57.217
	c19.645-21.264,8.297-43.895,11.459-59.38c1.733-8.491,5.878-10.693,5.878-10.693s-6.188,2.154-8.64,14.743
	c-2.45,12.588,2.371,29.598-17.549,46.198c-19.921,16.6-29.773,27.924-30.678,54.703c-5.658-7.569-14.984-33.398-0.772-58.62
	c14.211-25.221-2.049-44.624-2.544-60.422c-0.271-8.661,3.254-11.76,3.254-11.76s-5.524,3.523-5.006,16.337
	c0.518,12.815,9.132,28.254-6.423,49.001c-15.555,20.746-22.531,34.037-17.235,60.303c-7.251-6.06-22.283-29.042-14.27-56.861
	c8.013-27.82-12.285-42.95-16.409-58.207c-2.262-8.366,0.454-12.194,0.454-12.194s-4.563,4.702-1.104,17.052
	c3.459,12.349,15.402,25.386,5.051,49.16c-10.351,23.775-14.074,38.316-2.864,62.653c-8.453-4.225-28.379-23.121-26.998-52.038
	s-21.859-38.959-29.391-52.854c-4.13-7.618-2.37-11.969-2.37-11.969s-3.355,5.627,2.859,16.846
	c6.213,11.219,20.84,21.15,16.251,46.671c-4.589,25.521-4.858,40.528,11.662,61.624L228.062,296.072z"/>
<circle fill="none" stroke="#3F8DFF" stroke-width="5" stroke-miterlimit="10" cx="229.513" cy="295.297" r="38"/>
<circle fill="none" stroke="#FF0000" stroke-width="5" stroke-miterlimit="10" cx="779.513" cy="295.297" r="38"/>
<circle fill="#FFFFFF" cx="431.395" cy="188.629" r="152"/>
<path fill="none" stroke="#FF0000" stroke-width="8" stroke-miterlimit="10" d="M380.009,45.746
	c1.648,48.433,16.965,90.851,57.28,142.333l-11.699,3.652c-18.244-8.937-73.414-40.528-110.368-100.833"/>
<g>
	<path fill="none" stroke="#FF0000" stroke-width="8" stroke-miterlimit="10" d="M279.18,188.314
		c13.947,19.452,32.357,38.28,56.82,57.809c-11.438,0.023-29.042-2.87-49.334-9.848"/>
	<path fill="none" stroke="#FF0000" stroke-width="8" stroke-miterlimit="10" d="M522.904,66.19
		c2.733,27.052,11.075,55.642,26.334,88.769c-23.738-11.865-70.093-52.652-93.699-115.927"/>
</g>
<circle fill="none" stroke="#3F8DFF" stroke-width="8" stroke-miterlimit="10" cx="431.395" cy="188.629" r="152"/>
<path fill="none" stroke="#004DFF" stroke-width="2" stroke-miterlimit="10" d="M780.986,295.161
	c-9.199-2.162-32.947-15.953-38.271-44.409c-5.325-28.456-30.254-32.867-40.787-44.651c-5.775-6.461-5.066-11.1-5.066-11.1
	s-1.967,6.249,6.666,15.733c8.633,9.483,25.156,15.773,26.576,41.665c1.42,25.892,4.619,40.557,25.56,57.274
	c-9.45,0.018-35.737-7.925-47.481-34.387c-11.743-26.461-37.018-25.004-49.984-34.041c-7.109-4.955-7.49-9.633-7.49-9.633
	s-0.473,6.535,10.115,13.771c10.588,7.237,28.116,9.547,35.469,34.413s13.848,38.398,38.078,49.835
	c-9.19,2.197-36.602,0.531-54.131-22.509c-17.529-23.04-41.787-15.794-56.488-21.597c-8.061-3.181-9.51-7.645-9.51-7.645
	s1.048,6.467,13.02,11.067c11.971,4.6,29.56,2.805,42.448,25.305s22.329,34.17,48.545,39.711
	c-8.437,4.258-35.493,8.956-57.862-9.419c-22.371-18.376-44.303-5.731-59.947-7.987c-8.576-1.237-11.016-5.246-11.016-5.246
	s2.51,6.052,15.22,7.767c12.71,1.716,29.41-4.087,47.14,14.834c17.73,18.921,29.608,28.099,56.395,27.445
	c-7.227,6.089-32.47,16.9-58.475,4.179c-26.006-12.722-44.431,4.64-60.172,6.053c-8.632,0.774-11.93-2.564-11.93-2.564
	s3.838,5.31,16.601,4.047c12.763-1.261,27.675-10.758,49.29,3.563c21.617,14.322,35.291,20.514,61.204,13.7
	c-5.628,7.591-27.697,23.934-55.936,17.551c-28.238-6.381-42.162,14.762-57.154,19.767c-8.22,2.744-12.199,0.256-12.199,0.256
	s4.96,4.281,17.087,0.11s24.447-16.852,48.783-7.9c24.337,8.951,39.07,11.822,62.714-0.784c-3.727,8.685-21.432,29.676-50.38,29.978
	c-28.949,0.304-37.622,24.088-51.056,32.415c-7.366,4.566-11.812,3.062-11.812,3.062s5.813,3.022,16.651-3.833
	s19.903-22.035,45.647-18.937c25.744,3.096,40.742,2.492,60.842-15.227c-1.623,9.31-14.01,33.818-42.109,40.789
	c-28.098,6.971-31.053,32.113-42.203,43.314c-6.114,6.142-10.787,5.703-10.787,5.703s6.354,1.6,15.318-7.57
	c8.966-9.17,14.285-26.031,40.049-28.954c25.766-2.923,40.22-6.97,55.691-28.847c0.568,9.435-5.834,36.139-31.567,49.4
	c-25.733,13.264-22.81,38.41-31.077,51.881c-4.533,7.385-9.181,8.037-9.181,8.037s6.551,0.093,13.16-10.898
	c6.608-10.992,7.896-28.625,32.292-37.41s37.527-16.057,47.537-40.912c2.729,9.048,2.658,36.508-19.324,55.348
	c-21.98,18.841-13.336,42.635-18.275,57.648c-2.707,8.232-7.079,9.939-7.079,9.939s6.396-1.422,10.292-13.641
	s1.082-29.674,22.795-43.848c21.712-14.176,32.813-24.279,36.82-50.773c4.741,8.176,11.006,34.912-6.039,58.313
	c-17.043,23.402-3.145,44.563-4.488,60.311c-0.735,8.635-4.596,11.303-4.596,11.303s5.895-2.859,6.868-15.646
	c0.974-12.786-5.79-29.123,12.067-47.924c17.859-18.799,26.33-31.191,24.12-57.895c6.499,6.861,18.761,31.434,7.572,58.135
	s7.216,44.084,9.541,59.719c1.274,8.57-1.866,12.057-1.866,12.057s5.076-4.141,3.075-16.807
	c-2.002-12.668-12.351-27.003,0.69-49.415s18.428-36.423,10.118-61.896c7.905,5.177,25.503,26.259,20.774,54.82
	s17.188,41.233,23.056,55.909c3.218,8.045,0.966,12.162,0.966,12.162s3.984-5.198-0.885-17.064
	c-4.869-11.863-18.244-23.426-10.723-48.24c7.52-24.816,9.53-39.691-4.43-62.563c8.887,3.215,30.873,19.67,32.857,48.553
	c1.985,28.881,26.233,36.156,35.327,49.084c4.986,7.088,3.744,11.613,3.744,11.613s2.679-5.979-4.795-16.4
	c-7.476-10.422-23.155-18.588-21.561-44.469s0.121-40.818-18.737-59.854c9.389,1.078,34.576,12.02,43.168,39.666
	c8.593,27.645,33.865,29.133,45.695,39.613c6.486,5.746,6.32,10.438,6.32,10.438s1.229-6.436-8.447-14.854
	c-9.676-8.416-26.817-12.746-31.232-38.297c-4.417-25.552-9.297-39.746-32.037-53.92c9.385-1.115,36.416,3.723,51.152,28.642
	s39.67,20.538,53.6,28.009c7.637,4.096,8.557,8.697,8.557,8.697s-0.289-6.545-11.645-12.504
	c-11.356-5.959-29.035-6.219-39.225-30.063s-18.212-36.531-43.606-45.078c8.874-3.25,36.292-4.775,56.378,16.072
	c20.086,20.85,43.338,10.836,58.615,14.893c8.374,2.225,10.33,6.49,10.33,6.49s-1.789-6.302-14.214-9.48
	c-12.425-3.18-29.685,0.645-45.099-20.206c-15.414-20.853-26.146-31.347-52.828-33.808c7.887-5.208,34.213-13.017,58.565,2.638
	c24.353,15.655,44.669,0.55,60.468,0.974c8.663,0.233,11.551,3.932,11.551,3.932s-3.195-5.719-16.02-5.947
	c-12.821-0.228-28.735,7.475-48.543-9.26c-19.807-16.736-32.669-24.473-59.199-20.713c6.471-6.887,30.289-20.556,57.596-10.938
	c27.306,9.616,43.591-9.768,59.063-12.998c8.482-1.771,12.146,1.162,12.146,1.162s-4.429-4.828-16.959-2.094
	c-12.529,2.735-26.238,13.899-49.371,2.185c-23.132-11.717-37.433-16.278-62.38-6.502c4.708-8.193,24.731-26.988,53.521-23.927
	c28.787,3.06,40.163-19.558,54.473-26.269c7.846-3.679,12.087-1.67,12.087-1.67s-5.423-3.677-16.985,1.874
	c-11.561,5.551-22.325,19.576-47.535,13.511c-25.211-6.065-40.178-7.207-62.198,8.059c2.692-9.058,17.841-31.962,46.559-35.623
	c28.718-3.662,34.571-28.292,46.947-38.123c6.786-5.39,11.376-4.413,11.376-4.413s-6.124-2.327-16.094,5.741
	c-9.971,8.067-17.21,24.197-43.14,24.109c-25.931-0.088-40.757,2.253-58.663,22.186c0.531-9.436,9.99-35.216,37.089-45.401
	c27.099-10.186,27.114-35.502,36.89-47.921c5.36-6.81,10.052-6.917,10.052-6.917s-6.496-0.852-14.336,9.297
	c-7.841,10.15-11.166,27.514-36.417,33.408c-25.25,5.894-39.139,11.591-51.965,35.117c-1.659-9.304,1.599-36.571,25.617-52.73
	c24.021-16.162,18.197-40.798,24.846-55.138c3.645-7.862,8.184-9.049,8.184-9.049s-6.516,0.669-11.805,12.353
	c-5.288,11.684-4.52,29.347-27.73,40.905c-23.211,11.559-35.41,20.306-42.466,46.154c-3.76-8.67-6.878-35.954,12.768-57.218
	s8.298-43.894,11.46-59.38c1.732-8.49,5.877-10.692,5.877-10.692s-6.188,2.154-8.639,14.742
	c-2.451,12.588,2.37,29.598-17.549,46.198c-19.921,16.6-29.773,27.924-30.678,54.704c-5.659-7.569-14.985-33.398-0.773-58.62
	c14.213-25.222-2.049-44.625-2.543-60.422c-0.271-8.661,3.254-11.759,3.254-11.759s-5.523,3.522-5.006,16.336
	c0.518,12.815,9.131,28.254-6.424,49c-15.555,20.747-22.53,34.038-17.234,60.304c-7.252-6.061-22.283-29.042-14.27-56.861
	c8.012-27.819-12.285-42.95-16.41-58.207c-2.262-8.366,0.454-12.193,0.454-12.193s-4.563,4.701-1.104,17.051
	c3.459,12.349,15.401,25.386,5.051,49.16c-10.352,23.774-14.074,38.315-2.864,62.652c-8.453-4.225-28.379-23.12-26.998-52.038
	c1.381-28.917-21.859-38.958-29.391-52.854c-4.129-7.618-2.37-11.969-2.37-11.969s-3.354,5.627,2.858,16.847
	c6.214,11.219,20.841,21.15,16.252,46.67C764.734,259.058,764.466,274.065,780.986,295.161L780.986,295.161z"/>
<circle fill="#FFFFFF" cx="981.395" cy="188.629" r="152"/>
<circle fill="none" stroke="#FF1200" stroke-width="2" stroke-miterlimit="10" cx="981.395" cy="188.629" r="152"/>
<g>
	<defs>
		<circle id="XMLID_1_" cx="981.395" cy="188.629" r="152"/>
	</defs>
	<clipPath id="XMLID_3_">
		<use xlink:href="#XMLID_1_" />
	</clipPath>
</g>
<line fill="none" stroke="#3F8DFF" stroke-width="5" stroke-miterlimit="10" x1="197.375" y1="275.012" x2="300.675" y2="108.121"/>
<line fill="none" stroke="#3F8DFF" stroke-width="5" stroke-miterlimit="10" x1="227.387" y1="333.246" x2="423.293" y2="341.921"/>
<line fill="none" stroke="#FF0000" stroke-width="5" stroke-miterlimit="10" x1="747.375" y1="275.012" x2="851.195" y2="107.277"/>
<line fill="none" stroke="#FF0000" stroke-width="5" stroke-miterlimit="10" x1="777.387" y1="333.246" x2="973.293" y2="341.921"/>
<path fill="none" stroke="#3F8DFF" stroke-width="8" stroke-miterlimit="10" d="M930.008,45.543
	c1.612,48.519,16.908,90.988,57.281,142.542c-26.789-6.295-84.412-37.257-121.996-97.55"/>
<path fill="none" d="M867.594,289.385c27.844,31.431,68.507,51.244,113.801,51.244c83.949,0,152-68.053,152-152
	c0-32.228-10.031-62.11-27.141-86.7"/>
<path fill="none" stroke="#3F8DFF" stroke-width="8" stroke-miterlimit="10" d="M829.395,188.618
	c13.921,19.347,32.264,38.085,56.602,57.515c-11.36,0.021-28.809-2.84-48.929-9.717"/>
<path fill="none" stroke="#3F8DFF" stroke-width="8" stroke-miterlimit="10" d="M1073.026,67.353
	c2.852,26.709,11.167,54.955,26.208,87.61c-23.801-11.895-70.325-52.882-93.871-116.447"/>
<circle fill="none" stroke="#FF1200" stroke-width="8" stroke-miterlimit="10" cx="981.395" cy="188.629" r="152"/>
<circle fill="none" cx="431.395" cy="188.629" r="152"/>
<rect x="0.5" y="0.5" fill="none" stroke="#FFFFFF" width="1160" height="700"/>
</svg>
