<?xml version="1.0" encoding="utf-8"?>
<svg xmlns="http://www.w3.org/2000/svg" xmlns:xlink="http://www.w3.org/1999/xlink" viewBox="0 0 812.281 820" overflow="visible">
<g>
	<path fill="none" stroke="#2B85FF" stroke-width="1.5" stroke-miterlimit="10" d="M811.8,433.194
		c-22.269-18.611-68.428-89.187-43.822-174.616c24.605-85.43-37.727-131.894-50.392-178.748c-6.944-25.69,1.394-37.445,1.394-37.445
		s-14.011,14.438-3.389,52.363c10.622,37.924,47.297,77.958,15.511,150.967c-31.789,73.009-43.221,117.663-8.796,192.399
		c-25.959-12.974-87.148-71.001-82.908-159.803c4.24-88.803-67.127-119.638-90.256-162.309
		c-12.681-23.395-7.278-36.757-7.278-36.757s-10.303,17.282,8.778,51.733c19.082,34.453,64,64.949,49.907,143.322
		s-14.919,124.458,35.813,189.241l-8.983,2.804c-19.268-9.441-92.193-51.793-108.544-139.179
		c-16.353-87.388-92.907-100.934-125.255-137.12c-17.734-19.839-15.558-34.087-15.558-34.087s-6.04,19.191,20.472,48.314
		c26.512,29.125,77.254,48.44,81.614,127.949c4.36,79.509,14.185,124.546,78.49,175.883c-29.02,0.056-109.746-24.338-145.81-105.597
		c-36.065-81.26-113.679-76.786-153.499-104.538c-21.833-15.215-23.001-29.58-23.001-29.58s-1.452,20.067,31.063,42.291
		c32.514,22.224,86.342,29.317,108.921,105.678c22.579,76.362,42.525,117.918,116.936,153.04
		c-28.224,6.747-112.4,1.63-166.23-69.123c-53.833-70.752-128.324-48.501-173.472-66.321c-24.753-9.771-29.202-23.479-29.202-23.479
		s3.216,19.86,39.979,33.987s90.776,8.616,130.356,77.711c39.58,69.096,68.572,104.932,149.077,121.947
		c-25.908,13.075-108.995,27.506-177.691-28.925c-68.698-56.429-136.049-17.6-184.089-24.526
		c-26.339-3.8-33.829-16.112-33.829-16.112s7.708,18.585,46.738,23.853c39.029,5.268,90.315-12.553,144.763,45.554
		c54.448,58.104,90.923,86.289,173.182,84.28c-22.194,18.698-99.713,51.9-179.571,12.834
		c-79.862-39.067-136.442,14.249-184.784,18.587c-26.506,2.377-36.633-7.875-36.633-7.875s11.786,16.304,50.979,12.429
		c39.193-3.874,84.987-33.04,151.367,10.941"/>
	<path fill="#FF0000" d="M629.991,466.542c0-1.355-1.101-2.456-2.456-2.456c-1.357,0-2.458,1.101-2.458,2.456
		c0,1.357,1.101,2.458,2.458,2.458C628.891,469,629.991,467.899,629.991,466.542"/>
	<path d="M638.835,463.594c0-1.355-1.101-2.456-2.456-2.456s-2.456,1.101-2.456,2.456s1.101,2.457,2.456,2.457
		S638.835,464.95,638.835,463.594"/>
	<g>
		<path fill="#FF0000" d="M96.315,139.642v1.875H83.534v-1.875c5.054-3.781,8.067-6.271,9.041-7.471
			c0.973-1.2,1.459-2.39,1.459-3.568c0-1.099-0.41-1.987-1.229-2.664c-0.82-0.677-1.763-1.016-2.829-1.016
			c-1.102,0-2.076,0.372-2.921,1.114s-1.321,1.751-1.427,3.026l-2.094-0.633c0.879-3.526,3.035-5.289,6.466-5.289
			c1.856,0,3.365,0.528,4.526,1.583c1.161,1.056,1.742,2.344,1.742,3.865c0,1.046-0.275,2.053-0.826,3.021
			c-0.55,0.967-1.591,2.124-3.123,3.469c-1.531,1.345-3.512,2.867-5.942,4.563H96.315z"/>
		<path fill="#FF0000" d="M105.912,141.892c-2.073,0-3.729-0.9-4.968-2.7s-1.858-4.034-1.858-6.701c0-2.623,0.588-4.837,1.766-6.642
			s2.842-2.707,4.994-2.707c2.249,0,3.955,0.942,5.119,2.826s1.746,4.094,1.746,6.629c0,2.482-0.598,4.652-1.792,6.509
			C109.724,140.963,108.055,141.892,105.912,141.892z M105.921,140.11c1.518,0,2.641-0.688,3.369-2.066
			c0.729-1.377,1.093-3.108,1.093-5.193c0-2.279-0.373-4.176-1.119-5.689c-0.746-1.513-1.895-2.27-3.448-2.27
			c-1.5,0-2.617,0.691-3.35,2.072c-0.732,1.381-1.099,3.199-1.099,5.452c0,2.341,0.386,4.208,1.158,5.603
			C103.298,139.413,104.43,140.11,105.921,140.11z"/>
		<path fill="#FF0000" d="M128.264,127.197l-2.031,0.554c-0.694-1.833-1.958-2.75-3.793-2.75c-3.372,0-5.097,2.795-5.176,8.386
			c0.536-1.239,1.296-2.158,2.281-2.755c0.984-0.598,2.025-0.896,3.124-0.896c1.669,0,3.069,0.583,4.198,1.749
			c1.129,1.166,1.694,2.563,1.694,4.19c0,1.689-0.6,3.148-1.799,4.375s-2.734,1.841-4.605,1.841c-2.126,0-3.819-0.803-5.08-2.41
			s-1.891-3.792-1.891-6.556c0-2.703,0.595-5.009,1.785-6.919c1.189-1.91,3.031-2.866,5.525-2.866
			C125.366,123.142,127.289,124.494,128.264,127.197z M122.116,140.079c1.274,0,2.318-0.42,3.131-1.261s1.22-1.851,1.22-3.031
			c0-1.162-0.398-2.159-1.193-2.991s-1.782-1.248-2.96-1.248c-1.213,0-2.272,0.436-3.178,1.307
			c-0.905,0.872-1.358,1.894-1.358,3.064c0,1.083,0.404,2.047,1.213,2.892C119.799,139.657,120.841,140.079,122.116,140.079z"/>
		<path fill="#FF0000" d="M134.503,138.563v2.953h-2.953v-2.953H134.503z"/>
		<path fill="#FF0000" d="M141.613,133.048v-1.781h2.052c1.5,0,2.571-0.309,3.216-0.927c0.645-0.618,0.967-1.368,0.967-2.251
			c0-0.972-0.359-1.742-1.078-2.312c-0.719-0.569-1.622-0.854-2.709-0.854c-2.017,0-3.41,0.979-4.182,2.938l-2.031-0.58
			c1.158-2.759,3.3-4.139,6.425-4.139c1.755,0,3.173,0.469,4.253,1.406c1.079,0.938,1.619,2.066,1.619,3.387
			c0,1.021-0.325,1.912-0.976,2.674c-0.65,0.761-1.485,1.238-2.505,1.432c1.144,0.167,2.127,0.647,2.949,1.439
			c0.823,0.792,1.234,1.818,1.234,3.077c0,1.506-0.61,2.771-1.831,3.797c-1.22,1.026-2.893,1.539-5.017,1.539
			c-1.686,0-3.128-0.4-4.326-1.201s-2.026-1.866-2.482-3.194l2.094-0.699c0.632,2.177,2.19,3.266,4.675,3.266
			c1.615,0,2.776-0.346,3.483-1.039c0.707-0.693,1.061-1.52,1.061-2.482c0-1.041-0.424-1.884-1.271-2.528
			c-0.848-0.644-2.035-0.966-3.563-0.966H141.613z"/>
		<path fill="#FF0000" d="M159.821,141.517h-2.328c0-3.014,0.614-5.947,1.843-8.798c1.229-2.852,2.734-5.258,4.516-7.217h-9.766
			l0.224-1.984h11.885v1.344c-2.138,2.585-3.738,5.275-4.798,8.071s-1.59,5.451-1.59,7.966
			C159.808,141.038,159.813,141.244,159.821,141.517z"/>
		<path fill="#FF0000" d="M173.28,133.048v-1.781h2.052c1.5,0,2.571-0.309,3.216-0.927c0.645-0.618,0.967-1.368,0.967-2.251
			c0-0.972-0.359-1.742-1.078-2.312c-0.719-0.569-1.622-0.854-2.709-0.854c-2.017,0-3.41,0.979-4.182,2.938l-2.031-0.58
			c1.158-2.759,3.3-4.139,6.425-4.139c1.755,0,3.173,0.469,4.253,1.406c1.079,0.938,1.619,2.066,1.619,3.387
			c0,1.021-0.325,1.912-0.976,2.674c-0.65,0.761-1.485,1.238-2.505,1.432c1.144,0.167,2.127,0.647,2.949,1.439
			c0.823,0.792,1.234,1.818,1.234,3.077c0,1.506-0.61,2.771-1.831,3.797c-1.22,1.026-2.893,1.539-5.017,1.539
			c-1.686,0-3.128-0.4-4.326-1.201s-2.026-1.866-2.482-3.194l2.094-0.699c0.632,2.177,2.19,3.266,4.675,3.266
			c1.615,0,2.776-0.346,3.483-1.039c0.707-0.693,1.061-1.52,1.061-2.482c0-1.041-0.424-1.884-1.271-2.528
			c-0.848-0.644-2.035-0.966-3.563-0.966H173.28z"/>
	</g>
	<g>
		<path fill="#FF0000" d="M210.198,133.048v-1.781h2.052c1.5,0,2.571-0.309,3.216-0.927c0.645-0.618,0.967-1.368,0.967-2.251
			c0-0.972-0.36-1.742-1.079-2.312c-0.719-0.569-1.622-0.854-2.708-0.854c-2.016,0-3.41,0.979-4.182,2.938l-2.031-0.58
			c1.159-2.759,3.3-4.139,6.425-4.139c1.755,0,3.173,0.469,4.252,1.406c1.08,0.938,1.62,2.066,1.62,3.387
			c0,1.021-0.326,1.912-0.976,2.674c-0.65,0.761-1.485,1.238-2.505,1.432c1.144,0.167,2.127,0.647,2.95,1.439
			c0.822,0.792,1.234,1.818,1.234,3.077c0,1.506-0.61,2.771-1.831,3.797c-1.22,1.026-2.893,1.539-5.018,1.539
			c-1.686,0-3.127-0.4-4.326-1.201c-1.199-0.801-2.026-1.866-2.482-3.194l2.094-0.699c0.632,2.177,2.19,3.266,4.675,3.266
			c1.615,0,2.776-0.346,3.483-1.039c0.707-0.693,1.06-1.52,1.06-2.482c0-1.041-0.424-1.884-1.271-2.528
			c-0.848-0.644-2.036-0.966-3.564-0.966H210.198z"/>
		<path fill="#FF0000" d="M234,123.517l-0.185,1.938h-8.831l-0.391,5.838c1.335-1.309,2.803-1.963,4.402-1.963
			c1.687,0,3.143,0.585,4.369,1.757c1.226,1.171,1.839,2.668,1.839,4.491c0,1.849-0.666,3.364-1.997,4.544
			c-1.332,1.18-2.959,1.77-4.884,1.77c-1.512,0-2.856-0.396-4.033-1.188c-1.178-0.792-1.951-1.816-2.32-3.075l1.906-0.659
			c0.793,2.094,2.281,3.141,4.466,3.141c1.436,0,2.576-0.425,3.422-1.276s1.269-1.937,1.269-3.259c0-1.384-0.417-2.464-1.252-3.239
			c-0.834-0.775-1.835-1.164-3.003-1.164c-1.704,0-3.114,0.818-4.229,2.453l-1.781-0.382l0.578-9.727H234z"/>
		<path fill="#FF0000" d="M241.505,138.563v2.953h-2.953v-2.953H241.505z"/>
		<path fill="#FF0000" d="M256.583,123.517l-0.185,1.938h-8.831l-0.391,5.838c1.335-1.309,2.803-1.963,4.402-1.963
			c1.687,0,3.144,0.585,4.369,1.757c1.226,1.171,1.838,2.668,1.838,4.491c0,1.849-0.666,3.364-1.997,4.544s-2.959,1.77-4.884,1.77
			c-1.511,0-2.856-0.396-4.034-1.188c-1.178-0.792-1.951-1.816-2.32-3.075l1.906-0.659c0.792,2.094,2.281,3.141,4.466,3.141
			c1.436,0,2.576-0.425,3.422-1.276s1.269-1.937,1.269-3.259c0-1.384-0.417-2.464-1.251-3.239c-0.835-0.775-1.836-1.164-3.004-1.164
			c-1.704,0-3.114,0.818-4.229,2.453l-1.781-0.382l0.578-9.727H256.583z"/>
		<path fill="#FF0000" d="M272.417,123.517l-0.185,1.938h-8.831l-0.391,5.838c1.335-1.309,2.803-1.963,4.402-1.963
			c1.687,0,3.143,0.585,4.369,1.757c1.226,1.171,1.839,2.668,1.839,4.491c0,1.849-0.666,3.364-1.997,4.544
			c-1.332,1.18-2.959,1.77-4.884,1.77c-1.512,0-2.856-0.396-4.033-1.188c-1.178-0.792-1.951-1.816-2.32-3.075l1.906-0.659
			c0.793,2.094,2.281,3.141,4.466,3.141c1.436,0,2.576-0.425,3.422-1.276s1.269-1.937,1.269-3.259c0-1.384-0.417-2.464-1.252-3.239
			c-0.834-0.775-1.835-1.164-3.003-1.164c-1.704,0-3.114,0.818-4.229,2.453l-1.781-0.382l0.578-9.727H272.417z"/>
		<path fill="#FF0000" d="M276.61,138.238l1.813-0.659c0.745,1.667,1.999,2.5,3.76,2.5c1.709,0,2.995-0.722,3.858-2.165
			s1.308-3.402,1.334-5.875c-1.176,2.162-2.945,3.243-5.305,3.243c-1.668,0-3.067-0.57-4.2-1.709s-1.698-2.549-1.698-4.229
			c0-1.707,0.595-3.167,1.785-4.382c1.189-1.214,2.706-1.821,4.55-1.821c2.257,0,3.986,0.794,5.189,2.383
			c1.203,1.589,1.804,3.774,1.804,6.556c0,2.923-0.636,5.289-1.909,7.098s-3.085,2.713-5.438,2.713
			C279.406,141.892,277.558,140.674,276.61,138.238z M282.57,133.47c1.237,0,2.275-0.433,3.113-1.299s1.257-1.879,1.257-3.04
			c0-1.125-0.397-2.093-1.191-2.901c-0.794-0.809-1.841-1.213-3.14-1.213c-1.316,0-2.356,0.416-3.12,1.247
			c-0.764,0.831-1.145,1.844-1.145,3.039c0,1.284,0.423,2.299,1.27,3.047C280.461,133.096,281.446,133.47,282.57,133.47z"/>
		<path fill="#FF0000" d="M305.975,139.845v1.672h-12.609v-1.672h5.406v-13.906c-1.59,1.662-3.241,2.958-4.953,3.891v-2.266
			c2.365-1.241,4.198-2.714,5.5-4.422h1.609v16.703H305.975z"/>
	</g>
	<g>
		<path d="M96.315,108.933v1.875H83.534v-1.875c5.054-3.781,8.067-6.271,9.041-7.471c0.973-1.2,1.459-2.39,1.459-3.568
			c0-1.099-0.41-1.987-1.229-2.664c-0.82-0.677-1.763-1.016-2.829-1.016c-1.102,0-2.076,0.372-2.921,1.114s-1.321,1.751-1.427,3.026
			l-2.094-0.633c0.879-3.526,3.035-5.289,6.466-5.289c1.856,0,3.365,0.528,4.526,1.583c1.161,1.056,1.742,2.344,1.742,3.865
			c0,1.046-0.275,2.053-0.826,3.021c-0.55,0.967-1.591,2.124-3.123,3.469c-1.531,1.345-3.512,2.867-5.942,4.563H96.315z"/>
		<path d="M113.055,109.136v1.672h-12.609v-1.672h5.406V95.23c-1.59,1.662-3.241,2.958-4.953,3.891v-2.266
			c2.365-1.241,4.198-2.714,5.5-4.422h1.609v16.703H113.055z"/>
		<path d="M119.029,102.339v-1.781h2.052c1.5,0,2.571-0.309,3.216-0.927c0.645-0.618,0.967-1.368,0.967-2.251
			c0-0.972-0.36-1.742-1.079-2.312c-0.719-0.569-1.622-0.854-2.708-0.854c-2.016,0-3.41,0.979-4.182,2.938l-2.031-0.58
			c1.159-2.759,3.3-4.139,6.425-4.139c1.755,0,3.173,0.469,4.252,1.406c1.08,0.938,1.62,2.066,1.62,3.387
			c0,1.021-0.326,1.912-0.976,2.674c-0.65,0.761-1.485,1.238-2.505,1.432c1.144,0.167,2.127,0.647,2.95,1.439
			c0.822,0.792,1.234,1.818,1.234,3.077c0,1.506-0.61,2.771-1.831,3.797c-1.22,1.026-2.893,1.539-5.018,1.539
			c-1.686,0-3.127-0.4-4.326-1.201c-1.199-0.801-2.026-1.866-2.482-3.194l2.094-0.699c0.632,2.177,2.19,3.266,4.675,3.266
			c1.615,0,2.776-0.346,3.483-1.039c0.707-0.693,1.06-1.52,1.06-2.482c0-1.041-0.424-1.884-1.271-2.528
			c-0.848-0.644-2.036-0.966-3.564-0.966H119.029z"/>
		<path d="M134.503,107.855v2.953h-2.953v-2.953H134.503z"/>
		<path d="M150.847,96.489l-2.031,0.554c-0.694-1.833-1.958-2.75-3.793-2.75c-3.372,0-5.097,2.795-5.176,8.386
			c0.536-1.239,1.296-2.158,2.28-2.755s2.025-0.896,3.124-0.896c1.67,0,3.069,0.583,4.199,1.749s1.694,2.563,1.694,4.19
			c0,1.689-0.6,3.148-1.799,4.375s-2.734,1.841-4.605,1.841c-2.126,0-3.819-0.803-5.08-2.41s-1.891-3.792-1.891-6.556
			c0-2.703,0.595-5.009,1.784-6.919c1.19-1.91,3.032-2.866,5.525-2.866C147.95,92.433,149.873,93.785,150.847,96.489z
			 M144.699,109.371c1.274,0,2.318-0.42,3.131-1.261s1.22-1.851,1.22-3.031c0-1.162-0.398-2.159-1.193-2.991
			s-1.782-1.248-2.96-1.248c-1.213,0-2.272,0.436-3.178,1.307c-0.905,0.872-1.358,1.894-1.358,3.064
			c0,1.083,0.404,2.047,1.213,2.892C142.383,108.948,143.424,109.371,144.699,109.371z"/>
		<path d="M157.483,101.472c-2.275-0.994-3.412-2.437-3.412-4.328c0-1.373,0.567-2.5,1.701-3.385
			c1.134-0.884,2.638-1.326,4.51-1.326c1.846,0,3.314,0.424,4.404,1.274c1.09,0.849,1.635,1.96,1.635,3.332
			c0,1.91-1.165,3.278-3.495,4.105c1.882,0.872,3.063,1.713,3.542,2.523c0.479,0.811,0.719,1.62,0.719,2.431
			c0,1.444-0.614,2.653-1.84,3.626s-2.891,1.459-4.993,1.459c-2.242,0-3.979-0.496-5.21-1.486s-1.847-2.169-1.847-3.534
			C153.196,104.128,154.625,102.564,157.483,101.472z M159.963,102.417c-3.043,0.723-4.564,1.997-4.564,3.822
			c0,0.952,0.416,1.73,1.247,2.334c0.831,0.604,2.056,0.906,3.674,0.906c1.372,0,2.476-0.295,3.311-0.886
			c0.836-0.591,1.253-1.345,1.253-2.262C164.884,104.578,163.244,103.273,159.963,102.417z M160.214,100.355
			c1.511-0.405,2.578-0.871,3.202-1.399s0.936-1.188,0.936-1.979c0-0.924-0.372-1.626-1.114-2.105s-1.72-0.719-2.933-0.719
			c-1.16,0-2.108,0.253-2.847,0.759s-1.107,1.186-1.107,2.039c0,0.845,0.411,1.575,1.232,2.19
			C158.406,99.757,159.283,100.162,160.214,100.355z"/>
		<path d="M182.514,96.489l-2.031,0.554c-0.694-1.833-1.958-2.75-3.793-2.75c-3.372,0-5.097,2.795-5.176,8.386
			c0.536-1.239,1.296-2.158,2.28-2.755s2.025-0.896,3.124-0.896c1.67,0,3.069,0.583,4.199,1.749s1.694,2.563,1.694,4.19
			c0,1.689-0.6,3.148-1.799,4.375s-2.734,1.841-4.605,1.841c-2.126,0-3.819-0.803-5.08-2.41s-1.891-3.792-1.891-6.556
			c0-2.703,0.595-5.009,1.784-6.919c1.19-1.91,3.032-2.866,5.525-2.866C179.617,92.433,181.54,93.785,182.514,96.489z
			 M176.366,109.371c1.274,0,2.318-0.42,3.131-1.261s1.22-1.851,1.22-3.031c0-1.162-0.398-2.159-1.193-2.991
			s-1.782-1.248-2.96-1.248c-1.213,0-2.272,0.436-3.178,1.307c-0.905,0.872-1.358,1.894-1.358,3.064
			c0,1.083,0.404,2.047,1.213,2.892C174.05,108.948,175.091,109.371,176.366,109.371z"/>
	</g>
	<g>
		<path d="M210.198,102.339v-1.781h2.052c1.5,0,2.571-0.309,3.216-0.927c0.645-0.618,0.967-1.368,0.967-2.251
			c0-0.972-0.36-1.742-1.079-2.312c-0.719-0.569-1.622-0.854-2.708-0.854c-2.016,0-3.41,0.979-4.182,2.938l-2.031-0.58
			c1.159-2.759,3.3-4.139,6.425-4.139c1.755,0,3.173,0.469,4.252,1.406c1.08,0.938,1.62,2.066,1.62,3.387
			c0,1.021-0.326,1.912-0.976,2.674c-0.65,0.761-1.485,1.238-2.505,1.432c1.144,0.167,2.127,0.647,2.95,1.439
			c0.822,0.792,1.234,1.818,1.234,3.077c0,1.506-0.61,2.771-1.831,3.797c-1.22,1.026-2.893,1.539-5.018,1.539
			c-1.686,0-3.127-0.4-4.326-1.201c-1.199-0.801-2.026-1.866-2.482-3.194l2.094-0.699c0.632,2.177,2.19,3.266,4.675,3.266
			c1.615,0,2.776-0.346,3.483-1.039c0.707-0.693,1.06-1.52,1.06-2.482c0-1.041-0.424-1.884-1.271-2.528
			c-0.848-0.644-2.036-0.966-3.564-0.966H210.198z"/>
		<path d="M228.406,110.808h-2.328c0-3.014,0.614-5.947,1.843-8.798s2.734-5.258,4.516-7.217h-9.766l0.224-1.984h11.885v1.344
			c-2.138,2.585-3.737,5.275-4.798,8.071s-1.59,5.451-1.59,7.966C228.393,110.329,228.397,110.536,228.406,110.808z"/>
		<path d="M241.505,107.855v2.953h-2.953v-2.953H241.505z"/>
		<path d="M248.652,101.472c-2.275-0.994-3.412-2.437-3.412-4.328c0-1.373,0.567-2.5,1.701-3.385
			c1.134-0.884,2.638-1.326,4.51-1.326c1.846,0,3.314,0.424,4.404,1.274c1.09,0.849,1.635,1.96,1.635,3.332
			c0,1.91-1.165,3.278-3.495,4.105c1.882,0.872,3.063,1.713,3.542,2.523c0.479,0.811,0.719,1.62,0.719,2.431
			c0,1.444-0.614,2.653-1.84,3.626s-2.891,1.459-4.993,1.459c-2.242,0-3.979-0.496-5.21-1.486s-1.847-2.169-1.847-3.534
			C244.365,104.128,245.794,102.564,248.652,101.472z M251.132,102.417c-3.043,0.723-4.564,1.997-4.564,3.822
			c0,0.952,0.416,1.73,1.247,2.334c0.831,0.604,2.056,0.906,3.674,0.906c1.372,0,2.476-0.295,3.311-0.886
			c0.836-0.591,1.253-1.345,1.253-2.262C256.052,104.578,254.412,103.273,251.132,102.417z M251.383,100.355
			c1.511-0.405,2.578-0.871,3.202-1.399s0.936-1.188,0.936-1.979c0-0.924-0.372-1.626-1.114-2.105s-1.72-0.719-2.933-0.719
			c-1.16,0-2.108,0.253-2.847,0.759s-1.107,1.186-1.107,2.039c0,0.845,0.411,1.575,1.232,2.19
			C249.575,99.757,250.451,100.162,251.383,100.355z"/>
		<path d="M271.136,110.808h-2.156v-4.281h-8.922v-1.519l8.278-12.575h2.8v12.313h2.906v1.781h-2.906V110.808z M268.979,104.746
			v-8.516c0-0.615,0.016-1.278,0.047-1.99c-0.38,0.694-0.707,1.257-0.98,1.688l-5.642,8.819H268.979z"/>
		<path d="M290.141,109.136v1.672h-12.609v-1.672h5.406V95.23c-1.589,1.662-3.241,2.958-4.953,3.891v-2.266
			c2.365-1.241,4.199-2.714,5.5-4.422h1.609v16.703H290.141z"/>
		<path d="M305.975,109.136v1.672h-12.609v-1.672h5.406V95.23c-1.59,1.662-3.241,2.958-4.953,3.891v-2.266
			c2.365-1.241,4.198-2.714,5.5-4.422h1.609v16.703H305.975z"/>
	</g>
</g>
<path fill="none" stroke="#1C384A" stroke-width="6" d="M808,740c0,21.87-17.73,39.6-39.6,39.6h-724.8c-21.87,0-39.6-17.73-39.6-39.6v-661.2c0-21.87,17.73-39.6,39.6-39.6h724.8c21.87,0,39.6,17.73,39.6,39.6V683.5z"/>
</svg>
