<?xml version="1.0" encoding="utf-8"?>
<svg xmlns="http://www.w3.org/2000/svg" viewBox="0 0 46 46" overflow="visible">
<g transform="scale(0.5, 0.5) translate(-42.9,-6.2)">
<radialGradient id="ROCKET_4_" cx="80.75" cy="62.5" r="30.3284" gradientUnits="userSpaceOnUse">
	<stop  offset="0" style="stop-color:#FFFFFF"/>
	<stop  offset="0.1098" style="stop-color:#D9DBDF"/>
	<stop  offset="0.2746" style="stop-color:#A5ACB4"/>
	<stop  offset="0.437" style="stop-color:#7B8491"/>
	<stop  offset="0.5937" style="stop-color:#5A6675"/>
	<stop  offset="0.743" style="stop-color:#425061"/>
	<stop  offset="0.8819" style="stop-color:#344355"/>
	<stop  offset="1" style="stop-color:#2F3E51"/>
</radialGradient>
<path fill="url(#ROCKET_4_)" d="M134.654,52.285c0,25.351-20.549,45.899-45.896,45.899S42.855,77.636,42.855,52.285
	S63.41,6.386,88.757,6.386S134.654,26.935,134.654,52.285L134.654,52.285z"/>
<g>
	<path fill="#FFBF00" d="M83.404,57.414c-8.151,3.694-6.621,10.641-9.451,15.396c3.408-4.394,10.559-5.043,11.401-14.072
		C84.776,58.376,83.958,57.774,83.404,57.414z"/>
	<radialGradient id="ROCKET_5_" cx="82.1528" cy="61.1289" r="13.715" gradientUnits="userSpaceOnUse">
		<stop  offset="0" style="stop-color:#FFFFFF"/>
		<stop  offset="0.1053" style="stop-color:#FFFAEC"/>
		<stop  offset="0.3189" style="stop-color:#FFEEBB"/>
		<stop  offset="0.622" style="stop-color:#FFDA6C"/>
		<stop  offset="1" style="stop-color:#FFBF00"/>
	</radialGradient>
	<path fill="url(#ROCKET_5_)" d="M82.851,58.757c-6.742,1.737-6.745,10.656-8.717,13.969c2.375-3.062,10.787-6.453,10.076-13.046
		C83.807,59.429,83.236,59.01,82.851,58.757z"/>
	<radialGradient id="ROCKET_6_" cx="82.4609" cy="60.7119" r="7.8816" gradientUnits="userSpaceOnUse">
		<stop  offset="0" style="stop-color:#FFFFFF"/>
		<stop  offset="0.2423" style="stop-color:#FFFAEC"/>
		<stop  offset="0.7304" style="stop-color:#FFEEBC"/>
		<stop  offset="1" style="stop-color:#FFE79E"/>
	</radialGradient>
	<path fill="url(#ROCKET_6_)" d="M81.921,60.347c-4.729,3.736-4.814,7.606-6.222,9.972c1.695-2.186,5.707-3.876,7.193-9.313
		C82.604,60.825,82.197,60.526,81.921,60.347z"/>
	<path fill="#F55B31" stroke="#000000" stroke-width="0.25" d="M93.088,63.234c-0.527,0.414-1.803,1.027-3.051,0.307
		c-1.248-0.721-1.428-2.228-1.12-2.763c1.102,0.163,2.312,0.346,2.312,0.346S92.149,62.151,93.088,63.234z"/>
	<path fill="#F55B31" stroke="#000000" stroke-width="0.25" d="M88.899,60.651c0.182,1.707,2.845,3.052,4.262,2.528
		c1.042-1.035,2.961-4.297,2.836-8.271C94.227,55.397,89.278,57.888,88.899,60.651z"/>
	<path fill="#F55B31" stroke="#000000" stroke-width="0.25" d="M95.923,56.498c-2.311,1.204-3.59,2.08-6.32,5.3
		c0.288-1.06,0.216-2.267-0.199-3.223c1.156-1.132,5.08-4.388,5.995-5.761C96.104,53.916,96.021,55.15,95.923,56.498z"/>
	<path fill="#F55B31" stroke="#000000" stroke-width="0.25" d="M70.065,50.07c-0.995,1.169-3.937,4.568-5.272,6.266
		c-0.316,3.639,4.108,4.172,5.58,1.066c1.824-1.445,8.192-2.251,11.418-1.433c0.488-1.493,2.817-6.62,3.612-7.898
		C82.26,47.291,75.246,47.357,70.065,50.07z"/>
	<path fill="#F55B31" stroke="#000000" stroke-width="0.25" d="M105.387,29.051c0,0-5.563,1.299-8.949,2.134
		c-2.414,2.093-4.517,4.595-6.271,7.387c-2.369,3.768-4.397,7.681-5.971,11.005c0.082,2.551,3.132,8.866,3.132,8.866
		s3.503-1.336,5.815-2.763c4.193-4.104,9.167-9.352,11.181-12.918c0.898-1.592,1.679-3.108,2.236-4.376
		C106.042,34.058,105.387,29.051,105.387,29.051z"/>
	<path fill="#F55B31" stroke="#000000" stroke-width="0.25" d="M64.792,56.345c0.542,2.799,4.605,2.935,5.58,1.057
		c0.452-1.354,0.47-6.428-0.307-7.332C68.295,50.557,65.171,53.582,64.792,56.345z"/>
	<path fill="#F4F4F4" stroke="#000000" stroke-width="0.25" d="M91.301,42.773c-0.853,1.199-1.69,2.527-2.397,3.641
		c1.357,2.022,2.715,2.975,5.229,3.698c0.982-1.126,1.892-2.24,2.73-3.337C95.043,46.443,92.254,44.752,91.301,42.773z"/>
	<path fill="#F4F4F4" stroke="#000000" stroke-width="0.25" d="M86.996,49.549c-0.853,1.199-1.373,2.123-2.081,3.234
		c1.099,2.008,1.995,2.471,4.147,3.294c0.939-1.15,1.625-1.981,2.545-3.101C89.788,52.645,87.95,51.527,86.996,49.549z"/>
	<path fill="#F4F4F4" stroke="#000000" stroke-width="0.25" stroke-linejoin="bevel" d="M94.1,50.125
		c-1.011,1.245-1.606,1.841-2.492,2.853c1.878,0.252,3.071,0.072,4.714-0.529c1.023-1.061,1.579-1.67,2.654-2.782
		C97.387,50.208,95.997,50.376,94.1,50.125z"/>
	<path fill="#F4F4F4" stroke="#000000" stroke-width="0.25" stroke-linejoin="bevel" d="M99.809,42.977
		c-1.011,1.246-2.074,2.807-2.958,3.818c1.877,0.253,3.508,0.091,5.085-0.631c0.614-0.723,2.167-2.998,2.602-3.793
		C102.829,42.973,101.706,43.229,99.809,42.977z"/>
	<path fill="#F4F4F4" stroke="#000000" stroke-width="0.25" d="M97.373,34.447c-0.832,0.901-2.604,3.256-3.326,4.311
		c1.501,2.34,2.64,3.241,5.763,4.218c0.906-1.129,2.459-3.706,2.927-4.762C101.336,37.819,98.23,36.172,97.373,34.447z"/>
	<path fill="#F55B31" stroke="#000000" stroke-width="0.25" d="M108.537,24.969c-4.571,0.988-8.685,3.253-12.1,6.216
		c-1.141,5.465,5.625,9.327,10.117,7.2C108.845,33.176,108.846,29.752,108.537,24.969z"/>
	<path fill="#F4F4F4" stroke="#000000" stroke-width="0.25" stroke-linejoin="bevel" d="M93.378,34.233
		c-0.945,1.149-2.151,2.679-2.907,3.876c-0.087,1.908,0.045,2.757,0.839,4.71c0.882-1.297,1.894-2.742,2.753-4.09
		C93.378,37.303,93.179,36.328,93.378,34.233z"/>
	<path fill="#F4F4F4" stroke="#000000" stroke-width="0.25" stroke-linejoin="bevel" d="M88.207,41.884
		c-0.746,1.348-1.36,2.492-1.974,3.66c0.036,1.577,0.217,2.853,0.759,4.02c0.806-1.3,1.119-1.806,1.938-3.178
		C88.442,45.351,87.858,44.05,88.207,41.884z"/>
	<path fill="#F55B31" stroke="#000000" stroke-width="0.25" stroke-linejoin="bevel" d="M84.638,48.637
		c-2.071,4.376-3.666,8.343-3.666,8.343c-0.385,3.275,2.26,5.5,5.439,4.489c0,0,3.139-2.275,6.804-5.862
		C90.594,57.068,84.091,54.922,84.638,48.637z"/>
	<path fill="none" stroke="#000000" stroke-width="0.25" stroke-linejoin="bevel" d="M108.208,25.159"/>
	<path fill="#F55B31" stroke="#000000" stroke-width="0.25" d="M82.827,75.456c-1.308,3.507-2.361,6.214-2.645,6.922
		c-3.352,2.05-6.651-1.659-4.532-4.693c1.222-0.626,3.78-1.155,3.78-1.155s4.653-12.442,4.912-15.265
		c1.156-1.131,4.237-4.357,5.152-5.73C87.786,62.638,84.415,71.715,82.827,75.456z"/>
	<path fill="#F55B31" stroke="#000000" stroke-width="0.25" d="M75.555,77.686c-0.41,3.275,2.36,5.297,4.743,4.72
		c1.444-0.795,3.034-5.393,2.601-7.367C80.731,74.749,76.783,75.303,75.555,77.686z"/>
</g>
</g>
</svg>
