<?xml version="1.0" encoding="utf-8"?>
<!DOCTYPE svg PUBLIC "-//W3C//DTD SVG 1.1//EN" "http://www.w3.org/Graphics/SVG/1.1/DTD/svg11.dtd">
<svg  version="1.1" id="Layer_1" xmlns="http://www.w3.org/2000/svg" xmlns:xlink="http://www.w3.org/1999/xlink" viewBox="0 0 1889.545 1138" overflow="visible" enable-background="new 0 0 1889.545 1138" xml:space="preserve">
<g>
	<path fill="#E11923" d="M1538.479,0.283c49.483-1.764,97.804,4.732,144.963,19.49c31.591,11.956,60.234,28.789,85.973,50.5
		c50.978,51.642,62.809,111.295,35.493,178.94c-6.435,11.499-15.609,20.154-27.502,26.008c23.703,15.152,45.519,32.816,65.485,52.97
		c42.842,50.23,56.188,107.539,39.998,171.966c-10.669,39.499-31.155,73-61.48,100.481c-54.88,48.072-118.851,76.736-191.955,85.973
		c-103.988,11.729-203.619-3.756-298.933-46.494c-5.937,4.297-11.291,9.299-15.982,15.008
		c78.688,70.758,106.521,158.08,83.482,261.924c-16.688,58.014-49.172,105.172-97.472,141.454
		c-76.716,53.032-162.024,79.518-255.946,79.497c-49.089,0.021-97.067-7.141-143.956-21.504
		c-19.885-7.617-39.219-16.293-57.982-25.986c-49.618-27.959-95.604-60.941-137.957-98.987
		c-18.671-15.318-37.33-30.657-55.99-45.976c-33.117-32.629-66.441-65.112-99.974-97.472
		c-97.025,49.815-199.997,69.991-308.916,60.484c-61.418-6.767-117.74-27.087-168.957-61.003
		c-22.054-16.355-40.215-36.199-54.485-59.467c-24.243-46.723-21.586-91.723,7.991-134.979
		c20.912-27.357,45.747-50.521,74.484-69.472c52.171-32.235,108.493-54.9,168.956-67.977c26.517-5.355,53.179-9.838,79.975-13.512
		c-2.49-4.317-4.992-8.656-7.493-12.994c-20.611-28.27-41.605-56.271-62.985-83.98c-23.185-33.688-43.848-68.994-61.978-105.961
		c-19.501-40.164-31.498-82.506-35.992-126.966c-2.739-25.904-1.411-51.559,3.996-76.985c6.009-22.542,17.508-41.7,34.486-57.495
		c13.575-10.295,28.903-16.294,45.996-17.996c52.005-0.955,103.989-0.623,155.953,1.017c19.5,3.653,34.995,13.491,46.494,29.474
		c14.321,24.493,31.145,47.159,50.479,67.998c4.659,4.483,9.994,7.97,16.003,10.482c3.643,0.498,7.316,0.664,10.99,0.519
		c-0.166-22.998,0-45.996,0.498-68.994c2.709-23.704,15.868-37.195,39.499-40.496c6.632-0.831,13.306-1.329,19.989-1.495
		c39.322,0.768,78.646,1.266,117.968,1.495c24.659-0.333,46.65,6.995,65.985,22.001c15.702,13.367,28.861,28.872,39.488,46.494
		c6.84,12.62,13.336,25.281,19.501,37.984c39.717-41.866,86.377-73.706,139.96-95.479c60.38-21.296,121.051-21.96,181.95-1.992
		c47.802,15.401,91.784,37.901,131.969,67.479c38.067-37.735,83.066-64.22,134.957-79.476
		C1469.339,7.36,1503.67,1.86,1538.479,0.283z"/>
</g>
<g>
	<path fill="#41CAEA" d="M1350.53,615.127c53.883,23.393,110.195,37.549,168.956,42.488c64.428,6.538,127.092-1.121,187.949-22.998
		c41.679-16.418,77.836-40.91,108.473-73.478c33.189-40.101,46.183-86.097,38.98-137.967c-7.805-38.461-26.963-69.949-57.475-94.462
		c-20.154-16.584-41.804-30.906-64.988-43.007c-26.34-13.16-52.326-26.817-77.981-40.973c-12.786-8.697-16.958-20.528-12.495-35.493
		c8.386-21.047,23.891-30.553,46.494-28.499c9.568,1.536,17.394,6.04,23.496,13.492c6.767,11.229,12.765,22.894,17.996,34.995
		c5.354,8.033,12.536,13.865,21.482,17.498c11.894,1.308,20.383-3.528,25.488-14.488c21.587-58.492,8.428-107.643-39.479-147.474
		c-45.145-32.815-95.811-50.147-151.957-51.974c-56.935-4.317-112.271,3.03-165.968,21.981
		c-36.469,13.637-68.309,34.124-95.458,61.48c-30.305,32.878-40.62,71.194-31.01,114.97c3.279,9.236,7.617,17.892,12.993,26.008
		c14.073,16.376,30.222,30.221,48.487,41.492c26.838,16.418,54.838,30.74,83.979,42.986c13.201,6.518,24.7,15.36,34.497,26.485
		c12.039,17.498,12.371,35.161,0.996,52.991c-11,11.562-24.492,18.39-40.475,20.486c-19.553,2.927-39.229,4.11-58.989,3.508
		c5.064-4.587,10.066-9.402,14.986-14.508c1.328-0.665,2.677-1.329,4.006-1.993c18.1,0.104,35.763-2.553,52.991-7.991
		c17.165-6.871,23.33-19.366,18.473-37.486c-0.872-3.466-2.532-6.456-4.981-9.008c-5.854-6.331-12.351-11.831-19.511-16.501
		c-20.881-10.191-41.887-20.175-62.975-29.993c-29.475-14.654-55.627-33.813-78.48-57.475
		c-20.818-24.513-29.162-52.846-24.99-84.977c3.965-27.917,14.965-52.576,32.981-73.976c30.554-33.21,67.043-57.703,109.47-73.498
		c67.209-22.583,135.829-28.582,205.965-17.996c47.117,7.763,89.438,26.09,126.967,55.004
		c29.349,25.219,46.847,57.038,52.492,95.458c3.259,31.57-5.563,59.073-26.506,82.486c-20.527,10.752-38.357,7.265-53.489-10.502
		c-1.743-3.176-3.735-6.165-5.998-8.988c-5.313-10.668-10.669-21.337-15.982-32.006c-11.499-9.672-23.662-10.502-36.49-2.491
		c-8.489,8.448-10.004,17.955-4.504,28.499c2.2,2.532,4.691,4.691,7.493,6.497c40.122,19.262,79.123,40.579,116.962,63.971
		c28.312,19.303,51.476,43.464,69.492,72.481c16.875,32.027,22.563,66.025,17,101.976c-7.099,46.868-28.271,85.869-63.494,116.983
		c-48.342,41.637-104.342,67.457-167.96,77.482c-72.461,10.897-144.091,6.892-214.932-11.996
		c-27.171-6.892-53.489-16.066-78.979-27.503C1343.805,621.914,1345.798,617.908,1350.53,615.127z"/>
</g>
<g>
	<path fill="#41CAEA" d="M1283.528,121.25c-15.276-8.634-30.263-17.809-44.979-27.481c-34.602-19.303-71.257-33.625-109.968-42.986
		c-51.039-10.336-100.356-5.002-147.972,15.982c-91.183,45.208-157.001,114.368-197.424,207.459
		c-30.917,75.304-35.908,152.29-14.996,230.935c38.035,111.005,115.187,175.163,231.433,192.454
		c13.347,2.055,26.693,2.885,39.977,2.49c-0.29,4.898-1.951,9.236-4.981,12.993c-111.855-1.95-196.987-50.271-255.438-144.962
		c-37.735-71.236-48.736-146.54-32.992-225.933c14.592-69.16,44.585-130.474,89.979-183.963
		c31.301-36.967,67.79-67.79,109.469-92.469c32.816-19.158,68.144-31.155,105.962-35.992c38.959-3.362,76.943,1.287,113.973,13.99
		c45.519,15.09,87.156,36.925,124.974,65.486c-0.768,2.532-2.283,4.545-4.504,5.999
		C1284.919,117.162,1284.068,119.154,1283.528,121.25z"/>
</g>
<g>
	<path fill="#36398A" d="M1350.53,615.127c-0.125-0.623-0.457-1.121-0.997-1.494c21.297-27.129,38.13-56.956,50.479-89.481
		c2.948-9.174,5.293-18.515,6.995-28c2.512-15.11-2.304-27.294-14.509-36.489c-12.993-3.155-25.986-2.989-38.98,0.498
		c-0.664-0.332-1.328-0.664-1.992-0.996c5.749-8.116,13.408-12.786,22.998-13.99c19.76,0.602,39.437-0.581,58.989-3.508
		c15.982-2.096,29.475-8.925,40.475-20.486c11.375-17.83,11.043-35.493-0.996-52.991c-9.797-11.125-21.296-19.968-34.497-26.485
		c-29.142-12.246-57.142-26.568-83.979-42.986c-18.266-11.271-34.414-25.115-48.487-41.492c-5.376-8.116-9.714-16.771-12.993-26.008
		c-9.61-43.775,0.705-82.091,31.01-114.97c27.149-27.356,58.989-47.843,95.458-61.48c53.697-18.951,109.033-26.298,165.968-21.981
		c56.146,1.827,106.813,19.158,151.957,51.974c47.906,39.832,61.065,88.982,39.479,147.474
		c-5.105,10.959-13.595,15.795-25.488,14.488c-8.946-3.632-16.128-9.465-21.482-17.498c-5.231-12.101-11.229-23.766-17.996-34.995
		c-6.103-7.452-13.928-11.956-23.496-13.492c-22.604-2.055-38.108,7.452-46.494,28.499c-4.463,14.965-0.291,26.796,12.495,35.493
		c25.655,14.156,51.642,27.813,77.981,40.973c23.185,12.101,44.834,26.423,64.988,43.007c30.512,24.514,49.67,56.001,57.475,94.462
		c7.202,51.87-5.791,97.866-38.98,137.967c-30.637,32.567-66.794,57.06-108.473,73.478
		c-60.857,21.877-123.521,29.536-187.949,22.998C1460.726,652.676,1404.413,638.52,1350.53,615.127z"/>
</g>
<g>
	<path fill="#41CAEA" d="M820.673,156.246c-8.739-34.642-26.06-64.137-51.984-88.484c-9.517-8.054-20.518-13.056-32.992-14.986
		c-45.478-1.142-90.965-1.972-136.463-2.512c-6.652-0.249-13.159,0.582-19.501,2.512c-2.117,1.723-3.611,3.902-4.493,6.497
		c-0.852,4.795-1.359,9.631-1.505,14.488c1.079,21.483,1.245,42.987,0.498,64.49c-3.404,9.735-9.9,16.563-19.49,20.486
		c-12.734,5.127-25.396,4.463-37.994-1.992c-16.231-8.884-30.056-20.715-41.481-35.494c-12.828-17.643-25.157-35.639-36.999-53.987
		c-9.537-11.063-21.7-16.563-36.489-16.48c-45.653-0.706-91.317-0.374-136.961,0.997c-19.303,1.889-33.47,11.395-42.488,28.478
		c-10.461,20.383-14.955,42.032-13.502,64.988c1.132,49.856,12.631,97.181,34.497,141.973
		c19.864,39.417,42.53,77.068,67.978,112.956c16.283,21.96,32.94,43.609,49.991,64.988c29.89,42.135,50.885,88.442,62.985,138.963
		c8.873,37.3,4.546,72.958-13.004,106.979c-31.954,41.409-73.114,54.589-123.459,39.479c-20.144-9.444-29.64-25.281-28.498-47.47
		c5.282-15.277,15.785-25.115,31.497-29.495c22.459-4.898,44.782-4.234,66.981,1.993c11.073,3.01,22.063,6.186,32.992,9.506
		c-1.774,5.21-4.774,9.548-8.998,12.994c-5.614-3.321-11.613-5.813-17.996-7.494c-15.546-4.275-31.384-6.787-47.49-7.514
		c-12.35-0.373-23.849,2.471-34.486,8.511c-10.908,10.689-11.738,22.167-2.501,34.476c12.381,9.818,26.536,14.488,42.487,14.012
		c51.798-2.325,81.625-28.997,89.471-79.996c2.626-22.313,0.965-44.314-4.992-65.963c-12.049-44.087-31.041-84.749-56.986-121.985
		c-37.601-45.187-71.257-93.175-100.979-143.966c-22.738-40.558-39.406-83.544-49.981-128.959
		c-7.514-35.099-7.182-70.094,0.996-104.964c8.511-32.837,29.34-52.659,62.487-59.488c24.804-1.121,49.628-1.619,74.484-1.495
		c21.161,0.166,42.322,0.332,63.483,0.498c22.582-0.27,40.08,8.884,52.482,27.481c13.231,22.23,28.395,43.069,45.487,62.498
		c9.05,8.717,19.376,15.38,30.989,19.988c8.438,2.553,16.438,1.557,23.994-3.01c2.211-1.868,4.048-4.027,5.5-6.497
		c0.332-24.659,0.665-49.317,0.997-73.976c1.826-15.152,10.326-23.662,25.499-25.489c8.635-0.997,17.3-1.495,25.986-1.495
		c41.679,0.436,83.337,1.287,124.975,2.491c22.178,4.504,40.672,15.339,55.481,32.484c17.445,20.901,30.771,44.211,39.997,69.99
		c0.665,1.993,0.665,4.006,0,5.999C827.896,148.504,824.388,152.51,820.673,156.246z"/>
</g>
<g>
	<path fill="#F6921D" d="M1547.466,37.271c43.817-0.893,86.492,5.604,127.983,19.511c17.021,7.327,33.335,16.003,48.985,25.987
		c20.923,15.256,37.092,34.414,48.487,57.474c10.959,27.875,11.291,55.855,0.996,83.98c-2.615,6.746-6.787,12.246-12.495,16.501
		c-5.771,1.225-11.104,0.228-16.004-3.01c-3.528-3.196-6.704-6.684-9.485-10.482c-5.998-11.997-11.997-23.994-17.996-35.991
		c-18.327-19.013-39.167-22.168-62.497-9.507c-17.103,12.682-23.6,29.495-19.49,50.5c4.795,8.448,11.292,15.276,19.49,20.486
		c32.256,16.584,64.241,33.584,95.978,50.978c23.164,14.156,44.314,30.969,63.494,50.5c35.099,42.965,44.771,91.307,28.976,144.962
		c-6.02,20.051-15.692,38.046-28.976,53.987c-41.43,45.311-92.263,75.117-152.477,89.48c-59.301,13.264-118.955,14.924-178.94,4.982
		c-43.484-6.871-85.475-18.682-125.971-35.494c26.133-32.92,44.273-69.907,54.485-110.963c2.782-12.163,1.453-23.828-3.984-34.995
		c-5.521-7.182-12.703-12.018-21.504-14.488c24.326,0.415,47.968-3.259,70.986-11.001c27.398-14.052,36.241-35.888,26.485-65.486
		c-9.341-16.979-22.832-29.495-40.495-37.486c-22.334-10.17-44.315-20.839-65.984-31.986
		c-23.704-12.724-44.876-28.872-63.474-48.486c-14.695-18.764-21.026-40.081-19.013-63.992
		c2.803-23.579,11.458-44.563,26.008-62.975c22.541-26.692,49.69-47.179,81.469-61.48c34.829-15.318,71.152-24.97,108.971-28.996
		C1523.68,39.408,1535.677,38.578,1547.466,37.271z"/>
</g>
<g>
	<path fill="#36398A" d="M1283.528,121.25c-2.947,8.697-6.767,17.02-11.479,24.991c-11.686,29.993-13.678,60.671-5.998,91.992
		c4.878,14.509,11.872,27.834,20.984,39.977c9.963,10.793,20.445,20.943,31.487,30.491c22.749,15.38,46.411,29.204,70.987,41.492
		c0.892,0.831,1.225,1.827,0.996,3.01c-2.989,27.481-14.986,49.96-35.991,67.479c-10.648,7.991-21.981,14.986-33.979,20.984
		c-44.231,19.449-88.235,39.438-131.969,59.986c-11.084,5.688-18.245,14.53-21.482,26.506c-1.661,16.522,5.5,27.025,21.482,31.488
		c13.678,1.536,26.672-0.81,39.001-6.995c48.03-22.708,96.351-44.875,144.962-66.482c4.4,0.789,6.394,3.445,5.979,7.991
		c-2.242,13.595-6.435,26.609-12.496,38.98c-18.805,39.271-44.626,73.27-77.462,101.976c-1.079,0.041-2.076,0.373-3.01,0.996
		c-14.883-11.042-30.222-21.545-45.976-31.487c-40.039-21.026-79.372-43.36-117.979-66.98c-10.13-7.784-19.968-15.962-29.495-24.493
		c-4.795-5.251-8.282-11.25-10.503-17.996c0.27-1.204,0.913-1.868,2.014-1.993c15.152,7.099,30.844,8.925,46.992,5.5
		c7.473-2.283,14.799-4.94,21.98-8.012c52.598-24.285,105.256-48.611,157.956-72.979c14.219-9.984,19.387-23.476,15.505-40.475
		c-3.694-14.052-10.046-26.714-19.013-38.005c-27.356-32.255-61.521-53.759-102.453-64.469
		c-57.661-8.095-100.813,13.076-129.478,63.473c-7.639,15.878-12.454,32.546-14.488,49.981c-0.913,0.726-1.245,1.723-0.996,3.009
		c-31.861,5.127-61.19,16.605-87.986,34.497c-6.85,6.331-13.845,12.516-20.984,18.494c-8.749,12.267-15.589,25.593-20.497,39.977
		c-5.044,26.713-0.716,51.704,13.004,74.993c5.085,7.825,10.409,15.505,15.982,22.998c23.766,23.414,46.432,47.74,67.977,72.98
		c8.635,11.063,13.782,23.558,15.505,37.485c-0.187,1.827-0.332,3.674-0.519,5.501c-0.415,1.245-1.245,1.909-2.491,1.992
		c-13.283,0.395-26.63-0.436-39.977-2.49C883.377,680.322,806.226,616.165,768.19,505.16
		c-20.912-78.646-15.921-155.631,14.996-230.935c40.423-93.092,106.241-162.252,197.424-207.459
		c47.615-20.985,96.933-26.319,147.972-15.982c38.711,9.361,75.366,23.683,109.968,42.986
		C1253.266,103.441,1268.252,112.616,1283.528,121.25z"/>
</g>
<g>
	<path fill="#36398A" d="M820.673,156.246c-2.813,6.248-6.643,11.915-11.499,17c-9.33,13.99-18.66,27.979-27.99,41.99
		c-36.147,61.875-54.309,128.855-54.485,200.942c0.841,48.715,11.001,95.375,30.491,139.96c5.313,7.804,9.475,16.128,12.495,24.99
		c-65.455,123.937-163.436,212.089-293.92,264.437c-91.463,34.31-185.105,41.969-280.927,22.998
		c-36.448-9.237-70.437-23.891-101.977-43.983c-23.195-15.525-41.024-35.7-53.489-60.483c-15.059-37.527-9.392-71.506,17-101.977
		c19.781-23.123,42.612-42.633,68.485-58.491c42.894-24.845,88.547-42.841,136.961-53.987
		c35.182-8.655,70.831-14.156,106.968-16.501c1.889-0.187,3.394,0.477,4.504,2.013c13.533,29.266,22.188,59.923,25.987,91.971
		c2.2,19.221,0.197,37.88-5.999,55.979c-0.415,1.267-1.245,1.931-2.49,2.014c-10.929-3.32-21.919-6.496-32.992-9.506
		c-22.199-6.228-44.522-6.892-66.981-1.993c-15.712,4.38-26.215,14.218-31.497,29.495c-1.142,22.188,8.354,38.025,28.498,47.47
		c50.345,15.11,91.505,1.931,123.459-39.479c17.55-34.021,21.877-69.679,13.004-106.979
		c-12.101-50.521-33.096-96.828-62.985-138.963c-17.051-21.379-33.708-43.028-49.991-64.988
		c-25.447-35.888-48.113-73.54-67.978-112.956c-21.866-44.792-33.365-92.117-34.497-141.973
		c-1.453-22.957,3.041-44.605,13.502-64.988c9.019-17.083,23.186-26.589,42.488-28.478c45.644-1.37,91.308-1.702,136.961-0.997
		c14.789-0.083,26.952,5.417,36.489,16.48c11.842,18.349,24.171,36.344,36.999,53.987c11.426,14.779,25.25,26.61,41.481,35.494
		c12.599,6.455,25.26,7.119,37.994,1.992c9.59-3.923,16.086-10.751,19.49-20.486c0.747-21.503,0.581-43.007-0.498-64.49
		c0.146-4.856,0.653-9.693,1.505-14.488c0.882-2.594,2.376-4.774,4.493-6.497c6.342-1.93,12.849-2.761,19.501-2.512
		c45.498,0.54,90.985,1.37,136.463,2.512c12.475,1.93,23.476,6.933,32.992,14.986C794.613,92.108,811.934,121.604,820.673,156.246z"
		/>
</g>
<g>
	<path fill="#F7921E" d="M1067.601,51.281c30.075-0.892,59.384,3.28,87.985,12.496c43.257,14.467,83.233,34.954,119.972,61.48
		c-22.873,40.621-26.692,82.942-11.499,126.967c10.711,21.379,25.198,39.873,43.464,55.481
		c23.787,17.643,48.944,33.127,75.491,46.495c-2.387,28.249-15.215,50.417-38.482,66.482c-11.042,6.85-22.375,13.18-33.999,18.992
		c-42.695,18.515-85.038,37.838-126.966,57.993c-18.557,11.271-25.406,27.439-20.508,48.487
		c9.548,16.086,23.704,22.583,42.509,19.49c10.378-2.138,20.383-5.459,29.973-10.005c45.622-21.171,91.12-42.343,136.493-63.473
		c0.664,2.325,0.664,4.67,0,6.995c-15.94,51.538-44.605,94.524-85.993,128.96c-31.01-21.588-63.493-40.745-97.472-57.475
		c-25.842-14.094-50.832-29.412-74.993-45.997c-7.493-6.331-14.487-13.18-20.984-20.486c18.224,3.798,36.22,2.283,53.987-4.504
		c51.87-23.849,103.865-47.511,155.963-70.986c25.884-10.938,35.369-30.097,28.478-57.475
		c-7.472-20.818-19.303-38.648-35.493-53.489c-20.735-18.743-44.045-33.418-69.97-44.003
		c-59.093-18.162-107.912-2.989-146.456,45.498c-13.223,20.279-21.711,42.426-25.51,66.483
		c-36.054,6.787-68.393,21.462-96.953,43.982c-36.78,37.299-43.951,79.788-21.493,127.465c4.245,8.178,9.247,15.858,14.997,22.998
		c15.92,17.934,32.587,35.265,49.98,51.995c8.033,9.028,15.692,18.369,22.998,27.979c7.514,9.361,11.997,20.03,13.492,32.007
		c-86.398,2.055-157.884-30.263-214.434-96.974c-46.235-61.065-66.4-129.893-60.495-206.463
		c7.13-75.657,33.958-143.136,80.483-202.437c38.627-49.296,86.117-87.467,142.45-114.471
		C1011.247,60.289,1038.915,53.439,1067.601,51.281z"/>
</g>
<g>
	<path fill="#F6921D" d="M273.815,56.263c43.318-0.166,86.647,0,129.966,0.519c11.468,0.644,20.964,5.147,28.488,13.492
		c11.925,18.847,24.586,37.175,37.994,54.983c8.895,10.565,18.723,20.051,29.495,28.499c6.839,3.902,13.834,7.576,20.995,10.98
		c16.553,4.753,32.224,2.76,46.981-5.999c6.062-5.292,10.233-11.79,12.495-19.49c0.333-24.326,0.675-48.652,1.007-72.979
		c0.052-3.321,1.225-6.144,3.498-8.489c50.334-0.831,100.647-0.665,150.961,0.498c7.119,1.432,13.782,3.923,19.988,7.493
		c22.178,17.166,38.679,38.669,49.493,64.49c3.664,8.157,6.829,16.48,9.496,24.991c-5.978,9.257-12.475,18.245-19.49,26.983
		c-68.869,99.755-89.2,208.726-60.992,326.912c6.922,24.327,16.418,47.491,28.498,69.492c-17.84,36.49-39.676,70.303-65.486,101.479
		c-70.769,83.378-158.578,141.205-263.429,173.439c-72.046,20.32-145.035,24.658-218.948,13.015
		c-44.637-8.179-85.62-24.845-122.961-50.002c-21.296-15.276-37.455-34.767-48.487-58.471c-11.914-32.629-6.912-62.29,14.997-88.982
		c21.877-25.884,47.366-47.387,76.477-64.49c45.653-24.824,93.975-42.488,144.963-52.991c23.465-5.147,47.127-9.154,70.976-11.997
		c5.916-0.81,11.748-0.623,17.498,0.519c15.048,31.134,23.548,63.971,25.499,98.468c0.031,13.098-1.806,25.925-5.5,38.482
		c-0.416,0.457-0.914,0.789-1.505,0.996c-28.021-11.104-57.018-15.276-86.97-12.495c-16.573,2.2-30.065,9.714-40.495,22.5
		c-12.08,27.087-5.584,48.569,19.5,64.489c13.419,7.1,27.752,10.607,42.986,10.504c63.992-3.28,101.156-36.615,111.473-99.984
		c1.972-14.654,1.972-29.328,0-43.982c-9.559-52.015-28.883-100.004-57.993-143.966c-21.659-28.997-43.318-57.993-64.979-86.99
		c-26.869-38.067-49.866-78.397-68.983-120.968c-13.222-31.01-21.556-63.327-24.99-96.974c-0.664-17.996-0.664-35.991,0-53.987
		c3.186-18.203,11.021-34.02,23.496-47.47c4.493-2.428,8.832-5.085,12.993-8.012C259.742,58.234,266.737,56.74,273.815,56.263z"/>
</g>
<g>
	<path fill="#FEFFFE" d="M1680.432,212.226c8.551,1.702,12.89,7.037,13.014,16.003c-6.912-1.391-13.076-4.379-18.494-9.008
		c-0.685-0.997-0.685-1.993,0-2.989C1676.758,214.758,1678.584,213.43,1680.432,212.226z"/>
</g>
<g>
	<path fill="#41CAEA" d="M1083.604,493.163c0.436,0.063,0.747-0.104,0.996-0.498c-1.391-0.976-2.075-2.304-1.992-4.006
		c0.602-3.487,1.12-6.974,1.494-10.503c0.498-1.017,1.328-1.681,2.49-1.993c4.982,2.989,10.296,5.148,15.982,6.497
		c14.779,2.179,28.769-0.146,42.012-6.995c53.053-24.181,106.023-48.674,158.951-73.478c7.971-7.804,10.13-17.145,6.497-28
		c-3.259-9.839-8.074-18.847-14.509-26.983c-24.367-29.184-55.046-49.006-91.95-59.488c-62.353-8.261-103.823,17.249-124.476,76.466
		c-1.723,6.974-3.218,13.969-4.505,21.006c-4.794,0.602-9.465,1.598-13.989,2.989c2.034-17.436,6.85-34.103,14.488-49.981
		c28.664-50.396,71.816-71.568,129.478-63.473c40.932,10.71,75.097,32.214,102.453,64.469c8.967,11.291,15.318,23.953,19.013,38.005
		c3.882,16.999-1.286,30.491-15.505,40.475c-52.7,24.368-105.358,48.694-157.956,72.979c-7.182,3.072-14.508,5.729-21.98,8.012
		C1114.447,502.088,1098.756,500.261,1083.604,493.163z"/>
</g>
<g>
	<path fill="#FEFFFE" d="M1168.58,308.203c35.701-1.599,66.711,9.568,92.968,33.5c12.475,11.125,22.645,23.953,30.491,38.482
		c0.664,2.677,0.664,5.334,0,7.991c-6.477,4.068-13.306,7.576-20.508,10.502c-2.595,0.831-5.251,1.329-7.971,1.495
		c-47.365-9.755-95.209-16.086-143.468-18.992c-7.077,0.498-14.072,1.183-21.005,2.014c2.781-22.375,12.599-41.202,29.494-56.499
		C1140.496,317.356,1153.822,311.192,1168.58,308.203z"/>
</g>
<g>
	<path fill="#41CAEA" d="M1390.507,353.203c5.022,1.495,9.361,3.985,12.993,7.493c-6.974,36.614-26.651,63.95-58.969,81.967
		c-14.156,7.576-28.478,14.924-42.986,22.001c-35.825,15.733-71.464,31.737-106.979,47.989c-5.313,3.549-9.465,8.033-12.495,13.492
		c-2.698,11.894,2.138,17.581,14.488,17c9.091-0.415,17.768-2.595,25.987-6.497c48.092-22.687,96.392-45.021,144.962-66.981
		c17.145-4.691,25.8,1.806,26.008,19.49c-0.457,6.455-1.64,12.786-3.508,18.992c-6.726,20.237-15.401,39.562-25.987,57.993
		c-18.1,28.436-39.77,54.09-64.988,76.985c-2.885-3.528-6.393-6.206-10.481-8.012c32.836-28.706,58.657-62.705,77.462-101.976
		c6.062-12.371,10.254-25.385,12.496-38.98c0.415-4.546-1.578-7.203-5.979-7.991c-48.611,21.607-96.932,43.775-144.962,66.482
		c-12.329,6.186-25.323,8.531-39.001,6.995c-15.982-4.463-23.144-14.966-21.482-31.488c3.237-11.976,10.398-20.818,21.482-26.506
		c43.733-20.548,87.737-40.537,131.969-59.986c11.997-5.999,23.33-12.993,33.979-20.984
		C1375.521,403.163,1387.518,380.684,1390.507,353.203z"/>
</g>
<g>
	<path fill="#FEFFFE" d="M1420.521,370.182c10.544,2.366,19.386,7.7,26.485,16.003c6.766,11.582,3.611,19.075-9.507,22.5
		c-9.548,2.242-19.221,3.736-28.976,4.504c-1.682-0.332-2.678-1.349-3.01-3.01c3.279-4.213,5.791-8.884,7.493-13.99
		C1416.12,387.7,1418.632,379.044,1420.521,370.182z"/>
</g>
<g>
	<path fill="#41CAEA" d="M1219.558,421.18c-32.048-6.061-64.387-10.046-96.974-11.997c-40.268,0.623-78.584,9.444-114.97,26.485
		c-18.286,8.967-32.795,22.126-43.484,39.5c-10.648,23.393-9.651,46.391,2.989,68.973c4.939,8.199,10.606,15.879,16.999,22.998
		c22.832,21.151,43.816,43.817,62.995,67.977c10.482,12.994,17.81,27.668,21.981,44.004c4.587,35.639-8.24,63.141-38.482,82.465
		c-28.54,15.048-58.512,18.723-89.968,11c-28.021-7.016-54.683-17.331-79.985-30.988c-37.517-21.587-74.837-43.423-111.97-65.486
		c3.57-4.109,6.901-8.448,10.005-12.994c37.517,22.916,75.501,45.083,113.962,66.482c23.476,12.371,48.135,21.379,73.986,26.984
		c25.728,5.251,50.407,2.262,73.965-8.988c28.769-17.954,38.919-43.443,30.491-76.486c-5.147-12.289-11.789-23.601-19.988-33.979
		c-8.323-9.673-16.667-19.324-25.011-28.997c-21.151-18.515-39.479-39.499-54.963-62.995c-18.795-39.52-12.299-74.163,19.49-103.969
		c22.541-18.037,47.863-30.865,75.988-38.482c32.442-9.091,65.424-12.101,98.967-9.008c33.044,3.009,65.715,8.344,97.97,16.003
		c-0.83,1.017-1.162,2.18-0.996,3.508C1234.419,414.662,1226.76,417.34,1219.558,421.18z"/>
</g>
<g>
	<path fill="#36398A" d="M1219.558,421.18c-0.747,2.595-2.408,4.421-5.003,5.5c-10.481,5.583-21.15,10.565-31.985,14.986
		c-2.988,0.499-5.978,0.665-9.008,0.499c1.453-1.308,1.121-2.159-0.996-2.491c-25.489-10.357-51.476-12.35-77.961-5.999
		c-22.23,7.556-36.054,22.708-41.513,45.478c-1.412,24.077,6.767,44.231,24.492,60.484c17.27,15.297,35.908,28.624,56.001,39.998
		c37.402,19.884,74.391,40.537,110.963,61.979c37.61,23.642,69.451,53.447,95.479,89.48
		c33.418,55.481,42.426,114.823,26.983,177.965c-16.419,57.06-49.566,101.54-99.465,133.464
		c-79.891,49.773-166.881,70.426-260.928,61.978c-43.256-1.64-84.562-11.312-123.957-28.997
		c-47.698-23.828-92.355-52.16-133.972-84.976c-26.661-22.666-53.313-45.312-79.975-67.978
		c-31.445-29.619-62.435-59.758-92.978-90.477c-0.114-0.623-0.446-1.121-0.996-1.494c1.328-1.328,2.667-2.678,3.995-4.006
		c64.563-38.566,119.048-88.381,163.456-149.467c2.014-2.097,4.183-2.429,6.497-0.996c37.133,22.063,74.453,43.899,111.97,65.486
		c25.303,13.657,51.964,23.973,79.985,30.988c31.456,7.723,61.428,4.048,89.968-11c30.242-19.324,43.069-46.826,38.482-82.465
		c-4.172-16.336-11.499-31.01-21.981-44.004c-19.179-24.16-40.163-46.826-62.995-67.977c-6.393-7.119-12.06-14.799-16.999-22.998
		c-12.641-22.583-13.638-45.581-2.989-68.973c10.689-17.373,25.198-30.533,43.484-39.5c36.386-17.041,74.702-25.862,114.97-26.485
		C1155.171,411.134,1187.51,415.119,1219.558,421.18z"/>
</g>
<g>
	<path fill="#F6921D" d="M1110.587,415.181c31.134,0.021,61.791,3.529,91.971,10.502c-7.327,3.902-14.819,7.41-22.479,10.482
		c-25.406-11.396-51.912-14.903-79.497-10.482c-26.028,6.352-43.505,22.189-52.472,47.47c-3.778,16.917-1.412,32.92,6.995,47.989
		c5.375,9.071,11.893,17.228,19.489,24.493c19.304,16.314,39.978,30.657,61.979,43.007c39.749,20.674,78.75,42.675,116.983,65.985
		c20.735,15.297,40.226,32.13,58.491,50.479c45.124,51.145,63.141,110.797,53.966,178.961
		c-11.914,66.856-46.41,118.332-103.47,154.448c-79.352,49.13-165.656,69.14-258.936,59.985
		c-51.974-2.49-100.627-16.5-145.948-41.989c-36.697-21.67-72.024-45.332-105.972-70.987c-27.325-23.309-54.651-46.66-81.977-69.969
		c-29.37-27.046-57.692-55.047-84.977-83.98c30.574-19.802,59.57-41.803,86.979-65.984c26.298-23.974,50.116-50.127,71.475-78.48
		c1.391-1.723,3.062-3.051,5.002-4.006c35.535,21.172,71.36,42.012,107.477,62.498c32.764,18.576,67.759,30.574,104.954,35.991
		c30.512,3.03,58.18-4.296,82.983-22.001c37.009-33.377,42.82-71.527,17.498-114.472c-9.942-14.198-20.611-27.876-32.006-40.994
		c-18.411-17.415-35.743-35.742-51.975-54.983c-25.769-43.609-16.958-78.438,26.485-104.467
		C1037.233,427.178,1072.893,417.36,1110.587,415.181z"/>
</g>
<g>
	<path fill="#41CAEA" d="M1173.562,442.165c-5.21,2.2-10.378,4.545-15.484,7.016c-19.864-6.954-40.019-7.784-60.484-2.512
		c-16.314,4.981-26.484,15.816-30.491,32.484c-1.723,9.963-0.062,19.303,5.003,28c9.07,15.069,20.901,27.585,35.493,37.486
		c36.469,23.766,74.474,45.104,113.952,63.992c28.665,16.666,55.669,35.658,80.991,56.976
		c73.852,66.296,100.004,148.097,78.48,245.444c-10.067,36.115-27.378,68.121-51.995,95.977
		c-36.013,36.738-77.836,64.553-125.451,83.482c-67.126,25.343-136.452,34.331-207.958,26.983
		c-30.429-2.388-60.079-8.386-88.972-17.996c-57.329-22.313-109.646-52.804-156.96-91.474
		c-30.003-21.836-58.336-45.685-84.977-71.484c-1.328-0.664-2.667-1.328-3.995-1.992c-31.768-31.114-63.598-62.27-95.479-93.487
		c2.304-4.109,5.802-7.119,10.503-8.987c30.543,30.719,61.532,60.857,92.978,90.477c26.662,22.666,53.313,45.312,79.975,67.978
		c41.616,32.815,86.273,61.147,133.972,84.976c39.396,17.686,80.701,27.357,123.957,28.997
		c94.047,8.448,181.037-12.204,260.928-61.978c49.898-31.924,83.046-76.404,99.465-133.464
		c15.442-63.142,6.435-122.483-26.983-177.965c-26.028-36.033-57.869-65.839-95.479-89.48
		c-36.572-21.441-73.561-42.095-110.963-61.979c-20.093-11.374-38.731-24.7-56.001-39.998
		c-17.726-16.252-25.904-36.407-24.492-60.484c5.459-22.77,19.282-37.922,41.513-45.478c26.485-6.351,52.472-4.358,77.961,5.999
		C1174.683,440.006,1175.015,440.856,1173.562,442.165z"/>
</g>
<g>
	<path fill="#FEFFFE" d="M1112.579,460.16c3.674,0,7.348,0,11.001,0c0.166,1.328-0.166,2.491-0.996,3.508
		c-3.84,1.183-7.846,1.183-11.997,0C1111.396,462.547,1112.061,461.385,1112.579,460.16z"/>
</g>
<g>
	<path fill="#41CAEA" d="M368.786,533.14c-36.137,2.345-71.786,7.846-106.968,16.501c-48.414,11.146-94.067,29.143-136.961,53.987
		c-25.873,15.858-48.704,35.368-68.485,58.491c-26.392,30.471-32.058,64.449-17,101.977c12.464,24.783,30.293,44.958,53.489,60.483
		c31.54,20.093,65.528,34.746,101.977,43.983c95.821,18.971,189.464,11.312,280.927-22.998
		c130.484-52.348,228.465-140.5,293.92-264.437c3.113,3.466,5.438,7.473,6.995,11.997
		c-35.244,67.687-82.237,125.846-140.957,174.457c-47.075,37.195-98.395,67.188-153.96,89.979
		c-50.074,18.432-101.727,29.766-154.967,34c-65.081,5.354-128.066-3.633-188.945-27.005c-24.046-11.52-47.033-24.845-68.983-39.977
		c-10.896-10.233-21.057-21.067-30.491-32.505c-14.519-20.881-22.687-44.045-24.493-69.471c1.889-21.275,8.718-40.766,20.497-58.492
		c5.708-6.725,11.042-13.719,15.992-20.984c41.959-42.592,91.442-73.415,148.46-92.49c52.14-18.39,105.795-29.391,160.955-32.982
		C363.441,522.471,366.44,527.639,368.786,533.14z"/>
</g>
<g>
	<path fill="#FEFFFE" d="M788.677,615.127c1.059-0.146,2.055,0.021,2.999,0.498c40.465,51.393,92.106,86.035,154.967,103.969
		c22.801,5.521,45.799,9.859,68.963,12.993c-0.664,1.017-1.328,2.014-1.992,3.01c-16.813,7.971-34.497,10.628-52.991,7.991
		c-12.869-2.055-25.53-5.044-37.974-8.987c-18.017-7.182-35.681-15.173-52.991-23.995c-33.169-19.988-66.493-39.811-99.973-59.486
		c-0.872-1.973-0.706-3.965,0.498-5.999C776.638,635.198,782.803,625.193,788.677,615.127z"/>
</g>
<g>
	<path fill="#FEFFFE" d="M310.804,702.096c17.674,0.104,35.005,2.615,51.983,7.514c1.007,0.996,2.004,1.993,3,2.989
		c-2.097,2.781-4.764,4.774-7.991,5.999c-18.286,6.787-36.946,8.115-55.99,4.006c-7.504-2.865-10.337-8.033-8.5-15.506
		C298.879,704.109,304.711,702.449,310.804,702.096z"/>
</g>
</svg>
