<?xml version="1.0" encoding="utf-8"?>
<!-- Generator: Adobe Illustrator 12.0.0, SVG Export Plug-In . SVG Version: 6.00 Build 51448)  -->
<!DOCTYPE svg PUBLIC "-//W3C//DTD SVG 1.1//EN" "http://www.w3.org/Graphics/SVG/1.1/DTD/svg11.dtd">
<svg xmlns="http://www.w3.org/2000/svg" viewBox="0 0 384 384.061" overflow="visible">
<path fill="#DC143C" d="M212.58,270.516c0,11.437-9.288,20.725-20.724,20.725c-11.484,0-20.76-9.288-20.76-20.725
	c0-11.436,9.276-20.724,20.76-20.724C203.292,249.792,212.58,259.08,212.58,270.516 M165.792,92.16c-1.164,0-2.1,1.596-2.1,3.468
	l9.564,129.984c0,1.872,0.984,3.42,2.1,3.42c0,0,7.596,0.144,13.836,0c2.064,0,2.664,0.191,4.548,0c6.228,0.144,13.775,0,13.775,0
	c1.177,0,2.112-1.548,2.112-3.42l9.612-129.984c0-1.872-0.984-3.192-2.112-3.192h-23.256c-0.096,0-0.048-0.276-0.132-0.276H165.792z
	"/>
<path fill="#DC143C" d="M384,192.06c0-119.302-96.698-192-192-192c-105.968,0-192,86.032-192,192c0,105.967,86.032,192,192,192
	S384,298.027,384,192.06 M348,192.06c0,86.098-69.901,156-156,156c-86.099,0-156-69.902-156-156c0-86.099,69.901-156,156-156
	C278.099,36.06,348,105.961,348,192.06"/>
</svg>
