<?xml version="1.0" encoding="utf-8"?>
<!DOCTYPE svg PUBLIC "-//W3C//DTD SVG 1.1//EN" "http://www.w3.org/Graphics/SVG/1.1/DTD/svg11.dtd">
<svg xmlns="http://www.w3.org/2000/svg" viewBox="0 -0.1 97.5 98.1" overflow="visible">
<radialGradient id="EXAMPLES_GRAD1" cx="47.75" cy="280" r="49" gradientTransform="matrix(1 0 0 -1 0 330.001)" gradientUnits="userSpaceOnUse">
     <stop  offset="0"     style="stop-color:#FFFFFF"/>
     <stop  offset="0.195" style="stop-color:#F7F8F8"/>
     <stop  offset="0.38"  style="stop-color:#E1E3E6"/>
     <stop  offset="0.56"  style="stop-color:#BEC2C8"/>
     <stop  offset="0.707" style="stop-color:#979FA8"/>
     <stop  offset="0.83"  style="stop-color:#707A87"/>
     <stop  offset="0.85"  style="stop-color:#697481"/>
     <stop  offset="0.98"  style="stop-color:#374658"/>
     <stop  offset="0.996" style="stop-color:#314052"/>
     <stop  offset="1"     style="stop-color:#2F3E51"/>
</radialGradient>
<path fill="url(#EXAMPLES_GRAD1)" d="M94.5,50c0,25.178 -20.411,45.592 -45.589,45.592c-25.178,0 -45.595,-20.414 -45.595,-45.592c0,-25.181 20.417,-45.593 45.595,-45.593c25.178,-0 45.589,20.412 45.589,45.593"/>
<g>
	<path fill="#FFBF00" d="M43.325,58.528c-8.31,3.766-6.749,10.847-9.634,15.694c3.474-4.479,10.764-5.141,11.621-14.345
		C44.724,59.509,43.891,58.895,43.325,58.528z"/>
	
		<radialGradient id="EXAMPLES_GRAD2" cx="36.0337" cy="42.3748" r="13.7178" gradientTransform="matrix(1.0194 0 0 -1.0194 5.2976 105.5092)" gradientUnits="userSpaceOnUse">
		<stop  offset="0" style="stop-color:#FFFFFF"/>
		<stop  offset="0.1053" style="stop-color:#FFFAEC"/>
		<stop  offset="0.3189" style="stop-color:#FFEEBB"/>
		<stop  offset="0.622" style="stop-color:#FFDA6C"/>
		<stop  offset="1" style="stop-color:#FFBF00"/>
	</radialGradient>
	<path fill="url(#EXAMPLES_GRAD2)" d="M42.762,59.897c-6.873,1.771-6.876,10.862-8.887,14.239c2.422-3.121,10.996-6.578,10.271-13.299
		C43.736,60.582,43.154,60.155,42.762,59.897z"/>
	
		<radialGradient id="EXAMPLES_GRAD3" cx="36.3389" cy="42.7791" r="7.8904" gradientTransform="matrix(1.0194 0 0 -1.0194 5.2976 105.5092)" gradientUnits="userSpaceOnUse">
		<stop  offset="0" style="stop-color:#FFFFFF"/>
		<stop  offset="0.2423" style="stop-color:#FFFAEC"/>
		<stop  offset="0.7304" style="stop-color:#FFEEBC"/>
		<stop  offset="1" style="stop-color:#FFE79E"/>
	</radialGradient>
	<path fill="url(#EXAMPLES_GRAD3)" d="M41.813,61.517c-4.821,3.809-4.907,7.754-6.343,10.166c1.729-2.229,5.818-3.951,7.332-9.494
		C42.51,62.005,42.095,61.7,41.813,61.517z"/>
	<path fill="#F55B31" stroke="#000000" stroke-width="0.25" d="M53.197,64.461c-0.537,0.422-1.838,1.047-3.111,0.313
		c-1.271-0.734-1.455-2.271-1.141-2.816c1.123,0.166,2.356,0.353,2.356,0.353S52.24,63.356,53.197,64.461z"/>
	<path fill="#F55B31" stroke="#000000" stroke-width="0.25" d="M48.927,61.828c0.186,1.74,2.899,3.111,4.345,2.577
		c1.063-1.056,3.018-4.381,2.891-8.432C54.357,56.472,49.313,59.012,48.927,61.828z"/>
	<path fill="#F55B31" stroke="#000000" stroke-width="0.25" d="M56.086,57.595c-2.355,1.227-3.658,2.12-6.441,5.402
		c0.293-1.08,0.22-2.311-0.203-3.285c1.178-1.154,5.178-4.474,6.111-5.873C56.271,54.963,56.187,56.221,56.086,57.595z"/>
	<path fill="#F55B31" stroke="#000000" stroke-width="0.25" d="M29.729,51.042c-1.016,1.191-4.014,4.656-5.375,6.388
		c-0.322,3.709,4.188,4.252,5.688,1.086c1.859-1.473,8.351-2.294,11.64-1.46c0.496-1.522,2.871-6.749,3.682-8.052
		C42.159,48.209,35.01,48.276,29.729,51.042z"/>
	<path fill="#F55B31" stroke="#000000" stroke-width="0.25" d="M65.734,29.616c0,0-5.672,1.324-9.123,2.175
		c-2.461,2.134-4.604,4.685-6.393,7.53c-2.414,3.841-4.482,7.83-6.086,11.218c0.084,2.601,3.192,9.038,3.192,9.038
		s3.571-1.362,5.928-2.816c4.274-4.184,9.345-9.533,11.397-13.168c0.916-1.623,1.711-3.169,2.279-4.461
		C66.402,34.72,65.734,29.616,65.734,29.616z"/>
	<path fill="#F55B31" stroke="#000000" stroke-width="0.25" d="M24.353,57.438c0.553,2.854,4.694,2.992,5.688,1.077
		c0.461-1.38,0.479-6.552-0.313-7.474C27.924,51.538,24.739,54.622,24.353,57.438z"/>
	<path fill="#F4F4F4" stroke="#000000" stroke-width="0.25" d="M51.375,43.603c-0.869,1.223-1.723,2.576-2.443,3.712
		c1.383,2.061,2.768,3.032,5.33,3.77c1.002-1.148,1.929-2.283,2.783-3.401C55.189,47.345,52.347,45.621,51.375,43.603z"/>
	<path fill="#F4F4F4" stroke="#000000" stroke-width="0.25" d="M46.986,50.511c-0.869,1.223-1.399,2.164-2.121,3.297
		c1.121,2.047,2.033,2.519,4.228,3.357c0.957-1.172,1.656-2.02,2.595-3.161C49.833,53.667,47.959,52.527,46.986,50.511z"/>
	<path fill="#F4F4F4" stroke="#000000" stroke-width="0.25" stroke-linejoin="bevel" d="M54.229,51.098
		c-1.031,1.27-1.637,1.877-2.541,2.908c1.915,0.257,3.131,0.074,4.806-0.539c1.043-1.081,1.61-1.702,2.706-2.836
		C57.579,51.182,56.162,51.353,54.229,51.098z"/>
	<path fill="#F4F4F4" stroke="#000000" stroke-width="0.25" stroke-linejoin="bevel" d="M60.048,43.811
		c-1.03,1.271-2.114,2.861-3.015,3.892c1.912,0.258,3.575,0.093,5.184-0.643c0.625-0.737,2.209-3.057,2.652-3.867
		C63.127,43.807,61.981,44.068,60.048,43.811z"/>
	<path fill="#F4F4F4" stroke="#000000" stroke-width="0.25" d="M57.564,35.116c-0.848,0.919-2.654,3.319-3.391,4.395
		c1.531,2.386,2.691,3.304,5.875,4.3c0.924-1.151,2.507-3.777,2.984-4.854C61.604,38.554,58.438,36.875,57.564,35.116z"/>
	<path fill="#F55B31" stroke="#000000" stroke-width="0.25" d="M68.945,25.455c-4.66,1.007-8.854,3.315-12.334,6.336
		c-1.164,5.571,5.733,9.508,10.313,7.34C69.259,33.82,69.26,30.33,68.945,25.455z"/>
	<path fill="#F4F4F4" stroke="#000000" stroke-width="0.25" stroke-linejoin="bevel" d="M53.492,34.898
		c-0.963,1.171-2.192,2.73-2.963,3.951c-0.089,1.944,0.045,2.81,0.855,4.801c0.898-1.322,1.93-2.795,2.806-4.169
		C53.492,38.027,53.289,37.034,53.492,34.898z"/>
	<path fill="#F4F4F4" stroke="#000000" stroke-width="0.25" stroke-linejoin="bevel" d="M48.221,42.697
		c-0.76,1.374-1.386,2.54-2.012,3.731c0.037,1.607,0.221,2.908,0.773,4.098c0.822-1.325,1.141-1.841,1.976-3.24
		C48.461,46.231,47.865,44.905,48.221,42.697z"/>
	<path fill="#F55B31" stroke="#000000" stroke-width="0.25" stroke-linejoin="bevel" d="M44.583,49.581
		c-2.11,4.461-3.737,8.505-3.737,8.505c-0.393,3.338,2.305,5.606,5.545,4.576c0,0,3.199-2.319,6.936-5.976
		C50.654,58.176,44.025,55.988,44.583,49.581z"/>
	<path fill="none" stroke="#000000" stroke-width="0.25" stroke-linejoin="bevel" d="M68.609,25.648"/>
	<path fill="#F55B31" stroke="#000000" stroke-width="0.25" d="M42.736,76.92c-1.332,3.574-2.406,6.334-2.695,7.056
		c-3.417,2.09-6.78-1.691-4.62-4.784c1.245-0.638,3.854-1.177,3.854-1.177s4.743-12.684,5.007-15.561
		c1.179-1.153,4.319-4.441,5.252-5.842C47.792,63.853,44.355,73.106,42.736,76.92z"/>
	<path fill="#F55B31" stroke="#000000" stroke-width="0.25" d="M35.324,79.192c-0.418,3.339,2.406,5.4,4.835,4.812
		c1.472-0.811,3.093-5.497,2.651-7.51C40.601,76.199,36.576,76.764,35.324,79.192z"/>
</g>
<path fill="#40C296" d="M48.516,0.375c-3.134,0.356-6.34,1.026-9.53,1.991c-2.545,0.77-5.154,1.756-7.755,2.931l-0.542,0.207
	l-0.65,0.271l-0.618,0.279l-0.414,0.181l-0.811,0.369c-1.458,0.725-3.153,1.604-4.778,2.679l-1.019,0.624
	C8.148,19.151,0.254,34.684,0.254,50.466c0,7.8,1.928,15.66,5.969,22.854l0.484,0.823c-0.004-0.007,1.317,2.071,1.317,2.071
	l0.433,0.657c2.58,3.728,5.217,6.278,8.15,8.997l1.226,1.154c3.402,3.027,7.195,5.447,11.284,7.203
	c-0.014-0.006,2.245,0.902,2.245,0.902l0.816,0.302c3.874,1.322,7.582,2.045,12.035,2.347c0.011,0.005,2.03,0.147,2.03,0.147
	l0.851,0.031l1.217,0.006l0.516-0.009c3.084-0.073,6.367-0.55,9.246-1.341l0.291-0.074c1.938-0.537,3.859-1.208,5.723-1.998
	l2.285-0.95c3.719-1.635,7.391-3.835,10.912-6.536l1.563-1.254l0.926-0.804c-0.008,0.007,1.666-1.517,1.666-1.517l0.752-0.705
	c0.012-0.011,2.727-2.885,2.727-2.885c0.002-0.001,4.352-4.292,4.352-4.292l0.551-0.647c1.477-1.87,2.256-4.099,3.01-6.254
	c0,0,0.08-0.228,0.158-0.451c1.764,1.009,3.027,1.471,3.713,1.326l0.115-0.024l0.799-0.647l-0.535-1.574l-1.143-1.218
	c-0.018-0.018-0.936-0.788-1.42-1.195c0.035-0.084,0.078-0.184,0.078-0.184s0.098-0.242,0.154-0.383
	c0.154-0.121,0.895-0.709,0.895-0.709s-0.172-1.213-0.197-1.387c0.043-0.146,0.166-0.572,0.166-0.572
	c0.014-0.049,0.381-1.91,0.381-1.91l0.074-0.415c0.004-0.023,0.16-2.895,0.16-2.895l-0.113-1.382
	c-0.107-0.952-0.357-1.769-0.563-2.375l-0.385-0.905l-0.506-0.812l-1.059-1.115c-0.871-0.63-1.766-0.821-2.588-0.602
	c-0.818,0.209-1.461,0.787-1.809,1.625l-0.186,0.576c-0.082,0.354-0.119,0.719-0.119,1.089c0,2.485,1.676,5.251,2.539,6.675
	l0.371,0.62c0.01,0.012,1.439,2.131,1.439,2.131s0.221,0.322,0.342,0.499c-0.049,0.15-0.072,0.226-0.123,0.387
	c-3.348-0.403-4.34-0.151-4.813,0.438l-0.084,0.104l-0.148,0.986l0.035,0.111c0.168,0.505,0.611,1.026,1.439,1.691
	c0,0,1.029,0.726,1.58,1.114c-0.193,0.333-2.23,3.944-2.23,3.944c-1.23,1.928-2.541,3.774-3.891,5.483
	c0.006-0.008-1.695,1.994-1.695,1.994c-2.137,2.024-4.178,3.84-6.211,5.518c-1.918,1.565-3.898,3.021-5.883,4.323
	c-2.289,1.504-4.414,2.702-6.496,3.664l-1.641,0.732c-2.947,1.135-6.113,1.996-9.396,2.551l-0.609,0.086l-2.033,0.272l-0.352,0.026
	l-0.625,0.054c0.006-0.001-0.303,0.022-0.303,0.022l-2.118,0.105l-0.787,0.018c-0.009,0-2.394-0.032-2.394-0.032l-0.668-0.026
	c-0.052-0.003-1.728-0.236-1.728-0.236c-2.65-0.451-5.175-1.208-7.496-2.25l-1.266-0.563l-0.634-0.269l-0.468-0.204l-0.989-0.396
	l-0.437-0.163l-0.369-0.154c-0.012-0.005-1.627-0.543-1.627-0.543l-0.11-0.043c-4.712-1.913-10.958-5.537-14.315-9.953l-0.271-0.332
	c-1.352-1.723-2.597-3.62-3.695-5.633c-1.461-2.771-2.566-5.71-3.28-8.729c-0.001-0.003-0.707-3.89-0.707-3.89l-0.169-1.81
	c-0.077-1.535-0.134-3.197-0.017-4.812l0.062-0.809l0.194-1.944l0.156-1.282c-0.001,0.009,0.434-2.566,0.434-2.566l0.601-3.861
	l0.041-0.391c0.037-0.346,0.056-0.69,0.056-1.036c0-0.653-0.066-1.313-0.198-1.994l-0.466-1.389
	c-0.696-1.643-1.949-2.903-3.084-3.962c-0.021-0.037-0.051-0.093-0.1-0.182c0.216-0.217,0.471-0.472,0.471-0.472
	c0.498-0.308,1.153-0.729,1.306-1.521l0.018-0.092c0,0-0.083-0.453-0.132-0.718c0.25-0.224,0.722-0.647,0.722-0.647
	c1.049-1.07,1.987-2.302,2.892-3.787l0.253-0.434c0.003-0.006,0.188-0.33,0.188-0.33l1.136-2.102
	c-0.013,0.023,0.791-1.505,0.791-1.505l0.193-0.389c-0.005,0.01,0.203-0.383,0.203-0.383c0.757-1.439,1.541-2.926,2.436-4.302
	c0,0,0.75-1.152,0.75-1.152c0.001,0,1.12-1.513,1.12-1.513c1.698-2.162,3.563-3.883,5.54-5.109c2.873-1.829,5.719-3.42,8.463-4.731
	l1.302-0.606l1.215-0.466l0.373-0.134l0.207-0.064c3.025-1.035,6.3-1.819,9.747-2.335c3.117-0.459,6.28-0.589,9.405-0.385
	c2.908,0.192,5.807,0.672,8.613,1.425c0.004,0.002,3.85,1.224,3.85,1.224s0.225,0.09,0.33,0.131c-0.08,0.03-0.986,0.379-0.986,0.379
	l-0.879,0.447c-0.904,0.555-1.408,1.125-1.525,1.713l-0.021,0.106l0.201,0.862l0.064,0.083c0.268,0.355,0.688,0.585,1.453,0.794
	l1.031,0.171l0.646,0.058l0.307,0.033l0.354,0.031c0.008,0,1.666,0.078,1.666,0.078c0.043,0.005,0.127,0.01,0.127,0.01l1.912,0.098
	l2.77,0.193l1.586,0.176l1.01,0.106c0,0,0.164,0.023,0.279,0.04c0.168,0.122,1.189,0.862,1.189,0.862s0.615,0.502,0.697,0.57
	c0.063,0.083,0.414,0.554,0.414,0.554l0.689,0.967l0.797,0.933l1.041,0.858l1.27,0.576c0,0,0.043,0.014,0.078,0.026
	c0.061,0.067,1.314,1.441,1.314,1.441l0.305,0.352c0,0,0.988,1.212,1,1.228c0.045,0.142,0.652,2.083,0.652,2.083
	s0.184-0.442,0.338-0.814c1.246,1.59,2.42,3.273,3.467,5.052l0.734,1.278l0.123,0.247l0.107,0.182l0.295,0.587
	c0,0,0.223,0.433,0.273,0.529c0.023,0.107,0.781,3.731,0.781,3.731c0.008,0.04,0.146,0.727,0.146,0.727l0.609,2.86
	c0-0.001,0.5,1.893,0.5,1.893c-0.002-0.011,0.629,1.845,0.629,1.845l0.359,0.863l0.432,0.903l0.498,0.888l0.139,0.227
	c0,0,0.215,0.343,0.301,0.481c0.219,1.694,0.352,3.364,0.377,4.959l0.057,2.652l1.502-2.189l0.26-0.479l0.381-1.27
	c0.039-0.308,0.057-0.6,0.057-0.881c0-0.396-0.037-0.771-0.104-1.138l-0.129-0.55l-0.225-0.619c0,0-0.482-0.952-0.537-1.059
	c-0.488-3.474-1.365-6.928-2.619-10.268l-0.57-1.455l-0.176-0.423l-0.828-1.828l-0.256-0.51l-0.047-0.22
	c-0.299-1.27-0.719-2.633-1.25-4.04c-0.006-0.018-0.855-1.922-0.855-1.922c-0.016-0.033-1.068-1.837-1.068-1.837
	c-0.682-1.027-1.441-1.903-2.256-2.647c0.033-0.391,0.123-1.455,0.123-1.455c-0.025-1.087-0.273-2.185-0.738-3.27l-0.809-1.432
	c-1.182-1.774-2.92-3.234-5.186-4.37l-0.176-0.086c-0.006-0.002-1.648-0.702-1.648-0.702c-0.01-0.004-1.711-0.523-1.711-0.523
	l-0.838-0.209c0,0-0.502-0.09-0.625-0.112c-2.285-1.449-4.805-2.646-7.502-3.547c-2.92-0.984-6.039-1.629-9.266-1.915
	C55.033-0.064,51.785-0.011,48.516,0.375z M6.977,29.382c1.254-2.407,2.702-4.659,4.292-6.77c-0.379,0.71-0.768,1.421-1.132,2.122
	l-0.533,1.023c-0.021,0.036-1.284,2.37-1.284,2.37l-0.246,0.415c-0.506,0.813-1.185,1.735-1.96,2.64
	C6.324,30.743,6.977,29.382,6.977,29.382z M6.483,70.187l-0.098-0.203l-0.876-1.917l-0.864-2.178
	c-1.819-4.935-2.734-10.211-2.734-15.514c0-4.017,0.578-8.039,1.632-11.952c0.967,0.936,1.846,1.873,2.338,3.024l0.38,1.128
	c0.098,0.522,0.148,1.049,0.148,1.575c0,0.291-0.016,0.582-0.047,0.871l-0.042,0.425c0,0-0.583,3.702-0.583,3.702L5.29,51.796
	l-0.155,1.283l0,0c0,0.006-0.215,2.17-0.215,2.17l-0.053,0.693c-0.046,0.665-0.069,1.386-0.069,2.172
	c0,0.877,0.029,1.837,0.086,2.893l0.186,1.883c0.134,1.016,0.352,2.525,0.727,4.081c0.363,1.54,0.833,3.063,1.393,4.561
	C6.937,71.053,6.483,70.187,6.483,70.187z M91.637,50.89c0.164,0.059,0.76,0.276,0.916,0.333c0.129,0.134,0.76,0.782,0.76,0.782
	l0.33,0.559l0.309,0.738c0.164,0.469,0.377,1.145,0.461,1.944l0.104,1.3c-0.002-0.027-0.135,2.555-0.135,2.555l-0.066,0.396
	c0,0-0.078,0.385-0.16,0.79c-0.336-0.507-0.887-1.336-0.887-1.336l-0.379-0.604l-0.342-0.578l-0.617-1.082l-0.457-0.955
	l-0.389-0.886l-0.25-0.764l-0.125-0.519l-0.039-0.179l-0.066-1.136l0.072-0.404c0,0,0.039-0.109,0.072-0.206
	c0.129-0.12,0.631-0.586,0.795-0.737C91.588,50.896,91.596,50.895,91.637,50.89z M92.059,64.436c0.021,0.055,0.189,0.475,0.27,0.675
	c-0.016,0.039-0.039,0.089-0.039,0.089s-0.174,0.447-0.186,0.478c-0.479-0.342-1.137-0.812-1.137-0.812
	c-0.25-0.199-0.414-0.351-0.543-0.479C90.738,64.366,91.227,64.368,92.059,64.436z M93.785,66.523
	c0.328,0.277,0.551,0.466,0.74,0.627c-0.248-0.129-0.531-0.29-0.822-0.457C93.742,66.615,93.744,66.609,93.785,66.523z
	 M58.014,1.917c3.102,0.28,6.088,0.898,8.875,1.838c1.361,0.454,2.666,1.018,3.938,1.63c-0.457,0.018-1.092,0.042-1.092,0.042
	s-1.031,0.12-1.252,0.146c-0.178-0.079-0.674-0.3-0.674-0.3L65.92,4.532c-0.01-0.004-4.008-1.282-4.008-1.282
	c-2.828-0.76-5.746-1.237-8.678-1.446C54.848,1.771,56.449,1.779,58.014,1.917z M64.652,8.559l0.713-0.369l0.883-0.338l1.076-0.324
	c0,0,0.689-0.141,0.922-0.188c0.223,0.102,1.012,0.46,1.012,0.46l1.973,1.029c0,0,0.904,0.526,1.313,0.764
	c-0.58-0.043-1.592-0.118-1.592-0.118L70.07,9.421c-0.01,0-1.863-0.101-1.863-0.101l-0.164-0.011
	c-0.021-0.001-1.619-0.076-1.619-0.076l-0.303-0.029L65.76,9.175l-0.563-0.059c0,0-0.686-0.11-0.795-0.129
	c-0.029-0.013-0.117-0.052-0.215-0.095C64.301,8.797,64.434,8.69,64.652,8.559z M81.381,14.132
	c-0.426-0.532-0.998-0.976-1.551-1.405l-1.166-0.996l-0.34-0.399l-0.488-0.483l-0.072-0.036c-0.973-0.477-1.881-1.083-2.842-1.727
	c-0.924-0.618-1.879-1.258-2.893-1.765c0,0-0.299-0.155-0.465-0.241c0.982,0.008,1.904,0.083,2.771,0.236
	c0.127,0.083,0.373,0.246,0.373,0.246c2.838,1.91,5.197,4.264,6.977,6.871C81.582,14.332,81.381,14.132,81.381,14.132z
	 M79.006,8.788c2.018,0.979,3.635,2.271,4.678,3.814l0.709,1.245c0.346,0.824,0.545,1.708,0.566,2.574c0,0-0.008,0.125-0.01,0.173
	c-0.01-0.007-0.031-0.021-0.037-0.025C83.545,13.72,81.525,11.076,79.006,8.788z M85.092,18.322
	c-0.107,0.076-0.174,0.122-0.223,0.157c-0.023-0.072-0.027-0.085-0.047-0.152C84.877,18.326,84.963,18.324,85.092,18.322z"/>
</svg>
