<?xml version="1.0" encoding="utf-8"?>
<!-- Generator: Adobe Illustrator 12.0.0, SVG Export Plug-In . SVG Version: 6.00 Build 51448)  -->
<!DOCTYPE svg PUBLIC "-//W3C//DTD SVG 1.1//EN" "http://www.w3.org/Graphics/SVG/1.1/DTD/svg11.dtd" [
	<!ENTITY ns_svg "http://www.w3.org/2000/svg">
	<!ENTITY ns_xlink "http://www.w3.org/1999/xlink">
]>
<svg  version="1.1" id="Layer_1" xmlns="&ns_svg;" xmlns:xlink="&ns_xlink;" width="95.502" height="98.185"
	 viewBox="0 0 95.502 98.185" overflow="visible" enable-background="new 0 0 95.502 98.185" xml:space="preserve">
<path fill="#2F3E51" d="M95.221,52.285c0,25.351-20.549,45.899-45.896,45.899S3.422,77.636,3.422,52.285S23.977,6.386,49.324,6.386
	S95.221,26.935,95.221,52.285L95.221,52.285z"/>
<path fill="#40C296" d="M48.838,1.622c0.984,0,1.968,0.032,2.953,0.094c2.953,0.193,5.906,0.68,8.766,1.45
	c1.436,0.375,2.789,0.841,3.926,1.251l1.846,0.727l0.791,0.357l1.33-0.167l1.529-0.059l0.797,0.012l0.088,0.003l0.738,0.041
	l0.064,0.009c-1.834-1.04-3.803-1.916-5.889-2.616c-2.807-0.943-5.807-1.564-8.918-1.843c-3.006-0.27-6.141-0.22-9.322,0.146
	c-2.496,0.29-5.027,0.776-7.547,1.453c0.732-0.138,1.471-0.261,2.215-0.369C44.391,1.783,46.612,1.622,48.838,1.622L48.838,1.622z
	 M67.025,6.236l-1.119,0.226l-1.102,0.331l-0.926,0.363l-0.732,0.375c-0.639,0.39-0.896,0.712-0.932,0.885l0.023,0.094l0.779,0.343
	l0.873,0.146l0.568,0.05l0.352,0.029l0.316,0.029c0.475,0.035,0.996,0.062,1.605,0.079l0.076,0.006
	c0.568,0.035,1.219,0.076,1.934,0.105l0.861,0.053l0.316,0.023l1.746,0.129l0.955,0.1l0.527,0.059l0.094,0.009l-0.926-0.604
	l-0.533-0.328l-1.635-0.955l-1.98-1.025L67.025,6.236L67.025,6.236z M81.088,15.26l0.932,0.381c-1.846-3.48-4.734-6.63-8.385-9.085
	l-0.469-0.308l-0.041-0.009L71.531,6.04l-0.686-0.041l-0.094-0.003l-0.768-0.009L68.52,6.04l-0.176,0.018l0.141,0.064L70.5,7.165
	l1.641,0.958l0.574,0.354l1.676,1.099l0.41,0.299l1.377,0.75l0.404,0.393l0.352,0.419l0.111,0.144l0.504,0.404l0.176,0.144
	l0.34,0.284l1.576,1.415l1.412,1.403L81.088,15.26L81.088,15.26z M83.109,16.235l0.85,0.586l0.07-1.084
	c-0.029-0.923-0.24-1.857-0.633-2.78l-0.721-1.266l-0.445-0.612l-0.451-0.519l-0.047-0.047L80.59,9.438l-1.313-0.926L78.58,8.088
	l-0.563-0.287l-0.17-0.082l-1.529-0.653l-1.295-0.401C78.609,9.298,81.404,12.608,83.109,16.235L83.109,16.235z M82.301,16.581
	l0.305,0.34l0.07,0.076l-0.117-0.27L82.301,16.581L82.301,16.581z M83.648,17.478l0.117,0.302l0.047-0.173L83.648,17.478
	L83.648,17.478z M84.176,18.816c1.588,1.928,3.029,3.99,4.295,6.141l0.047,0.073l-0.393-1.084c-0.27-0.653-0.533-1.251-0.809-1.822
	c-0.316-0.592-0.65-1.163-0.99-1.696c-0.574-0.873-1.219-1.641-1.922-2.297L84.176,18.816L84.176,18.816z M4.764,30.494L4.16,31.927
	l-0.105,0.255l-0.146,0.343l0.047-0.035l1.102-0.973l0.492-0.524l0.24-0.278l0.24-0.278l0.873-1.157l0.205-0.313l0.217-0.319
	l0.404-0.627l0.24-0.419c0.428-0.747,0.879-1.523,1.277-2.347l0.006-0.018l0.773-1.474l0.193-0.384l0.129-0.249l0.076-0.138
	l0.826-1.559l0.275-0.483l0.176-0.311l0.691-1.21l0.252-0.39l0.264-0.416l0.762-1.172l0.305-0.428l-0.018,0.021l-0.188,0.188
	l-0.346,0.357l-1.33,1.468l-0.152,0.179l-0.094,0.111l-0.996,1.213l-0.094,0.108l-0.152,0.188l-1.172,1.567L9.111,22.88
	l-0.117,0.176l-0.879,1.301L7.852,24.77l-0.146,0.24l-0.814,1.339l-0.486,0.891l-0.258,0.472l-0.369,0.68L4.764,30.494L4.764,30.494
	z M3.791,32.838l-0.193,0.533L3.41,33.872l-0.199,0.557l0.041-0.029l0.059-0.035l0.797-0.759L3.885,32.97L3.791,32.838L3.791,32.838
	z M90.809,31.273l0.117,0.601c0.234,1.213,0.463,2.358,0.727,3.483c0.141,0.642,0.293,1.222,0.475,1.781
	c0.164,0.563,0.346,1.151,0.58,1.729l0.363,0.85l0.387,0.82l0.047,0.091c-0.492-2.792-1.254-5.563-2.279-8.291L90.809,31.273
	L90.809,31.273z M90.211,49.426l-0.369,0.05l-0.996,0.914l-0.123,0.41l-0.088,0.504l0.088,1.204l0.041,0.188l0.129,0.551
	l0.264,0.797l0.387,0.894l0.48,0.981l0.609,1.075l0.352,0.586l0.369,0.598c0.41,0.65,0.896,1.359,1.418,2.112l0.117,0.173
	l0.047-0.158c0.135-0.592,0.252-1.187,0.357-1.767l0.064-0.422l0.035-0.267l0.012-0.129l0.064-0.788l0.035-0.75v-0.686l-0.111-1.301
	c-0.088-0.844-0.311-1.553-0.498-2.074l-0.334-0.794l-0.393-0.636l-0.832-0.858L90.211,49.426L90.211,49.426z M88.125,62.993
	l0.012,0.053c0.053,0.144,0.252,0.483,1.043,1.122c0.457,0.366,1.025,0.771,1.658,1.178l0.281-0.691l0.141-0.346l0.111-0.281
	l-0.275-0.686l0.223-0.413C88.564,62.63,88.178,62.92,88.125,62.993L88.125,62.993z M91.559,65.791
	c1.576,0.946,2.766,1.444,3.229,1.485l-0.24-0.366l-0.979-1.043c-0.393-0.363-0.879-0.773-1.453-1.222L91.559,65.791L91.559,65.791z
	 M88.828,70.716l-0.023,0.038c-0.639,1.005-1.313,2.001-2.01,2.979l0.141-0.144l0.486-0.568l0.234-0.296l0.205-0.308l0.773-1.315
	L88.828,70.716L88.828,70.716z M4.313,67.159l0.814,1.781l0.059,0.129l0.105,0.214l0.914,1.743l0.299,0.536l0.48,0.814
	c0.387,0.683,0.832,1.348,1.26,1.989l0.434,0.653l0.615,0.844l0.311,0.413l0.469,0.633l0.322,0.393l0.146,0.182
	c-0.574-0.891-1.125-1.816-1.652-2.774c-1.506-2.862-2.637-5.874-3.363-8.95c-0.363-1.491-0.574-2.912-0.715-3.984l-0.182-1.843
	L4.57,58.637l-0.018-0.46l-0.006-1.4l0.035-1.415L4.6,55.098l0.012-0.126l0.053-0.691c0.053-0.744,0.105-1.444,0.211-2.124
	l0.158-1.26l0.193-1.172l0.17-1.09l0.006-0.018l0.193-1.011l0.152-0.94l0.064-0.393l0.094-0.507l0.105-0.812l0.041-0.381l0.035-0.41
	c0.094-0.855,0.053-1.723-0.117-2.64L5.578,40.37l-0.041-0.094l-0.246-0.483l-0.346-0.568L4.008,38.05L3.41,37.435l-0.662-0.633
	L2.736,36.79l-0.205-0.229l-0.006,0.023l-0.141,0.472l-0.193,0.756l-0.129,0.516l-0.246,0.996l-0.305,1.526l-0.053,0.27
	l-0.094,0.486l-0.34,2.309l-0.217,2.326l-0.023,0.498L0.709,48.57v1.017l0.006,0.533l0.006,0.331l0.041,1.207l0.1,1.57l0.07,0.759
	l0.229,1.939l0.393,2.306l0.516,2.288l0.059,0.231l0.568,2.013l0.75,2.218L4.313,67.159L4.313,67.159z M23.402,89.062
	c1.682,1.049,3.434,1.963,5.244,2.736c0.744,0.346,1.523,0.627,2.273,0.908l0.686,0.252l1.014,0.322l0.486,0.152l0.756,0.229
	l0.48,0.129l0.27,0.07l0.152,0.035l-1.342-0.563l-1.225-0.545l-0.645-0.275l-0.451-0.199l-0.943-0.381l-0.809-0.311
	c-0.926-0.363-1.471-0.498-1.477-0.498l-0.041-0.012l-0.199-0.076l-2.01-0.867l-0.492-0.24l-0.234-0.117L23.402,89.062
	L23.402,89.062z M47.198,96.104l-1.184-0.006l-0.844-0.023c-0.668-0.047-1.336-0.094-1.992-0.146h-0.012l-0.287-0.035l-0.668-0.053
	L41.719,95.8l-1.066-0.094l-1.559-0.211l-0.264-0.035l-0.522-0.076l-0.779-0.146l-0.457-0.088l-1.096-0.217l-1.541-0.387
	l-0.264-0.064l-0.516-0.135l-0.762-0.234l-0.48-0.152l-1.049-0.334l-0.691-0.258c-0.762-0.281-1.553-0.568-2.314-0.92
	c-3.984-1.711-7.705-4.084-11.045-7.055l-1.225-1.146l-0.533-0.533l-0.24-0.249l-0.516-0.46l-0.434-0.384l-0.393-0.375l-0.188-0.182
	l-1.131-1.113l-0.369-0.393l-0.182-0.196l-1.084-1.184l-1.008-1.219l-0.17-0.205L9.51,77.34l-0.48-0.639l-0.305-0.413l-0.633-0.87
	l-0.439-0.656c-0.434-0.653-0.885-1.327-1.283-2.03l-0.475-0.809l-0.322-0.571l-0.914-1.74l-0.117-0.249l-0.059-0.12l-0.826-1.811
	L2.777,65.22l-0.762-2.253l-0.568-2.021l-0.07-0.258l-0.521-2.329l-0.398-2.338l-0.229-1.948l-0.076-0.806l-0.1-1.559L0.012,50.46
	l-0.006-0.334L0,49.599V48.55l0.076-1.84L0.1,46.188l0.223-2.367l0.34-2.326l0.1-0.519l0.053-0.264l0.311-1.538l0.252-1.022
	l0.129-0.513l0.193-0.759l0.152-0.507l0.076-0.258l0.463-1.5l0.357-0.987l0.182-0.501l0.27-0.738l0.199-0.486l0.105-0.249
	l0.621-1.462L5.15,28.06l0.375-0.691l0.252-0.469l0.504-0.911l0.82-1.351l0.141-0.234l0.287-0.448l0.879-1.298l0.117-0.176
	l0.346-0.489l0.006-0.012l1.166-1.556l0.17-0.211l1.09-1.321l0.088-0.105l0.176-0.208l1.324-1.459l0.381-0.393l0.182-0.185
	l1.113-1.119l0.393-0.36l0.199-0.188l1.184-1.078l1.219-1.011l0.217-0.179l0.416-0.337l1.318-0.996l0.604-0.439l1.313-0.894
	l0.111-0.079l0.229-0.152l1.02-0.63c1.646-1.087,3.363-1.969,4.67-2.616l0.803-0.366l0.41-0.182l0.604-0.267l0.188-0.085L29.9,5.384
	l0.563-0.217c2.549-1.151,5.109-2.121,7.629-2.883c3.118-0.943,6.27-1.605,9.364-1.96c3.228-0.375,6.416-0.425,9.468-0.149
	c3.164,0.281,6.217,0.914,9.082,1.875c2.672,0.899,5.162,2.083,7.424,3.519l0.656,0.123l0.826,0.205
	c0.533,0.144,1.102,0.302,1.652,0.504c0.551,0.211,1.078,0.437,1.588,0.677l0.17,0.082l0.615,0.316l0.727,0.437l1.383,0.981
	l1.201,1.134l0.053,0.05l0.492,0.568l0.469,0.65l0.779,1.371c0.434,1.014,0.668,2.039,0.697,3.056
	c0.006,0.542-0.041,1.081-0.146,1.617c0.855,0.753,1.641,1.658,2.332,2.701c0.352,0.557,0.697,1.146,1.025,1.758l0.006,0.012
	c0.275,0.586,0.551,1.198,0.832,1.872c0.504,1.333,0.92,2.66,1.23,3.955l0.076,0.316l0.246,0.489l0.814,1.799l0.17,0.407
	l0.563,1.433c1.254,3.343,2.121,6.747,2.596,10.178l0.539,1.052l0.199,0.557l0.117,0.521c0.111,0.604,0.135,1.201,0.064,1.775
	l-0.34,1.166l-0.234,0.437l-0.627,0.905l-0.018-1.102c-0.029-1.69-0.158-3.378-0.387-5.063l-0.357-0.58l-0.129-0.208l-0.486-0.855
	l-0.41-0.87l-0.363-0.855c-0.252-0.609-0.439-1.222-0.604-1.793c-0.182-0.574-0.346-1.178-0.486-1.834
	c-0.27-1.128-0.492-2.282-0.732-3.501c-0.246-1.245-0.498-2.528-0.803-3.812l-0.299-0.58l-0.316-0.609l-0.076-0.155l-0.141-0.267
	l-0.732-1.274c-1.178-2.001-2.52-3.929-3.984-5.742l-0.141,0.354l-0.275-0.864l-0.094-0.108L82.4,17.765l-0.316-0.363l-1.33-1.465
	l-0.053-0.056l-0.152-0.05l-1.201-0.545l-0.92-0.753l-0.762-0.888l-0.322-0.451l-0.322-0.451l-0.041-0.062l-0.445-0.604
	l-0.768-0.618l-1.271-0.929l-0.393-0.053h-0.029l-1.002-0.111l-0.527-0.059l-1.061-0.111l-1.611-0.114l-0.322-0.026l-0.832-0.05
	c-0.727-0.029-1.383-0.07-1.957-0.105l-0.064-0.003c-0.609-0.018-1.143-0.047-1.623-0.082L64.74,9.787l-0.322-0.029l-0.609-0.053
	l-0.967-0.164c-0.65-0.173-0.984-0.349-1.178-0.606l-0.146-0.653c0.082-0.439,0.504-0.896,1.254-1.354l0.814-0.422l0.99-0.384
	l1.148-0.346l0.17-0.041L64.23,5.079c-1.107-0.398-2.449-0.858-3.855-1.225c-2.818-0.759-5.725-1.239-8.631-1.43
	c-3.158-0.205-6.333-0.073-9.433,0.387c-3.451,0.513-6.727,1.298-9.739,2.332l-0.229,0.073l-0.369,0.129l-1.236,0.478L29.432,6.43
	C26.66,7.754,23.824,9.342,21,11.146c-2.016,1.254-3.908,2.997-5.631,5.183c-0.346,0.466-0.715,0.967-1.119,1.529l-0.744,1.146
	l-0.264,0.416l-0.246,0.381l-0.674,1.189l-0.182,0.313l-0.264,0.463l-0.41,0.782l-0.416,0.776l-0.076,0.149l-0.123,0.22
	l-0.188,0.384c-0.275,0.545-0.527,1.034-0.785,1.494c-0.41,0.844-0.861,1.626-1.301,2.385l-0.24,0.422l-0.422,0.665l-0.422,0.627
	l-0.92,1.225l-0.252,0.287l-0.234,0.272l-0.527,0.563l-0.92,0.829l0.164,0.894c-0.111,0.568-0.621,0.899-1.107,1.219l-0.053,0.035
	l-0.727,0.724l0.316,0.565l0.68,0.65l0.615,0.639l1.002,1.254l0.387,0.627l0.258,0.519l0.047,0.1l0.439,1.313
	c0.193,0.993,0.234,1.928,0.135,2.865L6.756,44.63l-0.035,0.407l-0.117,0.847l-0.088,0.521L6.451,46.76l-0.158,0.97L6.1,48.749
	l-0.17,1.09l-0.193,1.166l-0.158,1.251c-0.1,0.659-0.152,1.348-0.205,2.077L5.32,55.024l-0.012,0.129l-0.018,0.231l-0.029,1.406
	v1.351l0.018,0.472l0.059,1.263l0.176,1.816c0.141,1.043,0.346,2.44,0.703,3.902c0.709,3.021,1.822,5.974,3.299,8.78
	c1.113,2.036,2.367,3.94,3.721,5.654l0.252,0.319l0.82,0.967l0.176,0.205l0.369,0.425l0.955,1.008l1.424,1.181l0.926,0.738
	l1.605,1.148l0.48,0.322l0.17,0.108l1.336,0.85l0.428,0.255l0.246,0.138l1.371,0.773l1.412,0.712l0.24,0.117l0.463,0.223
	l1.992,0.861l0.158,0.059c0.117,0.029,0.668,0.176,1.547,0.521l0.387,0.152l0.416,0.158l0.967,0.387l0.469,0.205l0.615,0.27
	l1.26,0.557c2.35,1.055,4.899,1.816,7.565,2.262c0.533,0.082,1.102,0.164,1.67,0.234l0.088,0.012l0.486,0.018l0.275,0.006
	l1.547,0.047l0.498-0.006l0.264-0.006l0.768-0.018c0.814-0.006,1.646-0.07,2.443-0.135l0.615-0.053l0.375-0.029l2.021-0.264
	l0.609-0.094c3.311-0.557,6.469-1.418,9.428-2.561c0.557-0.234,1.102-0.48,1.652-0.732c2.068-0.955,4.195-2.156,6.504-3.665
	c1.998-1.315,3.973-2.769,5.865-4.318c2.021-1.673,4.055-3.483,6.211-5.531c0.586-0.659,1.154-1.327,1.705-1.998
	c1.389-1.758,2.701-3.604,3.891-5.481c0.803-1.295,1.57-2.654,2.297-4.061l0.07-0.211l0.023-0.073
	c-0.709-0.451-1.348-0.899-1.857-1.31c-0.732-0.592-1.137-1.052-1.271-1.45l0.111-0.729c0.322-0.39,1.119-0.683,4.734-0.211
	l0.041-0.126l0.281-0.873l-0.018-0.018l-0.018-0.029l-0.41-0.595c-0.521-0.756-1.02-1.471-1.436-2.136l-0.375-0.612l-0.352-0.58
	l-0.627-1.113l-0.498-1.02l-0.404-0.932l-0.287-0.864l-0.141-0.586l-0.041-0.19l-0.094-1.415l0.1-0.595l0.164-0.533
	c0.287-0.68,0.809-1.151,1.465-1.327c0.674-0.179,1.418-0.012,2.086,0.469l0.996,1.02l0.451,0.738l0.369,0.867
	c0.188,0.519,0.439,1.313,0.533,2.232l0.117,1.342v0.75l-0.035,0.771l-0.07,0.814l-0.012,0.123l-0.035,0.316l-0.07,0.425
	c-0.105,0.601-0.229,1.21-0.363,1.816l-0.006,0.018l-0.193,0.665l0.164,1.198l-0.762,0.615l-0.199,0.489l-0.217,0.519
	c0.65,0.504,1.201,0.967,1.635,1.374l1.061,1.131l0.393,1.134l-0.434,0.354c-0.803,0.173-2.777-0.911-3.832-1.541l-0.082,0.161
	l-0.012,0.038L90.99,67.08l-0.51,1.441l-0.486,1.271l-0.076,0.193l-0.311,0.724l-0.352,0.732l-0.803,1.362l-0.217,0.331
	l-0.012,0.015l-0.246,0.316l-0.527,0.612c-1.512,1.541-2.947,2.956-4.33,4.271c-0.855,0.961-1.752,1.907-2.672,2.83l-0.75,0.703
	c-0.521,0.498-1.066,1.014-1.635,1.485l-0.902,0.788l-1.541,1.236c-3.475,2.666-7.084,4.828-10.729,6.422
	c-0.738,0.334-1.488,0.65-2.256,0.943c-1.857,0.785-3.732,1.441-5.602,1.951l-0.293,0.076c-0.527,0.135-1.072,0.275-1.617,0.404
	l-0.012,0.006l-1.934,0.369l-0.844,0.129l-1.629,0.211l-0.516,0.053l-1.98,0.129l-0.521,0.012L47.198,96.104L47.198,96.104z"/>
<path fill="#40C296" d="M45.27,61.271l0.48,0.296l1.389,0.706l0.422,0.223L48.2,62.75l1.306-0.158l0.551-0.401l0.24-0.255
	l0.117-0.138l0.07-0.088l0.498-0.606l0.246-0.305l0.035-0.038l0.012-0.009l0.012-0.012l0.023-0.023l0.094-0.07v0.021l0.053,0.211
	l0.006,0.026v-0.009l0.006-0.003l0.076,0.041l0.123,0.067l0.979,0.492l0.504,0.223l0.252,0.105l0.146,0.059l0.229,0.088l0.457,0.17
	l0.457,0.158l0.902,0.299l0.814-1.351l0.193-0.27l0.111-0.149l0.234-0.311l0.51-0.688l0.492-0.82l0.369-0.99l0.117-1.04
	c-0.006-0.659-0.117-1.222-0.193-1.723c-0.164-1.014-0.293-1.995-0.287-2.944l0.117-1.392l0.158-0.668l0.229-0.662l0.047-0.419
	l-0.334,0.457l-0.51,1.477l0.322-1.424l0.662-1.418l0.451-0.396c0.627-0.92,1.283-1.884,1.869-2.868l0.445-0.738l0.416-0.753
	l0.416-0.75l0.393-0.759c0.756-1.482,1.43-3,2.004-4.547c0.563-1.55,1.02-3.126,1.359-4.714l0.188-0.935l0.076-0.475l0.07-0.48
	l0.07-0.48l0.029-0.237l0.023-0.243l0.076-0.952l0.035-0.932v-0.896l-0.064-0.847l-0.088-0.782c-0.111-0.63-0.27-1.151-0.439-1.201
	c-0.152-0.05-0.234,0.352-0.27,0.905l-0.018,0.442l-0.023,0.472l-0.029,0.938l-0.041,0.363l-0.059,0.984l-0.041,0.492l-0.053,0.489
	c-0.059,0.656-0.182,1.301-0.281,1.954l-0.205,0.976l-0.1,0.486l-0.129,0.486l-0.258,0.973l-0.305,0.973l-0.129,0.401l-0.141,0.398
	l-0.293,0.797l-0.311,0.791l-0.328,0.785l-0.352,0.776l-0.357,0.773l-0.779,1.521l0.492-1.409c0.223-0.598-0.146-0.258-0.404,0.308
	l-0.199,0.437l-0.211,0.431l-0.428,0.864l-0.445,0.855l-0.223,0.428l-0.24,0.422l-0.469,0.847l-0.498,0.835
	c-0.322,0.56-0.686,1.11-1.037,1.702c-0.357,0.592-0.703,1.216-0.99,1.898s-0.498,1.433-0.598,2.162
	c-0.211,1.471-0.088,2.892,0.047,4.248l-0.041-0.193c-0.129-0.583-0.27-0.261-0.199,0.349l0.1,1.356l-0.076,0.489l-0.193,0.478
	l-0.768,1.11l-0.24,0.316l-0.123,0.158l-0.029,0.053l-0.07,0.144l-0.018,0.006l-0.023-0.003l-0.053-0.009l-0.105-0.023l-0.023-0.006
	l-0.059-0.023l-0.123-0.047l-0.234-0.097l-0.475-0.208l-0.463-0.223l-0.234-0.117l-0.111-0.062l-0.059-0.032l-0.1-0.056
	c-0.545-0.316-1.084-0.686-1.605-1.025l-0.059,0.07L50.83,57.96l-0.117,0.155l-0.229,0.308l0.018-0.226l-0.639,0.7l-1.048,1.33
	l-0.152,0.19l-0.041,0.035l-0.088,0.032l-0.088-0.035l-0.604-0.319l-1.277-0.659l-0.158-0.082l-0.076-0.038l-0.023-0.012
	l-0.012-0.006H46.29l-0.059-0.021l-0.117-0.053l-0.029-0.123l0.023-0.146l0.24-0.577l0.111-0.278l0.012-0.035l0.018-0.044
	l0.053-0.114l0.094-0.22c0.252-0.583,0.463-1.102,0.621-1.538c-0.633-0.267-1.172-0.469-1.605-0.601l-0.305-0.085l-0.035-0.009
	l-0.029-0.006l-0.053-0.009l-0.111-0.015l-0.398-0.026l-0.311,0.51l0.229,0.261l0.152,0.144l0.059,0.059l0.041,0.053l0.293,0.352
	l-0.299,0.352l-0.029,0.038l-0.018,0.018l-0.012,0.023l-0.023,0.029l-0.152,0.255l-0.305,0.519l-0.246,0.442l-0.211,0.478
	l-0.053,0.973l0.211,0.442l0.328,0.352L45.27,61.271L45.27,61.271z"/>
<path fill="#40C296" d="M39.991,54.896l-0.393-0.413l-1.155-1.043l-0.229-0.211l-0.059-0.062L38.127,53l0.041-0.076l0.023-0.035
	l0.012-0.015l0.047-0.067l0.458-0.639l0.229-0.319l0.381-0.545l0.826-1.181l-0.023,0.062l0.422-0.322l-0.557-0.448l-0.826-0.624
	l-0.398-0.319l-0.211-0.182l-0.691-0.624l-0.328-0.328l-0.164-0.167l-0.035-0.044L37.301,47.1l-0.006-0.003l-0.064-0.041
	l0.006-0.026l0.006-0.015l0.012-0.023l0.012-0.023l0.006-0.009v-0.006l0.012-0.021l0.111-0.182l0.211-0.349l0.387-0.63l0.369-0.507
	l0.85-0.621l1.359-0.398c1.043-0.261,2.109-0.568,3.129-1.037l1.482-0.844l0.668-0.53l0.598-0.586l0.211-0.422l-0.51,0.363
	l-1.43,1.034l1.23-1.052l1.072-1.245l0.504-0.352c0.721-0.894,1.4-1.79,2.121-2.666l0.539-0.656l0.557-0.642l0.551-0.639
	l0.568-0.621c1.113-1.207,2.268-2.364,3.48-3.454c1.213-1.084,2.479-2.101,3.797-3.041l0.779-0.542l0.398-0.267l0.41-0.261
	l0.41-0.261l0.205-0.132l0.205-0.123l0.826-0.492l0.826-0.463l0.791-0.448l0.768-0.407l0.715-0.39
	c0.58-0.305,1.061-0.627,1.072-0.809c0.012-0.164-0.422-0.108-1.008,0.044l-0.469,0.132l-0.48,0.179l-0.949,0.387l-0.369,0.152
	l-0.955,0.475l-0.469,0.252l-0.463,0.261c-0.627,0.331-1.213,0.721-1.816,1.087l-0.879,0.589l-0.439,0.293l-0.434,0.313
	l-0.855,0.627l-0.85,0.659c-1.857,1.465-3.598,3.088-5.221,4.808l0.932-1.251l-0.498,0.182l-0.346,0.369l-0.34,0.384l-0.662,0.762
	l-0.645,0.782l-0.322,0.393l-0.31,0.398l-0.615,0.8l-0.604,0.814c-0.404,0.542-0.779,1.093-1.16,1.603l-1.189,1.395l-0.656,0.563
	l-0.738,0.466c-1.043,0.565-2.273,0.885-3.563,1.131l0.182-0.062c0.533-0.179,0.217-0.281-0.346-0.17
	c-0.504,0.103-1.09,0.205-1.717,0.454l-0.938,0.51l-0.762,0.7l-0.996,1.438l-0.193,0.322l-0.1,0.158l-0.182,0.272l-0.896,1.116
	l0.146,0.193l0.158,0.193l0.311,0.384l0.639,0.75l0.076,0.085l0.047,0.053l0.105,0.108l0.205,0.208l0.422,0.41l0.439,0.393
	l0.223,0.19l0.111,0.094l0.053,0.047l0.018,0.009l0.006,0.003l0.275,0.182v0.012l-0.006,0.012l-0.018,0.029l-0.029,0.056
	l-0.135-0.021l-0.141,0.067l-0.018,0.021l-0.012,0.012v0.006L37.09,50.56l-0.199,0.29l-0.404,0.586l-0.264,0.393l-0.287,0.601
	l-0.047,1.283l0.75,1.084l0.568,0.527l1.061,0.97l0.299,0.267l0.475,0.428l1.031,0.439l0.551-0.07l0.486-0.243l0.422-0.369
	l0.375-0.419l0.393-0.483l0.188-0.237l0.023-0.029l0.018-0.021l0.006-0.023l0.023-0.047l0.246-0.483l0.486,0.111l0.152,0.041
	l0.018,0.006l0.029,0.012l0.053,0.021l0.1,0.041l0.387,0.12l0.416-0.425l-0.158-0.305l-0.117-0.179l-0.088-0.117l-0.117-0.135
	l-1.225-1.356l-1.266,1.166l-0.176,0.164l-0.088,0.085l-0.064,0.056l-0.217,0.199l-0.439,0.407l-0.029,0.023l-0.006,0.009
	l-0.018,0.012l-0.035,0.023l-0.059,0.044l-0.135,0.05l-0.123-0.076L39.991,54.896L39.991,54.896z"/>
<path fill="#40C296" d="M44.924,65.612l-0.041,0.404l0.094,1.096l0.117,1.025l0.064,0.943l-0.047,0.832L45.1,69.893l-0.129-0.009
	l-0.059,0.103l-0.035,0.138L44.667,70.9l-0.545,0.645l-0.92,0.601l-1.16,0.58l-0.627,0.325l-0.311,0.176l-0.076,0.047l-0.035,0.021
	L40.987,73.3l-0.029,0.026l-0.311,0.299l-0.457,0.454l-0.287,0.299l-0.018,0.021l-0.012,0.015l0.006-0.012l0.012-0.026l0.023-0.062
	l-0.146,0.152l-0.246,0.404l-0.082,0.144l-0.047,0.076l-0.012,0.018l-0.006,0.012l0.006-0.006l0.029-0.023l0.211-0.164l-0.311,0.325
	l-0.082,0.085l-0.035,0.044l0.006-0.015l0.047-0.079l0.176-0.486l0.041-0.161l0.146-0.193l0.135-0.302l0.141-0.753l0.035-0.378
	l0.041-0.507l0.094-1.069l0.17-1.031c0.439-1.992,1.453-3.855,2.877-5.335l0.896-0.835l0.955-0.782l0.832-0.806l0.48-0.835
	l0.047-0.243l-0.012-0.214l-0.164-0.246l-0.199,0.021l-0.094,0.082l-0.105,0.108l-0.557,0.618l-0.158,0.117l-0.938,0.753
	l-0.545,0.404l-0.563,0.451c-0.732,0.633-1.383,1.345-1.963,2.127c-0.955,1.295-1.664,2.78-2.039,4.351L39,69.617l0.029-0.272
	l0.047-0.278l-0.322,0.246l-0.17,0.771l-0.071,0.387l-0.047,0.393l-0.094,1.488l-0.006,0.352v0.041l-0.006,0.059l-0.012,0.155
	l-0.018,0.311l-0.07,0.642l-0.029,0.167l-0.041,0.17l-0.07,0.337l-0.006,0.023l-0.018,0.029l-0.029,0.059l-0.059,0.114l-0.111,0.234
	l-0.117,0.229l-0.053,0.117l-0.076,0.135l-0.873,1.444l-0.598,0.964l-0.691,1.122c-0.586,0.938-1.172,1.875-1.758,2.813l1.219-1.081
	l0.65-0.568l0.311-0.264l0.076-0.059l0.914-0.844l1.031-0.938c0.692-0.624,1.377-1.239,1.987-1.755
	c0.609-0.504,1.154-0.85,1.729-1.16l-0.182,0.126l-0.246,0.313l0.234-0.067l0.41-0.196l0.094-0.05l0.082-0.041l0.088-0.047
	l0.188-0.088l0.369-0.173l0.797-0.36c0.545-0.252,1.137-0.533,1.717-0.94l0.844-0.718l0.674-0.955l0.381-1.09l0.105-1.072
	l0.205-0.352c0.006-0.882-0.123-1.72-0.205-2.467l-0.082-1.058l0.006-1.008c0.047-1.318,0.27-2.452,0.082-3.243l-0.445-0.328
	l-0.773,0.756c-0.275,0.404-0.533,0.949-0.727,1.559S44.959,64.979,44.924,65.612L44.924,65.612z"/>
<path fill="#40C296" d="M34.723,56.829l-0.311,0.076l-0.85,0.27l-0.961,0.19l-1.043,0.196l-1.119,0.311l0.029-0.023l-0.053-0.12
	l-0.188,0.026l-0.246,0.103l-1.441,1.175c-0.404,0.501-0.674,1.081-0.826,1.626c-0.158,0.548-0.223,1.069-0.258,1.556l-0.053,1.377
	l-0.023,0.627l-0.018,0.305l-0.012,0.076v0.041l-0.012,0.076l-0.041,0.29c-0.117,0.776-0.299,1.506-0.645,2.385
	c-0.316,0.847-0.639,1.693-0.955,2.534l-0.381,1.025l-0.018,0.056l-0.012,0.029l-0.006,0.012l0.006-0.003l0.029-0.032l0.064-0.064
	L25.4,70.93l0.018-0.009l0.012,0.023l0.029,0.035l0.023,0.009l0.012,0.041l0.076-0.026l0.293-0.378l0.293-0.519l0.053-0.114
	l0.018-0.053l0.012-0.023v-0.012l-0.012-0.041l-0.035-0.009l-0.053,0.05l-0.041,0.041l-0.012,0.009v0.003l0.006-0.021l0.047-0.1
	l0.387-0.832l-0.105,0.407l-0.029,0.091l-0.012,0.047l0.006-0.003l0.012-0.012l0.018-0.023l0.158-0.193l0.041-0.047l0.035-0.032
	l0.076-0.059l0.135-0.091l0.117-0.029l0.018,0.021l0.012,0.035l0.035,0.062l0.293-0.346l0.281-0.308l-0.234,0.454l0.24-0.205
	l0.381-0.372l0.287-0.305l0.229-0.226l0.229-0.226l0.059-0.059l0.029-0.029l0.023-0.018l0.094-0.073l0.182-0.152l0.094-0.073
	l0.047-0.038l0.041-0.023l0.328-0.188l0.65-0.311l0.533-0.243l1.002-0.483l0.967-0.574c1.816-1.213,3.199-3,3.902-4.969l0.34-1.181
	l0.211-1.219c0.123-0.806,0.252-1.6,0.58-2.306l0.152-0.325l0.141-0.287l0.111-0.398l-0.27-0.012l-0.252,0.146l-0.275,0.24
	l-0.141,0.149l-0.129,0.164l-0.24,0.36l-0.188,0.372l-0.141,0.352l-0.111,0.27c-0.287,0.987-0.375,1.846-0.592,2.572
	c-0.217,0.75-0.539,1.482-0.973,2.174c-0.715,1.134-1.699,2.121-2.842,2.839l0.293-0.328l0.152-0.164l0.146-0.176l-0.34-0.021
	l-0.486,0.366L31.6,64.18l-0.258,0.161l-1.143,0.636l-0.316,0.161l-0.035,0.021l-0.029,0.015l-0.012,0.012l-0.035,0.026l-0.111,0.1
	l-0.311,0.272l-0.281,0.311l-0.012,0.009l0.006-0.006v-0.012l0.012-0.026l0.018-0.059l0.041-0.135l0.176-0.677l0.018,0.035
	l0.135,0.023l0.111-0.059v-0.006l0.006-0.023l0.018-0.12l0.035-0.243l0.053-0.483l0.059-0.905c0.029-0.58,0.064-1.107,0.152-1.57
	l0.176-0.636l0.287-0.51l0.434-0.422l0.604-0.337l0.305,0.108c0.615-0.179,1.377-0.287,2.209-0.469l1.271-0.366l1.16-0.545
	c0.721-0.413,1.307-0.914,1.711-1.418l0.639-1.415l-0.346-0.431l-0.902,0.357l-1.277,0.665L34.723,56.829L34.723,56.829z"/>
<path fill="#40C296" d="M59.883,38.144l-0.023-0.267c-0.205-0.967-0.721-1.89-1.447-2.569l0.018,0.009l-0.146-0.243l-0.1-0.076
	l-0.111-0.067l-0.217-0.138l-0.463-0.229l-0.486-0.173l-0.246-0.064l-0.123-0.029l-0.129-0.021c-0.674-0.114-1.365-0.07-2.004,0.12
	c-0.639,0.196-1.219,0.539-1.693,0.981c-0.469,0.445-0.82,0.987-1.037,1.567l-0.006,0.205l0.146-0.22l0.182-0.343l0.205-0.293
	l-0.504,1.28l-0.146,0.226c-0.24,0.973-0.047,2.057,0.469,2.897l0.146,0.229l0.164,0.217l0.369,0.396l0.867,0.618
	c0.633,0.322,1.342,0.48,2.027,0.422l1.529-0.454l1.02-0.961l0.141-0.311l-0.006-0.188l-0.316,0.179l-0.246,0.231l-0.264,0.226
	l-0.111,0.07l-1.324,0.598l-1.494-0.062c-0.814-0.231-1.541-0.803-1.963-1.55l0.193,0.199l0.205,0.196l-0.012-0.196
	c-0.574-0.706-0.855-1.69-0.68-2.643l0.586-1.321l1.125-0.935l-0.059,0.044l0.152,0.05l0.938-0.308l0.99-0.041l0.961,0.243
	l0.229,0.103l0.217,0.129l0.111,0.064l0.1,0.076l0.205,0.155l0.053,0.193l0.703,1.104l0.27,1.277
	c0.047,0.841-0.182,1.556-0.182,2.036l0.199,0.196l0.229-0.164l0.264-0.325C59.736,39.969,60,38.99,59.883,38.144L59.883,38.144z"/>
</svg>
