<?xml version="1.0" encoding="utf-8"?>
<!-- Generator: Adobe Illustrator 12.0.0, SVG Export Plug-In . SVG Version: 6.00 Build 51448)  -->
<!DOCTYPE svg PUBLIC "-//W3C//DTD SVG 1.1//EN" "http://www.w3.org/Graphics/SVG/1.1/DTD/svg11.dtd" [
	<!ENTITY ns_svg "http://www.w3.org/2000/svg">
	<!ENTITY ns_xlink "http://www.w3.org/1999/xlink">
]>
<svg  version="1.1" id="Layer_1" xmlns="&ns_svg;" xmlns:xlink="&ns_xlink;" width="95.523" height="98.18"
	 viewBox="0 0 95.523 98.18" overflow="visible" enable-background="new 0 0 95.523 98.18" xml:space="preserve">
<path fill="#2F3E51" d="M95.248,52.284c0,25.348-20.549,45.896-45.896,45.896c-25.354,0-45.902-20.549-45.902-45.896
	c0-25.354,20.549-45.903,45.902-45.903C74.699,6.381,95.248,26.93,95.248,52.284"/>
<g>
	<g>
		<path fill="#E4A892" stroke="#000000" stroke-width="0.3" d="M19.029,37.934l30.639-15.539l28.887,33.264L51.2,83.233
			L19.029,37.934z"/>
		
			<linearGradient id="XMLID_5_" gradientUnits="userSpaceOnUse" x1="27.4639" y1="54.3765" x2="71.7813" y2="38.9474" gradientTransform="matrix(1 0 0 -1 0 98.001)">
			<stop  offset="0.0051" style="stop-color:#FFFFFF"/>
			<stop  offset="0.2182" style="stop-color:#EEEEEE"/>
			<stop  offset="0.7276" style="stop-color:#CACACA"/>
			<stop  offset="1" style="stop-color:#BDBDBD"/>
		</linearGradient>
		<path fill="url(#XMLID_5_)" d="M24.06,40.178l25.772-14.121l24.782,29.221L50.813,77.11L24.06,40.178z"/>
		<path fill="none" stroke="#2F3E51" d="M31.281,43.295c1.594-0.334,3.149-1.201,4.38-2.408 M34.565,46.904
			c4.134-3.27,8.651-5.602,13.022-8.426 M35.77,48.328c4.321-2.537,8.651-5.256,12.694-8.314 M37.302,50.52
			c4.348-1.477,7.025-5.819,11.162-7.993 M38.726,52.266c1.825-0.932,12.144-9.516,12.144-9.516 M39.927,53.907
			c1.828-0.932,12.038-9.083,12.038-9.083 M40.911,55.225c5.074-2.707,8.481-5.831,13.351-8.538 M43.1,59.274
			c4.236-3.557,8.604-7.523,13.462-10.178 M44.195,61.02c4.573-2.725,7.661-7.025,12.146-9.738 M45.616,62.227
			c3.926-2.438,10.878-5.754,12.149-10.289 M46.167,34.541l3.39-2.297"/>
		
			<linearGradient id="XMLID_6_" gradientUnits="userSpaceOnUse" x1="38.8501" y1="63.5894" x2="33.883" y2="71.8935" gradientTransform="matrix(1 0 0 -1 0 98.001)">
			<stop  offset="0.0051" style="stop-color:#212121"/>
			<stop  offset="0.0496" style="stop-color:#333339"/>
			<stop  offset="0.1264" style="stop-color:#4F4F5C"/>
			<stop  offset="0.1675" style="stop-color:#59596A"/>
			<stop  offset="0.3415" style="stop-color:#70707F"/>
			<stop  offset="0.7047" style="stop-color:#ABABB3"/>
			<stop  offset="1" style="stop-color:#E0E0E2"/>
		</linearGradient>
		<path fill="url(#XMLID_6_)" d="M30.824,39.943c0,0-0.428-1.477-0.34-2.883c0.085-1.354,3.176-3.258,2.669-5.971
			c-0.299-1.582-2.124-1.113-2.484-3.551c-0.311-2.127,4.192-4.553,6.381-2.801c1.269,1.014,0.478,2.988,2.244,3.809
			c1.767,0.826,6.762-0.844,7.749,0.633c0.984,1.477,0.328,1.313,0.328,1.313L30.824,39.943z M34.196,25.846
			c-0.647,0.035-0.844,0.844-0.434,1.805s1.269,1.711,1.916,1.676c0.65-0.029,0.844-0.844,0.434-1.805S34.844,25.811,34.196,25.846z
			"/>
	</g>
	
		<radialGradient id="XMLID_7_" cx="-964.1621" cy="-406.022" r="12.9344" gradientTransform="matrix(0.1356 0 0 -0.1356 197.0194 -29.8437)" gradientUnits="userSpaceOnUse">
		<stop  offset="0" style="stop-color:#9C523D"/>
		<stop  offset="0.9188" style="stop-color:#9C2612"/>
	</radialGradient>
	<path fill="url(#XMLID_7_)" stroke="#000000" stroke-width="0.3" d="M67.791,25.98c-0.322,0.779-0.615,1.072-1.576,1.072
		s-1.6-0.639-1.6-1.477c0-0.844,0.932-2.47,2.273-2.165C67.973,23.657,68.113,25.189,67.791,25.98z"/>
	
		<linearGradient id="XMLID_8_" gradientUnits="userSpaceOnUse" x1="51.5488" y1="35.1001" x2="55.4336" y2="35.1001" gradientTransform="matrix(1 0 0 -1 0 98.001)">
		<stop  offset="0" style="stop-color:#F7D18F"/>
		<stop  offset="1" style="stop-color:#C2693D"/>
	</linearGradient>
	<path fill="url(#XMLID_8_)" stroke="#000000" stroke-width="0.3" d="M52.627,59.286c-0.328,2.168-1.078,7.23-1.078,7.23
		s2.227-3.633,3.885-6.029C54.619,60.633,53.143,60.141,52.627,59.286z"/>
	<path fill="#242323" d="M51.777,64.952c0.152,0.211,0.352,0.299,0.621,0.24c-0.188,0.346-0.785,1.354-0.844,1.324
		S51.713,65.303,51.777,64.952z"/>
	<path fill="#D6D600" stroke="#000000" stroke-width="0.3" d="M52.633,59.28c0.51-1.951,10.688-30.516,10.688-30.516l3.205,0.855
		c0,0-10.254,28.459-11.104,30.879C54.332,60.874,53.043,60.334,52.633,59.28z"/>
	<path fill="#E4A892" stroke="#000000" stroke-width="0.3" d="M63.262,28.893c0.639-1.611,1.166-3.199,1.436-3.855
		c0.451,0.891,2.432,1.512,3.047,1.061c-0.264,0.732-0.92,2.666-1.406,4.031C65.488,30.521,63.771,30.029,63.262,28.893z"/>
</g>
<path fill="#E4A892" d="M47.219,96.106L46.029,96.1l-0.832-0.029c-0.674-0.041-1.342-0.088-1.992-0.141l-0.018-0.006
	c-4.143-0.281-7.863-0.955-11.795-2.297l-0.697-0.258c-0.762-0.281-1.553-0.568-2.314-0.926c-3.984-1.711-7.705-4.078-11.045-7.049
	l-1.219-1.148c-3.105-2.877-5.555-5.291-8.004-8.83L7.68,74.76c-0.439-0.65-0.896-1.33-1.289-2.027l-0.475-0.809
	C-6.324,50.139,1.135,23.104,21.783,9.709l1.025-0.627c1.646-1.09,3.363-1.969,4.67-2.619L28.275,6.1l0.416-0.182l0.598-0.27
	l0.199-0.082l0.434-0.182l0.563-0.217c2.543-1.148,5.109-2.121,7.629-2.883c3.117-0.943,6.27-1.605,9.363-1.957
	c3.229-0.381,6.416-0.428,9.469-0.152c3.164,0.281,6.223,0.914,9.076,1.875c2.678,0.896,5.174,2.08,7.43,3.521l0.662,0.117
	l0.82,0.205c0.533,0.146,1.096,0.305,1.652,0.504c0.551,0.211,1.084,0.439,1.594,0.68l0.17,0.082
	c1.928,0.967,3.727,2.326,4.934,4.137l0.779,1.371c0.434,1.014,0.668,2.039,0.691,3.053c0.006,0.539-0.035,1.084-0.135,1.623
	c0.855,0.75,1.629,1.652,2.326,2.701c0.352,0.557,0.697,1.143,1.025,1.758l0.006,0.012c0.275,0.58,0.545,1.189,0.832,1.869
	c0.504,1.336,0.92,2.66,1.225,3.955l0.082,0.316l0.246,0.486l0.814,1.799l0.17,0.41l0.563,1.436c1.254,3.34,2.115,6.744,2.59,10.172
	l0.539,1.055l0.205,0.557l0.123,0.521c0.111,0.604,0.123,1.201,0.059,1.775l-0.34,1.166l-0.229,0.428l-0.627,0.914l-0.023-1.102
	c-0.029-1.693-0.164-3.381-0.387-5.068l-0.357-0.574l-0.129-0.211l-0.48-0.85l-0.416-0.873l-0.357-0.855
	c-0.252-0.609-0.439-1.225-0.609-1.793c-0.188-0.574-0.346-1.178-0.486-1.84c-0.27-1.125-0.492-2.279-0.738-3.498
	c-0.246-1.242-0.498-2.525-0.797-3.809l-0.299-0.58l-0.311-0.615l-0.088-0.146l-0.135-0.27l-0.732-1.271
	c-1.178-2.004-2.514-3.938-3.984-5.742l-0.146,0.352l-0.27-0.861l-0.088-0.111l-0.973-1.195l-0.311-0.357l-1.336-1.465l-0.053-0.059
	l-0.152-0.047l-1.201-0.545l-0.92-0.75l-0.762-0.891l-0.322-0.451l-0.322-0.451l-0.047-0.064l-0.445-0.598l-0.762-0.621
	l-1.277-0.926l-0.387-0.059h-0.029L73.1,10.371l-0.533-0.059l-1.061-0.117l-1.611-0.111l-0.322-0.023l-0.832-0.059
	c-0.732-0.023-1.377-0.064-1.963-0.1l-0.059-0.006c-0.604-0.018-1.143-0.041-1.623-0.076l-0.34-0.029l-0.316-0.035l-0.604-0.053
	l-0.973-0.158c-0.645-0.176-0.984-0.352-1.178-0.609l-0.152-0.65c0.088-0.439,0.51-0.902,1.254-1.359l0.826-0.422l0.984-0.381
	l1.148-0.346l0.17-0.041L64.252,5.08c-1.107-0.398-2.443-0.861-3.855-1.225c-2.818-0.756-5.719-1.236-8.637-1.43
	c-3.152-0.205-6.322-0.07-9.428,0.387c-3.451,0.516-6.727,1.301-9.738,2.332l-0.223,0.07L31.99,5.35l-1.236,0.475l-1.295,0.604
	c-2.771,1.324-5.613,2.918-8.438,4.717c-2.021,1.254-3.908,3-5.625,5.186c-0.357,0.469-0.721,0.967-1.131,1.529l-0.744,1.143
	c-0.979,1.506-1.805,3.105-2.643,4.693l-0.193,0.387c-0.27,0.545-0.527,1.031-0.785,1.494c-0.41,0.838-0.867,1.623-1.295,2.379
	l-0.246,0.422c-0.797,1.307-1.705,2.549-2.777,3.645l-0.92,0.826l0.164,0.891c-0.111,0.574-0.615,0.902-1.107,1.219l-0.053,0.035
	l-0.727,0.727l0.311,0.568c1.178,1.096,2.35,2.285,2.988,3.785l0.445,1.313c0.193,0.996,0.234,1.928,0.135,2.859l-0.041,0.387
	C6.549,46.775,6.063,48.873,5.752,51L5.6,52.254c-0.105,0.662-0.152,1.354-0.205,2.08l-0.053,0.691
	c-0.117,1.611-0.064,3.234,0.018,4.852l0.17,1.816c0.146,1.037,0.352,2.438,0.709,3.902c0.715,3.023,1.822,5.977,3.299,8.777
	c1.113,2.039,2.367,3.943,3.715,5.66l0.258,0.316c3.287,4.324,9.375,7.986,14.414,10.031l0.158,0.059
	c0.117,0.029,0.662,0.176,1.547,0.516l0.381,0.158l0.422,0.158l0.967,0.387l0.469,0.205l0.621,0.264l1.254,0.557
	c2.35,1.055,4.898,1.816,7.559,2.268c0.539,0.082,1.107,0.164,1.676,0.234l0.094,0.006c1.02,0.035,2.045,0.1,3.064,0.059
	l0.768-0.018c0.82,0,1.641-0.07,2.443-0.129l0.615-0.053l0.375-0.029l2.021-0.27l0.615-0.088c3.299-0.557,6.463-1.418,9.428-2.561
	c0.551-0.234,1.096-0.48,1.641-0.732c2.08-0.961,4.201-2.156,6.504-3.668c1.998-1.313,3.973-2.766,5.877-4.318
	c2.021-1.67,4.055-3.48,6.211-5.525c0.586-0.662,1.148-1.33,1.699-1.998c1.389-1.758,2.695-3.609,3.891-5.484
	c0.797-1.295,1.564-2.654,2.291-4.061l0.076-0.211l0.029-0.07c-0.715-0.451-1.359-0.908-1.863-1.313
	c-0.738-0.592-1.137-1.055-1.266-1.447l0.111-0.732c0.316-0.393,1.113-0.68,4.729-0.211l0.047-0.129l0.275-0.867l-0.012-0.018
	l-0.023-0.029l-0.41-0.598c-0.521-0.756-1.014-1.471-1.441-2.133l-0.369-0.615c-1.154-1.904-2.9-4.945-2.35-7.295l0.17-0.533
	c0.281-0.68,0.803-1.155,1.465-1.325c0.68-0.182,1.418-0.012,2.086,0.463l0.99,1.026l0.463,0.738l0.369,0.861
	c0.176,0.521,0.428,1.313,0.533,2.238l0.111,1.336c0.012,0.902-0.035,1.881-0.152,2.777l-0.076,0.422
	c-0.094,0.598-0.223,1.213-0.357,1.816l-0.006,0.018l-0.193,0.668l0.17,1.201l-0.768,0.609l-0.199,0.492l-0.217,0.516
	c0.65,0.504,1.201,0.967,1.641,1.377l1.061,1.131l0.387,1.137l-0.434,0.352c-0.809,0.17-2.777-0.908-3.832-1.541l-0.076,0.164
	c-0.844,2.367-1.6,4.863-3.188,6.873l-0.521,0.615c-1.512,1.541-2.953,2.953-4.33,4.271c-0.861,0.961-1.746,1.904-2.672,2.83
	l-0.75,0.703c-0.521,0.498-1.066,1.014-1.635,1.488l-0.902,0.785l-1.541,1.236c-3.475,2.666-7.084,4.822-10.723,6.422
	c-0.738,0.334-1.494,0.645-2.256,0.938c-1.863,0.791-3.738,1.441-5.602,1.957l-0.299,0.076c-2.877,0.791-6.064,1.242-9.047,1.313
	L47.219,96.106 M23.424,89.063c1.682,1.049,3.439,1.963,5.25,2.736c0.744,0.34,1.518,0.627,2.268,0.902l0.691,0.252
	c0.99,0.316,1.986,0.662,3,0.908l0.152,0.035l-1.342-0.563l-1.225-0.545l-0.645-0.281l-0.445-0.193l-0.949-0.381l-0.809-0.311
	c-0.92-0.369-1.471-0.498-1.477-0.498l-0.041-0.012l-0.199-0.076l-2.01-0.873l-0.486-0.234l-0.24-0.117L23.424,89.063z
	 M4.334,67.161l0.814,1.781l0.059,0.129l0.105,0.217l0.914,1.74l0.293,0.539L7,72.381c0.393,0.68,0.838,1.342,1.26,1.986
	l0.439,0.656l0.621,0.844l0.305,0.41l0.469,0.633l0.322,0.393l0.146,0.182c-0.574-0.891-1.125-1.822-1.646-2.777
	c-1.512-2.859-2.648-5.871-3.375-8.953c-0.357-1.482-0.568-2.906-0.709-3.979L4.65,59.93c-0.088-1.611-0.129-3.352-0.018-4.957
	l0.053-0.691c0.053-0.744,0.105-1.441,0.211-2.127l0.152-1.26c0.305-2.098,0.797-4.219,1.025-6.317l0.041-0.416
	c0.094-0.855,0.053-1.723-0.123-2.637L5.6,40.371c-0.609-1.424-1.729-2.537-2.842-3.58l-0.199-0.229l-0.018,0.023
	c-2.684,9.246-2.408,19.348,0.926,28.395L4.334,67.161z M88.85,70.717l-0.023,0.035c-0.639,1.002-1.313,1.998-2.01,2.982
	l0.141-0.141l0.492-0.568l0.229-0.299l0.205-0.311l0.773-1.313L88.85,70.717z M91.58,65.795c1.576,0.943,2.766,1.436,3.229,1.482
	l-0.24-0.369l-0.979-1.037c-0.393-0.369-0.879-0.773-1.447-1.225L91.58,65.795z M88.146,62.989l0.018,0.059
	c0.047,0.141,0.246,0.486,1.043,1.119c0.451,0.369,1.02,0.773,1.658,1.184l0.275-0.697l0.135-0.346l0.117-0.275l-0.275-0.686
	l0.223-0.416C88.586,62.631,88.199,62.918,88.146,62.989z M90.232,49.424l-0.369,0.047l-0.99,0.92l-0.135,0.41l-0.076,0.504
	l0.076,1.201l0.041,0.188l0.135,0.551l0.264,0.803l0.393,0.891l0.469,0.979l0.615,1.078L91,57.581l0.375,0.598
	c0.404,0.65,0.896,1.359,1.412,2.115l0.123,0.17l0.047-0.158c0.135-0.592,0.258-1.184,0.357-1.764l0.07-0.422
	c0.094-0.873,0.158-1.752,0.135-2.625l-0.105-1.301c-0.088-0.838-0.311-1.553-0.492-2.068l-0.34-0.797l-0.393-0.639l-0.832-0.856
	L90.232,49.424z M90.83,31.277l0.117,0.598c0.234,1.213,0.463,2.355,0.732,3.486c0.135,0.633,0.287,1.219,0.469,1.775
	c0.164,0.563,0.34,1.154,0.58,1.734l0.363,0.844l0.387,0.826l0.041,0.088c-0.492-2.789-1.254-5.561-2.279-8.291L90.83,31.277z
	 M3.813,32.842l-0.193,0.533l-0.182,0.498L3.232,34.43L3.268,34.4l0.064-0.035l0.797-0.756l-0.223-0.639L3.813,32.842z
	 M4.785,30.492l-0.604,1.436L4.076,32.18L3.93,32.525l0.047-0.035c1.553-1.207,2.736-2.813,3.768-4.471l0.246-0.416
	c0.434-0.75,0.879-1.523,1.271-2.35l0.012-0.018c1.395-2.666,2.701-5.297,4.418-7.787l0.305-0.422l-0.018,0.018
	c-3.305,3.363-6.006,7.16-8.186,11.344L4.785,30.492z M84.203,18.82c1.576,1.922,3.029,3.99,4.289,6.135l0.041,0.076l-0.387-1.084
	c-0.27-0.65-0.533-1.254-0.809-1.822c-0.322-0.592-0.65-1.166-0.99-1.699c-0.58-0.867-1.219-1.635-1.916-2.297L84.203,18.82z
	 M83.676,17.479l0.105,0.305l0.053-0.176L83.676,17.479z M82.322,16.582l0.311,0.334l0.07,0.082l-0.123-0.27L82.322,16.582z
	 M83.137,16.236l0.844,0.586l0.064-1.084c-0.023-0.92-0.234-1.857-0.627-2.783l-0.721-1.266c-1.5-2.221-3.879-3.703-6.357-4.623
	l-1.295-0.404C78.637,9.299,81.426,12.609,83.137,16.236z M81.109,15.258l0.926,0.381c-1.84-3.48-4.734-6.633-8.373-9.082
	l-0.469-0.311c-1.535-0.281-3.1-0.311-4.658-0.205l-0.17,0.018l0.141,0.064l2.01,1.043c1.98,0.99,3.727,2.502,5.689,3.463
	l0.398,0.393l0.357,0.416c0.826,0.861,1.945,1.453,2.701,2.391l1.418,1.4L81.109,15.258z M67.041,6.234l-1.113,0.229l-1.102,0.334
	L63.9,7.154l-0.732,0.381c-0.645,0.387-0.902,0.709-0.938,0.879l0.023,0.094l0.779,0.346l0.879,0.141l0.568,0.059l0.352,0.029
	l0.316,0.029c0.475,0.029,0.996,0.059,1.6,0.076l0.082,0.006c0.568,0.035,1.213,0.076,1.934,0.105l0.867,0.053l2.057,0.152
	l0.955,0.1l0.527,0.059l0.088,0.006L72.344,9.07l-0.545-0.334L70.17,7.787l-1.98-1.031L67.041,6.234z M48.859,1.623
	c0.984,0,1.969,0.029,2.953,0.094c2.953,0.193,5.906,0.68,8.766,1.447c1.43,0.381,2.789,0.838,3.92,1.254l1.852,0.727l0.791,0.352
	l1.336-0.158l1.518-0.059l0.797,0.012h0.1l0.732,0.041l0.064,0.006c-1.828-1.037-3.803-1.916-5.895-2.613
	c-2.801-0.943-5.801-1.564-8.912-1.846c-3.006-0.264-6.141-0.217-9.322,0.152c-2.496,0.287-5.033,0.773-7.553,1.447
	c0.732-0.135,1.477-0.258,2.221-0.369C44.412,1.787,46.633,1.623,48.859,1.623z"/>
</svg>
