<?xml version="1.0" encoding="utf-8"?>
<!DOCTYPE svg PUBLIC "-//W3C//DTD SVG 1.1//EN" "http://www.w3.org/Graphics/SVG/1.1/DTD/svg11.dtd">
<svg xmlns="http://www.w3.org/2000/svg" overflow="visible">
<g>
<path fill="#f9c393" d="M546.3 267.5l-4.2-17.8-18.7-16-7.9-34.1 3.3-22 4.5-14.2 2.4-12.7 4.5-5.1 3.9-4.8 2.4-8.2a70.9 70.9 0 0 1 6.3-15.7 70.9 70.9 0 0 1 8.8-13.3l7.9-6.6 10.9-5.7 16.3-8.5 9.4-4.5 14.5-.6L664 88.9l6.6 48 9.1 36.8-2.6 15.3-17.2 18.7-12.1 5.4-17.2 28.7-2.7 18.1-75.5 53.1z"/>
<path fill="#f6aa34" d="M658.3 168.1l6-3.3 13.9 1.5 3.9-12.1 1.8-22.3-5.1-21.1-11.4-18.5-20.2-18.1-3-18.1 6.6-6.6 6.9-3c-8.1-6.8-13.6-9.9-23.6-13.3a62.1 62.1 0 0 0-14.8-3.3l-16.6 6.3L591 47l5.1 30.5c-.2.8-.9.1-.3 2.1 1.5 5.1 10.9 8.8 39.6 4.8 10.9-.3 13.5 3.1 19.3 9.1 10.8 11.1 12.7 28.4 2.4 39.6-14.2 15.4-18.4 24.5-10 34.4a18.7 18.7 0 0 0 3.9 3.6z"/>
<path fill="#00a6de" d="M519.4 287.1l11.2-3 27.5 6 47.1-6.9 32.6-4.5 45 25.3 26.9 29.6 7.2 26 9.7 3 1.5 8.5 1.5 10.2 12.1 1.2 7.5 9.7 21.5 9.1 2.1 17.8 15.1 7.8-7.9 17.2-57.9 37.8-16.4-2.1-6-16.6-11.2-5.5-10.8 30.2-11.8 24.2 8.1 10.6-11.1 11.7 5.4 18.5-17.2 42.5-91.2 44.7-90.6-34.7 3.6-76.1-13.6-14.2v-16.9l7.6-43.8-8.2-24.1-16 21.7-7.5 16.3-15.1 1.2-46.8-.6-7-26.9-3.9-22 6.6-8.8 13-11.4 7-23.6 8.7-.9 20 7.5 11.1-12.3-.6-13.9 15.1-1.2 6.7-21.2 13.6-16.3 15.1-10.9 14.5-8.4 26.2-11.5z"/>
<path fill="#fff" d="M529.1 301l.6-33.2 3.9-6.4 10.6-5.1 8.1 28.7-10.5 6.9-8.8 7.6-3.9 1.5zm52.8 20.2l-13.9-35 6.7-8.7 17.5-11.5 19.3-8.8 13.9-5.4 9.1-13.3 11.5 2.7-2.5 10-1.5 11.2-3.3 11.4-21.1 18.5-35.7 28.9z"/>
<path fill="#f9c393" d="M417.4 471.9l4.2 53.8 10.6 28.4 6-3.1 13.3-11.4 14.2-5.8 19.9 29.3-2.4 16.3 2.4 12.1-3.9 14.8-8.2 6-.6 9.1-7.8-1.2-14.2-13.9-12.1-10.6-7.5 5.5-16.7-.9-10.5-12.7-27.8-56.8-10-40.2-1.5-28.9 7-9.4 14.8 8.5 30.8 11.1z"/>
<path fill="#b05736" d="M444.8 657l10.6-40.7 4.2.3 8.8 4.2 5.4-3.3 4-9.1 6.9-6.9 23.9 12 25.9 7.9 23.9.3 12.1-1.5 19.3-6 16-6.4 18.4-2.1 21.5 19 1.2 29 1.2 2.4 13.6.9-.9 18.5 3.3 3.6-7.6 17.5 11.8 6.6 3 49.9-2.7 36.8 1.8 60.1 16 26.6 16.6 64-3.3 9.9-16.9 15.4-42 9.4-40.4 2.7-18.5-2.7-9-15.1 5.4-33.5-2.7-10.3 5.4-12.1-13.3-9 4.6-16.9-11.5-68.9-10.3-46.2-6.6-28.7-5.4 16-7 33.3-10.9 29.6-1.2 16.9 4 19.6-9.1 13.9 5.4 17.5-12.6 23.6 8.1 4.5-2.1 51.6-14.2 12.1-41.1 7.5-47.4-3.9-32.3-21.4.9-16.6 13.3-48.6 16.6-20 10.9-30.2 3.6-16.6 5.1-32.6 4-40.5 3.6-32 8.7-13.3-3.9-16 10.9-10.5-7-21.5z"/>
<path fill="#fff" d="M436.7 1060.8l9.1-33.2 16.6-47.2H421l-.6 36.9-13 36.8 29.3 6.7z"/>
<path fill="#a06e21" d="M328.6 1094.3l7.8-13 11.2-5.1 26.3-8.8 14.5-7.5 16.3-10.6 28.7 12.7 14.2-4.6 1.5 39.6-17.5 1.2-14.2-3.6-11.2 5.4-77.6-5.7z"/>
<path fill="#a99990" d="M368.7 1097.6l-30.8-9.7-10.2 3.1-2.4 7.8 43.4-1.2z"/>
<path fill="#a06e21" d="M634.8 1057.4l14.2-17.5 16.9 5.2 22 13.9 20.6 12 13.3 3.1 21.7 11.4-20.8 13.9-53.8-.3-14.5-3.9-17.2 5.7-10.3-3.6-1.5-32.6 9.4-7.3z"/>
<path fill="#a99990" d="M742.3 1099.4l-33.5-.6 15.1-8.7 21.1-.3.3 9-3 .6z"/>
<path fill="#fff" d="M645.1 1061.7l21.4-12.7-10.9-25.4-4.8-50.4-25.7 4.5-7.8.6 8.1 35.4 13.9 47.4 5.8.6z"/>
<path fill="#f9c393" d="M618.5 591.5l20.8-22.3 22.4-14.2 11.1-.6 3.4 5.4 1.5 10 8.1-7.3 12.1-16.9 10-19.3 7.2-20.3 7.9-20.8 4.8-20.5 17.5-13.3 16.6-7.6 15.7-.9 14.5 18.2-8.4 22.3-17.3 22.3-14.8 20.3-14.4 25.3-17 22.4-32 22.9 4 24.5-14.2 9.7-6.7-.9-9.6-7.3-17.9 8.8-10.5-5.5-11.8-17.5-3-16.9zm-52-391.7a31.7 31.7 0 1 1 31.7 31.7 31.7 31.7 0 0 1-31.7-31.7"/>
<path fill="#f9c192" d="M567.7 199.8a30.5 30.5 0 1 1 30.5 30.5 30.5 30.5 0 0 1-30.5-30.5"/>
<path fill="#f8c091" d="M569 199.8a29.3 29.3 0 1 1 29.3 29.3 29.3 29.3 0 0 1-29.3-29.3"/>
<path fill="#f8be91" d="M570.2 199.8a28.1 28.1 0 1 1 28.1 28.1 28.1 28.1 0 0 1-28.1-28.1"/>
<path fill="#f8bd90" d="M571.4 199.8a26.9 26.9 0 1 1 26.9 26.9 26.9 26.9 0 0 1-26.9-26.9"/>
<path fill="#f8bc90" d="M572.6 199.8a25.7 25.7 0 1 1 25.7 25.7 25.7 25.7 0 0 1-25.7-25.7"/>
<path fill="#f8bb8f" d="M573.8 199.8a24.5 24.5 0 1 1 24.5 24.5 24.5 24.5 0 0 1-24.5-24.5"/>
<path fill="#f7b98f" d="M575 199.8a23.3 23.3 0 1 1 23.3 23.3 23.3 23.3 0 0 1-23.3-23.3"/>
<path fill="#f7b88e" d="M576.2 199.8a22 22 0 1 1 22 22 22 22 0 0 1-22-22"/>
<path fill="#f7b68e" d="M577.4 199.9a20.8 20.8 0 1 1 20.8 20.8 20.8 20.8 0 0 1-20.8-20.8"/>
<path fill="#f7b58d" d="M578.6 199.9a19.6 19.6 0 1 1 19.6 19.6 19.6 19.6 0 0 1-19.6-19.6"/>
<path fill="#f6b48c" d="M579.8 199.9a18.4 18.4 0 1 1 18.4 18.4 18.4 18.4 0 0 1-18.4-18.4"/>
<path fill="#f6b28c" d="M581 199.9a17.2 17.2 0 1 1 17.2 17.2 17.2 17.2 0 0 1-17.2-17.2"/>
<path fill="#f6b18b" d="M582.2 199.9a16 16 0 1 1 16 16 16 16 0 0 1-16-16"/>
<path fill="#f6af8a" d="M583.4 199.9a14.8 14.8 0 1 1 14.8 14.8 14.8 14.8 0 0 1-14.8-14.8"/>
<path fill="#f5ae8a" d="M584.7 199.9a13.6 13.6 0 1 1 13.6 13.6 13.6 13.6 0 0 1-13.6-13.6"/>
<path fill="#f5ac89" d="M585.9 199.9a12.4 12.4 0 1 1 12.4 12.4 12.4 12.4 0 0 1-12.4-12.4"/>
<path fill="#f5ab89" d="M587.1 199.9a11.2 11.2 0 1 1 11.1 11.1 11.2 11.2 0 0 1-11.2-11.2"/>
<path fill="#f4a988" d="M588.3 199.9a10 10 0 1 1 10 10 10 10 0 0 1-10-10"/>
<path fill="#f4a887" d="M589.5 199.9a8.8 8.8 0 1 1 8.8 8.8 8.8 8.8 0 0 1-8.8-8.8"/>
<path fill="#f4a787" d="M590.7 199.9a7.5 7.5 0 1 1 7.5 7.5 7.5 7.5 0 0 1-7.5-7.5"/>
<path fill="#f4a586" d="M591.9 199.9a6.3 6.3 0 1 1 6.3 6.3 6.3 6.3 0 0 1-6.3-6.3"/>
<path d="M627.1 27.1a6 6 0 0 1 1.8 1.2 2.7 2.7 0 0 1 .6 2.1c-.3.7-1.4 1.6-1.9 1.6-3.8-.7-7.2 1-10.6 2.2s-7.9 2.7-11.3 5.4-4.8 3.2-7.1 5a9.6 9.6 0 0 0-3.7 6.8 18.5 18.5 0 0 0 1 8c1.6 4.4 2.8 9 4.1 13.6a7.1 7.1 0 0 1-3.1 8.3 33.3 33.3 0 0 1-11 5.2c-3.2.7-6.2 2.6-9.2 4-1.3.6-1.6 1.7-1.3 3.2a24 24 0 0 1 .4 7.2c-.4 3.4-.9 4.1-4.2 4.6l-2 .3c-.3-1.6-.8-3.3-.9-4.9s-1.4-3.7-4.3-2.9a12 12 0 0 0-6.1 4c-3.1 4-5.9 8.2-8.8 12.3-1.1 1.6-1.9 3.6-3.1 5.1a16.6 16.6 0 0 1-3.7 3.2 1.7 1.7 0 0 1-2.5-1.2 4.7 4.7 0 0 1 .6-2.8c1.5-2.3 3.3-4.5 4.9-6.8a10.1 10.1 0 0 0 1.2-3 9.1 9.1 0 0 1 3.8-5.1 23.1 23.1 0 0 0 3.8-3.5c2.4-2.7 5.5-4.4 8.5-6.3l14.3-8.5a41.4 41.4 0 0 1 5.7-2.6 27.5 27.5 0 0 0 7-3.5c1.5-1.1 2.5-2.4 2-4.4-1.2-4.7-1.6-9.5-2.4-14.2s-2.1-8.7-.9-13.2a6.6 6.6 0 0 1 1.2-2.7c4.3-4.7 9-8.8 15-11.1s10.5-3.9 15.8-5.8l2-.8h4.4z"/>
<path d="M511.8 901.8l5.9 2.6 2.3 1c2.3 1.2 2.4 1.7 2.2 4.4-.6 6.2-1 12.3-1.5 18.5a58.4 58.4 0 0 0-.3 6.5c.1 3.4.5 6.9.8 10.3a35.8 35.8 0 0 1-2.3 16.3c-.8 2-2.6 3.7-4.3 5.2a66.3 66.3 0 0 1-12.7 9.4 10.2 10.2 0 0 1-2.5.9 20.1 20.1 0 0 0-7.5 3.1 3.1 3.1 0 0 1-2.2.6c-2.8-.7-5.2.4-7.7 1.3a49.5 49.5 0 0 1-11.4 2.7 5.4 5.4 0 0 0-4.6 3.2c-1.5 2.8-3.4 5.4-4.1 8.6s-3.5 8-5.2 12a80.3 80.3 0 0 0-2.7 8c-.8 2.5-1.3 5.1-2.2 7.6s-2.8 6.9-4 10.4c-.7 1.9-.8 3.9-1.4 5.8s-2 5.6-2.9 8.5a17.2 17.2 0 0 0-.6 1.8c-.3 1.3.1 2.3 1.5 2.3s3.9 1.4 5.4 2.9a41.3 41.3 0 0 1 3.5 4.2c1.1 1.5 1.1 3.2 1.1 5v4.8c0 4.5.1 9.1 0 13.6-.1 2.1-.5 4.1.2 6.2a4.9 4.9 0 0 1-.2 2.4 29.8 29.8 0 0 0-1.2 4.5c-.2 2.4-1.8 3.3-3.6 3.8s-4.6 1.1-6.8 1.6a14.9 14.9 0 0 1-7 0 48.7 48.7 0 0 0-5.1-.7 3.3 3.3 0 0 1-1.3-.2c-3-2-6.6-1.8-9.4-2.7-2.5 1.5-4.6 2.9-6.8 4s-6.6.9-9.9 1.1-5.8.3-8.7.3-4.4-.2-6.7-.4a19.4 19.4 0 0 0-3.5-.1c-5 .7-9.9 0-14.9-.3-1.2-.1-2.5.3-3.8.3H350c-3.1 0-6.2.3-9.2 0s-7.4.3-11.1.3l-2.5-.2c-1.4-2.5-2.9-5-2.5-8a14.8 14.8 0 0 1 3.8-8.8c3.6-3.9 8.2-6 12.8-8.2s9.6-4.4 14.4-6.6c3.2-1.5 6.6-1.8 10.1-2.1a13 13 0 0 0 6.1-2.1 37 37 0 0 1 5.1-2.6c5.8-2.6 11.5-5.4 16.6-9.3 3.4-2.6 6.8-5.2 10.8-6.8a6.9 6.9 0 0 0 4.2-4.4c.6-1.8 1.9-3.3 2.9-4.9a26.2 26.2 0 0 0 3.1-9.5 6.2 6.2 0 0 1 .3-1.6 18 18 0 0 0 1.5-8.5 13.8 13.8 0 0 1 1.8-7.6 1.9 1.9 0 0 0 .3-1c-.4-3.6.5-7.2-.5-10.8s-.8-5.7-1.3-8.6-.7-4.1-1-6.2a2.2 2.2 0 0 0-1.7-1.9c-4.3-1.6-8.5-3.1-12.7-4.8s-6.4-2.3-9.1-4.7-5.1-3.2-7.6-4.8a25.6 25.6 0 0 1-7.7-6.8 15.3 15.3 0 0 1-2.9-10.8c.4-3.9.7-7.8 1.1-11.7a59.3 59.3 0 0 1 3.8-16.4c1.2-3.1 1.8-6.5 2.9-9.6s1.7-6.5 2.8-9.6c2.1-6.1 4.8-11.9 7.5-17.8a23.9 23.9 0 0 1 3.6-4.8l5.2-6c1.1-1.2 2.4-2.3 3.4-3.6s3.1-4.5 4.6-6.7a1.3 1.3 0 0 0 .2-1c-.9-2.2.5-3.9 1.2-5.7 2.4-6.8 4.9-13.5 7.4-20.2.5-1.4 1.5-2.7 1.9-4.2s1.2-5.9 1.9-8.8 2-7.9 2.9-11.9c.4-1.8.4-3.8.7-5.7.7-5.2 1.5-10.4 2-15.7.3-3.1.4-6.3.5-9.4a14.5 14.5 0 0 1 .1-1.9c.8-4.5 1.7-8.9 2.5-13.4a31.8 31.8 0 0 0 .4-4.9c.1-5.6 0-11.1.2-16.7.1-1.9.8-3.7.9-5.6.3-5 .4-10.1.8-15.1a17.7 17.7 0 0 1 1.2-5.8 20.9 20.9 0 0 1 3.5-4.8c1.7-2 3.6-3.9 5.4-5.8s1.4-1.8.5-3.3a11.2 11.2 0 0 0-1.9-2.6c-3.1-2.9-4.6-8.7-2.8-12.5.7-1.5 2.1-2.7 3.2-4l5.1-6.1a4.3 4.3 0 0 0 .6-4.4c-1.3-3.9-1.9-8.1-3.6-11.7s-.4-7-.2-10.5a86.7 86.7 0 0 1 1.9-10.7c.7-3.3 1.4-6.6 2.2-9.8s1.7-6.9 2.5-10.3a22.3 22.3 0 0 1 3.8-7.8l1.1-1.7c-3.7-2.6-6.5-6-9.2-9.4l-2.2-3.1c-1.4-1.9-2.3-2.1-4.3-.7-6.4 4.4-13.4 6.2-21 4.8-2.6-.5-4.9-2.2-7.3-3.5a5.3 5.3 0 0 1-1.7-2.4c-1.9-4.3-4.7-8-7.3-11.8-3.8-5.6-7.5-11.1-10.4-17.3s-5.6-11-8-16.6-5.5-10.7-7-16.5c-.9-3.2-2.4-6.3-3.4-9.5s-2-6.9-3.1-10.4l-3.1-10.4c-.3-.9-.4-1.8-.6-2.7-.7-3.4-1.4-6.7-2.1-10.1s-.6-4.1-.9-6.2-.6-5.2-1.1-7.8a47.8 47.8 0 0 1-1-13.6 15.6 15.6 0 0 1 5.2-10.5 22 22 0 0 0 1.6-1.8c1-1.1.9-2.1.1-3.4-2.6-4.1-5.2-8.1-7.5-12.3a22.2 22.2 0 0 1-2.8-7.4c-.5-3.5-.3-7.1 2.1-10.1l5.9-7.5c2.9-3.8 6.8-6.5 10.4-9.5 1.2-1 2.4-1.9 3.6-2.9a5.3 5.3 0 0 0 2.1-4.3 32.3 32.3 0 0 1 2.8-14.6 11.3 11.3 0 0 1 9.3-7.2l5.4-.6a11 11 0 0 1 5.3.8 30.7 30.7 0 0 0 5 1.2 15.3 15.3 0 0 1 6.6 3.1 2.1 2.1 0 0 0 3 0c.9-.7 1.9-1.1 2.8-1.7s3.1-3.4 2.2-5.9-.9-7.7-.7-11.6a3.1 3.1 0 0 1 .8-2c3.6-3.3 7.7-5.1 12.7-3.9s4.5.2 5.1-3.4a25.5 25.5 0 0 1 1.5-5.2 51.5 51.5 0 0 1 2.8-6.2 48.6 48.6 0 0 1 3.2-4.7c2.1-2.9 4.2-5.7 6.2-8.6a43.4 43.4 0 0 1 6.8-7.1c1.7-1.6 3.7-2.9 4.8-5.1a5 5 0 0 1 2.6-1.8c4.3-1.8 8.1-4.5 11.9-7.2a52.9 52.9 0 0 1 5.5-3.5c2.4-1.3 4.9-2.3 7.4-3.4l9.2-4.1 19.9-8.9c2.1-.9 2.4-1.1 1.9-3.3s.5-6 .3-9a2.7 2.7 0 0 1 .4-1.3l4.1-7.9a3.8 3.8 0 0 1 1.2-1.4l7-4.1.8-.3c1.6-.8 1.7-1.7.5-2.9l-5.1-4.6c-2.5-2.4-5-4.8-7.3-7.3a17.7 17.7 0 0 1-2.7-4.1c-2-4.1-4.1-8.1-5.9-12.3-1-2.3-1.3-4.9-2-7.3-1.5-5.2-1.8-10.5-2.4-15.9a42 42 0 0 1 .5-8.7c.6-5 1.1-10.1 2-15a94.8 94.8 0 0 1 2.7-10.5 13.8 13.8 0 0 1 2-3.6 2.9 2.9 0 0 0 .4-2.8c-1.1-3.1-.7-6.2.2-9.1a11.6 11.6 0 0 1 4.6-6.5l4-2.8V141a4.2 4.2 0 0 1 .2-1.3 29.6 29.6 0 0 1 1.9-4.8 11.7 11.7 0 0 1 3.1-3.7c2.7-1.9 5.3-.6 5.7 2.7a25.3 25.3 0 0 1-.1 4.1 10.2 10.2 0 0 1-.4 3 38 38 0 0 1-2.2 4.1l1 .6c2.9 1.4 5.9 2.7 8.8 4.1a16.5 16.5 0 0 1 3.1 2.3 2.4 2.4 0 0 1 .6 3 2.5 2.5 0 0 1-2.6 1.6 18.4 18.4 0 0 1-9.2-3 17.1 17.1 0 0 0-7.9-2.5 2.5 2.5 0 0 0-2.8 1.7 12.7 12.7 0 0 0-1.1 4.4 4.7 4.7 0 0 0 1.7 3.2c4.5 3.2 9.2 5.9 15 5.6 1.3-.1 2.4.2 2.8 1.6s-.3 2.2-1.7 3-4.3.3-6.4.2l-3.7-.2-4.3-.6-3.7-1c-1.7-.4-2.7 0-3.2 1.6a79.7 79.7 0 0 0-2.7 11.1A146.5 146.5 0 0 0 522 205a60.7 60.7 0 0 0 2.3 15.6 63.8 63.8 0 0 0 6 13.4c3.2 5.7 8.2 9.7 13.2 13.6s11.9 6.5 18.4 8.7c1.7.6 3.7.4 5.6.5l4.1.2c1.3.1 2.5.4 3.2 1.7-1.3 2.3-3.1 3.6-5 2.9s-4.3-.2-6.4-.6-4.7-.4-7-.6l-1.9-.2a3.9 3.9 0 0 0-4.4 4.5c.3 1.9.6 3.8.9 5.6a4.9 4.9 0 0 0 .7 1.8c1.8 2.7 3.7 5.4 5.4 8.1a5.3 5.3 0 0 1 .4 2.9c-.1 3-.2 3 2.7 3.5s3.6.8 4.9-1.2l.5-.3c2.6 0 3.4-2.3 4.9-3.8a42.7 42.7 0 0 1 8.2-6.7c4.2-2.4 8.2-5.1 12.2-7.8s11-6 16.8-8.5 9.3-4 13.9-6.2a7.6 7.6 0 0 0 2.3-2.6c1.4-2 2.7-4.1 4.2-6a23.5 23.5 0 0 0 3.2-5.6c1.5-3.7 3.1-7.3 5.9-10.3s2.5-3.8 3.7-5.6l1.5-2.2c.4-.5.9-.9 1.2-1.5s.6-2.9-1.1-3.7-2.4-1.3-2.4-2.9a3.2 3.2 0 0 1 4.1-3.4l3.7.9a13.6 13.6 0 0 0 11.7-3l6.5-5.4a7.2 7.2 0 0 0 1.4-1.6c2.7-4.3 5.5-8.6 8-13a17.7 17.7 0 0 0 2.4-10c-.2-3.6-3.3-6.8-6.9-6.6a49.8 49.8 0 0 0-8.4 1 7.6 7.6 0 0 0-4 2.2c-1.2 1.2-2.9 1.9-4.3 2.8a2 2 0 0 1-2.5-.3 1.8 1.8 0 0 1-.4-2.5c1.1-1.5 2.3-3.2 3.9-4.1a37.6 37.6 0 0 1 14.3-5.1 15.7 15.7 0 0 1 5.1.5c2.3.5 3.2.4 3.7-1.8 1-3.8 1.9-7.8 2.7-11.7s.6-9.3.5-13.9a61.7 61.7 0 0 0-2.7-15c-1.3-4.8-3-9.5-4.7-14.3a27.7 27.7 0 0 0-8.4-11.6c-2.9-2.5-5.5-5.3-8.4-7.8a56.2 56.2 0 0 0-6.3-4.8 11.5 11.5 0 0 1-3.9-4.5c-.8-1.5-1.8-2.9-2.7-4.4l-.2-.2c-2.3-5.8-5-11.6-1.8-18a5.4 5.4 0 0 0 .5-2.9 2.9 2.9 0 0 1 1.8-3.3c4.1-1.7 7.9-4.1 12.5-4.5 2.1-.2 4.1-.8 6.1-1.2a8.6 8.6 0 0 1 6 1.6c-1.2 2.5-3.7 3-6 3.5s-4 .6-5.9 1.2-5 1.9-6.1 4.6a11.7 11.7 0 0 0-.8 3.4c-.5 5.7 1.4 10.7 4 15.6a19.4 19.4 0 0 0 5.4 6.4c6.2 4.7 11.8 10 15.9 16.7 2.5 4.1 5.1 8.2 7.2 12.5a31.3 31.3 0 0 1 3.1 11.2c.1.9.3 1.8.5 2.7s.5 3.9.8 5.9l.6 4.6.9 7.8a29.1 29.1 0 0 1 .5 5.1 70.6 70.6 0 0 1-1.1 7.5 63.3 63.3 0 0 0-1.3 6.4 9.8 9.8 0 0 1-3.3 6.7 3.8 3.8 0 0 0-1.1 4.4 21 21 0 0 1 .2 11.3c-1.6 6.4-5 11.6-8.8 16.8a51.9 51.9 0 0 1-9.7 10.6 40.9 40.9 0 0 1-9 5.1c-3.5 1.5-6.6 3.6-8.4 7.3a7.2 7.2 0 0 1-1.7 2.7c-2.1 1.6-3 3.8-4.1 6s-1.4 2.7-2.3 4.3l2.2.5 3.2.4c5 .4 7.4 6.1 6.8 10.1a6.2 6.2 0 0 1-.7 2l-4 7.1a5.9 5.9 0 0 0-.3 5.5 15.1 15.1 0 0 1 1.5 5.2 5.1 5.1 0 0 1-1.5 3.7c-2.9 2.5-1.9 4.8-.2 7.3a6.2 6.2 0 0 0 3.6 2.7 47.6 47.6 0 0 1 6 2.6 64.7 64.7 0 0 1 7.2 3.3c3.8 2.3 7.4 4.9 11.1 7.4s8.2 5.7 12.5 8.4a52.5 52.5 0 0 1 9.7 8 10.5 10.5 0 0 0 2.2 1.9c2.5 1.4 4.4 3.5 6.5 5.4a9.1 9.1 0 0 1 2.9 4.5 8.4 8.4 0 0 0 1.1 2.2 32.9 32.9 0 0 0 3.2 5c2.6 2.9 4 6.4 5.4 10a26.2 26.2 0 0 1 .8 3.4 4.2 4.2 0 0 0 .3 1.3c2.4 3.7 2.5 7.9 3.1 12 .1.4 0 .9.2 1.4s1.2 2.4 3.1 2.4h2.7c4 .2 5.5 3.1 6.6 6.3s1.2 3.6 1.8 5.4a3.3 3.3 0 0 1-.9 3.8c-1.7 1.6-.4 3 .2 4.4s1.9 1.2 3.1 1l8-1.3c2.3-.4 3 .1 3.1 2.5a13.5 13.5 0 0 1 0 2.5c-.3 2.9 1.3 4.7 3.6 5.8a18.4 18.4 0 0 1 5 3.2 3.8 3.8 0 0 0 3 .8c4.4-.8 8.1.8 11.3 3.6s2 4.4 2.3 6.8.3 3.4.4 5.2c.2 4 2.5 6.9 5.2 9.6a3 3 0 0 0 1.5.6 11.9 11.9 0 0 1 5.9 3.2c.7.6 1.4 1.1 2.1 1.7 2.6 2.1 2.8 4.5 1.6 7.5s-3.4 5.6-5.1 8.3l-.7 1.2a5.4 5.4 0 0 0 .8 6.7 27.4 27.4 0 0 1 2.6 4.4c1.3 2.2 2.5 4.5 3.8 6.6a8.4 8.4 0 0 1 1.2 6.7c-.8 3.6-1.2 7.4-2.1 11a38.8 38.8 0 0 1-4.6 10.4c-3.7 6.2-8.4 11.6-13 17.2-1.9 2.3-4.4 4.1-6.4 6.3a98.4 98.4 0 0 0-7 8.3 43.4 43.4 0 0 0-5.7 11c-1.1 3.1-3.4 5.7-5.2 8.5l-2.4 3.9a62.7 62.7 0 0 1-7.1 10.6c-2.1 2.4-3.9 4.9-5.9 7.5l-4.8 6.5c-1.1 1.5-1.6 3.3-2.8 4.9a52.7 52.7 0 0 1-9.7 9.8c-5.3 4-10.7 7.8-16.1 11.7l-1.2.7a8.7 8.7 0 0 0-4.4 4.3 4.6 4.6 0 0 1-.6 1.2c-2.5 2.6-1.8 5.5-.7 8.3a69.5 69.5 0 0 0 3.6 8.2c1.8 3.3.6 7.7-1.9 10.2a30 30 0 0 1-16 8.2c-4 .7-7.8.1-10.9-2.9-1.3-1.2-2.8-2.1-4-3.3s-6.2-1.4-8.2 1a40.8 40.8 0 0 1-3.8 4.3 4.3 4.3 0 0 0-1.4 3.3c-.3 5.3-.2 10.7-1.5 16-.4 1.5.3 2.1 2 2s4.8-.7 7.2.1a2 2 0 0 0 1.1 0c3.8-1.1 5.4 1.7 7.1 4.2a4.7 4.7 0 0 1 .2 4.9 40.3 40.3 0 0 0-2.3 5.5c-.9 2.5-.7 2.7 1.6 4.1a9 9 0 0 1 2.3 1.9 4.7 4.7 0 0 1-.1 6.7c-1.9 2.2-3.9 4.3-6 6.3s-1.4 3.5-2.2 5.5a7.1 7.1 0 0 0 2 1.2c4.7.8 7.2 4 8.7 8.2a35.5 35.5 0 0 1 1.7 11.8c0 8-.3 16.1.5 24 .6 5.8.9 11.6 1.4 17.4a45.9 45.9 0 0 1-.5 6.8 5.9 5.9 0 0 0-.1 2.1c1.3 4.1.6 8.1 0 12.1a42 42 0 0 0-.5 12.7c.6 4 1.1 8 .3 12a3.3 3.3 0 0 0 0 .5q-.3 10.2-.6 20.5c-.1 2.7-.1 5.5-.2 8.2a64.7 64.7 0 0 0 2 17c.2.8.2 1.6.3 2.4a18 18 0 0 0 2.5 6.3 83.2 83.2 0 0 0 8.2 11.8 30.2 30.2 0 0 1 3.7 6.6 12.7 12.7 0 0 1 1.6 6.5c-.2 3 1.5 5.6 2.5 8.3s2.3 5 2.8 7.6a60.1 60.1 0 0 0 3.1 9.8c.7 1.9 1.1 3.8 1.7 5.7s1.9 5.3 2.7 8a63.3 63.3 0 0 1 2.5 14.7c.2 2.9.5 5.8.8 8.7a14.7 14.7 0 0 1-2.7 10.3 22.7 22.7 0 0 1-7.3 6.8c-3.6 2.2-6.9 4.8-10.5 6.8s-5.7 2.3-8.6 3.4l-6.5 2.7a10.9 10.9 0 0 1-3.1.7c-1.8.1-3.7.1-5.5 0s-4.9 1.3-7.2 2.4a3 3 0 0 0-.8 2.6c1.6 5.7 1.1 11.5 1.4 17.3a40.8 40.8 0 0 0 1.8 9.9c1.3 4.5 2.8 8.8 2.6 13.6a10.3 10.3 0 0 0 .3 3c.8 3.4 1.6 6.9 2.7 10.2a31.6 31.6 0 0 0 2.5 5.1 43.5 43.5 0 0 0 3.1 5.4 8.9 8.9 0 0 0 3.4 3c4.5 1.9 8.2 5.1 12.2 7.7s10 6.5 15.8 8.5a18 18 0 0 1 4.6 2.4 13.2 13.2 0 0 0 8.2 2.4 19 19 0 0 1 8.1 2c4.5 2 8.9 4.2 13.4 6.1a46.5 46.5 0 0 1 14.5 9.5 9.7 9.7 0 0 1 1.9 3.3 12.5 12.5 0 0 1-.1 10.3c-1 2.1-2 2.8-4.2 2.5-9.6-.9-19.3-.1-28.9-.3h-11.5c-1.7 0-3.4.4-5.2.4l-9-.3c-1.3 0-2.5.3-3.8.4h-7.3l-5.7-.4c-3.1-.1-6.2.3-9.2-.1a15.1 15.1 0 0 1-5.7-2.4c-1.5-.9-2.8-1.5-4.5-1l-11 3.3a23.5 23.5 0 0 1-5 1.2 78.4 78.4 0 0 1-9-.1c-5.2-.3-7.7-3.9-8.1-8.3a19.1 19.1 0 0 0-.3-2.4c-.4-1.9-.9-3.7-.1-5.6a3.1 3.1 0 0 0 .1-1.4c-.6-7.3.2-14.7-.2-22-.2-4 2.5-6.3 4.7-8.9a6.3 6.3 0 0 1 4.7-2.4c2.2-.1 2.7-1.3 1.8-3.4s-1.6-3.2-2.3-4.9a23.1 23.1 0 0 1-1.6-4.9c-.6-4.1-2.6-7.7-3.4-11.7a47.8 47.8 0 0 0-1.8-4.8c-.9-2.7-1.6-5.4-2.4-8.1a1.6 1.6 0 0 0-.3-.8c-2-1.4-1.3-3.5-1.7-5.4s-1.3-5.3-1.9-7.9c-.3-1.1-.4-2.3-.6-3.4s-.2-1.4-.3-2.2a28.9 28.9 0 0 1-.9-4.8c0-1.9-2.2-2-2.6-3.6s-1.4-2.5-2.3-3.9a8.6 8.6 0 0 0-2 0 46.2 46.2 0 0 1-17.1.5c-1.9-.3-3.8-.2-5.7-.6a19.8 19.8 0 0 1-4.8-1.7 35.7 35.7 0 0 1-6-3.7c-4.7-3.8-7.8-8.5-8.1-14.7-.1-2.9 1-5.5 2.1-8.1a55.1 55.1 0 0 0 4.8-16.4 6.9 6.9 0 0 0-1.2-4.9c-1.1-1.6-2-3.3-3.1-4.8a9.3 9.3 0 0 1-1.5-5.9c0-3 1.5-5.2 3.1-7.4s2.3-2.8 3.3-4.3 1.1-3.5-1.3-4.4-2.4-1.3-3.6-1.9-4.5-3.3-6.2-5.6a3.2 3.2 0 0 1-.6-3.1c.6-2 1.3-4 2.1-5.9 1.5-3.8 2.5-7.5 1.8-11.8s-.3-8.9-.3-13.4a13.2 13.2 0 0 0-1.7-7.3c-1-1.6-1-3.8-1.5-5.7v-.5a39.3 39.3 0 0 1-1.2-11.3 5.8 5.8 0 0 0-.5-2.4c-2.8-6.4-4-13.2-5.1-20-.4-2.3-1.2-4.6-1.7-6.9-1.2-5.6-2.2-11.2-3.3-16.8a6.2 6.2 0 0 1-.3-1.3c.1-4.3-1.1-8.2-2.5-12.2-.5-1.3-.3-2.9-.6-4.3-1-4.9-2.2-9.7-3.2-14.6-.5-2.4-.5-4.9-.8-7.3s-.5-3.8-.8-5.6a1 1 0 0 0-1.8-.3 14.7 14.7 0 0 0-1.3 4.4c-.8 7.4-1.1 14.8-3.1 22-1.1 4-2 8.1-3.1 12.1a4.1 4.1 0 0 1-1.8 2.6 7 7 0 0 0-2 2.8 59 59 0 0 0-2.4 5.5 28.1 28.1 0 0 0-1.1 3.9c-.4 1.6-.4 3.3-1 4.8a43.4 43.4 0 0 0-2.8 10.8c-.6 3.8-1.7 7.5-1.3 11.3a21.7 21.7 0 0 0 1.8 6.8c2.2 4.8 3.5 9.7 2 15a6.2 6.2 0 0 0-.3 1.6c0 2.2-1.1 3.7-2.7 5.2a18.6 18.6 0 0 0-3 3.5c-2.1 3.2-1.1 6.6.3 9.7a51 51 0 0 1 3 10.6 2.5 2.5 0 0 1-.2 1.6c-1.6 2.9-2.5 6-4.8 8.5s-5 6.5-7.9 10.4zm-52.7-484l.9-.4a19.6 19.6 0 0 0-.2-3.1c-.3-1.3-.9-2.5-1.2-3.9s-.8-4.7-1.5-6.9a28.7 28.7 0 0 0-5.5-9.7 19.7 19.7 0 0 1-1.9-2.3c-1-1.5-.9-2.5.7-3.4a14.4 14.4 0 0 1 4-1.6 4.7 4.7 0 0 1 4 1.1c2.6 2 2.5 5.3 4.2 7.7-.4 2.3 1.1 3.9 1.8 5.8 1.6 4.5 3.4 9.1 4.2 13.8 1.1 6.3 1.3 12.8 1.9 19.3.1 1 0 2 .1 3 .3 4.6.8 9.2 1 13.9.1 2.8 0 5.7-.2 8.5s.1 8.1-.8 12.2a49.2 49.2 0 0 0-.8 5.4c-.3 2.1-.3 4.2-.8 6.2s-1.2 3.8-1.8 5.7-1.5 5.4-2.3 8.1a23 23 0 0 0-.9 3.1c-.4 3.3-1 6.6.9 9.6a52.2 52.2 0 0 0 3.7 5.1 55.1 55.1 0 0 0 8.3 8.2c1.9 1.5 3.1 3.7 2.4 6.3a23.9 23.9 0 0 1-2.2 4.7 6.5 6.5 0 0 0 .2 5.6c1.2 2 2.7 4 3.3 6.2a54.6 54.6 0 0 0 4.1 9.5c1.8 3.5 3.6 6.9 5.1 10.5s1.6 9.7-1.8 14c.8 2.4 2 4.6 2.3 7 .6 4.6.8 9.3-3.4 12.8 3.4 1.5 6.5 3.1 9.7 4.3 5 1.9 9.5 4.9 14 7.7 2 1.3 4 2.7 6.4 2.8a16.1 16.1 0 0 1 4.7 1.3 26.6 26.6 0 0 0 4.7 1.4c5.7.8 11.5 1.8 17.3 2.2s11.3 1.3 17.1.6 11.1-1.3 16.5-3.1c1.1-.4 2.5-.2 3.7-.4a22 22 0 0 0 3.4-.9l4.8-1.8c.9-.3 1.8-.4 2.6-.8l11.4-5.2 1.8-.5 10.9-2.4c.6-1.8-.5-2.8-1.5-3.9s-1.5-1.9-1.2-3.2c.8-3.3 1.3-6.7 4.4-8.7a10.2 10.2 0 0 0 1.5-1.6l4.2-4.3c3.2-3.2 6.6-6.3 9.6-9.7a74.4 74.4 0 0 1 10-9.2c5.9-4.8 12.8-8 19.6-11.3a6.6 6.6 0 0 0 3.1-3 1.8 1.8 0 0 0-.4-2.4 6.2 6.2 0 0 1-1.6-2.4c-1.1-3.2-2-6.4-2.9-9.6s-.1-4.3 2.2-5.8 3.4-2.4 5-3.7 2-3-.1-4.8a16.7 16.7 0 0 1-3.3-3.2 12 12 0 0 1-2.1-4.9c-.1-1.1.9-2.5 1.7-3.6s2.5-2.9 3.4-4.5 2.7-5.8 4.3-8.5c4-6.5 6.1-13.8 8.3-21 .8-2.8 1.4-5.6 2.1-8.4s.5-4.6 2.1-6.4 2.8-5.9 3.5-9 .8-5.5 1.2-8.3a8.4 8.4 0 0 0-.1-1.7c-3.4.2-5.2-2.1-7.2-4.1s-4.1-4.9-6.4-7.1-6.4-4.1-10.2-1.3l-1.4.8a5.5 5.5 0 0 0-2.7 4.3c-.7 4.9-1.4 7-6.5 7l-1.6-3.1c.7-1.3 1.4-2.5 2.1-3.6a4.2 4.2 0 0 1 1.4-1.6 5.8 5.8 0 0 0 3-4 11.3 11.3 0 0 1 5.8-6.6 29.2 29.2 0 0 1 7-2.4c1.7-.4 3.7-.7 5.3.5s4.6 3.6 6.7 5.6a7.6 7.6 0 0 1 1.9 2.6c1 2.5 3 4.1 4.9 5.7s2.5 1.4 4 0 4.7-4.3 7-6.5 4-3.7 5.9-5.7a33.4 33.4 0 0 1 8.3-6.5 47.3 47.3 0 0 0 4.2-2.6c5-3.5 9.5-7.7 15-10.4 3.6-1.8 7-4.2 11.2-4.8a5.7 5.7 0 0 0 1.5-.9l-2.1-1.5a17.5 17.5 0 0 1-2.6-1.5 7.8 7.8 0 0 1-2.4-5.9c-.1-2.1-.6-2.9-2.3-3.1a8.9 8.9 0 0 0-6 1.2l-4.7 2.7-2.9 2a15 15 0 0 1-3.2 2.1 72 72 0 0 0-11.7 5.8 19.2 19.2 0 0 1-10.7 2.5 3.6 3.6 0 0 1-3.3-5 22.4 22.4 0 0 1 3.1-5.4 93.4 93.4 0 0 1 6.8-7.4 36.7 36.7 0 0 1 18.3-10.3l.6-.4c-.3-1.6-.5-3.3-.9-4.9a2.5 2.5 0 0 0-2.5-2.1l-5.7-.3a4.8 4.8 0 0 1-4.6-4.9 23 23 0 0 0-.2-6c-1-4.1-2.3-8.2-3.5-12.3a9 9 0 0 0-.8-1.4c-.8-1.5-1.6-3-2.3-4.6a50.4 50.4 0 0 0-10.8-15.3c-4.7-4.7-9.6-9.3-15.5-12.8s-11.9-8.4-17.8-12.6a38.4 38.4 0 0 0-7.7-4.6c-3.9-1.6-7.7-3.7-11.5-5.7a18.5 18.5 0 0 1-2-1.4l-3.7-2.6c-2.5 2-5.2 3.5-7.2 5.6a61.6 61.6 0 0 1-8.9 8.4c-2 1.4-3.8 3.1-5.7 4.7l-6.7 6-8.5 7.6c-2.6 2.4-5.1 4.9-7.6 7.4a7.8 7.8 0 0 0-1.6 2.5 5.2 5.2 0 0 1-5.4 3.4 4.6 4.6 0 0 1-3.1-1.4 15.4 15.4 0 0 1-2.1-4.1c-.8-1.9-1.1-4-2.2-5.7a31.1 31.1 0 0 1-4.6-9.8c-.5-2.2-2-3-4.2-2.6s-5.7 1.2-8.5 1.5a54.5 54.5 0 0 0-8.9 1.2 3.9 3.9 0 0 1-4.9-2.1c-.7-1.5-.1-2.8 1.5-2.9a48.3 48.3 0 0 1 10.9-.1c3.5.5 7.1.4 10-2.1.4-1.8-.9-2.8-1.5-4.1s-1.7-2.7-3.7-2.5-3.4-.1-5.1 0-4.9.6-7.3.5a9.6 9.6 0 0 0-7.7 3.3 30 30 0 0 1-8.5 6.7 4.2 4.2 0 0 0-1.2 1.1c-2.4 2.7-4.6 5.5-7.1 8.1a18 18 0 0 0-4 6.7 12.3 12.3 0 0 1-2.7 4 1.8 1.8 0 0 1-3.1-.6 25 25 0 0 1-1.5-3.8 2.4 2.4 0 0 1 .3-1.8 29 29 0 0 1 2.4-2.9l2.2-2.4a25.4 25.4 0 0 0 2.7-3.1c1.6-2.5 3.6-4.9 4.5-7.7s.7-5.8.9-8.8-1.3-2.8-3.3-1.9a25.6 25.6 0 0 1-2.8 1 57.8 57.8 0 0 0-5.7 1.9l-13.3 6.3a31 31 0 0 1-5.4 1.9 24.8 24.8 0 0 0-11.9 6.6 17 17 0 0 1-5.1 3.6c-4.5 2-7.9 5.3-11.1 8.7s-8 8-10.5 13.2c-1.2 2.5-3.1 4.7-4.1 7.3-1.9 5.3-3.5 10.7-5.1 16-.5 1.7-.8 3.5-1.3 5.2a3.7 3.7 0 0 1-6 1.5 17.1 17.1 0 0 0-6.7-3.6 2 2 0 0 0-3 1.7 12.3 12.3 0 0 0-.1 3.2c.1 1.5.5 3.1.6 4.6a9.4 9.4 0 0 1-1.8 6.9 25 25 0 0 1-7.6 6.2 29.4 29.4 0 0 0-7.8 7.1c-2.4 3-4.8 6-5.8 9.8a4.4 4.4 0 0 1-1 1.6 6.6 6.6 0 0 0-1.3 6.6c1.1 3.5 2.2 6.9 3.3 10.4 1.7 5 4.8 9.2 7.7 13.5s6.6 6.7 10.6 9.3a39.6 39.6 0 0 0 11.8 5.5 5.1 5.1 0 0 0 5.3-1.3 16.6 16.6 0 0 0 2.7-3.8 20.3 20.3 0 0 1 6.1-7.6 15.6 15.6 0 0 0 2.1-2.3l-4.1-4.7c-1.4-1.6-2.9-3-4.2-4.6s-3.6-5.2-5.7-7.6-5.7-6.3-8.7-9.4-1.6-4.4.9-5.6c.9-.4 1.9-.5 2.8-1s3.9-.4 5.5 1.1a41.2 41.2 0 0 1 4.2 4.3c3.2 4 6.2 8.1 9.3 12.1a26.6 26.6 0 0 0 2.2 2.3zm88 209v3c0 .8.2 4.1-.4 6-1.3 4.6-.9 9.2-.7 13.8.1 3 .4 6 .4 9s-.2 4.5-.3 6.8a93.7 93.7 0 0 1-.9 10.3 7.8 7.8 0 0 0 .4 5 10.9 10.9 0 0 1 1 5.3 13.8 13.8 0 0 0 .2 1.9c.5 3.3 1.1 6.6 1.4 10a122.9 122.9 0 0 0 1.7 16.8c.4 1.8.4 3.6.6 5.4s.2 1.2.3 1.9c.6 3.7 1.3 7.4 1.9 11.1.3 2 .4 4 .7 5.9s.9 6.8 1.5 10.3 1 7.8 1.9 11.5 2.1 7.9 2.7 12 1.3 8.2 2 12.4q.2 1.5.5 2.9c.6 3 1.7 5.9 1.7 9a31.2 31.2 0 0 0 .7 6.2c.6 3 1.4 6 2.1 9a18.4 18.4 0 0 0 .7 2 26.3 26.3 0 0 1 1.4 3.8c.6 2.8.8 5.7 1.5 8.6s.5 6.1 1.9 9a25.4 25.4 0 0 1 1.9 7.9c.5 3.8.6 7.6 1.6 11.3.5 2.2.2 4.5.6 6.7.7 3.7-.9 7.5.4 11.2a42.9 42.9 0 0 1 1.5 8c.2 1.2.4 2.7-.2 3.7a17.1 17.1 0 0 0-2.6 9 3.5 3.5 0 0 1-.2.8l6.4 4.4c1.5 1.1 3 2.1 4.3 3.3s1.7 2.9.9 4.9-3.1 4.3-4.4 6.5-2.8 4-2.1 6.5 1.4 5.9 3.6 8.1a2.4 2.4 0 0 1 .7 1.1c.7 3.7 1.3 7.4-1 10.8a3.9 3.9 0 0 0-.7 1.8c-.3 4-1.6 7.6-2.8 11.4a14.2 14.2 0 0 0-.6 7.5c1 4.5 3.7 7.6 7.6 9.8s4.8 2.6 7.2 3.9a14.9 14.9 0 0 0 3.3 1.2c7.5 1.7 15 .8 22.5.4l9.5-.7a2.3 2.3 0 0 0 1-.3c2.7-1.7 5.8-1.4 8.7-1.8a62.3 62.3 0 0 0 7-.8c3.1-.7 6-1.9 9.1-2.8 5.6-1.6 11.1-3.4 16.5-5.5a37.7 37.7 0 0 0 5.8-2.5c5.2-3.1 10.5-6.2 14.9-10.5s6.1-7.3 5.3-12.6c-.5-3.2-1.2-6.4-1.8-9.6a18.5 18.5 0 0 1-.1-2.7c0-.9.1-1.8 0-2.6-.3-3.5-1.5-6.7-2.5-10s-1.5-6-2.5-8.9c-1.6-4.7-2.6-9.6-4.7-14.2-1.1-2.3-1.5-4.8-3.4-6.8s-.5-1.8-.6-2.8 0-1.4-.1-2.1-.6-2.4-1-3.6a6.2 6.2 0 0 0-.8-1.9 59.6 59.6 0 0 1-3.8-5.5 56.6 56.6 0 0 1-4.4-7.7 47.1 47.1 0 0 1-3.7-15c-.5-7.8-.6-15.6-.8-23.5s-.3-13.5-.4-20.2-.2-15.7 1.3-23.4a42.7 42.7 0 0 0 .6-7.3c0-1.8-.3-3.6-.4-5.4s0-3.8-.2-5.7a12.9 12.9 0 0 1 .4-5.9 8.7 8.7 0 0 0 .3-3.2c-.1-2-.2-4-.4-6-.4-5.6.5-11.3-.4-16.9-.1-.5-.1-1-.2-1.5s-.5-2.1-.7-3.1-.2-2.5-.4-3.8c-.6-3.6-1.4-7.1-1.9-10.7a8.1 8.1 0 0 0-7.2-7 13.6 13.6 0 0 1-4.3-1.4 2.5 2.5 0 0 1-1.1-2 8 8 0 0 1 1.6-5.1 15.9 15.9 0 0 0 1.2-1.8c1.3-2.1 2.5-4.2 3.9-6.2a4.3 4.3 0 0 0 1.1-3.5c-2.9-.3-4.3-2.2-5.4-4.5a2.3 2.3 0 0 1 .4-2.8c2.8-2.8 3.5-6.5 4.1-10.2.3-2.2.1-2.6-2.1-3s-5.9-1-8.8-1.5a3.2 3.2 0 0 1-2.1-1 17.5 17.5 0 0 1-2.4-5.7 42.4 42.4 0 0 1 .1-8.4c.2-2.4.7-4.9 1-7.3s-.4-3.2-2.8-3l-2.5.2c-2.2.2-4.3-.2-5.8-1.8s-1.7-2.9-2.8-4.7l-.8-.2a7 7 0 0 1-5-7.3 2.2 2.2 0 0 0-.9-1.7 9.3 9.3 0 0 0-2.8-.8 5 5 0 0 1-4.5-4.7c-.1-.6 0-1.3 0-1.9s-.3-1.9-2.1-1.8c-7.2.4-13.7 3.6-20.6 5.3l-.7.4a18.4 18.4 0 0 1-8.3 3.9 12.5 12.5 0 0 0-2.6.8 62.7 62.7 0 0 1-22.9 5.7c-4.1.4-8.1 2.1-12.9 1.4zm-60.6-18.6a7 7 0 0 1-5.7 6 2.5 2.5 0 0 0-2.1 2.7 7 7 0 0 1-2.6 5.5 9.7 9.7 0 0 1-13.2-1.2l-1-.9c-1.6-1.3-2.2-1.2-3.2.6a24.7 24.7 0 0 0-3 7.6 15.1 15.1 0 0 1-1.9 5.9 7 7 0 0 0-.8 2.9c-.3 2.5-.5 5-.8 7.6l-.3 3-.8 7.5c1 4.4 2.3 9 3.2 13.6.5 2.4.9 4.8 2.5 6.8a3.4 3.4 0 0 1 .7 2.5c-.5 1.9-.9 3.9-2.5 5.3l-6.9 6.5c-1.7 1.7-1.9 3.1-.6 5.1s2.3 3.3 3.5 4.9c2.7 3.4 1.8 6.7-1.9 8.4a5.7 5.7 0 0 0-1.9 1.4c-1.3 1.5-2.5 3.1-3.7 4.7-2.8 3.8-3.5 8.3-3.8 12.8s0 6.5-.4 9.8-.9 5.9-.3 8.9a14.5 14.5 0 0 1-.5 7.1 17.3 17.3 0 0 0-.9 5.3 35.7 35.7 0 0 1-.3 5.5c-.9 4.9-2 9.8-3 14.7s-1.3 7.7-.4 11.6a6 6 0 0 1 .2 1.9c-.4 4.9-1.2 9.9-3.3 14.3s-1.1 10.3-3.7 15a1.2 1.2 0 0 0 0 .5c.3 7.6-2.8 14.4-4.7 21.4-.6 2.4-1.8 4.8-1.7 7.1a18 18 0 0 1-1.7 8.4c-2.3 5.1-4.8 10-7.4 14.9-.9 1.8-2.4 3.2-3.3 5-1.8 3.6-5.4 5.9-7.5 9.2-1 1.5-2.4 2.8-3 4.5-1.9 5.5-4.7 10.6-5.8 16.4a6.3 6.3 0 0 1-.2.8c-2.1 6.8-4.5 13.6-5.7 20.7a5.5 5.5 0 0 0-.2 1.9c.7 3.3-.6 6.4-1.3 9.5s-1.5 6-.3 8.8a24.4 24.4 0 0 0 4.7 6.4 47.6 47.6 0 0 0 7.1 5.9 54.7 54.7 0 0 0 13.4 7.3c3.8 1.4 7.5 3.1 11.5 4.2a36.1 36.1 0 0 0 7.6 1.7c3.9.3 7.8.8 11.7 1.2l3.2.2 15.5-.4c1.3 0 2.5.2 3.8.1l9-.8c4.1-.5 8.4-.5 12.3-2.3a28.7 28.7 0 0 1 10.8-2.6 7.8 7.8 0 0 0 2.4-.5 35 35 0 0 0 11.3-7.4 7.4 7.4 0 0 0 2.3-4.5 49.1 49.1 0 0 0 .6-5.4c.1-4.8 0-9.6 0-14.4a4.8 4.8 0 0 1 0-1.6c1.1-2.8.8-5.6.6-8.5a120.7 120.7 0 0 1 .5-13.1c.1-2.6-.5-3.7-2.9-4.6a27.5 27.5 0 0 1-3.3-1.3c-3.1-1.7-3.9-3.1-1.7-5.6a33.2 33.2 0 0 0 3.9-6.2l7.8-14.7a3.3 3.3 0 0 0-.6-4c-1.3-1.6-2.6-3.3-3.9-4.9s-2.9-3.7-5.2-4.7a5.6 5.6 0 0 1-3-2.9c-.3-.8-1.5-1.2-2.3-1.8a5.5 5.5 0 0 1-1.7-1.2c-2.4-4.2-4.8-8.3-6.8-12.7-1.1-2.3-1.4-5.1-1.8-7.6a3.2 3.2 0 0 1 .9-2.1 7.7 7.7 0 0 1 1.8-1.2c3.1-2.1 4.8-1.5 5.8 2 .4 1.5.7 3 1.1 4.5a7.1 7.1 0 0 0 .7 1.8c1.5 2.6 2.9 5.3 4.6 7.7s2.3 3.8 4.7 4.8c2.1-1.8 4.2-3.7 6.5-5.3a7.1 7.1 0 0 0 3.2-4.6 21.9 21.9 0 0 0 .5-6.2c-.3-3.9-1.2-7.7-1.6-11.6s-1.1-7.3-.8-10.8a87.5 87.5 0 0 1 4.5-19.6c2-6.1 4.5-12.1 6.7-18.1 1.3-3.6 2.4-7.3 3.6-10.9a4.8 4.8 0 0 0 .1-1.6 19.5 19.5 0 0 1-.1-4c.8-4.5 1.8-9.1 2.8-13.6s3-11.4 3.8-17.3c.5-3.8.5-7.7 1.8-11.4a3.9 3.9 0 0 0 .1-1.6c-.2-2.6-.6-5.2-.8-7.9s-.7-6.5-.8-9.8-.2-8.3-.1-12.5.6-7.6 1-11.4 1-4.7 1-7 .7-5.9-.6-8.7a2.8 2.8 0 0 1 0-1.1v-11.8a15.1 15.1 0 0 0-.2-4.3 40.2 40.2 0 0 1-1.6-13.2c0-2.6.2-5.3 2.3-7.3a10 10 0 0 0 1-2.8 10 10 0 0 0-2.7-1.4 68.6 68.6 0 0 0-8.1-.8c-3.6-.1-7.1-.3-10.4-1.7a61.1 61.1 0 0 0-9-2.9c-4-1.1-8-2.4-12-3.7a10.1 10.1 0 0 1-2-1zm-61-42c-2.2-1.3-2.5-1.8-1.6-4a5.8 5.8 0 0 1 1.2-1.8c1.1-1.1 2.4-2 3.4-3.2a4.5 4.5 0 0 0 1.1-2.6 7.7 7.7 0 0 0-.9-2.8c-1.5-3.6-3.1-7.1-4.5-10.8s-2-6.4-2.9-9.6-2.1-7.7-3-11.6a35.1 35.1 0 0 1-.6-5.1c-.2-2-.4-4.1-.4-6.1a51.7 51.7 0 0 0-1.1-10 13.8 13.8 0 0 1 .1-3c0-.7.1-1.4 0-2.1s-.2-4.3-.3-6.5l-.6-10.4a3.4 3.4 0 0 0-2.4-3.3c-3.9-1.3-7.7-2.8-11.7-3.7a116.2 116.2 0 0 1-16.5-5.4 31.1 31.1 0 0 1-4.3-2.4l-5.7-3.7c-.7 1.2-1.4 2.1-1.9 3.1a33 33 0 0 1-1.6 3.4 9.4 9.4 0 0 0-1.6 5.7 57 57 0 0 1 0 8.2c-.6 4.1.7 7.9 1 11.8s1.7 8.7 2.7 13.1 2.2 9.8 3.4 14.6c.7 2.7 1.7 5.4 2.6 8s1.6 4.1 2.3 6.1 1.8 5.1 2.9 7.6 3.2 5.6 4.2 8.5a47.7 47.7 0 0 0 4.2 9.4c2.2 3.7 3.5 8 6.1 11.5 1 1.3 1.8 2.7 2.6 4.1l6.5 10.7a31.6 31.6 0 0 1 2.9 5.2 18.5 18.5 0 0 0 7.2 9.3c3 2.1 6 2.8 9.5 1.8a27.2 27.2 0 0 1 3.7-.8c2.7-.4 4.8-1.5 6-4.1a4.3 4.3 0 0 1 4.1-2.7c2.4.1 4.8.6 6.4 2.5a81.4 81.4 0 0 1 5.1 6.4c2.1 2.9 4.1 6.1 6.3 9a70 70 0 0 0 6.1 7 9.3 9.3 0 0 0 3.7 2.1c2.1.6 3.6-.9 3-3a14.5 14.5 0 0 0-1.3-3.6c-3.5-6.2-6.9-12.5-11.7-17.9-3.1-3.5-6.2-7.1-9.6-10.4a8.9 8.9 0 0 0-4.6-2.8c-2-.4-2.6-3.4-1.3-4.9 3-3.5 10.1-2.1 11.2 1.8a8.6 8.6 0 0 0 2.1 3.2c2.8 3.1 5.8 6 7.6 10a7.4 7.4 0 0 0 1 1.3l4.3 5.7 4.5 5.5.2.2c1.3 1.1 2.6 1.2 3.7.4s1.4-2 .5-3.6l-4.4-8.1c-2.6-4.8-4.8-9.8-8.4-14s-7.8-9.1-11.8-13.6c-2-2.2-3.8-2-5.8.1l-1.9 1.6c-.1-1.4-.2-2.2-.2-3 .1-2.6.8-3.5 3.2-4.4l1.6-.5a6.2 6.2 0 0 1 7.5 3.8 23.2 23.2 0 0 0 1.9 3.2l1.8 3a11.8 11.8 0 0 0 .8 1.7c1.6 1.9 3.2 3.7 4.7 5.6s2.7 3.1 3.3 4.9c1.3 3.9 4.3 6.7 6.5 10.1.7 1.2 4 1.7 5.1 1.1s1.7-2.1 1-4.4a19.8 19.8 0 0 0-2-4.1l-6.3-9.9c-2.1-3.3-5.1-7.5-7.5-11.4a40.8 40.8 0 0 0-6.9-8.8c-3-2.7-4.8-2.9-8.4-1h-.6c-.9-2-.8-4.5.4-5.8s5.4-2.3 6.8-1.7a11.1 11.1 0 0 1 4.8 4.3c1.8 2.6 3.9 5 5.8 7.6 2.9 4.2 5.6 8.5 8.4 12.7l2.3 3.3 1.2-.4c2.6-.7 3.4-2.1 2.8-4.6a15 15 0 0 0-1.1-3.1c-1.8-3.5-3.6-7-5.5-10.4s-4.5-8.2-7-12.2a9.3 9.3 0 0 0-7.9-4.6c-3.1-.1-5.4 1.3-7.7 3l-5.4 3.7-2 1.4c-2.3 2-4.5 4-6.8 5.9s-5.5 5-8.9 6.6a3.3 3.3 0 0 0-1.4 1.9 6.6 6.6 0 0 1-5.3 5.1zm257.3 6.1a28.4 28.4 0 0 0 5.5 11.1 34.6 34.6 0 0 1 3.4 4.9 2.1 2.1 0 0 0 2.4 1.3 7.2 7.2 0 0 0 2.8-.9c2.7-1.9 5.3-4.1 8-6s5.8-4.1 8.7-6 7-5.2 9.1-9.2a75.5 75.5 0 0 1 4.6-8c2.7-3.8 5.7-7.5 8.7-11.1a48.8 48.8 0 0 0 5.9-8.5c.4-.7.7-1.5 1.1-2.2 3.1-5.1 6.6-10 8.8-15.5s6.8-10.7 11.1-15.4c1.2-1.3 2.4-2.5 3.4-3.9s2.2-3.9 3.8-5.2c3.2-2.6 5-6.1 7.4-9.3.7-.9.9-2.3 1.7-3.1a22.1 22.1 0 0 0 5.1-7.5c1.5-3.4 2.8-6.6 2.4-10.4-.7-7.4-2.7-14.2-8.5-19.4a7.5 7.5 0 0 0-7-2l-3.5.7c-3.3.8-6.5 1.6-9.7 2.5a33.9 33.9 0 0 0-5.5 2.3l-9 4.9a38.9 38.9 0 0 0-4.7 2.7c-2.5 1.8-4.8 3.9-7.2 5.9a3.3 3.3 0 0 0-1.2 1.7 39 39 0 0 0-.5 5.9 27.2 27.2 0 0 1-1.6 10.2c-1.9 4.9-3.6 9.9-5.3 14.9-.8 2.3-1.4 4.7-2.4 6.9s-3.2 6.4-4.8 9.7a8 8 0 0 0-.3 1.1c-.5 1.5-.9 3.1-1.6 4.6-1.3 3.1-2.8 6.1-3.9 9.3s-1 5-1.7 7.4a22.7 22.7 0 0 1-2.3 5.8c-3.7 5.9-7.6 11.8-11.6 17.5-1.3 1.9-3.1 3.4-4.3 5.3s-4.1 4.8-7.3 7zM707 470.9c-.5 2.5 1 4.4 2.2 6.3s2.3 1.6 3.8 1.9a3.1 3.1 0 0 1 1.4.8c1.6 1.6 3 .6 4.5-.1s1.2-1.9 1.1-3.3a13.7 13.7 0 0 1 .3-4 2.9 2.9 0 0 1 1.1-1.8 10.5 10.5 0 0 0 3.6-4 7 7 0 0 1 1.6-1.9 135.7 135.7 0 0 1 13.9-10.5c2.7-1.7 5.3-3.6 8-5.1s5.3-2.4 7.9-3.6 5.1-2.5 7.7-3.4 7.9-2.7 12.2-2l1.9.3a3.6 3.6 0 0 0 3.9-2.2c.7-1.8 2.1-3.4 1.8-5.6a2.9 2.9 0 0 1 .6-1.2 2.9 2.9 0 0 0-.3-3.6 35.1 35.1 0 0 0-4-3.6 37.2 37.2 0 0 0-3.8-2.1c-5-2.9-7.2-7.5-7.7-13.1-.1-1.8 0-3.7 0-5.5a2.8 2.8 0 0 0-2.8-3.1h-1.6a74.2 74.2 0 0 0-17 2.1c-4.3 1.1-8.4 2.4-11.8 5.3a8.8 8.8 0 0 1-1.7.9c-2.3 1.2-4.7 2-6.8 3.8-3.7 3.2-7.4 6.3-11.9 8.4l-.6.5c-3.6 3.6-7.2 7.2-10.6 10.9s-5.2 5.2-4.7 9.3a1.1 1.1 0 0 1-.1.5c-1 2.4-1.9 4.7-2.9 7s-.5 6.2 2.7 8 4.1 2.3 6.1 3.6a5.9 5.9 0 0 1 2.7 6.6c-.6 1.2-.6 2.3-.8 3.4zm-265.3-18a15 15 0 0 0-2.4-.8h-2.7c-4-.3-7.8-1-9.9-5.1a15.7 15.7 0 0 0-6.5-6.4 15.7 15.7 0 0 1-3.7-2.7 70.7 70.7 0 0 1-7-8.3 86.6 86.6 0 0 1-5.9-10.7 56.2 56.2 0 0 1-3.8-9.6c-.8-2.9-1.2-6.1.7-8.9a4.7 4.7 0 0 0 .3-1.6 38.1 38.1 0 0 1 1.2-5.3 28.7 28.7 0 0 1 4.4-8.4 2 2 0 0 0-.1-2.9c-3-2.7-6.5-4.4-10.6-4.3a3.5 3.5 0 0 0-2.2 1.3 18.7 18.7 0 0 0-1.9 3.3c-2.3 4.3-1.5 9.1-1.8 13.6-.1 2.4-.8 4-2.6 5.3s-4.8 4.4-8.1 5.4l-.4.3-5.5 6-2.1 2.2c-2.6 2.7-4.4 5.8-4.3 9.7a20 20 0 0 0 2.2 9.7 20.8 20.8 0 0 1 1.1 2.5 26.6 26.6 0 0 0 6.3 9.1 66.5 66.5 0 0 1 6.7 7.1c1.1 1.5 2.1 2.9 3.9 3.5a3.9 3.9 0 0 1 1.1.7c1.9 1.6 3.8 3.1 6.5 3.4s2.5 1.1 3.8 1.5l9.2 2.2.8.2c2.7 1.7 5.8 1.4 8.7 1.7a16.2 16.2 0 0 1 4.2.8 18.4 18.4 0 0 0 9.1 1.2c2.6-.4 4.5-1.6 5.1-4.2a26.3 26.3 0 0 1 6.2-11.5zM436 551a9 9 0 0 0 2.6-.9 71.9 71.9 0 0 0 5.9-4.8 23.6 23.6 0 0 0 3.4-3.8 11.2 11.2 0 0 1 4.3-3.7 57.1 57.1 0 0 0 6.7-3.6 16.2 16.2 0 0 1 8.6-3.1 2.2 2.2 0 0 0 1.7-1 2.2 2.2 0 0 0-.7-1.8 40.6 40.6 0 0 0-3.6-2.5 25.9 25.9 0 0 1-10.5-14.2 9.6 9.6 0 0 1-.5-4.8c.9-3.8 2.3-7.5 3.5-11.2.7-2.2 1.8-4.3 2-6.5.9-9.1 3.2-18.1 2.8-27.4-.2-3.5.2-7 .1-10.6s-.4-6.9-.7-10.3a34.9 34.9 0 0 0-.7-3.7 6.2 6.2 0 0 0-1.9.9c-.7.9-1.3 2-1.9 3l-4.6 6.4c-1.1 1.5-2.2 2.8-3.3 4.3s-1 2.4-1.9 3.3a21.5 21.5 0 0 0-6 11.1 7.3 7.3 0 0 1-5 5.6c-3.9 1.4-7.7 2.7-11.9 2.9a1.6 1.6 0 0 0-1.7 1.7c-.9 5.4 0 10.7.4 16 .3 3.7 1.3 7.4 1.4 11.1.1 6 1.3 11.7 2.6 17.5.7 3.1 2 6 2.7 9.1a134 134 0 0 0 6.2 21zm244.5 14.1a50.1 50.1 0 0 0 4.5-4 28.2 28.2 0 0 0 3.4-4.8 76.9 76.9 0 0 0 3.7-7.2 29.3 29.3 0 0 1 4.2-7.2 46.8 46.8 0 0 0 5.4-7.4 73.3 73.3 0 0 0 3.7-9.1c1.4-3.6 2.7-7.3 4.1-10.9s2-4.3 2.9-6.4 3.2-7.3 4.6-11 2.3-6.3 3.4-9.5c.4-1.4-.3-2-1.8-1.7l-1.6.4a4.1 4.1 0 0 1-4.6-.6 3.7 3.7 0 0 0-2.1-.5l-5.2-.2a7.8 7.8 0 0 1-7-4.4c-1.3-2.5-2.3-5.1-1-8 .5-1.1.6-2.3.9-3.4a1.9 1.9 0 0 0-.6-2.2c-1.9-1.9-3.9-1.6-5.3.8s-1.3 3.1-2.5 4.2a11.5 11.5 0 0 0-3.3 6.1c-.8 3.3-1.8 6.6-2.7 10a6.8 6.8 0 0 1-.7 1.5l-5.5 9.4c-.6 1-1.4 1.9-1.8 3a57.2 57.2 0 0 0-2.3 5.5c-.6 1.7-1.5 3.6-.5 5.2a88.7 88.7 0 0 0 6 7.8c1.5 1.8 1.7 2.7 0 4.4a48.6 48.6 0 0 1-5.2 4.4 4.6 4.6 0 0 0-2.3 4c0 2 .1 4-1 5.9a2.1 2.1 0 0 0 0 1.6 5.5 5.5 0 0 1-.2 4l-1.1 3.5a51.4 51.4 0 0 0 5.6 4 4.3 4.3 0 0 1 2.3 3.1 22.8 22.8 0 0 0 2.6 7.4 8.9 8.9 0 0 1 1 2.3zm-340.3 519.3v.6l1.4.5 15.3 2.6a9.6 9.6 0 0 1 2.9.6c3.1 1.7 6.5 2.7 8.9 5.6a4 4 0 0 0 2.3 1.4 59.8 59.8 0 0 0 7 .6c1.8.1 3.6-.2 5.4-.2 3.3-.1 6.7 1 9.9-.4h.8c5.1.3 10.3.7 15.4.8a8 8 0 0 0 4.4-1.2 62.1 62.1 0 0 0 6.3-5.2c2.2-1.9 4.1-4.2 6.5-5.8s4.7-3.4 7.7-3.7l10.2-1.4c2-.3 2-.3 2.2-2.4a33.5 33.5 0 0 1 .1-4c.6-3.1-.5-5.9-1.3-8.8a3.3 3.3 0 0 0-4-2.5 14.4 14.4 0 0 0-4.2 1.7 8.4 8.4 0 0 1-6.6.9 26.2 26.2 0 0 1-6-2.4l-15.2-8.5a4.3 4.3 0 0 0-3.1-.4c-2.2.8-4.7 1.5-6.4 3-3.8 3.3-8.2 5.7-12.4 8.3-.8.5-1.6 1.4-2.5 1.6s-3.8 2.4-5.7 3.7a1.3 1.3 0 0 0-.1 2.3l2.9 2.4c2.3 2 5.3 2.9 7.2 5.5s1.9 2.8.8 5.4-2.7 2.3-4.3.7a8.5 8.5 0 0 0-2.6-1.8l-8.3-3.3a38.9 38.9 0 0 0-13.4-3.2c-6.8-.2-12.8 2.4-18.6 5.4-1 .3-1.9 1-2.9 1.6zm354.9 12.1v-.2l4.4.2c2.2 0 4.3 0 6.5-.2a4.6 4.6 0 0 0 3.5-1.8c2.3-3.4 6.2-4.3 9.7-5.7a41 41 0 0 1 8-1.7l8.9-1.2a5.9 5.9 0 0 0 1.6-.8 4.6 4.6 0 0 0-1-1.3 51.1 51.1 0 0 0-15.6-6.1c-4.9-.9-9.6 0-14.2 1.6l-9.7 3.7c-1.9.8-4.1.9-5.3 3s-2.7 1-3.5.3a4.6 4.6 0 0 1-.2-6.1c2.1-2.7 5.1-4.1 7.7-6.2a19.1 19.1 0 0 0 2.3-1.9c1.2-1.3 1.1-1.9-.3-2.9l-8.2-5.3c-3.4-2.1-6.9-4-10.1-6.4a29.1 29.1 0 0 0-6.8-3.9 3.4 3.4 0 0 0-3.6.3c-1.9 1.4-3.6 3-5.5 4.4a12.6 12.6 0 0 1-3.1 2.1c-3.1 1.2-6.4 2.2-9.6 3.2a6 6 0 0 1-1.8.4c-4.1-.1-8.2.5-12.2-1a4.1 4.1 0 0 0-4.8 1.9 20.9 20.9 0 0 0-1.3 3.3c-.9 2.7-.2 5.4-.2 8.1s.2 2.9 3.2 3.1l2.5.2c3.1.6 6.4.7 9.3 1.9a26.8 26.8 0 0 1 9.3 6c2.3 2.4 5 4.5 7.4 6.9a8.3 8.3 0 0 0 6.5 2.3c6.2-.1 12.4-1 18.6-.2a64 64 0 0 0 7.6 0zm-58.6-848.6c-.2 2.2-.9 3.6-2.5 4.4s-4.2 2.1-6.4 3a28.4 28.4 0 0 1-4.4 1.2c-.9.2-1.9 0-2.7.4a58.9 58.9 0 0 1-9.3 3.8c-4.1 1.4-7.8 3.9-12.1 4.9a4.1 4.1 0 0 0-1.2.7l-11.8 7.8c-4 2.5-8.1 4.8-10.4 9.3a4.3 4.3 0 0 0-.5 3.8 10 10 0 0 1 .7 3.7c-.1 2.9.8 5.6 1.7 8.2s1.5 4.6 2.2 7 2.8 6.2 3.1 9.8c.1 1.8 2.1 2.3 3.8 1.3l1.5-1.2 17.2-15 3.8-3 6-5.2c1.4-1.2 2.8-2.3 4.1-3.5l15.3-14.7c2.8-2.6 4.6-5.4 2.6-9.3v-.3c-1.6-2.7-.7-5.3.6-7.8a31.4 31.4 0 0 1 2.5-3.6 28.6 28.6 0 0 0 2.4-3.3c.8-1.6 1.6-3.4.6-5.2a5 5 0 0 0-7.2-1.2 1.5 1.5 0 0 0-.4 2.3 15.7 15.7 0 0 1 .8 1.7zm10.7 731.2a7.3 7.3 0 0 0-1.6.3 20.5 20.5 0 0 1-10 2.1 12.9 12.9 0 0 0-3.3.1c-2.8.7-5.5 1.6-8.3-.4s-2.8.2-2.4 1.9 1.4 3.9 2 5.8a5.2 5.2 0 0 1 .6 2.5 5.8 5.8 0 0 0 .3 3.2c.5 1.8.9 3.7 1.5 5.5 1.5 5.1 1.8 10.5 3.9 15.5 1.4 3.4 2.2 7.1 3.9 10.4s3.7 9.8 5.4 14.8 1.7 7.4 2.6 11.1c.3 1.2.7 2.6 2.1 3s5.8 1.9 8.6-.2a12.3 12.3 0 0 1 3.2-1.4 18.2 18.2 0 0 0 6-3.7 2.3 2.3 0 0 0 .8-2.7c-.4-1.2-.6-2.6-1.4-3.5a21.4 21.4 0 0 1-3.6-6.7c-1.3-3.5-2.2-7.2-3.2-10.8a3 3 0 0 1 0-.5c-.2-2.1-.3-4.1-.6-6.2-.9-5.5-1.8-10.9-2.7-16.4-.1-.7-.3-1.4-.4-2.1-.3-4.2-.3-8.5-.9-12.6s-1.5-5.9-2.4-9zm-221.1 6a35 35 0 0 0-.6 4.1c0 5.5.2 11.1-.1 16.6s-1.2 10.1-1.8 15.1a10.8 10.8 0 0 0-.2 3 9.1 9.1 0 0 1-1 5.2 5.2 5.2 0 0 0-.7 1.7c-.1 4.4-2.2 8-4.7 11.3s-2.7 6.5 1.6 9c1.2.7 2.4 1.2 3.7 1.8s2.9 1.1 4.2 1.9a4.8 4.8 0 0 0 3.7.5 14.7 14.7 0 0 1 2.7-.6c2-.1 2.8-1.5 3.3-3.1a16.7 16.7 0 0 0 .8-4c.1-3.2 1.5-6 2.2-8.9a76.6 76.6 0 0 1 2.6-7.4l3.1-9 3-8.1c1-2.5 1.6-5.3 3-7.6a33.4 33.4 0 0 0 4.2-10.5 47.8 47.8 0 0 1 2.1-7c1-2.6.5-3.5-2.4-3.3l-.8.2c-1.8.3-3.6.5-5.3-.6a3.5 3.5 0 0 0-2.1-.3 28.8 28.8 0 0 0-5.1.7c-3.9 1.1-7.8.4-11.6-.2zm240-363.6c2.5 2.5 4.5 4.6 6.7 6.5a4.3 4.3 0 0 0 5.4.5 78 78 0 0 0 8.2-5.8c2.3-1.9 2.3-3 .8-5.4a15.8 15.8 0 0 1-2.3-8.3 42.7 42.7 0 0 1 2.2-13.9 3.8 3.8 0 0 0-.8-4.2 51.4 51.4 0 0 1-3.5-4.1 17.1 17.1 0 0 1-1.9-2.9c-1.6-3.2-3.1-6.6-4.6-9.8a2.4 2.4 0 0 0-3.1-1.5 12.7 12.7 0 0 0-5.7 2.5 41.3 41.3 0 0 1-4.4 2.7c-1.8 1.1-3.7 2.2-5.5 3.5s-3.7 2.9-5.5 4.4-5.8 4.4-8.5 6.8-5.3 5.2-8 7.7-3.8 3.1-5.6 4.8a15.1 15.1 0 0 0-2.6 3.7 2.7 2.7 0 0 0 3.7 3.6l2.7-1.4c5.3-2.5 8.8-7.5 14.3-9.8 3.5-1.5 6.3-4.5 9.5-6.7a70.9 70.9 0 0 1 16.3-8.7c2.6-.9 3.4-.7 4.3 2.3-1.2 2-3.5 2.8-5.4 3.3-4.1 1.1-7.2 3.9-10.8 5.8s-4 3.1-6.1 4.6-2.3 1.2-3.3 1.9l-6 4.6c-3.4 2.5-7.4 4.4-8.8 8.9-.2.5-.7.9-.9 1.3a8.8 8.8 0 0 0-.2 1.9c2 .4 2.6-1.3 3.8-1.8 4.3-2.1 8-5.1 11.8-7.9s5.3-4.5 8.8-5.3a3.4 3.4 0 0 0 1.1-.7c1.7-1.3 3.2-2.7 5-3.8a15.5 15.5 0 0 1 8.7-2.7c1.5 0 2.2.4 2.2 2l-.8.7-2.1 1.2a86.6 86.6 0 0 0-18.1 10.5c-2.2 1.8-4.3 3.8-6.7 5.1s-3.7 3.7-5.7 5.3a3.8 3.8 0 0 0-1.2 2.1 4.2 4.2 0 0 0 .2 2.6c.5 1 1.5.6 2.4.3 6.9-2 13.3-5 18.7-9.8s9.2-6.1 14.3-8.2c1.6-.7 2.7.2 2.5 2a3.9 3.9 0 0 1-2.5 3l-8.3 4c-1.6.6-2.9 1.5-4.7 2.6zm4.2-62.9a18.9 18.9 0 0 0-9.1 2.4l-2.7 1.3a21.9 21.9 0 0 0-3.5 1.9c-1.4 1.1-2.5 2.6-4 3.6s-4.3 2.2-6.5 3.3a8.5 8.5 0 0 0-1.8 1.2c-4.2 3.8-8.6 7.6-11.6 12.5a13.7 13.7 0 0 1-2 2.6l-5.3 5a3.3 3.3 0 0 0-.2 4.4c.9 1 1.6.9 3.4-.2l1.4-.9c1.7-1.2 3.3-2.6 5.1-3.6a87.3 87.3 0 0 0 10.6-7.6c2.5-2 4.7-4.6 8-5.5a2.8 2.8 0 0 0 1.3-.9c1.5-1.9 3.6-2.7 5.6-3.8l8.4-4.6a11.4 11.4 0 0 1 6.5-1.5c1.5.1 2-.3 2.1-1.7a11.7 11.7 0 0 0 0-2.7c-.9-3.8-2.7-5.4-5.7-5.2zM532.5 299.2a12.4 12.4 0 0 0 5.7-4l9.1-10.1c1.7-1.9 1.7-2.8.4-5.1a27.5 27.5 0 0 1-4-15.6c.1-2.7-1.4-3.7-3.8-2.5a12.6 12.6 0 0 0-7 9.3 41.5 41.5 0 0 0 .1 11.7 49.3 49.3 0 0 1 0 12.2c-.2 1.2-.3 2.5-.5 4.1zm191.8 81c-3.9.6-7.2 1.4-9.8 4s-5.3 5-7.9 7.4a2.8 2.8 0 0 0-.9 1c-.2.6-.4 1.6-.1 1.9a2.1 2.1 0 0 0 1.9.2c1.8-.7 3.5-1.6 5.2-2.4 3.4-1.7 6.9-3.3 10.2-5.2a16.7 16.7 0 0 0 3.1-2.7 2 2 0 0 0 .2-2.7 8.8 8.8 0 0 0-1.9-1.5zm-91.4 715.5c2.3 0 4.8.2 7.3-.1a2.7 2.7 0 0 0 2.5-2.8 31.5 31.5 0 0 0-.2-3.2c-.1-1.8-1.2-2.4-2.8-3.2s-4-.4-6-.8a1.3 1.3 0 0 0-1.7 1.3 10.7 10.7 0 0 0-.1 2.2c.3 2.2.7 4.3 1 6.7zm-187.3-.1c-1.4-3.6 1.3-6.7-.4-10a15.1 15.1 0 0 0-7.4.8 3.2 3.2 0 0 0-2.3 2.7 33.2 33.2 0 0 0-.1 3.8 2.2 2.2 0 0 0 1.4 2.1c2.7 1.3 5.5.5 8.8.6zm297.7 2v-.8l-6.7-3.4a4.3 4.3 0 0 0-3.3-.2c-2.5.7-5.2 1-7.7 1.5a31.4 31.4 0 0 0-8.6 3 22.9 22.9 0 0 0 2.9.4h19.7a37.1 37.1 0 0 0 3.7-.5zm-413.3-1.1a4.1 4.1 0 0 0 1.3.6l21.3-.2a3.8 3.8 0 0 0 1.2-.6l-1.6-.9a21.3 21.3 0 0 1-3.7-1.6 8.7 8.7 0 0 0-4.9-1.3c-3.8-.2-7.4.7-11.1 1.2-1.7.3-2.5.8-2.5 2.8zm93.3-3.7l5.1 1.5c-.5-2 .3-3.9-1.5-5.6zm226.5.9c1.6-.1 3.1.3 4.4-.8-.9-1.4-1.5-3.1-3.4-3.4s-1.2 2.5-1 4.1z"/>
<path d="M654.3 187.8a3.8 3.8 0 0 0-.3 1.1c1.2 3.5-.7 6.2-2.8 8.6s-4.9 2.6-7.5.6l.8-2a4.5 4.5 0 0 0-.3-4.6c-1.1-1.6-.6-3.1.4-4.5a5.6 5.6 0 0 1 1.7-1.7l8.5-4.3a32.6 32.6 0 0 1 4.1-1.5 11.1 11.1 0 0 1 2.6-.6 2.4 2.4 0 0 1 2.7 2.6 59.5 59.5 0 0 1-1.9 7.6 5.8 5.8 0 0 1-2.1 2.4 3.1 3.1 0 0 1-4.9-1.2zm-57.7-81.6c.3-2 1.7-3.2 3-4.4s5.1-4.5 8.8-4.1a11.6 11.6 0 0 0 3-.4c2.5-.4 4.6.8 6.7 1.9s2 3.9 1.1 5.7a14.9 14.9 0 0 0-1.2 7.1c.1 2.6-.7 4.8-3.6 6.1-.5-.7-1.4-1.3-1.5-2.1-.5-2.5-.6-5-1.1-7.5a13.6 13.6 0 0 0-1.3-4.1 3.4 3.4 0 0 0-4.9-1.3 13.8 13.8 0 0 0-3.2 2.5c-2.2 2.4-2.6 2.5-5.8.6zm-44 103.9a2.6 2.6 0 0 1 2.8 2l3.2 10.9a10.2 10.2 0 0 1 .4 1.9 4.4 4.4 0 0 1-1.7 4.3 4.1 4.1 0 0 1-4.4.1 13.5 13.5 0 0 1-7.6-13.8c.6-3.2 3.5-5.4 7.3-5.4zm95.9-178.6c-.3 1.7-1.6 2.2-2.8 2.5s-2.8.6-4.2 1c-3 .8-6 1.6-8.9 2.5a5.7 5.7 0 0 0-2.6 1.7 8.4 8.4 0 0 1-4.5 2.8c-1 .3-2 .5-2.8-.4s-.1-1.9.4-2.7a13.1 13.1 0 0 1 5.9-4.6c3.4-1.5 6.9-2.8 10.3-4a31 31 0 0 1 4.8-1.1 2.1 2.1 0 0 1 1.3.3zm-79 118.9a13.9 13.9 0 0 1 5.7-10 6.6 6.6 0 0 1 2.8-1c1.7-.3 2.6.7 2.4 2.4a63.7 63.7 0 0 1-1 7.3 10.6 10.6 0 0 1-3.7 5.9 3.7 3.7 0 0 1-2.3.4 5 5 0 0 1-1.5-.7c-2.3-1.1-2.5-1.3-2.4-4.3zm64-104.7a9.6 9.6 0 0 1 5.8-4.7 89.2 89.2 0 0 1 15.1-3.4c1.9-.2 2.6 1.2 3.6 2s-.1 1.7-.4 2.4-1.9 1.8-3.4 1.7h-.5c-4.7-2.7-8.7.3-12.9 1.8l-5 2c-1.2.2-1.7-.6-2.3-1.8zm-24.6 524.8c-3.7 8.4-10 12.7-19.3 12.5.9-.6 1.8-1.3 2.8-1.9l5.5-2.9a2.2 2.2 0 0 0 .9-.6c.5-.9 1.2-1.9 1-2.6a2.7 2.7 0 0 0-2.3-1.4c-2.4.3-4.9-.4-7.1 1.3a8.2 8.2 0 0 1-3.3 1.1c-3.3.6-6.6 1.3-9.9 1.7s-5.2.5-7.8.7c-4.2.3-8.3.8-12.5.8s-6-.4-9-.6l-6-.4c-2.2-.1-4.4.4-6.4-.8a4.5 4.5 0 0 0-1.9-.1 30.6 30.6 0 0 1-13.6-3.4 7.1 7.1 0 0 0-2.1-.5c-1.5-.3-1.9-1.2-1-2.3s4.2-3.6 7.3-2.1a20.8 20.8 0 0 0 7.4 1.7c3.7.3 7.4 1.2 11 1.8l7.3.9h.5c1.9-1.2 3.9-.4 5.8-.2a145.3 145.3 0 0 0 14.6.4 20.5 20.5 0 0 0 6.6-.8 58.1 58.1 0 0 1 8.5-1.6l8.6-1.4 9.7-1.5a4.4 4.4 0 0 1 4.7 2.2zm-47.2-16.7c.2 2.4 0 2.8-1.8 3.5a16.2 16.2 0 0 1-10.1.9 7.9 7.9 0 0 0-3.5.2 50.6 50.6 0 0 1-16.2.9c-1.5-.2-3.1-.1-4.6-.2s-3.9-.6-5.9-1a68.2 68.2 0 0 1-7.6-1.9c-3.4-1.2-6.7-2.9-10.1-4a25.9 25.9 0 0 1-7.2-3.7c-1.1-.8-2.6-1.6-2.5-3.3s2-1.6 3-2.3a3.4 3.4 0 0 1 3.1-.2l7.1 2.8 12.9 5c1.8.7 3.7 1 5.4 1.8 3.2 1.5 6.7 1.5 10.1 1.9h.3a11.3 11.3 0 0 0 6.8-.4 10 10 0 0 1 7.5.1 5.5 5.5 0 0 0 2.1.4zm5.9 146.5c-1.9.1-3.7-.2-4.7-2.1s-.5-2.1.8-2.6a12.9 12.9 0 0 1 3.4-.9c2-.2 4-.1 6-.5a87.5 87.5 0 0 0 15.9-4.6 89.3 89.3 0 0 1 10.7-3.2c3.2-.9 6.5-1.5 9.8-2.3h.5a1.9 1.9 0 0 1 2.4.8c.6 1 0 1.8-.5 2.4a9.3 9.3 0 0 1-4.9 2.8l-6.3 1.8c-7.2 2.3-14.3 4.8-21.5 7a36.9 36.9 0 0 1-6.4 1zm60.7 3.6a13.9 13.9 0 0 1-2.5 2.1 34.8 34.8 0 0 1-7.3 3 47.7 47.7 0 0 0-6.5 1.9c-4.3 1.6-8.6 3.2-13.3 3.5a37.2 37.2 0 0 1-5.7-.2 69.7 69.7 0 0 1-10.8-2.2 2.6 2.6 0 0 1-2.1-3c.3-2 1.1-3.1 2.8-3.1a13.8 13.8 0 0 1 4.3.5 38.4 38.4 0 0 0 16.4 1.5 23.8 23.8 0 0 0 4.9-1.2c3-1 6.1-1.8 9.1-2.7l5.7-1.9c2.2-.8 3-.6 5 1.8zm-97.1-7.7c.2 1.6-.4 2.4-1.4 2.7a6.1 6.1 0 0 1-2.9.3c-3.6-.9-7.1-2-10.7-3.1a8.2 8.2 0 0 1-1.8-1.1 4.9 4.9 0 0 0-1.4-.9c-5.8-1.3-10.4-5-15.7-7.3-2.1-.9-3.8-2.7-5.8-4.1l-4.5-3-4.6-2.9a4.6 4.6 0 0 1-2.3-2.9c-.6-2.3-.4-3 1.7-4.2 4-2.2 4.8-2 8.4 1s5.2 4.2 8.6 5.2a15.5 15.5 0 0 1 4.8 2.6c2.2 1.6 4.1 3.6 6.3 5.2a31.7 31.7 0 0 0 4.9 2.9l14.2 6.9c1.4.6 2.3 1.5 2.2 2.7zm-27.8 16.6c-3.2-.3-6.8-.8-10.4-.9a30.5 30.5 0 0 1-9.9-1.6 11.1 11.1 0 0 1-3.3-1.8 3.7 3.7 0 0 1 1-6.4 8 8 0 0 1 5.7-.5 22.9 22.9 0 0 1 8.7 4.1 7.7 7.7 0 0 0 5 1.8 12.9 12.9 0 0 1 3.6 1 4.4 4.4 0 0 0 1.2.4c5.6-.2 11.2.4 16.8.7l8.9.7c1 .1 2.1-.1 2.3 1.3s-.6 2.1-2.1 2.3a19.7 19.7 0 0 1-5.9.1c-2.4-.5-5-.3-7.5-.5l-10.8-1a22.9 22.9 0 0 0-3.3.3zm266.3-238.5a5.4 5.4 0 0 1-3.6-2.5 1.6 1.6 0 0 1 .8-2.4l4.3-1.6c1-.3 2.5.6 3 1.8s.7 2.2-.5 2.9a37.3 37.3 0 0 1-4 1.8z"/>
</g>
</svg>
