<?xml version="1.0" encoding="utf-8"?>
<!-- Generator: Adobe Illustrator 12.0.0, SVG Export Plug-In . SVG Version: 6.00 Build 51448)  -->
<!DOCTYPE svg PUBLIC "-//W3C//DTD SVG 1.1//EN" "http://www.w3.org/Graphics/SVG/1.1/DTD/svg11.dtd" [
	<!ENTITY ns_svg "http://www.w3.org/2000/svg">
	<!ENTITY ns_xlink "http://www.w3.org/1999/xlink">
]>
<svg  version="1.1" id="Layer_1" xmlns="&ns_svg;" xmlns:xlink="&ns_xlink;" width="95.508" height="98.184"
	 viewBox="0 0 95.508 98.184" overflow="visible" enable-background="new 0 0 95.508 98.184" xml:space="preserve">
<path fill="#2F3E51" d="M95.227,52.288c0,25.348-20.549,45.896-45.902,45.896c-25.348,0-45.896-20.549-45.896-45.896
	c0-25.351,20.549-45.899,45.896-45.899C74.678,6.388,95.227,26.937,95.227,52.288L95.227,52.288z"/>
<path fill="#3BC7D3" d="M48.838,1.622c0.984,0,1.969,0.032,2.953,0.097c2.959,0.19,5.906,0.677,8.766,1.45
	c1.436,0.372,2.789,0.841,3.926,1.248l1.846,0.727l0.791,0.36l1.336-0.17l1.523-0.056l0.797,0.009l0.094,0.003l0.732,0.044
	l0.064,0.006c-1.828-1.04-3.803-1.913-5.889-2.616c-2.807-0.943-5.807-1.564-8.918-1.84c-3.006-0.272-6.141-0.223-9.322,0.146
	c-2.496,0.287-5.027,0.773-7.547,1.45c0.732-0.135,1.471-0.258,2.215-0.369C44.391,1.786,46.611,1.622,48.838,1.622L48.838,1.622z
	 M67.025,6.239l-1.119,0.226l-1.102,0.331l-0.926,0.36l-0.732,0.375c-0.639,0.39-0.896,0.715-0.932,0.885l0.023,0.097l0.779,0.343
	l0.873,0.144l0.568,0.053l0.352,0.029l0.316,0.026c0.475,0.038,0.996,0.064,1.605,0.082l0.076,0.003
	c0.568,0.035,1.219,0.076,1.939,0.105l0.861,0.053l0.316,0.023l1.74,0.129l0.955,0.103l0.527,0.056l0.094,0.009l-0.92-0.601
	l-0.539-0.331l-1.635-0.952l-1.98-1.025L67.025,6.239L67.025,6.239z M81.088,15.262l0.932,0.381
	c-1.846-3.483-4.734-6.633-8.379-9.088l-0.469-0.311l-0.047-0.003L71.531,6.04l-0.686-0.041h-0.088l-0.773-0.012L68.52,6.04
	L68.344,6.06l0.146,0.062l2.01,1.046l1.641,0.958l0.574,0.352l1.676,1.102l0.41,0.293l1.383,0.75l0.398,0.398l0.357,0.419
	l0.111,0.141l0.498,0.404l0.176,0.146l0.34,0.281l1.576,1.418l1.418,1.4L81.088,15.262L81.088,15.262z M83.115,16.235l0.844,0.586
	l0.07-1.084c-0.023-0.92-0.24-1.857-0.633-2.777l-0.721-1.266l-0.439-0.615l-0.457-0.516l-0.047-0.05L80.59,9.438l-1.307-0.926
	L78.58,8.09l-0.563-0.293l-0.17-0.079l-1.529-0.653l-1.289-0.401C78.615,9.297,81.404,12.611,83.115,16.235L83.115,16.235z
	 M82.301,16.581l0.311,0.34l0.07,0.076l-0.123-0.267L82.301,16.581L82.301,16.581z M83.654,17.48l0.111,0.299l0.047-0.17
	L83.654,17.48L83.654,17.48z M84.182,18.819c1.582,1.925,3.029,3.99,4.295,6.138l0.041,0.076l-0.393-1.087
	c-0.27-0.65-0.533-1.251-0.809-1.822c-0.316-0.589-0.65-1.16-0.99-1.699c-0.574-0.867-1.219-1.638-1.916-2.294L84.182,18.819
	L84.182,18.819z M4.77,30.494L4.16,31.929l-0.105,0.252l-0.146,0.343l0.047-0.035l1.102-0.973l0.492-0.524l0.24-0.278l0.246-0.278
	l0.867-1.157l0.205-0.311l0.223-0.322l0.398-0.627l0.24-0.416c0.434-0.75,0.879-1.523,1.277-2.347l0.012-0.018l0.773-1.474
	l0.188-0.384l0.135-0.249l0.076-0.141l0.82-1.559l0.275-0.486l0.176-0.305l0.691-1.213l0.252-0.39l0.264-0.419l0.762-1.166
	l0.311-0.434l-0.023,0.023l-0.188,0.188l-0.346,0.36l-1.33,1.465l-0.152,0.179l-0.088,0.111l-1.002,1.213l-0.088,0.111l-0.152,0.185
	l-1.178,1.567l-0.322,0.457l-0.117,0.179l-0.879,1.298l-0.258,0.413l-0.152,0.243l-0.809,1.336l-0.492,0.891L6.152,27.71
	l-0.375,0.68L4.77,30.494L4.77,30.494z M3.791,32.837l-0.193,0.533l-0.182,0.501l-0.205,0.557l0.041-0.029l0.059-0.035l0.797-0.759
	l-0.223-0.636L3.791,32.837L3.791,32.837z M90.809,31.276l0.117,0.598c0.234,1.216,0.463,2.361,0.732,3.483
	c0.135,0.642,0.287,1.222,0.469,1.784c0.164,0.557,0.346,1.151,0.58,1.726l0.363,0.853l0.387,0.82l0.047,0.091
	c-0.492-2.795-1.254-5.563-2.279-8.291L90.809,31.276L90.809,31.276z M90.211,49.428l-0.369,0.047l-0.99,0.917l-0.129,0.407
	l-0.082,0.504l0.082,1.207l0.041,0.188l0.129,0.548l0.264,0.8l0.393,0.891l0.475,0.984l0.609,1.072l0.352,0.586l0.369,0.598
	c0.41,0.653,0.902,1.362,1.418,2.112l0.117,0.173l0.047-0.155c0.135-0.595,0.258-1.187,0.357-1.77l0.07-0.419l0.029-0.27
	l0.012-0.129l0.064-0.788l0.035-0.75v-0.686l-0.111-1.301c-0.088-0.847-0.311-1.55-0.492-2.074l-0.34-0.794l-0.393-0.636
	l-0.832-0.858L90.211,49.428L90.211,49.428z M88.125,62.993l0.018,0.053c0.047,0.146,0.246,0.483,1.043,1.125
	c0.451,0.366,1.02,0.768,1.658,1.175l0.275-0.691l0.141-0.346l0.111-0.278l-0.275-0.686l0.223-0.416
	C88.564,62.632,88.178,62.919,88.125,62.993L88.125,62.993z M91.559,65.793c1.576,0.943,2.766,1.441,3.229,1.485l-0.24-0.369
	l-0.979-1.04c-0.393-0.366-0.879-0.776-1.447-1.225L91.559,65.793L91.559,65.793z M88.828,70.718l-0.023,0.035
	c-0.639,1.008-1.307,2.004-2.01,2.979l0.141-0.141l0.492-0.571l0.229-0.293l0.205-0.311l0.773-1.315L88.828,70.718L88.828,70.718z
	 M4.313,67.162l0.814,1.781l0.059,0.126l0.105,0.214l0.914,1.746l0.299,0.533l0.48,0.812c0.387,0.688,0.832,1.348,1.26,1.992
	l0.434,0.653l0.621,0.844l0.305,0.416l0.469,0.633l0.322,0.393l0.146,0.179c-0.574-0.891-1.125-1.816-1.646-2.771
	c-1.512-2.865-2.643-5.874-3.369-8.95c-0.363-1.491-0.574-2.915-0.715-3.987l-0.182-1.843L4.57,58.639l-0.012-0.463l-0.006-1.4
	l0.029-1.412L4.6,55.097l0.012-0.126l0.053-0.691c0.059-0.741,0.111-1.444,0.211-2.121l0.158-1.263l0.199-1.175l0.17-1.084V48.62
	l0.193-1.014l0.152-0.94l0.07-0.396l0.088-0.501l0.111-0.812l0.035-0.381l0.041-0.41c0.094-0.858,0.053-1.726-0.123-2.643
	L5.578,40.37l-0.041-0.094l-0.24-0.48l-0.352-0.574l-0.938-1.172L3.41,37.434l-0.656-0.633l-0.012-0.009l-0.205-0.229l-0.012,0.023
	l-0.135,0.472l-0.193,0.756l-0.135,0.516l-0.246,0.996L1.512,40.85l-0.053,0.27l-0.094,0.486l-0.34,2.309l-0.217,2.329l-0.023,0.498
	L0.709,48.57l0.006,1.02v0.53l0.006,0.334l0.041,1.204l0.1,1.57l0.07,0.762l0.229,1.939l0.393,2.303l0.516,2.288l0.064,0.234
	l0.563,2.013l0.75,2.218L4.313,67.162L4.313,67.162z M23.402,89.061c1.682,1.046,3.439,1.96,5.25,2.736
	c0.744,0.343,1.518,0.627,2.268,0.902l0.691,0.258l1.008,0.322l0.486,0.152l0.756,0.231l0.486,0.126l0.264,0.067l0.158,0.038
	l-1.348-0.563l-1.225-0.545l-0.645-0.278l-0.445-0.196l-0.949-0.381l-0.809-0.313c-0.92-0.36-1.471-0.495-1.477-0.495l-0.041-0.012
	l-0.199-0.076l-2.01-0.867l-0.486-0.237l-0.24-0.12L23.402,89.061L23.402,89.061z M47.197,96.098h-1.184l-0.838-0.029
	c-0.668-0.038-1.342-0.088-1.992-0.141h-0.018l-0.281-0.035l-0.668-0.053l-0.498-0.041l-1.066-0.094l-1.559-0.211l-0.264-0.035
	l-0.521-0.076l-0.779-0.149l-0.457-0.088l-1.09-0.217l-1.547-0.384l-0.264-0.064l-0.516-0.138l-0.762-0.234l-0.48-0.149
	l-1.043-0.334l-0.697-0.255c-0.762-0.281-1.553-0.571-2.314-0.926c-3.984-1.705-7.705-4.081-11.045-7.052l-1.219-1.143l-0.539-0.536
	l-0.24-0.249l-0.516-0.46l-0.428-0.384l-0.398-0.375l-0.188-0.179l-1.131-1.116l-0.369-0.39l-0.182-0.199l-1.084-1.184l-1.008-1.219
	l-0.17-0.205L9.51,77.342l-0.475-0.645l-0.311-0.41l-0.633-0.87l-0.434-0.656c-0.439-0.653-0.891-1.327-1.289-2.03l-0.475-0.809
	l-0.322-0.574l-0.914-1.737l-0.117-0.246l-0.053-0.123l-0.832-1.808l-0.879-2.215l-0.762-2.253l-0.568-2.021l-0.07-0.258
	l-0.521-2.326L0.457,56.02l-0.229-1.948l-0.076-0.803l-0.1-1.559l-0.041-1.251l-0.006-0.331L0,49.598v-1.049l0.076-1.837L0.1,46.191
	l0.223-2.37l0.34-2.326l0.1-0.516l0.053-0.267l0.311-1.538l0.252-1.02l0.129-0.513l0.193-0.762l0.152-0.507l0.076-0.258l0.463-1.497
	l0.357-0.99l0.182-0.501l0.27-0.735l0.199-0.489l0.105-0.249l0.621-1.459l1.025-2.136l0.375-0.688l0.258-0.472l0.498-0.908
	l0.82-1.354l0.146-0.234l0.281-0.448l0.879-1.298l0.117-0.173l0.346-0.489l0.012-0.012l1.16-1.559l0.17-0.208l1.096-1.324
	l0.088-0.105l0.176-0.208l1.324-1.459l0.375-0.393l0.182-0.182l1.119-1.125l0.387-0.357l0.205-0.185l1.184-1.081l1.213-1.011
	l0.217-0.179l0.416-0.334l1.324-1.002l0.604-0.434l1.307-0.896l0.117-0.079l0.223-0.152l1.02-0.63
	c1.646-1.084,3.363-1.969,4.67-2.616l0.803-0.366l0.41-0.182l0.604-0.27l0.193-0.082L29.9,5.383l0.563-0.217
	c2.549-1.151,5.109-2.121,7.629-2.883c3.117-0.943,6.27-1.603,9.363-1.963c3.229-0.369,6.416-0.422,9.469-0.146
	c3.164,0.284,6.223,0.914,9.082,1.875c2.672,0.896,5.168,2.083,7.424,3.521l0.662,0.123l0.82,0.202
	c0.533,0.144,1.102,0.302,1.652,0.501c0.551,0.214,1.084,0.442,1.594,0.68l0.17,0.082l0.609,0.316l0.727,0.439l1.383,0.979
	l1.207,1.131l0.047,0.053l0.498,0.568l0.469,0.65l0.773,1.374c0.439,1.014,0.668,2.036,0.697,3.056
	c0.006,0.542-0.041,1.081-0.141,1.617c0.855,0.753,1.635,1.652,2.326,2.698c0.357,0.557,0.697,1.146,1.025,1.755l0.006,0.018
	c0.281,0.583,0.551,1.195,0.832,1.872c0.504,1.333,0.92,2.66,1.23,3.955l0.076,0.313l0.246,0.489l0.814,1.802l0.17,0.404
	l0.563,1.436c1.254,3.34,2.121,6.747,2.596,10.178l0.539,1.049l0.199,0.56l0.123,0.519c0.111,0.604,0.129,1.201,0.059,1.775
	l-0.34,1.166l-0.229,0.437l-0.627,0.905l-0.023-1.102c-0.029-1.688-0.158-3.378-0.387-5.06l-0.357-0.583l-0.129-0.208l-0.48-0.853
	l-0.416-0.873l-0.357-0.855c-0.252-0.609-0.439-1.222-0.609-1.793c-0.182-0.574-0.346-1.175-0.486-1.831
	c-0.27-1.131-0.492-2.282-0.732-3.501c-0.246-1.248-0.498-2.531-0.803-3.812l-0.299-0.583l-0.311-0.609l-0.082-0.155l-0.141-0.264
	l-0.732-1.277c-1.178-2.001-2.514-3.929-3.984-5.739l-0.141,0.354l-0.275-0.867l-0.088-0.105L82.4,17.764l-0.311-0.363l-1.33-1.462
	l-0.059-0.059l-0.152-0.047l-1.201-0.548l-0.92-0.75l-0.762-0.891l-0.322-0.451l-0.316-0.451l-0.047-0.062l-0.445-0.601
	l-0.762-0.618l-1.277-0.932l-0.393-0.05l-0.029-0.006l-0.996-0.108l-0.533-0.056l-1.055-0.114l-1.617-0.114l-0.322-0.023
	l-0.826-0.053c-0.732-0.029-1.383-0.067-1.963-0.105l-0.064-0.006c-0.604-0.015-1.143-0.041-1.623-0.079L64.74,9.787L64.418,9.76
	l-0.604-0.053l-0.973-0.167c-0.645-0.173-0.984-0.349-1.178-0.606l-0.146-0.65c0.082-0.439,0.51-0.896,1.254-1.359l0.82-0.419
	l0.984-0.384l1.154-0.346l0.164-0.041l-1.658-0.653c-1.113-0.398-2.449-0.858-3.861-1.228c-2.818-0.759-5.719-1.239-8.631-1.43
	c-3.158-0.202-6.328-0.076-9.434,0.39c-3.451,0.513-6.727,1.295-9.738,2.329L32.35,5.219l-0.375,0.129l-1.236,0.475l-1.301,0.606
	c-2.771,1.327-5.613,2.915-8.432,4.717c-2.021,1.251-3.914,2.997-5.631,5.186c-0.352,0.463-0.721,0.964-1.125,1.526l-0.744,1.146
	l-0.264,0.419l-0.24,0.381l-0.68,1.187l-0.182,0.313l-0.264,0.466l-0.41,0.782l-0.41,0.773l-0.082,0.146l-0.117,0.223l-0.193,0.387
	c-0.27,0.545-0.527,1.031-0.785,1.491c-0.41,0.844-0.861,1.626-1.295,2.385l-0.246,0.422l-0.422,0.668L7.494,29.67l-0.92,1.225
	l-0.252,0.29l-0.234,0.272l-0.527,0.56l-0.92,0.829l0.164,0.896c-0.111,0.568-0.615,0.896-1.107,1.216l-0.053,0.035L2.918,35.72
	l0.316,0.563l0.68,0.65l0.615,0.639l1.008,1.251l0.381,0.63l0.258,0.519l0.047,0.1l0.439,1.313c0.193,0.996,0.234,1.931,0.135,2.865
	l-0.035,0.384L6.721,45.04l-0.117,0.847l-0.088,0.519l-0.059,0.357l-0.158,0.97L6.1,48.749l-0.17,1.093l-0.193,1.166l-0.158,1.248
	c-0.1,0.662-0.152,1.351-0.205,2.08L5.32,55.024l-0.012,0.132l-0.018,0.229l-0.029,1.409l0.006,1.348l0.018,0.472l0.053,1.263
	l0.176,1.819c0.141,1.043,0.346,2.44,0.703,3.899c0.715,3.021,1.822,5.974,3.305,8.777c1.107,2.042,2.361,3.946,3.715,5.657
	l0.258,0.319l0.814,0.967l0.176,0.205l0.369,0.425l0.955,1.008l1.424,1.184l0.926,0.735l1.605,1.148l0.486,0.325l0.164,0.103
	l1.336,0.855l0.434,0.252l0.24,0.138l1.371,0.776l1.418,0.703l0.24,0.123l0.457,0.223l1.992,0.861l0.158,0.059
	c0.117,0.029,0.668,0.176,1.547,0.521l0.387,0.152l0.416,0.155l0.967,0.393l0.469,0.202l0.621,0.267l1.254,0.56
	c2.35,1.055,4.898,1.816,7.564,2.262c0.533,0.082,1.102,0.164,1.67,0.237l0.094,0.006l0.486,0.021l0.275,0.009l1.541,0.041
	l0.504-0.003l0.258-0.006l0.768-0.021c0.82-0.003,1.646-0.07,2.443-0.138l0.615-0.047l0.375-0.029l2.021-0.261l0.615-0.094
	c3.305-0.56,6.463-1.421,9.428-2.563c0.551-0.234,1.102-0.48,1.646-0.732c2.074-0.955,4.195-2.153,6.504-3.662
	c1.998-1.315,3.973-2.769,5.871-4.318c2.021-1.676,4.055-3.483,6.211-5.531c0.586-0.662,1.154-1.33,1.699-2.001
	c1.389-1.755,2.701-3.601,3.891-5.481c0.803-1.292,1.57-2.654,2.297-4.061l0.07-0.211l0.029-0.073
	c-0.715-0.451-1.354-0.899-1.857-1.31c-0.738-0.589-1.143-1.052-1.271-1.45l0.111-0.729c0.316-0.387,1.113-0.68,4.729-0.208
	l0.047-0.129l0.275-0.873l-0.012-0.015l-0.023-0.029l-0.41-0.595c-0.521-0.759-1.014-1.474-1.436-2.139l-0.375-0.612l-0.346-0.58
	l-0.633-1.113l-0.498-1.017l-0.404-0.935l-0.287-0.864l-0.135-0.583l-0.047-0.19l-0.094-1.415l0.1-0.598l0.164-0.53
	c0.287-0.68,0.809-1.151,1.465-1.327c0.68-0.182,1.418-0.018,2.092,0.469l0.99,1.02l0.457,0.735l0.369,0.87
	c0.182,0.516,0.434,1.31,0.533,2.232l0.111,1.339v0.753l-0.035,0.771l-0.064,0.814l-0.012,0.123l-0.041,0.313l-0.07,0.428
	c-0.1,0.598-0.223,1.207-0.363,1.813l-0.006,0.018l-0.193,0.668l0.17,1.192l-0.768,0.618l-0.199,0.492l-0.217,0.513
	c0.65,0.51,1.201,0.97,1.641,1.377l1.061,1.131l0.393,1.134l-0.439,0.357c-0.803,0.173-2.777-0.914-3.826-1.541l-0.082,0.158
	l-0.012,0.041L90.99,67.08l-0.51,1.441L90,69.792l-0.082,0.196l-0.311,0.724l-0.352,0.729l-0.797,1.362l-0.223,0.334l-0.012,0.009
	l-0.246,0.319l-0.527,0.612c-1.512,1.541-2.947,2.956-4.33,4.271c-0.855,0.961-1.746,1.907-2.672,2.83l-0.75,0.703
	c-0.521,0.498-1.066,1.014-1.635,1.488l-0.902,0.788l-1.541,1.236c-3.475,2.666-7.084,4.822-10.723,6.422
	c-0.738,0.331-1.494,0.647-2.256,0.943c-1.857,0.782-3.738,1.436-5.602,1.948l-0.293,0.076l-1.617,0.404l-0.018,0.003l-1.934,0.372
	l-0.838,0.132l-1.629,0.208l-0.521,0.053l-1.98,0.123l-0.516,0.018H47.197L47.197,96.098z"/>
<path fill="#3BC7D3" d="M57.439,53.151l-0.51,0.387l-0.311,0.249l-0.082,0.067l-0.006,0.026v0.029v0.062l0.006,0.258
	c0.006,0.633,0.012,1.266,0.023,1.904c0,0.539,0.006,1.087,0.006,1.629c0,0.545,0,1.09-0.006,1.632v0.41v0.044v0.023l-0.006,0.041
	l-0.006,0.167l-0.205-0.012l-0.023-0.003h-0.012l-0.029-0.003l-0.24-0.003l-0.48-0.012c-0.645-0.009-1.283-0.023-1.922-0.032
	l0.07-0.012c0.404-0.067-0.117-0.179-0.908-0.17c-1.957,0.023-3.92,0.047-5.883,0.073c-0.979,0.015-1.957,0.029-2.936,0.041
	l-1.465,0.023l-0.188,0.006H42.24l-0.012,0.003l-0.047,0.006L42.076,60l-0.018-0.138v-0.021l-0.006-0.009v-0.056l-0.006-0.249
	l-0.006-0.498c-0.018-0.665-0.029-1.333-0.041-1.992c-0.018-0.665-0.029-1.321-0.047-1.98l-0.006-0.249l-0.006-0.41l-0.006-0.431
	v-0.105V53.81l-0.041-0.029l-0.146-0.12l-0.586-0.478l-0.211-0.185l-0.17-0.152c-0.926-0.814-1.705-1.775-2.355-2.815
	c-0.316-0.527-0.609-1.066-0.844-1.632c-0.252-0.56-0.439-1.143-0.609-1.731l-0.258-0.63l-0.012,0.281l0.041,0.281l0.029,0.176
	l0.053,0.196c0.258,0.938,0.551,1.743,0.902,2.514c-0.779-1.406-1.324-3.062-1.471-4.828l0.088-0.126l0.035-0.823
	c0.023-1.822,0.422-3.653,1.184-5.326c0.381-0.838,0.85-1.638,1.395-2.373s1.166-1.415,1.852-2.016
	c0.498-0.442,1.025-0.853,1.594-1.21c0.557-0.357,1.143-0.686,1.752-0.952c0.609-0.27,1.242-0.495,1.881-0.677
	c0.645-0.17,1.301-0.296,1.963-0.381c0.662-0.07,1.33-0.1,1.998-0.082c0.662,0.029,1.33,0.1,1.986,0.214
	c0.656,0.126,1.301,0.296,1.928,0.513c0.633,0.217,1.242,0.486,1.834,0.794c0.914,0.48,1.799,1.078,2.607,1.784
	c0.803,0.706,1.535,1.5,2.156,2.361c0.615,0.858,1.125,1.764,1.529,2.672c0.398,0.905,0.686,1.805,0.891,2.648l0.176,0.765
	l0.141,0.65l0.229,0.697l0.152-0.413l0.023-0.551l-0.035-0.715c-0.082-1.034-0.387-2.35-0.803-3.363l-0.246-0.639
	c-0.516-1.113-1.154-2.165-1.928-3.105l-1.225-1.339l-0.68-0.606l-0.346-0.29l-0.363-0.275l-0.182-0.135l-0.188-0.129l-0.375-0.258
	l-0.387-0.237l-0.193-0.12l-0.199-0.111l-0.398-0.22l-0.404-0.202l-0.205-0.1l-0.211-0.091l-0.416-0.182l-0.428-0.164l-0.217-0.079
	l-0.217-0.073l-0.434-0.141l-0.439-0.123l-0.896-0.211l-0.457-0.079l-0.457-0.067c-2.016-0.267-4.09-0.108-6.041,0.483
	c-1.957,0.583-3.773,1.614-5.297,2.959c0.592-0.612,1.242-1.184,2.045-1.72l0.322-0.337l-0.469,0.208l-0.668,0.404
	c-0.973,0.688-1.857,1.485-2.631,2.379c-0.768,0.896-1.441,1.881-1.963,2.936c-1.066,2.106-1.588,4.474-1.529,6.814
	c0.053,2.341,0.691,4.667,1.834,6.709c0.574,1.025,1.271,1.975,2.074,2.83l0.621,0.624l0.322,0.302l0.158,0.135l0.082,0.07
	l0.041,0.035v0.032v0.129l-0.006,0.8l-0.023-0.322l-0.053-0.46l-0.07-0.003l-0.082,0.984c0,0.885,0,1.772,0,2.648
	c0.006,1.228,0.012,2.446,0.018,3.656l1.547-0.009l1.143-0.015c0.545-0.003,1.096-0.012,1.641-0.023
	c1.09-0.015,2.18-0.032,3.27-0.053c2.18-0.035,4.348-0.073,6.533-0.111c-0.469,0.059-0.076,0.173,0.785,0.182l1.271,0.006
	c0.768,0.006,1.547,0.009,2.326,0.012c0.006-1.254,0.006-2.525,0.012-3.8c-0.006-0.929-0.006-1.86-0.012-2.774l-0.006-0.618
	l-0.006-0.053v-0.015l0.012-0.012l0.047-0.044l0.1-0.088l0.047-0.044l0.117-0.105l0.516-0.498c0.668-0.677,1.236-1.409,1.717-2.156
	c0.475-0.744,0.861-1.5,1.137-2.244l0.105-0.275l0.094-0.275l0.164-0.539l0.229-1.034c0.234-1.333,0.164-2.44-0.018-3.17
	c-0.17-0.647-0.334-0.642-0.48-0.214l-0.105,0.396l-0.129,0.53l-0.07,0.313l-0.088,0.337l-0.094,0.366l-0.111,0.384
	c-0.146,0.527-0.357,1.096-0.598,1.696c-0.264,0.592-0.563,1.204-0.926,1.802c-0.369,0.595-0.785,1.181-1.242,1.729l-0.727,0.779
	l-0.375,0.366L57.439,53.151L57.439,53.151z"/>
<path fill="#3BC7D3" d="M55.893,63.129L55.711,63.1c-0.645,0.076-1.318,0.018-1.963-0.056l0.012-0.012l-0.176-0.185
	c-1.758,0.108-3.527,0.281-5.215,0.598l0.047,0.234l0.527,0.023l-0.99,0.193l-0.182-0.158c-0.709-0.029-1.436,0.006-2.145,0.044
	c-1.037,0.053-2.068,0.138-3.088,0.272c-0.785,0.105-1.664,0.237-2.297,0.557l-0.393,0.41l0.902,0.267l0.123,0.009
	c0.861-0.108,1.705-0.211,2.584-0.252c0.727-0.035,1.459-0.05,2.191-0.053l-0.48,0.199l0.152,0.211
	c1.652-0.167,3.311-0.466,4.998-0.384l-0.064,0.021l0.1,0.223c1.184,0.029,2.326-0.152,3.486-0.246l0.146,0.193
	c1.494,0.064,3.357,0.103,3.967-0.923C58.441,63.478,57.012,63.165,55.893,63.129L55.893,63.129z"/>
<path fill="#3BC7D3" d="M55.893,68.939l-0.182-0.029c-0.645,0.073-1.318,0.015-1.963-0.062l0.012-0.006l-0.176-0.185
	c-1.758,0.108-3.527,0.281-5.215,0.601l0.047,0.231l0.527,0.021l-0.99,0.199l-0.182-0.164c-0.709-0.026-1.436,0.012-2.145,0.047
	c-1.037,0.05-2.068,0.135-3.088,0.272c-0.785,0.103-1.664,0.237-2.297,0.557l-0.393,0.41l0.902,0.267l0.123,0.009
	c0.861-0.108,1.705-0.211,2.584-0.255c0.727-0.032,1.459-0.047,2.191-0.053l-0.48,0.199l0.152,0.214
	c1.652-0.167,3.311-0.466,4.998-0.384l-0.064,0.018l0.1,0.226c1.184,0.026,2.326-0.152,3.486-0.249l0.146,0.196
	c1.494,0.067,3.357,0.103,3.967-0.923C58.441,69.285,57.012,68.971,55.893,68.939L55.893,68.939z"/>
<path fill="#3BC7D3" d="M42.012,68.221l0.176,0.032c0.65-0.073,1.318-0.018,1.969,0.059l-0.012,0.009l0.17,0.185
	c1.758-0.108,3.533-0.284,5.221-0.601l-0.053-0.234l-0.521-0.018l0.984-0.199l0.188,0.161c0.709,0.029,1.436-0.009,2.145-0.044
	c1.037-0.05,2.068-0.135,3.082-0.275c0.791-0.103,1.67-0.234,2.303-0.554l0.393-0.41l-0.908-0.267l-0.117-0.009
	c-0.861,0.108-1.711,0.211-2.59,0.252c-0.727,0.035-1.453,0.05-2.186,0.053l0.475-0.196l-0.146-0.217
	c-1.652,0.17-3.316,0.469-4.998,0.387l0.059-0.021l-0.1-0.223c-1.178-0.029-2.32,0.152-3.48,0.246l-0.152-0.193
	c-1.494-0.067-3.357-0.103-3.967,0.923C39.463,67.878,40.893,68.189,42.012,68.221L42.012,68.221z"/>
<path fill="#3BC7D3" d="M46.201,74.098l0.322,0.032c1.16-0.076,2.361-0.018,3.521,0.056l-0.023,0.012l0.311,0.185
	c0.785-0.029,1.576-0.062,2.361-0.097l1.184-0.059l0.293-0.015l0.053-0.018l0.105-0.035l0.146-0.038l0.088-0.018l0.018-0.006h0.018
	l0.006,0.023l0.012,0.258l-0.035,0.176l-0.012,0.047l-0.053,0.111l-0.047,0.117l-0.064,0.111l-0.539,0.876l0.229,0.094l0.287-0.352
	l0.076-0.082l0.064-0.082l0.129-0.164l-0.088,0.182l-0.094,0.182l-0.223,0.357l-0.264,0.34l-0.141,0.17l-0.158,0.155l-0.34,0.085
	c-0.48,0.36-1.008,0.671-1.559,0.923l-0.422,0.17l-0.428,0.149l-0.891,0.196c-0.873,0.138-1.775,0.117-2.648-0.073
	c-0.867-0.196-1.705-0.551-2.461-1.049c-0.586-0.384-1.148-0.885-1.629-1.43c-0.486-0.548-0.902-1.131-1.242-1.658L41.9,73.694
	l-0.152-0.199l-0.293-0.185l-0.082,0.65l0.188,0.601l0.135,0.302l0.146,0.278l0.105,0.229c0.943,1.538,2.338,2.701,3.979,3.396
	c0.68,0.284,1.395,0.475,2.121,0.574l0.275,0.032l0.275,0.023l0.551,0.021l1.096-0.079l-0.229,0.082l-0.229,0.073l-0.492,0.114
	l0.311,0.199c0.873-0.085,1.723-0.313,2.514-0.671c0.785-0.354,1.506-0.832,2.139-1.403c0.633-0.568,1.178-1.228,1.617-1.951
	l0.152-0.275l0.105-0.188l0.111-0.211l0.357-0.85l0.047-0.105l0.035-0.105l0.059-0.211l0.129-0.422l0.258-0.876l-0.018,0.158
	l0.088,0.167l0.27-0.633l0.023-0.085l0.006-0.021v-0.015l-0.041-0.006l-0.164-0.015l-0.328-0.032l-0.662-0.062l-0.328-0.023h-0.369
	l-0.738,0.009l-0.715,0.012l-0.387,0.018l-0.779,0.035c-1.037,0.053-2.068,0.123-3.111,0.17l-0.264-0.193
	c-2.678-0.067-6.018-0.103-7.107,0.923C41.637,73.752,44.197,74.066,46.201,74.098L46.201,74.098z"/>
<path fill="#3BC7D3" d="M32.303,35.936l-0.047-0.076L31.6,35.13h0.012l0.006-0.123c-0.639-0.598-1.307-1.181-2.004-1.679
	l-0.064,0.094l0.17,0.199l-0.41-0.287l-0.006-0.123l-0.75-0.759l-1.154-1.02l-0.984-0.642l-0.287,0.003l0.217,0.416l0.035,0.047
	l0.979,0.847l0.768,0.773l-0.234-0.105l-0.029,0.129c0.627,0.539,1.307,1.034,1.852,1.67l-0.029-0.015l-0.047,0.114l1.283,1.172
	l-0.023,0.12c0.492,0.56,1.113,1.248,1.693,1.116L32.303,35.936L32.303,35.936z"/>
<path fill="#3BC7D3" d="M32.303,35.936l0.053-0.032l-0.047-0.076l-0.003-0.006l-0.659-0.732L31.6,35.13v0.059h0.012h0.059
	l0.009-0.179v-0.029l-0.021-0.018c-0.639-0.601-1.31-1.184-2.01-1.685l-0.053-0.035l-0.097,0.146l-0.026,0.038l0.202,0.231
	l0.044-0.038l0.035-0.05l-0.387-0.272l-0.003-0.091l-0.003-0.023l-0.765-0.776l-0.003-0.003l-1.154-1.02l-0.003-0.003l-0.99-0.645
	l-0.015-0.009l-0.305,0.003l-0.1,0.003l0.264,0.501l0.041,0.056l0.003,0.006l0.984,0.85l0.038-0.044l-0.041,0.041l0.768,0.773
	l0.041-0.041l0.026-0.056l-0.234-0.105l-0.067-0.029l-0.047,0.199l-0.006,0.035l0.026,0.023c0.63,0.542,1.307,1.034,1.846,1.664
	l0.044-0.038l0.026-0.056L29.71,34.5l-0.056-0.026l-0.073,0.173l-0.015,0.038l1.289,1.178l-0.018,0.088l-0.006,0.029L30.853,36
	c0.454,0.513,1.008,1.146,1.591,1.154l0.161-0.018l0.059-0.015l-0.302-1.201l-0.003-0.012l-0.003-0.006L32.303,35.936l-0.059,0.012
	l0.287,1.146l0.059-0.015l-0.012-0.059l-0.135,0.015l-1.5-1.113l-0.047,0.041l0.059,0.009l0.023-0.117l0.006-0.035l-1.277-1.166
	l0.032-0.076l-0.056-0.021l-0.026,0.053l0.029,0.015l0.27,0.135L29.76,34.53c-0.551-0.642-1.233-1.14-1.857-1.676l-0.041,0.047
	l0.059,0.012l0.012-0.059l0.17,0.076l0.299,0.138l-0.999-1.008l-0.979-0.847l-0.026-0.035l-0.17-0.325l0.17-0.003l0.967,0.63
	l1.151,1.017l0.038-0.044l-0.041,0.041l0.732,0.741l0.006,0.103v0.026l0.437,0.305l0.407,0.293l-0.469-0.542l0.038-0.059
	l-0.05-0.032l-0.035,0.047c0.694,0.498,1.362,1.078,1.998,1.676l0.041-0.044l-0.059-0.003l-0.006,0.123l0.059,0.003v-0.062H31.6
	h-0.135l0.744,0.826l0.044,0.07L32.303,35.936l-0.059,0.012L32.303,35.936L32.303,35.936z"/>
<path fill="#3BC7D3" d="M40.834,28.764l-0.012-0.062l-0.293-0.621l0.006,0.003l0.053-0.097l-1.113-1.471l-0.094,0.07l0.076,0.167
	l-0.246-0.261l0.041-0.097l-0.369-0.65l-0.621-0.888l-0.621-0.58l-0.246-0.023l0.029,0.34l0.018,0.038l0.533,0.738l0.375,0.665
	l-0.164-0.1l-0.07,0.094l0.984,1.453l-0.023-0.015l-0.082,0.085l0.674,1.017l-0.059,0.091c0.211,0.478,0.498,1.061,1.049,1.011
	L40.834,28.764L40.834,28.764z"/>
<path fill="#3BC7D3" d="M40.834,28.764l0.059-0.012l-0.012-0.062v-0.006l-0.296-0.63l-0.056,0.026l-0.026,0.053l0.006,0.003
	l0.05,0.026l0.082-0.149l0.018-0.032l-1.134-1.503l-0.038-0.047l-0.141,0.105l-0.038,0.029l0.097,0.211l0.053-0.023l0.044-0.041
	l-0.22-0.234l0.026-0.056l0.012-0.026l-0.384-0.68l-0.003-0.006l-0.621-0.888l-0.003-0.003l-0.627-0.586l-0.015-0.015L37.4,24.194
	l-0.073-0.006l0.038,0.41v0.012l0.023,0.047v0.006l0.539,0.747l0.047-0.038l-0.053,0.032l0.375,0.662l0.053-0.029l0.032-0.053
	l-0.164-0.1l-0.047-0.026l-0.103,0.135l-0.026,0.035l1.008,1.488l0.05-0.032l0.032-0.053l-0.023-0.015l-0.041-0.026l-0.114,0.12
	l-0.035,0.035l0.68,1.025l-0.038,0.059l-0.018,0.026l0.015,0.029c0.202,0.454,0.475,1.043,1.037,1.049l0.07-0.003l0.044-0.003
	l0.185-0.952l0.003-0.015l-0.003-0.009L40.834,28.764l-0.059-0.012L40.6,29.661l0.059,0.012l-0.003-0.062l-0.062,0.003l-0.929-0.979
	l-0.056,0.026l0.05,0.032l0.062-0.091l0.021-0.032L39.07,27.56l0.05-0.05l-0.044-0.041l-0.029,0.05l0.023,0.015l0.24,0.155
	l-1.122-1.658l0.012-0.015l0.12,0.07l0.196,0.123l-0.489-0.867l-0.003-0.003l-0.53-0.738l-0.012-0.023l-0.021-0.258l0.152,0.015
	l0.601,0.563l0.618,0.885l0.05-0.035l-0.053,0.032l0.354,0.624l-0.026,0.064l-0.018,0.038l0.272,0.29l0.243,0.258l-0.202-0.448
	l0.009-0.006l1.055,1.392l-0.035,0.064l0.053,0.029l0.026-0.056l-0.006-0.003l-0.152-0.073l0.36,0.768l0.012,0.056L40.834,28.764
	l-0.059-0.012L40.834,28.764L40.834,28.764z"/>
<path fill="#3BC7D3" d="M49.828,27.346l0.012-0.064l0.029-0.7l0.006,0.006l0.094-0.062c-0.059-0.627-0.141-1.257-0.305-1.86
	l-0.111,0.018l-0.012,0.188l-0.1-0.352l0.082-0.064L49.5,23.69l-0.135-1.099l-0.281-0.82l-0.205-0.138l-0.129,0.322l-0.006,0.041
	l0.123,0.923l0.029,0.776l-0.1-0.167l-0.105,0.053c0.082,0.589,0.234,1.181,0.193,1.778l-0.012-0.021l-0.111,0.032l0.123,1.245
	l-0.1,0.053l0.463,1.412L49.828,27.346L49.828,27.346z"/>
<path fill="#3BC7D3" d="M49.828,27.346l0.059,0.009l0.012-0.064l0.003-0.003l0.029-0.706h-0.062l-0.041,0.041l0.006,0.006
	l0.032,0.035l0.135-0.088l0.032-0.021L50.03,26.52c-0.059-0.63-0.144-1.263-0.308-1.872l-0.015-0.05l-0.164,0.023l-0.047,0.009
	l-0.015,0.234l0.059,0.006l0.059-0.018l-0.091-0.313l0.053-0.038l0.023-0.018l-0.023-0.797v-0.006l-0.135-1.099l-0.003-0.006
	l-0.281-0.826l-0.009-0.021l-0.22-0.146l-0.064-0.041l-0.152,0.39l-0.006,0.009l-0.006,0.05L48.683,22l0.126,0.926l0.059-0.006
	h-0.059l0.029,0.779l0.059-0.003l0.053-0.029l-0.1-0.17L48.82,23.45l-0.155,0.076l-0.038,0.021l0.006,0.041l0.199,1.564
	l-0.006,0.205l0.059,0.003l0.053-0.032l-0.012-0.021l-0.026-0.041l-0.155,0.05l-0.047,0.015l0.123,1.251l-0.062,0.032l-0.047,0.026
	l0.48,1.459l0.032,0.105l0.65-0.823l0.009-0.012l0.003-0.015L49.828,27.346l-0.047-0.038l-0.51,0.647l-0.413-1.257l0.056-0.029
	l0.035-0.021l-0.123-1.233l0.064-0.021l-0.018-0.056l-0.05,0.029l0.012,0.021l0.097,0.176l0.015-0.202l0.006-0.211l-0.202-1.579
	l-0.059,0.009l0.029,0.053l0.053-0.029l0.073,0.123l0.117,0.208l-0.035-1.02l-0.003-0.009l-0.12-0.911l0.003-0.029l0.1-0.246
	l0.126,0.088l0.272,0.794l0.135,1.093L49.5,23.69h-0.059l0.021,0.735l-0.056,0.044l-0.032,0.026l0.111,0.39l0.091,0.334l0.032-0.486
	l0.064-0.009l-0.009-0.059l-0.056,0.015c0.161,0.598,0.243,1.225,0.302,1.852l0.059-0.006l-0.032-0.053l-0.094,0.062l0.032,0.053
	l0.044-0.044l-0.006-0.006l-0.097-0.094l-0.035,0.835l0.059,0.003l-0.059-0.012l-0.012,0.064L49.828,27.346l-0.047-0.038
	L49.828,27.346L49.828,27.346z"/>
<polygon fill="#3BC7D3" points="58.893,29.763 58.939,29.734 59.396,29.297 59.396,29.306 59.502,29.33 60.434,27.917 60.34,27.85 
	60.217,27.964 60.363,27.668 60.457,27.68 60.914,27.17 61.5,26.365 61.805,25.641 61.74,25.41 61.447,25.524 61.418,25.553 
	60.938,26.236 60.475,26.757 60.51,26.582 60.398,26.541 59.438,27.827 59.443,27.806 59.338,27.75 58.658,28.638 58.559,28.606 
	58.02,29.839 58.893,29.763 "/>
<polygon fill="#3BC7D3" points="58.893,29.763 58.925,29.813 58.972,29.784 58.975,29.781 59.438,29.338 59.396,29.297 
	59.338,29.297 59.338,29.306 59.338,29.353 59.49,29.388 59.528,29.397 60.483,27.95 60.516,27.903 60.375,27.8 60.334,27.771 
	60.176,27.92 60.217,27.964 60.272,27.991 60.398,27.733 60.451,27.739 60.48,27.742 60.958,27.208 60.964,27.206 61.55,26.397 
	61.55,26.397 61.86,25.662 61.869,25.644 61.799,25.392 61.778,25.328 61.427,25.471 61.415,25.474 61.38,25.506 61.374,25.512 
	60.891,26.201 60.938,26.236 60.894,26.195 60.431,26.716 60.475,26.757 60.533,26.769 60.568,26.593 60.58,26.541 60.422,26.482 
	60.378,26.467 59.391,27.789 59.438,27.827 59.496,27.841 59.502,27.821 59.514,27.774 59.367,27.698 59.32,27.674 58.638,28.568 
	58.579,28.547 58.526,28.53 57.967,29.813 57.926,29.907 58.898,29.822 58.913,29.819 58.925,29.813 58.893,29.763 58.887,29.702 
	58.116,29.769 58.591,28.679 58.641,28.694 58.679,28.708 59.355,27.827 59.417,27.859 59.443,27.806 59.388,27.789 59.382,27.809 
	59.288,28.123 60.422,26.611 60.442,26.62 60.416,26.746 60.369,26.962 60.984,26.274 61.465,25.591 61.479,25.577 61.702,25.489 
	61.743,25.635 61.45,26.333 60.867,27.135 60.914,27.17 60.87,27.129 60.434,27.616 60.372,27.607 60.328,27.604 60.164,27.938 
	60.018,28.228 60.346,27.926 60.352,27.932 59.476,29.262 59.411,29.248 59.396,29.306 59.458,29.306 59.458,29.297 59.458,29.157 
	58.904,29.684 58.86,29.71 58.893,29.763 58.887,29.702 58.893,29.763 "/>
<path fill="#3BC7D3" d="M66.486,37.67l0.076-0.041l0.756-0.563v0.006l0.123,0.023c0.627-0.565,1.236-1.16,1.775-1.79l-0.094-0.073
	l-0.199,0.146l0.305-0.372l0.123,0.009l0.791-0.656l1.072-1.022l0.697-0.905l0.018-0.275l-0.422,0.164l-0.047,0.032l-0.896,0.87
	l-0.803,0.671l0.111-0.22l-0.117-0.041c-0.568,0.56-1.102,1.172-1.758,1.641l0.012-0.029l-0.105-0.056l-1.23,1.134l-0.117-0.032
	c-0.58,0.419-1.295,0.958-1.207,1.541L66.486,37.67L66.486,37.67z"/>
<path fill="#3BC7D3" d="M66.486,37.67l0.029,0.053l0.076-0.041l0.003-0.003l0.759-0.565l-0.035-0.047H67.26v0.006v0.053l0.173,0.029
	l0.026,0.003l0.023-0.018c0.627-0.568,1.239-1.163,1.781-1.796l0.041-0.047l-0.144-0.114l-0.038-0.026l-0.234,0.173l0.035,0.05
	l0.047,0.035l0.284-0.346l0.094,0.006h0.023l0.809-0.671l1.075-1.025h0.003l0.7-0.911l0.012-0.015l0.021-0.293l0.003-0.094
	l-0.507,0.199l-0.009,0.003l-0.05,0.035h-0.003l-0.902,0.876l0.041,0.044l-0.038-0.047l-0.803,0.671l0.038,0.047l0.053,0.026
	l0.111-0.22l0.032-0.062l-0.182-0.064l-0.035-0.012l-0.026,0.026c-0.571,0.563-1.102,1.172-1.752,1.635l0.035,0.05l0.056,0.023
	l0.012-0.026l0.021-0.05l-0.152-0.085l-0.038-0.021l-1.236,1.14l-0.085-0.023l-0.029-0.009l-0.023,0.018
	c-0.545,0.398-1.23,0.896-1.239,1.491l0.009,0.111l0.012,0.056l1.192-0.17l0.009-0.003l0.012-0.003L66.486,37.67l-0.009-0.062
	l-1.137,0.161l0.009,0.062l0.059-0.015l-0.006-0.085c-0.009-0.495,0.639-1.002,1.189-1.395l-0.035-0.047l-0.015,0.056l0.117,0.032
	l0.029,0.009l1.225-1.125l0.067,0.035l0.029-0.053l-0.053-0.023l-0.012,0.026l-0.091,0.199l0.179-0.126
	c0.665-0.475,1.198-1.09,1.767-1.646l-0.044-0.041l-0.021,0.056l0.056,0.018l-0.082,0.158l-0.129,0.258l1.022-0.855l0.003-0.003
	l0.894-0.867l0.038-0.023l0.328-0.129l-0.012,0.164l-0.683,0.888l-1.066,1.017l-0.773,0.642l-0.097-0.009h-0.032l-0.325,0.396
	l-0.287,0.354l0.533-0.39l0.059,0.047l0.035-0.047l-0.044-0.041c-0.536,0.627-1.146,1.222-1.77,1.784l0.038,0.047l0.012-0.062
	l-0.123-0.021l-0.012,0.059h0.062v-0.006v-0.12l-0.85,0.63l-0.07,0.041L66.486,37.67l-0.009-0.062L66.486,37.67L66.486,37.67z"/>
</svg>
