<?xml version="1.0" encoding="utf-8"?>
<!DOCTYPE svg PUBLIC "-//W3C//DTD SVG 1.1//EN" "http://www.w3.org/Graphics/SVG/1.1/DTD/svg11.dtd">
<svg xmlns="http://www.w3.org/2000/svg" viewBox="0 0 97.5 98.184" overflow="visible">
<radialGradient id="GUI_GRAD" cx="47.75" cy="280" r="49" gradientTransform="matrix(1 0 0 -1 0 330)" gradientUnits="userSpaceOnUse">
     <stop  offset="0"     style="stop-color:#FFFFFF"/>
     <stop  offset="0.195" style="stop-color:#F7F8F8"/>
     <stop  offset="0.38"  style="stop-color:#E1E3E6"/>
     <stop  offset="0.56"  style="stop-color:#BEC2C8"/>
     <stop  offset="0.707" style="stop-color:#979FA8"/>
     <stop  offset="0.83"  style="stop-color:#707A87"/>
     <stop  offset="0.85"  style="stop-color:#697481"/>
     <stop  offset="0.98"  style="stop-color:#374658"/>
     <stop  offset="0.996" style="stop-color:#314052"/>
     <stop  offset="1"     style="stop-color:#2F3E51"/>
</radialGradient>
<path fill="url(#GUI_GRAD)" d="M94.5,50c0,25.178 -20.411,45.592 -45.589,45.592c-25.178,0 -45.595,-20.414 -45.595,-45.592c0,-25.181 20.417,-45.593 45.595,-45.593c25.178,-0 45.589,20.412 45.589,45.593"/>
<g transform="scale(0.065,0.065) translate(200,100)">
<path fill="#fff" d="M574.9 367.4l29.4-6.9 133.3 31.9 16.7 7.8 3.9 24 17.2 16.7.5 7.8 12.7 15.7a4.8 4.8 0 0 1-.5 6.9 4.3 4.3 0 0 1-3.9 1l9.8 12.3 2.9 4.4 10.8-3.9 7.8-1 11.8 57.3 1 44.1-4.4 124.9-2.5 5.4.5 51.4-9.8 39.2-31.9-3.4-24-12.2-6.9 43.6-4.9 21.1L740 880l-9.3 14.7-9.3 6.9-19.6 12.7-2.5 7.3 1 27.9-34.3 22-29.4 18.1 8.8 48.5 18.1-11.8 18.6-7.8 11.8-11.8 7.4-8.3 6.9-2.9 7.8 1.5 2.9 8.8-87.7 80.4-4.4-8.8 1.5-30.9-14.2-46.5-54.4 9.3h-30.8l-16.7-2.5-42.1 29.9-26 6.9-33.8 2.5-38.2-2.9 13.7 26.9 24.5 8.3 11.3 13.7-18.1 7.8-49-36.3-5.4 2-1.5 9.8-11.8-7.3 3.4-20.1 10.8-20.1-4.4-13.7 6.4-18.6-4.4-1.5-87.7 20.6-65.7 13.2-44.6 2-24.5-9.3-18.6-20.6-18.6-34.3-2.5-22.5 4.4-20.6 14.7-11.8 26-8.8 28.4-.5 4.9-3.9 12.3-18.6 10.3-4.4 13.7-1 34.3 8.8 13.2-22.5 14.7-37.2 14.7-50 5.9-6.4 8.8-5.9 10.8-9.3 17.6-57.8L350 607l17.6-24.5 31.9-59.8L422 484l27-32.8 21.6-22 29.4-23 22-11.8 8.3-5.4.5-5.4 10.3-7.4z"/>
<path fill="#f9c393" d="M671 422.3a72.5 72.5 0 0 0 20.1 5.4c11.2 1.6 17.7-.1 28.9-1 9-.7 14.4.4 23-2.5 6.1-2 12.8-1.2 14.7-7.3a9.8 9.8 0 0 0 .5-3.9h10.3l25.5 7.4 12.3 3.4 2.9-6.9-13.7-36.3-30.9-15.2-13.7-2.9 2.4-9.3-6.9-74.5-5.4-27-10.8-14.2-30.3-21.5-22.5-9.3-16.2 10.3-23.5 22.5-10.3 18.6 1 65.7-13.7 2.9-7.8 6.4-5.4 13.7 2 13.2 7.4 18.6 18.1 10.3 8.8 2.4L652 408z"/>
<path fill="#fff" d="M801.3 374.7l-7.3 6.4-31.9-15.7 5.9-6.3 12.2-2.5 15.7 2.9 3.9 5.9 1.5 9.3zm-101.4-19.1l-2.5-5.9 2.5-13.2 6.3-5.4 10.3 3 6.9 9.8 6.9-11.3 7.3-2.5 5.9 2 6.4 14.7-14.3 11.3-11.7-5.9-13.2 10.3-10.3-1-.5-5.9z"/>
<path fill="#f9c393" d="M803.3 511.4l10.7-26.9 56.4-29.9 14.7-8.3 2.9-10.8 1-30.4 5.9-13.7 12.7-6.9 8.4-5.4 11.7-25.9 5.9 3.9 4.4 5.9 10.3-3.5 11.3 5.9 1.4 12.3 3 14.2-1 9.3 3.4 15.2-3.9 10.8 1.5 16.1-17.7 7.9-23 16.6-15.2-3.4-4.4-1-7.8 11.8-38.7 34.3-33.4 30.4-17.1 3.9-4.9-14.7 2.4-12.8-.9-4.9zm-77.9 225l2.4-40.2-18.1-2-24-17.6-14.2-2.5-14.3.5-9.3-5.9-28.9-10.3-50.9-24-14.2-10.7-21.6 17.6-12.7 22.5.4 4.4 14.3 4.5 6.3 5.3 74 16.7 11.8 2 1.9 10.3-.9 29.4 5.8 7.8 33.8 20.1h6.4l12.8-3.9 3.9-3h7.3l6.4-3.9 3.4-2.9 8.8-4.4 9.4-9.8z"/>
<path fill="#e0b447" d="M781.7 678.5l-79.9 33.8 4.9 10.3 78.9-33.3h7.4l6.8-2.4 16.7 4.9h13.2l109.8 66.6 13.2-4.4 14.2-11.8 19.6-28.4 3.5-8.3 9.8-26.5 3.4-28.9-1.5-33.8-3.4-20.6-8.3-24.5-11.3-15.7-20.1-19.1-13.7-6.8-19.1-4.9-20.1 1-31.9 6.3-14.7 8.8-34.9 83.8-7.2 17.2-7.9 8.8-7.8 4.4-5.4 13.7-6.4 3.5-7.8 6.3z"/>
<path fill="#fff" d="M852.8 664.8l-31.9-47.5 18.6-37.7 105.9 46.5L890 738.8l-37.2-4.4v-69.6z"/>
<path fill="#e0b447" d="M624.9 755.5l5.4-4.4 12.2-1.5 5.9 3.4-9.3 6.4-13.2-.5-1-3.4z"/>
<path fill="#a99990" d="M635 1095l30.2-47.4 39.6-32.9 18-9.8 4.9 5.4-30 55.2-28.9 4.5-1.3 9.5-11.8 12-18.2 8.1-2.5-4.6z"/>
<path fill="#f9c393" d="M657.5 391.2a27.2 27.2 0 1 1 27.2 27.2 27.2 27.2 0 0 1-27.2-27.2"/>
<path fill="#f9c192" d="M658.5 391.2a26.2 26.2 0 1 1 26.2 26.2 26.2 26.2 0 0 1-26.2-26.2"/>
<path fill="#f8c091" d="M659.5 391.2a25.1 25.1 0 1 1 25.1 25.1 25.1 25.1 0 0 1-25.1-25.1"/>
<path fill="#f8be91" d="M660.6 391.2a24.1 24.1 0 1 1 24.1 24.1 24.1 24.1 0 0 1-24.1-24.1"/>
<path fill="#f8bd90" d="M661.6 391.2a23 23 0 1 1 23 23 23 23 0 0 1-23-23"/>
<path fill="#f8bc90" d="M662.6 391.2a22 22 0 1 1 22 22 22 22 0 0 1-22-22"/>
<path fill="#f8bb8f" d="M663.7 391.2a21 21 0 1 1 21 21 21 21 0 0 1-21-21"/>
<path fill="#f7b98f" d="M664.7 391.2a19.9 19.9 0 1 1 19.9 19.9 19.9 19.9 0 0 1-19.9-19.9"/>
<path fill="#f7b88e" d="M665.7 391.2a18.9 18.9 0 1 1 18.9 18.9 18.9 18.9 0 0 1-18.9-18.9"/>
<path fill="#f7b68e" d="M666.8 391.2a17.9 17.9 0 1 1 17.8 17.8 17.9 17.9 0 0 1-17.9-17.9"/>
<path fill="#f7b58d" d="M667.8 391.2a16.8 16.8 0 1 1 16.8 16.8 16.8 16.8 0 0 1-16.8-16.8"/>
<path fill="#f6b48c" d="M668.8 391.2a15.8 15.8 0 1 1 15.8 15.8 15.8 15.8 0 0 1-15.8-15.8"/>
<path fill="#f6b28c" d="M669.9 391.2a14.8 14.8 0 1 1 14.8 14.8 14.8 14.8 0 0 1-14.8-14.8"/>
<path fill="#f6b18b" d="M670.9 391.2a13.7 13.7 0 1 1 13.7 13.7 13.7 13.7 0 0 1-13.7-13.7"/>
<path fill="#f6af8a" d="M672 391.2a12.7 12.7 0 1 1 12.7 12.7 12.7 12.7 0 0 1-12.7-12.7"/>
<path fill="#f5ae8a" d="M673 391.2a11.7 11.7 0 1 1 11.7 11.7 11.7 11.7 0 0 1-11.7-11.7"/>
<path fill="#f5ac89" d="M674 391.2a10.6 10.6 0 1 1 10.6 10.6 10.6 10.6 0 0 1-10.6-10.6"/>
<path fill="#f5ab89" d="M675.1 391.2a9.6 9.6 0 1 1 9.6 9.6 9.6 9.6 0 0 1-9.6-9.6"/>
<path fill="#f4a988" d="M676.1 391.2a8.5 8.5 0 1 1 8.5 8.5 8.5 8.5 0 0 1-8.5-8.5"/>
<path fill="#f4a887" d="M677.1 391.2a7.5 7.5 0 1 1 7.5 7.5 7.5 7.5 0 0 1-7.5-7.5"/>
<path fill="#f4a787" d="M678.2 391.2a6.5 6.5 0 1 1 6.5 6.5 6.5 6.5 0 0 1-6.5-6.5"/>
<path fill="#f4a586" d="M679.2 391.2a5.4 5.4 0 1 1 5.4 5.4 5.4 5.4 0 0 1-5.4-5.4"/>
<path fill="#fff" d="M728.3 378.7l-4.9-13.3-16.2-4.4-19.1 3.4-11.7 11.3-3 10.3 6.9 9.3h27.4l12.8-4.9 7.8-11.7z"/>
<path d="M82.1 937.5a1.5 1.5 0 0 0 1.4-1.5c.5-7.6 4-13.9 8.8-19.5a26.5 26.5 0 0 1 6.3-4.8 48.3 48.3 0 0 1 10.8-5 124.9 124.9 0 0 0 12-4.6c6.4-2.8 13.1-3.6 19.9-3.8 4.9-.1 9.8-.1 14.6.1a10.3 10.3 0 0 0 9.5-4.7 24.9 24.9 0 0 0 3.5-7.1 18.2 18.2 0 0 1 6.1-9 29.2 29.2 0 0 1 11.4-5.9 50.1 50.1 0 0 1 18-1.8 9.3 9.3 0 0 1 1.8.2c5.2 1.6 10.7 2.5 15.6 5a41 41 0 0 0 6.2 2.4 6.5 6.5 0 0 0 4.8-.2 4.7 4.7 0 0 0 2.7-2.2 57.3 57.3 0 0 0 2.8-5.5c.9-2.3 2.4-4.4 3.6-6.6 2-3.8 4.3-7.5 6-11.4s3.4-8.8 5.1-13.2a68.3 68.3 0 0 1 2.7-7c1.6-3.1 2.3-6.4 3.2-9.6l2.5-8.5c.6-2 1.2-4 1.7-6 2-7.6 3.8-15.2 6.5-22.6a68.6 68.6 0 0 1 9.9-18.3 31.7 31.7 0 0 1 13.5-10.6 14 14 0 0 0 8.5-9 153.6 153.6 0 0 0 5.1-18.4 145 145 0 0 1 5-18.4q3.1-8.8 5.7-17.7c.3-1.1.9-2.2 1.3-3.3 2.5-6.8 5-13.6 7.6-20.3a98.7 98.7 0 0 0 3.3-10.6c1.4-5.3 3.4-10.4 5.1-15.6l4.3-12.6c1.9-5.6 3.3-11.4 5.7-16.8a68.9 68.9 0 0 1 9.5-16 122.1 122.1 0 0 0 7.9-11.2c3.5-5.5 6.8-11.1 10.1-16.7 1-1.7 1.8-3.4 2.7-5.1 2.4-4.2 4.9-8.4 7.3-12.7a46.6 46.6 0 0 0 2.5-5.2 30.6 30.6 0 0 1 3-5.9 64.2 64.2 0 0 0 3.4-6.2l5.7-10.5 2-4c.7-1.4 1.4-2.9 2.2-4.3 2.4-4.2 5.3-8.3 7.3-12.7a84.2 84.2 0 0 1 6.8-11.4c2.3-3.4 4.2-7.1 6.7-10.4 5-6.4 9.8-13 14.9-19.3 2.8-3.5 5.9-6.6 8.9-9.9l9.2-10.2c1.7-1.9 3.4-3.7 5.2-5.4a284.9 284.9 0 0 1 24-19.7c1.2-.9 2.2-1.9 3.4-2.8l11.2-8.6a16.5 16.5 0 0 1 4.9-2.9 6.5 6.5 0 0 0 1.9-1.1c4.7-3.7 10.2-5.9 15.6-8.5a22.4 22.4 0 0 0 4.8-3.1 6.3 6.3 0 0 0 2.2-3.7c1.1-5.2 4.7-8.4 9.2-10.7a27.2 27.2 0 0 1 5.4-2l24.4-6.4a20.5 20.5 0 0 0 3.8-1.2c5.9-2.9 12.3-4.1 18.6-5.6a29.2 29.2 0 0 1 4.8-.6 10.3 10.3 0 0 0 5.2-1.4c-.1-1.8-.3-3.5-.3-5.3a37 37 0 0 1 .3-6.2c.8-4.8 1.8-9.6 4.3-13.9a11.2 11.2 0 0 1 2.7-3.5 20.4 20.4 0 0 0 2.2-2.2c1.8-1.9 9.1-5.3 11.5-5.3s3.3 1.2 4.6-.4-.1-2.9 0-4.3c.2-3.9-.5-7.9.6-11.9a18.7 18.7 0 0 0-.2-7.9c-1.2-6.5-.7-13-.7-19.5a47.5 47.5 0 0 0 0-4.9c-.8-7.5.8-14.7 3.5-21.6a64.2 64.2 0 0 1 11.8-18.8 53.1 53.1 0 0 1 11.5-10.3 18.8 18.8 0 0 0 2.5-1.9c4.7-4.1 10.1-7.2 15.5-10.3a29.5 29.5 0 0 0 7.8-6.4h4.4a11.2 11.2 0 0 0 1.7 1.3c4.4 2.2 8.7 4.4 13.1 6.4 9.2 4.2 17.7 9.6 26.3 14.7a63.9 63.9 0 0 1 8.2 6.1 42.8 42.8 0 0 1 4.8 5.1c1.1 1.2 1.9 2.6 2.9 3.9a3.4 3.4 0 0 1 .8 1c.5 3.5 3 5.9 4.7 8.8a37.3 37.3 0 0 1 3.8 9.9c.8 3.3 1.4 6.7 2.1 10a195.9 195.9 0 0 1 2.8 21.5c.3 3.2.9 6.4 1.4 9.6a6.1 6.1 0 0 1 .2 1.3c-.5 6.2 1.5 12.3 1.2 18.6-.1 2.3.5 4.7.7 7.1s.3 4.1.2 6.2a82.2 82.2 0 0 0 .3 13.3 14.8 14.8 0 0 1-1.5 9.9 5.3 5.3 0 0 0-.4 1.3c1.6 1.9 3.8 1.3 5.8 1.6a3.7 3.7 0 0 0 3.2-1.2c4.5-4.5 10.3-5.7 16.2-6.2a31.4 31.4 0 0 1 18.4 4.1c3.3 1.9 5.6 4.3 5.8 8.3a11.3 11.3 0 0 0 .5 2.6 5.1 5.1 0 0 1-.1 3.5 12.6 12.6 0 0 0-.6 2.6 8.7 8.7 0 0 1-2.3 4.7c-2.4 2.5-2.3 3.3-.5 6.2s2.4 3.8 3.4 5.7a24.3 24.3 0 0 1 2.7 7.5 40.6 40.6 0 0 0 3 9.7 14.3 14.3 0 0 1 1.3 6.9c-.2 4.7-1.5 9-5.4 12.1a4.4 4.4 0 0 1-4.5.8 37 37 0 0 1-8.7-4.3 34.7 34.7 0 0 0-7.2-3.3 93 93 0 0 0-12.4-3.5c-2.6-.6-5.2-.8-7.9-1.2l-3.9-.6a27 27 0 0 0-9.7.1c-5.9 1.2-12 1.9-18 2.8a37.9 37.9 0 0 1-6.2.3 15.8 15.8 0 0 1-10.5-4.1 15.2 15.2 0 0 1-5-11c-.1-1.6-.3-3.2-.4-5-3.5.5-6.7.8-9.8 1.5a46.6 46.6 0 0 1-15.4.1 17.9 17.9 0 0 1-8.9-3.6 14 14 0 0 1-3.8-17.2l1.3-2.8a7.7 7.7 0 0 0-4.4-4.3c-4.4-2-7.9-5.1-11.5-8.3a87.6 87.6 0 0 0-12.9-9.4l-2.2-1.5a4.1 4.1 0 0 1-1.9-3.8c0-.4.1-.9.2-1.3.2-3.6-.8-6.8-3.6-9.1s-4.7-3.6-7.1-5.3a19.3 19.3 0 0 1-1.6-1.2c-2.8-2.6-6.4-3-9.9-3.3a9.6 9.6 0 0 0-8.3 3.4c-3.9 4.5-6.2 9.5-6.2 15.7s1.7 11.4 3.6 16.8c.6 1.6 2 3 2.7 4.6 2.3 5 6.2 8.6 10.9 11.3l2.6 1.7c4.5 3.2 9.4 5 14.8 3.4a2.6 2.6 0 0 1 .8.7 27.7 27.7 0 0 0 5.5 10.5 36.1 36.1 0 0 0 3.2 3.6c4.2 4 9.1 7.1 13.7 10.5l9.1 7.1a6.9 6.9 0 0 1 2.6 8.3c-.3 1-.6 2-1 2.9a46.5 46.5 0 0 0-2.9 9.2c-.5 2.9-1.4 5.7-1.8 8.6a25.9 25.9 0 0 0 3 16.2 6.4 6.4 0 0 0 3.4 3l1.2-1.6a2 2 0 0 1 2.1-1.2 2.5 2.5 0 0 1 2 2.1c.3 1.6.7 3.2.9 4.8.5 4.3 2.7 7.7 5.5 10.9a3.4 3.4 0 0 0 1.3.4c.7-1.7.2-3.3.3-4.8a14.4 14.4 0 0 1 1.1-5.6c.3-.7.8-1.4 1.6-1.2a2.7 2.7 0 0 1 1.6 1.3 12.7 12.7 0 0 1 .6 3 35.3 35.3 0 0 0 6.9 16.1 5.3 5.3 0 0 0 3.4 2.4 9.4 9.4 0 0 0 1-1.7c.4-1.3.6-2.6 1.1-3.8a1.8 1.8 0 0 1 3.2-.2 13.8 13.8 0 0 1 1 2.4 24.9 24.9 0 0 0 7.6 10.8 10.7 10.7 0 0 0 5.2 2.5c1.2-1.5.6-3.2.9-4.7s.6-3.2 1.9-4.4a1.7 1.7 0 0 1 2.7.1 7.3 7.3 0 0 1 1.1 2.3c1.2 4.5 2.9 8.7 6.6 11.7a17.3 17.3 0 0 1 1.5 1.6c2.6 2.8 2.6 2.8 7.3 3.8 1.9-1.8 1-5.3 4-6.7s2.4.8 2.5 2.7c.3 6 3.6 9.8 9.2 11.7a7.8 7.8 0 0 0 3.5.1c4.8-.7 5.6-.2 6.7 4.5a29.5 29.5 0 0 0 3.3 7.7 10.9 10.9 0 0 0 1.9 2.4c1.3 1.3 2.9 2 4.8 1.2s3.7-.1 5.2 1.9 3.7 7 5.1 10.8a59 59 0 0 1 1.8 7.7c1.1 4.7 1.9 9.6 5.7 13.4a10.7 10.7 0 0 0 .9-2c.9-4.6 1.8-9.3 2.7-13.9a14.4 14.4 0 0 1 .5-2.6c2.1-5.2 1.1-10.2-.7-15.1s-2.8-7.2-4.3-10.7a17.2 17.2 0 0 1-1.5-6.4c-.1-3.2.5-3.9 3.9-4.7l1-.6a8.3 8.3 0 0 0-.4-1.9c-2.4-4.9-4.3-10-7.3-14.6a24.4 24.4 0 0 1-2.4-5.2 6.4 6.4 0 0 1 .3-5.2c1.2-2.5.7-4-1.3-5.6s-6.4-4.7-9.1-7.8c-.9-1-1.7-2.1-2.5-3.1a3.9 3.9 0 0 1 .7-5.5 2.6 2.6 0 0 1 3.3.2 29.9 29.9 0 0 1 4.1 4.1c4 5.3 8.7 10.1 11.8 16.1a2.4 2.4 0 0 0 .8.5c1.4.1 2.3-1.1 3.3-1.8a17.3 17.3 0 0 1 9.4-3.6 21.7 21.7 0 0 0 8.7-3c6.3-3.4 12.4-6.9 18.6-10.4a25.3 25.3 0 0 0 2.7-1.6c3.6-2.7 7.6-4.4 11.6-6.4s7.1-3 10.5-4.6 5.4-3.1 8.1-4.5a36 36 0 0 1 4.8-2.3 14.7 14.7 0 0 0 5.7-4.2 4.6 4.6 0 0 0 1.3-1.8c.8-3.4 2.3-6.7 2.3-10.4a4.5 4.5 0 0 1 0-.9c1.2-5.6.3-11.2-.2-16.8-.3-4 .8-7.6 1.6-11.3.1-.7.4-1.4.5-2.2 1.4-7.8 6.6-12.6 13.2-16.2a90.6 90.6 0 0 1 8.4-3.9 9.7 9.7 0 0 0 5.5-6q1.9-5.2 3.7-10.5a40.9 40.9 0 0 1 6-11.3c3.2-4.3 8.4-3.6 10.5 1.3.5 1.1.8 2.2 1.3 3.3s2.2 2.8 4.5 1.5l1.5-1a13.6 13.6 0 0 1 15.7 1.3c4.7 3.8 6.5 8.3 5 14.1a4.6 4.6 0 0 0 .4 3.8c3.6 5.7 4 11.9 2.8 18.4a20.2 20.2 0 0 0 .9 10.8c2 5.7 2.4 11.6-1.1 17.1a5.5 5.5 0 0 0-.5 5.1 59.8 59.8 0 0 1 1.7 7.3 10.5 10.5 0 0 1-6 11.6l-7.7 3.3-3.2 1.6c-.9 3.3-.4 6.5-.3 9.7a6.6 6.6 0 0 0 .8 2 3.1 3.1 0 0 1 .5 1.1c-.6 6.8.7 13.6 1.4 20.3s.3 13 .9 19.5c.3 3.8-.3 7.6.4 11.4s.8 7.3 1.2 11c.1.9 0 1.8 0 2.5 2.9 1.9 5.7 3.5 8.3 5.5a63.8 63.8 0 0 1 10.6 10.1c3.4 4.3 7.2 8.2 10.9 12.2s8.5 10.6 10.1 17.4c.6 2.4 1.8 4.7 2.7 7.1q2.1 5.8 4.1 11.7a6.4 6.4 0 0 1 .4 2.2 27.9 27.9 0 0 0-.2 4.3 19 19 0 0 0 1.5 3.7 5.5 5.5 0 0 1 .5 2.1c-.2 3.9 1 7.6 1.4 11.4s.3 4.7.5 7 .6 3.2.7 4.8a40.2 40.2 0 0 1-.1 8.4c-.7 4.3-.4 8.6-.4 12.8a55.8 55.8 0 0 1-.7 6.1c-.5 3.9-1.8 7.8-1.6 11.8a22.6 22.6 0 0 1-.8 6.1 136.2 136.2 0 0 1-5.1 15.6l-2.3 6.2-2.3 5.8-2.7 6.5a16 16 0 0 1-2.5 4.7 18.8 18.8 0 0 0-2.5 4.2 85.9 85.9 0 0 1-7.8 13.3c-2.1 2.9-4.6 5.4-6.8 8.2a64 64 0 0 1-9.9 10.1 69.6 69.6 0 0 1-6.3 4.1 31.1 31.1 0 0 0-3.3 2.2 13.8 13.8 0 0 1-5.5 2.8l-13.7 3.5a9.4 9.4 0 0 1-4 .1 11.6 11.6 0 0 0-5.7.4c-4.7 1.3-9.4 2.5-14.4 2.6h-4.4c-3.1-.1-6.2-.8-9.3-.2a5.1 5.1 0 0 1-2.2-.2l-11.5-3.2c-2.3-.6-4.6-1.1-6.8-1.9-7.1-2.7-13.8-6.1-19.2-11.6a5.1 5.1 0 0 0-1.4-1.1c-4.7-2.2-7.9-6.1-11.7-9.5a23.7 23.7 0 0 0-2.3-2.1 11.3 11.3 0 0 1-3.4-4.1 20.2 20.2 0 0 0-1.9-3l-9.4-11.3a1.9 1.9 0 0 0-.8-.3 1.5 1.5 0 0 0-.5.6c1 3.9-.1 7.9.5 11.9a52.6 52.6 0 0 1 .6 5.7c.2 4.4.4 8.9.5 13.3s0 5.9-.2 8.8-.2 6.9-1.2 10.1a95.7 95.7 0 0 0-3 13.4c-.3 1.5-.6 2.9-.9 4.3-.7 3.5-1.3 7-2.1 10.4s-1.1 4.6-1.7 7a2.3 2.3 0 0 0 .3.7c.6.8 1.8 1.2 1.7 2.4s-1.4 2.3-2.7 2.7a11 11 0 0 1-3.9.5l-16.4-1a21.8 21.8 0 0 1-2.6-.5 10.8 10.8 0 0 0-3-.5c-5 .5-9.6-1.6-14.3-2.7l-4.7-1.3a35.1 35.1 0 0 1-11.1-5.4l-1.6-.9a7.4 7.4 0 0 0-2 4.4l-.8 6.6a18.3 18.3 0 0 1-.5 3.5 41 41 0 0 0-1.4 8.7c-.4 3.5-.9 7-1.3 10.5-.2 1.9-.5 3.8-.6 5.7a27.2 27.2 0 0 1-3 11.9 8.9 8.9 0 0 0-.5 3.4c-.2 3.7-.1 7.4-.6 11.1a49.1 49.1 0 0 1-3.4 12.8 4 4 0 0 0-.3.8c-.7 3.8-2.8 7.1-4.4 10.6a17.8 17.8 0 0 1-6.1 7.4 18.4 18.4 0 0 0-3.1 3.1c-2 2.2-4.3 4.1-6.4 6.1l-.4.2c-5 1.2-8.6 5.1-13.1 7.3-2.8 1.3-4.5 3.8-6.4 6a4.2 4.2 0 0 0-.8 2 7.1 7.1 0 0 0 0 2.2c.5 3.6.9 7.3 1.7 10.9a24.9 24.9 0 0 1-1.5 16.5 26.5 26.5 0 0 1-8.4 10.2l-10.1 7.3a37.2 37.2 0 0 1-3.8 2.2l-14.9 7.9-3.6 1.7-4.4 2.1a22.5 22.5 0 0 0 0 2.8 31.9 31.9 0 0 1-.9 11.4 131.8 131.8 0 0 0-3.3 20.6c-.2 2.9-.1 5.9-.1 8.9a2.8 2.8 0 0 0 1.2 2.7c5.1-.9 9.8-3.3 14.6-5.2a76.7 76.7 0 0 0 11.7-5.3 20.6 20.6 0 0 0 6.9-6.2 57.7 57.7 0 0 1 8.2-9.3 41.5 41.5 0 0 1 7-5.4c2.9-1.8 6.2-1.9 9.5-1.3 7.4 1.2 12.5 5.6 16.3 11.9 1.6 2.7.7 5.5-.1 8.2a14 14 0 0 1-1 2c-1 2.1-1.9 4.3-3 6.4a109.8 109.8 0 0 1-5.5 10.1c-2.6 4-4.6 8.2-7.4 12.1s-3.3 6.6-4.8 9.9-2.5 5.7-3.7 8.6a7.8 7.8 0 0 1-6 4.8c-3.2.7-6.4 1.2-9.5 2.1a52.2 52.2 0 0 1-13.2 1.8c-2.3.1-3.5.9-4.2 3.1a27.5 27.5 0 0 1-2.6 6.5 28.1 28.1 0 0 1-5.1 6.1 61.2 61.2 0 0 1-23.5 13 14.2 14.2 0 0 1-10-.4c-2.4-1-4.2-2.6-4.9-4.8-1.3-4.7-3.2-9.2-3.1-14.2a16.4 16.4 0 0 1 1.1-7 11 11 0 0 0 .8-5.6 121.8 121.8 0 0 0-5.5-29.6c-1-3.1-1.9-6.2-2.8-9.3a83.8 83.8 0 0 0-3.2-8.2c-1.5-3.5-2.1-7.4-3-11.1-.4-1.6-.6-3.1-.9-4.8l-11.2 1.5-18.9 2.5c-5.6.8-11.1 1.8-16.7 2.4s-9.8.5-14.6.5c-6.5 0-13-.2-19.5-.1a45.1 45.1 0 0 1-13.3-1.1 18.4 18.4 0 0 0-2.2 1.5c-6.8 6-14.7 10.5-22.1 15.7a141.5 141.5 0 0 1-17.4 10.6 40.2 40.2 0 0 1-4.5 1.8l-12.2 4.2-2.1.7c-5 1.2-10 2.6-15.1 3.4a83.6 83.6 0 0 1-21.2.8c-4.5-.4-8.9 0-13.3.4a46.1 46.1 0 0 1-15-1 49.7 49.7 0 0 0-5.7-1 5.4 5.4 0 0 0-1.7.3 2.7 2.7 0 0 0 .8 2.9 38.2 38.2 0 0 1 5.5 8.5c.6 1.2 1.5 2.2 2.1 3.4a5 5 0 0 0 4.7 2.8c1.2 0 2.3.5 3.5.6 5.8.5 10.8 3.1 15.3 6.5s7 5.5 10.5 8.2a40.7 40.7 0 0 1 7.2 7.8c1.4 1.8 2.5 3.8 1.9 6.1s-1.4 5.8-4.2 7.6l-5.8 3.3c-.7.4-1.3.7-1.3 1.6h-4.4c-.9-1.2-1.8-.8-2.7 0h-2.7a3.4 3.4 0 0 0-1-.7 100.7 100.7 0 0 0-10.8-2.1c-7.1-.7-14.1-1.7-20.5-5.1l-1.2-.5a44.2 44.2 0 0 1-10.9-5.9 11.8 11.8 0 0 1-4.6-5.8c-1-2.9-1.9-5.9-2.7-8.9s-.9-4-3-5.2a6.3 6.3 0 0 1-1.9-2.4 2.8 2.8 0 0 0-2.8-1.8c-1.3.2-1.9 1.3-2.4 2.4a8 8 0 0 0-.5 2.6 13.1 13.1 0 0 0 .2 1.7c.1 1.7-.4 2.6-2 3a6 6 0 0 1-3 0 22.2 22.2 0 0 1-5.3-2.3c-3.6-2.4-6.2-5.5-6.4-10.1 0-1.5-.3-2.9-.3-4.4-.1-6.5.3-13 3-19.1s4.9-11.7 7.4-17.8a30.4 30.4 0 0 1-1.1-3.1c-.6-2.6-1.5-5.2-.7-7.8a25 25 0 0 1 3.6-8.1 27.9 27.9 0 0 0 2.9-5.9 6.2 6.2 0 0 0 0-2.2 15.6 15.6 0 0 0-6.2 1.1 162.8 162.8 0 0 1-17.9 5c-6.5 1.3-13.1 2.5-19.5 4.2s-15.5 3.6-23.3 5.2c-6.2 1.3-12.3 3-18.5 4.4s-13.9 2.8-20.9 4.1a36 36 0 0 1-4.3.9c-6.1.4-11.9 1.9-17.9 3.1-3.6.7-7.3 1-10.9 1.9a107.6 107.6 0 0 1-16.6 2.6 96.7 96.7 0 0 0-12.7 1.7 47.5 47.5 0 0 1-15.5.4 41.9 41.9 0 0 0-10.2 0 13 13 0 0 1-2.6.1c-7.6-.6-15-1.8-21.6-6-3.2-2.1-6.7-3.8-9.4-6.6a145.1 145.1 0 0 1-16.5-20.9c-3.2-5.1-6.8-10-9.2-15.7a60.3 60.3 0 0 0-3.3-5.8 65 65 0 0 1-5.6-14.9 60.5 60.5 0 0 1-1.9-14.9c0-1.4 0-2.7-1.5-3.4v-6.2zm724.6-434.9a13.3 13.3 0 0 1 2.1-9.3 20.8 20.8 0 0 0 1.8-5.4 3.6 3.6 0 0 0-.4-1.6c-5.8 1.1-5.8 1.1-9 4.2-.8 6.2.1 9.9 3.5 13.9l2.2-2a10 10 0 0 1-.4 2.2c-1.3 3.1-.6 6 .8 8.9a16.1 16.1 0 0 1 1.2 8.2 4.2 4.2 0 0 1-1.2 3.2c-2.1 1.7-1.7 4-1.5 6.2s.6 3.2.9 4.7 1.4 3 3.6 3.3a20.8 20.8 0 0 0 10.4-1.3 9.3 9.3 0 0 0 5-3.4 9.8 9.8 0 0 1 2.4-1.9c.9-.7 1.9-1.4 2.8-2.2 3.4-3.1 6.6-6.3 10.1-9.3 5.3-4.7 10.8-9.2 16.3-13.7 3.5-2.9 7.2-5.6 10.8-8.5s4.2-3.7 6.3-5.6c4.5-4.1 8.3-8.9 13-12.7a59.5 59.5 0 0 0 9.6-10.4c2.4-3.2 4.3-6.7 4.5-10.9a4 4 0 0 1 1.2-3.2 13.1 13.1 0 0 0 3.5-5.6c1.6-3.9 4.2-7.5 4.8-11.9a2 2 0 0 1 .4-.8 6.2 6.2 0 0 0 .8-5.1 8.7 8.7 0 0 1 .9-6c.3-.6.6-1.3.8-1.9a4.6 4.6 0 0 0-.8-1.3 3.5 3.5 0 0 1-1.1-4.7c.9-1.9 1.7-3.8 2.7-5.6a4.4 4.4 0 0 0 .7-3.8 10.7 10.7 0 0 1 .2-7c1-3.1 1.5-6.2-.4-9.3a6.8 6.8 0 0 1-.4-1.7 6.3 6.3 0 0 1 1.2-5.9 23.9 23.9 0 0 1 5.1-5.5 22.9 22.9 0 0 0 3.6-3.3c1.6-1.7 3-3.8 4.8-5.2s3.6-5.3 4.1-8.6-.7-5.5-4.6-6.9a8.6 8.6 0 0 0-1.3 1.7 36 36 0 0 0-2.5 6.1 46.6 46.6 0 0 1-6.2 14.1c-1.6 2.5-3 4.7-5.9 5.5l-1.2.6a29.5 29.5 0 0 1-9.5 4.6 10.6 10.6 0 0 0-4.5 2.8 21.7 21.7 0 0 0-6.5 14.2c-.6 7.4.6 14.8-.3 22.1a2.8 2.8 0 0 0 .1.9 11.3 11.3 0 0 1-.5 5.7c-.3 1.1-.3 2.4-.6 3.5s-1.6 5-2.5 7.5c-3.4 3.9-7 7.6-12.2 9.3a24.4 24.4 0 0 0-4.4 2.5l-3.8 2.3c-2 1.2-4.2 2.2-6.2 3.5a10.6 10.6 0 0 1-4.5 1.7 16.9 16.9 0 0 0-7.4 2.8c-3.2 2.2-6.4 4.3-9.7 6.2s-8.5 4-12.4 6.9l-1.2.7c-6.1 3-11.2 7.1-14 13.5l-.2.4c-1.5 2.5-2.6 5.5-4.9 7.6zM630 581a2.2 2.2 0 0 0 0 .7c3.9 2.4 7.6 5.3 11.8 7 5.9 2.4 11.7 4.8 17.5 7.5 3.6 1.7 7.2 3.4 11.2 4.1l3.4.9a1.4 1.4 0 0 1 1.2 1.6 2.7 2.7 0 0 1-1.2 1.6 6.3 6.3 0 0 1-2.6.4 23.5 23.5 0 0 1-8.7-1.7l-2.9-1.1c-4.1-1.2-8.3-2.1-12.3-3.5a94.9 94.9 0 0 1-23.2-12.8c-2-1.5-3.8-3.2-6.2-4.1a10.8 10.8 0 0 1-2.6-1.7c-3-2.4-5.9-4.8-9-7.1a79.4 79.4 0 0 1-10.1-9.3l-6.2-6.4c-2-2.2-4-4.3-5.9-6.7-3-3.8-6-7.7-8.9-11.6s-3.4-5.2-5-7.8c-3.5-5.5-5.2-11.9-9-17.2a5.3 5.3 0 0 1-.6-1.2c-1.4-3.7-2.9-7.4-4.2-11.2-2.1-6.1-3.3-12.5-4.9-18.9a24.7 24.7 0 0 0-.6-2.6c-1.8-4.8-2.1-9.8-2.4-14.8-.1-1 .1-2.1-.1-3.1a155.9 155.9 0 0 1-1.3-20.8c-.2-8.7-.1-17.5-2.6-25.9v-.3c-.4-4-.7-7.9-1.2-11.9s-1.1-7-1.8-10.5a3 3 0 0 0-1.4-2.1c-2.6-.9-5.3-1.8-8.1-.2-5.5 3.2-11 6.3-16.6 9.2-2.9 1.5-5.4 3.6-8.3 5-4.6 2.2-8.4 5.5-12.5 8.3s-7.4 5.9-11.1 8.8c-7.3 5.6-14 11.8-20.9 17.9a23.7 23.7 0 0 0-2 2.3c-2.5 2.9-4.7 6.2-7.6 8.6-5.3 4.4-9.1 10.1-13.4 15.3-2.5 2.9-4.5 6.2-6.9 9.3s-4.6 5.7-6.2 9.1-2.8 4.8-4.2 7.2c-3.9 6.4-8.2 12.7-11.7 19.3s-6.8 12.1-10 18.3c-1.4 2.8-3.1 5.4-4.4 8.2a219.2 219.2 0 0 1-11.6 22.4c-1.5 2.5-2.9 5.2-4.3 7.8a12.7 12.7 0 0 1-1.2 1.9 44.1 44.1 0 0 0-5 7.9 30.8 30.8 0 0 1-2.3 3.8L357 601.4c-1.4 2-3.1 4.1-3.8 6.4-2.7 9.2-7.1 17.9-9 27.4a3.3 3.3 0 0 1-.5 1.2c-1.8 2.5-2.2 5.5-2.9 8.3s-1.5 5.7-2.4 8.5-1.6 4.4-2.4 6.7c-2.7 8-5.3 16-8.8 23.7a41.5 41.5 0 0 0-1.8 4.5c-1.3 4.1-2.3 8.2-3.7 12.2a244.5 244.5 0 0 0-9.2 31.4c-1.3 6.3-4.1 12-6.7 17.8a4.2 4.2 0 0 1-.7 1.1c-2.2 2.4-4.2 5-6.7 7.1a21.6 21.6 0 0 1-5.9 3.8c-7.1 3-11.7 8.4-14.5 15.4-1.4 3.5-2.4 7.3-3.5 11s-1.8 6.2-2.7 9.4-1.4 4.8-2 7.3a22.1 22.1 0 0 1-.6 3c-1.8 4.2-1.7 9-3.6 13.2a3.5 3.5 0 0 0-.2 1.3c-.3 6.6-2.7 12.7-5.5 18.6a50.8 50.8 0 0 0-1.9 4.9 86.9 86.9 0 0 1-8 16.8 67.9 67.9 0 0 0-5.6 10.6c-1.5 3.8-2.8 7.8-5.3 11.2a19.5 19.5 0 0 0-3 5.9c-.5 1.8-1 3.7-3 4.7a1.6 1.6 0 0 0-.8 1c-.3 2.7-2.1 4.8-3.1 7.3a39.4 39.4 0 0 1-6.2 10.6 59.5 59.5 0 0 0-4.6 7c-1.6 2.6-3.1 5.3-5.9 7a9.2 9.2 0 0 0-3 3.7 85.5 85.5 0 0 1-10.5 15.9 37.8 37.8 0 0 0-3.3 4.2 26.5 26.5 0 0 1-6 6.4 12.1 12.1 0 0 0-2.7 2.3 13.6 13.6 0 0 1-5.7 4.8 15.4 15.4 0 0 0-2.5 1.8 22.4 22.4 0 0 1-2.5 1.8c-1.3.7-2.7 1.6-4.2.6s-1.3-2.5-.9-4a66.8 66.8 0 0 1 5.3-4.7c1.9-1.4 4.1-2.3 6.1-3.6a8.3 8.3 0 0 0 2.2-2.1 33.1 33.1 0 0 1 6.9-7.5 23.1 23.1 0 0 0 3.2-3.1 10.9 10.9 0 0 0 1.1-2 8.2 8.2 0 0 0-5.3-1.1c-7.5.3-15.1.6-22.4 2.5l-6.4 1.9c-4.2 1.1-8.1 2.8-10.9 6.3a5.1 5.1 0 0 1-4 2.2 9.8 9.8 0 0 1 .7-2.7c2.9-4.6 7.2-7.4 12.1-9.4a94.5 94.5 0 0 1 25.4-6.1 26.6 26.6 0 0 1 4-.1 53 53 0 0 0 8.8-.5 8.3 8.3 0 0 0 6.5-4 38.1 38.1 0 0 1 2.3-3.3c3.5-4.2 5.2-9.6 8.7-13.8a9.8 9.8 0 0 0 1-2.4c1.9-4.4 2.8-9.4 6-13.3a4.7 4.7 0 0 0 .6-1.2 9.5 9.5 0 0 1 2.8-3.9 8.4 8.4 0 0 0 2.9-7.8c-1.7-1.6-3.6-1.8-5.5-1.7a17.2 17.2 0 0 1-8.5-2.2 51 51 0 0 0-8.6-3.5 99.4 99.4 0 0 0-13-2.7 19.6 19.6 0 0 0-10.4 1.5 13.3 13.3 0 0 0-4 2.7 24.4 24.4 0 0 0-6.3 10.6c-1.4 4.4-4.3 7.7-7.7 10.6a8.2 8.2 0 0 1-5.7 2c-4.4-.1-8.9-.2-13.3 0s-9.1.6-13.7 1a11.3 11.3 0 0 0-3 .8c-4.8 1.8-9.6 3.9-14.5 5.5-8.4 2.8-15.1 8-21 14.4a12.8 12.8 0 0 0-3.3 6.2c-.5 2.8-1 5.5-1.4 8.3s.2 5.6.1 8.4c-.2 4.7 1.2 9.1 2 13.5a12.4 12.4 0 0 0 1.1 2.9l9.8 21.4a69.6 69.6 0 0 0 9.9 15.2 152.5 152.5 0 0 0 11.6 12.2c4.2 4.1 8.4 8.4 14.6 9.6l.4.2a44.8 44.8 0 0 0 5.2 1.1c7.2.8 14.3 2.2 21.6 1.9 4.3-.2 8.5.4 12.8.5a29.3 29.3 0 0 0 4-.2l12.8-1.4 4.8-.5 14.9-2.5c5.7-.8 11.3-1.6 16.9-3.3s12.5-3.5 18.8-5.3l16.2-4.6a52.7 52.7 0 0 1 5.2-.9l6.5-1.1c2.3-.5 4.6-1.3 6.9-1.5a83.7 83.7 0 0 0 18.7-3.7 41.5 41.5 0 0 1 7.4-1.6c4.2-.5 8.5-.9 12.5-2.4 1.2-.5 2.6-.6 3.9-1l19.2-5.4 5.1-1.5c3.1-.8 6.3-1.5 9.5-2.4s6.5-2 9.7-3.1a74.1 74.1 0 0 0 7-2.6q5.7-2.6 11.1-5.5c5.5-2.9 11-5.7 16.3-9s8.4-4.9 12.8-7.1a19 19 0 0 0 4.6-2.7 158.9 158.9 0 0 0 11.5-11.7c4-4.7 7.6-9.8 11.3-14.8s8.7-11.6 12.7-17.6 7.2-11.6 10.6-17.4a41.3 41.3 0 0 0 4.8-13.3c1.5-8.1 2.2-16.4 4.3-24.4a18.5 18.5 0 0 0 .3-3.1c.6-6.9.5-13.9 2.5-20.7a17.7 17.7 0 0 0 .3-3.5c.4-4.6.3-9.2 1.3-13.7 1.7-7.7 1.9-15.6 3.8-23.2a11.8 11.8 0 0 0 0-1.3c.3-2.5.6-5 1-7.5.8-4.2 1.8-8.4 2.7-12.6.2-1 .4-2 .7-3a178.6 178.6 0 0 0 4.8-20.7 112 112 0 0 1 3.3-13.3 160.3 160.3 0 0 0 4.5-18.5 100.2 100.2 0 0 1 2.2-10.9c2.2-8.3 4.7-16.5 7-24.7 1.2-4.1 2.2-8.3 3.3-12.4.6-2.1 1.5-4.2 1.8-6.4a17 17 0 0 1 3.1-7.7c1.4-2.1 2.5-4.3 4-6.4a51.3 51.3 0 0 1 4-4.7c.7-.8 1.5-1.4 2.3-2.1 5.2-4.8 10.4-9.7 16.2-13.8 1.9-1.4 3.8-2.8 5-5a3.7 3.7 0 0 1 3.5-2.3 4.8 4.8 0 0 0 3.2-1.4l2.8-2.2c1.8-1.4 3.5-1.4 4.2-.1s.1 2.6-1.6 3.6l-3.6 2.1a12.5 12.5 0 0 0 1.8 2.2c4.3 3.1 8.6 6.2 13.1 9a141.4 141.4 0 0 0 20.6 10.2c5.8 2.5 11.3 5.9 17.6 7.4a7.2 7.2 0 0 1 1.2.6 50.9 50.9 0 0 0 4.8 2.2 99 99 0 0 1 16.4 6.8 11.1 11.1 0 0 0 2.9 1.2c3.3.7 6.2 2.7 9.8 2.3a5.1 5.1 0 0 1 3.1 1.4 25.3 25.3 0 0 1 3.4 3.5 4.3 4.3 0 0 0 3.8 1.8c1.9-.2 3.8-.5 5.7-.6s4.1.2 6.1.3h.9c4.6-.3 9.2-.6 13.4 1.8 1.7.9 3.6 1.4 5.2 2.4s4.9 3.8 7.4 5.6c4.7 3.6 9.4 7.2 14.8 9.7l3.6 1.5a23.2 23.2 0 0 0 10 1.5 4.7 4.7 0 0 1 4.6 2.1l1.2 1.5c1.9-.7 3.7-1.3 5.5-2.1s6.3-3.3 9.8-4a12.2 12.2 0 0 0 2.9-1.5l1.6-4.4c1.8-5 3.8-9.9 4.7-15.2a36.6 36.6 0 0 1 1.6-5.1c1.9-5.8 3.8-11.5 5.6-17.3a28.6 28.6 0 0 0 .8-4.4c.1-.5.2-1.2-1.1-1.5a20.7 20.7 0 0 0-3 4.4 25.1 25.1 0 0 1-2.2 4.3c-1.5 2.2-3.1 4.3-4.7 6.4a27.7 27.7 0 0 1-2.1 2.3c-1.5 1.6-3.2 3.1-4.6 4.8s-4.8 6-7.1 9.1-5.6 5.6-7.7 9a47.1 47.1 0 0 1-5.1 6.2 25.6 25.6 0 0 1-2.9 2.7 4.1 4.1 0 0 1-1.6.7 2 2 0 0 1-2.5-2.6 9.7 9.7 0 0 1 2.7-4.5c2.7-2.7 5.5-5.4 8.1-8.2s4.8-5.3 6.9-8.1 5.9-7.4 9-11a81.5 81.5 0 0 0 8.6-11.3 167 167 0 0 0 9-16.3c2.8-6 5.3-12.2 7.6-18.4 3-8.2 5.7-16.4 8.4-24.7a150 150 0 0 0 4.4-15.8c.5-2.3.7-4.9 2.5-6.6s1.9-4.4.9-6.9-.8-2.2-1.2-3.3l-3.6-8.1a2.6 2.6 0 0 0-2.8-1.8c-2.8.6-5.5.1-8.3-.2l-3.9 6.6a5.4 5.4 0 0 0-.6 1.7c-.7 3.8-2.9 6.8-5.3 9.6a58.4 58.4 0 0 0-7 9.6 42.9 42.9 0 0 1-3.7 5.5c-2.3 3.1-5.1 5.7-6.9 9.2a5.3 5.3 0 0 1-1.2 1.3l-17.1 16.1-4.1 4-2.2 2.1a94.6 94.6 0 0 1-9.2 6.9c-6 4-12.1 7.9-18.9 10.6s-11.4 5.6-17.9 6.3h-.4c-3.7 1.5-7.7 1.8-11.7 2.5l-13.5 3.1a11.6 11.6 0 0 0-3.2 1.4 1.4 1.4 0 0 0 .1 2.3l.8.4c3.4 1.5 6.7 3.1 10.1 4.5 1.6.6 3.5 1.4 5.1 1.1 4.4-.7 8.6 0 12.8.9a30.3 30.3 0 0 0 8.8.7l7.9-.7a5.8 5.8 0 0 0 3.9-1.9 46.8 46.8 0 0 1 5.3-4.7c3.4-2.4 6.8-4.7 10.3-6.8s7.9-4.6 12-6.6a85.7 85.7 0 0 1 10.7-4.2c2.9-1 6-1.5 9-2.1a2 2 0 0 1 1.3 0 3.5 3.5 0 0 1 1.4 1.4 1.3 1.3 0 0 1-1.1 1.6l-4.8 1c-1.8.5-3.9.8-5.4 1.8-3.1 2-6.5 3.5-9.4 5.8a17.8 17.8 0 0 1-4.2 2.4 60.3 60.3 0 0 0-17 10.7 8.7 8.7 0 0 0-1.2 2c1.3.4 2.2.8 3.2 1a12.6 12.6 0 0 0 2.6.2l3.1-.2c1.1 0 1.8.9 1.7 2.1a2 2 0 0 1-1.4 2l-8.5 2.5a27.6 27.6 0 0 1-9.2 1.1c-2.8-.1-5.6.1-8.4.2s-7.4.1-10.6-2.3a9 9 0 0 0-3.3-1.1c-5.6-1.3-11.4-1.4-16.7-4h-.4c-7.2-1.3-13.7-4.6-20.2-7.7-2-1-3.7-2.3-6.1-2.4a5 5 0 0 1-2.4-1 41.2 41.2 0 0 1-5.4-4 26.1 26.1 0 0 0-5.7-4.1c-2.2-1.2-4-2.9-6.1-4.3s-5.5-3.5-8.1-5.4-2.2-3-3.6-3.7-3.3-1.1-4.7-2.2c-3.5-2.7-7.2-5.2-10.5-8.1a51.1 51.1 0 0 0-12-8.2c-4.6-2.2-8.8-5.2-13.8-6.9-6.5-2.2-12.4-1.3-17.7 2.4s-7.9 6.1-12 9l-.7.6c-7.2 6.8-15.2 12.7-22.7 19.1-3.7 3.2-7.1 6.6-11 9.6s-6.9 6.4-10.3 9.7a148.3 148.3 0 0 0-11.5 11.7 116.2 116.2 0 0 1-8.5 8.4c-1.4 1.3-2.9 2.5-4.3 3.8-3.5 3.4-6.8 7-10.9 9.7a83.5 83.5 0 0 0-13.6 11.8 22.8 22.8 0 0 1-3.8 3.1 39.2 39.2 0 0 0-8 7 18 18 0 0 1-3.3 2.9c-2.1 1.4-4.3 2.6-6.3 4.1a20.8 20.8 0 0 1-5.1 2.6l-4.4 1.9c-3.2 1.2-6.2 2.7-9.6 3.3s-7.4.5-10.5 2.9h-.4c-1.2.4-2.3.6-3.3-.5a3.8 3.8 0 0 1-1-3.7c.9-3.1 2.6-4.1 5.9-4.2s7.4-.4 11-.7a6.9 6.9 0 0 0 1.7-.4 82.7 82.7 0 0 0 13.6-6.4 49.3 49.3 0 0 0 7.5-4.8c6-5 11.9-10.3 17.8-15.4 1.9-1.7 3.7-3.4 5.6-5a282.3 282.3 0 0 0 28.4-26c2.9-3.1 5.9-6.2 9-9.2s5.1-4.6 7.6-6.8c8.9-7.8 17.6-15.8 26.9-23.2 6.5-5.2 12.8-10.5 20.1-14.6a13.7 13.7 0 0 0 5.1-4.4l-1.6-1.1c-2.2-1.3-4.8-1.4-7.2-2a36.3 36.3 0 0 0-19.2.7c-2.1.6-4.2 1.5-6.3 2a13.5 13.5 0 0 0-4.8 2.1c-1.1.8-2.3 1.8-3.5 1.9s-4.7 1.8-6.9 2.7a49.1 49.1 0 0 0-12.6 7.3 68.7 68.7 0 0 1-11.5 8.2 66.7 66.7 0 0 0-8.6 5.4 68.5 68.5 0 0 1-12.3 7.8 7.1 7.1 0 0 0-1.7 1.4 38.5 38.5 0 0 1-11.2 7.1 54.4 54.4 0 0 0-7.4 3.9c-2.7 1.7-5.3 3.1-8.6 3.2a22.2 22.2 0 0 0-3 .7 73.7 73.7 0 0 1-7.9 1.1c-4.1.2-8.3.2-12.4.1a13.6 13.6 0 0 1-4.7-1c-2.2-.9-2.5-3-.6-4.5a7.2 7.2 0 0 1 3.2-1.4 10.3 10.3 0 0 1 3.5.2 31.7 31.7 0 0 0 11.8.4c3-.6 6.2-.5 9.2-1.1 4.6-.9 9.2-2.1 13.1-5.1a17 17 0 0 1 4.3-2.4 52.3 52.3 0 0 0 11.6-6.5c7-5 14.5-9.2 21.6-14 4-2.7 8.2-5.3 12-8.4 5.8-4.6 12.7-7 18.8-10.8 6.1-1.9 11.5-5.4 17.8-6.9 2.9-.7 5.6-1.6 8.6-1.8 5.7-.3 11.2.1 16.4 2.9a3.7 3.7 0 0 0 3.6.2 5.7 5.7 0 0 0-2.4-3.8 35.6 35.6 0 0 0-8.6-4.6 3.9 3.9 0 0 0-2.1-.4c-2.9.7-5.5 0-8.3-.6a46.3 46.3 0 0 1-12.1-4.2c-2.3-1.2-4-3.1-6-4.5a53.9 53.9 0 0 1-10.4-10.2c-3.8-4.7-7.6-9.5-11.3-14.2-2.3-2.9-4.3-6-6.6-8.9a21.9 21.9 0 0 0-3.2-3.1c-1.1-1-2.4-1.8-3.5-2.7l-3.3-2.3-3.6-2c.4-1.9 1-3.3 2.9-3.8a5.8 5.8 0 0 1 4.6.8c3.8 2.1 6.9 5.1 10.3 7.7a23.8 23.8 0 0 1 7.1 7.8 12.9 12.9 0 0 0 1.7 2c3.2 3.9 7.7 6.6 9.9 11.2l.3.3a69.2 69.2 0 0 0 14 13.4 75.4 75.4 0 0 0 9.1 5.5 21.4 21.4 0 0 0 5.5 1.6 1.7 1.7 0 0 0 1.9-2.2c-.1-.6-.4-1.1-.6-1.7-1-3-3-5.5-4.8-7.9-3.9-5.4-9.1-9.7-12.8-15.3-3.3-2.6-4.7-6.4-6.5-9.9s-1.2-6-1.3-9.1a3.4 3.4 0 0 1 .8-2 11.2 11.2 0 0 1 2.9-2.7c3.3-1.8 6.7-3.3 10.3-.4a4 4 0 0 0 2 .8c3.2.2 5.1 2.3 6.7 4.7a117.5 117.5 0 0 1 6.8 10.9 74.7 74.7 0 0 0 5.5 9.1 14.4 14.4 0 0 1 1 1.4 5.3 5.3 0 0 1 .2 5.3 9.3 9.3 0 0 1-2.1-.5 14.7 14.7 0 0 1-5-4.6c-3.7-5-6.5-10.6-10.7-15.2a20.4 20.4 0 0 1-1.3-2.3 5 5 0 0 0-1.5-1.6l-5.9-3.1a5.3 5.3 0 0 0-5.1.1 12.7 12.7 0 0 0 1.2 6.4 30.2 30.2 0 0 0 6.8 10.2c2.6 2.6 5.1 5.4 7.6 8.1a39.2 39.2 0 0 1 3.4 4.1c2.3 3.3 4.5 6.6 6.5 10a18.6 18.6 0 0 1 2.5 5.6 6 6 0 0 0 4.1 4.8 50.7 50.7 0 0 1 5.6 2.7 7.6 7.6 0 0 1 4.1 5.5 43.4 43.4 0 0 0 1.8 5.7l9.5.9a24.5 24.5 0 0 1 11.5 4.2c3.1 2 5.8 4.6 9 6.5 5.1 3.1 9.6 6.9 14.4 10.4s9.7 7.3 15 10.2a21.5 21.5 0 0 1 2.5 1.8c3.3 2.5 6.2 5.4 10.1 7.2a19.2 19.2 0 0 1 4.7 3.2 73.1 73.1 0 0 0 7.2 5.2 4.8 4.8 0 0 0 4.6.5 192.3 192.3 0 0 1 26.7-6.4 154.9 154.9 0 0 0 21.5-5.4 83.7 83.7 0 0 0 16.1-7.4c4.1-2.3 8.1-5 12.3-7.2a30.6 30.6 0 0 0 7.2-5.1l7.2-6.6a138.2 138.2 0 0 0 17.4-18.4c3.5-4.6 6.9-9.3 10.3-13.9a88.2 88.2 0 0 0 5.8-8.4c2.7-4.9 5.1-10 7.7-15a4.9 4.9 0 0 0 .1-4.6c-.9-2.3-1.6-4.7-2.4-7.1l-.7-2a5 5 0 0 0-1.5-.3 12.7 12.7 0 0 1-9.4-1.8 10.4 10.4 0 0 0-2.7-.8l-8.9 13a24.4 24.4 0 0 1-2.5 3.1l-13.1 13.3c-1.8 1.8-3.5 3.8-5.6 5-6.8 3.9-13 8.7-20.3 11.8l-10.8 4.8c-1.4.6-2.8.9-4.2 1.3s-5 1.9-7.5 2.7c-10.9 3.4-22 4.3-33.3 3.8-2.4-.1-4.7-.6-7-.7a20.2 20.2 0 0 1-6.5-1.3 14.8 14.8 0 0 0-2.5-.5zm19.7 341a2.7 2.7 0 0 0 1.1-.3l7.8-9.6c1.9-2.4 1.7-4.7.2-7.4s-3.7-7.7-5.8-11.4-2.7-6.9-3.9-10.3-3.3-9.8-4.8-14.7-1.9-7.1-3-10.7a15.4 15.4 0 0 0-2.2-4.3c-3-4.1-7.1-7.2-11.4-9.8A97.8 97.8 0 0 1 611 831a18.4 18.4 0 0 1-3.4-4.6c-2.2-4-4.1-8.2-4.4-12.9a35.7 35.7 0 0 0-.9-4.8 22.4 22.4 0 0 0-3.9-8.8c-2.3-3.2-3.8-3.6-7.5-2.7a42.2 42.2 0 0 1-6.5.9 1.7 1.7 0 0 1-1.4-.8 2.8 2.8 0 0 1 .3-2 14.9 14.9 0 0 1 1.9-1.8 14.8 14.8 0 0 0 2-2.3c1.6-2.5 3.1-5 4.6-7.6a24 24 0 0 0 1.9-3.5c.9-2.4 1.1-4.9-.7-7.1a3.7 3.7 0 0 1-1-1.9c0-2.2-1.5-3.4-2.9-4.7l-6.6-5.9a6.5 6.5 0 0 0-1.6-.8c-3.2-1.5-4.8-4.3-5.9-7.4a4.6 4.6 0 0 1 .1-2.1c.3-2.2 1.8-3.7 3.1-5.3a126 126 0 0 0 13.7-21.7c2-3.8 3.9-7.7 5.6-11.6a61.3 61.3 0 0 0 4.4-14.8c.3-1.8-.3-2.8-2.1-3.2a13.5 13.5 0 0 0-4-.4c-3.5.3-6.8-.8-10-1.9-4.8-1.6-9.4-3.4-14.5-3.8a11.7 11.7 0 0 1-2.5-.9c-3.2-1.1-6.3-2.5-9.8-2.5a25.1 25.1 0 0 1-5.2-1 93.3 93.3 0 0 0-9.5-2.2 17.5 17.5 0 0 1-9.7-4 11.5 11.5 0 0 0-4.6-2.5l-7.3-1.7a1.5 1.5 0 0 0-2 1.2c-.4 2.8-2.3 5.1-2.1 8.1a5.6 5.6 0 0 1-.6 2.1 102.8 102.8 0 0 0-3.3 12.8c-.6 2.6-1.5 5.1-2 7.7s-.9 6.8-1.6 10.1c-1.3 5.9-2.8 11.8-4.4 17.6-2.5 8.7-4.4 17.5-6.4 26.2-.6 2.6-2 5-1.4 7.8a4.7 4.7 0 0 1-.5 1.7 29.4 29.4 0 0 0-.9 3.8c-.4 3.5-.8 7.1-2.1 10.4a12.7 12.7 0 0 0-.5 2.6l-.6 3.9c-.7 4.5-1.4 9-2.1 13.6s-1.1 7.9-1.6 11.8c-.2 1.7-.7 3.5.3 5.5a27.2 27.2 0 0 0 3.4-.3c1.9-.4 3.7-1 5.6-1.4a42.7 42.7 0 0 0 14.6-6.2c6.7-4.3 13.3-8.8 20.5-12.3a9.9 9.9 0 0 0 2.1-1.6c5.5-4.9 11.1-9.7 16.6-14.7a24.1 24.1 0 0 0 3.3-4.2 5.2 5.2 0 0 0 .2-2c-2.4.8-4.6 1.3-6.4 2.5s-6.2 3.5-9.1 5.5a72.4 72.4 0 0 1-19.6 9.1c-3.6 1.1-7.2 1.8-10.9 1s-4.1-2.3-3.7-5.1 1.7-3.2 3.7-1.9 7 2 10.7 1.1l3.9-1a13.6 13.6 0 0 1 2.6-.7 15 15 0 0 0 6.2-2.2 127.3 127.3 0 0 0 15.5-9.5 46.9 46.9 0 0 1 10.5-5.7c1.8-.7 3.1-.1 4 1.6a4.3 4.3 0 0 1-.1 3.9 28.1 28.1 0 0 1-8.2 11.4c-3.7 3.1-7.6 6.1-11.5 9.1l-5 4.3c-3.9 3.5-7.8 6.7-12.8 8.5a44.5 44.5 0 0 0-10.2 5.3 65.2 65.2 0 0 1-5.9 3.8 53.1 53.1 0 0 1-13.5 5.6 40.5 40.5 0 0 0-8.6 3 30.2 30.2 0 0 1-.3 5.2c-1.4 6.4-1.5 12.9-3.2 19.2-.8 3-.7 6.1-1.1 9.2s-.8 6.4-1.2 9.7c-.1 1-.4 2-.5 3a40.9 40.9 0 0 1-4.5 16.1c-2.2 4.3-4.7 8.5-7.2 12.7-1.4 2.3-3.1 4.3-4.5 6.6-2.6 4.1-5 8.3-7.6 12.4s-6.2 9-9.4 13.4-3.9 6.6-7.2 8.8c-3.9 5.2-9.2 9.1-13 14.4a12.8 12.8 0 0 1-2.3 2c-3.3 2.8-7.6 4-10.7 7l-.4.2c-2.2.5-3.9 2-5.8 3.2a107.5 107.5 0 0 1-10.5 6.6c-2.9 1.5-5.7 3.1-8.5 4.8a10.5 10.5 0 0 0-1.8 1.8l2.4 4c1.5 2.4 3.4 4 6.6 3.5a15.3 15.3 0 0 1 3.5.1A65.4 65.4 0 0 0 421 989c9-2.2 17.9-5.2 26.7-8.1 3.2-1 6.1-2.8 9.2-4.2 6.4-3 12.9-5.9 19.3-8.9a42.8 42.8 0 0 0 8.5-4.8c3-2.4 6.2-4.6 9.2-7 5.3-4.2 10.7-8.4 15.8-12.9s9.5-8.9 14.1-13.5c2.1-2.1 4.1-4.3 6.1-6.4l2.4-2.6c4-4.1 8.2-8.1 12-12.4a67.7 67.7 0 0 1 15.6-13.2l1.8-1.2c3.1-2.5 6.1-5.1 9.3-7.6a56.2 56.2 0 0 1 12.8-7.8l10.6-4.5c1-.4 1.9-.9 2.9-.2s.3 2-.8 3.1l-1 .8a27.8 27.8 0 0 1-9.3 5c-7 2.2-12.5 6.6-18 11.1a98.9 98.9 0 0 1-8.5 6.4c-3.6 2.3-7.3 4.4-9.6 8.2a3.1 3.1 0 0 1-1.4 1.1 5.2 5.2 0 0 0-2.4 2.5 5.3 5.3 0 0 1-1.2 1.9c-3.4 2.3-5.4 5.9-8.3 8.6s-3.6 3.9-5.4 5.8c-5 5.5-9.7 11.1-15.6 15.7-2.2 1.7-4.7 3.1-6 5.8a4.5 4.5 0 0 1-1.4 1.1c-2.9 2.2-6.5 3.6-8.5 6.9a5 5 0 0 1-1.4 1l-3.9 2.9c-4 3.2-7.9 6.7-12.5 9.1l-10.7 5.2c-5 2.5-9.9 5.4-15.2 7.1a16.8 16.8 0 0 0-2 1 91.9 91.9 0 0 1-15.6 6.2 115.5 115.5 0 0 0-13.1 4.3 29 29 0 0 1-8 2.3 43.8 43.8 0 0 0-4.8.8 7.9 7.9 0 0 0-1.8.9 1.9 1.9 0 0 0 .2.7c2.1 1.1 4 2.3 6.4 2.7a46.3 46.3 0 0 1 4.7 1.1c4.3 1.1 8.4 2.6 13 2.6s10.3.2 15.5.3c2.5.1 5 .4 7.5-.2a8.2 8.2 0 0 1 3.9.4 1.5 1.5 0 0 1 1 2.2 22.5 22.5 0 0 1-7.4 2.1 189.9 189.9 0 0 1-25.7.4c-7.2-.3-14.5-.9-21.4-3.4-4.3-1.5-8.7-3-12.8-4.9a25.4 25.4 0 0 1-11.5-10.1 21.2 21.2 0 0 0-4.4-5.3l-3.7 1.2-5.4 1.9-12.5 4.5a6.1 6.1 0 0 0-3.7 3.5q-1.9 4.5-3.9 8.9a11 11 0 0 0-.2 8.6 43.8 43.8 0 0 0 3.4 6.7c.9 1.5 2.2 2.8 3 4.4a15.4 15.4 0 0 0 8.4 6.8c3.9 1.5 7.9 2.6 11.7 4.1a48.3 48.3 0 0 0 12 2.7 30.5 30.5 0 0 1 3 .7 41.4 41.4 0 0 0 6.9 1.5 64.5 64.5 0 0 0 11.5-.3 102.2 102.2 0 0 1 11.9-.6 94.5 94.5 0 0 0 11.5-.4c6.4-.9 12.8-2.3 19.2-3.4 4.7-.8 9.1-2.6 13.5-4.2a24.7 24.7 0 0 0 3.9-2l5.7-3.4c5-2.8 9.7-6.1 14.6-9.2s10.7-7.9 16-11.9c1.8-1.3 3.3-3 5.1-4.3a101.5 101.5 0 0 0 11-9 63.1 63.1 0 0 1 5.5-4.5 129.8 129.8 0 0 0 10.4-9c4.5-4.3 9.1-8.4 13.8-12.6s8.8-7.5 13.1-11.3 9.8-9 15-13.1 9.5-8 14.4-11.9c2.8-2.2 5.9-4 8.6-6.2a89.3 89.3 0 0 1 9.8-6.9c2.6-1.6 5.3-3.2 7.9-5a76.7 76.7 0 0 1 8.8-5.2c3.6-1.9 7.5-2.7 11.4-3.4s7.6 1.7 7.9 6.2a17.2 17.2 0 0 1-.6 4.8c-.5 2.3-.6 4.4.9 6.2zm6.1 49.7a31 31 0 0 0 3.4-1c2.2-.9 4.3-2.1 6.5-2.9a49.2 49.2 0 0 0 15-8.4 5.9 5.9 0 0 1 1.9-1.2c3.2-1 5.7-3.1 8.5-4.8 5.8-3.7 8.5-8.9 7.5-15.8q-.6-4.2-1.4-8.3c-1.2-6-.6-11.5 3.9-16 .8-.8 1.5-1.8 2.3-2.7a10.1 10.1 0 0 1 2-1.8c6.8-4.2 13.4-8.6 19.9-13.3a28.9 28.9 0 0 0 7.4-7.6 46.6 46.6 0 0 0 5-10.3c1.7-4.9 4-9.6 4.4-14.8.2-1.9.1-3.8.2-5.7 0-5.3.1-10.6.1-16a18 18 0 0 0-3.4-9.9c-2.1-3.1-5.1-4.9-7.8-7.1s-8.5-5.4-12.9-7.7a12.5 12.5 0 0 1-6-5.7 75.4 75.4 0 0 1-3.6-10 14.2 14.2 0 0 1-.4-5.3 82.7 82.7 0 0 1 1.4-8.3c.4-1.7.5-3.6 1.4-5.1a77.8 77.8 0 0 1 7.3-10.6c4.7-5.3 9.1-10.9 11.3-17.9a16.2 16.2 0 0 1 1.3-2.3c2-3.9 4.1-7.9 6.1-11.9a24.1 24.1 0 0 0 1.6-4.6 99.7 99.7 0 0 1 5.5-15.9 33.6 33.6 0 0 0 2.2-9 3.4 3.4 0 0 0-.5-1.3 7.6 7.6 0 0 0-2.6.3c-4.5 2.5-9.7 3.5-14.3 6.5 1 2.5.4 5 0 7.5a55.4 55.4 0 0 0-.8 6.6 3.9 3.9 0 0 0 .6 2.5c1.3 1.8 1 3.3-.3 4.8s-1.6 2.1-2.6 3-4.5 4.3-6.7 6.5a21.5 21.5 0 0 1-9 5.5l-3.9 1.2a9 9 0 0 1-7.6 6 5.3 5.3 0 0 0-1.6.7 5.3 5.3 0 0 1-4.7.4 2.8 2.8 0 0 0-3.8 1.4 5.7 5.7 0 0 1-4.9 2.6l-3.1.3a9 9 0 0 0-3.4.8c-2.8 1.8-5.9 2-9 1.6-4.7-.6-9.3-1.7-12.6-5.7a15.9 15.9 0 0 0-3.7-3.2c-1.7-1.1-3.3-2.6-5.7-2.3l-1.3 2.2a5.1 5.1 0 0 1-3.4 2.6c-3.5.7-6.9 1.4-10.4 1.9a14.6 14.6 0 0 1-4 0c-4.6-.6-6.4-4.7-3.6-8.4s4.1-4.6 7.3-5.5a7.8 7.8 0 0 0 1.9-1.4c-3.6-2.1-5.4-4.9-6.8-8.3a16 16 0 0 1-1.3-8.6 72.8 72.8 0 0 0 .5-10.2 77.3 77.3 0 0 1 .5-9.7 27.2 27.2 0 0 0-.4-8.8 4.3 4.3 0 0 0-3-3.4c-3.3-1.3-6.6-1.3-10-1.6s-3.6-.1-4.7 2.6a14.9 14.9 0 0 0-.7 2.1 49.7 49.7 0 0 1-4.1 10.8 45.1 45.1 0 0 0-3 5.9 51.5 51.5 0 0 1-5.4 10.6l-9.6 15.5a27.6 27.6 0 0 0-1.8 3.5 3.8 3.8 0 0 0 .3 3.8 17.6 17.6 0 0 0 1.8 2.5c2.7 2.8 5.5 5.4 8.1 8.2a11.5 11.5 0 0 1 2.5 3.6 7.2 7.2 0 0 0 2.4 3.5 6.5 6.5 0 0 1 2.5 5.4 11.5 11.5 0 0 1-1.5 6.4l-2.5 3.7a9 9 0 0 0-1.8 5.9c4.5-1.1 7.3 1.3 9.5 4.8.4.6 1 1.1 1.4 1.7a13.6 13.6 0 0 1 1.8 3.5c1 4.2 2.3 8.2 2.8 12.5a19.2 19.2 0 0 0 6 12.1 84.3 84.3 0 0 0 15.7 12.2 45.9 45.9 0 0 1 13 11.9 20.3 20.3 0 0 1 4 8.8 82 82 0 0 0 4.1 15.4c1.8 4.5 3.5 9.1 5.2 13.7a21.3 21.3 0 0 0 1.4 2.8c2.5 4.4 4.3 9 6.7 13.4 1.5 2.9 1.1 5.3-.2 7.9-2.6 5.2-7 9.1-10.3 13.7l-.3.3c-3.2 2.3-4.3 5.6-4.2 9.3a72 72 0 0 1-3.2 20.5 12.2 12.2 0 0 0 .1 7.4c1.2 4.2 4.2 6.9 7.6 9.6zm-121.5-587c1.9.2 3.7-.6 5.5-1.1a5 5 0 0 1 5.8 2.2 7.3 7.3 0 0 1 1.2 2.4 57.7 57.7 0 0 1 1.3 6.5c.6 5 1.1 10 1.7 15s1.2 8.8 1.4 13.2c.5 8.4.5 16.9 1 25.3s.3 16.9 2.4 25.2a8.8 8.8 0 0 1 .2 2.2 16.3 16.3 0 0 0 1.2 6.1 33.1 33.1 0 0 1 1 3.4 147.8 147.8 0 0 0 6.4 19.8c3.7 8.9 8.6 17.2 12.9 25.8a8.1 8.1 0 0 0 .9 1.5c3.5 4.4 6.4 9.1 10.3 13.3 6.6 7 13.2 14 20.3 20.5 2.2 2 4.5 3.8 6.8 5.7a4.8 4.8 0 0 0 4.5 1.2 5.5 5.5 0 0 1 4.2.5 14 14 0 0 0 3 .8l7.9 1.3 3.5.5 14.1 1.3h1.8l9.7-.7a47.7 47.7 0 0 0 11-1.5l14.9-4.4c5.4-1.6 10.7-3.3 15.6-6.3s10.9-6.5 16.3-9.8a20 20 0 0 0 4-3.5c4.9-5.3 10.4-10.1 14.8-15.9a55.3 55.3 0 0 0 7.5-13 1.7 1.7 0 0 0-.4-2.2h-1.9a17.8 17.8 0 0 1-9.9-4.3c-2.8-2.4-5.3-5.1-7.9-7.7a1.3 1.3 0 0 0-.6-.2c-1.4.4-2.7 1.1-3.9 1.1a13.3 13.3 0 0 1-6-1.5c-2.8-1.6-5.8-2.9-8-5.5a3.5 3.5 0 0 0-1.4-.5c-1.9 2-3.8 4-5.9 6-4.1 3.9-8.3 7.6-13.6 9.8-2.5 1-4.9 2.1-7.3 3.3a1.5 1.5 0 0 0-.1 2.8l5.4 3.1c4.4 2.7 8.7 5.6 13.2 8.2s7.8 3.6 12.1.8h.4a2.3 2.3 0 0 1 1.2.3 1.4 1.4 0 0 1 .2 1.2 5.3 5.3 0 0 1-3.9 3.9 20.1 20.1 0 0 1-8.8.6 30 30 0 0 1-11.1-4.2L674 526.7c-1.7-1.1-3.3-2.5-4.9-3.8l-8.6-7-14.8-12.7-.3-.3-15-16.3a31.2 31.2 0 0 1-2.8-3.4c-3.2-4.7-6.9-9.2-9.5-14.4s-6-10.9-7.7-16.9a153 153 0 0 1-3.9-17.3c-1.2-8.5-2.5-16.9-2.8-25.5a13.7 13.7 0 0 0-.3-2.6 41 41 0 0 1-.5-10.2c.1-2.8.1-5.6-.1-8.4s-.9-7.1-1.2-10.6-.3-4.6.8-6.9.2-4.5-1.6-6.2c-2.2.6-4.1 1.5-6.1 1.7a112 112 0 0 0-20.8 4.4L549 377c-4.9 1.4-9.6 2.9-13.9 5.8a1.4 1.4 0 0 0-.8 1.9zm199.4-90.1c-.3-6.1 1.4-10.9 3.6-15.7a10.9 10.9 0 0 1 4.2-5 2.8 2.8 0 0 0 1.5-3.4c-.9-4-1.7-8.1-2.5-12.1a7 7 0 0 0-.7-1.6l-3.6-7.1c-1.2-2.4-2.1-5-3.8-7s-4-3.5-6-5.2-1.4-1.5-2.2-2.1a43.9 43.9 0 0 0-3.8-2.9l-5.7-3.4c-.9-.5-1.7-1.3-2.5-1.8l-17.2-9.4-11.3-6a6.3 6.3 0 0 0-4.7-.6l-4.3.9a12.1 12.1 0 0 0-5.5 2.7c-2.1 1.9-4.4 3.5-6.6 5.2a90.6 90.6 0 0 1-8.2 6.1c-3.2 1.9-5.1 4.9-7.5 7.4l-1.6 1.6a25.9 25.9 0 0 0-5.8 7.8 13.6 13.6 0 0 1-1.6 2.7 30.3 30.3 0 0 0-5.8 13.7 87.9 87.9 0 0 0-1.6 13.6c-.2 6.2-1.1 12.4.6 18.5a3.2 3.2 0 0 1 .1 1.7c-.8 2.5-.3 5-.5 7.5-.6 8 .4 15.9.9 23.7a54.1 54.1 0 0 0 8.4 6.7c3.9 2.4 6.9 5.6 7.3 10.5a8.2 8.2 0 0 0 3.9 6.2l7.5 5.5 18.2 13.4a25.6 25.6 0 0 0 2.9 1.6 68.1 68.1 0 0 0 7.2-5.3 14 14 0 0 1 6.5-3.5l3.7-1a3.2 3.2 0 0 0 0-1.1c-2.4-4.1-2-8.5-1.5-13a16.7 16.7 0 0 1 3.8-9.3 66.6 66.6 0 0 1 6.5-6.6c1.9-1.7 5.3-2.1 7-.7s4.5 2.8 6.8 4.2a13.3 13.3 0 0 1 2.7 2.9c1 1.2 1.4 2.8 2.8 4.1a30.8 30.8 0 0 1 7.6-10.1 7.3 7.3 0 0 1 6.9-1.9 13.9 13.9 0 0 1 6.4 2.9l2.6 2.1a11.1 11.1 0 0 0 .7-2.7c-.1-2.2-.3-4.4-.5-6.6-.4-7.4-1.2-14.7-2.2-22.1-.8-5.7-2.1-11.3-1.8-17.2a2.2 2.2 0 0 0-.3-1.3 3.2 3.2 0 0 0-1.4-1.5 2.4 2.4 0 0 0-1.8.9 13.8 13.8 0 0 0-3 6.8c-.4 2.7-1.7 4.7-4.8 6.3zm-210.3 370c2 2.7 4.9 3.1 7.6 3.5a15 15 0 0 1 7.7 3.1 16.8 16.8 0 0 0 8 3.6c3.2.5 6.3 1.4 9.5 2.1s4.1.7 6.1 1a32 32 0 0 1 8.7 2.1 25.1 25.1 0 0 0 5.5 1.6 45.1 45.1 0 0 1 11.5 3.3 29 29 0 0 0 12.1 2.5 20.6 20.6 0 0 1 7.4 1.4 26.7 26.7 0 0 0 8.1 2l7.1.5c4.7.5 8.3 3.7 8.7 8a33.9 33.9 0 0 1-.1 9.7 27.4 27.4 0 0 0-.4 4c-.2 5.5-.5 10.9-.6 16.4a10.1 10.1 0 0 0 .6 3.5 14.7 14.7 0 0 0 8.4 9.2 39 39 0 0 1 9.9 5.8 20.1 20.1 0 0 0 4.1 2.6 17.7 17.7 0 0 1 6.3 4.8c2.7 3.4 6.5 5 10.7 5.7a5.2 5.2 0 0 0 1.8-.5 29.7 29.7 0 0 0-5.9-5.8 29.7 29.7 0 0 1-6.5-6.6 4.2 4.2 0 0 0-1.2-1.3c-5.1-2.8-9-7.3-14.5-9.4a1.9 1.9 0 0 1-1.1-2.6 3.7 3.7 0 0 1 5.3-2.4 36.1 36.1 0 0 1 9.4 5.9c5.6 4.6 10.9 9.5 16.4 14.3a36.8 36.8 0 0 0 9 5.6 1.5 1.5 0 0 0 2.3-.8c-1.1-3.2-3.3-5.8-5.5-8.4-3.8-4.3-7.8-8.5-11.9-12.5-2.4-2.3-4.5-5.1-7.9-6.3-1.6-.5-1.8-1.6-.9-3.1a4.4 4.4 0 0 1 6.5-1.6 18 18 0 0 1 2.7 2.3c3 2.9 6 5.7 8.9 8.7s9 8.2 12.4 13.3a13.6 13.6 0 0 0 2.8 2.8c3 2.5 6.5 2.4 9.7-.2a4.2 4.2 0 0 0 .6-1.4c-3.3-1.7-4.8-5-6.8-7.9-.6-.8-1.1-1.8-1.7-2.6s-3-4.5-4.9-6.2-6.5-5.1-9.7-7.7c-1.6-1.3-3.1-2.7-4.6-3.9a10.1 10.1 0 0 1 .1-1.5c.7-2.8 2.8-3.3 5.2-2a13.6 13.6 0 0 1 2.1 1.6c.8.6 1.6 1.4 2.4 1.9a58.3 58.3 0 0 1 17.1 16.6 26.7 26.7 0 0 0 4.4 5c2.9 2.6 4.7 2.6 8 .6s5.8-5 8.5-7.8a3 3 0 0 0 .8-2.9 21.5 21.5 0 0 1 0-7.9c.4-3 .6-6 .9-9.3l-9.9 4.4a9.6 9.6 0 0 0-1.9 1.6c.6 1.5 1.1 2.7 1.5 3.9a3.1 3.1 0 0 1-1.5 3.4 2.4 2.4 0 0 1-3.1-.9 55.2 55.2 0 0 1-4.6-6.5c-2.4-4.4-4.5-9-7.8-12.8-1-1.1-.9-2.1.1-3.2a22.5 22.5 0 0 1 4.1-3.4 2.8 2.8 0 0 1 4.2 1.9 14.8 14.8 0 0 1 .3 2.3c6.4-2.1 12-5.2 17.8-7.8a3.9 3.9 0 0 0 .9-1.2l-2.3-.2c-2.2 0-4.3-.7-6.5-.3-2.1-1.8-5-1.7-7.4-2.9s-6.9-2.8-9.3-5.8a35.9 35.9 0 0 1-9.8-7.5c-3.3-3.3-7.5-4.8-11.8-5.5s-9.7-1.3-14.5.2a11.1 11.1 0 0 1-9.7-1.7c-2.9-2-5.4-4.6-9.3-4.6s-5.9-1.9-8.8-2.7-5.6-2.7-8.4-3.9l-18.6-7.3c-3.4-1.4-6.7-3.1-10-4.6s-9.5-4.1-14.2-6.3-9-4.4-13.3-7-8-4.5-11.2-7.9a17.1 17.1 0 0 0-4.4-3 3.8 3.8 0 0 0-2.5-.1 6.7 6.7 0 0 0-2.3 1.3l-13.1 10.6a21.7 21.7 0 0 0-1.5 1.6c-3.5 3.5-5.6 8-7.8 12.3s-4 7-4.5 11.2zM817 694.4c-2.9-.7-5.5-1.3-8-2a38 38 0 0 1-5.7-2.3c-2.4-1.2-4.6-1.4-7 .3a8.2 8.2 0 0 1-7.1 1.4c-2.5-.7-4.9.1-7.3 1.2l-12 5.6c-1.3.6-2.9.8-4.1 1.5-3.2 1.8-7.1 2.3-9.6 5.2a1.9 1.9 0 0 1-.8.3c-1.8.6-2.5 1.9-2.9 3.6s-1.7 5.3-2.5 8-2.1 4.8-2.3 7.6a13.4 13.4 0 0 1-1.1 3.3 19.6 19.6 0 0 0-1.1 3.3c-.6 3.7-2.2 7-3.9 10.3s-2.8 5.5-4.2 8.3-1.7 4-2.6 6a42.9 42.9 0 0 1-8.4 12.4 6.7 6.7 0 0 0-2.2 4.4 3.7 3.7 0 0 0 1.5.7 69.8 69.8 0 0 0 7-1 19.5 19.5 0 0 1 13.4 1.6c4.1 2.1 7.6 5 11.2 7.9s6.1 5.6 9.1 8.4a24.6 24.6 0 0 0 11.1 6.2l9.4 2.7a69.1 69.1 0 0 0 7.7 2c4.7.7 9.4 1.2 14.1 1.7 2.4.3 3.1-.3 3.5-2.8s.8-5.3 1.3-7.9 1.5-5.4 1.8-8.2a113.6 113.6 0 0 1 3.2-15.6 22.5 22.5 0 0 0 .7-5.3c.2-4 .2-8 .2-12s.2-8.3.1-12.4-.3-6.2-.5-9.3.5-5.9-.3-8.8a5 5 0 0 1 0-1.8c.2-2.2.4-4.4.7-6.6a6.5 6.5 0 0 1 .6-2.5 5.3 5.3 0 0 0 .3-5.5 18 18 0 0 1-.6-2.6c-.9-2.6-1.4-5.3-2.7-7.3zm-59.3-9.4c2.1.4 3.2-.8 4.6-1.3l17.8-6.9c1.4-.5 3-.8 3.8-2.2 1.9-3.2 5.1-4.8 8-6.8a5.8 5.8 0 0 0 2.6-3.3 24.7 24.7 0 0 1 12-15.3l1.5-.9c1.4-.9 2.1-1.9 1.7-3.7a14.5 14.5 0 0 1-.2-3.5 120.8 120.8 0 0 1 3.8-30.3c1.9-7.3 4.2-14.5 6.5-21.7a34.2 34.2 0 0 1 4-9.3 5.6 5.6 0 0 0 .9-2.5c.3-2.9.6-5.9.7-8.8s0-7.4.3-11.1a48.7 48.7 0 0 0-.5-13.2 8.5 8.5 0 0 0-1.1-2.1 29.2 29.2 0 0 1-12.4 3.5 2.4 2.4 0 0 0-1.7 1.2 36 36 0 0 0-3 7.3c-1.2 5.5-2.1 11-2.9 16.6a4.5 4.5 0 0 1-2.8 4c-1.3-.4-2.2-1.8-3.8-.9a3.1 3.1 0 0 1-2.5-.4 6.3 6.3 0 0 1-1.8-1.9c-.8-1-1.2-2.4-2.9-2.9a30.6 30.6 0 0 0-1.3 3.7c-1.3 6.5-2.7 13-5.2 19.2-.4 1.1-.6 2.3-1 3.4-1.6 4.9-3 9.9-4.9 14.7a51.2 51.2 0 0 0-3.2 11.5c-.8 5.4-2.8 10.6-3.8 15.9-.6 3-1.8 6-2.3 9a94.7 94.7 0 0 1-4.6 16.6 62 62 0 0 0-1.8 6.8c-.3 1.3-.5 2.6-.9 3.9-1 3.2-2.1 6.4-3.2 9.7a13.2 13.2 0 0 0-.4 2zm174.2-150.4c5.5 4.2 11.4 6.8 16.1 11 1.9 1.7 4.1 3.1 5.5 5.1a38.1 38.1 0 0 0 5 5.6 14.5 14.5 0 0 1 4.2 6.2 18.5 18.5 0 0 0 3.4 6.2 15.1 15.1 0 0 1 3.5 7.1 8.1 8.1 0 0 0 1.1 2.9 18.3 18.3 0 0 1 2.1 5.8 43 43 0 0 0 2.1 7.7 71.5 71.5 0 0 1 5.2 17.8c.5 3.6 1.8 7.2 2.2 10.8.9 8.4.9 16.8 1 25.2 0 1-.2 2.1-.3 3.1s0 3.2 0 4.8c0 3.5.3 7.1-.2 10.6s-.5 5.2-.8 7.8.3 5-.2 7.4a81.3 81.3 0 0 0-2.2 11.3c-.1 1.3-1 2.4-1.5 3.7a22.3 22.3 0 0 0-1.3 3.7c-1 5.1-2 10.2-5.5 14.3a5.6 5.6 0 0 0-.5 1.2l-4.8 10a23.6 23.6 0 0 1-2 3.4c-2.6 3.6-5.2 7.2-7.9 10.7s-4.1 6.2-7.6 8c-1.4 2.1-3.4 3.6-5.2 5.3a14.7 14.7 0 0 0-1.7 2.8 14.1 14.1 0 0 0 9.4-2.7c4.9-3.3 9.8-6.4 14-10.8a113.2 113.2 0 0 0 14.6-19.5c3.4-5.7 6-11.8 8.7-17.9A157.4 157.4 0 0 0 997 679c.8-3.1 1.1-6.4 1.6-9.6s.8-5.6 1.4-8.3a28.3 28.3 0 0 0 .7-9.7 19.3 19.3 0 0 1-.2-5.7c1.1-6.1 0-12.1 0-18.1a35.8 35.8 0 0 0-.5-5.7c-.9-5.5-2-11-2.5-16.6-.3-2.6-.7-5.3-1.2-7.9-1.1-5.7-3.1-11.1-5.1-16.5a38.2 38.2 0 0 0-4.5-8.6l-5.5-8.1c-1.1-1.7-2-3.6-3.3-5.2s-4.8-6-7.3-8.9a10.6 10.6 0 0 0-1.6-1.5c-2-1.6-3.9-3.2-6-4.6s-6.3-5.3-10.2-7-9.8-4.7-14.8-6.8a10.4 10.4 0 0 0-6.2-.6c-.7 3.1-3.5 4.1-6.2 5.1-.7 4-1.5 7.9-2.1 11.8-.3 2 .7 3.7 2.4 5.3a23.3 23.3 0 0 0 3.9-8.1zM717 401.8a11.6 11.6 0 0 0 .9 2.4c2.6 4.3 6.6 6.3 11.4 6.7a36.1 36.1 0 0 0 8.8-.3c6-.9 11.9-2.3 17.9-3.3a21.3 21.3 0 0 1 5.7-.2c3.7.4 7.3 1 11 1.6 9.4 1.5 18.4 4.1 26.4 9.6a19.8 19.8 0 0 0 3.9 1.9 2.5 2.5 0 0 0 2.8-.9 2.6 2.6 0 0 0 .5-2.9c-1.1-3.2-2.4-6.4-3.2-9.7a50.9 50.9 0 0 0-7-16.2 40.3 40.3 0 0 0-12.1-12.1 52.6 52.6 0 0 0-14.4-6.7c-4.8-1.4-9.4-3.6-14.4-4.2a11.9 11.9 0 0 1-6.3-3 42.6 42.6 0 0 0-5.3-4 5.1 5.1 0 0 0-3.3-.9c-5.5 1.1-9.3 4.4-9.9 9.3a11.8 11.8 0 0 0 .3 4.8c1 3.7 1.2 7.3-1.8 10.4a8.3 8.3 0 0 0-1.3 2.3 14.9 14.9 0 0 1-6.7 7.4 5.3 5.3 0 0 0-3.4 5.3 18 18 0 0 1-.5 2.7zM649.1 469c3.5-4 5.1-8.7 6.9-13.2s2.4-7.1 4.3-10.2a60.7 60.7 0 0 0 6.6-13.5c.5-1.5.9-3.1 1.2-4.7a3.3 3.3 0 0 0-.9-3.3c-1.9-1.8-3.8-3.7-5.9-5.4s-4.8-3.4-7.1-5.3-3.4-3.3-5.4-4.6a24.6 24.6 0 0 1-5.7-5.5l-7.9-10.1c-2.1.2-4 .4-5.9-.8s-3.6-1.2-5.4-2a57.4 57.4 0 0 1-14.3-9.6c-.6-.5-1.1-.9-1.9-.3a3.3 3.3 0 0 0-.2.8c0 6.7.1 13.3.2 20a26.2 26.2 0 0 0 .4 4.8c.8 4.1 1.8 8.1 2.7 12.1a29.3 29.3 0 0 0 1.8 6.3c2.2 4.3 4.9 8.4 7 12.7a22.9 22.9 0 0 0 2.3 3.3l2.6 3.6c2.1 3.1 4 6.2 6.9 8.6a13.8 13.8 0 0 1 1.7 2.1c.7.9 1.5 1.8 2.3 2.6 2.6 2.6 5.5 5 7.9 7.8a11.6 11.6 0 0 0 5.8 3.8zM535.7 991.6h2.5c2.3-.4 4.6-.9 7-1.2 5.9-.7 11.5-2.7 17.3-3.4a14.8 14.8 0 0 0 2.5-.8c4.1-1.3 8.1-2.9 12.4-3.4a6.7 6.7 0 0 0 2.1-.7c4.1-2 8.3-3.9 12.4-5.8s9-5 13.5-7.7a10.6 10.6 0 0 0 2.1-1.7 2.5 2.5 0 0 0 .1-3.9l-4.9-5.1a12 12 0 0 1-3.3-8 26.4 26.4 0 0 1 .5-6.2c.5-2.8 1.4-5.4 2-8.2.2-.8-.1-1.5-1.4-1.6-3.1 2.6-6.4 5.3-9.7 8.1s-5.6 5.7-9.5 7.2a7.3 7.3 0 0 0-2.3 2 123.5 123.5 0 0 1-15 13.8c-2.8 2.2-5.1 4.9-8.4 6.5l-.3.3c-1.3 2.5-3.9 3.6-5.9 5.2a7.8 7.8 0 0 0-2 1.8c-1.6 2.8-4.3 4.5-6.9 6.1s-3.6 3.8-4.8 6.7zm295.1-426.4c2.1-1.3 2.8-2.8 3.8-4.1a104.6 104.6 0 0 1 14.2-15.8c3.1-2.8 6.5-5.1 9.8-7.7s6.5-5 11-5.3c2.4-.1 4-1.6 4.8-4s2.9-7.8 4.5-11.6 4.8-10.2 5.9-15.8a7.7 7.7 0 0 1 .5-1.2l5.3-13.7a30 30 0 0 0 .8-3.3l-9.5 8.3c-4.3 3.9-8.3 7.9-12.7 11.7s-9.8 8.1-14.7 12.1l-13.9 11a3.8 3.8 0 0 0-1 .9c-1.4 2.4-3.5 4-5.6 5.7s-3.6 5.2-3.5 8.6 0 6.5-.1 9.8a5.6 5.6 0 0 0 0 1.3c.8 3.4.4 6.8.4 10.2-.2.8-.1 1.5 0 2.9zM753.1 791a59.6 59.6 0 0 0-4.7-5.4 48.1 48.1 0 0 0-5.1-3.5 22.4 22.4 0 0 1-2.2-1.5c-5.8-5.1-16-4.7-21.6-.9a8.6 8.6 0 0 0-3.1 3.6 19.2 19.2 0 0 0-1.3 6.5 29.9 29.9 0 0 0 4.4 16.9 7.7 7.7 0 0 0 3.1 3.1 58.4 58.4 0 0 1 13.5 8.3c3.5 2.8 7.4 5.4 9.7 9.5a8.3 8.3 0 0 0 1.8 1.6c.4-1.3.8-2.2 1.1-3.2.8-3.3.9-6.7 1.1-10.1.5-5.9 1.5-11.7 2.3-17.5.5-2.8.8-5.4 1-7.4zM609.4 996.4c1-4.2 2-8.1 2.9-12a47.6 47.6 0 0 0 1-5.7c.3-2.8.5-5.6-1.2-7.9-1.7-.2-2.6 1-3.7 1.6l-3.7 2.4a80.6 80.6 0 0 1-12.3 6l-1.6.7a76.5 76.5 0 0 1-12.4 5.8 140.6 140.6 0 0 1-13.6 3.9c-4.7 1.2-9.5 2-14.2 3.4a51.6 51.6 0 0 1-8.2 1.6 52 52 0 0 0-5.6 1.2c-3.3.8-6.5 2-9.9 2.5s-4.4 2.1-6.7 3.9a18.6 18.6 0 0 0 3.3 1.1c9.1 1.1 18.2 1.7 27.3.2h2.2l16.8-.9 2.6-.4c5.8-.9 11.6-2.3 17.5-2.7s12.9-2.6 19.5-4.7zm80-629.5c-1.3 1.2-2.4 2.8-3.9 3.6-3.9 2.1-5.8 5.8-7.4 9.6a6.4 6.4 0 0 0 1 7.1 13.1 13.1 0 0 0 3.7 3.1c3.2 1.6 6.5 2.9 10.2 2.6a34.2 34.2 0 0 1 4.4 0 37.2 37.2 0 0 0 20.8-4.9 23.3 23.3 0 0 0 7.1-6.5 4.2 4.2 0 0 0 .8-4.2c-.6-1.8-1.2-3.6-1.8-5.5a7.6 7.6 0 0 0-6.1-5.2c-3.9-.8-7.7-2-11.7-1.4a44.8 44.8 0 0 1-5.3.1l-3.1.2zm127.5 320.8c2.7.7 5-.5 7.2-2.1a26.4 26.4 0 0 1 3.4-2 9.7 9.7 0 0 0 4.7-4.5l2-4.4c1.9-3.8 1.1-7.8-.6-11.1a25.7 25.7 0 0 0-10.1-10.3c-6.8-4-13.3-3-19.6 1a2.7 2.7 0 0 0-1.3 1.7c-.2 2.4-1.5 4.1-2.7 6s-2 4.3-.8 6.7a5.9 5.9 0 0 1 .1 4.3 9.4 9.4 0 0 0-.2 3c.3 4.1 3 6.9 6.2 8.6s7.2 3.5 11.7 3.1zm-145.5 376.6a3.6 3.6 0 0 0 1.1.7c4.4-.2 8.8-.2 13.1-1.5s5.8-2.1 9-1.9c1.6.1 2.7-1 3.5-2.4 3.2-5.1 6.8-10.1 9.6-15.4 4-7.6 8.3-15 13-22.2a32.8 32.8 0 0 0 3.8-8.9 3.9 3.9 0 0 0-.2-2.5 2.7 2.7 0 0 0-4.1-1.1c-2.5 1.8-4.8 3.9-7.4 5.5-5 3-8.7 7.5-12.8 11.5a58.7 58.7 0 0 0-10.7 13.4 10.6 10.6 0 0 1-1.6 2.1 110.6 110.6 0 0 0-13.7 17.9 16.3 16.3 0 0 0-2.6 4.8zm272.9-609c-2.8.7-2.7.7-4.3 2.2a15.9 15.9 0 0 1-3 2.5 4.1 4.1 0 0 0-2.4 3.4 58.6 58.6 0 0 1-.8 7.5 37.9 37.9 0 0 0-.5 10.1 179.5 179.5 0 0 1-.4 27.4c-.5 4.3-.4 8.8-.6 13.2l1.1.6c4.2 1.4 8.6 2.1 12.6 4.1.7.3 1.6 0 2.7 0v-11.2a36.9 36.9 0 0 0-.2-5.7 79.5 79.5 0 0 1-.8-12.8c0-3.1.2-6.2-.6-9.2a8.1 8.1 0 0 1-.1-2.6 66.5 66.5 0 0 0-.9-15c-.3-2-.4-4.1-.7-6.1s-.7-5.6-1.1-8.4zm-19.2 66a10.6 10.6 0 0 0 1.3-6.1 67.9 67.9 0 0 1 .8-14.1 25.2 25.2 0 0 0 .3-4.9c-.1-8.4-.5-16.8-.1-25.3a16.6 16.6 0 0 0-.3-2.6l-11.1 2.8a2.1 2.1 0 0 0-.7.6c-.4 2.8-.8 5.5-1.2 8.3-1 5.8-2.1 11.6-3.2 17.4-.4 2.3-1.1 4.7-.9 7a30.2 30.2 0 0 1-.7 7.4c-.4 2.3-.9 4.6-1.2 6.9s.7 2.5 2.4 2.3 2.4-.5 3.5-.2c2.9.9 5.9.4 8.8.9a9.1 9.1 0 0 0 2.3-.3zm-19.2-54a10.8 10.8 0 0 0-4.1 6.1 14.2 14.2 0 0 1-2.1 4.8 9.8 9.8 0 0 0-1.4 3.2c-.8 3-2.9 5.5-3.3 8.6a3.3 3.3 0 0 1-.8 1.6 10.3 10.3 0 0 0-1.6 3.6c-2.4 6.8-4.3 13.8-7.4 20.4-1.3 2.8-2.3 5.7-3.4 8.6a11.8 11.8 0 0 0-.3 2.4 20.1 20.1 0 0 0 7.1-1.8c2.9-1.3 5.8-2.8 9.2-2.8s3.5-1.4 3.9-3.6.5-2.6.6-3.9a79.8 79.8 0 0 1 1.9-12.2c.5-1.9 1.6-3.4 1.9-5.3a155.5 155.5 0 0 1 3.4-18.3c.4-1.3.5-2.6.7-3.9.6-3.3 0-6.1-4.3-7.4zm32.3-41.7l1.1.6c2.4.5 3.2 2.2 3.3 4.5s.7 6.7 1 10.1c0 .4.2.9.2 1.3a3 3 0 0 1-1.8 2.9 2.3 2.3 0 0 1-2.4-.7l-3.3-3.5c-.1 5.2-.2 9.6-.3 14a.6.6 0 0 0 .2.4l.6.3a13.2 13.2 0 0 0 2-1.3 37.7 37.7 0 0 1 12.5-7.5 53.5 53.5 0 0 0 7.7-4.4 4.6 4.6 0 0 0 2.1-5.7 47.8 47.8 0 0 1-1.6-6c-.8-5.2-2.6-10-4.5-14.8-.8-2-1.5-4.2-3.6-5.2l-4.6.7c-4.1.8-9 4.7-8.6 9.9.1 1.4 0 2.9 0 4.5zM709.6 718.1l6.1-2.3 6.6-2.4c4.2-1.7 8.2-4 12.8-4.8a4.5 4.5 0 0 0 1.6-.7 63.3 63.3 0 0 1 13.7-6.1 65.7 65.7 0 0 0 12.2-5.3 35.3 35.3 0 0 1 4.1-1.8l15-6.5a15.1 15.1 0 0 0 2.4-1.7c-.4-.9-.6-1.6-.9-2.3a19 19 0 0 0-1.2-1.7 12.7 12.7 0 0 0-7.1 1.1 95.4 95.4 0 0 1-14 5.7 25.5 25.5 0 0 0-3.6 1.8l-12.8 6c-.8.4-1.7.4-2.6.7a22.1 22.1 0 0 0-4.1 1.7 27.4 27.4 0 0 1-6.5 2.8c-5.2 1.6-10.5 3.1-15 6.3a13.3 13.3 0 0 1-4.1 1.6 9.9 9.9 0 0 0-5.6 3.3 9.3 9.3 0 0 0 3 4.6zM664 508.9a15.2 15.2 0 0 0 9.6 7.1 17.1 17.1 0 0 0 13.2-2.4 88.1 88.1 0 0 0 14.6-11.5 9 9 0 0 0 1.2-2c-2.1-2-4.2-3.7-6-5.7s-2.9-4.4-5.5-5.8c-.7.8-1.3 1.4-1.8 2.1s-1.5 2.5-2.4 3.7-2.5 4.1-5.3 4.2a2.1 2.1 0 0 0-1.1.6c-3.3 3.1-7.2 5-11.4 6.6-1.6.8-3.6 1.2-5.1 3.1zm-50.8-70.8a5.6 5.6 0 0 0-.1 1.5c.2 1 .6 2 .8 3a68.1 68.1 0 0 0 9.2 22.4c4.3 7 9.3 13.6 14.1 20.3a53.6 53.6 0 0 0 4.7 5.3 1.6 1.6 0 0 0 2.7-.8c.5-2.7.8-5.5 1.4-8.3a4.6 4.6 0 0 0-1.5-4.8c-2.5-2-3.6-5.3-6.8-6.8-1.6-.8-2.6-2.7-3.7-4.3s-2.9-4.5-4.4-6.7a7 7 0 0 0-1.7-2c-1.8-1.2-2.7-3-3.8-4.8s-2.5-6-5.5-7.9a6 6 0 0 1-1-1.5l-3.9-4.8h-.7zm70.6 49.4a21.8 21.8 0 0 0-4.5-5.7c-2.9.5-5.8 1.2-8.7 1.6s-7.6 1-11.5.1a3.3 3.3 0 0 0-4.1 2.6 15.5 15.5 0 0 1-3.7 6.4 15.8 15.8 0 0 0-1.4 2.2 2.5 2.5 0 0 0 .2 3.3c2.3 2.5 4.7 4.9 7.8 6.2 9.6-3.9 17.5-10.4 25.8-16.7zm246.5-50.4a7.3 7.3 0 0 0-1.7-.1c-3.4.9-6.8 1.8-10.5 1.2a2.7 2.7 0 0 0-2.1 1.2 25.3 25.3 0 0 0-2.8 6c-.8 2.8-2.6 5.4-1.8 8.5a1.8 1.8 0 0 1-.8 1.8c-1.5 1.5-1.6 2.6-.4 3.7 4.1 3.8 8.9 5.8 14.6 4.9 2.6-.4 4.1-2.1 4.5-4.8.1-.7.1-1.5.2-2.2.3-5.2.6-10.3.9-15.5-.1-1.5-.1-2.9-.1-4.7zm-219.5-79.2a6.8 6.8 0 0 0 5-2.2 37.1 37.1 0 0 0 2.7-3.5c1.8-2.7 2.8-5.5.7-8.6a2.5 2.5 0 0 1-.3-.8c-1.2-4.7-5-6.8-8.9-8.7a5.1 5.1 0 0 0-6.7 2.6c-.9 2.3-1.5 4.8-2.2 7.2-2 7 3.6 12 7.8 13.7a7.9 7.9 0 0 0 1.9.3zm250 35.3a2.1 2.1 0 0 0 .6-.7c0-2.2-.1-4.4-.2-6.6a2 2 0 0 0-.5-1.2c-1.7-1.7-3.3-3.3-5.1-4.9a3 3 0 0 0-3.7-.2c-2.8 1.6-5.7 3.2-8.4 4.9s-4.5 3.3-5.1 8.1a35.2 35.2 0 0 0-.2 4.9 11 11 0 0 0 .6 2.3 17.1 17.1 0 0 0 2.7-1l6-3.8c3.8-2.3 7.7-3.7 12.2-1.8a3.2 3.2 0 0 0 1 0zm-166.2-16.3a8.6 8.6 0 0 0 4.5-5.3 3 3 0 0 0-.4-2.9c-2.4-3.5-5-6.6-9.6-7.2a11.2 11.2 0 0 1-2.5-.8 20.9 20.9 0 0 0-10.9-1.1 40.4 40.4 0 0 0-6.8 1.8 1.2 1.2 0 0 0 0 2.1c1.9.8 3.8 1.6 5.8 2.3a46.6 46.6 0 0 1 14.9 7.6zm164.6-5.4c-.1-4.1-2.4-6.4-5.5-8.2a7.1 7.1 0 0 0-8.5.5 11.9 11.9 0 0 0-3.1 4.2 24.8 24.8 0 0 0-2 9.8c0 1.4-.7 2.9.2 4.2a4.2 4.2 0 0 0 3.4-1.2l7-5.4a11.2 11.2 0 0 1 5-2.6 21.8 21.8 0 0 0 3.5-1.3zM737.6 333c-2.7.6-5.8 1.5-7.3 4.5a18 18 0 0 0-2.1 9.4 8.2 8.2 0 0 0 3.7 6.3 6.1 6.1 0 0 0 7.7-.4 56.6 56.6 0 0 0 4.9-4.4c2-2.1 3.2-4.6 1.7-7.6-.4-.8-.5-1.7-1-2.5a9.2 9.2 0 0 0-7.6-5.3zm201.2 78.5l2.5-1.5c3.2-1.9 6.8-2.8 9.8-5.1a4.6 4.6 0 0 1 3-.4 5.6 5.6 0 0 1 4.6 3.7c1.3 3 2.5 6 3.7 9a1.2 1.2 0 0 0 1.4 1 19.7 19.7 0 0 0 .2-2c.1-5.5-2.2-10.3-3.8-15.4a2.9 2.9 0 0 0-2.7-1.9 4.1 4.1 0 0 1-2.3-1 3.5 3.5 0 0 0-4.8-.5c-3.4 2-6.8 4.1-10.1 6.3a5.4 5.4 0 0 0-2.3 3.1 4.8 4.8 0 0 0 .8 4.7zm-284.6 62.2a21.3 21.3 0 0 0 3.1.6c2.7.1 5.2-1 7.7-1.7s4.6-2.6 3-6.1a54.2 54.2 0 0 1-3.9-15.4 2.7 2.7 0 0 0-.7-.8c-2 2.6-1.8 6.2-4.1 8.6zM935 373.9h.3a2.1 2.1 0 0 0-.1-.9 2.5 2.5 0 0 0-.9-.9.9.9 0 0 0-.8.1l-1.2 1.2c-3.2 4-6.1 8.3-10.2 11.4-1.8 1.3-2.2 4.2-1.3 6.5a1.8 1.8 0 0 0 2.2 1l9-4.5a4.2 4.2 0 0 0 2.3-3.9c.2-3.3.5-6.7.7-10zm-240 642c1.8-1 3.2-1.6 4.3-2.5a38.9 38.9 0 0 0 4.4-3.6c3.1-3 6.2-5.9 10.4-7.3a1.8 1.8 0 0 0 1.2-2.1 1.9 1.9 0 0 0-1.9-1.5 15 15 0 0 0-15 6.4c-1.8 2.4-2.7 5.5-3.9 8.3-.2.4.2 1 .5 2.3zm236.8-607c-4-.3-7.3.3-10 3.1l-3.3 3.6a3.5 3.5 0 0 0-.6 4.1c.5 1.2 2 1.7 3.9 1.4l1.7-.5 3.3-1.4c3.7-1.4 5.9-3.8 5.3-8-.2-.7-.3-1.3-.4-2.3zm-10.9-1.5l10.7-4c1.5-6.1 1.5-6.1.9-9.8-4.1.9-7.8 2.3-10.1 6.2-1.5 2.2-2.7 4.5-1.6 7.5zm-289 670c1.7-1 3.2-2 4.8-2.7 3.8-1.7 4.3-5 4.3-8.5a3.5 3.5 0 0 0-2.6-3.3 3.1 3.1 0 0 0-3.9 1.3c-1.3 1.8-2.6 3.6-3.8 5.4a3.1 3.1 0 0 0-.7 2c.6 1.7.1 3.8 1.9 5.8zm205.4-455.8a10.3 10.3 0 0 0 2.1-5.2c.3-6 .4-12 .6-18a1.8 1.8 0 0 0 0-.4 2.1 2.1 0 0 0-1.6-1.9 1.7 1.7 0 0 0-2.1 1.1 13.9 13.9 0 0 0-.9 3.8c-.2 5-.3 10-.4 15-.1 2.1.3 4.1 2.3 5.6zM931.5 421a24.9 24.9 0 0 0-7.4 3.5 32.1 32.1 0 0 0-4.7 3.9c-1.1 1.1-.8 2.5.7 3.2a11.3 11.3 0 0 0 9 .2 3.5 3.5 0 0 0 1.8-1.7 13.1 13.1 0 0 0 .6-9.1zm-566.6 646.7l1.6.6h.9a2.6 2.6 0 0 0 2.6-2.5 11.3 11.3 0 0 0-.2-1.7 41.3 41.3 0 0 0-3.4-10.5 23 23 0 0 0-3.6-6 4.8 4.8 0 0 0-1.6-.7 10.9 10.9 0 0 0 .4 5.1c.9 2.8 1.7 5.6 2.3 8.5s.7 4.6 1 7.2zm49.3 22.4c.8-1.8 0-3.2-1-4.5s-2.6-3.2-3.9-4.8a18 18 0 0 0-1.6-1.5l-4.4 6.4a6.6 6.6 0 0 0-.7 1.6 1.7 1.7 0 0 0 1.2 2.4c3.5.7 7 1.5 10.4.4zm485.1-438.8c-5.4.1-10.4-2-15.1.8v4.8c3.4.5 8.2-.1 14.2-1.8zm-240.4 433.9a4.3 4.3 0 0 0-1.6-.6 68.5 68.5 0 0 0-8.3.9c-4 .8-6.6 3.4-8.5 6.9a.9.9 0 0 0 .1.4c4.1 1.5 15.1-3.5 18.3-7.6zm6-50.7l6.3-2.8 5.9-2.8c-.2-1.2-.3-2.2-.5-3.2a4.4 4.4 0 0 0-.5-.9c-3.8-.3-7 1.3-10.1 3.4a13.8 13.8 0 0 0-2.2 2.3zm204.2-408.6c6.5-2 10.8-8.8 12.9-12.2a2.7 2.7 0 0 0-.3-3.3c-3.3 1.5-5.4 4.2-7.7 6.7s-3.2 5.5-4.9 8.8zm-202.2 447.7c-3.4-.5-6.5.1-9.5.3a24.4 24.4 0 0 0-4.3.9c-1.5.4-2 1-1.9 2s.8 1.5 2.2 1.6a19.7 19.7 0 0 0 2.6 0c3.6-.4 7.3-.5 10.8-1.8v-3.1zm-22.3-319.3a4.8 4.8 0 0 0-3.9-2.7c-4.1-.4-7.8 1-11.4 2.4a1 1 0 0 0-.1 1.5 5.1 5.1 0 0 0 1.5.8c4.1 1 8.1.1 12.1-.8a6.4 6.4 0 0 0 1.8-1.2zm224.1-208.5c4.7-1.4 6.7-4.3 7-8.5.1-.9.3-1.7.3-2.6a2 2 0 0 0-.6-1.5 2.4 2.4 0 0 0-2 .3c-2.4 2.8-4.5 5.8-5.3 9.5a9.3 9.3 0 0 0 .6 2.8zm26.6 155l-6.9-7.6c-1-1.1-2.2-.7-2.7.7s-.7 3.7 1.2 5.1l5.6 4.3a2.4 2.4 0 0 0 1 0zm33.9-143.1a4.1 4.1 0 0 0-.8-1.5 11.7 11.7 0 0 0-3.1-1.5 2.4 2.4 0 0 0-2.9 1.4 9.9 9.9 0 0 0-.9 2 2.2 2.2 0 0 0 0 1.7 16.1 16.1 0 0 0 2.8 2.7 1.8 1.8 0 0 0 1.7 0c1.7-1.2 2.5-2.9 3.3-4.8zm-68.8 156.1c-1.6 1.1-1.2 3.1-2.1 4.6 1.3 2.5-.2 6.1 2.9 8 2.8-5.1 2.8-5.1 1.4-10.5a3 3 0 0 0-2.2-2.1zm5.2-158.3c1.5.7 2.9 0 4.3-.3a2.3 2.3 0 0 0 1.6-2.7 4.6 4.6 0 0 0-3-3.5c-1.7-.7-2.9-.2-3.4 1.5a5.7 5.7 0 0 0 .5 5zM720.9 360l6.1 3.1 1.7-3.3c-1.4-1.8-2.5-3.4-4.5-4.5-1.6 1.1-2.8 2.3-3.3 4.7zM677 477.6c-.1-2.1.2-3.9-1.4-5.3a12.7 12.7 0 0 0-6.1 3.3 6.2 6.2 0 0 0-1 2c2.9 1.2 5.4.7 8.5 0zm116.3 195.3c-1.4-.5-2.4.1-2.3.9s-.4 3.3-1.2 5 .7 5.9 3.5 6.6a2.9 2.9 0 0 0 1.2-.6 33.8 33.8 0 0 1-1.7-6 30.8 30.8 0 0 1 .5-5.9zm-446.6 396.8c.7-3.3.4-3.9-2-5.3l-2.3-1.3a3 3 0 0 0-1.2-.5 2.7 2.7 0 0 0-1.5.4 1.4 1.4 0 0 0-.1 1.2c.7 1.9 4.4 5 6.8 5.6h.4zm578-541.9l-10.1-.5a2.5 2.5 0 0 0 .6.8 17.9 17.9 0 0 1 6.7 1.7l1.3.3c.9.2 1.2-.2 1.4-2.3zM750.1 354a3.5 3.5 0 0 0-1.2-1.1 1.1 1.1 0 0 0-1.1 1.4 1.5 1.5 0 0 0 1.1.9 3.5 3.5 0 0 0 1.2-1.2zm-87 678.7c-2.1-.7-3-.2-3.7 1.1 1.4.8 2.2-.1 3.7-1.1z"/>
<path d="M731.3 423.5l11.5.9a2.7 2.7 0 0 1 2.4 1.7 12.3 12.3 0 0 1 1 3.4c.2 1.8.1 3.5.2 5.3.3 3.9-2.2 6.2-4.7 8.5a3.1 3.1 0 0 1-2 .9c-2.3-.1-4.6.6-7-.1a17.2 17.2 0 0 0-9.2-.2c-4.2.9-8.4 1.7-12.3 3.6a28.4 28.4 0 0 1-4.2 1.4c-2.8.9-5.1-.2-5.4-3.2a19.5 19.5 0 0 1 .3-7c1.3-5.2 4.3-9.2 9.6-11.4s12.8-4.6 19.8-3.8zm-24.6 16c-.2 2.5.7 3.2 2.1 2.9 3.7-.9 7.5-1.7 11.1-2.8A54.1 54.1 0 0 1 736 437c2.4 0 3.7-.9 3.7-2.2s-1.3-2.7-2.8-3-5.5-1.6-8.2-1.5-4.7.1-6.4 2.4-2.5 1.5-3.9.5-3.7-.7-5.4.3-2.6 1.9-4 2.7a4.1 4.1 0 0 0-2.3 3.2zm84.7 22.7c.3 1.8-.7 3-2.4 4a9.3 9.3 0 0 1-2.1-1.3l-8.1-8.8-6.7-7.1c-2.6-2.8-2.6-4.2-.3-7.3l.4-.8a4.8 4.8 0 0 0-3-3c-3.7-1.6-6.2-4.5-8.7-7.4-.6-.7-1-1.4-1.7-2.1-3.3-3.2-2.4-7-1.5-10.7a2.4 2.4 0 0 1 .8-.8c1.4.1 1.8 1.1 2.2 2 3.5 7.3 9.1 12.6 15.5 17.2 3.8 1.3 4.1 4.7 4.6 7.9a1.1 1.1 0 0 1 0 .4c-1 3.4.8 6 2.7 8.5s3.2 4.2 5 6.2a32.9 32.9 0 0 0 3.3 3.1zM625.3 351.1c-.7-3.2-2.7-4.6-5-5.8a2.3 2.3 0 0 0-2.5.2l-1.8.9a2.8 2.8 0 0 1-.1-3.5 8.1 8.1 0 0 1 2.4-3c2.1-1.3 4.5-1.6 6.7 0s5.8 5.1 6.2 9.7l-4.2 4.6c-2.1 2.4-2 3.9.4 6a23.6 23.6 0 0 0 4.1 2.5c.8.4 1.7.6 2.5 1a1.6 1.6 0 0 1 .4 2.3c-.9 1.3-2.1 2.3-3.7 2-3.9-.7-7.3-2.2-9.5-5.8a5.5 5.5 0 0 1 .5-6.9c1.2-1.5 2.4-2.7 3.6-4.2zM420.1 846.6c.6 1.2-.4 1.8-.6 2.6a5.7 5.7 0 0 1-.9 2c-3.8 4.7-7.1 9.8-11.5 14a50.9 50.9 0 0 0-5.1 6.1 81.8 81.8 0 0 1-8.4 9.1c-1.2 1.1-2.2 2.4-3.3 3.6a15.8 15.8 0 0 1-2.1 2.2c-4.7 3.4-8.7 7.5-12.9 11.4l-9.9 8.9c-5.4 4.7-11.1 8.9-16.9 13s-8.6 6.2-13.1 9.1c-6.9 4.3-13.9 8.4-20.9 12.5a9.9 9.9 0 0 1-2 .8c-5.5 1.8-10.5 4.6-15.6 7.4a39.6 39.6 0 0 1-7.8 3.2 80.5 80.5 0 0 0-12.5 4.6 61.2 61.2 0 0 1-13.8 4.9 103.4 103.4 0 0 0-13.9 4.5 46.9 46.9 0 0 1-8.5 2.2c-4.2.7-8.2 2.5-12.2 3.9l-5 1.8c-5.5 1.6-11 3.4-16.6 4.8s-9.6 1.8-14.4 2.6l-2.6.3c-4.9 1.1-9.8 2.4-14.7 3.4s-9.6 1.8-14.4 2.7h-1.3c-4.9 0-9.8.3-14.6 0a19.4 19.4 0 0 1-11.2-3.9c-4-3.2-7.4-7.2-8-12.8a5.2 5.2 0 0 1 0-2.2c.6-1.5 1.3-3.2 3.1-3.4s2.5 1.2 3.4 2.4c1.8 2.8 3.6 5.8 5.6 8.5a13.5 13.5 0 0 0 8 5.3c3.3.6 6.7 1 10.1 1.4a5.7 5.7 0 0 0 1.8-.1l9.1-1.9 13.9-2.8c2.9-.6 5.7-1.4 8.6-2s7-1.3 10.5-1.8a82.1 82.1 0 0 0 18.4-4.9c5-1.9 10.2-3.2 15.3-4.7l2.9-1c8.3-3.3 16.6-6.1 25.1-8.8 6.8-2.1 13.3-4.9 20-7.3 3.6-1.3 7.3-2.4 11-3.5a67.1 67.1 0 0 0 14.2-6.2 44.3 44.3 0 0 1 8.9-4 38.1 38.1 0 0 0 8.6-4.4l7.9-4.9 7.4-4.9a293.7 293.7 0 0 0 26.6-19.2c5.6-4.6 11.2-9.2 16.5-14.2s13.1-12.8 19.1-19.7 10.9-13.2 17.1-19.1zM498 645.2c.9 2.3.2 4.1-1 5.7a78.4 78.4 0 0 0-6.6 11.5c-.6 1.2-1.1 2.4-1.6 3.6s-1.9 5-3.1 7.3q-3.2 5.8-6.1 11.8c-1.2 2.4-2.1 4.9-3.2 7.3-2.3 5.3-4.7 10.5-7.1 15.8a48.8 48.8 0 0 1-2.6 4.6c-3.7 6.1-8.4 11.4-12.4 17.3a9.6 9.6 0 0 1-1.2 1.3c-5.3 5.3-9.6 11.6-14.7 17.2l-11.3 11.9a15.9 15.9 0 0 0-1.6 2.1 28.4 28.4 0 0 1-1.6 2.6c-3.2 3.8-6.5 7.7-9.8 11.4s-7.2 7-10.3 10.9a100 100 0 0 1-21.8 19.9 6.6 6.6 0 0 0-1.8 1.9 14.2 14.2 0 0 1-4.1 3.9c-3.5 2.5-6.9 5.1-10.4 7.6a14.9 14.9 0 0 1-3.4 2.1 75 75 0 0 1-10.1 3.3 23.9 23.9 0 0 1-14.7-1.1c-5.6-2.3-11-5.1-16.3-8a7.4 7.4 0 0 1-1.8-1.3 3.9 3.9 0 0 1 1.3-6 2.6 2.6 0 0 1 1.7.1 11.6 11.6 0 0 1 1.9 1.1c6.2 3.8 12.7 6.9 19.9 8.5a23.5 23.5 0 0 0 8.8.4c5.2-.8 10.1-2.3 14.3-5.6s5.8-4.1 8.7-6.1l.7-.6a70.9 70.9 0 0 1 11.8-10c3.6-2.5 6.3-5.7 9.4-8.8s5.8-5.9 8.6-9a105.9 105.9 0 0 0 6.9-8.1c3.3-4.5 7.1-8.7 10.8-12.9 5.8-6.7 11.8-13.3 17.5-20.1 3.6-4.3 6.8-8.9 10.3-13.4 1.5-2 3-4 4.6-6 4.6-5.6 7.4-12.1 10.1-18.7s5-11 7.7-16.4c1.7-3.3 3.2-6.7 4.9-9.9s2.4-4.4 3.6-6.6l8-13.3 3.8-6.5c.4-1.2.4-1.2 3.3-2.7zm-80.9 21.9c-.9 2.2-2.1 2.9-3.7 2.9-4.7-.1-9.5.1-14.2-.4a29.1 29.1 0 0 1-12.9-4.3 17.4 17.4 0 0 0-2-.9 17.5 17.5 0 0 1-5.5-3.6c-2.8-2.9-5.7-5.6-8.5-8.4a8.8 8.8 0 0 1-1.8-2.5c-2-4.5-3.8-9-3.7-14 .1-7.1-.2-14.2.7-21.3a27.6 27.6 0 0 0-.1-3.5c0-1.9 0-3.8.1-5.7a3.8 3.8 0 0 1 .5-1.7c.6-1 1.2-2 2.6-2.1s1.6.7 2 2.5a15.4 15.4 0 0 1 .6 4.4c-.4 5.1.6 10 .7 15 .1 3.4.3 6.8.4 10.2a6 6 0 0 0 0 1.7c1.9 5.1 3.8 10.3 8 14.1l8.3 7.3c5.9 5.2 13 7.3 20.7 7.8a22.3 22.3 0 0 1 4.8.7 14.2 14.2 0 0 1 3 1.8z"/>
<path d="M306.7 805.9c-.1-3.3-.3-6.9-.3-10.6a29.1 29.1 0 0 0-.3-4.4 19 19 0 0 1 1.1-9.2 60.4 60.4 0 0 0 2.8-11.1c.6-3.5 1.6-6.9 2.2-10.4a10.7 10.7 0 0 1 1.5-3.1 3.1 3.1 0 0 1 1-.8 1.4 1.4 0 0 1 1.8.8 4.2 4.2 0 0 1 0 1.3c-.4 1.7-1 3.4-1.4 5.1s-1 4.3-1.4 6.5c-.8 5-1.6 9.9-2.1 14.9a94.9 94.9 0 0 0-.6 11.9c.1 4.9.6 9.7 1 14.6a5.2 5.2 0 0 0 .3 1.7c2.2 5 3.2 10.5 6.6 14.9a17.5 17.5 0 0 1 1.9 4c.8 2.1 1.7 4.1 3.8 5.2a3.5 3.5 0 0 1 1.1 1.3c.6 1 1.3 2.1.6 3.3s-2 1.1-3.2.9a22.9 22.9 0 0 1-2.6-.4 8.7 8.7 0 0 1-5.8-4.4 89 89 0 0 1-7.7-21.2 40.8 40.8 0 0 1-.6-7c.3-1 .3-2.2.3-3.8zm382.5-498.8a3.7 3.7 0 0 1-.9-1.4 10.5 10.5 0 0 1 .1-3.9c1.5-4.6 2-9.5 4.3-13.9a57.4 57.4 0 0 1 3.9-6.9 15.2 15.2 0 0 1 4.3-3.8 5.7 5.7 0 0 1 7 .6 20.1 20.1 0 0 1 6.8 10.1 7.4 7.4 0 0 1-.2 3.4c-.2 1-.5 1.1-2.6 2.4l-4-5.7a29.2 29.2 0 0 0-2.7-3.5 9 9 0 0 0-2.6-1.6 2 2 0 0 0-2.7.7c-2.2 3.6-5 7-5.6 11.4a10.2 10.2 0 0 1-.8 3 15.3 15.3 0 0 0-1.6 5.5 3.6 3.6 0 0 1-2.7 3.6zm17.9-34.9c-5-2.7-5-2.7-9-2.6-.4-2.4.4-4.5 2.3-5.5a5.1 5.1 0 0 1 5.5.1l1 .8c3.1 2.8 3.1 3.6.2 7.2zm-.7-10.9a14.8 14.8 0 0 0-7.8-2.6 9 9 0 0 1 .1-2.9 6.5 6.5 0 0 1 1.9-2.3 3.1 3.1 0 0 1 3.3-.4l1.2.6c4.1 2.1 4.4 3.2 1.3 7.6zm7.9 87.3a5.6 5.6 0 0 1-3.1 4.6 2.7 2.7 0 0 1-3.5-.9c-1.7-2.4-1.7-6.9.1-9.2s2.8-1.6 4 0 2.7 3.2 2.5 5.5zm19.4-4.2v-1.8a4.2 4.2 0 0 1 2.3-4 2.4 2.4 0 0 1 3.5.8 9.7 9.7 0 0 1 1.4 5.9 8.2 8.2 0 0 1-1.6 3.5 2.9 2.9 0 0 1-3.2 1.1 3.1 3.1 0 0 1-2.1-2.6 27.7 27.7 0 0 1-.3-3.1h.1z"/>
</g>
<path fill="#3BC7D3" d="M48.537,0.406L48.537,0.406C45.386,0.77,42.181,1.441,39.01,2.4c-2.562,0.777-5.17,1.762-7.752,2.928
	l-0.541,0.208l-0.455,0.188l-2.03,0.904c-1.355,0.672-3.104,1.574-4.78,2.677l-1.017,0.629l-0.243,0.16l-0.128,0.093l-1.312,0.896
	l-0.62,0.448l-1.338,1.014l-0.431,0.347l-1.453,1.208l-1.211,1.102l-0.598,0.551l-1.321,1.33l-0.388,0.4l-1.346,1.483L11.765,19.3
	l-1.272,1.546l-1.188,1.589l-0.362,0.517l-1.011,1.49l-0.297,0.463L6.66,26.516l-0.518,0.935l-0.257,0.479l-0.377,0.691
	l-1.046,2.177L3.72,32.54l-0.204,0.501l-0.278,0.756l-0.544,1.507l-0.474,1.53l-0.231,0.775l-0.331,1.306l-0.254,1.034l-0.372,1.839
	L0.93,42.313l-0.346,2.365l-0.228,2.415l-0.025,0.552l-0.077,1.853l0,1.078l0.011,0.876l0.042,1.27l0.102,1.588l0.079,0.824
	l0.231,1.977l0.406,2.383l0.53,2.372l0.077,0.282l0.573,2.04l0.776,2.297l0.895,2.257l0.843,1.846l0.182,0.38l0.929,1.771
	l0.332,0.592l0.483,0.82c-0.004-0.007,1.261,1.998,1.261,1.998l0.49,0.736l0.649,0.894l0.31,0.419l0.486,0.65l0.521,0.641
	l1.017,1.229l1.291,1.412l0.38,0.401l1.343,1.321l0.4,0.382l0.453,0.397l0.516,0.461l0.214,0.225l0.544,0.547l1.247,1.165
	c3.422,3.043,7.214,5.464,11.279,7.203c-0.013-0.006,2.262,0.908,2.262,0.908l0.793,0.291l1.079,0.345l1.257,0.387l0.537,0.145
	L36.9,96.76l1.127,0.225l1.25,0.239l0.546,0.082l0.275,0.035l1.567,0.212l1.598,0.139l0.676,0.054l0.269,0.033
	c0.032,0.002,2.05,0.147,2.05,0.147l0.865,0.027l1.208,0.003l0.497,0.005l0.543-0.019l2.011-0.128l0.538-0.055l1.656-0.211
	l0.864-0.136l1.967-0.378c0.034-0.007,1.671-0.417,1.671-0.417l0.295-0.076c1.896-0.52,3.816-1.188,5.718-1.988
	c-0.014,0.005,2.283-0.956,2.283-0.956c3.722-1.633,7.395-3.832,10.915-6.533l1.562-1.254l0.926-0.809
	c-0.009,0.008,1.663-1.514,1.663-1.514l0.755-0.705c0.013-0.013,2.723-2.887,2.723-2.887c-0.027,0.028,4.352-4.289,4.352-4.289
	l0.552-0.642l0.264-0.336l0.256-0.384l0.82-1.393l0.374-0.773l0.321-0.748l0.084-0.212l0.491-1.288l0.519-1.464
	c0,0,0.023-0.07,0.037-0.111c2.653,1.501,3.454,1.385,3.711,1.33l0.117-0.026l0.799-0.656l-0.544-1.571l-1.143-1.214
	c-0.016-0.016-0.928-0.785-1.41-1.192c0.035-0.084,0.077-0.183,0.077-0.183s0.099-0.243,0.154-0.382
	c0.152-0.123,0.887-0.715,0.887-0.715s-0.165-1.206-0.189-1.38c0.042-0.146,0.166-0.573,0.166-0.573
	c0.013-0.048,0.383-1.898,0.383-1.898l0.072-0.436l0.039-0.342l0.084-0.959l0.036-0.798v-0.78l-0.119-1.394
	c-0.077-0.764-0.263-1.538-0.563-2.377l-0.384-0.904l-0.489-0.806l-1.072-1.115c-0.863-0.633-1.76-0.828-2.588-0.604
	c-0.812,0.215-1.455,0.791-1.807,1.621l-0.181,0.589l-0.127,0.719l0.101,1.484l0.05,0.26l0.145,0.604l0.301,0.913l0.424,0.981
	l0.512,1.048l0.646,1.146l0.741,1.218c0.003,0.005,1.322,1.976,1.322,1.976s0.333,0.482,0.449,0.651
	c-0.049,0.151-0.072,0.226-0.123,0.384c-3.324-0.401-4.321-0.153-4.806,0.429l-0.09,0.107l-0.149,0.991l0.037,0.114
	c0.169,0.504,0.613,1.024,1.441,1.691c0,0,1.038,0.732,1.586,1.118c-0.181,0.306-2.232,3.933-2.232,3.933
	c-1.178,1.864-2.487,3.709-3.89,5.479c0.005-0.006-1.701,1.996-1.701,1.996c-2.115,2.008-4.155,3.824-6.207,5.523
	c-1.895,1.551-3.869,3.006-5.869,4.321c-2.314,1.513-4.438,2.709-6.491,3.655c-0.001,0-1.649,0.732-1.649,0.732
	c-2.942,1.137-6.108,1.997-9.395,2.553l-0.608,0.093l-2.026,0.262l-0.354,0.03l-0.616,0.048c-0.003,0-2.428,0.134-2.428,0.134
	l-1.049,0.027l-0.494,0.003l-1.819-0.051l-0.484-0.02c-0.047-0.003-1.72-0.237-1.72-0.237c-2.642-0.444-5.167-1.2-7.497-2.244
	l-1.271-0.567l-1.099-0.474l-0.983-0.4l-0.434-0.162l-0.383-0.15l-1.622-0.545l-2.09-0.901l-0.447-0.216l-1.66-0.83l-1.609-0.909
	l-0.423-0.249l-1.332-0.852l-0.18-0.11l-0.464-0.316l-1.609-1.15l-0.915-0.726l-1.426-1.187l-0.92-0.976l-0.534-0.616l-0.824-0.973
	l-0.243-0.308c-1.351-1.709-2.598-3.603-3.705-5.631c-1.471-2.797-2.575-5.735-3.278-8.728c-0.344-1.406-0.547-2.752-0.699-3.884
	l-0.176-1.815L6.571,59.64L6.553,59.17l0-1.34l0.029-1.41l0.028-0.329l0.053-0.702c0-0.002,0.203-2.061,0.203-2.061l0.161-1.271
	l0.192-1.156L7.392,49.8l0.192-1.012l0.162-0.992l0.063-0.35l0.09-0.531l0.12-0.868l0.038-0.436l0.04-0.375
	c0.038-0.347,0.056-0.693,0.056-1.041c0-0.655-0.066-1.314-0.198-1.995l-0.471-1.419l-0.321-0.653L6.75,39.455L5.706,38.14
	l-0.651-0.679c0,0-0.554-0.53-0.646-0.618c-0.02-0.035-0.05-0.089-0.097-0.174c0.215-0.216,0.466-0.466,0.466-0.466
	c0.51-0.322,1.154-0.745,1.306-1.516l0.018-0.093c0,0-0.083-0.457-0.132-0.722c0.25-0.226,0.722-0.653,0.722-0.653l0.56-0.591
	l0.504-0.584l0.949-1.262l0.439-0.649l0.434-0.687l0.254-0.445c0-0.001,1.326-2.433,1.326-2.433
	c-0.014,0.025,0.788-1.496,0.788-1.496l0.193-0.396l0.111-0.198l0.084-0.163l0.416-0.772l0.415-0.791l0.258-0.454l0.181-0.313
	l0.681-1.2l0.233-0.358l0.27-0.429l0.746-1.149c-0.013,0.019,1.11-1.513,1.11-1.513c1.692-2.148,3.558-3.869,5.541-5.103
	c2.845-1.815,5.688-3.405,8.452-4.729l1.312-0.609l1.215-0.465l0.36-0.127l0.223-0.074c3.01-1.032,6.284-1.814,9.733-2.326
	c3.086-0.461,6.25-0.591,9.406-0.386c2.898,0.187,5.793,0.665,8.603,1.422c0.003,0.001,3.849,1.225,3.849,1.225
	s0.221,0.087,0.32,0.126c-0.096,0.037-0.981,0.379-0.981,0.379l-0.87,0.447c-0.927,0.567-1.415,1.123-1.524,1.719l-0.019,0.101
	l0.193,0.857l0.063,0.085c0.269,0.361,0.691,0.592,1.458,0.796l1.02,0.178l1.314,0.114c0.005,0.001,1.667,0.085,1.667,0.085
	c0.045,0.002,2.031,0.109,2.031,0.109l0.827,0.052l1.945,0.138l2.592,0.282c0,0,0.166,0.021,0.288,0.036
	c0.176,0.128,1.181,0.863,1.181,0.863s0.619,0.5,0.705,0.569c0.063,0.085,0.415,0.556,0.415,0.556l0.359,0.509l0.325,0.454
	l0.794,0.933l1.041,0.859l1.268,0.579c0,0,0.044,0.014,0.083,0.026c0.069,0.075,1.304,1.435,1.304,1.435l0.313,0.358
	c0,0,0.981,1.211,0.996,1.229c0.049,0.151,0.67,2.105,0.67,2.105s0.177-0.445,0.329-0.827c1.259,1.614,2.432,3.294,3.453,5.03
	l0.737,1.283l0.133,0.252l0.07,0.143c0,0,0.545,1.055,0.594,1.15c0.021,0.104,0.794,3.77,0.794,3.77
	c0,0.001,0.073,0.372,0.073,0.372l0.671,3.18c0.001,0,0.499,1.882,0.499,1.882c-0.003-0.011,0.623,1.844,0.623,1.844l0.369,0.871
	l0.418,0.895l0.51,0.895c0,0,0.351,0.572,0.437,0.71c0.219,1.646,0.35,3.311,0.379,4.949l0.04,2.657l1.516-2.183l0.267-0.489
	l0.382-1.271c0.037-0.287,0.056-0.567,0.056-0.844c0-0.394-0.038-0.781-0.108-1.175l-0.124-0.545l-0.215-0.619
	c0,0-0.484-0.95-0.539-1.06c-0.487-3.462-1.367-6.916-2.626-10.268l-0.568-1.454l-0.177-0.419l-0.826-1.828l-0.255-0.512
	l-0.04-0.212c-0.311-1.294-0.733-2.655-1.259-4.046c-0.006-0.016-0.854-1.923-0.854-1.923c-0.018-0.039-1.068-1.84-1.068-1.84
	c-0.663-1.003-1.427-1.879-2.258-2.642c0.036-0.396,0.131-1.448,0.131-1.448c-0.031-1.096-0.28-2.193-0.741-3.271l-0.812-1.433
	l-0.501-0.702l-0.541-0.627l-1.28-1.212l-1.449-1.03L80.59,7.684L79.94,7.349l-0.182-0.09c-0.008-0.004-1.642-0.698-1.642-0.698
	c-0.008-0.003-1.712-0.523-1.712-0.523l-0.845-0.207c0,0-0.491-0.093-0.612-0.115c-2.295-1.448-4.813-2.645-7.494-3.543
	c-2.915-0.981-6.034-1.628-9.27-1.918C55.083-0.027,51.837,0.025,48.537,0.406z M7.024,29.411l1.109-2.03l0.958-1.574l0.26-0.405
	l0.879-1.298l0.122-0.185l0.315-0.444c0,0,0.306-0.409,0.61-0.818c-0.227,0.43-0.534,1.004-0.534,1.004l-0.134,0.258l-0.198,0.393
	l-0.776,1.478c-0.012,0.033-1.162,2.154-1.162,2.154L8.11,28.575l-0.396,0.614L7.503,29.5l-0.21,0.317l-0.862,1.141
	c0,0-0.283,0.327-0.345,0.398C6.212,31.094,7.024,29.411,7.024,29.411z M6.527,70.19l-0.156-0.324l-0.819-1.791l-0.864-2.171
	l-0.748-2.212l-0.566-2.006l-0.054-0.222l-0.518-2.294l-0.391-2.296l-0.227-1.931l-0.07-0.755l-0.1-1.569l-0.041-1.2L1.964,50.56
	v-1.021l0.077-1.822l0.023-0.5l0.217-2.325l0.338-2.301l0.144-0.74l0.307-1.534l0.372-1.499c0,0,0.055-0.217,0.109-0.427
	c0.144,0.138,0.295,0.282,0.295,0.282l0.589,0.608l0.914,1.146l0.311,0.522l0.232,0.454L6.3,42.598
	c0.093,0.521,0.141,1.046,0.141,1.566c0,0.295-0.016,0.589-0.047,0.88l-0.036,0.425l-0.041,0.374L6.212,46.65l-0.09,0.481
	l-0.22,1.356l-0.193,1.008l-0.18,1.13l-0.194,1.177l-0.164,1.292l0,0c0,0.006-0.215,2.166-0.215,2.166l-0.064,0.814l-0.019,0.28
	L4.837,57.8l0.006,1.426l0.019,0.484l0.059,1.306l0.185,1.887c0.146,1.107,0.36,2.556,0.732,4.085
	c0.361,1.526,0.828,3.036,1.38,4.523C6.962,71.022,6.527,70.19,6.527,70.19z M91.642,50.913c0.163,0.059,0.756,0.271,0.914,0.328
	c0.132,0.136,0.758,0.782,0.758,0.782l0.329,0.557l0.303,0.733c0.167,0.471,0.382,1.144,0.465,1.947l0.111,1.305l-0.002,0.647
	l-0.034,0.733l-0.063,0.777l-0.013,0.122l-0.032,0.26l-0.063,0.408c0,0-0.075,0.371-0.155,0.768
	c-0.415-0.619-0.887-1.321-0.887-1.321l-0.369-0.601l-0.352-0.584l-0.608-1.07l-0.47-0.966l-0.382-0.878l-0.249-0.764l-0.12-0.511
	l-0.038-0.181c0,0-0.065-0.975-0.073-1.086c0.016-0.092,0.076-0.446,0.076-0.446s0.037-0.117,0.07-0.222
	c0.14-0.128,0.626-0.577,0.789-0.728C91.593,50.919,91.6,50.918,91.642,50.913z M92.06,64.448c0.022,0.058,0.191,0.479,0.271,0.678
	c-0.018,0.043-0.213,0.524-0.227,0.557c-0.479-0.34-1.133-0.803-1.134-0.804c-0.243-0.197-0.405-0.348-0.535-0.478
	C90.75,64.38,91.232,64.382,92.06,64.448z M93.788,66.539c0.318,0.269,0.519,0.438,0.718,0.605
	c-0.238-0.124-0.517-0.284-0.796-0.444C93.746,66.625,93.749,66.62,93.788,66.539z M58.029,1.962
	c3.092,0.273,6.078,0.89,8.875,1.833c1.353,0.453,2.647,1.014,3.91,1.62c-0.463,0.017-1.072,0.039-1.072,0.039
	s-1.019,0.128-1.246,0.156c-0.181-0.082-0.67-0.305-0.67-0.305l-1.882-0.742c-0.015-0.005-4.016-1.277-4.016-1.277
	c-2.83-0.762-5.741-1.239-8.652-1.444C54.886,1.81,56.481,1.821,58.029,1.962z M64.674,8.589l0.704-0.357l0.887-0.344l1.074-0.32
	c0,0,0.693-0.139,0.925-0.185c0.223,0.102,1.003,0.458,1.003,0.458l1.975,1.022c0,0,0.874,0.511,1.294,0.756
	c-0.519-0.038-1.578-0.117-1.578-0.117l-0.873-0.054c-0.011,0-2.036-0.109-2.036-0.109c-0.005,0-1.601-0.081-1.601-0.081
	l-1.241-0.106c0,0-0.673-0.114-0.779-0.133c-0.028-0.013-0.116-0.052-0.213-0.094C64.326,8.829,64.458,8.722,64.674,8.589z
	 M78.694,11.784l-0.356-0.422l-0.489-0.482l-1.447-0.789L76.04,9.826l-1.707-1.122l-0.591-0.363l-1.663-0.972
	c0,0-0.315-0.163-0.501-0.259c0.223,0.003,0.495,0.008,0.495,0.008l0.766,0.04c0,0,1.371,0.176,1.5,0.192
	c0.124,0.081,0.375,0.247,0.375,0.247c2.831,1.904,5.188,4.251,6.969,6.851c-0.094-0.093-0.289-0.286-0.289-0.286l-1.607-1.445
	l-0.534-0.443c0,0-0.396-0.317-0.472-0.379C78.745,11.848,78.694,11.784,78.694,11.784z M78.971,8.783
	c0.007,0.002,0.069,0.029,0.069,0.029l0.145,0.072l0.56,0.288l0.675,0.409l1.293,0.913l1.098,1.04l0.468,0.534l0.421,0.584
	l0.697,1.23c0.345,0.814,0.546,1.696,0.573,2.569c0,0-0.008,0.124-0.011,0.171c-0.012-0.008-0.035-0.023-0.043-0.029
	C83.545,13.733,81.512,11.08,78.971,8.783z M85.101,18.345c-0.111,0.082-0.178,0.131-0.229,0.168
	c-0.023-0.073-0.028-0.087-0.05-0.154C84.875,18.356,84.967,18.351,85.101,18.345z"/>
</svg>
