<?xml version="1.0" encoding="utf-8"?>
<!-- Generator: Adobe Illustrator 12.0.0, SVG Export Plug-In . SVG Version: 6.00 Build 51448)  -->
<!DOCTYPE svg PUBLIC "-//W3C//DTD SVG 1.1//EN" "http://www.w3.org/Graphics/SVG/1.1/DTD/svg11.dtd" [
	<!ENTITY ns_svg "http://www.w3.org/2000/svg">
	<!ENTITY ns_xlink "http://www.w3.org/1999/xlink">
]>
<svg  version="1.1" id="Layer_1" xmlns="&ns_svg;" xmlns:xlink="&ns_xlink;" width="1424" height="73.352"
	 viewBox="0 -30 1424 73.352" overflow="visible" enable-background="new 0 0 450.224 43.352" xml:space="preserve">
<g>
	<path fill="#3F3F3F" d="M109.425,9.974c2.267,0,4.138,0.274,5.614,0.821c1.476,0.547,2.572,1.374,3.29,2.479
		c0.718,1.106,1.077,2.502,1.077,4.189c0,1.14-0.217,2.138-0.649,2.993c-0.433,0.855-1.003,1.579-1.709,2.171
		c-0.707,0.593-1.47,1.077-2.29,1.454l7.349,10.893h-5.879l-5.964-9.594h-2.82v9.594h-5.298v-25H109.425z M109.049,14.315h-1.606
		v6.759h1.709c1.754,0,3.01-0.293,3.768-0.881s1.137-1.452,1.137-2.593c0-1.186-0.408-2.03-1.222-2.532
		S110.758,14.315,109.049,14.315z"/>
	<path fill="#3F3F3F" d="M132.018,15.724c1.766,0,3.287,0.335,4.563,1.006c1.276,0.671,2.261,1.643,2.957,2.917
		c0.695,1.274,1.042,2.83,1.042,4.667v2.504h-12.322c0.057,1.439,0.498,2.569,1.324,3.39s1.974,1.23,3.444,1.23
		c1.219,0,2.335-0.125,3.35-0.376c1.014-0.25,2.056-0.627,3.127-1.128v4.033c-0.946,0.468-1.934,0.81-2.965,1.025
		s-2.281,0.325-3.751,0.325c-1.914,0-3.609-0.35-5.084-1.049c-1.476-0.698-2.632-1.764-3.469-3.195
		c-0.837-1.431-1.256-3.234-1.256-5.41c0-2.209,0.378-4.048,1.136-5.519s1.814-2.575,3.17-3.313
		C128.64,16.093,130.218,15.724,132.018,15.724z M132.052,19.433c-1.014,0-1.854,0.315-2.521,0.946
		c-0.667,0.631-1.051,1.621-1.153,2.97h7.314c-0.012-0.752-0.151-1.421-0.419-2.008c-0.268-0.586-0.667-1.051-1.196-1.394
		S132.873,19.433,132.052,19.433z"/>
	<path fill="#3F3F3F" d="M157.449,29.367c0,1.285-0.305,2.369-0.915,3.254s-1.518,1.557-2.726,2.012
		c-1.208,0.457-2.712,0.686-4.512,0.686c-1.333,0-2.476-0.086-3.427-0.257s-1.911-0.456-2.879-0.854V29.9
		c1.037,0.467,2.15,0.852,3.341,1.154c1.19,0.301,2.236,0.452,3.136,0.452c1.014,0,1.74-0.146,2.179-0.437s0.658-0.673,0.658-1.146
		c0-0.315-0.088-0.6-0.265-0.854c-0.177-0.253-0.555-0.541-1.136-0.862s-1.493-0.74-2.734-1.26
		c-1.196-0.496-2.179-0.997-2.948-1.504c-0.769-0.508-1.339-1.107-1.709-1.801s-0.555-1.575-0.555-2.646
		c0-1.747,0.686-3.063,2.059-3.947s3.21-1.327,5.512-1.327c1.185,0,2.315,0.12,3.392,0.359s2.185,0.621,3.324,1.145l-1.572,3.76
		c-0.946-0.41-1.837-0.746-2.675-1.008c-0.837-0.262-1.689-0.393-2.555-0.393c-0.764,0-1.339,0.101-1.726,0.301
		c-0.388,0.201-0.581,0.507-0.581,0.92c0,0.301,0.1,0.569,0.299,0.803s0.587,0.494,1.162,0.778s1.421,0.649,2.538,1.096
		c1.082,0.439,2.022,0.898,2.82,1.377c0.797,0.479,1.413,1.071,1.846,1.775C157.232,27.342,157.449,28.252,157.449,29.367z"/>
	<path fill="#3F3F3F" d="M168.694,15.724c1.766,0,3.287,0.335,4.563,1.006c1.276,0.671,2.261,1.643,2.957,2.917
		c0.695,1.274,1.042,2.83,1.042,4.667v2.504h-12.322c0.057,1.439,0.498,2.569,1.324,3.39s1.974,1.23,3.444,1.23
		c1.219,0,2.335-0.125,3.35-0.376c1.014-0.25,2.056-0.627,3.127-1.128v4.033c-0.946,0.468-1.934,0.81-2.965,1.025
		s-2.281,0.325-3.751,0.325c-1.914,0-3.609-0.35-5.084-1.049c-1.476-0.698-2.632-1.764-3.469-3.195
		c-0.837-1.431-1.256-3.234-1.256-5.41c0-2.209,0.378-4.048,1.136-5.519s1.814-2.575,3.17-3.313
		C165.316,16.093,166.894,15.724,168.694,15.724z M168.729,19.433c-1.014,0-1.854,0.315-2.521,0.946
		c-0.667,0.631-1.051,1.621-1.153,2.97h7.314c-0.012-0.752-0.151-1.421-0.419-2.008c-0.268-0.586-0.667-1.051-1.196-1.394
		S169.549,19.433,168.729,19.433z"/>
	<path fill="#3F3F3F" d="M188.622,15.724c2.563,0,4.529,0.551,5.896,1.653c1.367,1.103,2.051,2.778,2.051,5.028v12.569h-3.64
		l-1.008-2.596h-0.137c-0.547,0.684-1.105,1.242-1.675,1.674c-0.57,0.434-1.225,0.752-1.965,0.957
		c-0.741,0.205-1.641,0.309-2.7,0.309c-1.128,0-2.139-0.215-3.034-0.643s-1.598-1.084-2.11-1.967
		c-0.513-0.885-0.769-2.008-0.769-3.371c0-2.004,0.712-3.481,2.136-4.434c1.424-0.951,3.56-1.477,6.409-1.578l3.315-0.102V22.41
		c0-0.975-0.262-1.688-0.786-2.143c-0.524-0.454-1.253-0.681-2.188-0.681c-0.923,0-1.829,0.131-2.717,0.393
		c-0.889,0.262-1.777,0.593-2.666,0.991l-1.726-3.521c1.014-0.535,2.15-0.957,3.409-1.265S187.277,15.724,188.622,15.724z
		 M191.391,26.266l-2.017,0.066c-1.687,0.045-2.857,0.34-3.512,0.883s-0.982,1.259-0.982,2.146c0,0.775,0.233,1.328,0.701,1.654
		c0.467,0.328,1.077,0.491,1.829,0.491c1.116,0,2.059-0.321,2.828-0.965s1.154-1.558,1.154-2.745V26.266z"/>
	<path fill="#3F3F3F" d="M211.899,15.724c0.262,0,0.566,0.015,0.914,0.043s0.629,0.065,0.846,0.111l-0.393,4.888
		c-0.171-0.057-0.413-0.1-0.727-0.128s-0.584-0.043-0.812-0.043c-0.672,0-1.325,0.084-1.957,0.253s-1.199,0.44-1.7,0.816
		c-0.501,0.376-0.897,0.87-1.188,1.482c-0.291,0.611-0.436,1.36-0.436,2.247v9.581h-5.212V16.068h3.948l0.769,3.228h0.256
		c0.376-0.649,0.846-1.245,1.41-1.786s1.208-0.974,1.931-1.299S211.056,15.724,211.899,15.724z"/>
	<path fill="#3F3F3F" d="M224.187,35.318c-1.892,0-3.503-0.342-4.836-1.023s-2.347-1.738-3.042-3.17
		c-0.695-1.432-1.042-3.263-1.042-5.494c0-2.311,0.396-4.195,1.188-5.655s1.891-2.533,3.298-3.221s3.039-1.031,4.896-1.031
		c1.321,0,2.463,0.128,3.426,0.385s1.803,0.561,2.521,0.914l-1.538,4.033c-0.82-0.33-1.584-0.601-2.29-0.812
		c-0.707-0.211-1.413-0.316-2.119-0.316c-0.912,0-1.669,0.21-2.273,0.629c-0.604,0.419-1.054,1.048-1.35,1.886
		c-0.296,0.839-0.444,1.89-0.444,3.152c0,1.242,0.159,2.27,0.479,3.086c0.319,0.816,0.78,1.424,1.384,1.82
		c0.604,0.396,1.338,0.595,2.205,0.595c1.082,0,2.045-0.146,2.888-0.436c0.843-0.29,1.663-0.698,2.461-1.222v4.46
		c-0.798,0.501-1.632,0.863-2.504,1.085C226.622,35.207,225.52,35.318,224.187,35.318z"/>
	<path fill="#3F3F3F" d="M238.937,8.38v5.536c0,0.966-0.032,1.886-0.094,2.759s-0.111,1.49-0.145,1.851h0.273
		c0.41-0.661,0.897-1.196,1.461-1.606s1.188-0.712,1.872-0.906c0.684-0.193,1.418-0.291,2.205-0.291c1.378,0,2.581,0.24,3.606,0.718
		c1.025,0.479,1.823,1.229,2.393,2.248c0.569,1.02,0.854,2.341,0.854,3.963v12.321h-5.212V23.972c0-1.348-0.251-2.364-0.752-3.05
		c-0.501-0.685-1.276-1.028-2.324-1.028c-1.048,0-1.875,0.239-2.478,0.716c-0.604,0.478-1.031,1.179-1.282,2.106
		c-0.251,0.926-0.376,2.059-0.376,3.395v8.863h-5.212V8.38H238.937z"/>
	<path fill="#3F3F3F" d="M295.522,9.974l-6.357,25h-6.033l-3.384-13.133c-0.068-0.25-0.16-0.632-0.273-1.146
		c-0.114-0.513-0.234-1.074-0.359-1.684c-0.125-0.61-0.237-1.186-0.333-1.727s-0.162-0.972-0.196-1.292
		c-0.034,0.319-0.1,0.747-0.197,1.283c-0.097,0.536-0.205,1.106-0.325,1.71c-0.12,0.604-0.236,1.168-0.35,1.693
		c-0.114,0.524-0.205,0.923-0.273,1.196l-3.367,13.1h-6.016l-6.375-25h5.212l3.196,13.645c0.091,0.411,0.196,0.901,0.316,1.471
		c0.12,0.57,0.239,1.166,0.359,1.787s0.228,1.221,0.325,1.796s0.168,1.074,0.214,1.496c0.057-0.433,0.131-0.938,0.222-1.513
		c0.091-0.576,0.19-1.163,0.299-1.762s0.219-1.154,0.333-1.668c0.114-0.512,0.216-0.928,0.308-1.248l3.64-14.004h5.007l3.64,14.004
		c0.08,0.309,0.173,0.722,0.282,1.24s0.219,1.08,0.333,1.684c0.114,0.605,0.219,1.195,0.316,1.771s0.168,1.074,0.214,1.496
		c0.08-0.569,0.19-1.263,0.333-2.077c0.143-0.815,0.296-1.627,0.461-2.438c0.165-0.809,0.311-1.487,0.436-2.035l3.179-13.645
		H295.522z"/>
	<path fill="#3F3F3F" d="M314.92,25.496c0,1.578-0.214,2.975-0.641,4.192s-1.048,2.245-1.863,3.085s-1.794,1.475-2.939,1.902
		s-2.435,0.643-3.871,0.643c-1.345,0-2.578-0.215-3.7-0.643s-2.096-1.063-2.922-1.902s-1.464-1.867-1.914-3.085
		s-0.675-2.614-0.675-4.192c0-2.097,0.376-3.872,1.128-5.326s1.823-2.559,3.213-3.313c1.39-0.755,3.047-1.133,4.973-1.133
		c1.789,0,3.375,0.378,4.759,1.133s2.472,1.859,3.264,3.313S314.92,23.399,314.92,25.496z M301.709,25.496
		c0,1.23,0.137,2.264,0.41,3.103s0.701,1.47,1.282,1.896c0.581,0.424,1.338,0.637,2.273,0.637c0.923,0,1.672-0.213,2.247-0.637
		c0.575-0.426,0.997-1.057,1.265-1.896s0.402-1.872,0.402-3.103c0-1.241-0.134-2.272-0.402-3.094
		c-0.268-0.822-0.692-1.439-1.273-1.854c-0.581-0.414-1.339-0.621-2.273-0.621c-1.379,0-2.378,0.464-3,1.392
		S301.709,23.641,301.709,25.496z"/>
	<path fill="#3F3F3F" d="M329.19,15.724c0.262,0,0.566,0.015,0.914,0.043s0.629,0.065,0.846,0.111l-0.393,4.888
		c-0.171-0.057-0.413-0.1-0.727-0.128s-0.584-0.043-0.812-0.043c-0.672,0-1.325,0.084-1.957,0.253s-1.199,0.44-1.7,0.816
		c-0.501,0.376-0.897,0.87-1.188,1.482c-0.291,0.611-0.436,1.36-0.436,2.247v9.581h-5.212V16.068h3.948l0.769,3.228h0.256
		c0.376-0.649,0.846-1.245,1.41-1.786s1.208-0.974,1.931-1.299S328.347,15.724,329.19,15.724z"/>
	<path fill="#3F3F3F" d="M338.933,8.38v11.976c0,0.723-0.029,1.445-0.085,2.168c-0.057,0.723-0.12,1.445-0.188,2.168h0.068
		c0.353-0.496,0.715-0.986,1.085-1.472c0.37-0.484,0.766-0.952,1.188-1.403l5.349-5.75h5.879l-7.588,8.202l8.049,10.705h-6.016
		l-5.503-7.661l-2.239,1.776v5.885h-5.212V8.38H338.933z"/>
</g>
<g>
	<path fill-rule="evenodd" clip-rule="evenodd" fill="#FF7F00" d="M41.897,27.741c-5.439,0.834-11.21-0.199-15.51-3.806
		c-4.351-3.65-6.703-10.281-4.398-15.708c1.143-2.692,3.067-4.854,5.703-6.166c2.7-1.339,5.942-1.653,8.771-0.525
		c2.314,0.961,4.12,2.742,5.077,5.072c1.159,2.818,1.017,6.268-0.851,8.754c-1.736,2.312-4.9,3.33-7.582,2.049
		c-1.129-0.539-2.321-1.681-2.124-3.051c0.037-0.257,0.144-0.579,0.396-0.701c0.255-0.123,0.546,0.109,0.752,0.231
		c0.653,0.389,1.346,0.555,2.105,0.44c1.295-0.196,2.178-0.982,2.322-2.309c0.145-1.318-0.452-2.932-1.608-3.657
		c-2.142-1.343-5.08,0.658-5.728,2.769c-0.799,2.968,0.805,5.948,3.234,7.616c2.351,1.613,5.232,2.115,8.031,2.073
		c6.145-0.091,11.835-3.26,17.353-5.596c2.876-1.217,5.805-2.282,8.867-2.918c3.017-0.626,6.188-0.656,9.222-0.142
		c5.924,1.003,11.731,4.337,14.313,9.962c2.494,5.434,1.953,12.795-2.871,16.801c4.328-4.021,4.612-10.925,1.948-15.941
		c-2.891-5.443-9.145-8.02-15.089-7.958C68.136,15.094,62.879,17.999,57.755,21C52.771,23.917,47.675,26.796,41.897,27.741z"/>
	<path fill-rule="evenodd" clip-rule="evenodd" fill="#FF7F00" d="M42.304,36.278c-10.285,5.642-24.369,9.296-34.822,2.003
		c-3.084-2.151-5.515-5.354-6.709-8.924c-0.595-1.776-0.889-3.671-0.729-5.543c0.069-0.818,0.222-1.638,0.497-2.414
		c0.133-0.375,0.654-1.835,1.209-1.669c0.413,0.124,0.373,1.211,0.401,1.533c0.06,0.66,0.13,1.319,0.24,1.972
		c0.242,1.424,0.671,2.805,1.29,4.108c1.267,2.671,3.272,4.997,5.732,6.637c4.731,3.152,10.851,3.523,16.325,2.726
		c6.353-0.928,12.448-3.433,18.113-6.378c5.525-2.873,10.683-6.396,16.321-9.057c5.654-2.669,12.324-4.231,18.471-2.425
		c5.849,1.718,10.778,6.571,10.595,12.981c-0.067,2.374-0.873,4.702-2.469,6.484c2.024-2.451,2.573-5.8,1.865-8.854
		c-0.663-2.864-2.423-5.273-4.819-6.949c-5.298-3.719-12.185-3.195-17.921-0.873c-4.237,1.715-8.025,4.329-11.738,6.954
		C50.306,31.314,46.444,34.007,42.304,36.278C39.299,37.926,45.4,34.58,42.304,36.278z"/>
	<path fill-rule="evenodd" clip-rule="evenodd" fill="#FF7F00" d="M2.776,19.381C1.396,15.001,1.151,9.874,3.29,5.67
		c2.148-4.223,7.037-6.882,11.659-5.116c2.636,1.007,4.86,3.317,5.311,6.164c0.466,2.943-1.211,5.819-3.74,7.263
		c-1.272,0.727-2.762,1.105-4.228,0.958c-1.035-0.104-2.886-0.558-3.208-1.747c-0.159-0.586,0.787-0.458,1.106-0.471
		c0.691-0.025,1.361-0.08,2.033-0.264c1.403-0.386,2.693-1.344,3.368-2.647c0.688-1.33,0.399-2.719-0.739-3.682
		c-0.957-0.81-2.208-1.178-3.44-0.936C9.431,5.579,8.104,7.413,7.496,9.218C5.969,13.75,6.862,19.183,9.245,23.24
		c3.138,5.341,9.075,7.814,15.05,8.268c6.139,0.467,12.247-0.719,18.043-2.688c2.255-0.766,4.467-1.654,6.652-2.6
		c-5.624,2.785-11.471,5.241-17.65,6.474c-6.029,1.201-12.662,1.369-18.341-1.3C7.997,29.043,4.469,24.59,2.776,19.381
		C2.561,18.697,3.69,22.191,2.776,19.381z"/>
	<path fill-rule="evenodd" clip-rule="evenodd" fill="#FF7F00" d="M70.293,26.003c-2.858,0.959-5.622,2.492-7.32,5.069
		c-0.975,1.479-1.438,3.203-1.293,4.972c0.071,0.86,0.28,1.698,0.544,2.519c0.149,0.462,0.607,1.322,0.281,1.797
		c-0.298,0.426-1.032,0.184-1.409,0.033c-0.623-0.252-1.172-0.689-1.635-1.17c-0.934-0.973-1.565-2.217-1.899-3.518
		c-0.754-2.938,0.038-6.033,1.771-8.476c3.317-4.673,9.046-6.174,14.521-6.059c4.449,0.094,9.353,1.399,11.892,5.375
		c2.263,3.543,1.377,7.876,0.515,11.711c0.504-3.915,0.925-8.734-2.521-11.508C80.056,23.781,74.448,24.604,70.293,26.003
		C69.083,26.408,71.538,25.583,70.293,26.003z"/>
	<path fill-rule="evenodd" clip-rule="evenodd" fill="#FF7F00" d="M74.978,29.417c-1.947,0.651-3.84,1.78-4.963,3.543
		c-0.562,0.882-0.834,1.956-0.846,2.996c-0.006,0.513,0.055,1.026,0.161,1.526c0.053,0.249,0.304,0.881,0.067,1.1
		c-0.372,0.344-1.162-0.568-1.335-0.801c-0.425-0.57-0.698-1.244-0.838-1.938c-0.272-1.357-0.061-2.813,0.555-4.05
		c1.3-2.662,4.167-4.271,7.013-4.7c2.793-0.423,5.818,0.111,8.053,1.917c2.229,1.803,3.509,4.979,2.619,7.785
		c-0.06,0.186-0.127,0.369-0.205,0.548c0.888-2.589-0.282-5.572-2.48-7.122C80.525,28.634,77.522,28.579,74.978,29.417
		C73.497,29.912,76.507,28.913,74.978,29.417z"/>
</g>
<g>
	<path fill-rule="evenodd" clip-rule="evenodd" fill="#FF7F00" d="M392.469,22c-5.123-3.001-10.381-5.906-16.477-5.969
		c-5.945-0.062-12.199,2.515-15.09,7.958c-2.664,5.018-2.379,11.92,1.949,15.941c-4.824-4.006-5.365-11.367-2.871-16.801
		c2.58-5.625,8.389-8.959,14.313-9.962c3.033-0.514,6.205-0.484,9.221,0.142c3.063,0.636,5.992,1.701,8.867,2.918
		c5.518,2.336,11.209,5.504,17.354,5.596c2.799,0.042,5.68-0.459,8.031-2.073c2.43-1.668,4.033-4.648,3.234-7.616
		c-0.648-2.111-3.586-4.112-5.729-2.769c-1.156,0.726-1.752,2.339-1.607,3.657c0.145,1.326,1.027,2.113,2.322,2.309
		c0.76,0.115,1.451-0.051,2.105-0.44c0.205-0.123,0.496-0.354,0.752-0.231c0.252,0.122,0.359,0.444,0.396,0.701
		c0.197,1.371-0.996,2.513-2.125,3.051c-2.682,1.281-5.846,0.263-7.582-2.049c-1.867-2.487-2.01-5.937-0.85-8.754
		c0.957-2.33,2.762-4.11,5.076-5.072c2.83-1.128,6.072-0.814,8.771,0.525c2.637,1.312,4.561,3.474,5.703,6.166
		c2.305,5.428-0.047,12.058-4.398,15.708c-4.299,3.608-10.07,4.64-15.51,3.807C402.549,27.796,397.453,24.917,392.469,22z"/>
	<path fill-rule="evenodd" clip-rule="evenodd" fill="#FF7F00" d="M407.92,37.278c-4.141-2.271-8.002-4.964-11.852-7.687
		c-3.713-2.626-7.502-5.239-11.738-6.955c-5.736-2.322-12.623-2.846-17.922,0.873c-2.396,1.675-4.156,4.085-4.818,6.949
		c-0.709,3.055-0.16,6.403,1.865,8.854c-1.596-1.782-2.402-4.11-2.469-6.484c-0.184-6.41,4.746-11.263,10.594-12.981
		c6.146-1.806,12.816-0.245,18.471,2.425c5.639,2.66,10.797,6.185,16.322,9.057c5.664,2.945,11.76,5.45,18.113,6.378
		c5.475,0.798,11.594,0.427,16.324-2.726c2.461-1.64,4.467-3.966,5.732-6.636c0.619-1.305,1.049-2.687,1.291-4.108
		c0.109-0.653,0.18-1.313,0.24-1.973c0.027-0.321-0.012-1.409,0.4-1.533c0.555-0.167,1.076,1.293,1.209,1.668
		c0.275,0.776,0.428,1.595,0.498,2.414c0.158,1.872-0.135,3.768-0.73,5.543c-1.193,3.57-3.625,6.772-6.709,8.924
		C432.289,46.574,418.205,42.92,407.92,37.278C404.824,35.58,410.926,38.926,407.92,37.278z"/>
	<path fill-rule="evenodd" clip-rule="evenodd" fill="#FF7F00" d="M447.447,20.381c-1.691,5.208-5.221,9.662-10.223,12.013
		c-5.678,2.669-12.311,2.501-18.34,1.3c-6.18-1.232-12.027-3.688-17.65-6.474c2.186,0.946,4.396,1.833,6.652,2.601
		c5.795,1.969,11.904,3.154,18.043,2.688c5.975-0.453,11.912-2.927,15.049-8.269c2.383-4.056,3.277-9.49,1.75-14.021
		c-0.609-1.805-1.936-3.639-3.916-4.027c-1.232-0.242-2.484,0.126-3.441,0.936c-1.139,0.963-1.428,2.352-0.738,3.682
		c0.674,1.304,1.965,2.261,3.367,2.647c0.672,0.185,1.342,0.239,2.033,0.264c0.32,0.013,1.266-0.115,1.107,0.471
		c-0.322,1.189-2.174,1.643-3.209,1.747c-1.465,0.147-2.955-0.232-4.227-0.958c-2.529-1.444-4.207-4.32-3.74-7.263
		c0.449-2.847,2.674-5.157,5.311-6.164c4.621-1.766,9.51,0.893,11.658,5.116C449.072,10.874,448.828,16.001,447.447,20.381
		C446.533,23.191,447.664,19.697,447.447,20.381z"/>
	<path fill-rule="evenodd" clip-rule="evenodd" fill="#FF7F00" d="M379.932,27.003c-4.156-1.398-9.764-2.221-13.447,0.746
		c-3.445,2.773-3.025,7.593-2.521,11.508c-0.861-3.835-1.748-8.168,0.516-11.711c2.539-3.976,7.441-5.28,11.891-5.375
		c5.477-0.116,11.205,1.386,14.521,6.06c1.734,2.441,2.525,5.536,1.771,8.475c-0.334,1.301-0.965,2.545-1.898,3.518
		c-0.463,0.48-1.012,0.918-1.635,1.17c-0.377,0.15-1.111,0.393-1.41-0.033c-0.326-0.475,0.133-1.335,0.281-1.797
		c0.264-0.82,0.473-1.658,0.545-2.519c0.145-1.769-0.318-3.493-1.293-4.972C385.553,29.495,382.789,27.962,379.932,27.003
		C378.686,26.583,381.141,27.408,379.932,27.003z"/>
	<path fill-rule="evenodd" clip-rule="evenodd" fill="#FF7F00" d="M375.246,30.417c-2.545-0.839-5.547-0.784-7.801,0.804
		c-2.197,1.55-3.367,4.533-2.48,7.122c-0.078-0.179-0.145-0.362-0.205-0.548c-0.889-2.807,0.391-5.982,2.619-7.785
		c2.234-1.805,5.26-2.34,8.053-1.918c2.846,0.432,5.713,2.039,7.014,4.701c0.615,1.236,0.826,2.692,0.555,4.05
		c-0.141,0.694-0.414,1.368-0.838,1.938c-0.174,0.232-0.963,1.145-1.336,0.801c-0.236-0.219,0.016-0.851,0.068-1.1
		c0.105-0.5,0.166-1.014,0.16-1.526c-0.012-1.04-0.283-2.114-0.846-2.996C379.086,32.197,377.193,31.068,375.246,30.417
		C373.717,29.913,376.727,30.912,375.246,30.417z"/>
</g>
</svg>
