<?xml version="1.0" encoding="utf-8"?>
<!-- Generator: Adobe Illustrator 12.0.0, SVG Export Plug-In . SVG Version: 6.00 Build 51448)  -->
<!DOCTYPE svg PUBLIC "-//W3C//DTD SVG 1.1//EN" "http://www.w3.org/Graphics/SVG/1.1/DTD/svg11.dtd" [
	<!ENTITY ns_svg "http://www.w3.org/2000/svg">
	<!ENTITY ns_xlink "http://www.w3.org/1999/xlink">
]>
<svg  version="1.1" id="Layer_1" xmlns="&ns_svg;" xmlns:xlink="&ns_xlink;" width="289.691" height="31.797"
	 viewBox="0 0 289.691 31.797" overflow="visible" enable-background="new 0 0 155.1 32.172" xml:space="preserve">
<g>
	<path fill="#3F3F3F" d="M21.77,11.508c0,2.133-0.33,4.079-0.989,5.833c-0.659,1.756-1.569,3.26-2.73,4.513
		s-2.543,2.224-4.147,2.912c-1.604,0.688-3.352,1.032-5.241,1.032H0L3.098,0.734h8.645c1.54,0,2.931,0.263,4.174,0.787
		c1.242,0.525,2.295,1.262,3.159,2.212s1.528,2.087,1.995,3.411S21.77,9.922,21.77,11.508z M18.41,11.57
		c0-1.258-0.161-2.395-0.481-3.408s-0.782-1.873-1.382-2.578c-0.601-0.705-1.333-1.247-2.196-1.625s-1.837-0.568-2.922-0.568H6.073
		l-2.45,19.75h5.355c1.4,0,2.677-0.266,3.833-0.795c1.155-0.531,2.147-1.294,2.975-2.29s1.473-2.208,1.934-3.636
		S18.41,13.376,18.41,11.57z"/>
	<path fill="#3F3F3F" d="M36.12,25.801h-1.61c-0.408,0-0.686-0.104-0.831-0.314c-0.146-0.21-0.219-0.467-0.219-0.77l0.315-3.555
		c-0.42,0.742-0.872,1.414-1.356,2.016c-0.484,0.604-0.998,1.116-1.54,1.539s-1.111,0.75-1.706,0.982
		c-0.595,0.23-1.213,0.348-1.855,0.348c-0.7,0-1.336-0.138-1.908-0.412c-0.572-0.273-1.059-0.676-1.461-1.207
		s-0.714-1.184-0.936-1.96s-0.333-1.665-0.333-2.669c0-1.051,0.131-2.074,0.394-3.072c0.263-0.997,0.636-1.939,1.12-2.826
		s1.064-1.7,1.741-2.441c0.677-0.741,1.432-1.382,2.266-1.925s1.729-0.962,2.687-1.26c0.957-0.297,1.96-0.446,3.01-0.446
		c0.758,0,1.496,0.063,2.213,0.187s1.426,0.34,2.126,0.647L36.12,25.801z M28.49,23.454c0.571,0,1.131-0.176,1.68-0.525
		c0.548-0.351,1.067-0.836,1.558-1.455c0.49-0.621,0.948-1.358,1.374-2.214s0.802-1.794,1.129-2.815l0.752-5.994
		c-0.257-0.206-0.511-0.309-0.762-0.309s-0.499,0-0.743,0c-0.7,0-1.377,0.114-2.03,0.34c-0.653,0.227-1.266,0.544-1.837,0.951
		c-0.572,0.407-1.091,0.893-1.558,1.457c-0.467,0.564-0.866,1.184-1.199,1.858c-0.333,0.676-0.592,1.394-0.779,2.155
		s-0.28,1.544-0.28,2.347C25.795,22.051,26.693,23.454,28.49,23.454z"/>
	<path fill="#3F3F3F" d="M40.057,25.797l2.135-17.75h1.558c0.326,0,0.583,0.076,0.77,0.229s0.28,0.387,0.28,0.704
		c0,0.047-0.003,0.114-0.009,0.202s-0.012,0.179-0.018,0.272S44.762,9.629,44.756,9.7s-0.009,0.111-0.009,0.123l-0.245,3.219
		c0.758-1.637,1.607-2.899,2.546-3.788c0.939-0.888,1.928-1.333,2.966-1.333c0.49,0,0.979,0.117,1.47,0.351l-0.56,2.967
		c-0.548-0.232-1.079-0.349-1.592-0.349c-1.132,0-2.141,0.552-3.028,1.655c-0.887,1.103-1.627,2.777-2.222,5.019l-0.98,8.232H40.057
		z"/>
	<path fill="#3F3F3F" d="M57.995,0L56.14,15.172h0.542c0.233,0,0.425-0.032,0.577-0.097c0.151-0.063,0.321-0.195,0.508-0.394
		l5.862-6.005c0.187-0.187,0.367-0.338,0.542-0.455c0.175-0.117,0.402-0.175,0.683-0.175h2.748l-6.843,6.96
		c-0.175,0.187-0.347,0.359-0.516,0.517c-0.169,0.158-0.353,0.296-0.551,0.412c0.187,0.141,0.344,0.303,0.472,0.489
		s0.257,0.39,0.385,0.611l5.32,8.729h-2.678c-0.257,0-0.464-0.047-0.621-0.141c-0.158-0.093-0.301-0.25-0.429-0.473l-4.515-7.262
		c-0.152-0.232-0.301-0.39-0.446-0.472c-0.146-0.081-0.382-0.122-0.709-0.122h-0.595l-1.033,8.469h-3.08L54.932,0H57.995z"/>
	<path fill="#3F3F3F" d="M83.894,23.016h9.922l-0.333,2.75H80.289l3.098-25.079h3.272L83.894,23.016z"/>
	<path fill="#3F3F3F" d="M108.743,25.801h-1.61c-0.408,0-0.686-0.104-0.831-0.314c-0.146-0.21-0.219-0.467-0.219-0.77l0.315-3.555
		c-0.42,0.742-0.872,1.414-1.356,2.016c-0.484,0.604-0.998,1.116-1.54,1.539s-1.111,0.75-1.706,0.982
		c-0.595,0.23-1.213,0.348-1.855,0.348c-0.7,0-1.336-0.138-1.908-0.412c-0.572-0.273-1.059-0.676-1.461-1.207
		s-0.714-1.184-0.936-1.96s-0.333-1.665-0.333-2.669c0-1.051,0.131-2.074,0.394-3.072c0.263-0.997,0.636-1.939,1.12-2.826
		s1.064-1.7,1.741-2.441c0.677-0.741,1.432-1.382,2.266-1.925s1.729-0.962,2.687-1.26c0.957-0.297,1.96-0.446,3.01-0.446
		c0.758,0,1.496,0.063,2.213,0.187s1.426,0.34,2.126,0.647L108.743,25.801z M101.113,23.454c0.571,0,1.131-0.176,1.68-0.525
		c0.548-0.351,1.067-0.836,1.558-1.455c0.49-0.621,0.948-1.358,1.374-2.214s0.802-1.794,1.129-2.815l0.752-5.994
		c-0.257-0.206-0.511-0.309-0.762-0.309s-0.499,0-0.743,0c-0.7,0-1.377,0.114-2.03,0.34c-0.653,0.227-1.266,0.544-1.837,0.951
		c-0.572,0.407-1.091,0.893-1.558,1.457c-0.467,0.564-0.866,1.184-1.199,1.858c-0.333,0.676-0.592,1.394-0.779,2.155
		s-0.28,1.544-0.28,2.347C98.418,22.051,99.316,23.454,101.113,23.454z"/>
	<path fill="#3F3F3F" d="M125.718,13.083c-0.012,0.582-0.084,1.103-0.219,1.568s-0.3,0.895-0.499,1.289s-0.414,0.766-0.647,1.114
		s-0.449,0.696-0.647,1.045s-0.365,0.706-0.499,1.071s-0.201,0.764-0.201,1.193c0,0.487,0.12,0.929,0.359,1.323
		c0.239,0.396,0.501,0.802,0.788,1.22c0.286,0.418,0.548,0.873,0.787,1.367c0.239,0.493,0.359,1.076,0.359,1.75
		c0,0.824-0.193,1.605-0.578,2.342c-0.385,0.738-0.933,1.391-1.645,1.96s-1.578,1.019-2.599,1.351
		c-1.021,0.33-2.167,0.496-3.438,0.496c-1.015,0-1.94-0.105-2.774-0.315s-1.546-0.507-2.135-0.892
		c-0.589-0.385-1.044-0.85-1.365-1.391c-0.32-0.543-0.481-1.141-0.481-1.793c0-0.922,0.239-1.715,0.717-2.38s1.108-1.212,1.89-1.644
		s1.671-0.747,2.669-0.945s2.016-0.297,3.054-0.297c0.42,0,0.837,0.018,1.251,0.055c0.414,0.035,0.825,0.084,1.234,0.145
		c-0.105-0.223-0.19-0.453-0.254-0.693c-0.064-0.239-0.096-0.5-0.096-0.78c0-0.362,0.055-0.737,0.166-1.122
		c0.111-0.387,0.294-0.818,0.551-1.299c-0.443,0.304-0.939,0.537-1.488,0.7s-1.172,0.245-1.872,0.245
		c-0.677,0-1.31-0.111-1.899-0.332c-0.589-0.222-1.105-0.548-1.549-0.979c-0.443-0.432-0.793-0.971-1.05-1.617
		s-0.385-1.401-0.385-2.264c0-0.839,0.154-1.663,0.463-2.473c0.309-0.81,0.761-1.532,1.356-2.167
		c0.595-0.635,1.33-1.145,2.205-1.529c0.875-0.384,1.884-0.577,3.027-0.577c1.283,0,2.397,0.302,3.343,0.904h4.813l-0.14,1.074
		c-0.023,0.207-0.091,0.395-0.202,0.564s-0.277,0.273-0.499,0.309l-2.205,0.4c0.105,0.302,0.187,0.618,0.245,0.949
		C125.688,12.36,125.718,12.712,125.718,13.083z M122.463,26.247c0-0.303-0.029-0.586-0.087-0.848
		c-0.059-0.262-0.134-0.51-0.228-0.742c-0.63-0.105-1.222-0.181-1.776-0.228c-0.554-0.046-1.076-0.069-1.566-0.069
		c-0.957,0-1.785,0.084-2.485,0.253s-1.277,0.394-1.732,0.673s-0.793,0.602-1.015,0.969s-0.332,0.748-0.332,1.145
		c0,0.838,0.353,1.479,1.059,1.922c0.706,0.441,1.706,0.664,3.001,0.664c0.77,0,1.473-0.103,2.109-0.307
		c0.636-0.203,1.178-0.475,1.627-0.812c0.449-0.339,0.799-0.734,1.05-1.188S122.463,26.747,122.463,26.247z M118.963,17.797
		c0.63,0,1.184-0.137,1.663-0.411c0.478-0.273,0.883-0.635,1.216-1.083c0.333-0.449,0.586-0.953,0.762-1.512
		c0.175-0.561,0.263-1.125,0.263-1.696c0-1.025-0.26-1.8-0.779-2.324c-0.52-0.524-1.234-0.787-2.144-0.787
		c-0.63,0-1.184,0.128-1.663,0.385s-0.881,0.6-1.208,1.031s-0.575,0.92-0.744,1.468c-0.169,0.548-0.253,1.119-0.253,1.712
		c0,1.049,0.253,1.848,0.761,2.395C117.344,17.524,118.053,17.797,118.963,17.797z"/>
	<path fill="#3F3F3F" d="M142.413,11.875c0,0.771-0.158,1.48-0.473,2.129s-0.893,1.232-1.732,1.752s-1.995,0.973-3.465,1.357
		c-1.47,0.387-3.36,0.695-5.67,0.93c-0.012,0.129-0.018,0.254-0.018,0.377c0,0.122,0,0.248,0,0.376c0,1.565,0.341,2.76,1.023,3.583
		c0.683,0.824,1.712,1.235,3.089,1.235c0.56,0,1.059-0.058,1.497-0.175s0.828-0.26,1.172-0.43c0.344-0.168,0.647-0.355,0.91-0.561
		c0.263-0.203,0.505-0.391,0.727-0.561c0.222-0.168,0.426-0.312,0.612-0.428c0.187-0.117,0.374-0.176,0.56-0.176
		c0.21,0,0.402,0.1,0.578,0.298l0.77,0.964c-0.595,0.615-1.176,1.141-1.741,1.576c-0.566,0.436-1.146,0.798-1.741,1.088
		c-0.595,0.29-1.216,0.502-1.864,0.635c-0.647,0.134-1.345,0.201-2.091,0.201c-1.015,0-1.925-0.17-2.73-0.508
		c-0.805-0.338-1.488-0.82-2.048-1.443c-0.56-0.625-0.992-1.381-1.295-2.268s-0.455-1.878-0.455-2.975
		c0-0.91,0.096-1.817,0.289-2.722s0.472-1.765,0.84-2.581c0.367-0.816,0.816-1.575,1.348-2.275c0.531-0.7,1.137-1.304,1.82-1.812
		c0.683-0.507,1.435-0.907,2.257-1.199c0.822-0.292,1.706-0.438,2.651-0.438c0.898,0,1.674,0.129,2.328,0.386s1.19,0.584,1.61,0.981
		c0.42,0.397,0.732,0.835,0.937,1.314C142.311,10.988,142.413,11.443,142.413,11.875z M137.058,10.078
		c-0.735,0-1.412,0.152-2.03,0.456s-1.167,0.722-1.645,1.253c-0.479,0.532-0.887,1.157-1.225,1.875s-0.601,1.492-0.787,2.322
		c1.796-0.222,3.237-0.477,4.322-0.762c1.085-0.287,1.919-0.597,2.503-0.93c0.583-0.333,0.968-0.691,1.155-1.078
		c0.187-0.386,0.28-0.789,0.28-1.209c0-0.21-0.047-0.43-0.14-0.658c-0.093-0.228-0.242-0.435-0.446-0.622
		c-0.204-0.187-0.47-0.341-0.796-0.464C137.921,10.14,137.525,10.078,137.058,10.078z"/>
	<path fill="#3F3F3F" d="M143.673,25.797l2.135-17.75h1.558c0.326,0,0.583,0.076,0.77,0.229s0.28,0.387,0.28,0.704
		c0,0.047-0.003,0.114-0.009,0.202s-0.012,0.179-0.018,0.272s-0.011,0.176-0.017,0.246s-0.009,0.111-0.009,0.123l-0.245,3.219
		c0.758-1.637,1.607-2.899,2.546-3.788c0.939-0.888,1.928-1.333,2.966-1.333c0.49,0,0.979,0.117,1.47,0.351l-0.56,2.967
		c-0.548-0.232-1.079-0.349-1.592-0.349c-1.132,0-2.141,0.552-3.028,1.655c-0.887,1.103-1.627,2.777-2.222,5.019l-0.98,8.232
		H143.673z"/>
</g>
</svg>
