<?xml version="1.0" encoding="utf-8"?>
<!-- Generator: Adobe Illustrator 12.0.0, SVG Export Plug-In . SVG Version: 6.00 Build 51448)  -->
<!DOCTYPE svg PUBLIC "-//W3C//DTD SVG 1.1//EN" "http://www.w3.org/Graphics/SVG/1.1/DTD/svg11.dtd" [
	<!ENTITY ns_svg "http://www.w3.org/2000/svg">
	<!ENTITY ns_xlink "http://www.w3.org/1999/xlink">
]>
<svg  version="1.1" id="Layer_1" xmlns="&ns_svg;" xmlns:xlink="&ns_xlink;" width="1424" 
height="115.188" viewBox="0 -30 1424 115.188" overflow="visible" enable-background="new 0 0 1421.513 85.188" xml:space="preserve">
<g>
	<path fill="#3F3F3F" d="M21.506,26.781H18.19L4.544,5.8H4.408c0.182,2.462,0.273,4.72,0.273,6.771v14.21H1.998v-25h3.281
		l13.612,20.896h0.137c-0.023-0.308-0.074-1.297-0.154-2.967c-0.08-1.67-0.108-2.864-0.085-3.583V1.781h2.717V26.781z"/>
	<path fill="#3F3F3F" d="M27.017,2.976c0-0.65,0.159-1.126,0.479-1.428c0.319-0.302,0.718-0.454,1.196-0.454
		c0.456,0,0.849,0.154,1.179,0.462c0.33,0.308,0.496,0.781,0.496,1.42c0,0.639-0.166,1.116-0.496,1.429
		c-0.331,0.313-0.724,0.47-1.179,0.47c-0.479,0-0.877-0.157-1.196-0.47C27.176,4.091,27.017,3.615,27.017,2.976z M30.093,26.781
		h-2.837V8.063h2.837V26.781z"/>
	<path fill="#3F3F3F" d="M38.246,26.781h-2.837V0.188h2.837V26.781z"/>
	<path fill="#3F3F3F" d="M59.717,17.405c0,3.052-0.769,5.436-2.306,7.149s-3.66,2.571-6.37,2.571c-1.674,0-3.16-0.393-4.458-1.179
		c-1.298-0.786-2.3-1.913-3.006-3.382c-0.706-1.469-1.059-3.188-1.059-5.159c0-3.052,0.763-5.429,2.288-7.132
		s3.643-2.554,6.353-2.554c2.619,0,4.699,0.872,6.242,2.614C58.946,12.075,59.717,14.433,59.717,17.405z M45.459,17.403
		c0,2.392,0.478,4.214,1.434,5.467s2.361,1.879,4.217,1.879c1.854,0,3.263-0.624,4.225-1.871s1.443-3.073,1.443-5.476
		c0-2.38-0.481-4.188-1.443-5.424s-2.381-1.854-4.259-1.854c-1.855,0-3.255,0.609-4.2,1.828
		C45.932,13.172,45.459,14.989,45.459,17.403z"/>
	<path fill="#3F3F3F" d="M91.092,20.135c0,2.199-0.798,3.914-2.394,5.145s-3.762,1.846-6.497,1.846
		c-2.964,0-5.244-0.379-6.839-1.138v-2.794c1.026,0.433,2.143,0.775,3.352,1.025c1.208,0.251,2.405,0.376,3.591,0.376
		c1.938,0,3.397-0.369,4.377-1.106c0.98-0.737,1.471-1.764,1.471-3.079c0-0.866-0.174-1.575-0.521-2.127s-0.929-1.063-1.744-1.53
		c-0.815-0.467-2.055-0.997-3.72-1.59c-2.326-0.832-3.987-1.817-4.985-2.957c-0.998-1.139-1.496-2.626-1.496-4.46
		c0-1.926,0.724-3.458,2.171-4.598c1.448-1.139,3.363-1.709,5.746-1.709c2.485,0,4.771,0.455,6.856,1.365L89.553,5.33
		c-2.063-0.866-4.07-1.299-6.02-1.299c-1.539,0-2.742,0.331-3.608,0.993c-0.867,0.662-1.3,1.58-1.3,2.754
		c0,0.866,0.159,1.575,0.479,2.128s0.858,1.06,1.616,1.521c0.758,0.461,1.918,0.971,3.48,1.53c2.622,0.935,4.426,1.937,5.412,3.008
		C90.599,17.036,91.092,18.426,91.092,20.135z"/>
	<path fill="#3F3F3F" d="M101.107,24.781c0.5,0,0.984-0.037,1.45-0.111s0.836-0.151,1.109-0.231v2.172
		c-0.308,0.148-0.76,0.271-1.357,0.368c-0.598,0.097-1.135,0.146-1.613,0.146c-3.62,0-5.429-1.905-5.429-5.717V10.281h-2.68V8.911
		l2.682-1.183l1.196-4.009h1.64v4.344h5.427v2.219h-5.427v11.003c0,1.126,0.267,1.991,0.802,2.593S100.174,24.781,101.107,24.781z"
		/>
	<path fill="#3F3F3F" d="M122.875,17.405c0,3.052-0.769,5.436-2.306,7.149s-3.66,2.571-6.37,2.571c-1.674,0-3.16-0.393-4.458-1.179
		c-1.298-0.786-2.3-1.913-3.006-3.382c-0.706-1.469-1.059-3.188-1.059-5.159c0-3.052,0.763-5.429,2.288-7.132
		s3.643-2.554,6.353-2.554c2.619,0,4.699,0.872,6.242,2.614C122.103,12.075,122.875,14.433,122.875,17.405z M108.617,17.403
		c0,2.392,0.478,4.214,1.434,5.467s2.361,1.879,4.217,1.879c1.854,0,3.263-0.624,4.225-1.871s1.443-3.073,1.443-5.476
		c0-2.38-0.481-4.188-1.443-5.424s-2.381-1.854-4.259-1.854c-1.855,0-3.255,0.609-4.2,1.828
		C109.089,13.172,108.617,14.989,108.617,17.403z"/>
	<path fill="#3F3F3F" d="M129.996,26.781h-2.837V0.188h2.837V26.781z"/>
	<path fill="#3F3F3F" d="M141.356,24.781c0.5,0,0.984-0.037,1.45-0.111s0.836-0.151,1.109-0.231v2.172
		c-0.308,0.148-0.76,0.271-1.357,0.368c-0.598,0.097-1.135,0.146-1.613,0.146c-3.62,0-5.429-1.905-5.429-5.717V10.281h-2.68V8.911
		l2.682-1.183l1.196-4.009h1.64v4.344h5.427v2.219h-5.427v11.003c0,1.126,0.267,1.991,0.802,2.593S140.423,24.781,141.356,24.781z"
		/>
	<path fill="#3F3F3F" d="M154.876,27.125c-2.767,0-4.951-0.843-6.55-2.528s-2.399-4.026-2.399-7.021
		c0-3.018,0.743-5.415,2.229-7.192c1.486-1.776,3.481-2.665,5.986-2.665c2.346,0,4.202,0.772,5.568,2.315
		c1.366,1.544,2.05,3.58,2.05,6.109v1.794h-12.894c0.057,2.2,0.612,3.87,1.665,5.009c1.053,1.14,2.536,1.709,4.449,1.709
		c2.015,0,4.007-0.421,5.977-1.265v2.524c-1.002,0.432-1.95,0.741-2.844,0.928C157.219,27.031,156.14,27.125,154.876,27.125z
		 M154.108,10.094c-1.503,0-2.701,0.49-3.594,1.468c-0.894,0.979-1.42,2.333-1.579,4.063h9.783c0-1.787-0.398-3.155-1.195-4.105
		S155.587,10.094,154.108,10.094z"/>
	<path fill="#3F3F3F" d="M165.496,24.977c0-0.762,0.173-1.339,0.521-1.732s0.846-0.589,1.496-0.589c0.661,0,1.176,0.196,1.546,0.589
		s0.556,0.97,0.556,1.732c0,0.74-0.188,1.309-0.564,1.707c-0.376,0.398-0.889,0.597-1.538,0.597c-0.581,0-1.063-0.179-1.444-0.538
		S165.496,25.796,165.496,24.977z"/>
	<path fill="#3F3F3F" d="M202.505,26.781l-1.812-5.938h-9.109l-1.812,5.938h-5.708l8.818-25h6.477l8.853,25H202.505z M199.429,16.4
		l-1.812-5.776c-0.114-0.385-0.265-0.88-0.453-1.486s-0.376-1.223-0.564-1.852c-0.188-0.628-0.339-1.175-0.453-1.639
		c-0.114,0.464-0.271,1.039-0.47,1.724c-0.199,0.686-0.39,1.334-0.572,1.945c-0.183,0.612-0.313,1.048-0.393,1.308l-1.794,5.776
		H199.429z"/>
	<path fill="#3F3F3F" d="M220.911,7.531c0.262,0,0.566,0.015,0.914,0.043s0.629,0.065,0.846,0.111l-0.393,4.888
		c-0.171-0.057-0.413-0.1-0.727-0.128s-0.584-0.043-0.812-0.043c-0.672,0-1.325,0.084-1.957,0.253s-1.199,0.44-1.7,0.816
		c-0.501,0.376-0.897,0.87-1.188,1.482s-0.436,1.361-0.436,2.248v9.581h-5.212V7.875h3.948l0.769,3.228h0.256
		c0.376-0.649,0.846-1.245,1.41-1.786s1.208-0.974,1.931-1.299S220.068,7.531,220.911,7.531z"/>
	<path fill="#3F3F3F" d="M230.653,0.188v6.321c0,0.733-0.02,1.461-0.06,2.183s-0.088,1.281-0.145,1.676h0.205
		c0.501-0.786,1.185-1.455,2.051-2.008c0.866-0.553,1.988-0.829,3.367-0.829c2.142,0,3.879,0.829,5.212,2.485s2,4.085,2,7.286
		c0,2.153-0.308,3.959-0.923,5.418s-1.476,2.558-2.581,3.296c-1.105,0.738-2.387,1.107-3.845,1.107
		c-1.401,0-2.507-0.251-3.315-0.752c-0.809-0.501-1.464-1.065-1.965-1.692h-0.359l-0.872,2.1h-3.982V0.188H230.653z M234.396,11.701
		c-0.912,0-1.635,0.185-2.17,0.554c-0.536,0.369-0.926,0.922-1.171,1.66s-0.379,1.671-0.401,2.8v0.554
		c0,1.822,0.273,3.217,0.82,4.184c0.547,0.967,1.543,1.451,2.991,1.451c1.071,0,1.922-0.486,2.555-1.459s0.949-2.375,0.949-4.209
		c0-1.833-0.319-3.214-0.957-4.142C236.373,12.166,235.501,11.701,234.396,11.701z"/>
	<path fill="#3F3F3F" d="M249.504,0.39c0.774,0,1.441,0.18,2,0.539c0.558,0.359,0.837,1.028,0.837,2.008
		c0,0.969-0.279,1.638-0.837,2.008c-0.559,0.37-1.225,0.555-2,0.555c-0.786,0-1.456-0.185-2.008-0.555s-0.829-1.04-0.829-2.008
		c0-0.979,0.276-1.649,0.829-2.008S248.718,0.39,249.504,0.39z M252.102,7.875v18.906h-5.212V7.875H252.102z"/>
	<path fill="#3F3F3F" d="M264.92,22.972c0.569,0,1.125-0.057,1.666-0.171c0.541-0.114,1.08-0.256,1.615-0.427v3.879
		c-0.559,0.251-1.25,0.459-2.077,0.624c-0.826,0.165-1.729,0.248-2.708,0.248c-1.14,0-2.162-0.183-3.068-0.548
		s-1.618-1.001-2.136-1.906s-0.777-2.168-0.777-3.788v-9.094h-2.495V9.584l2.871-1.743l1.504-4.028h3.333v4.063h5.349v3.914h-5.349
		v9.051c0,0.717,0.208,1.251,0.624,1.604S264.236,22.972,264.92,22.972z"/>
	<path fill="#3F3F3F" d="M282.027,7.531c0.262,0,0.566,0.015,0.914,0.043s0.629,0.065,0.846,0.111l-0.393,4.888
		c-0.171-0.057-0.413-0.1-0.727-0.128s-0.584-0.043-0.812-0.043c-0.672,0-1.325,0.084-1.957,0.253s-1.199,0.44-1.7,0.816
		c-0.501,0.376-0.897,0.87-1.188,1.482s-0.436,1.361-0.436,2.248v9.581h-5.212V7.875h3.948l0.769,3.228h0.256
		c0.376-0.649,0.846-1.245,1.41-1.786s1.208-0.974,1.931-1.299S281.184,7.531,282.027,7.531z"/>
	<path fill="#3F3F3F" d="M294.384,7.531c2.563,0,4.529,0.551,5.896,1.653c1.367,1.103,2.051,2.778,2.051,5.028v12.569h-3.64
		l-1.008-2.596h-0.137c-0.547,0.684-1.105,1.242-1.675,1.675c-0.57,0.433-1.225,0.752-1.965,0.957
		c-0.741,0.205-1.641,0.308-2.7,0.308c-1.128,0-2.139-0.214-3.034-0.642c-0.895-0.428-1.598-1.084-2.11-1.968
		s-0.769-2.007-0.769-3.37c0-2.004,0.712-3.482,2.136-4.434c1.424-0.951,3.56-1.478,6.409-1.579l3.315-0.102v-0.814
		c0-0.975-0.262-1.688-0.786-2.143c-0.524-0.454-1.253-0.681-2.188-0.681c-0.923,0-1.829,0.131-2.717,0.393
		c-0.889,0.262-1.777,0.593-2.666,0.991l-1.726-3.521c1.014-0.535,2.15-0.957,3.409-1.265S293.039,7.531,294.384,7.531z
		 M297.152,18.073l-2.017,0.066c-1.687,0.045-2.857,0.339-3.512,0.882s-0.982,1.259-0.982,2.146c0,0.776,0.233,1.328,0.701,1.655
		c0.467,0.327,1.077,0.491,1.829,0.491c1.116,0,2.059-0.321,2.828-0.965c0.769-0.643,1.154-1.558,1.154-2.745V18.073z"/>
	<path fill="#3F3F3F" d="M317.661,7.531c0.262,0,0.566,0.015,0.914,0.043s0.629,0.065,0.846,0.111l-0.393,4.888
		c-0.171-0.057-0.413-0.1-0.727-0.128s-0.584-0.043-0.812-0.043c-0.672,0-1.325,0.084-1.957,0.253s-1.199,0.44-1.7,0.816
		c-0.501,0.376-0.897,0.87-1.188,1.482s-0.436,1.361-0.436,2.248v9.581h-5.212V7.875h3.948l0.769,3.228h0.256
		c0.376-0.649,0.846-1.245,1.41-1.786s1.208-0.974,1.931-1.299S316.818,7.531,317.661,7.531z"/>
	<path fill="#3F3F3F" d="M319.456,7.875h5.708l3.606,10.67c0.114,0.339,0.21,0.684,0.291,1.035c0.08,0.351,0.148,0.713,0.205,1.086
		c0.057,0.373,0.103,0.763,0.137,1.17h0.103c0.068-0.61,0.162-1.182,0.282-1.713c0.12-0.531,0.271-1.057,0.453-1.578l3.538-10.67
		h5.588l-8.083,21.392c-0.49,1.312-1.128,2.406-1.914,3.283c-0.786,0.876-1.689,1.535-2.709,1.976
		c-1.02,0.441-2.139,0.662-3.358,0.662c-0.593,0-1.105-0.032-1.538-0.094c-0.433-0.063-0.803-0.128-1.111-0.197v-4.136
		c0.239,0.057,0.541,0.108,0.906,0.154c0.364,0.045,0.746,0.068,1.145,0.068c0.729,0,1.355-0.151,1.88-0.454
		c0.524-0.303,0.962-0.709,1.316-1.219c0.353-0.51,0.632-1.068,0.837-1.673l0.308-0.933L319.456,7.875z"/>
	<path fill="#3F3F3F" d="M369.111,7.371c0,1.154-0.239,2.154-0.718,3s-1.125,1.537-1.94,2.074s-1.729,0.932-2.743,1.183v0.103
		c2.005,0.251,3.529,0.868,4.571,1.85c1.042,0.982,1.564,2.295,1.564,3.939c0,1.461-0.356,2.769-1.068,3.922
		s-1.809,2.061-3.29,2.723c-1.481,0.662-3.39,0.993-5.725,0.993c-1.379,0-2.664-0.111-3.854-0.333
		c-1.19-0.222-2.31-0.561-3.358-1.017v-4.495c1.071,0.547,2.193,0.96,3.367,1.239c1.173,0.279,2.267,0.418,3.281,0.418
		c1.891,0,3.215-0.329,3.973-0.986s1.137-1.582,1.137-2.771c0-0.697-0.177-1.287-0.53-1.767c-0.354-0.48-0.966-0.846-1.837-1.098
		c-0.872-0.251-2.088-0.377-3.648-0.377h-1.897v-4.05h1.931c1.538,0,2.708-0.146,3.512-0.438s1.35-0.693,1.641-1.204
		c0.291-0.51,0.436-1.091,0.436-1.745c0-0.894-0.273-1.593-0.82-2.097c-0.547-0.504-1.458-0.756-2.734-0.756
		c-0.798,0-1.524,0.1-2.179,0.299s-1.245,0.438-1.769,0.718c-0.524,0.279-0.986,0.55-1.384,0.812l-2.444-3.64
		c0.979-0.706,2.127-1.293,3.443-1.76c1.316-0.467,2.885-0.701,4.708-0.701c2.575,0,4.614,0.52,6.118,1.56
		S369.111,5.475,369.111,7.371z"/>
	<path fill="#3F3F3F" d="M394.405,14.042c0,2.816-0.539,5.167-1.615,7.054s-2.635,3.306-4.674,4.258
		c-2.04,0.952-4.495,1.428-7.366,1.428h-7.075v-25h7.844c2.62,0,4.893,0.465,6.819,1.394c1.925,0.929,3.418,2.303,4.478,4.121
		S394.405,11.363,394.405,14.042z M388.902,14.179c0-1.847-0.271-3.367-0.812-4.559c-0.541-1.191-1.339-2.072-2.393-2.643
		s-2.355-0.855-3.905-0.855h-2.82v16.284h2.273c2.586,0,4.509-0.69,5.768-2.07S388.902,16.904,388.902,14.179z"/>
	<path fill="#3F3F3F" d="M418.716,1.781c2.267,0,4.138,0.274,5.614,0.821c1.476,0.547,2.572,1.374,3.29,2.479
		c0.718,1.106,1.077,2.502,1.077,4.189c0,1.14-0.217,2.138-0.649,2.993c-0.433,0.855-1.003,1.579-1.709,2.171
		c-0.707,0.593-1.47,1.078-2.29,1.454l7.349,10.893h-5.879l-5.964-9.594h-2.82v9.594h-5.298v-25H418.716z M418.34,6.122h-1.606
		v6.759h1.709c1.754,0,3.01-0.293,3.768-0.881s1.137-1.452,1.137-2.593c0-1.186-0.408-2.03-1.222-2.532S420.049,6.122,418.34,6.122z
		"/>
	<path fill="#3F3F3F" d="M441.309,7.531c1.766,0,3.287,0.335,4.563,1.006c1.276,0.671,2.261,1.643,2.957,2.917
		c0.695,1.274,1.042,2.83,1.042,4.667v2.503h-12.322c0.057,1.44,0.498,2.57,1.324,3.39s1.974,1.23,3.444,1.23
		c1.219,0,2.335-0.125,3.35-0.376c1.014-0.25,2.056-0.626,3.127-1.128v4.033c-0.946,0.467-1.934,0.809-2.965,1.025
		s-2.281,0.325-3.751,0.325c-1.914,0-3.609-0.349-5.084-1.048s-2.632-1.764-3.469-3.195c-0.837-1.431-1.256-3.234-1.256-5.41
		c0-2.209,0.378-4.049,1.136-5.52s1.814-2.575,3.17-3.313C437.931,7.9,439.509,7.531,441.309,7.531z M441.343,11.24
		c-1.014,0-1.854,0.315-2.521,0.946c-0.667,0.631-1.051,1.621-1.153,2.97h7.314c-0.012-0.752-0.151-1.421-0.419-2.008
		c-0.268-0.586-0.667-1.051-1.196-1.394S442.164,11.24,441.343,11.24z"/>
	<path fill="#3F3F3F" d="M466.739,21.174c0,1.285-0.305,2.37-0.915,3.254s-1.518,1.556-2.726,2.012
		c-1.208,0.456-2.712,0.685-4.512,0.685c-1.333,0-2.476-0.085-3.427-0.256s-1.911-0.456-2.879-0.854v-4.307
		c1.037,0.467,2.15,0.852,3.341,1.154s2.236,0.453,3.136,0.453c1.014,0,1.74-0.146,2.179-0.437s0.658-0.673,0.658-1.146
		c0-0.315-0.088-0.6-0.265-0.854c-0.177-0.253-0.555-0.541-1.136-0.862s-1.493-0.741-2.734-1.259
		c-1.196-0.496-2.179-0.998-2.948-1.505c-0.769-0.507-1.339-1.107-1.709-1.8s-0.555-1.575-0.555-2.646
		c0-1.747,0.686-3.063,2.059-3.947s3.21-1.327,5.512-1.327c1.185,0,2.315,0.12,3.392,0.359s2.185,0.621,3.324,1.145l-1.572,3.76
		c-0.946-0.41-1.837-0.746-2.675-1.008c-0.837-0.262-1.689-0.393-2.555-0.393c-0.764,0-1.339,0.101-1.726,0.301
		c-0.388,0.201-0.581,0.507-0.581,0.92c0,0.301,0.1,0.569,0.299,0.803s0.587,0.494,1.162,0.778s1.421,0.649,2.538,1.095
		c1.082,0.439,2.022,0.899,2.82,1.378c0.797,0.479,1.413,1.071,1.846,1.775C466.522,19.148,466.739,20.059,466.739,21.174z"/>
	<path fill="#3F3F3F" d="M487.47,17.303c0,1.578-0.214,2.976-0.641,4.193s-1.048,2.246-1.863,3.085s-1.794,1.474-2.939,1.902
		c-1.145,0.428-2.435,0.642-3.871,0.642c-1.345,0-2.578-0.214-3.7-0.642c-1.122-0.428-2.096-1.062-2.922-1.902
		s-1.464-1.868-1.914-3.085s-0.675-2.615-0.675-4.193c0-2.096,0.376-3.871,1.128-5.325s1.823-2.559,3.213-3.313
		c1.39-0.755,3.047-1.133,4.973-1.133c1.789,0,3.375,0.378,4.759,1.133s2.472,1.859,3.264,3.313S487.47,15.207,487.47,17.303z
		 M474.26,17.303c0,1.23,0.137,2.264,0.41,3.103c0.273,0.839,0.701,1.47,1.282,1.895s1.338,0.637,2.273,0.637
		c0.923,0,1.672-0.212,2.247-0.637s0.997-1.056,1.265-1.895c0.268-0.838,0.402-1.873,0.402-3.103c0-1.241-0.134-2.272-0.402-3.094
		c-0.268-0.821-0.692-1.439-1.273-1.853c-0.581-0.414-1.339-0.621-2.273-0.621c-1.379,0-2.378,0.464-3,1.392
		S474.26,15.447,474.26,17.303z"/>
	<path fill="#3F3F3F" d="M496.289,26.781h-5.212V0.188h5.212V26.781z"/>
	<path fill="#3F3F3F" d="M518.592,7.875v18.906h-3.999l-0.701-2.442h-0.273c-0.41,0.649-0.923,1.179-1.538,1.589
		s-1.293,0.712-2.034,0.906c-0.741,0.193-1.51,0.291-2.307,0.291c-1.367,0-2.558-0.24-3.572-0.719
		c-1.014-0.479-1.803-1.227-2.367-2.241s-0.846-2.334-0.846-3.958V7.875h5.212V18.89c0,1.35,0.245,2.367,0.735,3.053
		c0.49,0.686,1.27,1.029,2.341,1.029c1.06,0,1.891-0.239,2.495-0.717c0.604-0.478,1.028-1.181,1.273-2.108s0.368-2.061,0.368-3.399
		V7.875H518.592z"/>
	<path fill="#3F3F3F" d="M531.41,22.972c0.569,0,1.125-0.057,1.666-0.171c0.541-0.114,1.08-0.256,1.615-0.427v3.879
		c-0.559,0.251-1.25,0.459-2.077,0.624c-0.826,0.165-1.729,0.248-2.708,0.248c-1.14,0-2.162-0.183-3.068-0.548
		s-1.618-1.001-2.136-1.906s-0.777-2.168-0.777-3.788v-9.094h-2.495V9.584l2.871-1.743l1.504-4.028h3.333v4.063h5.349v3.914h-5.349
		v9.051c0,0.717,0.208,1.251,0.624,1.604S530.727,22.972,531.41,22.972z"/>
	<path fill="#3F3F3F" d="M540.468,0.39c0.774,0,1.441,0.18,2,0.539c0.558,0.359,0.837,1.028,0.837,2.008
		c0,0.969-0.279,1.638-0.837,2.008c-0.559,0.37-1.225,0.555-2,0.555c-0.786,0-1.456-0.185-2.008-0.555s-0.829-1.04-0.829-2.008
		c0-0.979,0.276-1.649,0.829-2.008S539.682,0.39,540.468,0.39z M543.066,7.875v18.906h-5.212V7.875H543.066z"/>
	<path fill="#3F3F3F" d="M565.198,17.303c0,1.578-0.214,2.976-0.641,4.193s-1.048,2.246-1.863,3.085s-1.794,1.474-2.939,1.902
		c-1.145,0.428-2.435,0.642-3.871,0.642c-1.345,0-2.578-0.214-3.7-0.642c-1.122-0.428-2.096-1.062-2.922-1.902
		s-1.464-1.868-1.914-3.085s-0.675-2.615-0.675-4.193c0-2.096,0.376-3.871,1.128-5.325s1.823-2.559,3.213-3.313
		c1.39-0.755,3.047-1.133,4.973-1.133c1.789,0,3.375,0.378,4.759,1.133s2.472,1.859,3.264,3.313S565.198,15.207,565.198,17.303z
		 M551.988,17.303c0,1.23,0.137,2.264,0.41,3.103c0.273,0.839,0.701,1.47,1.282,1.895s1.338,0.637,2.273,0.637
		c0.923,0,1.672-0.212,2.247-0.637s0.997-1.056,1.265-1.895c0.268-0.838,0.402-1.873,0.402-3.103c0-1.241-0.134-2.272-0.402-3.094
		c-0.268-0.821-0.692-1.439-1.273-1.853c-0.581-0.414-1.339-0.621-2.273-0.621c-1.379,0-2.378,0.464-3,1.392
		S551.988,15.447,551.988,17.303z"/>
	<path fill="#3F3F3F" d="M579.657,7.531c2.039,0,3.68,0.549,4.922,1.648c1.242,1.099,1.863,2.859,1.863,5.281v12.321h-5.212V15.779
		c0-1.348-0.248-2.364-0.744-3.05c-0.496-0.685-1.273-1.028-2.333-1.028c-1.595,0-2.683,0.534-3.264,1.601
		c-0.581,1.067-0.872,2.606-0.872,4.617v8.863h-5.212V7.875h3.982l0.701,2.459h0.291c0.41-0.661,0.92-1.196,1.529-1.606
		s1.288-0.712,2.034-0.906C578.087,7.628,578.859,7.531,579.657,7.531z"/>
	<path fill="#3F3F3F" d="M624.8,14.042c0,2.816-0.539,5.167-1.615,7.054s-2.635,3.306-4.674,4.258
		c-2.04,0.952-4.495,1.428-7.366,1.428h-7.075v-25h7.844c2.62,0,4.893,0.465,6.819,1.394c1.925,0.929,3.418,2.303,4.478,4.121
		S624.8,11.363,624.8,14.042z M619.297,14.179c0-1.847-0.271-3.367-0.812-4.559c-0.541-1.191-1.339-2.072-2.393-2.643
		s-2.355-0.855-3.905-0.855h-2.82v16.284h2.273c2.586,0,4.509-0.69,5.768-2.07S619.297,16.904,619.297,14.179z"/>
	<path fill="#3F3F3F" d="M631.483,0.39c0.774,0,1.441,0.18,2,0.539c0.558,0.359,0.837,1.028,0.837,2.008
		c0,0.969-0.279,1.638-0.837,2.008c-0.559,0.37-1.225,0.555-2,0.555c-0.786,0-1.456-0.185-2.008-0.555s-0.829-1.04-0.829-2.008
		c0-0.979,0.276-1.649,0.829-2.008S630.697,0.39,631.483,0.39z M634.081,7.875v18.906h-5.212V7.875H634.081z"/>
	<path fill="#3F3F3F" d="M652.179,21.174c0,1.285-0.305,2.37-0.915,3.254s-1.518,1.556-2.726,2.012
		c-1.208,0.456-2.712,0.685-4.512,0.685c-1.333,0-2.476-0.085-3.427-0.256s-1.911-0.456-2.879-0.854v-4.307
		c1.037,0.467,2.15,0.852,3.341,1.154s2.236,0.453,3.136,0.453c1.014,0,1.74-0.146,2.179-0.437s0.658-0.673,0.658-1.146
		c0-0.315-0.088-0.6-0.265-0.854c-0.177-0.253-0.555-0.541-1.136-0.862s-1.493-0.741-2.734-1.259
		c-1.196-0.496-2.179-0.998-2.948-1.505c-0.769-0.507-1.339-1.107-1.709-1.8s-0.555-1.575-0.555-2.646
		c0-1.747,0.686-3.063,2.059-3.947s3.21-1.327,5.512-1.327c1.185,0,2.315,0.12,3.392,0.359s2.185,0.621,3.324,1.145l-1.572,3.76
		c-0.946-0.41-1.837-0.746-2.675-1.008c-0.837-0.262-1.689-0.393-2.555-0.393c-0.764,0-1.339,0.101-1.726,0.301
		c-0.388,0.201-0.581,0.507-0.581,0.92c0,0.301,0.1,0.569,0.299,0.803s0.587,0.494,1.162,0.778s1.421,0.649,2.538,1.095
		c1.082,0.439,2.022,0.899,2.82,1.378c0.797,0.479,1.413,1.071,1.846,1.775C651.962,19.148,652.179,20.059,652.179,21.174z"/>
	<path fill="#3F3F3F" d="M663.306,27.125c-1.892,0-3.503-0.341-4.836-1.022c-1.333-0.682-2.347-1.738-3.042-3.17
		c-0.695-1.432-1.042-3.263-1.042-5.495c0-2.311,0.396-4.195,1.188-5.655s1.891-2.533,3.298-3.221s3.039-1.031,4.896-1.031
		c1.321,0,2.463,0.128,3.426,0.385s1.803,0.561,2.521,0.914l-1.538,4.033c-0.82-0.33-1.584-0.601-2.29-0.812
		c-0.707-0.211-1.413-0.316-2.119-0.316c-0.912,0-1.669,0.21-2.273,0.629c-0.604,0.419-1.054,1.048-1.35,1.887
		c-0.296,0.838-0.444,1.889-0.444,3.152c0,1.241,0.159,2.27,0.479,3.086c0.319,0.816,0.78,1.423,1.384,1.819
		c0.604,0.397,1.338,0.595,2.205,0.595c1.082,0,2.045-0.145,2.888-0.436c0.843-0.291,1.663-0.698,2.461-1.222v4.46
		c-0.798,0.501-1.632,0.863-2.504,1.085C665.741,27.014,664.639,27.125,663.306,27.125z"/>
	<path fill="#3F3F3F" d="M683.506,7.531c0.262,0,0.566,0.015,0.914,0.043s0.629,0.065,0.846,0.111l-0.393,4.888
		c-0.171-0.057-0.413-0.1-0.727-0.128s-0.584-0.043-0.812-0.043c-0.672,0-1.325,0.084-1.957,0.253s-1.199,0.44-1.7,0.816
		c-0.501,0.376-0.897,0.87-1.188,1.482s-0.436,1.361-0.436,2.248v9.581h-5.212V7.875h3.948l0.769,3.228h0.256
		c0.376-0.649,0.846-1.245,1.41-1.786s1.208-0.974,1.931-1.299S682.663,7.531,683.506,7.531z"/>
	<path fill="#3F3F3F" d="M695.915,7.531c1.766,0,3.287,0.335,4.563,1.006c1.276,0.671,2.261,1.643,2.957,2.917
		c0.695,1.274,1.042,2.83,1.042,4.667v2.503h-12.322c0.057,1.44,0.498,2.57,1.324,3.39s1.974,1.23,3.444,1.23
		c1.219,0,2.335-0.125,3.35-0.376c1.014-0.25,2.056-0.626,3.127-1.128v4.033c-0.946,0.467-1.934,0.809-2.965,1.025
		s-2.281,0.325-3.751,0.325c-1.914,0-3.609-0.349-5.084-1.048s-2.632-1.764-3.469-3.195c-0.837-1.431-1.256-3.234-1.256-5.41
		c0-2.209,0.378-4.049,1.136-5.52s1.814-2.575,3.17-3.313C692.536,7.9,694.114,7.531,695.915,7.531z M695.949,11.24
		c-1.014,0-1.854,0.315-2.521,0.946c-0.667,0.631-1.051,1.621-1.153,2.97h7.314c-0.012-0.752-0.151-1.421-0.419-2.008
		c-0.268-0.586-0.667-1.051-1.196-1.394S696.769,11.24,695.949,11.24z"/>
	<path fill="#3F3F3F" d="M716.064,22.972c0.568,0,1.125-0.057,1.666-0.171c0.541-0.114,1.079-0.256,1.615-0.427v3.879
		c-0.559,0.251-1.251,0.459-2.077,0.624c-0.826,0.165-1.729,0.248-2.708,0.248c-1.141,0-2.163-0.183-3.069-0.548
		c-0.906-0.365-1.618-1.001-2.136-1.906s-0.777-2.168-0.777-3.788v-9.094h-2.495V9.584l2.871-1.743l1.504-4.028h3.333v4.063h5.35
		v3.914h-5.35v9.051c0,0.717,0.207,1.251,0.623,1.604S715.381,22.972,716.064,22.972z"/>
	<path fill="#3F3F3F" d="M730.387,7.531c1.766,0,3.286,0.335,4.563,1.006c1.275,0.671,2.262,1.643,2.957,2.917
		c0.694,1.274,1.042,2.83,1.042,4.667v2.503h-12.321c0.057,1.44,0.498,2.57,1.324,3.39s1.974,1.23,3.443,1.23
		c1.219,0,2.336-0.125,3.35-0.376c1.014-0.25,2.057-0.626,3.127-1.128v4.033c-0.945,0.467-1.934,0.809-2.965,1.025
		s-2.281,0.325-3.751,0.325c-1.914,0-3.608-0.349-5.085-1.048c-1.475-0.699-2.631-1.764-3.469-3.195
		c-0.838-1.431-1.256-3.234-1.256-5.41c0-2.209,0.379-4.049,1.137-5.52s1.814-2.575,3.17-3.313S728.586,7.531,730.387,7.531z
		 M730.42,11.24c-1.014,0-1.854,0.315-2.521,0.946c-0.667,0.631-1.051,1.621-1.153,2.97h7.314c-0.012-0.752-0.151-1.421-0.419-2.008
		c-0.268-0.586-0.667-1.051-1.196-1.394S731.24,11.24,730.42,11.24z"/>
	<path fill="#3F3F3F" d="M762.729,1.781c2.267,0,4.138,0.274,5.614,0.821c1.475,0.547,2.572,1.374,3.289,2.479
		c0.719,1.106,1.077,2.502,1.077,4.189c0,1.14-0.217,2.138-0.649,2.993c-0.434,0.855-1.003,1.579-1.709,2.171
		c-0.707,0.593-1.47,1.078-2.29,1.454l7.349,10.893h-5.879l-5.965-9.594h-2.819v9.594h-5.298v-25H762.729z M762.354,6.122h-1.606
		v6.759h1.709c1.755,0,3.011-0.293,3.769-0.881s1.137-1.452,1.137-2.593c0-1.186-0.408-2.03-1.223-2.532
		S764.063,6.122,762.354,6.122z"/>
	<path fill="#3F3F3F" d="M785.271,7.531c2.563,0,4.529,0.551,5.896,1.653c1.367,1.103,2.051,2.778,2.051,5.028v12.569h-3.641
		l-1.008-2.596h-0.137c-0.547,0.684-1.105,1.242-1.676,1.675c-0.569,0.433-1.225,0.752-1.965,0.957s-1.641,0.308-2.7,0.308
		c-1.128,0-2.14-0.214-3.034-0.642c-0.895-0.428-1.598-1.084-2.109-1.968c-0.514-0.884-0.77-2.007-0.77-3.37
		c0-2.004,0.712-3.482,2.137-4.434c1.424-0.951,3.56-1.478,6.408-1.579l3.315-0.102v-0.814c0-0.975-0.263-1.688-0.786-2.143
		c-0.524-0.454-1.254-0.681-2.188-0.681c-0.923,0-1.828,0.131-2.717,0.393c-0.889,0.262-1.777,0.593-2.666,0.991l-1.727-3.521
		c1.014-0.535,2.15-0.957,3.409-1.265S783.927,7.531,785.271,7.531z M788.04,18.073l-2.017,0.066
		c-1.687,0.045-2.857,0.339-3.512,0.882c-0.656,0.543-0.982,1.259-0.982,2.146c0,0.776,0.232,1.328,0.7,1.655
		c0.467,0.327,1.077,0.491,1.829,0.491c1.115,0,2.059-0.321,2.828-0.965c0.769-0.643,1.153-1.558,1.153-2.745V18.073z"/>
	<path fill="#3F3F3F" d="M795.149,7.875h5.708l3.605,10.67c0.114,0.339,0.211,0.684,0.291,1.035s0.148,0.713,0.205,1.086
		s0.103,0.763,0.137,1.17h0.103c0.068-0.61,0.162-1.182,0.282-1.713c0.119-0.531,0.27-1.057,0.453-1.578l3.537-10.67h5.588
		l-8.083,21.392c-0.49,1.312-1.128,2.406-1.914,3.283c-0.786,0.876-1.689,1.535-2.709,1.976c-1.02,0.441-2.14,0.662-3.358,0.662
		c-0.592,0-1.105-0.032-1.537-0.094c-0.434-0.063-0.804-0.128-1.111-0.197v-4.136c0.239,0.057,0.541,0.108,0.906,0.154
		c0.363,0.045,0.746,0.068,1.145,0.068c0.729,0,1.355-0.151,1.88-0.454c0.524-0.303,0.962-0.709,1.315-1.219
		c0.354-0.51,0.633-1.068,0.838-1.673l0.308-0.933L795.149,7.875z"/>
	<path fill="#3F3F3F" d="M839.695,26.781h-5.298V6.19h-6.784V1.781h18.867V6.19h-6.785V26.781z"/>
	<path fill="#3F3F3F" d="M859.879,7.531c0.262,0,0.566,0.015,0.914,0.043s0.629,0.065,0.846,0.111l-0.393,4.888
		c-0.171-0.057-0.413-0.1-0.727-0.128s-0.584-0.043-0.812-0.043c-0.673,0-1.325,0.084-1.957,0.253s-1.199,0.44-1.7,0.816
		c-0.502,0.376-0.897,0.87-1.188,1.482c-0.291,0.612-0.436,1.361-0.436,2.248v9.581h-5.213V7.875h3.947l0.77,3.228h0.256
		c0.377-0.649,0.846-1.245,1.41-1.786s1.207-0.974,1.932-1.299C858.252,7.694,859.035,7.531,859.879,7.531z"/>
	<path fill="#3F3F3F" d="M872.236,7.531c2.563,0,4.529,0.551,5.896,1.653c1.367,1.103,2.051,2.778,2.051,5.028v12.569h-3.641
		l-1.008-2.596h-0.137c-0.547,0.684-1.105,1.242-1.676,1.675c-0.569,0.433-1.225,0.752-1.965,0.957s-1.641,0.308-2.7,0.308
		c-1.128,0-2.14-0.214-3.034-0.642c-0.895-0.428-1.598-1.084-2.109-1.968c-0.514-0.884-0.77-2.007-0.77-3.37
		c0-2.004,0.712-3.482,2.137-4.434c1.424-0.951,3.56-1.478,6.408-1.579l3.315-0.102v-0.814c0-0.975-0.263-1.688-0.786-2.143
		c-0.524-0.454-1.254-0.681-2.188-0.681c-0.923,0-1.828,0.131-2.717,0.393c-0.889,0.262-1.777,0.593-2.666,0.991l-1.727-3.521
		c1.014-0.535,2.15-0.957,3.409-1.265S870.892,7.531,872.236,7.531z M875.005,18.073l-2.017,0.066
		c-1.687,0.045-2.857,0.339-3.512,0.882c-0.656,0.543-0.982,1.259-0.982,2.146c0,0.776,0.232,1.328,0.7,1.655
		c0.467,0.327,1.077,0.491,1.829,0.491c1.115,0,2.059-0.321,2.828-0.965c0.769-0.643,1.153-1.558,1.153-2.745V18.073z"/>
	<path fill="#3F3F3F" d="M892.608,27.125c-1.892,0-3.503-0.341-4.837-1.022c-1.332-0.682-2.347-1.738-3.041-3.17
		c-0.695-1.432-1.043-3.263-1.043-5.495c0-2.311,0.396-4.195,1.188-5.655s1.891-2.533,3.299-3.221
		c1.406-0.688,3.039-1.031,4.896-1.031c1.32,0,2.463,0.128,3.426,0.385s1.803,0.561,2.521,0.914l-1.539,4.033
		c-0.82-0.33-1.584-0.601-2.289-0.812c-0.707-0.211-1.414-0.316-2.119-0.316c-0.912,0-1.67,0.21-2.273,0.629
		c-0.604,0.419-1.055,1.048-1.35,1.887c-0.297,0.838-0.445,1.889-0.445,3.152c0,1.241,0.16,2.27,0.479,3.086
		c0.319,0.816,0.781,1.423,1.385,1.819c0.604,0.397,1.338,0.595,2.205,0.595c1.082,0,2.045-0.145,2.888-0.436
		s1.663-0.698,2.461-1.222v4.46c-0.798,0.501-1.632,0.863-2.504,1.085C895.043,27.014,893.941,27.125,892.608,27.125z"/>
	<path fill="#3F3F3F" d="M904.76,0.39c0.775,0,1.441,0.18,2,0.539s0.838,1.028,0.838,2.008c0,0.969-0.279,1.638-0.838,2.008
		s-1.225,0.555-2,0.555c-0.785,0-1.455-0.185-2.008-0.555s-0.828-1.04-0.828-2.008c0-0.979,0.275-1.649,0.828-2.008
		S903.975,0.39,904.76,0.39z M907.357,7.875v18.906h-5.212V7.875H907.357z"/>
	<path fill="#3F3F3F" d="M922.979,7.531c2.039,0,3.68,0.549,4.922,1.648s1.863,2.859,1.863,5.281v12.321h-5.213V15.779
		c0-1.348-0.248-2.364-0.743-3.05c-0.495-0.685-1.272-1.028-2.333-1.028c-1.595,0-2.683,0.534-3.264,1.601
		c-0.581,1.067-0.871,2.606-0.871,4.617v8.863h-5.213V7.875h3.982l0.7,2.459h0.29c0.41-0.661,0.92-1.196,1.529-1.606
		s1.288-0.712,2.034-0.906C921.409,7.628,922.182,7.531,922.979,7.531z"/>
	<path fill="#3F3F3F" d="M940.018,35.188c-2.666,0-4.702-0.459-6.109-1.378c-1.407-0.919-2.11-2.207-2.11-3.863
		c0-1.139,0.358-2.091,1.077-2.857c0.717-0.767,1.771-1.313,3.161-1.64c-0.536-0.227-1.003-0.599-1.401-1.117
		c-0.398-0.517-0.598-1.065-0.598-1.645c0-0.728,0.21-1.333,0.632-1.815c0.421-0.483,1.03-0.958,1.829-1.424
		c-1.004-0.429-1.798-1.119-2.385-2.068s-0.88-2.068-0.88-3.357c0-1.379,0.305-2.551,0.914-3.518
		c0.609-0.966,1.498-1.703,2.666-2.212s2.589-0.763,4.265-0.763c0.353,0,0.763,0.023,1.23,0.068
		c0.467,0.046,0.896,0.097,1.289,0.154c0.394,0.057,0.658,0.103,0.795,0.137h6.666v2.649l-2.991,0.769
		c0.273,0.417,0.479,0.863,0.615,1.336s0.205,0.975,0.205,1.505c0,2.03-0.716,3.611-2.146,4.745s-3.414,1.7-5.955,1.7
		c-0.604-0.034-1.174-0.08-1.709-0.137c-0.262,0.204-0.461,0.419-0.598,0.646s-0.205,0.465-0.205,0.714s0.104,0.456,0.315,0.62
		s0.53,0.289,0.957,0.374s0.96,0.127,1.599,0.127h3.246c2.097,0,3.694,0.446,4.794,1.339s1.649,2.203,1.649,3.931
		c0,2.214-0.932,3.931-2.795,5.151C946.179,34.577,943.504,35.188,940.018,35.188z M940.24,31.787c1.242,0,2.31-0.114,3.204-0.342
		c0.895-0.229,1.581-0.552,2.06-0.969c0.479-0.418,0.718-0.917,0.718-1.496c0-0.468-0.14-0.839-0.419-1.111
		c-0.279-0.273-0.701-0.465-1.265-0.577s-1.284-0.167-2.161-0.167h-2.701c-0.638,0-1.211,0.1-1.717,0.301
		c-0.508,0.2-0.909,0.481-1.205,0.844c-0.297,0.362-0.444,0.782-0.444,1.262c0,0.702,0.345,1.253,1.034,1.654
		C938.033,31.586,938.998,31.787,940.24,31.787z M941.078,17.415c0.979,0,1.697-0.297,2.152-0.893
		c0.456-0.595,0.684-1.404,0.684-2.426c0-1.134-0.236-1.985-0.709-2.552s-1.182-0.851-2.127-0.851c-0.957,0-1.676,0.284-2.154,0.851
		s-0.717,1.418-0.717,2.552c0,1.022,0.236,1.831,0.709,2.426S940.109,17.415,941.078,17.415z"/>
	<path fill="#3F3F3F" d="M983.418,17.303c0,1.578-0.214,2.976-0.641,4.193c-0.428,1.217-1.049,2.246-1.863,3.085
		s-1.795,1.474-2.939,1.902c-1.145,0.428-2.436,0.642-3.871,0.642c-1.344,0-2.578-0.214-3.699-0.642
		c-1.123-0.428-2.097-1.062-2.923-1.902s-1.464-1.868-1.914-3.085s-0.675-2.615-0.675-4.193c0-2.096,0.376-3.871,1.128-5.325
		s1.823-2.559,3.213-3.313s3.048-1.133,4.974-1.133c1.788,0,3.375,0.378,4.759,1.133s2.472,1.859,3.265,3.313
		C983.021,13.432,983.418,15.207,983.418,17.303z M970.207,17.303c0,1.23,0.137,2.264,0.41,3.103
		c0.273,0.839,0.701,1.47,1.282,1.895s1.339,0.637,2.272,0.637c0.924,0,1.672-0.212,2.248-0.637
		c0.574-0.425,0.996-1.056,1.264-1.895c0.268-0.838,0.402-1.873,0.402-3.103c0-1.241-0.135-2.272-0.402-3.094
		c-0.268-0.821-0.691-1.439-1.272-1.853c-0.581-0.414-1.339-0.621-2.272-0.621c-1.379,0-2.379,0.464-3,1.392
		S970.207,15.447,970.207,17.303z"/>
	<path fill="#3F3F3F" d="M997.586,11.789h-4.512v14.993h-5.213V11.789h-2.871V9.276l2.871-1.433V6.411
		c0-1.665,0.276-2.961,0.829-3.887s1.333-1.578,2.341-1.957C992.04,0.189,993.233,0,994.612,0c1.014,0,1.937,0.083,2.769,0.248
		s1.51,0.35,2.033,0.555l-1.332,3.828c-0.399-0.125-0.832-0.239-1.299-0.342c-0.468-0.103-1.004-0.154-1.607-0.154
		c-0.729,0-1.262,0.232-1.598,0.696s-0.504,1.057-0.504,1.779v1.265h4.512V11.789z"/>
	<path fill="#3F3F3F" d="M1012.84,26.781v-25h5.298v25H1012.84z"/>
	<path fill="#3F3F3F" d="M1045.756,7.531c2.164,0,3.802,0.549,4.912,1.648c1.111,1.099,1.667,2.859,1.667,5.281v12.321h-5.229
		V15.779c0-1.348-0.234-2.364-0.701-3.05c-0.467-0.685-1.19-1.028-2.17-1.028c-1.379,0-2.358,0.486-2.939,1.458
		s-0.871,2.362-0.871,4.17v9.453h-5.213V15.779c0-0.898-0.103-1.651-0.308-2.258s-0.519-1.062-0.94-1.365s-0.963-0.455-1.623-0.455
		c-0.969,0-1.729,0.239-2.281,0.716s-0.946,1.179-1.18,2.106s-0.35,2.059-0.35,3.395v8.863h-5.213V7.875h3.982l0.7,2.459h0.29
		c0.388-0.661,0.875-1.196,1.461-1.606c0.588-0.41,1.234-0.712,1.94-0.906c0.706-0.193,1.424-0.291,2.153-0.291
		c1.401,0,2.589,0.228,3.563,0.684c0.975,0.456,1.724,1.162,2.248,2.119h0.461c0.57-0.979,1.376-1.692,2.418-2.136
		C1043.576,7.753,1044.65,7.531,1045.756,7.531z"/>
	<path fill="#3F3F3F" d="M1067.614,7.531c2.153,0,3.894,0.829,5.221,2.485s1.991,4.085,1.991,7.286c0,2.142-0.313,3.942-0.939,5.401
		c-0.627,1.46-1.493,2.562-2.598,3.305c-1.105,0.744-2.376,1.116-3.812,1.116c-0.923,0-1.715-0.117-2.376-0.35
		c-0.66-0.233-1.225-0.536-1.691-0.906s-0.871-0.766-1.213-1.188h-0.273c0.09,0.454,0.158,0.92,0.205,1.396
		c0.045,0.477,0.068,0.942,0.068,1.397v7.682h-5.213V7.875h4.238l0.734,2.493h0.24c0.342-0.513,0.757-0.985,1.247-1.418
		c0.489-0.433,1.079-0.777,1.769-1.034S1066.703,7.531,1067.614,7.531z M1065.939,11.701c-0.912,0-1.635,0.185-2.17,0.554
		c-0.536,0.369-0.926,0.922-1.172,1.66c-0.244,0.738-0.379,1.671-0.4,2.8v0.554c0,1.208,0.116,2.23,0.35,3.069
		c0.233,0.839,0.627,1.476,1.18,1.912s1.313,0.654,2.281,0.654c0.797,0,1.453-0.218,1.965-0.654c0.514-0.436,0.897-1.076,1.154-1.92
		c0.256-0.844,0.385-1.875,0.385-3.094c0-1.833-0.291-3.214-0.872-4.142S1067.158,11.701,1065.939,11.701z"/>
	<path fill="#3F3F3F" d="M1083.646,26.781h-5.213V0.188h5.213V26.781z"/>
	<path fill="#3F3F3F" d="M1091.029,0.39c0.775,0,1.441,0.18,2,0.539s0.838,1.028,0.838,2.008c0,0.969-0.279,1.638-0.838,2.008
		s-1.225,0.555-2,0.555c-0.785,0-1.455-0.185-2.008-0.555s-0.828-1.04-0.828-2.008c0-0.979,0.275-1.649,0.828-2.008
		S1090.244,0.39,1091.029,0.39z M1093.627,7.875v18.906h-5.212V7.875H1093.627z"/>
	<path fill="#3F3F3F" d="M1106.155,27.125c-1.892,0-3.503-0.341-4.837-1.022c-1.332-0.682-2.347-1.738-3.041-3.17
		c-0.695-1.432-1.043-3.263-1.043-5.495c0-2.311,0.396-4.195,1.188-5.655s1.891-2.533,3.299-3.221
		c1.406-0.688,3.039-1.031,4.896-1.031c1.32,0,2.463,0.128,3.426,0.385s1.803,0.561,2.521,0.914l-1.539,4.033
		c-0.82-0.33-1.584-0.601-2.289-0.812c-0.707-0.211-1.414-0.316-2.119-0.316c-0.912,0-1.67,0.21-2.273,0.629
		c-0.604,0.419-1.055,1.048-1.35,1.887c-0.297,0.838-0.445,1.889-0.445,3.152c0,1.241,0.16,2.27,0.479,3.086
		c0.319,0.816,0.781,1.423,1.385,1.819c0.604,0.397,1.338,0.595,2.205,0.595c1.082,0,2.045-0.145,2.888-0.436
		s1.663-0.698,2.461-1.222v4.46c-0.798,0.501-1.632,0.863-2.504,1.085C1108.59,27.014,1107.488,27.125,1106.155,27.125z"/>
	<path fill="#3F3F3F" d="M1118.307,0.39c0.775,0,1.441,0.18,2,0.539s0.838,1.028,0.838,2.008c0,0.969-0.279,1.638-0.838,2.008
		s-1.225,0.555-2,0.555c-0.785,0-1.455-0.185-2.008-0.555s-0.828-1.04-0.828-2.008c0-0.979,0.275-1.649,0.828-2.008
		S1117.521,0.39,1118.307,0.39z M1120.904,7.875v18.906h-5.212V7.875H1120.904z"/>
	<path fill="#3F3F3F" d="M1133.723,22.972c0.57,0,1.125-0.057,1.666-0.171c0.541-0.114,1.08-0.256,1.615-0.427v3.879
		c-0.559,0.251-1.25,0.459-2.076,0.624c-0.826,0.165-1.729,0.248-2.709,0.248c-1.139,0-2.162-0.183-3.067-0.548
		s-1.618-1.001-2.136-1.906c-0.52-0.905-0.777-2.168-0.777-3.788v-9.094h-2.496V9.584l2.871-1.743l1.504-4.028h3.333v4.063h5.349
		v3.914h-5.349v9.051c0,0.717,0.208,1.251,0.624,1.604S1133.039,22.972,1133.723,22.972z"/>
	<path fill="#3F3F3F" d="M1167.879,19.858c0,1.485-0.359,2.775-1.077,3.872s-1.763,1.942-3.136,2.536
		c-1.373,0.593-3.039,0.891-4.999,0.891c-0.866,0-1.712-0.057-2.538-0.171c-0.826-0.114-1.617-0.282-2.375-0.504
		s-1.479-0.499-2.162-0.829V20.73c1.185,0.524,2.415,0.997,3.691,1.418c1.275,0.422,2.541,0.632,3.794,0.632
		c0.866,0,1.563-0.114,2.093-0.344c0.53-0.229,0.915-0.545,1.154-0.946s0.359-0.86,0.359-1.376c0-0.628-0.211-1.165-0.633-1.61
		s-1-0.862-1.734-1.251c-0.735-0.388-1.564-0.805-2.486-1.25c-0.582-0.274-1.214-0.608-1.897-1.002s-1.333-0.876-1.948-1.448
		s-1.119-1.265-1.513-2.082s-0.589-1.796-0.589-2.938c0-1.496,0.342-2.775,1.025-3.837c0.684-1.062,1.66-1.876,2.93-2.441
		c1.271-0.565,2.771-0.848,4.504-0.848c1.299,0,2.537,0.151,3.717,0.453s2.412,0.738,3.7,1.307l-1.709,4.119
		c-1.151-0.467-2.183-0.829-3.093-1.085c-0.912-0.256-1.841-0.385-2.786-0.385c-0.661,0-1.226,0.106-1.692,0.318
		c-0.467,0.212-0.82,0.511-1.059,0.895c-0.24,0.384-0.359,0.829-0.359,1.333c0,0.594,0.174,1.094,0.521,1.5s0.871,0.796,1.572,1.173
		c0.7,0.377,1.574,0.817,2.623,1.319c1.275,0.605,2.367,1.237,3.272,1.894s1.604,1.428,2.094,2.313
		C1167.633,17.445,1167.879,18.544,1167.879,19.858z"/>
	<path fill="#3F3F3F" d="M1188.831,7.875v18.906h-3.999l-0.701-2.442h-0.273c-0.41,0.649-0.922,1.179-1.537,1.589
		s-1.294,0.712-2.034,0.906c-0.741,0.193-1.51,0.291-2.308,0.291c-1.367,0-2.558-0.24-3.571-0.719
		c-1.015-0.479-1.804-1.227-2.367-2.241s-0.846-2.334-0.846-3.958V7.875h5.212V18.89c0,1.35,0.245,2.367,0.735,3.053
		c0.489,0.686,1.271,1.029,2.341,1.029c1.061,0,1.892-0.239,2.496-0.717c0.604-0.478,1.027-1.181,1.272-2.108
		s0.368-2.061,0.368-3.399V7.875H1188.831z"/>
	<path fill="#3F3F3F" d="M1204.265,7.531c0.262,0,0.566,0.015,0.914,0.043s0.63,0.065,0.847,0.111l-0.394,4.888
		c-0.171-0.057-0.413-0.1-0.727-0.128s-0.584-0.043-0.812-0.043c-0.672,0-1.324,0.084-1.957,0.253s-1.199,0.44-1.7,0.816
		s-0.897,0.87-1.188,1.482c-0.29,0.612-0.436,1.361-0.436,2.248v9.581h-5.212V7.875h3.948l0.769,3.228h0.257
		c0.375-0.649,0.846-1.245,1.409-1.786s1.208-0.974,1.931-1.299C1202.639,7.694,1203.422,7.531,1204.265,7.531z"/>
	<path fill="#3F3F3F" d="M1219.355,11.789h-4.512v14.993h-5.213V11.789h-2.871V9.276l2.871-1.433V6.411
		c0-1.665,0.276-2.961,0.829-3.887s1.333-1.578,2.341-1.957c1.009-0.378,2.202-0.568,3.581-0.568c1.014,0,1.937,0.083,2.769,0.248
		s1.51,0.35,2.033,0.555l-1.332,3.828c-0.399-0.125-0.832-0.239-1.299-0.342c-0.468-0.103-1.004-0.154-1.607-0.154
		c-0.729,0-1.262,0.232-1.598,0.696s-0.504,1.057-0.504,1.779v1.265h4.512V11.789z"/>
	<path fill="#3F3F3F" d="M1229.474,7.531c2.563,0,4.528,0.551,5.896,1.653c1.367,1.103,2.051,2.778,2.051,5.028v12.569h-3.64
		l-1.009-2.596h-0.137c-0.547,0.684-1.105,1.242-1.674,1.675c-0.57,0.433-1.226,0.752-1.966,0.957
		c-0.741,0.205-1.641,0.308-2.7,0.308c-1.128,0-2.139-0.214-3.033-0.642c-0.895-0.428-1.598-1.084-2.111-1.968
		c-0.512-0.884-0.769-2.007-0.769-3.37c0-2.004,0.712-3.482,2.136-4.434c1.424-0.951,3.561-1.478,6.409-1.579l3.315-0.102v-0.814
		c0-0.975-0.262-1.688-0.786-2.143s-1.253-0.681-2.188-0.681c-0.923,0-1.829,0.131-2.718,0.393
		c-0.889,0.262-1.777,0.593-2.666,0.991l-1.726-3.521c1.014-0.535,2.15-0.957,3.409-1.265S1228.129,7.531,1229.474,7.531z
		 M1232.242,18.073l-2.017,0.066c-1.687,0.045-2.856,0.339-3.513,0.882c-0.654,0.543-0.982,1.259-0.982,2.146
		c0,0.776,0.234,1.328,0.701,1.655s1.076,0.491,1.828,0.491c1.117,0,2.06-0.321,2.828-0.965c0.77-0.643,1.154-1.558,1.154-2.745
		V18.073z"/>
	<path fill="#3F3F3F" d="M1249.846,27.125c-1.892,0-3.504-0.341-4.836-1.022c-1.334-0.682-2.348-1.738-3.043-3.17
		s-1.042-3.263-1.042-5.495c0-2.311,0.396-4.195,1.188-5.655s1.892-2.533,3.298-3.221c1.408-0.688,3.039-1.031,4.896-1.031
		c1.322,0,2.464,0.128,3.427,0.385s1.804,0.561,2.521,0.914l-1.537,4.033c-0.82-0.33-1.584-0.601-2.291-0.812
		c-0.706-0.211-1.412-0.316-2.119-0.316c-0.911,0-1.669,0.21-2.272,0.629c-0.604,0.419-1.054,1.048-1.351,1.887
		c-0.296,0.838-0.443,1.889-0.443,3.152c0,1.241,0.158,2.27,0.479,3.086c0.318,0.816,0.779,1.423,1.384,1.819
		c0.604,0.397,1.339,0.595,2.204,0.595c1.082,0,2.045-0.145,2.889-0.436c0.843-0.291,1.663-0.698,2.461-1.222v4.46
		c-0.798,0.501-1.633,0.863-2.504,1.085C1252.281,27.014,1251.179,27.125,1249.846,27.125z"/>
	<path fill="#3F3F3F" d="M1267.262,7.531c1.766,0,3.286,0.335,4.563,1.006c1.275,0.671,2.262,1.643,2.957,2.917
		c0.694,1.274,1.042,2.83,1.042,4.667v2.503h-12.321c0.057,1.44,0.498,2.57,1.324,3.39s1.974,1.23,3.443,1.23
		c1.219,0,2.336-0.125,3.35-0.376c1.014-0.25,2.057-0.626,3.127-1.128v4.033c-0.945,0.467-1.934,0.809-2.965,1.025
		s-2.281,0.325-3.751,0.325c-1.914,0-3.608-0.349-5.085-1.048c-1.475-0.699-2.631-1.764-3.469-3.195
		c-0.838-1.431-1.256-3.234-1.256-5.41c0-2.209,0.379-4.049,1.137-5.52s1.814-2.575,3.17-3.313S1265.461,7.531,1267.262,7.531z
		 M1267.295,11.24c-1.014,0-1.854,0.315-2.521,0.946c-0.667,0.631-1.051,1.621-1.153,2.97h7.314
		c-0.012-0.752-0.151-1.421-0.419-2.008c-0.268-0.586-0.667-1.051-1.196-1.394S1268.115,11.24,1267.295,11.24z"/>
	<path fill="#3F3F3F" d="M1292.692,21.174c0,1.285-0.306,2.37-0.915,3.254s-1.518,1.556-2.725,2.012
		c-1.209,0.456-2.713,0.685-4.512,0.685c-1.334,0-2.477-0.085-3.428-0.256s-1.91-0.456-2.879-0.854v-4.307
		c1.037,0.467,2.15,0.852,3.341,1.154s2.235,0.453,3.136,0.453c1.014,0,1.74-0.146,2.18-0.437c0.438-0.291,0.658-0.673,0.658-1.146
		c0-0.315-0.089-0.6-0.266-0.854c-0.177-0.253-0.555-0.541-1.137-0.862c-0.58-0.321-1.492-0.741-2.734-1.259
		c-1.195-0.496-2.179-0.998-2.947-1.505c-0.77-0.507-1.34-1.107-1.709-1.8c-0.371-0.693-0.556-1.575-0.556-2.646
		c0-1.747,0.687-3.063,2.06-3.947s3.209-1.327,5.512-1.327c1.184,0,2.314,0.12,3.392,0.359s2.185,0.621,3.324,1.145l-1.572,3.76
		c-0.946-0.41-1.837-0.746-2.675-1.008c-0.838-0.262-1.689-0.393-2.555-0.393c-0.764,0-1.339,0.101-1.727,0.301
		c-0.387,0.201-0.58,0.507-0.58,0.92c0,0.301,0.1,0.569,0.299,0.803s0.586,0.494,1.162,0.778c0.574,0.284,1.421,0.649,2.537,1.095
		c1.082,0.439,2.022,0.899,2.82,1.378c0.797,0.479,1.412,1.071,1.846,1.775C1292.476,19.148,1292.692,20.059,1292.692,21.174z"/>
	<path fill="#3F3F3F" d="M1295.922,24.977c0-0.762,0.174-1.339,0.521-1.732s0.846-0.589,1.496-0.589c0.66,0,1.176,0.196,1.546,0.589
		s0.556,0.97,0.556,1.732c0,0.74-0.188,1.309-0.564,1.707c-0.375,0.398-0.889,0.597-1.537,0.597c-0.582,0-1.063-0.179-1.445-0.538
		C1296.113,26.385,1295.922,25.796,1295.922,24.977z"/>
	<path fill="#3F3F3F" d="M1315.961,26.781l5.281-25h2.904l-4.717,22.375h9.656l-0.564,2.625H1315.961z"/>
	<path fill="#3F3F3F" d="M1338.794,27.125c-2.097,0-3.743-0.621-4.938-1.862c-1.197-1.241-1.795-2.961-1.795-5.159
		c0-2.141,0.424-4.194,1.273-6.159c0.848-1.964,1.974-3.493,3.375-4.586s2.945-1.64,4.631-1.64c1.744,0,3.054,0.378,3.932,1.135
		c0.877,0.757,1.315,1.813,1.315,3.167c0,2.049-0.946,3.656-2.837,4.823c-1.892,1.167-4.598,1.75-8.117,1.75h-0.564L1335,19.962
		c0,1.494,0.35,2.661,1.051,3.499s1.786,1.257,3.256,1.257c0.718,0,1.455-0.103,2.213-0.308s1.701-0.581,2.828-1.128v2.494
		c-1.07,0.501-2.016,0.851-2.836,1.05C1340.691,27.025,1339.785,27.125,1338.794,27.125z M1341.17,10.156
		c-1.174,0-2.276,0.535-3.308,1.605s-1.819,2.556-2.366,4.457h0.205c2.598,0,4.588-0.338,5.973-1.016
		c1.384-0.677,2.076-1.659,2.076-2.946c0-0.604-0.208-1.104-0.624-1.503S1342.059,10.156,1341.17,10.156z"/>
	<path fill="#3F3F3F" d="M1355.594,27.125c-2.211,0-3.926-0.609-5.145-1.828s-1.828-2.938-1.828-5.159
		c0-2.277,0.422-4.379,1.265-6.304s2.008-3.425,3.495-4.501c1.486-1.076,3.158-1.614,5.016-1.614c1.561,0,3.088,0.29,4.58,0.87
		l-0.803,2.408c-1.367-0.581-2.615-0.872-3.743-0.872c-1.276,0-2.441,0.436-3.495,1.307c-1.054,0.872-1.88,2.084-2.479,3.639
		c-0.598,1.555-0.896,3.244-0.896,5.066c0,1.458,0.379,2.591,1.137,3.4s1.803,1.213,3.136,1.213c0.82,0,1.595-0.114,2.324-0.342
		c0.729-0.228,1.446-0.496,2.153-0.803v2.443C1358.897,26.766,1357.325,27.125,1355.594,27.125z"/>
	<path fill="#3F3F3F" d="M1368.754,24.781c0.627,0,1.447-0.148,2.461-0.444v2.207c-0.387,0.16-0.865,0.296-1.436,0.411
		c-0.569,0.114-1.025,0.171-1.367,0.171c-1.424,0-2.515-0.339-3.272-1.017s-1.136-1.689-1.136-3.034
		c0-0.752,0.102-1.607,0.307-2.564l2.171-10.291h-2.939l0.239-1.241l3.162-1.326l2.136-3.902h1.675l-0.939,4.313h4.682l-0.443,2.156
		h-4.666l-2.205,10.324c-0.205,0.991-0.307,1.743-0.307,2.256c0,0.639,0.164,1.128,0.495,1.47
		C1367.7,24.61,1368.162,24.781,1368.754,24.781z"/>
	<path fill="#3F3F3F" d="M1380.359,8.063l-2.564,11.871c-0.205,1.014-0.307,1.805-0.307,2.375c0,1.628,0.837,2.442,2.512,2.442
		c1.002,0,1.988-0.341,2.957-1.025c0.968-0.683,1.822-1.662,2.563-2.938s1.305-2.813,1.692-4.612l1.709-8.113h2.837l-3.947,18.719
		h-2.376l0.376-3.465h-0.205c-1.117,1.424-2.182,2.415-3.195,2.972c-1.015,0.558-2.063,0.837-3.145,0.837
		c-1.459,0-2.604-0.396-3.436-1.187s-1.248-1.922-1.248-3.391c0-0.706,0.125-1.685,0.377-2.938l2.494-11.547H1380.359z"/>
	<path fill="#3F3F3F" d="M1405.003,7.719c0.786,0,1.47,0.081,2.051,0.241l-0.615,2.575c-0.604-0.148-1.202-0.222-1.794-0.222
		c-1.037,0-2.009,0.341-2.914,1.024c-0.906,0.683-1.698,1.63-2.376,2.842s-1.177,2.557-1.495,4.036l-1.828,8.567h-2.871
		l3.998-18.719h2.376l-0.376,3.465h0.171c0.82-1.082,1.498-1.859,2.034-2.332c0.535-0.473,1.096-0.837,1.683-1.093
		C1403.633,7.847,1404.285,7.719,1405.003,7.719z"/>
	<path fill="#3F3F3F" d="M1413.72,27.125c-2.097,0-3.743-0.621-4.938-1.862c-1.197-1.241-1.795-2.961-1.795-5.159
		c0-2.141,0.424-4.194,1.273-6.159c0.848-1.964,1.974-3.493,3.375-4.586s2.945-1.64,4.631-1.64c1.744,0,3.054,0.378,3.932,1.135
		c0.877,0.757,1.315,1.813,1.315,3.167c0,2.049-0.946,3.656-2.837,4.823c-1.892,1.167-4.598,1.75-8.117,1.75h-0.564l-0.068,1.369
		c0,1.494,0.35,2.661,1.051,3.499s1.786,1.257,3.256,1.257c0.718,0,1.455-0.103,2.213-0.308s1.701-0.581,2.828-1.128v2.494
		c-1.07,0.501-2.016,0.851-2.836,1.05C1415.617,27.025,1414.711,27.125,1413.72,27.125z M1416.096,10.156
		c-1.174,0-2.276,0.535-3.308,1.605s-1.819,2.556-2.366,4.457h0.205c2.598,0,4.588-0.338,5.973-1.016
		c1.384-0.677,2.076-1.659,2.076-2.946c0-0.604-0.208-1.104-0.624-1.503S1416.984,10.156,1416.096,10.156z"/>
	<path fill="#3F3F3F" d="M18.03,76.781h-3.093L7.075,55.868H6.973c-0.365,2.52-0.786,4.902-1.265,7.147L2.769,76.781H0l5.281-25
		h3.076l7.844,20.861h0.103c0.342-2.553,0.752-4.861,1.23-6.925l2.974-13.937h2.803L18.03,76.781z"/>
	<path fill="#3F3F3F" d="M33.428,57.813c2.165,0,3.874,0.641,5.127,1.924c1.253,1.281,1.88,3.045,1.88,5.291
		c0,2.143-0.41,4.166-1.23,6.068c-0.82,1.904-1.931,3.374-3.333,4.411s-2.985,1.556-4.751,1.556c-2.188,0-3.902-0.644-5.144-1.932
		c-1.242-1.288-1.863-3.049-1.863-5.283c0-2.165,0.416-4.202,1.248-6.111c0.832-1.909,1.954-3.373,3.367-4.394
		C30.141,58.322,31.708,57.813,33.428,57.813z M37.461,64.631c0-1.311-0.356-2.373-1.068-3.189
		c-0.712-0.814-1.678-1.223-2.896-1.223c-1.242,0-2.356,0.422-3.341,1.266s-1.749,2.016-2.29,3.515s-0.812,3.167-0.812,5.003
		c0,1.493,0.361,2.647,1.085,3.463s1.763,1.223,3.119,1.223c1.185,0,2.25-0.416,3.196-1.248c0.945-0.832,1.683-2.016,2.213-3.549
		S37.461,66.604,37.461,64.631z"/>
	<path fill="#3F3F3F" d="M48.126,74.781c0.626,0,1.447-0.148,2.461-0.444v2.206c-0.388,0.16-0.866,0.297-1.436,0.411
		c-0.57,0.114-1.025,0.171-1.367,0.171c-1.424,0-2.515-0.34-3.273-1.018s-1.136-1.689-1.136-3.033c0-0.752,0.103-1.607,0.308-2.564
		l2.17-10.291h-2.939l0.239-1.24l3.162-1.326l2.136-3.902h1.675l-0.94,4.313h4.683l-0.444,2.156h-4.666l-2.205,10.324
		c-0.205,0.99-0.308,1.742-0.308,2.256c0,0.639,0.165,1.128,0.496,1.47C47.072,74.61,47.534,74.781,48.126,74.781z"/>
	<path fill="#3F3F3F" d="M60.432,77.125c-2.097,0-3.743-0.621-4.939-1.861c-1.196-1.242-1.794-2.961-1.794-5.16
		c0-2.141,0.424-4.193,1.273-6.158s1.974-3.493,3.375-4.586c1.401-1.094,2.945-1.641,4.631-1.641c1.743,0,3.053,0.379,3.931,1.135
		c0.877,0.758,1.316,1.813,1.316,3.168c0,2.049-0.946,3.656-2.837,4.822c-1.892,1.167-4.597,1.75-8.118,1.75h-0.564l-0.068,1.369
		c0,1.494,0.35,2.66,1.051,3.498c0.701,0.839,1.786,1.258,3.256,1.258c0.718,0,1.455-0.103,2.213-0.308s1.701-0.581,2.829-1.128
		v2.494c-1.071,0.5-2.017,0.85-2.837,1.049S61.423,77.125,60.432,77.125z M62.807,60.156c-1.174,0-2.276,0.535-3.307,1.605
		s-1.82,2.556-2.367,4.457h0.205c2.598,0,4.588-0.338,5.973-1.016s2.077-1.66,2.077-2.946c0-0.604-0.208-1.104-0.624-1.503
		S63.696,60.156,62.807,60.156z"/>
	<path fill="#3F3F3F" d="M81.146,71.471c0,1.777-0.63,3.164-1.889,4.16s-3.033,1.494-5.323,1.494c-1.926,0-3.663-0.393-5.212-1.18
		v-2.699c0.797,0.479,1.658,0.85,2.581,1.111s1.777,0.393,2.563,0.393c1.436,0,2.518-0.285,3.247-0.854
		c0.729-0.57,1.094-1.299,1.094-2.188c0-0.648-0.2-1.195-0.598-1.639c-0.399-0.445-1.259-1.055-2.581-1.828
		c-1.481-0.832-2.529-1.646-3.145-2.443s-0.923-1.742-0.923-2.836c0-1.57,0.575-2.838,1.726-3.801
		c1.15-0.962,2.666-1.443,4.546-1.443c1.948,0,3.828,0.42,5.64,1.262l-0.923,2.338l-0.957-0.428
		c-1.151-0.489-2.404-0.734-3.76-0.734c-1.06,0-1.892,0.248-2.495,0.744c-0.604,0.497-0.906,1.139-0.906,1.926
		c0,0.639,0.202,1.186,0.606,1.641s1.239,1.042,2.504,1.76c1.219,0.684,2.093,1.27,2.623,1.76c0.53,0.489,0.926,1.016,1.188,1.58
		C81.014,70.13,81.146,70.765,81.146,71.471z"/>
	<path fill="#3F3F3F" d="M95.143,76.781h-2.871l3.999-18.719h2.871L95.143,76.781z M97.074,53.264c0-0.637,0.182-1.158,0.547-1.563
		c0.364-0.404,0.837-0.607,1.418-0.607c1.002,0,1.504,0.513,1.504,1.538c0,0.627-0.191,1.157-0.573,1.589
		c-0.382,0.434-0.823,0.65-1.324,0.65c-0.456,0-0.832-0.14-1.128-0.419C97.222,54.173,97.074,53.777,97.074,53.264z"/>
	<path fill="#3F3F3F" d="M111.909,76.781l2.529-11.822c0.228-1.184,0.342-2.004,0.342-2.459c0-0.718-0.203-1.293-0.607-1.726
		s-1.051-0.649-1.939-0.649c-1.014,0-2.002,0.342-2.965,1.025s-1.812,1.656-2.546,2.921s-1.29,2.796-1.666,4.595l-1.726,8.115
		h-2.871l3.999-18.719h2.375l-0.376,3.465h0.171c1.094-1.389,2.15-2.371,3.17-2.945c1.02-0.576,2.077-0.863,3.17-0.863
		c1.447,0,2.589,0.396,3.426,1.188s1.256,1.898,1.256,3.322c0,0.899-0.131,1.924-0.393,3.074l-2.444,11.479H111.909z"/>
	<path fill="#3F3F3F" d="M143.441,54.031c-1.982,0-3.757,0.553-5.324,1.657s-2.809,2.725-3.726,4.86
		c-0.917,2.135-1.375,4.461-1.375,6.979c0,2.129,0.555,3.83,1.666,5.1s2.641,1.904,4.589,1.904c1.583,0,3.418-0.324,5.503-0.975
		v2.555c-0.98,0.355-1.914,0.613-2.803,0.773s-1.96,0.24-3.213,0.24c-2.757,0-4.922-0.852-6.494-2.555s-2.358-4.025-2.358-6.965
		c0-2.974,0.601-5.74,1.803-8.298s2.817-4.509,4.845-5.854c2.028-1.345,4.324-2.017,6.887-2.017c2.244,0,4.227,0.455,5.947,1.365
		l-1.179,2.408C146.637,54.424,145.048,54.031,143.441,54.031z"/>
	<path fill="#3F3F3F" d="M158.105,57.813c2.165,0,3.874,0.641,5.127,1.924c1.253,1.281,1.88,3.045,1.88,5.291
		c0,2.143-0.41,4.166-1.23,6.068c-0.82,1.904-1.931,3.374-3.333,4.411s-2.985,1.556-4.751,1.556c-2.188,0-3.902-0.644-5.144-1.932
		c-1.242-1.288-1.863-3.049-1.863-5.283c0-2.165,0.416-4.202,1.248-6.111c0.832-1.909,1.954-3.373,3.367-4.394
		C154.818,58.322,156.384,57.813,158.105,57.813z M162.138,64.631c0-1.311-0.356-2.373-1.068-3.189
		c-0.712-0.814-1.678-1.223-2.896-1.223c-1.242,0-2.356,0.422-3.341,1.266s-1.749,2.016-2.29,3.515s-0.812,3.167-0.812,5.003
		c0,1.493,0.361,2.647,1.085,3.463s1.763,1.223,3.119,1.223c1.185,0,2.25-0.416,3.196-1.248c0.945-0.832,1.683-2.016,2.213-3.549
		S162.138,66.604,162.138,64.631z"/>
	<path fill="#3F3F3F" d="M177.947,76.781l2.529-11.822c0.205-1.07,0.308-1.839,0.308-2.306c0-0.797-0.177-1.417-0.53-1.862
		c-0.354-0.443-0.957-0.666-1.812-0.666c-0.957,0-1.889,0.342-2.794,1.025s-1.703,1.66-2.393,2.93s-1.222,2.799-1.598,4.586
		l-1.726,8.115h-2.871l3.999-18.719h2.375l-0.376,3.465h0.171c0.991-1.354,1.979-2.328,2.965-2.92s2.002-0.889,3.051-0.889
		c1.287,0,2.278,0.37,2.974,1.11c0.695,0.74,1.105,1.771,1.23,3.092h0.137c0.979-1.423,2.022-2.479,3.127-3.169
		c1.105-0.688,2.222-1.033,3.35-1.033c1.447,0,2.566,0.387,3.358,1.162c0.792,0.773,1.188,1.901,1.188,3.381
		c0,0.775-0.125,1.789-0.376,3.041l-2.461,11.479h-2.905l2.529-11.822c0.228-1.184,0.342-2.016,0.342-2.494
		c0-0.705-0.197-1.271-0.59-1.699c-0.393-0.427-1.011-0.641-1.854-0.641c-0.923,0-1.834,0.33-2.734,0.99
		c-0.9,0.661-1.689,1.598-2.367,2.811s-1.193,2.651-1.546,4.314l-1.829,8.541H177.947z"/>
	<path fill="#3F3F3F" d="M205.189,77.125c-1.105,0-2.074-0.285-2.905-0.854c-0.832-0.57-1.476-1.367-1.931-2.393h-0.171
		l-0.068,0.648c-0.034,0.285-0.094,0.684-0.18,1.197c-0.085,0.512-0.738,3.666-1.957,9.463h-2.837l5.742-27.125h2.375l-0.444,3.566
		h0.137c2.039-2.586,4.158-3.879,6.357-3.879c1.561,0,2.791,0.556,3.691,1.666c0.9,1.11,1.35,2.668,1.35,4.673
		c0,2.415-0.393,4.63-1.179,6.646s-1.875,3.585-3.264,4.707C208.516,76.564,206.943,77.125,205.189,77.125z M208.368,60.125
		c-1.094,0-2.208,0.541-3.341,1.623s-2.034,2.443-2.7,4.084s-1,3.32-1,5.039c0,1.254,0.316,2.213,0.948,2.879
		c0.632,0.667,1.547,1,2.743,1c1.128,0,2.179-0.461,3.153-1.384s1.757-2.235,2.35-3.938c0.592-1.703,0.889-3.511,0.889-5.424
		C211.41,61.418,210.396,60.125,208.368,60.125z"/>
	<path fill="#3F3F3F" d="M223.083,58.063l-2.563,11.871c-0.205,1.014-0.308,1.805-0.308,2.374c0,1.628,0.837,2.442,2.512,2.442
		c1.002,0,1.988-0.342,2.957-1.025c0.968-0.683,1.823-1.662,2.563-2.938c0.74-1.275,1.304-2.813,1.692-4.611l1.709-8.113h2.837
		l-3.948,18.719h-2.375l0.376-3.465h-0.205c-1.117,1.424-2.182,2.414-3.196,2.972c-1.014,0.558-2.063,0.837-3.145,0.837
		c-1.458,0-2.604-0.396-3.435-1.188c-0.832-0.791-1.248-1.922-1.248-3.391c0-0.705,0.125-1.685,0.376-2.938l2.495-11.547H223.083z"
		/>
	<path fill="#3F3F3F" d="M241.626,74.781c0.626,0,1.447-0.148,2.461-0.444v2.206c-0.388,0.16-0.866,0.297-1.436,0.411
		c-0.57,0.114-1.025,0.171-1.367,0.171c-1.424,0-2.515-0.34-3.273-1.018s-1.136-1.689-1.136-3.033c0-0.752,0.103-1.607,0.308-2.564
		l2.17-10.291h-2.939l0.239-1.24l3.162-1.326l2.136-3.902h1.675l-0.94,4.313h4.683l-0.444,2.156h-4.666l-2.205,10.324
		c-0.205,0.99-0.308,1.742-0.308,2.256c0,0.639,0.165,1.128,0.496,1.47C240.572,74.61,241.033,74.781,241.626,74.781z"/>
	<path fill="#3F3F3F" d="M253.931,77.125c-2.097,0-3.743-0.621-4.939-1.861c-1.196-1.242-1.794-2.961-1.794-5.16
		c0-2.141,0.424-4.193,1.273-6.158s1.974-3.493,3.375-4.586c1.401-1.094,2.945-1.641,4.631-1.641c1.743,0,3.053,0.379,3.931,1.135
		c0.877,0.758,1.316,1.813,1.316,3.168c0,2.049-0.946,3.656-2.837,4.822c-1.892,1.167-4.597,1.75-8.118,1.75h-0.564l-0.068,1.369
		c0,1.494,0.35,2.66,1.051,3.498c0.701,0.839,1.786,1.258,3.256,1.258c0.718,0,1.455-0.103,2.213-0.308s1.701-0.581,2.829-1.128
		v2.494c-1.071,0.5-2.017,0.85-2.837,1.049S254.922,77.125,253.931,77.125z M256.307,60.156c-1.174,0-2.276,0.535-3.307,1.605
		s-1.82,2.556-2.367,4.457h0.205c2.598,0,4.588-0.338,5.973-1.016s2.077-1.66,2.077-2.946c0-0.604-0.208-1.104-0.624-1.503
		S257.195,60.156,256.307,60.156z"/>
	<path fill="#3F3F3F" d="M274.935,57.719c0.786,0,1.47,0.08,2.051,0.24l-0.615,2.576c-0.604-0.148-1.202-0.223-1.794-0.223
		c-1.037,0-2.008,0.342-2.914,1.023c-0.906,0.684-1.698,1.631-2.375,2.842c-0.678,1.213-1.176,2.558-1.495,4.036l-1.829,8.567
		h-2.871l3.999-18.719h2.375l-0.376,3.465h0.171c0.82-1.081,1.498-1.858,2.034-2.331c0.535-0.473,1.096-0.837,1.683-1.093
		S274.217,57.719,274.935,57.719z"/>
	<path fill="#3F3F3F" d="M299.238,69.537c0,2.404-0.801,4.27-2.401,5.598c-1.601,1.326-3.854,1.99-6.759,1.99
		c-1.208,0-2.271-0.082-3.188-0.246s-1.78-0.439-2.589-0.824v-2.896c1.846,0.957,3.782,1.436,5.811,1.436
		c1.846,0,3.31-0.432,4.392-1.295c1.082-0.862,1.624-2.049,1.624-3.557c0-0.889-0.299-1.672-0.897-2.35s-1.712-1.479-3.341-2.402
		c-1.721-0.969-2.914-1.937-3.581-2.905c-0.667-0.968-1-2.113-1-3.435c0-2.131,0.752-3.865,2.256-5.205
		c1.504-1.338,3.48-2.008,5.93-2.008c1.128,0,2.179,0.108,3.153,0.324c0.974,0.217,2.002,0.586,3.085,1.109l-1.128,2.562
		c-0.752-0.433-1.595-0.774-2.529-1.025c-0.935-0.251-1.794-0.376-2.581-0.376c-1.527,0-2.754,0.396-3.683,1.189
		s-1.393,1.867-1.393,3.225c0,0.615,0.097,1.143,0.291,1.58c0.193,0.439,0.501,0.852,0.923,1.239
		c0.421,0.388,1.23,0.929,2.427,1.624c1.675,1.002,2.805,1.789,3.392,2.358s1.031,1.199,1.333,1.889S299.238,68.625,299.238,69.537z
		"/>
	<path fill="#3F3F3F" d="M309.151,77.125c-2.21,0-3.925-0.609-5.144-1.828c-1.219-1.219-1.829-2.938-1.829-5.158
		c0-2.277,0.421-4.379,1.265-6.305c0.843-1.924,2.008-3.425,3.495-4.501s3.159-1.614,5.016-1.614c1.561,0,3.087,0.29,4.58,0.87
		l-0.803,2.407c-1.367-0.58-2.615-0.871-3.743-0.871c-1.276,0-2.441,0.436-3.495,1.307c-1.054,0.872-1.88,2.085-2.478,3.64
		s-0.897,3.243-0.897,5.065c0,1.459,0.378,2.592,1.136,3.4s1.803,1.213,3.136,1.213c0.82,0,1.595-0.113,2.324-0.342
		c0.729-0.228,1.447-0.496,2.153-0.803v2.443C312.455,76.766,310.883,77.125,309.151,77.125z"/>
	<path fill="#3F3F3F" d="M319.44,76.781h-2.871l3.999-18.719h2.871L319.44,76.781z M321.371,53.264c0-0.637,0.182-1.158,0.547-1.563
		c0.364-0.404,0.837-0.607,1.418-0.607c1.002,0,1.504,0.513,1.504,1.538c0,0.627-0.191,1.157-0.573,1.589
		c-0.382,0.434-0.823,0.65-1.324,0.65c-0.456,0-0.832-0.14-1.128-0.419C321.519,54.173,321.371,53.777,321.371,53.264z"/>
	<path fill="#3F3F3F" d="M332.155,77.125c-2.097,0-3.743-0.621-4.939-1.861c-1.196-1.242-1.794-2.961-1.794-5.16
		c0-2.141,0.424-4.193,1.273-6.158s1.974-3.493,3.375-4.586c1.401-1.094,2.945-1.641,4.631-1.641c1.743,0,3.053,0.379,3.931,1.135
		c0.877,0.758,1.316,1.813,1.316,3.168c0,2.049-0.946,3.656-2.837,4.822c-1.892,1.167-4.597,1.75-8.118,1.75h-0.564l-0.068,1.369
		c0,1.494,0.35,2.66,1.051,3.498c0.701,0.839,1.786,1.258,3.256,1.258c0.718,0,1.455-0.103,2.213-0.308s1.701-0.581,2.829-1.128
		v2.494c-1.071,0.5-2.017,0.85-2.837,1.049S333.146,77.125,332.155,77.125z M334.531,60.156c-1.174,0-2.276,0.535-3.307,1.605
		s-1.82,2.556-2.367,4.457h0.205c2.598,0,4.588-0.338,5.973-1.016s2.077-1.66,2.077-2.946c0-0.604-0.208-1.104-0.624-1.503
		S335.419,60.156,334.531,60.156z"/>
	<path fill="#3F3F3F" d="M352.767,76.781l2.529-11.822c0.228-1.184,0.342-2.004,0.342-2.459c0-0.718-0.203-1.293-0.607-1.726
		s-1.051-0.649-1.939-0.649c-1.014,0-2.002,0.342-2.965,1.025s-1.812,1.656-2.546,2.921s-1.29,2.796-1.666,4.595l-1.726,8.115
		h-2.871l3.999-18.719h2.375l-0.376,3.465h0.171c1.094-1.389,2.15-2.371,3.17-2.945c1.02-0.576,2.077-0.863,3.17-0.863
		c1.447,0,2.589,0.396,3.426,1.188s1.256,1.898,1.256,3.322c0,0.899-0.131,1.924-0.393,3.074l-2.444,11.479H352.767z"/>
	<path fill="#3F3F3F" d="M368.456,77.125c-2.21,0-3.925-0.609-5.144-1.828c-1.219-1.219-1.829-2.938-1.829-5.158
		c0-2.277,0.421-4.379,1.265-6.305c0.843-1.924,2.008-3.425,3.495-4.501s3.159-1.614,5.016-1.614c1.561,0,3.087,0.29,4.58,0.87
		l-0.803,2.407c-1.367-0.58-2.615-0.871-3.743-0.871c-1.276,0-2.441,0.436-3.495,1.307c-1.054,0.872-1.88,2.085-2.478,3.64
		s-0.897,3.243-0.897,5.065c0,1.459,0.378,2.592,1.136,3.4s1.803,1.213,3.136,1.213c0.82,0,1.595-0.113,2.324-0.342
		c0.729-0.228,1.447-0.496,2.153-0.803v2.443C371.759,76.766,370.187,77.125,368.456,77.125z"/>
	<path fill="#3F3F3F" d="M383.273,77.125c-2.097,0-3.743-0.621-4.939-1.861c-1.196-1.242-1.794-2.961-1.794-5.16
		c0-2.141,0.424-4.193,1.273-6.158s1.974-3.493,3.375-4.586c1.401-1.094,2.945-1.641,4.631-1.641c1.743,0,3.053,0.379,3.931,1.135
		c0.877,0.758,1.316,1.813,1.316,3.168c0,2.049-0.946,3.656-2.837,4.822c-1.892,1.167-4.597,1.75-8.118,1.75h-0.564l-0.068,1.369
		c0,1.494,0.35,2.66,1.051,3.498c0.701,0.839,1.786,1.258,3.256,1.258c0.718,0,1.455-0.103,2.213-0.308s1.701-0.581,2.829-1.128
		v2.494c-1.071,0.5-2.017,0.85-2.837,1.049S384.265,77.125,383.273,77.125z M385.649,60.156c-1.174,0-2.276,0.535-3.307,1.605
		s-1.82,2.556-2.367,4.457h0.205c2.598,0,4.588-0.338,5.973-1.016s2.077-1.66,2.077-2.946c0-0.604-0.208-1.104-0.624-1.503
		S386.538,60.156,385.649,60.156z"/>
	<path fill="#3F3F3F" d="M397.417,72.719l0.256,0.394c-0.297,1.142-0.725,2.468-1.284,3.98c-0.559,1.512-1.141,2.919-1.746,4.22
		h-2.14c0.308-1.188,0.647-2.654,1.019-4.399c0.371-1.746,0.63-3.145,0.779-4.194H397.417z"/>
	<path fill="#3F3F3F" d="M424.879,57.678c0,1.596-0.447,2.901-1.341,3.916c-0.894,1.015-2.161,1.692-3.8,2.034v0.137
		c2.004,0.251,3.49,0.889,4.458,1.913c0.968,1.025,1.452,2.369,1.452,4.032c0,2.381-0.826,4.212-2.477,5.493
		c-1.651,1.281-3.997,1.922-7.037,1.922c-1.321,0-2.531-0.1-3.63-0.299s-2.166-0.549-3.202-1.049v-2.699
		c1.082,0.535,2.234,0.943,3.458,1.223s2.382,0.418,3.476,0.418c4.314,0,6.472-1.692,6.472-5.078c0-3.031-2.379-4.547-7.138-4.547
		h-2.459v-2.438h2.493c1.946,0,3.489-0.43,4.627-1.289c1.139-0.86,1.708-2.054,1.708-3.58c0-1.219-0.418-2.175-1.255-2.869
		c-0.837-0.695-1.972-1.043-3.407-1.043c-1.093,0-2.123,0.148-3.091,0.444s-2.072,0.843-3.313,1.641l-1.435-1.914
		c1.024-0.812,2.206-1.449,3.544-1.913c1.338-0.463,2.747-0.695,4.227-0.695c2.425,0,4.31,0.556,5.653,1.667
		S424.879,55.74,424.879,57.678z"/>
	<path fill="#3F3F3F" d="M446.309,71.063h-3.705v5.719h-2.717v-5.719h-12.144v-2.481l11.853-16.925h3.008v16.813h3.705V71.063z
		 M439.887,68.469v-8.313c0-1.63,0.057-3.471,0.171-5.523h-0.137c-0.547,1.094-1.059,2.001-1.537,2.719l-7.804,11.117H439.887z"/>
	<path fill="#3F3F3F" d="M464.442,76.781h-16.413v-2.443l6.575-6.609c2.003-2.027,3.324-3.474,3.961-4.339s1.116-1.708,1.435-2.528
		s0.479-1.702,0.479-2.647c0-1.332-0.404-2.388-1.212-3.169c-0.809-0.779-1.93-1.17-3.364-1.17c-1.036,0-2.019,0.171-2.946,0.513
		s-1.961,0.963-3.099,1.862l-1.503-1.931c2.3-1.921,4.805-2.882,7.515-2.882c2.346,0,4.185,0.602,5.517,1.804
		s1.999,2.817,1.999,4.847c0,1.584-0.444,3.15-1.332,4.701c-0.888,1.549-2.55,3.51-4.986,5.88l-5.464,5.351v0.137h12.841V76.781z"/>
	<path fill="#3F3F3F" d="M483.754,62.461c0,9.776-3.78,14.664-11.341,14.664c-1.321,0-2.368-0.114-3.143-0.342v-2.446
		c0.911,0.296,1.947,0.444,3.108,0.444c2.732,0,4.796-0.846,6.19-2.535c1.395-1.691,2.154-4.283,2.28-7.778h-0.205
		c-0.626,0.946-1.457,1.667-2.493,2.163s-2.203,0.744-3.5,0.744c-2.209,0-3.962-0.661-5.26-1.983s-1.947-3.169-1.947-5.54
		c0-2.6,0.726-4.652,2.177-6.156c1.452-1.506,3.362-2.258,5.73-2.258c1.696,0,3.18,0.436,4.449,1.308s2.246,2.142,2.929,3.812
		C483.413,58.226,483.754,60.193,483.754,62.461z M475.352,53.875c-1.628,0-2.886,0.523-3.773,1.571s-1.332,2.505-1.332,4.371
		c0,1.64,0.41,2.929,1.229,3.868s2.066,1.408,3.739,1.408c1.036,0,1.989-0.211,2.86-0.632c0.871-0.421,1.556-0.996,2.057-1.725
		s0.751-1.491,0.751-2.288c0-1.195-0.233-2.299-0.7-3.313s-1.118-1.811-1.955-2.391C477.392,54.166,476.433,53.875,475.352,53.875z"
		/>
	<path fill="#3F3F3F" d="M490.937,72.719l0.256,0.394c-0.297,1.142-0.725,2.468-1.284,3.98c-0.559,1.512-1.141,2.919-1.746,4.22
		h-2.14c0.308-1.188,0.647-2.654,1.019-4.399c0.371-1.746,0.63-3.145,0.779-4.194H490.937z"/>
	<path fill="#3F3F3F" d="M520.516,71.063h-3.705v5.719h-2.717v-5.719h-12.144v-2.481l11.853-16.925h3.008v16.813h3.705V71.063z
		 M514.094,68.469v-8.313c0-1.63,0.057-3.471,0.171-5.523h-0.137c-0.547,1.094-1.059,2.001-1.537,2.719l-7.804,11.117H514.094z"/>
	<path fill="#3F3F3F" d="M532.742,76.781h-2.769V58.963c0-1.481,0.045-2.884,0.137-4.206c-0.239,0.239-0.507,0.49-0.803,0.753
		c-0.296,0.262-1.651,1.373-4.064,3.334l-1.503-1.949l6.61-5.113h2.393V76.781z"/>
	<path fill="#3F3F3F" d="M559.141,71.063h-3.705v5.719h-2.717v-5.719h-12.144v-2.481l11.853-16.925h3.008v16.813h3.705V71.063z
		 M552.719,68.469v-8.313c0-1.63,0.057-3.471,0.171-5.523h-0.137c-0.547,1.094-1.059,2.001-1.537,2.719l-7.804,11.117H552.719z"/>
	<path fill="#3F3F3F" d="M560.587,68.691v-2.598h8.382v2.598H560.587z"/>
	<path fill="#3F3F3F" d="M589.015,71.063h-3.705v5.719h-2.717v-5.719H570.45v-2.481l11.853-16.925h3.008v16.813h3.705V71.063z
		 M582.593,68.469v-8.313c0-1.63,0.057-3.471,0.171-5.523h-0.137c-0.547,1.094-1.059,2.001-1.537,2.719l-7.804,11.117H582.593z"/>
	<path fill="#3F3F3F" d="M607.148,76.781h-16.413v-2.443l6.575-6.609c2.003-2.027,3.324-3.474,3.961-4.339s1.116-1.708,1.435-2.528
		s0.479-1.702,0.479-2.647c0-1.332-0.404-2.388-1.212-3.169c-0.809-0.779-1.93-1.17-3.364-1.17c-1.036,0-2.019,0.171-2.946,0.513
		s-1.961,0.963-3.099,1.862l-1.503-1.931c2.3-1.921,4.805-2.882,7.515-2.882c2.346,0,4.185,0.602,5.517,1.804
		s1.999,2.817,1.999,4.847c0,1.584-0.444,3.15-1.332,4.701c-0.888,1.549-2.55,3.51-4.986,5.88l-5.464,5.351v0.137h12.841V76.781z"/>
	<path fill="#3F3F3F" d="M610.338,66.102c0-4.91,0.954-8.582,2.861-11.016c1.907-2.432,4.728-3.648,8.463-3.648
		c1.286,0,2.3,0.108,3.04,0.325v2.446c-0.877-0.285-1.878-0.428-3.005-0.428c-2.676,0-4.719,0.835-6.131,2.504
		c-1.412,1.67-2.186,4.294-2.322,7.872h0.205c1.252-1.959,3.233-2.938,5.942-2.938c2.243,0,4.01,0.678,5.302,2.033
		s1.938,3.195,1.938,5.519c0,2.597-0.709,4.639-2.126,6.125c-1.418,1.486-3.333,2.229-5.747,2.229c-2.585,0-4.634-0.971-6.148-2.914
		C611.095,72.269,610.338,69.565,610.338,66.102z M618.724,74.719c1.616,0,2.871-0.51,3.765-1.527c0.894-1.02,1.34-2.49,1.34-4.414
		c0-1.649-0.416-2.947-1.247-3.892s-2.071-1.417-3.722-1.417c-1.024,0-1.964,0.211-2.817,0.632s-1.534,1.001-2.04,1.741
		c-0.507,0.74-0.76,1.508-0.76,2.305c0,1.172,0.228,2.266,0.683,3.277c0.455,1.014,1.101,1.815,1.938,2.407
		C616.701,74.423,617.654,74.719,618.724,74.719z"/>
	<path fill="#3F3F3F" d="M633.644,72.719l0.256,0.394c-0.297,1.142-0.725,2.468-1.284,3.98c-0.559,1.512-1.141,2.919-1.746,4.22
		h-2.14c0.308-1.188,0.647-2.654,1.019-4.399c0.371-1.746,0.63-3.145,0.779-4.194H633.644z"/>
	<path fill="#3F3F3F" d="M662.044,76.781h-16.413v-2.443l6.575-6.609c2.003-2.027,3.324-3.474,3.961-4.339s1.116-1.708,1.435-2.528
		s0.479-1.702,0.479-2.647c0-1.332-0.404-2.388-1.212-3.169c-0.809-0.779-1.93-1.17-3.364-1.17c-1.036,0-2.019,0.171-2.946,0.513
		s-1.961,0.963-3.099,1.862l-1.503-1.931c2.3-1.921,4.805-2.882,7.515-2.882c2.346,0,4.185,0.602,5.517,1.804
		s1.999,2.817,1.999,4.847c0,1.584-0.444,3.15-1.332,4.701c-0.888,1.549-2.55,3.51-4.986,5.88l-5.464,5.351v0.137h12.841V76.781z"/>
	<path fill="#3F3F3F" d="M681.493,64.258c0,4.317-0.681,7.541-2.041,9.672c-1.361,2.131-3.441,3.195-6.242,3.195
		c-2.688,0-4.731-1.091-6.132-3.272s-2.101-5.38-2.101-9.595c0-4.353,0.677-7.582,2.032-9.689s3.422-3.162,6.2-3.162
		c2.709,0,4.768,1.1,6.174,3.299C680.79,56.903,681.493,60.088,681.493,64.258z M667.848,64.264c0,3.635,0.427,6.28,1.28,7.938
		c0.854,1.658,2.214,2.486,4.081,2.486c1.889,0,3.258-0.84,4.106-2.521c0.848-1.681,1.272-4.314,1.272-7.903
		c0-3.588-0.424-6.217-1.272-7.885c-0.848-1.67-2.217-2.504-4.106-2.504c-1.867,0-3.228,0.823-4.081,2.469
		C668.275,57.99,667.848,60.631,667.848,64.264z"/>
	<path fill="#3F3F3F" d="M700.805,64.258c0,4.317-0.681,7.541-2.041,9.672c-1.361,2.131-3.441,3.195-6.242,3.195
		c-2.688,0-4.731-1.091-6.132-3.272s-2.101-5.38-2.101-9.595c0-4.353,0.677-7.582,2.032-9.689s3.422-3.162,6.2-3.162
		c2.709,0,4.768,1.1,6.174,3.299C700.102,56.903,700.805,60.088,700.805,64.258z M687.161,64.264c0,3.635,0.427,6.28,1.28,7.938
		c0.854,1.658,2.214,2.486,4.081,2.486c1.889,0,3.258-0.84,4.106-2.521c0.848-1.681,1.272-4.314,1.272-7.903
		c0-3.588-0.424-6.217-1.272-7.885c-0.848-1.67-2.217-2.504-4.106-2.504c-1.867,0-3.228,0.823-4.081,2.469
		C687.587,57.99,687.161,60.631,687.161,64.264z"/>
	<path fill="#3F3F3F" d="M711.373,61.5c2.631,0,4.699,0.653,6.209,1.959c1.508,1.307,2.262,3.096,2.262,5.365
		c0,2.59-0.822,4.621-2.468,6.094c-1.646,1.471-3.914,2.207-6.807,2.207c-2.813,0-4.959-0.449-6.439-1.347v-2.731
		c0.797,0.513,1.787,0.914,2.971,1.205s2.351,0.436,3.501,0.436c2.005,0,3.562-0.475,4.671-1.422c1.11-0.949,1.666-2.32,1.666-4.114
		c0-3.497-2.135-5.245-6.405-5.245c-1.082,0-2.527,0.166-4.337,0.496l-1.469-0.939l0.939-11.682h12.417v2.625h-9.991l-0.632,7.486
		C708.771,61.631,710.075,61.5,711.373,61.5z"/>
	<path fill="#3F3F3F" d="M723.768,74.977c0-0.762,0.174-1.339,0.521-1.731s0.846-0.589,1.496-0.589c0.66,0,1.176,0.196,1.546,0.589
		s0.556,0.97,0.556,1.731c0,0.74-0.188,1.309-0.564,1.707c-0.375,0.398-0.889,0.598-1.537,0.598c-0.582,0-1.063-0.18-1.445-0.537
		C723.959,76.385,723.768,75.797,723.768,74.977z"/>
</g>
</svg>
