<?xml version="1.0" encoding="iso-8859-1"?>
<!-- Uploaded to: SVG Repo, www.svgrepo.com, Generator: SVG Repo Mixer Tools -->
<svg fill="#000000" height="800px" width="800px" version="1.1" id="Layer_1" xmlns="http://www.w3.org/2000/svg" xmlns:xlink="http://www.w3.org/1999/xlink" 
	 viewBox="0 0 481.882 481.882" xml:space="preserve">
<g>
	<g>
		<path d="M326.626,0.038H155.256c-15.059,0-27.332,12.273-27.332,27.332v171.369c0,15.134,12.273,27.407,27.332,27.407h171.369
			c15.059,0,27.332-12.273,27.332-27.407V27.369C353.958,12.311,341.685,0.038,326.626,0.038z M277.192,172.984l-11.147-25.879
			h-50.223l-11.146,25.879H176.23l51.771-119.822h25.879l51.771,119.822H277.192z"/>
	</g>
</g>
<g>
	<g>
		<polygon points="241.017,88.82 225.937,123.613 255.931,123.613 		"/>
	</g>
</g>
<g>
	<g>
		<path d="M454.551,255.811H283.181c-15.134,0-27.407,12.274-27.407,27.333v171.369c0,15.059,12.273,27.332,27.407,27.332h171.369
			c15.059,0,27.332-12.273,27.332-27.332V283.144C481.882,268.085,469.609,255.811,454.551,255.811z M350.41,395.661
			c6.737,6.752,14.913,10.114,24.51,10.114c13.141,0,23.883-5.189,32.226-15.596l17.145,17.661
			c-13.602,15.318-29.63,22.963-48.088,22.963c-18.456,0-33.648-5.818-45.591-17.48c-11.941-11.663-17.912-26.367-17.912-44.14
			c0-17.772,6.082-32.602,18.248-44.487c12.179-11.886,27.064-17.829,44.657-17.829c19.655,0,36.117,7.49,49.371,22.459
			l-16.629,18.847c-8.454-10.504-18.973-15.763-31.542-15.763c-10.059,0-18.652,3.293-25.795,9.863
			c-7.143,6.572-10.714,15.415-10.714,26.562S343.671,388.922,350.41,395.661z"/>
	</g>
</g>
<g>
	<g>
		<path d="M121.623,334.116c-3.32-1.714-8.914-2.566-16.81-2.566H91.965v25.878h12.681c7.422,0,12.946-0.795,16.546-2.4
			c3.598-1.589,5.399-5.05,5.399-10.365S124.93,335.834,121.623,334.116z"/>
	</g>
</g>
<g>
	<g>
		<path d="M198.701,255.811H27.332C12.273,255.811,0,268.085,0,283.144v171.369c0,15.059,12.273,27.332,27.332,27.332h171.369
			c15.134,0,27.407-12.273,27.407-27.332V283.144C226.108,268.085,213.835,255.811,198.701,255.811z M152.301,417.598
			c-6.626,7.436-18.163,11.147-34.625,11.147H65.221V308.922h46.624c8.118,0,15.109,0.963,20.995,2.915
			c5.887,1.939,10.324,4.562,13.295,7.882c5.372,6.167,8.05,13.142,8.05,20.912c0,9.375-3.028,16.351-9.082,20.912
			c-2.05,1.604-3.488,2.61-4.283,3c-0.809,0.405-2.232,1.06-4.283,1.967c7.422,1.604,13.337,4.952,17.73,10.031
			c4.409,5.091,6.6,11.398,6.6,18.945C160.867,403.829,158.021,411.208,152.301,417.598z"/>
	</g>
</g>
<g>
	<g>
		<path d="M127.19,381.173c-4.059-1.772-10.546-2.651-19.461-2.651H91.965v27.595h18.345c7.645,0,13.392-0.949,17.214-2.832
			c3.836-1.883,5.748-5.594,5.748-11.133C133.273,386.6,131.25,382.944,127.19,381.173z"/>
	</g>
</g>
</svg>