<?xml version="1.0" encoding="utf-8"?>
<!-- Generator: Adobe Illustrator 22.0.0, SVG Export Plug-In . SVG Version: 6.00 Build 0)  -->
<svg version="1.1" id="lni_lni-folder" xmlns="http://www.w3.org/2000/svg" xmlns:xlink="http://www.w3.org/1999/xlink" x="0px"
	 y="0px" viewBox="0 0 64 64" style="enable-background:new 0 0 64 64;" xml:space="preserve" overflow="visible">
<path d="M61,19.6v-6.3c0-3.4-2.7-6.1-6.1-6.1H32.7l-0.3-0.8c-0.7-1.8-2.4-2.9-4.3-2.9H7.9c-3.4,0-6.1,2.7-6.1,6.1v41.9
	c0,3.4,2.7,6.1,6.1,6.1h48.3c3.4,0,6.1-2.7,6.1-6.1V22.7C62.3,21.5,61.8,20.4,61,19.6z M54.9,11.6c0.9,0,1.6,0.7,1.6,1.6v1.9H35.9
	l-1.4-3.5H54.9z M57.8,51.5c0,0.9-0.7,1.6-1.6,1.6H7.9c-0.9,0-1.6-0.7-1.6-1.6V9.5c0-0.9,0.7-1.6,1.6-1.6L28.2,8l4.1,10.2
	c0.3,0.9,1.2,1.4,2.1,1.4h23.3c0,0,0.1,0,0.1,0.1V51.5z"/>
<!--	<circle cx="1.8" cy="12.6" r="1.3" stroke="green" stroke-width="0.75" fill="yellow" />-->
<!--	<circle cx="1.8" cy="51.5" r="1.3" stroke="green" stroke-width="0.75" fill="orange" />-->
<!--	<circle cx="7.9" cy="57.6" r="1.3" stroke="green" stroke-width="0.75" fill="red" />-->
<!--	<circle cx="56.2" cy="57.6" r="1.3" stroke="green" stroke-width="0.75" fill="cyan" />-->
<!--	<circle cx="62.3" cy="51.5" r="1.3" stroke="green" stroke-width="0.75" fill="blue" />-->
<!--	<circle cx="62.3" cy="22.7" r="1.3" stroke="green" stroke-width="0.75" fill="blue" />-->
<!--	<circle cx="61" cy="19.6" r="1.3" stroke="green" stroke-width="0.75" fill="gray" />-->
<!--	<circle cx="61" cy="16.3" r="1.3" stroke="green" stroke-width="0.75" fill="pink" />-->
<!--	<circle cx="54.9" cy="10.2" r="1.3" stroke="green" stroke-width="0.75" fill="magenta" />-->
<!--	<circle cx="32.7" cy="10.2" r="1.3" stroke="green" stroke-width="0.75" fill="white" />-->
<!--	<circle cx="54.9" cy="14.6" r="1.3" stroke="green" stroke-width="0.75" fill="gray" />-->
<!--	<circle cx="57.8" cy="51.5" r="1.3" stroke="green" stroke-width="0.75" fill="gray" />-->
<!--	<circle cx="57.8" cy="51.5" r="1.3" stroke="green" stroke-width="0.75" fill="gray" />-->
	<path style="fill: #000000"  transform="matrix(0.6, 0, 0, 0.6, -32, -32) translate(75,80)" d="M30.3,56.9c-0.8,0-1.6-0.3-2.3-0.8L4.1,36.9c-1.5-1.2-2.4-3-2.4-4.9c0-1.9,0.9-3.7,2.4-4.9L28,7.9c1.1-0.9,2.6-1,3.8-0.4
		c1.3,0.6,2,1.9,2,3.3V21c8.1,1.3,15.5,4.9,21.1,10.4c3.9,4,5.8,7.7,6.9,13.3c0.2,1.2,0.4,3.4,0.4,6.3c0,1.3-0.7,2.6-1.9,3.2
		c-1.2,0.6-2.6,0.6-3.7-0.1c-8.4-5.4-16.2-8.7-22.8-9.7v9c0,1.4-0.8,2.6-2,3.3C31.3,56.8,30.8,56.9,30.3,56.9z "/>
	<path style="fill: #666666"  transform="matrix(0.6, 0, 0, 0.6, -32, -32) translate(75,80)" d="M29.4,12.6l-22.4,18
		C6.3,31,6.2,31.7,6.2,32s0.1,0.9,0.7,1.4l22.4,18v-9.6c0-0.6,0.3-1.2,0.7-1.6c0.5-0.4,1.1-0.7,1.7-0.6c9.3,0.6,19,5.4,26,9.8
		c-0.1-2.3-0.2-3.4-0.3-3.8c-0.9-4.7-2.4-7.6-5.7-11c-5.3-5.2-12.5-8.6-20.4-9.4c-1.1-0.1-2-1.1-2-2.2V12.6z"/>
<!--	<path transform="matrix(0.6, 0, 0, 0.6, -32, -32) translate(75,80)" d="M30.3,56.9c-0.8,0-1.6-0.3-2.3-0.8L4.1,36.9c-1.5-1.2-2.4-3-2.4-4.9c0-1.9,0.9-3.7,2.4-4.9L28,7.9c1.1-0.9,2.6-1,3.8-0.4-->
<!--		c1.3,0.6,2,1.9,2,3.3V21c8.1,1.3,15.5,4.9,21.1,10.4c3.9,4,5.8,7.7,6.9,13.3c0.2,1.2,0.4,3.4,0.4,6.3c0,1.3-0.7,2.6-1.9,3.2-->
<!--		c-1.2,0.6-2.6,0.6-3.7-0.1c-8.4-5.4-16.2-8.7-22.8-9.7v9c0,1.4-0.8,2.6-2,3.3C31.3,56.8,30.8,56.9,30.3,56.9z M29.4,12.6l-22.4,18-->
<!--		C6.3,31,6.2,31.7,6.2,32s0.1,0.9,0.7,1.4l22.4,18v-9.6c0-0.6,0.3-1.2,0.7-1.6c0.5-0.4,1.1-0.7,1.7-0.6c9.3,0.6,19,5.4,26,9.8-->
<!--		c-0.1-2.3-0.2-3.4-0.3-3.8c-0.9-4.7-2.4-7.6-5.7-11c-5.3-5.2-12.5-8.6-20.4-9.4c-1.1-0.1-2-1.1-2-2.2V12.6z"/>-->

</svg>
