<?xml version="1.0" encoding="utf-8"?>
<!-- Generator: Adobe Illustrator 22.0.0, SVG Export Plug-In . SVG Version: 6.00 Build 0)  -->
<svg version="1.1" id="lni_lni-folder" xmlns="http://www.w3.org/2000/svg" xmlns:xlink="http://www.w3.org/1999/xlink" x="0px"
	 y="0px" viewBox="0 0 64 64" style="enable-background:new 0 0 64 64;" xml:space="preserve">
<path fill="rgb(135,129,67)" d="M61,16.6v-6.3c0-3.4-2.7-6.1-6.1-6.1H32.7l-0.3-0.8c-0.7-1.8-2.4-2.9-4.3-2.9H7.9c-3.4,0-6.1,2.7-6.1,6.1v38.9
	c0,3.4,2.7,6.1,6.1,6.1h48.3c3.4,0,6.1-2.7,6.1-6.1V16.7C62.3,15.5,61.8,14.4,61,13.6z M54.9,8.6c0.9,0,1.6,0.7,1.6,1.6v1.9H35.9
	l-1.4-3.5H54.9z M57.8,45.5c0,0.9-0.7,1.6-1.6,1.6H7.9c-0.9,0-1.6-0.7-1.6-1.6V6.5c0-0.9,0.7-1.6,1.6-1.6L28.2,5l4.1,10.2
	c0.3,0.9,1.2,1.4,2.1,1.4h23.3c0,0,0.1,0,0.1,0.1V45.5z"/>
</svg>
