<svg xmlns="http://www.w3.org/2000/svg" viewBox="0 0 152 222" overflow="visible"
     style="enable-background:new 0 0 152 222;" xml:space="preserve" onload='Init(evt)'>
     <defs>
        <style type="text/css">
        @font-face {
          font-family: regular;
          src: url('OpenSans-Regular.ttf');
        }
        @font-face {
          font-family: bold;
          src: url('OpenSans-Semibold.ttf');
        }
        </style>
    </defs>
   <script type='text/ecmascript'><![CDATA[
      var SVGDocument = null;
      var SVGRoot = null;

      function Init(evt) {
         SVGDocument = evt.target.ownerDocument;
         SVGRoot = SVGDocument.documentElement;
      }

      function ToggleVisibility(evt, targetId) {
         var newTarget = SVGDocument.getElementById(targetId);
         var newValue = newTarget.getAttributeNS(null, 'visibility');
         var gear = SVGDocument.getElementById("gearback")
         newValue = ('hidden' != newValue) ? 'hidden' : 'visible';
         gear.setAttributeNS(null, 'fill', ('hidden' != newValue) ? 'rgb(251,252,251)' : 'rgb(255,255,255)');
         newTarget.setAttributeNS(null, 'visibility', newValue);
         <!--SVGDocument.getElementById(targetId + 'Exception').setAttributeNS(null, 'visibility', 'visible');-->
      }

      function selectSVG(evt) {
         var svg = SVGDocument.getElementById("svg");
         svg.setAttributeNS(null, 'fill', "rgb(220,209,109)");
      }

      function selectedSVG(evt) {
         var svg = SVGDocument.getElementById("svg");
         svg.setAttributeNS(null, 'fill', "#FBFCFB");
         <!-- action when selected SVG -->
      }

   ]]></script>

    <g id="menu_frame" visibility='visible'>
       <path  fill="#FBFCFB" stroke="rgb(135,129,67)" stroke-width="2"
          d="M6,1 h140 a5,5,0,0,1,5,5 v210 a5,5,0,0,1,-5,5 h-140 a5,5,0,0,1,-5,-5 V6 a5,5,0,0,1, 5,-5 Z"
       />
        <g  fill="rgb(135,129,67)" font-size="7" font-family="regular">
            <text font-size="11" transform="translate(35, 20)" font-family="'bold'">Options Menu</text>
            <path id="svg" fill="#FBFCFB" d="M2,32 H150 v33 H2 v-33z" />
            <g transform="translate(20,30)">
                <g transform="scale(0.02,0.02)">
                    <g id="stars">
                        <path id="black-star" fill="rgb(135,129,67)" d="M922.805,504.311c0-67.821-54.983-122.805-122.936-122.805
                            c-67.896,0-122.898,54.983-122.898,122.805c-47.861-47.955-125.705-47.955-173.584,0c-48.039,48.048-48.039,125.826,0,173.837
                            c-67.887,0-122.964,54.983-122.964,122.795c0,67.849,55.087,122.917,122.964,122.917c-48.039,47.955-48.039,125.705,0,173.753
                            c47.879,47.898,125.723,47.898,173.584,0c0,67.831,54.993,122.777,122.898,122.777c67.944,0,122.936-54.946,122.936-122.777
                            c48.029,47.898,125.901,47.898,173.734,0c47.87-48.048,47.87-125.845,0-173.753c67.718,0,122.758-55.076,122.758-122.917
                            c0-67.822-55.04-122.795-122.758-122.795c47.87-48.039,47.87-125.808,0-173.837
                            C1048.706,456.356,970.853,456.356,922.805,504.311z"/>
                                <path id="white-star" fill="#FBFCFB" d="M846.95,551.421v135.962l96.257-96.219c0-17.004,6.484-33.953,19.388-46.969
                            c26.089-26.004,68.271-26.004,94.069,0c26.004,25.957,26.004,68.084,0,94.097c-12.922,12.904-29.982,19.445-47.063,19.445
                            l-96.04,96.171h135.97c12.106-12.012,28.661-19.482,47.026-19.482c36.599,0,66.423,29.833,66.423,66.507
                            c0,36.656-29.824,66.517-66.423,66.517c-18.365,0-34.92-7.488-47.026-19.445H913.552l95.993,96.135
                            c17.117,0,34.179,6.513,47.063,19.576c26.033,25.892,26.033,68.037,0,93.938c-25.807,26.032-67.934,26.032-94.079,0
                            c-12.875-12.876-19.369-29.956-19.369-46.95l-96.237-96.21v136.065c11.928,11.975,19.558,28.659,19.558,47.044
                            c0,36.655-29.814,66.413-66.611,66.413c-36.777,0-66.574-29.72-66.574-66.413c0-18.385,7.611-35.022,19.53-47.044V914.495
                            l-96.05,96.21c0,17.004-6.615,34.037-19.557,46.95c-25.985,26.013-68.046,26.013-94.07,0c-26.042-25.938-26.042-68.065,0-93.958
                            c12.923-13.044,30.162-19.575,47.035-19.575l96.256-96.116H550.505c-12.096,11.975-28.829,19.445-47.063,19.445
                            c-36.759,0-66.592-29.843-66.592-66.517c0-36.674,29.814-66.507,66.592-66.507c18.206,0,34.958,7.47,47.063,19.482h135.961
                            l-96.247-96.152c-16.864,0-34.084-6.542-47.035-19.436c-26.042-26.014-26.042-68.131,0-94.098
                            c26.023-26.004,68.094-26.004,94.098,0c12.904,13.007,19.548,29.983,19.548,46.969l96.05,96.209V551.439
                            c-11.918-12.078-19.539-28.65-19.539-47.138c0-36.674,29.796-66.433,66.592-66.433c36.778,0,66.601,29.73,66.601,66.433
                            C866.517,522.808,858.878,539.353,846.95,551.421z"/>
                    </g>
                    <g id="svg-textbox">
                        <path id="text-backdrop" fill="rgb(135,129,67)" d="M380.516,801h838.781v375.377c0,31.281-15.642,46.923-46.923,46.923H427.438
                        c-31.281,0-46.922-15.642-46.922-46.923V801z"/>
                        <g id="svg-text">
                            <path id="S" fill="#FFFFFF" stroke="rgb(135,129,67)" stroke-width="0.5035" d="M502.626,1016.157
                            c-19.735-19.773-31.973-47.186-31.973-77.45c0-60.482,49.015-109.535,109.479-109.535c60.493,0,109.488,49.034,109.488,109.535
                            h-64.114c0-25.094-20.346-45.392-45.374-45.392c-24.99,0-45.401,20.298-45.401,45.392c0,12.557,5.151,23.799,13.279,32.095l0,0
                            c8.287,8.202,19.717,13.186,32.123,13.186v0.112c30.331,0,57.667,12.284,77.356,32.058l0,0
                            c19.876,19.811,32.132,47.241,32.132,77.402c0,60.567-48.996,109.61-109.488,109.61c-60.454,0-109.479-49.006-109.479-109.61
                            h64.077c0,25.142,20.412,45.374,45.402,45.374c25.028,0,45.374-20.232,45.374-45.374c0-12.472-5.114-23.714-13.411-31.973l0,0
                            c-8.108-8.259-19.538-13.308-31.963-13.308l0,0C549.82,1048.279,522.493,1035.949,502.626,1016.157L502.626,1016.157
                            L502.626,1016.157z"/>
                                <polygon id="V" fill="#FBFCFB" stroke="rgb(135,129,67)" stroke-width="0.5035" points="908.747,829.2 831.382,1203.16 767.098,1203.16
                            689.602,829.2 753.848,829.2 799.249,1048.205 844.623,829.2 				"/>
                                <path id="G" fill="#FBFCFB" stroke="rgb(135,129,67)" stroke-width="0.5035" d="M1018.235,984.118h109.638v109.46l0,0
                            c0,60.549-49.043,109.592-109.507,109.592c-60.445,0-109.479-49.043-109.479-109.592l0,0V938.727h-0.159
                            c0-60.502,49.184-109.573,109.487-109.573c60.614,0,109.639,49.033,109.639,109.573h-64.274
                            c0-25.095-20.195-45.394-45.364-45.394c-24.84,0-45.232,20.299-45.232,45.394v154.852l0,0c0,25.104,20.393,45.393,45.232,45.393
                            c25.169,0,45.364-20.289,45.364-45.298v-0.113v-45.298h-45.364L1018.235,984.118L1018.235,984.118z"/>
                        </g>
                    </g>
                </g>
            </g>
            <path stroke="rgb(135,129,67)" stroke-width="0.5" d="M0,32 H151"/>
            <path stroke="rgb(135,129,67)" stroke-width="0.5" d="M0,65 H151"/>
            <path stroke="rgb(135,129,67)" stroke-width="0.5" d="M0,98 H151"/>
            <path stroke="rgb(135,129,67)" stroke-width="0.5" d="M0,131 H151"/>
            <path stroke="rgb(135,129,67)" stroke-width="0.5" d="M0,164 H151"/>
            <path stroke="rgb(135,129,67)" stroke-width="0.5" d="M0,197 H151"/>

            <path d="M2,32 H150 v33 H2 v-33z"
                  onmousedown="selectSVG(evt)" onmouseup="selectedSVG(evt)" opacity="0"
            />
            <g transform="translate(17,70) scale(0.55,0.55)" >
                <path d="M36.807 0c.861.243 1.31.451 1.853.832L28.131 13.095c2.874 1.871 5.89
                6.528 4.254 10.323.805 -5.147-4.522-9.007-7.653-9.492L36.807 0z" fill="rgb(135,129,67)"/>

                <path d="M28.399 28.34c1.957.09 3.905.135 5.946.135 4.399 0 8.621-.213 12.579-.596
                a3.152 3.152 0 0 0 2.817-2.771c.32-2.645.47-5.418.47-8.27 0-2.851-.149-5.624-.47-8.27
                a3.156 3.156 0 0 0-2.817-2.772c-1.728-.166-3.509-.3-5.332-.4 0 0-7.548 16.346-8.308 18.03
                -1.122 2.482-2.657 4.301-4.885 4.914z" fill="rgb(135,129,67)"/>

                <path d="M21.766 27.879c-1.465-.24-2.61-1.078-2.816-2.771-.321-2.645-.472-5.418-.472-8.27
                0-2.851.151-5.624.472-8.27a3.153 3.153 0 0 1 2.816-2.772c2.034-.195 4.139-.346 6.301
                -.448l3.851-4.307c-.024.005.911-.168 1.727.033l-13.428 15.63c2.907-1.385 11.422.776
                11.422 5.828 0 5.4-5.861 6.005-9.873 5.347z" fill="rgb(135,129,67)"/>

                <path transform="translate(-13,0)"
                      d="M28.707 32.963a6.583 6.583 0 0 1 1.531-.164c.859 0 1.563.176 2.047.641.444.424.668 1.074
                .668 1.814 0 .84-.224 1.41-.591 1.859-.492.617-1.309.916-2.048.916-.157 0-.278 0-.408-.014
                v3.416h-1.204l.005-8.468z
                m1.205 4.055c.103.018.208.025.353.025.919 0 1.476-.623 1.476-1.697 0-.84-.343-1.562-1.329
                -1.562-.203 0-.376.025-.5.064v3.17zM35.291 41.533c-1.234 0-2.133-1.064-2.133-3.186 0-2.246
                1.066-3.211 2.187-3.211 1.222 0 2.108 1.1 2.108 3.188 0 2.457-1.219 3.209-2.15 3.209h-.012z
                m.032-.945c.743 0 .905-1.311.905-2.258 0-.918-.162-2.248-.932-2.248-.784 0-.94 1.33-.94
                2.248 0 1.035.18 2.258.953 2.258h.014z
                M38.118 40.25c.228.146.636.324 1.042.324.514 0 .834-.291.834-.783 0-.42-.178-.703-.771-1.088
                -.877-.537-1.254-1.109-1.254-1.77 0-1.043.769-1.797 1.822-1.797.495 0 .875.148 1.155.309
                l-.272.902a1.484 1.484 0 0 0-.838-.271c-.492 0-.74.342-.74.703 0 .367.154.576.756.971.78
                .479 1.269 1.072 1.269 1.883 0 1.25-.867 1.875-1.975 1.875-.474 0-1.014-.139-1.285-.355
                l.257-.903z
                M43.287 33.734v1.504h1.196v.893h-1.196v3.396c0 .777.292.977.639.977.159 0 .286-.014.411
                -.037l.035.941c-.195.062-.466.1-.827.1-.42 0-.79-.107-1.047-.381-.279-.297-.421-.73-.421
                -1.627v-3.369h-.747v-.893h.747v-1.066l1.21-.438z
                M44.973 40.104c.309.191.852.346 1.294.346.862 0 1.352-.531 1.352-1.299 0-.734-.438-1.162
                -1.13-1.654-.842-.557-1.618-1.391-1.618-2.391 0-1.328.911-2.346 2.42-2.346.546 0 1.031.166
                1.252.312l-.248 1.039a1.903 1.903 0 0 0-1.045-.293c-.8 0-1.181.57-1.181 1.117 0 .738.384
                1.055 1.236 1.625 1.069.717 1.513 1.535 1.513 2.469 0 1.518-1.081 2.479-2.55 2.479-.623 0
                -1.258-.186-1.516-.365l.221-1.039z
                M52.579 41.293c-.201.113-.585.215-1.035.215-1.423 0-2.377-1.09-2.377-3.131 0-1.822.977-3.229
                2.582-3.229.353 0 .709.09.883.188l-.203.969a1.63 1.63 0 0 0-.675-.15c-.925 0-1.376 1.039
                -1.376 2.209 0 1.336.53 2.146 1.387 2.146.256 0 .475-.053.682-.156l.132.939z
                M53.363 36.928c0-.555-.033-1.188-.051-1.689h1.066l.062.949h.036c.225-.613.741-1.051 1.273
                -1.051.115 0 .182.008.255.018v1.219c-.085-.01-.164-.01-.267-.01-.531 0-1.002.465-1.129 1.152
                a3.036 3.036 0 0 0-.051.582v3.334H53.35l.013-4.504z
                M56.71 35.238h1.21v6.193h-1.21v-6.193z
                m.573-.998c-.401 0-.719-.32-.715-.797-.004-.488.327-.801.732-.801.436 0 .741.312.741.801
                .005.477-.306.797-.746.797h-.012z
                M58.959 37.18c0-.883-.032-1.455-.051-1.941h1.066l.062.764h.023c.312-.609.791-.865 1.308
                -.865 1.169 0 1.832 1.256 1.832 3.186 0 2.27-.955 3.211-1.949 3.211-.554 0-.89-.348-1.061
                -.678h-.027v3.023h-1.204v-6.7h.001zm1.204 1.982c0 .189.019.373.062.514.171.717.536.854.778
                .854.739 0 .985-1.033.985-2.189 0-1.25-.303-2.176-.987-2.176-.383 0-.726.451-.789.926a1.912
                1.912 0 0 0-.049.461v1.61z
                M65.203 33.734v1.504H66.4v.893h-1.197v3.396c0 .777.293.977.638.977.16 0 .287-.014.413-.037
                l.033.941c-.194.062-.464.1-.825.1-.42 0-.79-.107-1.047-.381-.28-.297-.422-.73-.422-1.627
                v-3.369h-.745v-.893h.745v-1.066l1.21-.438z"/>
            </g>
            <g transform="translate(26,105) scale(0.04,0.04)">
                <path d="M326.626,0.038H155.256c-15.059,0-27.332,12.273-27.332,27.332v171.369c0,15.134,12.273,27.407,27.332,27.407h171.369
                c15.059,0,27.332-12.273,27.332-27.407V27.369C353.958,12.311,341.685,0.038,326.626,0.038z M277.192,172.984l-11.147-25.879
                h-50.223l-11.146,25.879H176.23l51.771-119.822h25.879l51.771,119.822H277.192z"/>
                <polygon points="241.017,88.82 225.937,123.613 255.931,123.613 		"/>
                <path d="M454.551,255.811H283.181c-15.134,0-27.407,12.274-27.407,27.333v171.369c0,15.059,12.273,27.332,27.407,27.332h171.369
                c15.059,0,27.332-12.273,27.332-27.332V283.144C481.882,268.085,469.609,255.811,454.551,255.811z M350.41,395.661
                c6.737,6.752,14.913,10.114,24.51,10.114c13.141,0,23.883-5.189,32.226-15.596l17.145,17.661
                c-13.602,15.318-29.63,22.963-48.088,22.963c-18.456,0-33.648-5.818-45.591-17.48c-11.941-11.663-17.912-26.367-17.912-44.14
                c0-17.772,6.082-32.602,18.248-44.487c12.179-11.886,27.064-17.829,44.657-17.829c19.655,0,36.117,7.49,49.371,22.459
                l-16.629,18.847c-8.454-10.504-18.973-15.763-31.542-15.763c-10.059,0-18.652,3.293-25.795,9.863
                c-7.143,6.572-10.714,15.415-10.714,26.562S343.671,388.922,350.41,395.661z"/>
                <path d="M121.623,334.116c-3.32-1.714-8.914-2.566-16.81-2.566H91.965v25.878h12.681c7.422,0,12.946-0.795,16.546-2.4
			    c3.598-1.589,5.399-5.05,5.399-10.365S124.93,335.834,121.623,334.116z"/>
                <path d="M198.701,255.811H27.332C12.273,255.811,0,268.085,0,283.144v171.369c0,15.059,12.273,27.332,27.332,27.332h171.369
                c15.134,0,27.407-12.273,27.407-27.332V283.144C226.108,268.085,213.835,255.811,198.701,255.811z M152.301,417.598
                c-6.626,7.436-18.163,11.147-34.625,11.147H65.221V308.922h46.624c8.118,0,15.109,0.963,20.995,2.915
                c5.887,1.939,10.324,4.562,13.295,7.882c5.372,6.167,8.05,13.142,8.05,20.912c0,9.375-3.028,16.351-9.082,20.912
                c-2.05,1.604-3.488,2.61-4.283,3c-0.809,0.405-2.232,1.06-4.283,1.967c7.422,1.604,13.337,4.952,17.73,10.031
                c4.409,5.091,6.6,11.398,6.6,18.945C160.867,403.829,158.021,411.208,152.301,417.598z"/>
                <path d="M127.19,381.173c-4.059-1.772-10.546-2.651-19.461-2.651H91.965v27.595h18.345c7.645,0,13.392-0.949,17.214-2.832
			    c3.836-1.883,5.748-5.594,5.748-11.133C133.273,386.6,131.25,382.944,127.19,381.173z"/>
            </g>
            <text transform="translate(52,51)">Save glyph as SVG file</text>
            <text transform="translate(52,84)">Save glyph as EPS file</text>
            <text transform="translate(52,117)">Read otf or ttf font file</text>
        </g>
    </g>
    <g transform="matrix(0.38 0 0 0.38 124 3)">
        <path id="gearback" fill="rgb(255,255,255)" onclick='ToggleVisibility(evt,"menu_frame")'
              d="M60.7,38.1l-5.6-3.1c0.2-1.1,0.3-2.2,0.3-3.3c0-1.2-0.1-2.3-0.2-3.4l5.7-3.2c1.3-0.7,1.8-2.3,1.2-3.7l-5.8-9.8
                c-0.7-1.2-2.3-1.7-3.6-1.2l-6,3.3c-0.3-0.2-0.6-0.5-0.8-0.7c-1.1-0.9-2.1-1.8-3.7-2.6c-0.1,0-0.2-0.1-0.2-0.3V6.5
                c0-2.6-2.1-4.8-4.8-4.8H26.9c-2.6,0-4.8,2.2-4.8,4.8l0,3.9c0,0.1-0.1,0.2-0.2,0.3c-1.5,0.7-2.6,1.7-3.8,2.6
                c-0.2,0.2-0.5,0.4-0.7,0.6l-5.3-3c-2-1.1-3.7-0.4-4.4,0.8l-5.5,9.5C1.9,22,1.8,22.8,2,23.6c0.2,0.8,0.7,1.4,1.4,1.8L9,28.4
                c-0.2,1-0.2,2.1-0.2,3.4c0,1.1,0.1,2.2,0.2,3.3l-5.8,3.2C1.9,39,1.4,40.6,2,42l5.8,9.8C8.5,53,10,53.5,11.4,53l6-3.3
                c0.3,0.2,0.5,0.4,0.8,0.7c1.1,1,2.2,1.9,3.8,2.6c0.1,0,0.2,0.1,0.2,0.3v4.3c0,2.6,2.1,4.8,4.8,4.8h10.2c2.6,0,4.8-2.2,4.8-4.8V53
                c0-0.1,0.1-0.2,0.2-0.3c1.5-0.7,2.5-1.6,3.7-2.6c0.3-0.2,0.5-0.4,0.8-0.7l5.3,3c2,1.1,3.6,0.4,4.4-0.8l5.6-9.5
                c0.4-0.7,0.5-1.5,0.3-2.2S61.4,38.5,60.7,38.1z"
        />
        <g fill="rgb(135,129,67)" onclick='ToggleVisibility(evt,"menu_frame")'>
            <path d="M32.1,19.6c-6.8,0-12.4,5.6-12.4,12.4c0,6.9,5.6,12.4,12.4,12.4S44.5,38.9,44.5,32C44.5,25.2,38.9,19.6,32.1,19.6z
                 M32.1,40c-4.4,0-7.9-3.6-7.9-7.9c0-4.4,3.5-7.9,7.9-7.9S40,27.7,40,32C40,36.4,36.4,40,32.1,40z"/>
            <path d="M60.7,38.1l-5.6-3.1c0.2-1.1,0.3-2.2,0.3-3.3c0-1.2-0.1-2.3-0.2-3.4l5.7-3.2c1.3-0.7,1.8-2.3,1.2-3.7l-5.8-9.8
                c-0.7-1.2-2.3-1.7-3.6-1.2l-6,3.3c-0.3-0.2-0.6-0.5-0.8-0.7c-1.1-0.9-2.1-1.8-3.7-2.6c-0.1,0-0.2-0.1-0.2-0.3V6.5
                c0-2.6-2.1-4.8-4.8-4.8H26.9c-2.6,0-4.8,2.2-4.8,4.8l0,3.9c0,0.1-0.1,0.2-0.2,0.3c-1.5,0.7-2.6,1.7-3.8,2.6
                c-0.2,0.2-0.5,0.4-0.7,0.6l-5.3-3c-2-1.1-3.7-0.4-4.4,0.8l-5.5,9.5C1.9,22,1.8,22.8,2,23.6c0.2,0.8,0.7,1.4,1.4,1.8L9,28.4
                c-0.2,1-0.2,2.1-0.2,3.4c0,1.1,0.1,2.2,0.2,3.3l-5.8,3.2C1.9,39,1.4,40.6,2,42l5.8,9.8C8.5,53,10,53.5,11.4,53l6-3.3
                c0.3,0.2,0.5,0.4,0.8,0.7c1.1,1,2.2,1.9,3.8,2.6c0.1,0,0.2,0.1,0.2,0.3v4.3c0,2.6,2.1,4.8,4.8,4.8h10.2c2.6,0,4.8-2.2,4.8-4.8V53
                c0-0.1,0.1-0.2,0.2-0.3c1.5-0.7,2.5-1.6,3.7-2.6c0.3-0.2,0.5-0.4,0.8-0.7l5.3,3c2,1.1,3.6,0.4,4.4-0.8l5.6-9.5
                c0.4-0.7,0.5-1.5,0.3-2.2S61.4,38.5,60.7,38.1z M53.1,48l-4.8-2.7c-1.4-0.8-3-0.6-4.2,0.4c-0.5,0.4-0.9,0.7-1.3,1.1
                c-1,0.9-1.7,1.5-2.7,1.9c-1.6,0.8-2.7,2.5-2.7,4.3v4.4c0,0.2-0.1,0.3-0.3,0.3H26.9c-0.2,0-0.3-0.1-0.3-0.3v-4.3
                c0-1.8-1.1-3.5-2.7-4.3c-1-0.5-1.8-1.1-2.8-2c-0.4-0.3-0.8-0.7-1.3-1c-0.7-0.5-1.5-0.8-2.4-0.8c-0.6,0-1.3,0.2-1.9,0.5l-4.8,2.7
                l-4-6.8l4.7-2.6c1.4-0.8,2.2-2.3,2-4c-0.1-1-0.2-2-0.2-3c0-1.1,0.1-2.1,0.2-2.9c0.3-1.7-0.5-3.4-2-4.2L7,22.2l3.9-6.7l4.8,2.7
                c1.4,0.8,3,0.6,4.2-0.4c0.4-0.3,0.8-0.7,1.2-1c1-0.9,1.8-1.5,2.8-2c1.7-0.8,2.7-2.5,2.7-4.3l0-3.9c0-0.2,0.1-0.3,0.3-0.3h10.2
                c0.2,0,0.3,0.1,0.3,0.3v3.8c0,1.8,1.1,3.5,2.7,4.3c1,0.5,1.7,1.1,2.7,1.9c0.4,0.4,0.8,0.7,1.3,1.1c1.2,1,2.9,1.1,4.2,0.3l4.8-2.7
                l4,6.8l-4.6,2.6c-1.4,0.8-2.2,2.5-1.9,4.2c0.1,0.9,0.2,1.9,0.2,2.9c0,1-0.1,2-0.3,3c-0.3,1.7,0.5,3.3,2,4.1l4.5,2.5L53.1,48z"
            />
        </g>
    </g>
</svg>