<svg xmlns="http://www.w3.org/2000/svg" viewBox="13 0 42 45">
    <path d="M36.807 0c.861.243 1.31.451 1.853.832L28.131 13.095c2.874 1.871 5.89
    6.528 4.254 10.323.805 -5.147-4.522-9.007-7.653-9.492L36.807 0z" fill="#cf4037"/>

    <path d="M28.399 28.34c1.957.09 3.905.135 5.946.135 4.399 0 8.621-.213 12.579-.596
    a3.152 3.152 0 0 0 2.817-2.771c.32-2.645.47-5.418.47-8.27 0-2.851-.149-5.624-.47-8.27
    a3.156 3.156 0 0 0-2.817-2.772c-1.728-.166-3.509-.3-5.332-.4 0 0-7.548 16.346-8.308 18.03
    -1.122 2.482-2.657 4.301-4.885 4.914z" fill="#cf4037"/>

    <path d="M21.766 27.879c-1.465-.24-2.61-1.078-2.816-2.771-.321-2.645-.472-5.418-.472-8.27
    0-2.851.151-5.624.472-8.27a3.153 3.153 0 0 1 2.816-2.772c2.034-.195 4.139-.346 6.301
    -.448l3.851-4.307c-.024.005.911-.168 1.727.033l-13.428 15.63c2.907-1.385 11.422.776
    11.422 5.828 0 5.4-5.861 6.005-9.873 5.347z" fill="#cf4037"/>

    <path transform="translate(-13,0)" 
    d="M28.707 32.963a6.583 6.583 0 0 1 1.531-.164c.859 0 1.563.176 2.047.641.444.424.668 1.074
    .668 1.814 0 .84-.224 1.41-.591 1.859-.492.617-1.309.916-2.048.916-.157 0-.278 0-.408-.014
    v3.416h-1.204l.005-8.468z
    m1.205 4.055c.103.018.208.025.353.025.919 0 1.476-.623 1.476-1.697 0-.84-.343-1.562-1.329
    -1.562-.203 0-.376.025-.5.064v3.17zM35.291 41.533c-1.234 0-2.133-1.064-2.133-3.186 0-2.246
    1.066-3.211 2.187-3.211 1.222 0 2.108 1.1 2.108 3.188 0 2.457-1.219 3.209-2.15 3.209h-.012z
    m.032-.945c.743 0 .905-1.311.905-2.258 0-.918-.162-2.248-.932-2.248-.784 0-.94 1.33-.94
    2.248 0 1.035.18 2.258.953 2.258h.014z
    M38.118 40.25c.228.146.636.324 1.042.324.514 0 .834-.291.834-.783 0-.42-.178-.703-.771-1.088
    -.877-.537-1.254-1.109-1.254-1.77 0-1.043.769-1.797 1.822-1.797.495 0 .875.148 1.155.309
    l-.272.902a1.484 1.484 0 0 0-.838-.271c-.492 0-.74.342-.74.703 0 .367.154.576.756.971.78
    .479 1.269 1.072 1.269 1.883 0 1.25-.867 1.875-1.975 1.875-.474 0-1.014-.139-1.285-.355
    l.257-.903z
    M43.287 33.734v1.504h1.196v.893h-1.196v3.396c0 .777.292.977.639.977.159 0 .286-.014.411
    -.037l.035.941c-.195.062-.466.1-.827.1-.42 0-.79-.107-1.047-.381-.279-.297-.421-.73-.421
    -1.627v-3.369h-.747v-.893h.747v-1.066l1.21-.438z
    M44.973 40.104c.309.191.852.346 1.294.346.862 0 1.352-.531 1.352-1.299 0-.734-.438-1.162
    -1.13-1.654-.842-.557-1.618-1.391-1.618-2.391 0-1.328.911-2.346 2.42-2.346.546 0 1.031.166
    1.252.312l-.248 1.039a1.903 1.903 0 0 0-1.045-.293c-.8 0-1.181.57-1.181 1.117 0 .738.384
    1.055 1.236 1.625 1.069.717 1.513 1.535 1.513 2.469 0 1.518-1.081 2.479-2.55 2.479-.623 0
    -1.258-.186-1.516-.365l.221-1.039z
    M52.579 41.293c-.201.113-.585.215-1.035.215-1.423 0-2.377-1.09-2.377-3.131 0-1.822.977-3.229
    2.582-3.229.353 0 .709.09.883.188l-.203.969a1.63 1.63 0 0 0-.675-.15c-.925 0-1.376 1.039
    -1.376 2.209 0 1.336.53 2.146 1.387 2.146.256 0 .475-.053.682-.156l.132.939z
    M53.363 36.928c0-.555-.033-1.188-.051-1.689h1.066l.062.949h.036c.225-.613.741-1.051 1.273
    -1.051.115 0 .182.008.255.018v1.219c-.085-.01-.164-.01-.267-.01-.531 0-1.002.465-1.129 1.152
    a3.036 3.036 0 0 0-.051.582v3.334H53.35l.013-4.504z
    M56.71 35.238h1.21v6.193h-1.21v-6.193z
    m.573-.998c-.401 0-.719-.32-.715-.797-.004-.488.327-.801.732-.801.436 0 .741.312.741.801
    .005.477-.306.797-.746.797h-.012z
    M58.959 37.18c0-.883-.032-1.455-.051-1.941h1.066l.062.764h.023c.312-.609.791-.865 1.308
    -.865 1.169 0 1.832 1.256 1.832 3.186 0 2.27-.955 3.211-1.949 3.211-.554 0-.89-.348-1.061
    -.678h-.027v3.023h-1.204v-6.7h.001zm1.204 1.982c0 .189.019.373.062.514.171.717.536.854.778
    .854.739 0 .985-1.033.985-2.189 0-1.25-.303-2.176-.987-2.176-.383 0-.726.451-.789.926a1.912
    1.912 0 0 0-.049.461v1.61z
    M65.203 33.734v1.504H66.4v.893h-1.197v3.396c0 .777.293.977.638.977.16 0 .287-.014.413-.037
    l.033.941c-.194.062-.464.1-.825.1-.42 0-.79-.107-1.047-.381-.28-.297-.422-.73-.422-1.627
    v-3.369h-.745v-.893h.745v-1.066l1.21-.438z"/>
</svg>