<?xml version="1.0" encoding="utf-8"?>
<!-- Generator: Adobe Illustrator 16.0.0, SVG Export Plug-In . SVG Version: 6.00 Build 0)  -->
<!DOCTYPE svg PUBLIC "-//W3C//DTD SVG 1.1//EN" "http://www.w3.org/Graphics/SVG/1.1/DTD/svg11.dtd">
<svg version="1.1" xmlns="http://www.w3.org/2000/svg" xmlns:xlink="http://www.w3.org/1999/xlink" x="0px" y="0px" width="1600px"
	 height="1600px" viewBox="0 0 1600 1600" enable-background="new 0 0 1600 1600" xml:space="preserve">

<g id="svg_icon">
		<path id="background" fill="#F8991D" d="M368.316,331.778h863.368c20.731,0,37.538,16.806,37.538,37.538v863.368
			c0,20.731-16.807,37.538-37.538,37.538H368.316c-20.731,0-37.538-16.807-37.538-37.538V369.316
			C330.778,348.584,347.584,331.778,368.316,331.778z"/>
		<path id="top-left" fill="#FBB03D" d="M368.316,331.778h394.146c20.731,0,37.538,16.806,37.538,37.538v394.146
			C800,784.194,783.193,801,762.462,801H368.316c-20.731,0-37.538-16.806-37.538-37.538V369.316
			C330.778,348.584,347.584,331.778,368.316,331.778z"/>
		<path id="bottom-right" fill="#DD8627" d="M837.538,801h394.146c20.731,0,37.538,16.806,37.538,37.538v394.146
			c0,20.731-16.807,37.538-37.538,37.538H837.538c-20.731,0-37.538-16.807-37.538-37.538V838.538
			C800,817.806,816.807,801,837.538,801z"/>
		<g id="circles">
			<circle id="n" fill="#F8991D" cx="800" cy="504.452" r="172.674"/>
			<circle id="ne" fill="#F8991D" cx="1010.212" cy="590.789" r="172.674"/>
			<circle id="e" fill="#F8991D" cx="1096.548" cy="801" r="172.674"/>
			<circle id="se" fill="#F8991D" cx="1010.212" cy="1011.211" r="172.673"/>
			<circle id="s" fill="#F8991D" cx="800" cy="1097.548" r="172.673"/>
			<circle id="sw" fill="#F8991D" cx="589.789" cy="1011.211" r="172.673"/>
			<circle id="w" fill="#F8991D" cx="503.452" cy="801" r="172.674"/>
			<circle id="nw" fill="#F8991D" cx="589.789" cy="590.789" r="172.674"/>
		</g>
		<g id="stars">
			<path id="black-star" fill="#010101" d="M922.805,504.311c0-67.821-54.983-122.805-122.936-122.805
				c-67.896,0-122.898,54.983-122.898,122.805c-47.861-47.955-125.705-47.955-173.584,0c-48.039,48.048-48.039,125.826,0,173.837
				c-67.887,0-122.964,54.983-122.964,122.795c0,67.849,55.087,122.917,122.964,122.917c-48.039,47.955-48.039,125.705,0,173.753
				c47.879,47.898,125.723,47.898,173.584,0c0,67.831,54.993,122.777,122.898,122.777c67.944,0,122.936-54.946,122.936-122.777
				c48.029,47.898,125.901,47.898,173.734,0c47.87-48.048,47.87-125.845,0-173.753c67.718,0,122.758-55.076,122.758-122.917
				c0-67.822-55.04-122.795-122.758-122.795c47.87-48.039,47.87-125.808,0-173.837
				C1048.706,456.356,970.853,456.356,922.805,504.311z"/>
			<path id="white-star" fill="#FFFFFF" d="M846.95,551.421v135.962l96.257-96.219c0-17.004,6.484-33.953,19.388-46.969
				c26.089-26.004,68.271-26.004,94.069,0c26.004,25.957,26.004,68.084,0,94.097c-12.922,12.904-29.982,19.445-47.063,19.445
				l-96.04,96.171h135.97c12.106-12.012,28.661-19.482,47.026-19.482c36.599,0,66.423,29.833,66.423,66.507
				c0,36.656-29.824,66.517-66.423,66.517c-18.365,0-34.92-7.488-47.026-19.445H913.552l95.993,96.135
				c17.117,0,34.179,6.513,47.063,19.576c26.033,25.892,26.033,68.037,0,93.938c-25.807,26.032-67.934,26.032-94.079,0
				c-12.875-12.876-19.369-29.956-19.369-46.95l-96.237-96.21v136.065c11.928,11.975,19.558,28.659,19.558,47.044
				c0,36.655-29.814,66.413-66.611,66.413c-36.777,0-66.574-29.72-66.574-66.413c0-18.385,7.611-35.022,19.53-47.044V914.495
				l-96.05,96.21c0,17.004-6.615,34.037-19.557,46.95c-25.985,26.013-68.046,26.013-94.07,0c-26.042-25.938-26.042-68.065,0-93.958
				c12.923-13.044,30.162-19.575,47.035-19.575l96.256-96.116H550.505c-12.096,11.975-28.829,19.445-47.063,19.445
				c-36.759,0-66.592-29.843-66.592-66.517c0-36.674,29.814-66.507,66.592-66.507c18.206,0,34.958,7.47,47.063,19.482h135.961
				l-96.247-96.152c-16.864,0-34.084-6.542-47.035-19.436c-26.042-26.014-26.042-68.131,0-94.098
				c26.023-26.004,68.094-26.004,94.098,0c12.904,13.007,19.548,29.983,19.548,46.969l96.05,96.209V551.439
				c-11.918-12.078-19.539-28.65-19.539-47.138c0-36.674,29.796-66.433,66.592-66.433c36.778,0,66.601,29.73,66.601,66.433
				C866.517,522.808,858.878,539.353,846.95,551.421z"/>
		</g>
		<g id="svg-textbox">
			<path id="text-backdrop" fill="#010101" d="M380.516,801h838.781v375.377c0,31.281-15.642,46.923-46.923,46.923H427.438
				c-31.281,0-46.922-15.642-46.922-46.923V801z"/>
			<path id="shine" fill="#404040" d="M468.326,840.518h669.993c27.29,0,49.85,22.382,49.85,49.879v168.074
				c-258.86-31.935-515.449-76.248-769.626-72.1v-95.975C418.551,862.899,440.98,840.518,468.326,840.518L468.326,840.518z"/>
			<g id="svg-text">
				<title>SVG</title>
				<path id="S" fill="#FFFFFF" stroke="#010101" stroke-width="0.5035" d="M502.626,1016.157
					c-19.735-19.773-31.973-47.186-31.973-77.45c0-60.482,49.015-109.535,109.479-109.535c60.493,0,109.488,49.034,109.488,109.535
					h-64.114c0-25.094-20.346-45.392-45.374-45.392c-24.99,0-45.401,20.298-45.401,45.392c0,12.557,5.151,23.799,13.279,32.095l0,0
					c8.287,8.202,19.717,13.186,32.123,13.186v0.112c30.331,0,57.667,12.284,77.356,32.058l0,0
					c19.876,19.811,32.132,47.241,32.132,77.402c0,60.567-48.996,109.61-109.488,109.61c-60.454,0-109.479-49.006-109.479-109.61
					h64.077c0,25.142,20.412,45.374,45.402,45.374c25.028,0,45.374-20.232,45.374-45.374c0-12.472-5.114-23.714-13.411-31.973l0,0
					c-8.108-8.259-19.538-13.308-31.963-13.308l0,0C549.82,1048.279,522.493,1035.949,502.626,1016.157L502.626,1016.157
					L502.626,1016.157z"/>
				<polygon id="V" fill="#FFFFFF" stroke="#010101" stroke-width="0.5035" points="908.747,829.2 831.382,1203.16 767.098,1203.16 
					689.602,829.2 753.848,829.2 799.249,1048.205 844.623,829.2 				"/>
				<path id="G" fill="#FFFFFF" stroke="#010101" stroke-width="0.5035" d="M1018.235,984.118h109.638v109.46l0,0
					c0,60.549-49.043,109.592-109.507,109.592c-60.445,0-109.479-49.043-109.479-109.592l0,0V938.727h-0.159
					c0-60.502,49.184-109.573,109.487-109.573c60.614,0,109.639,49.033,109.639,109.573h-64.274
					c0-25.095-20.195-45.394-45.364-45.394c-24.84,0-45.232,20.299-45.232,45.394v154.852l0,0c0,25.104,20.393,45.393,45.232,45.393
					c25.169,0,45.364-20.289,45.364-45.298v-0.113v-45.298h-45.364L1018.235,984.118L1018.235,984.118z"/>
			</g>
		</g>
</g>
</svg>
